<svg width="1575" height="477" viewBox="0 0 1575 477" fill="none" xmlns="http://www.w3.org/2000/svg">
<rect x="3.5775" y="3.5775" width="1566.94" height="469.845" rx="20.2725" fill="#323233"/>
<path d="M56.0663 80.1777L53.8196 73.824C53.686 73.4901 53.5429 73.099 53.3903 72.6506C53.2472 72.2022 53.1089 71.7157 52.9753 71.191C52.8417 71.7253 52.6986 72.2213 52.546 72.6792C52.4029 73.1276 52.2646 73.5188 52.131 73.8527L49.8987 80.1777H56.0663ZM63.2785 88.0625H59.9443C59.5722 88.0625 59.2669 87.9766 59.0284 87.8049C58.7995 87.6237 58.6278 87.3947 58.5133 87.118L57.1109 83.1542H48.8397L47.4373 87.118C47.3419 87.3565 47.175 87.576 46.9365 87.7763C46.698 87.9671 46.3975 88.0625 46.035 88.0625H42.6721L50.7859 67.2987H55.179L63.2785 88.0625ZM78.4763 77.4874H85.6027V86.0591C84.5438 86.8318 83.4133 87.3995 82.2112 87.762C81.0187 88.115 79.7547 88.2915 78.4191 88.2915C76.7114 88.2915 75.1659 88.0291 73.7826 87.5044C72.3993 86.9702 71.2164 86.2308 70.2338 85.2864C69.2511 84.3419 68.4927 83.2209 67.9585 81.9235C67.4242 80.6261 67.1571 79.2094 67.1571 77.6734C67.1571 76.1184 67.4099 74.6922 67.9155 73.3947C68.4307 72.0973 69.1605 70.9811 70.105 70.0462C71.0494 69.1113 72.1895 68.3815 73.5251 67.8568C74.8702 67.3321 76.3728 67.0697 78.0327 67.0697C78.8913 67.0697 79.6927 67.1413 80.4368 67.2844C81.1809 67.4179 81.8678 67.6087 82.4974 67.8568C83.1271 68.0953 83.7042 68.3815 84.2289 68.7154C84.7536 69.0493 85.2306 69.4166 85.6599 69.8172L84.415 71.7348C84.2242 72.0401 83.9761 72.2261 83.6709 72.2929C83.3656 72.3597 83.0317 72.2833 82.6692 72.0639C82.3257 71.854 81.987 71.668 81.6531 71.5058C81.3288 71.3341 80.9806 71.1862 80.6085 71.0622C80.2365 70.9382 79.831 70.8428 79.3922 70.776C78.9533 70.7092 78.4477 70.6759 77.8753 70.6759C76.9118 70.6759 76.0389 70.8428 75.2566 71.1767C74.4743 71.5106 73.8065 71.9828 73.2532 72.5934C72.7094 73.2039 72.2896 73.9385 71.9939 74.7971C71.6982 75.6557 71.5503 76.6145 71.5503 77.6734C71.5503 78.8182 71.7125 79.8438 72.0368 80.7501C72.3612 81.6468 72.8191 82.4053 73.4106 83.0254C74.0021 83.6455 74.708 84.1177 75.5285 84.4421C76.3584 84.7664 77.2791 84.9286 78.2903 84.9286C78.9772 84.9286 79.5877 84.8618 80.122 84.7283C80.6658 84.5852 81.1952 84.3944 81.7104 84.1559V80.6642H79.3635C79.0869 80.6642 78.8675 80.5927 78.7053 80.4496C78.5526 80.2969 78.4763 80.1061 78.4763 79.8772V77.4874ZM97.2494 70.6615V75.9992H104.175V79.2475H97.2494V84.6996H106.15V88.0625H92.9278V67.2987H106.15V70.6615H97.2494ZM130.965 67.2987V88.0625H128.747C128.413 88.0625 128.132 88.01 127.903 87.9051C127.674 87.7906 127.45 87.5998 127.23 87.3327L116.884 74.1675C116.913 74.5014 116.932 74.8305 116.941 75.1549C116.961 75.4792 116.97 75.7797 116.97 76.0564V88.0625H113.178V67.2987H115.439C115.62 67.2987 115.773 67.3082 115.897 67.3273C116.03 67.3368 116.15 67.3702 116.255 67.4275C116.36 67.4752 116.46 67.542 116.555 67.6278C116.65 67.7137 116.755 67.8282 116.87 67.9713L127.288 81.1937C127.249 80.8312 127.221 80.483 127.202 80.1491C127.183 79.8056 127.173 79.4813 127.173 79.176V67.2987H130.965ZM157.747 77.6734C157.747 79.1903 157.489 80.5879 156.974 81.8663C156.469 83.1351 155.748 84.2274 154.813 85.1433C153.888 86.0591 152.772 86.7746 151.465 87.2898C150.158 87.8049 148.708 88.0625 147.115 88.0625H139.13V67.2987H147.115C148.708 67.2987 150.158 67.5563 151.465 68.0714C152.772 68.5866 153.888 69.3069 154.813 70.2322C155.748 71.1481 156.469 72.2404 156.974 73.5092C157.489 74.778 157.747 76.1661 157.747 77.6734ZM153.34 77.6734C153.34 76.5859 153.196 75.608 152.91 74.7399C152.624 73.8717 152.214 73.1372 151.68 72.5362C151.145 71.9351 150.492 71.4724 149.719 71.1481C148.956 70.8237 148.088 70.6615 147.115 70.6615H143.451V84.6996H147.115C148.088 84.6996 148.956 84.5422 149.719 84.2274C150.492 83.9031 151.145 83.4404 151.68 82.8394C152.214 82.2288 152.624 81.4894 152.91 80.6213C153.196 79.7532 153.34 78.7705 153.34 77.6734ZM175.009 80.1777L172.762 73.824C172.629 73.4901 172.485 73.099 172.333 72.6506C172.19 72.2022 172.051 71.7157 171.918 71.191C171.784 71.7253 171.641 72.2213 171.489 72.6792C171.345 73.1276 171.207 73.5188 171.074 73.8527L168.841 80.1777H175.009ZM182.221 88.0625H178.887C178.515 88.0625 178.209 87.9766 177.971 87.8049C177.742 87.6237 177.57 87.3947 177.456 87.118L176.053 83.1542H167.782L166.38 87.118C166.284 87.3565 166.118 87.576 165.879 87.7763C165.641 87.9671 165.34 88.0625 164.978 88.0625H161.615L169.728 67.2987H174.122L182.221 88.0625Z" fill="#BB86FC"/>
<path d="M1487.38 71.6365L1493.66 77.919L1482.59 88.9874H1476.31V82.705L1487.38 71.6365ZM1502.11 67.3692L1497.93 63.1907C1497.79 63.0519 1497.63 62.9416 1497.45 62.8664C1497.27 62.7912 1497.07 62.7524 1496.88 62.7524C1496.68 62.7524 1496.49 62.7912 1496.31 62.8664C1496.13 62.9416 1495.96 63.0519 1495.83 63.1907L1491.56 67.4581L1497.84 73.7406L1502.11 69.4732C1502.25 69.3355 1502.36 69.1716 1502.43 68.991C1502.51 68.8105 1502.55 68.6168 1502.55 68.4212C1502.55 68.2256 1502.51 68.0319 1502.43 67.8514C1502.36 67.6708 1502.25 67.5069 1502.11 67.3692V67.3692Z" fill="#D1D1D1" stroke="#D1D1D1" stroke-width="1.48172" stroke-linecap="round" stroke-linejoin="round"/>
<path d="M102.56 165.457C102.56 169.409 99.3566 172.612 95.405 172.612C91.4534 172.612 88.25 169.409 88.25 165.457C88.25 161.506 91.4534 158.302 95.405 158.302C99.3566 158.302 102.56 161.506 102.56 165.457Z" fill="#D1D1D1"/>
<path d="M156.479 169.575L152.722 159.842C152.611 159.553 152.494 159.219 152.372 158.84C152.249 158.451 152.133 158.039 152.021 157.605C151.788 158.507 151.548 159.258 151.303 159.859L147.547 169.575H156.479ZM163.224 178.457H160.719C160.43 178.457 160.196 178.385 160.018 178.24C159.84 178.095 159.707 177.912 159.617 177.689L157.38 171.913H146.645L144.408 177.689C144.342 177.889 144.214 178.067 144.024 178.223C143.835 178.379 143.601 178.457 143.323 178.457H140.819L150.385 154.533H153.657L163.224 178.457ZM171.205 170.193C171.806 170.193 172.335 170.11 172.791 169.943C173.248 169.776 173.632 169.542 173.943 169.241C174.255 168.941 174.489 168.585 174.644 168.173C174.8 167.75 174.878 167.288 174.878 166.787C174.878 165.752 174.561 164.929 173.927 164.316C173.303 163.704 172.396 163.398 171.205 163.398C170.003 163.398 169.085 163.704 168.451 164.316C167.827 164.929 167.516 165.752 167.516 166.787C167.516 167.288 167.594 167.75 167.749 168.173C167.916 168.585 168.156 168.941 168.467 169.241C168.779 169.542 169.163 169.776 169.619 169.943C170.076 170.11 170.604 170.193 171.205 170.193ZM176.564 179.375C176.564 178.963 176.448 178.63 176.214 178.374C175.98 178.118 175.663 177.917 175.262 177.773C174.873 177.628 174.416 177.528 173.893 177.472C173.37 177.405 172.814 177.355 172.224 177.322C171.645 177.288 171.055 177.255 170.454 177.222C169.853 177.188 169.274 177.133 168.718 177.055C168.094 177.344 167.582 177.711 167.182 178.157C166.792 178.591 166.597 179.103 166.597 179.692C166.597 180.071 166.692 180.421 166.881 180.744C167.082 181.078 167.382 181.362 167.783 181.596C168.183 181.841 168.684 182.03 169.285 182.163C169.897 182.308 170.615 182.38 171.439 182.38C172.24 182.38 172.958 182.308 173.593 182.163C174.227 182.019 174.761 181.813 175.195 181.546C175.641 181.278 175.98 180.961 176.214 180.594C176.448 180.227 176.564 179.82 176.564 179.375ZM179.586 162.213V163.315C179.586 163.682 179.352 163.916 178.885 164.016L176.965 164.266C177.343 165.001 177.533 165.813 177.533 166.704C177.533 167.527 177.371 168.279 177.049 168.958C176.737 169.625 176.303 170.199 175.746 170.677C175.19 171.156 174.522 171.523 173.743 171.779C172.964 172.035 172.118 172.163 171.205 172.163C170.415 172.163 169.669 172.068 168.968 171.879C168.612 172.102 168.339 172.341 168.15 172.597C167.961 172.842 167.866 173.092 167.866 173.348C167.866 173.749 168.028 174.055 168.35 174.267C168.684 174.467 169.118 174.612 169.653 174.701C170.187 174.79 170.793 174.845 171.472 174.868C172.162 174.89 172.864 174.929 173.576 174.984C174.299 175.029 175.001 175.112 175.68 175.235C176.37 175.357 176.982 175.558 177.516 175.836C178.05 176.114 178.479 176.498 178.801 176.988C179.135 177.478 179.302 178.112 179.302 178.891C179.302 179.615 179.119 180.316 178.751 180.995C178.395 181.674 177.878 182.275 177.199 182.798C176.52 183.332 175.685 183.755 174.695 184.067C173.715 184.389 172.608 184.551 171.372 184.551C170.137 184.551 169.057 184.428 168.133 184.183C167.21 183.939 166.442 183.61 165.829 183.198C165.217 182.787 164.755 182.308 164.444 181.763C164.143 181.228 163.993 180.666 163.993 180.076C163.993 179.242 164.255 178.535 164.778 177.956C165.301 177.377 166.019 176.916 166.931 176.57C166.431 176.348 166.03 176.053 165.729 175.686C165.44 175.307 165.295 174.801 165.295 174.166C165.295 173.922 165.34 173.671 165.429 173.415C165.518 173.148 165.651 172.886 165.829 172.63C166.019 172.363 166.247 172.113 166.514 171.879C166.781 171.645 167.093 171.44 167.449 171.261C166.614 170.794 165.963 170.176 165.496 169.408C165.028 168.629 164.794 167.728 164.794 166.704C164.794 165.88 164.95 165.134 165.262 164.467C165.585 163.788 166.03 163.214 166.597 162.747C167.165 162.268 167.838 161.901 168.618 161.645C169.408 161.389 170.27 161.261 171.205 161.261C171.94 161.261 172.624 161.345 173.259 161.512C173.893 161.667 174.472 161.901 174.995 162.213H179.586ZM193.36 168.156C193.36 167.466 193.26 166.837 193.059 166.27C192.87 165.691 192.586 165.196 192.208 164.784C191.84 164.361 191.39 164.038 190.855 163.816C190.321 163.582 189.715 163.465 189.036 163.465C187.611 163.465 186.481 163.882 185.647 164.717C184.823 165.541 184.311 166.687 184.111 168.156H193.36ZM195.764 176.086C195.396 176.532 194.957 176.921 194.445 177.255C193.933 177.578 193.382 177.845 192.792 178.056C192.213 178.268 191.612 178.424 190.989 178.524C190.366 178.635 189.748 178.691 189.136 178.691C187.967 178.691 186.888 178.496 185.897 178.106C184.918 177.706 184.066 177.127 183.343 176.37C182.63 175.602 182.074 174.656 181.673 173.532C181.273 172.408 181.072 171.117 181.072 169.659C181.072 168.479 181.25 167.377 181.606 166.353C181.974 165.329 182.497 164.444 183.176 163.699C183.855 162.942 184.684 162.352 185.663 161.929C186.643 161.495 187.745 161.278 188.969 161.278C189.982 161.278 190.917 161.45 191.774 161.795C192.642 162.129 193.388 162.619 194.011 163.265C194.645 163.899 195.14 164.689 195.497 165.635C195.853 166.57 196.031 167.639 196.031 168.841C196.031 169.308 195.981 169.62 195.881 169.776C195.78 169.931 195.591 170.009 195.313 170.009H184.01C184.044 171.078 184.189 172.007 184.445 172.797C184.712 173.588 185.079 174.25 185.546 174.784C186.014 175.307 186.57 175.702 187.216 175.969C187.861 176.225 188.585 176.353 189.386 176.353C190.132 176.353 190.772 176.27 191.306 176.103C191.852 175.925 192.319 175.736 192.709 175.535C193.098 175.335 193.421 175.151 193.677 174.984C193.944 174.806 194.172 174.717 194.361 174.717C194.606 174.717 194.795 174.812 194.929 175.001L195.764 176.086ZM202.128 163.999C202.495 163.587 202.885 163.214 203.297 162.881C203.709 162.547 204.143 162.263 204.599 162.029C205.066 161.784 205.556 161.601 206.068 161.478C206.591 161.345 207.153 161.278 207.754 161.278C208.678 161.278 209.491 161.434 210.192 161.745C210.904 162.046 211.494 162.48 211.961 163.048C212.44 163.604 212.802 164.277 213.047 165.068C213.291 165.858 213.414 166.732 213.414 167.689V178.457H210.426V167.689C210.426 166.409 210.131 165.418 209.541 164.717C208.962 164.005 208.077 163.649 206.886 163.649C206.007 163.649 205.183 163.86 204.415 164.283C203.658 164.706 202.957 165.279 202.312 166.003V178.457H199.323V161.545H201.11C201.533 161.545 201.794 161.751 201.894 162.163L202.128 163.999ZM228.603 165.568C228.047 164.823 227.446 164.305 226.8 164.016C226.155 163.715 225.431 163.565 224.63 163.565C223.06 163.565 221.853 164.127 221.007 165.251C220.161 166.375 219.738 167.978 219.738 170.059C219.738 171.161 219.833 172.107 220.022 172.898C220.211 173.677 220.489 174.322 220.857 174.834C221.224 175.335 221.675 175.702 222.209 175.936C222.743 176.17 223.35 176.287 224.029 176.287C225.008 176.287 225.86 176.064 226.583 175.619C227.318 175.174 227.991 174.545 228.603 173.732V165.568ZM231.575 153.865V178.457H229.805C229.382 178.457 229.115 178.251 229.004 177.839L228.737 175.786C228.013 176.654 227.19 177.355 226.266 177.889C225.342 178.424 224.274 178.691 223.06 178.691C222.092 178.691 221.213 178.507 220.423 178.14C219.632 177.761 218.959 177.21 218.402 176.487C217.846 175.764 217.417 174.862 217.117 173.782C216.816 172.703 216.666 171.462 216.666 170.059C216.666 168.813 216.833 167.655 217.167 166.587C217.501 165.507 217.98 164.572 218.603 163.782C219.226 162.992 219.989 162.374 220.89 161.929C221.803 161.473 222.827 161.244 223.962 161.244C224.997 161.244 225.882 161.423 226.616 161.779C227.362 162.124 228.024 162.608 228.603 163.231V153.865H231.575ZM245.076 170.844C243.707 170.889 242.539 171 241.57 171.178C240.613 171.345 239.828 171.568 239.216 171.846C238.615 172.124 238.176 172.452 237.897 172.831C237.63 173.209 237.497 173.632 237.497 174.1C237.497 174.545 237.569 174.929 237.714 175.252C237.858 175.574 238.053 175.841 238.298 176.053C238.554 176.253 238.849 176.404 239.183 176.504C239.528 176.593 239.895 176.637 240.285 176.637C240.808 176.637 241.287 176.587 241.721 176.487C242.155 176.376 242.561 176.22 242.939 176.02C243.329 175.819 243.696 175.58 244.041 175.302C244.397 175.023 244.742 174.706 245.076 174.35V170.844ZM235.477 163.932C236.412 163.031 237.419 162.357 238.498 161.912C239.578 161.467 240.775 161.244 242.088 161.244C243.034 161.244 243.874 161.4 244.609 161.712C245.343 162.024 245.961 162.458 246.462 163.014C246.963 163.571 247.341 164.244 247.597 165.034C247.853 165.824 247.981 166.693 247.981 167.639V178.457H246.662C246.373 178.457 246.15 178.413 245.995 178.323C245.839 178.223 245.716 178.034 245.627 177.756L245.293 176.153C244.848 176.565 244.414 176.932 243.991 177.255C243.568 177.567 243.123 177.834 242.656 178.056C242.188 178.268 241.687 178.429 241.153 178.541C240.63 178.663 240.046 178.724 239.4 178.724C238.743 178.724 238.126 178.635 237.547 178.457C236.968 178.268 236.462 177.99 236.028 177.622C235.605 177.255 235.265 176.793 235.009 176.237C234.764 175.669 234.642 175.001 234.642 174.233C234.642 173.565 234.826 172.925 235.193 172.313C235.56 171.69 236.156 171.139 236.979 170.66C237.803 170.182 238.877 169.792 240.201 169.492C241.526 169.18 243.151 169.002 245.076 168.958V167.639C245.076 166.325 244.792 165.335 244.225 164.667C243.657 163.988 242.828 163.649 241.737 163.649C241.003 163.649 240.385 163.743 239.884 163.932C239.394 164.11 238.966 164.316 238.599 164.55C238.242 164.773 237.931 164.979 237.664 165.168C237.408 165.346 237.152 165.435 236.896 165.435C236.695 165.435 236.523 165.385 236.378 165.285C236.233 165.173 236.111 165.04 236.011 164.884L235.477 163.932ZM274.977 176.187V178.457H262.155V176.187H267.281V159.875C267.281 159.386 267.297 158.89 267.331 158.39L263.074 162.046C262.929 162.168 262.784 162.246 262.639 162.28C262.495 162.302 262.361 162.302 262.239 162.28C262.116 162.257 261.999 162.213 261.888 162.146C261.788 162.079 261.71 162.007 261.654 161.929L260.72 160.643L267.848 154.483H270.269V176.187H274.977Z" fill="#D1D1D1"/>
<path d="M140.719 189.457H1502.55" stroke="#D1D1D1" stroke-width="4.77" stroke-linecap="round"/>
<path d="M102.56 273.082C102.56 277.034 99.3566 280.237 95.405 280.237C91.4534 280.237 88.25 277.034 88.25 273.082C88.25 269.131 91.4534 265.927 95.405 265.927C99.3566 265.927 102.56 269.131 102.56 273.082Z" fill="#D1D1D1"/>
<path d="M156.479 277.2L152.722 267.467C152.611 267.178 152.494 266.844 152.372 266.465C152.249 266.076 152.133 265.664 152.021 265.23C151.788 266.132 151.548 266.883 151.303 267.484L147.547 277.2H156.479ZM163.224 286.082H160.719C160.43 286.082 160.196 286.01 160.018 285.865C159.84 285.72 159.707 285.537 159.617 285.314L157.38 279.538H146.645L144.408 285.314C144.342 285.514 144.214 285.692 144.024 285.848C143.835 286.004 143.601 286.082 143.323 286.082H140.819L150.385 262.158H153.657L163.224 286.082ZM171.205 277.818C171.806 277.818 172.335 277.735 172.791 277.568C173.248 277.401 173.632 277.167 173.943 276.866C174.255 276.566 174.489 276.21 174.644 275.798C174.8 275.375 174.878 274.913 174.878 274.412C174.878 273.377 174.561 272.554 173.927 271.941C173.303 271.329 172.396 271.023 171.205 271.023C170.003 271.023 169.085 271.329 168.451 271.941C167.827 272.554 167.516 273.377 167.516 274.412C167.516 274.913 167.594 275.375 167.749 275.798C167.916 276.21 168.156 276.566 168.467 276.866C168.779 277.167 169.163 277.401 169.619 277.568C170.076 277.735 170.604 277.818 171.205 277.818ZM176.564 287C176.564 286.588 176.448 286.255 176.214 285.999C175.98 285.743 175.663 285.542 175.262 285.398C174.873 285.253 174.416 285.153 173.893 285.097C173.37 285.03 172.814 284.98 172.224 284.947C171.645 284.913 171.055 284.88 170.454 284.847C169.853 284.813 169.274 284.758 168.718 284.68C168.094 284.969 167.582 285.336 167.182 285.782C166.792 286.216 166.597 286.728 166.597 287.317C166.597 287.696 166.692 288.046 166.881 288.369C167.082 288.703 167.382 288.987 167.783 289.221C168.183 289.466 168.684 289.655 169.285 289.788C169.897 289.933 170.615 290.005 171.439 290.005C172.24 290.005 172.958 289.933 173.593 289.788C174.227 289.644 174.761 289.438 175.195 289.171C175.641 288.903 175.98 288.586 176.214 288.219C176.448 287.852 176.564 287.445 176.564 287ZM179.586 269.838V270.94C179.586 271.307 179.352 271.541 178.885 271.641L176.965 271.891C177.343 272.626 177.533 273.438 177.533 274.329C177.533 275.152 177.371 275.904 177.049 276.583C176.737 277.25 176.303 277.824 175.746 278.302C175.19 278.781 174.522 279.148 173.743 279.404C172.964 279.66 172.118 279.788 171.205 279.788C170.415 279.788 169.669 279.693 168.968 279.504C168.612 279.727 168.339 279.966 168.15 280.222C167.961 280.467 167.866 280.717 167.866 280.973C167.866 281.374 168.028 281.68 168.35 281.892C168.684 282.092 169.118 282.237 169.653 282.326C170.187 282.415 170.793 282.47 171.472 282.493C172.162 282.515 172.864 282.554 173.576 282.609C174.299 282.654 175.001 282.737 175.68 282.86C176.37 282.982 176.982 283.183 177.516 283.461C178.05 283.739 178.479 284.123 178.801 284.613C179.135 285.103 179.302 285.737 179.302 286.516C179.302 287.24 179.119 287.941 178.751 288.62C178.395 289.299 177.878 289.9 177.199 290.423C176.52 290.957 175.685 291.38 174.695 291.692C173.715 292.014 172.608 292.176 171.372 292.176C170.137 292.176 169.057 292.053 168.133 291.808C167.21 291.564 166.442 291.235 165.829 290.823C165.217 290.412 164.755 289.933 164.444 289.388C164.143 288.853 163.993 288.291 163.993 287.701C163.993 286.867 164.255 286.16 164.778 285.581C165.301 285.002 166.019 284.541 166.931 284.195C166.431 283.973 166.03 283.678 165.729 283.311C165.44 282.932 165.295 282.426 165.295 281.791C165.295 281.547 165.34 281.296 165.429 281.04C165.518 280.773 165.651 280.511 165.829 280.255C166.019 279.988 166.247 279.738 166.514 279.504C166.781 279.27 167.093 279.065 167.449 278.886C166.614 278.419 165.963 277.801 165.496 277.033C165.028 276.254 164.794 275.353 164.794 274.329C164.794 273.505 164.95 272.759 165.262 272.092C165.585 271.413 166.03 270.839 166.597 270.372C167.165 269.893 167.838 269.526 168.618 269.27C169.408 269.014 170.27 268.886 171.205 268.886C171.94 268.886 172.624 268.97 173.259 269.137C173.893 269.292 174.472 269.526 174.995 269.838H179.586ZM193.36 275.781C193.36 275.091 193.26 274.462 193.059 273.895C192.87 273.316 192.586 272.821 192.208 272.409C191.84 271.986 191.39 271.663 190.855 271.441C190.321 271.207 189.715 271.09 189.036 271.09C187.611 271.09 186.481 271.507 185.647 272.342C184.823 273.166 184.311 274.312 184.111 275.781H193.36ZM195.764 283.711C195.396 284.157 194.957 284.546 194.445 284.88C193.933 285.203 193.382 285.47 192.792 285.681C192.213 285.893 191.612 286.049 190.989 286.149C190.366 286.26 189.748 286.316 189.136 286.316C187.967 286.316 186.888 286.121 185.897 285.731C184.918 285.331 184.066 284.752 183.343 283.995C182.63 283.227 182.074 282.281 181.673 281.157C181.273 280.033 181.072 278.742 181.072 277.284C181.072 276.104 181.25 275.002 181.606 273.978C181.974 272.954 182.497 272.069 183.176 271.324C183.855 270.567 184.684 269.977 185.663 269.554C186.643 269.12 187.745 268.903 188.969 268.903C189.982 268.903 190.917 269.075 191.774 269.42C192.642 269.754 193.388 270.244 194.011 270.89C194.645 271.524 195.14 272.314 195.497 273.26C195.853 274.195 196.031 275.264 196.031 276.466C196.031 276.933 195.981 277.245 195.881 277.401C195.78 277.556 195.591 277.634 195.313 277.634H184.01C184.044 278.703 184.189 279.632 184.445 280.422C184.712 281.213 185.079 281.875 185.546 282.409C186.014 282.932 186.57 283.327 187.216 283.594C187.861 283.85 188.585 283.978 189.386 283.978C190.132 283.978 190.772 283.895 191.306 283.728C191.852 283.55 192.319 283.361 192.709 283.16C193.098 282.96 193.421 282.776 193.677 282.609C193.944 282.431 194.172 282.342 194.361 282.342C194.606 282.342 194.795 282.437 194.929 282.626L195.764 283.711ZM202.128 271.624C202.495 271.212 202.885 270.839 203.297 270.506C203.709 270.172 204.143 269.888 204.599 269.654C205.066 269.409 205.556 269.226 206.068 269.103C206.591 268.97 207.153 268.903 207.754 268.903C208.678 268.903 209.491 269.059 210.192 269.37C210.904 269.671 211.494 270.105 211.961 270.673C212.44 271.229 212.802 271.902 213.047 272.693C213.291 273.483 213.414 274.357 213.414 275.314V286.082H210.426V275.314C210.426 274.034 210.131 273.043 209.541 272.342C208.962 271.63 208.077 271.274 206.886 271.274C206.007 271.274 205.183 271.485 204.415 271.908C203.658 272.331 202.957 272.904 202.312 273.628V286.082H199.323V269.17H201.11C201.533 269.17 201.794 269.376 201.894 269.788L202.128 271.624ZM228.603 273.193C228.047 272.448 227.446 271.93 226.8 271.641C226.155 271.34 225.431 271.19 224.63 271.19C223.06 271.19 221.853 271.752 221.007 272.876C220.161 274 219.738 275.603 219.738 277.684C219.738 278.786 219.833 279.732 220.022 280.523C220.211 281.302 220.489 281.947 220.857 282.459C221.224 282.96 221.675 283.327 222.209 283.561C222.743 283.795 223.35 283.912 224.029 283.912C225.008 283.912 225.86 283.689 226.583 283.244C227.318 282.799 227.991 282.17 228.603 281.357V273.193ZM231.575 261.49V286.082H229.805C229.382 286.082 229.115 285.876 229.004 285.464L228.737 283.411C228.013 284.279 227.19 284.98 226.266 285.514C225.342 286.049 224.274 286.316 223.06 286.316C222.092 286.316 221.213 286.132 220.423 285.765C219.632 285.386 218.959 284.835 218.402 284.112C217.846 283.389 217.417 282.487 217.117 281.407C216.816 280.328 216.666 279.087 216.666 277.684C216.666 276.438 216.833 275.28 217.167 274.212C217.501 273.132 217.98 272.197 218.603 271.407C219.226 270.617 219.989 269.999 220.89 269.554C221.803 269.098 222.827 268.869 223.962 268.869C224.997 268.869 225.882 269.048 226.616 269.404C227.362 269.749 228.024 270.233 228.603 270.856V261.49H231.575ZM245.076 278.469C243.707 278.514 242.539 278.625 241.57 278.803C240.613 278.97 239.828 279.193 239.216 279.471C238.615 279.749 238.176 280.077 237.897 280.456C237.63 280.834 237.497 281.257 237.497 281.725C237.497 282.17 237.569 282.554 237.714 282.877C237.858 283.199 238.053 283.466 238.298 283.678C238.554 283.878 238.849 284.029 239.183 284.129C239.528 284.218 239.895 284.262 240.285 284.262C240.808 284.262 241.287 284.212 241.721 284.112C242.155 284.001 242.561 283.845 242.939 283.645C243.329 283.444 243.696 283.205 244.041 282.927C244.397 282.648 244.742 282.331 245.076 281.975V278.469ZM235.477 271.557C236.412 270.656 237.419 269.982 238.498 269.537C239.578 269.092 240.775 268.869 242.088 268.869C243.034 268.869 243.874 269.025 244.609 269.337C245.343 269.649 245.961 270.083 246.462 270.639C246.963 271.196 247.341 271.869 247.597 272.659C247.853 273.449 247.981 274.318 247.981 275.264V286.082H246.662C246.373 286.082 246.15 286.038 245.995 285.948C245.839 285.848 245.716 285.659 245.627 285.381L245.293 283.778C244.848 284.19 244.414 284.557 243.991 284.88C243.568 285.192 243.123 285.459 242.656 285.681C242.188 285.893 241.687 286.054 241.153 286.166C240.63 286.288 240.046 286.349 239.4 286.349C238.743 286.349 238.126 286.26 237.547 286.082C236.968 285.893 236.462 285.615 236.028 285.247C235.605 284.88 235.265 284.418 235.009 283.862C234.764 283.294 234.642 282.626 234.642 281.858C234.642 281.19 234.826 280.55 235.193 279.938C235.56 279.315 236.156 278.764 236.979 278.285C237.803 277.807 238.877 277.417 240.201 277.117C241.526 276.805 243.151 276.627 245.076 276.583V275.264C245.076 273.95 244.792 272.96 244.225 272.292C243.657 271.613 242.828 271.274 241.737 271.274C241.003 271.274 240.385 271.368 239.884 271.557C239.394 271.735 238.966 271.941 238.599 272.175C238.242 272.398 237.931 272.604 237.664 272.793C237.408 272.971 237.152 273.06 236.896 273.06C236.695 273.06 236.523 273.01 236.378 272.91C236.233 272.798 236.111 272.665 236.011 272.509L235.477 271.557ZM274.46 283.261C274.782 283.261 275.038 283.355 275.227 283.544C275.417 283.734 275.511 283.978 275.511 284.279V286.082H259.551V285.064C259.551 284.852 259.595 284.635 259.684 284.413C259.773 284.19 259.913 283.984 260.102 283.795L267.765 276.098C268.399 275.453 268.978 274.835 269.501 274.245C270.024 273.644 270.469 273.043 270.837 272.442C271.204 271.841 271.488 271.235 271.688 270.622C271.888 269.999 271.989 269.337 271.989 268.636C271.989 267.935 271.877 267.322 271.655 266.799C271.432 266.265 271.126 265.825 270.737 265.48C270.358 265.135 269.907 264.879 269.384 264.712C268.861 264.534 268.299 264.445 267.698 264.445C267.086 264.445 266.524 264.534 266.012 264.712C265.5 264.891 265.044 265.141 264.643 265.464C264.253 265.775 263.925 266.148 263.658 266.582C263.391 267.016 263.202 267.495 263.09 268.018C262.957 268.408 262.773 268.669 262.539 268.803C262.317 268.925 261.999 268.959 261.588 268.903L260.035 268.636C260.191 267.545 260.491 266.582 260.937 265.748C261.393 264.902 261.961 264.195 262.639 263.627C263.33 263.06 264.114 262.631 264.993 262.342C265.873 262.041 266.824 261.891 267.848 261.891C268.861 261.891 269.807 262.041 270.686 262.342C271.566 262.642 272.328 263.082 272.974 263.661C273.619 264.228 274.126 264.924 274.493 265.748C274.86 266.571 275.044 267.506 275.044 268.552C275.044 269.443 274.91 270.272 274.643 271.04C274.376 271.797 274.014 272.52 273.558 273.21C273.102 273.9 272.573 274.574 271.972 275.23C271.382 275.887 270.753 276.549 270.085 277.217L263.775 283.661C264.22 283.539 264.671 283.444 265.127 283.377C265.583 283.3 266.023 283.261 266.446 283.261H274.46Z" fill="#D1D1D1"/>
<path d="M140.719 297.082H1502.55" stroke="#D1D1D1" stroke-width="4.77" stroke-linecap="round"/>
<path d="M102.56 380.707C102.56 384.659 99.3566 387.862 95.405 387.862C91.4534 387.862 88.25 384.659 88.25 380.707C88.25 376.756 91.4534 373.552 95.405 373.552C99.3566 373.552 102.56 376.756 102.56 380.707Z" fill="#D1D1D1"/>
<path d="M156.479 384.825L152.722 375.092C152.611 374.803 152.494 374.469 152.372 374.09C152.249 373.701 152.133 373.289 152.021 372.855C151.788 373.757 151.548 374.508 151.303 375.109L147.547 384.825H156.479ZM163.224 393.707H160.719C160.43 393.707 160.196 393.635 160.018 393.49C159.84 393.345 159.707 393.162 159.617 392.939L157.38 387.163H146.645L144.408 392.939C144.342 393.139 144.214 393.317 144.024 393.473C143.835 393.629 143.601 393.707 143.323 393.707H140.819L150.385 369.783H153.657L163.224 393.707ZM171.205 385.443C171.806 385.443 172.335 385.36 172.791 385.193C173.248 385.026 173.632 384.792 173.943 384.491C174.255 384.191 174.489 383.835 174.644 383.423C174.8 383 174.878 382.538 174.878 382.037C174.878 381.002 174.561 380.179 173.927 379.566C173.303 378.954 172.396 378.648 171.205 378.648C170.003 378.648 169.085 378.954 168.451 379.566C167.827 380.179 167.516 381.002 167.516 382.037C167.516 382.538 167.594 383 167.749 383.423C167.916 383.835 168.156 384.191 168.467 384.491C168.779 384.792 169.163 385.026 169.619 385.193C170.076 385.36 170.604 385.443 171.205 385.443ZM176.564 394.625C176.564 394.213 176.448 393.88 176.214 393.624C175.98 393.368 175.663 393.167 175.262 393.023C174.873 392.878 174.416 392.778 173.893 392.722C173.37 392.655 172.814 392.605 172.224 392.572C171.645 392.538 171.055 392.505 170.454 392.472C169.853 392.438 169.274 392.383 168.718 392.305C168.094 392.594 167.582 392.961 167.182 393.407C166.792 393.841 166.597 394.353 166.597 394.942C166.597 395.321 166.692 395.671 166.881 395.994C167.082 396.328 167.382 396.612 167.783 396.846C168.183 397.091 168.684 397.28 169.285 397.413C169.897 397.558 170.615 397.63 171.439 397.63C172.24 397.63 172.958 397.558 173.593 397.413C174.227 397.269 174.761 397.063 175.195 396.796C175.641 396.528 175.98 396.211 176.214 395.844C176.448 395.477 176.564 395.07 176.564 394.625ZM179.586 377.463V378.565C179.586 378.932 179.352 379.166 178.885 379.266L176.965 379.516C177.343 380.251 177.533 381.063 177.533 381.954C177.533 382.777 177.371 383.529 177.049 384.208C176.737 384.875 176.303 385.449 175.746 385.927C175.19 386.406 174.522 386.773 173.743 387.029C172.964 387.285 172.118 387.413 171.205 387.413C170.415 387.413 169.669 387.318 168.968 387.129C168.612 387.352 168.339 387.591 168.15 387.847C167.961 388.092 167.866 388.342 167.866 388.598C167.866 388.999 168.028 389.305 168.35 389.517C168.684 389.717 169.118 389.862 169.653 389.951C170.187 390.04 170.793 390.095 171.472 390.118C172.162 390.14 172.864 390.179 173.576 390.234C174.299 390.279 175.001 390.362 175.68 390.485C176.37 390.607 176.982 390.808 177.516 391.086C178.05 391.364 178.479 391.748 178.801 392.238C179.135 392.728 179.302 393.362 179.302 394.141C179.302 394.865 179.119 395.566 178.751 396.245C178.395 396.924 177.878 397.525 177.199 398.048C176.52 398.582 175.685 399.005 174.695 399.317C173.715 399.639 172.608 399.801 171.372 399.801C170.137 399.801 169.057 399.678 168.133 399.433C167.21 399.189 166.442 398.86 165.829 398.448C165.217 398.037 164.755 397.558 164.444 397.013C164.143 396.478 163.993 395.916 163.993 395.326C163.993 394.492 164.255 393.785 164.778 393.206C165.301 392.627 166.019 392.166 166.931 391.82C166.431 391.598 166.03 391.303 165.729 390.936C165.44 390.557 165.295 390.051 165.295 389.416C165.295 389.172 165.34 388.921 165.429 388.665C165.518 388.398 165.651 388.136 165.829 387.88C166.019 387.613 166.247 387.363 166.514 387.129C166.781 386.895 167.093 386.69 167.449 386.511C166.614 386.044 165.963 385.426 165.496 384.658C165.028 383.879 164.794 382.978 164.794 381.954C164.794 381.13 164.95 380.384 165.262 379.717C165.585 379.038 166.03 378.464 166.597 377.997C167.165 377.518 167.838 377.151 168.618 376.895C169.408 376.639 170.27 376.511 171.205 376.511C171.94 376.511 172.624 376.595 173.259 376.762C173.893 376.917 174.472 377.151 174.995 377.463H179.586ZM193.36 383.406C193.36 382.716 193.26 382.087 193.059 381.52C192.87 380.941 192.586 380.446 192.208 380.034C191.84 379.611 191.39 379.288 190.855 379.066C190.321 378.832 189.715 378.715 189.036 378.715C187.611 378.715 186.481 379.132 185.647 379.967C184.823 380.791 184.311 381.937 184.111 383.406H193.36ZM195.764 391.336C195.396 391.782 194.957 392.171 194.445 392.505C193.933 392.828 193.382 393.095 192.792 393.306C192.213 393.518 191.612 393.674 190.989 393.774C190.366 393.885 189.748 393.941 189.136 393.941C187.967 393.941 186.888 393.746 185.897 393.356C184.918 392.956 184.066 392.377 183.343 391.62C182.63 390.852 182.074 389.906 181.673 388.782C181.273 387.658 181.072 386.367 181.072 384.909C181.072 383.729 181.25 382.627 181.606 381.603C181.974 380.579 182.497 379.694 183.176 378.949C183.855 378.192 184.684 377.602 185.663 377.179C186.643 376.745 187.745 376.528 188.969 376.528C189.982 376.528 190.917 376.7 191.774 377.045C192.642 377.379 193.388 377.869 194.011 378.515C194.645 379.149 195.14 379.939 195.497 380.885C195.853 381.82 196.031 382.889 196.031 384.091C196.031 384.558 195.981 384.87 195.881 385.026C195.78 385.181 195.591 385.259 195.313 385.259H184.01C184.044 386.328 184.189 387.257 184.445 388.047C184.712 388.838 185.079 389.5 185.546 390.034C186.014 390.557 186.57 390.952 187.216 391.219C187.861 391.475 188.585 391.603 189.386 391.603C190.132 391.603 190.772 391.52 191.306 391.353C191.852 391.175 192.319 390.986 192.709 390.785C193.098 390.585 193.421 390.401 193.677 390.234C193.944 390.056 194.172 389.967 194.361 389.967C194.606 389.967 194.795 390.062 194.929 390.251L195.764 391.336ZM202.128 379.249C202.495 378.837 202.885 378.464 203.297 378.131C203.709 377.797 204.143 377.513 204.599 377.279C205.066 377.034 205.556 376.851 206.068 376.728C206.591 376.595 207.153 376.528 207.754 376.528C208.678 376.528 209.491 376.684 210.192 376.995C210.904 377.296 211.494 377.73 211.961 378.298C212.44 378.854 212.802 379.527 213.047 380.318C213.291 381.108 213.414 381.982 213.414 382.939V393.707H210.426V382.939C210.426 381.659 210.131 380.668 209.541 379.967C208.962 379.255 208.077 378.899 206.886 378.899C206.007 378.899 205.183 379.11 204.415 379.533C203.658 379.956 202.957 380.529 202.312 381.253V393.707H199.323V376.795H201.11C201.533 376.795 201.794 377.001 201.894 377.413L202.128 379.249ZM228.603 380.818C228.047 380.073 227.446 379.555 226.8 379.266C226.155 378.965 225.431 378.815 224.63 378.815C223.06 378.815 221.853 379.377 221.007 380.501C220.161 381.625 219.738 383.228 219.738 385.309C219.738 386.411 219.833 387.357 220.022 388.148C220.211 388.927 220.489 389.572 220.857 390.084C221.224 390.585 221.675 390.952 222.209 391.186C222.743 391.42 223.35 391.537 224.029 391.537C225.008 391.537 225.86 391.314 226.583 390.869C227.318 390.424 227.991 389.795 228.603 388.982V380.818ZM231.575 369.115V393.707H229.805C229.382 393.707 229.115 393.501 229.004 393.089L228.737 391.036C228.013 391.904 227.19 392.605 226.266 393.139C225.342 393.674 224.274 393.941 223.06 393.941C222.092 393.941 221.213 393.757 220.423 393.39C219.632 393.011 218.959 392.46 218.402 391.737C217.846 391.014 217.417 390.112 217.117 389.032C216.816 387.953 216.666 386.712 216.666 385.309C216.666 384.063 216.833 382.905 217.167 381.837C217.501 380.757 217.98 379.822 218.603 379.032C219.226 378.242 219.989 377.624 220.89 377.179C221.803 376.723 222.827 376.494 223.962 376.494C224.997 376.494 225.882 376.673 226.616 377.029C227.362 377.374 228.024 377.858 228.603 378.481V369.115H231.575ZM245.076 386.094C243.707 386.139 242.539 386.25 241.57 386.428C240.613 386.595 239.828 386.818 239.216 387.096C238.615 387.374 238.176 387.702 237.897 388.081C237.63 388.459 237.497 388.882 237.497 389.35C237.497 389.795 237.569 390.179 237.714 390.502C237.858 390.824 238.053 391.091 238.298 391.303C238.554 391.503 238.849 391.654 239.183 391.754C239.528 391.843 239.895 391.887 240.285 391.887C240.808 391.887 241.287 391.837 241.721 391.737C242.155 391.626 242.561 391.47 242.939 391.27C243.329 391.069 243.696 390.83 244.041 390.552C244.397 390.273 244.742 389.956 245.076 389.6V386.094ZM235.477 379.182C236.412 378.281 237.419 377.607 238.498 377.162C239.578 376.717 240.775 376.494 242.088 376.494C243.034 376.494 243.874 376.65 244.609 376.962C245.343 377.274 245.961 377.708 246.462 378.264C246.963 378.821 247.341 379.494 247.597 380.284C247.853 381.074 247.981 381.943 247.981 382.889V393.707H246.662C246.373 393.707 246.15 393.663 245.995 393.573C245.839 393.473 245.716 393.284 245.627 393.006L245.293 391.403C244.848 391.815 244.414 392.182 243.991 392.505C243.568 392.817 243.123 393.084 242.656 393.306C242.188 393.518 241.687 393.679 241.153 393.791C240.63 393.913 240.046 393.974 239.4 393.974C238.743 393.974 238.126 393.885 237.547 393.707C236.968 393.518 236.462 393.24 236.028 392.872C235.605 392.505 235.265 392.043 235.009 391.487C234.764 390.919 234.642 390.251 234.642 389.483C234.642 388.815 234.826 388.175 235.193 387.563C235.56 386.94 236.156 386.389 236.979 385.91C237.803 385.432 238.877 385.042 240.201 384.742C241.526 384.43 243.151 384.252 245.076 384.208V382.889C245.076 381.575 244.792 380.585 244.225 379.917C243.657 379.238 242.828 378.899 241.737 378.899C241.003 378.899 240.385 378.993 239.884 379.182C239.394 379.36 238.966 379.566 238.599 379.8C238.242 380.023 237.931 380.229 237.664 380.418C237.408 380.596 237.152 380.685 236.896 380.685C236.695 380.685 236.523 380.635 236.378 380.535C236.233 380.423 236.111 380.29 236.011 380.134L235.477 379.182ZM260.152 376.261C260.308 375.17 260.608 374.207 261.053 373.373C261.499 372.527 262.061 371.82 262.74 371.252C263.43 370.685 264.214 370.256 265.094 369.967C265.984 369.666 266.941 369.516 267.965 369.516C268.978 369.516 269.913 369.661 270.77 369.95C271.627 370.239 272.362 370.651 272.974 371.185C273.597 371.72 274.081 372.365 274.426 373.122C274.771 373.879 274.944 374.719 274.944 375.643C274.944 376.4 274.844 377.079 274.643 377.68C274.454 378.27 274.176 378.787 273.808 379.232C273.452 379.678 273.018 380.056 272.506 380.368C271.994 380.679 271.421 380.935 270.787 381.136C272.345 381.536 273.513 382.226 274.293 383.206C275.083 384.174 275.478 385.387 275.478 386.845C275.478 387.947 275.266 388.938 274.844 389.817C274.432 390.696 273.864 391.448 273.141 392.071C272.417 392.683 271.571 393.156 270.603 393.49C269.646 393.813 268.616 393.974 267.514 393.974C266.246 393.974 265.16 393.818 264.259 393.507C263.357 393.184 262.595 392.744 261.972 392.188C261.348 391.631 260.836 390.975 260.436 390.218C260.035 389.45 259.696 388.621 259.417 387.73L260.703 387.196C261.037 387.051 261.36 387.012 261.671 387.079C261.994 387.146 262.228 387.33 262.372 387.63C262.517 387.942 262.695 388.315 262.907 388.749C263.129 389.183 263.43 389.6 263.808 390.001C264.187 390.401 264.665 390.741 265.244 391.019C265.834 391.297 266.579 391.437 267.481 391.437C268.316 391.437 269.045 391.303 269.668 391.036C270.302 390.758 270.826 390.401 271.237 389.967C271.66 389.533 271.978 389.049 272.189 388.515C272.4 387.981 272.506 387.452 272.506 386.929C272.506 386.283 272.423 385.693 272.256 385.159C272.089 384.625 271.777 384.163 271.321 383.774C270.865 383.384 270.236 383.078 269.434 382.855C268.644 382.633 267.626 382.521 266.379 382.521V380.368C267.403 380.357 268.271 380.245 268.984 380.034C269.707 379.822 270.291 379.533 270.737 379.166C271.193 378.798 271.521 378.359 271.722 377.847C271.933 377.335 272.039 376.767 272.039 376.144C272.039 375.454 271.927 374.853 271.705 374.341C271.493 373.829 271.198 373.406 270.82 373.072C270.442 372.738 269.991 372.488 269.468 372.321C268.956 372.154 268.399 372.07 267.798 372.07C267.197 372.07 266.635 372.159 266.112 372.337C265.6 372.516 265.144 372.766 264.743 373.089C264.353 373.4 264.025 373.773 263.758 374.207C263.491 374.641 263.302 375.12 263.19 375.643C263.046 376.033 262.862 376.294 262.639 376.428C262.428 376.55 262.116 376.584 261.705 376.528L260.152 376.261Z" fill="#D1D1D1"/>
<path d="M140.719 404.707H1502.55" stroke="#D1D1D1" stroke-width="4.77" stroke-linecap="round"/>
<rect x="3.5775" y="3.5775" width="1566.94" height="469.845" rx="20.2725" stroke="#292929" stroke-width="7.155"/>
</svg>
