<svg width="327" height="327" viewBox="0 0 327 327" fill="none" xmlns="http://www.w3.org/2000/svg">
<g clip-path="url(#clip0_1742_50710)">
<rect x="2.76375" y="2.76473" width="320.905" height="320.905" rx="13.8462" fill="#323233"/>
<path d="M38.6129 59.6327L37.0785 55.2932C36.9872 55.0651 36.8895 54.798 36.7852 54.4917C36.6875 54.1855 36.593 53.8532 36.5018 53.4948C36.4106 53.8597 36.3128 54.1985 36.2086 54.5113C36.1109 54.8175 36.0164 55.0847 35.9252 55.3127L34.4004 59.6327H38.6129ZM43.5389 65.0181H41.2616C41.0075 65.0181 40.799 64.9594 40.6361 64.8421C40.4797 64.7183 40.3624 64.562 40.2842 64.373L39.3264 61.6657H33.6772L32.7194 64.373C32.6542 64.5359 32.5402 64.6858 32.3773 64.8226C32.2144 64.9529 32.0091 65.0181 31.7615 65.0181H29.4647L35.0064 50.8363H38.007L43.5389 65.0181ZM56.1019 53.2016H51.9579V65.0181H49.016V53.2016H44.8719V50.8363H56.1019V53.2016ZM70.5055 53.2016H66.3614V65.0181H63.4195V53.2016H59.2755V50.8363H70.5055V53.2016ZM77.8231 53.1332V56.7788H82.5536V58.9974H77.8231V62.7212H83.9024V65.0181H74.8714V50.8363H83.9024V53.1332H77.8231ZM100.851 50.8363V65.0181H99.3362C99.1081 65.0181 98.9159 64.9822 98.7595 64.9106C98.6031 64.8324 98.45 64.702 98.3001 64.5196L91.2337 55.5277C91.2533 55.7558 91.2663 55.9806 91.2728 56.2021C91.2858 56.4237 91.2924 56.6289 91.2924 56.8179V65.0181H88.7023V50.8363H90.2466C90.3704 50.8363 90.4746 50.8429 90.5593 50.8559C90.6505 50.8624 90.732 50.8852 90.8037 50.9243C90.8753 50.9569 90.9438 51.0025 91.0089 51.0611C91.0741 51.1198 91.1458 51.198 91.2239 51.2957L98.3392 60.3267C98.3132 60.0791 98.2936 59.8412 98.2806 59.6132C98.2676 59.3786 98.261 59.1571 98.261 58.9486V50.8363H100.851ZM119.143 57.9223C119.143 58.9583 118.967 59.9129 118.615 60.786C118.27 61.6526 117.778 62.3987 117.139 63.0242C116.507 63.6497 115.745 64.1384 114.852 64.4903C113.96 64.8421 112.969 65.0181 111.881 65.0181H106.427V50.8363H111.881C112.969 50.8363 113.96 51.0123 114.852 51.3641C115.745 51.716 116.507 52.2079 117.139 52.84C117.778 53.4655 118.27 54.2115 118.615 55.0782C118.967 55.9448 119.143 56.8928 119.143 57.9223ZM116.133 57.9223C116.133 57.1795 116.035 56.5116 115.84 55.9187C115.644 55.3258 115.364 54.824 114.999 54.4135C114.634 54.003 114.188 53.687 113.66 53.4655C113.139 53.2439 112.546 53.1332 111.881 53.1332H109.379V62.7212H111.881C112.546 62.7212 113.139 62.6137 113.66 62.3987C114.188 62.1772 114.634 61.8611 114.999 61.4506C115.364 61.0336 115.644 60.5287 115.84 59.9357C116.035 59.3428 116.133 58.6716 116.133 57.9223ZM130.933 59.6327L129.398 55.2932C129.307 55.0651 129.209 54.798 129.105 54.4917C129.008 54.1855 128.913 53.8532 128.822 53.4948C128.731 53.8597 128.633 54.1985 128.529 54.5113C128.431 54.8175 128.336 55.0847 128.245 55.3127L126.72 59.6327H130.933ZM135.859 65.0181H133.582C133.328 65.0181 133.119 64.9594 132.956 64.8421C132.8 64.7183 132.682 64.562 132.604 64.373L131.646 61.6657H125.997L125.039 64.373C124.974 64.5359 124.86 64.6858 124.697 64.8226C124.534 64.9529 124.329 65.0181 124.082 65.0181H121.785L127.326 50.8363H130.327L135.859 65.0181ZM151.927 50.8363V65.0181H150.412C150.184 65.0181 149.991 64.9822 149.835 64.9106C149.679 64.8324 149.526 64.702 149.376 64.5196L142.309 55.5277C142.329 55.7558 142.342 55.9806 142.348 56.2021C142.361 56.4237 142.368 56.6289 142.368 56.8179V65.0181H139.778V50.8363H141.322C141.446 50.8363 141.55 50.8429 141.635 50.8559C141.726 50.8624 141.808 50.8852 141.879 50.9243C141.951 50.9569 142.019 51.0025 142.084 51.0611C142.15 51.1198 142.221 51.198 142.299 51.2957L149.415 60.3267C149.389 60.0791 149.369 59.8412 149.356 59.6132C149.343 59.3786 149.337 59.1571 149.337 58.9486V50.8363H151.927ZM167.159 61.5288C167.322 61.5288 167.459 61.5875 167.57 61.7048L168.733 62.946C168.16 63.6758 167.446 64.2297 166.593 64.6076C165.745 64.9855 164.736 65.1744 163.563 65.1744C162.501 65.1744 161.546 64.9953 160.699 64.6369C159.852 64.272 159.132 63.767 158.539 63.122C157.946 62.4769 157.49 61.7113 157.171 60.8251C156.851 59.939 156.692 58.9714 156.692 57.9223C156.692 57.2186 156.767 56.5507 156.917 55.9187C157.073 55.2801 157.298 54.6937 157.591 54.1594C157.884 53.6251 158.236 53.143 158.646 52.7129C159.063 52.2829 159.533 51.918 160.054 51.6182C160.575 51.312 161.142 51.0807 161.755 50.9243C162.374 50.7614 163.032 50.68 163.729 50.68C164.25 50.68 164.742 50.7256 165.205 50.8168C165.674 50.908 166.11 51.0351 166.514 51.198C166.918 51.3609 167.29 51.5596 167.629 51.7942C167.974 52.0222 168.283 52.2731 168.557 52.5468L167.57 53.8955C167.511 53.9802 167.436 54.0552 167.345 54.1203C167.254 54.1855 167.13 54.2181 166.974 54.2181C166.817 54.2181 166.658 54.1627 166.495 54.0519C166.338 53.9411 166.143 53.8173 165.908 53.6805C165.68 53.5437 165.39 53.4199 165.039 53.3091C164.693 53.1983 164.253 53.143 163.719 53.143C163.126 53.143 162.582 53.2505 162.087 53.4655C161.592 53.6805 161.165 53.9933 160.806 54.4038C160.455 54.8077 160.181 55.3062 159.985 55.8992C159.79 56.4921 159.692 57.1665 159.692 57.9223C159.692 58.6847 159.797 59.3656 160.005 59.965C160.22 60.558 160.51 61.0597 160.875 61.4702C161.246 61.8807 161.676 62.1935 162.165 62.4085C162.66 62.617 163.188 62.7212 163.748 62.7212C164.081 62.7212 164.38 62.7049 164.648 62.6724C164.921 62.6398 165.172 62.5844 165.4 62.5062C165.635 62.428 165.853 62.327 166.055 62.2032C166.263 62.0794 166.472 61.923 166.68 61.7341C166.752 61.6754 166.827 61.6266 166.905 61.5875C166.983 61.5484 167.068 61.5288 167.159 61.5288ZM175.946 53.1332V56.7788H180.677V58.9974H175.946V62.7212H182.026V65.0181H172.995V50.8363H182.026V53.1332H175.946Z" fill="#BB86FC"/>
<path d="M54.0774 119.097H76.8828V95.4771H54.0774V119.097Z" stroke="#D9D9D9" stroke-opacity="0.5" stroke-width="3.25792" stroke-linecap="round" stroke-linejoin="round"/>
<path d="M115.518 99.8547V116.195H113.579V104.188C113.579 104.028 113.583 103.857 113.591 103.675C113.606 103.492 113.621 103.306 113.636 103.116L108.026 113.333C107.851 113.675 107.585 113.846 107.228 113.846H106.909C106.551 113.846 106.285 113.675 106.111 113.333L100.386 103.07C100.432 103.473 100.455 103.846 100.455 104.188V116.195H98.5164V99.8547H100.147C100.345 99.8547 100.497 99.8737 100.603 99.9117C100.71 99.9498 100.812 100.056 100.911 100.231L106.555 110.288C106.647 110.471 106.734 110.661 106.818 110.858C106.909 111.056 106.992 111.257 107.068 111.463C107.144 111.257 107.224 111.056 107.308 110.858C107.391 110.653 107.483 110.459 107.582 110.277L113.123 100.231C113.214 100.056 113.313 99.9498 113.42 99.9117C113.534 99.8737 113.69 99.8547 113.887 99.8547H115.518ZM126.347 109.159C126.347 108.688 126.279 108.259 126.142 107.871C126.013 107.476 125.819 107.137 125.561 106.856C125.31 106.567 125.002 106.347 124.637 106.195C124.272 106.035 123.858 105.955 123.394 105.955C122.421 105.955 121.65 106.24 121.079 106.81C120.517 107.373 120.167 108.156 120.03 109.159H126.347ZM127.989 114.576C127.739 114.88 127.438 115.146 127.089 115.374C126.739 115.594 126.363 115.777 125.96 115.921C125.564 116.066 125.154 116.172 124.728 116.24C124.303 116.316 123.881 116.354 123.463 116.354C122.664 116.354 121.927 116.221 121.25 115.955C120.582 115.682 120 115.286 119.506 114.769C119.019 114.245 118.639 113.599 118.366 112.831C118.092 112.063 117.955 111.181 117.955 110.186C117.955 109.38 118.077 108.627 118.32 107.928C118.571 107.228 118.928 106.624 119.392 106.115C119.856 105.598 120.422 105.195 121.091 104.906C121.76 104.61 122.512 104.461 123.349 104.461C124.04 104.461 124.679 104.579 125.264 104.815C125.857 105.043 126.366 105.377 126.792 105.818C127.225 106.252 127.564 106.791 127.807 107.438C128.05 108.076 128.172 108.806 128.172 109.627C128.172 109.946 128.138 110.159 128.069 110.265C128.001 110.372 127.872 110.425 127.682 110.425H119.962C119.985 111.155 120.084 111.79 120.258 112.329C120.441 112.869 120.692 113.321 121.011 113.686C121.33 114.044 121.71 114.313 122.151 114.496C122.592 114.671 123.086 114.758 123.634 114.758C124.143 114.758 124.58 114.701 124.945 114.587C125.317 114.465 125.637 114.336 125.903 114.199C126.169 114.063 126.389 113.937 126.564 113.823C126.747 113.701 126.902 113.641 127.032 113.641C127.199 113.641 127.328 113.705 127.419 113.834L127.989 114.576ZM130.421 116.195V104.644H131.641C131.93 104.644 132.108 104.785 132.177 105.066L132.325 106.252C132.751 105.727 133.23 105.298 133.762 104.963C134.294 104.629 134.91 104.461 135.609 104.461C136.384 104.461 137.011 104.678 137.49 105.111C137.977 105.545 138.327 106.13 138.539 106.867C138.707 106.449 138.919 106.088 139.178 105.784C139.444 105.48 139.74 105.229 140.067 105.032C140.394 104.834 140.74 104.689 141.105 104.598C141.478 104.507 141.854 104.461 142.234 104.461C142.842 104.461 143.382 104.56 143.853 104.758C144.332 104.948 144.735 105.229 145.062 105.602C145.396 105.974 145.651 106.434 145.826 106.981C146.001 107.521 146.088 108.141 146.088 108.84V116.195H144.047V108.84C144.047 107.935 143.849 107.251 143.454 106.788C143.059 106.316 142.489 106.081 141.744 106.081C141.409 106.081 141.09 106.141 140.786 106.263C140.489 106.377 140.227 106.548 139.999 106.776C139.771 107.004 139.588 107.293 139.452 107.643C139.322 107.985 139.258 108.384 139.258 108.84V116.195H137.217V108.84C137.217 107.913 137.03 107.221 136.658 106.765C136.285 106.309 135.742 106.081 135.027 106.081C134.526 106.081 134.062 106.217 133.636 106.491C133.211 106.757 132.819 107.122 132.462 107.586V116.195H130.421ZM150.97 113.413C151.342 113.914 151.749 114.268 152.19 114.473C152.638 114.678 153.128 114.781 153.661 114.781C154.748 114.781 155.58 114.397 156.158 113.629C156.736 112.861 157.024 111.717 157.024 110.197C157.024 108.783 156.766 107.745 156.249 107.084C155.74 106.415 155.01 106.081 154.06 106.081C153.398 106.081 152.821 106.233 152.326 106.537C151.84 106.841 151.388 107.27 150.97 107.825V113.413ZM150.97 106.309C151.456 105.746 152.003 105.298 152.612 104.963C153.227 104.629 153.934 104.461 154.732 104.461C155.409 104.461 156.017 104.591 156.557 104.849C157.104 105.108 157.568 105.484 157.948 105.978C158.328 106.465 158.617 107.057 158.815 107.757C159.02 108.456 159.122 109.243 159.122 110.117C159.122 111.052 159.008 111.904 158.78 112.671C158.552 113.439 158.222 114.097 157.788 114.644C157.363 115.184 156.842 115.606 156.226 115.91C155.61 116.206 154.919 116.354 154.151 116.354C153.391 116.354 152.748 116.214 152.224 115.933C151.707 115.644 151.255 115.237 150.867 114.712L150.764 115.762C150.703 116.05 150.529 116.195 150.24 116.195H148.928V99.3986H150.97V106.309ZM169.176 109.159C169.176 108.688 169.108 108.259 168.971 107.871C168.842 107.476 168.648 107.137 168.39 106.856C168.139 106.567 167.831 106.347 167.466 106.195C167.101 106.035 166.687 105.955 166.223 105.955C165.25 105.955 164.478 106.24 163.908 106.81C163.346 107.373 162.996 108.156 162.859 109.159H169.176ZM170.818 114.576C170.568 114.88 170.267 115.146 169.918 115.374C169.568 115.594 169.192 115.777 168.789 115.921C168.393 116.066 167.983 116.172 167.557 116.24C167.131 116.316 166.71 116.354 166.291 116.354C165.493 116.354 164.756 116.221 164.079 115.955C163.41 115.682 162.829 115.286 162.335 114.769C161.848 114.245 161.468 113.599 161.194 112.831C160.921 112.063 160.784 111.181 160.784 110.186C160.784 109.38 160.906 108.627 161.149 107.928C161.4 107.228 161.757 106.624 162.221 106.115C162.684 105.598 163.251 105.195 163.92 104.906C164.589 104.61 165.341 104.461 166.177 104.461C166.869 104.461 167.508 104.579 168.093 104.815C168.686 105.043 169.195 105.377 169.621 105.818C170.054 106.252 170.393 106.791 170.636 107.438C170.879 108.076 171.001 108.806 171.001 109.627C171.001 109.946 170.967 110.159 170.898 110.265C170.83 110.372 170.701 110.425 170.511 110.425H162.791C162.814 111.155 162.912 111.79 163.087 112.329C163.27 112.869 163.521 113.321 163.84 113.686C164.159 114.044 164.539 114.313 164.98 114.496C165.421 114.671 165.915 114.758 166.463 114.758C166.972 114.758 167.409 114.701 167.774 114.587C168.146 114.465 168.466 114.336 168.732 114.199C168.998 114.063 169.218 113.937 169.393 113.823C169.575 113.701 169.731 113.641 169.861 113.641C170.028 113.641 170.157 113.705 170.248 113.834L170.818 114.576ZM175.177 106.959C175.542 106.168 175.99 105.552 176.522 105.111C177.054 104.663 177.704 104.439 178.472 104.439C178.715 104.439 178.947 104.465 179.168 104.518C179.396 104.572 179.597 104.655 179.772 104.769L179.624 106.286C179.578 106.476 179.464 106.571 179.282 106.571C179.175 106.571 179.019 106.548 178.814 106.503C178.609 106.457 178.377 106.434 178.119 106.434C177.754 106.434 177.427 106.487 177.138 106.594C176.857 106.7 176.602 106.86 176.374 107.073C176.153 107.278 175.952 107.536 175.77 107.848C175.595 108.152 175.435 108.502 175.291 108.897V116.195H173.25V104.644H174.413C174.633 104.644 174.785 104.686 174.869 104.769C174.952 104.853 175.009 104.997 175.04 105.203L175.177 106.959ZM196.413 114.644V116.195H187.656V114.644H191.156V103.504C191.156 103.169 191.168 102.831 191.191 102.489L188.283 104.986C188.184 105.07 188.085 105.123 187.987 105.146C187.888 105.161 187.796 105.161 187.713 105.146C187.629 105.13 187.549 105.1 187.473 105.054C187.405 105.009 187.352 104.959 187.314 104.906L186.675 104.028L191.544 99.8205H193.198V114.644H196.413Z" fill="#D9D9D9" fill-opacity="0.5"/>
<path d="M96.4297 124.195H277.244" stroke="#D9D9D9" stroke-opacity="0.5" stroke-width="3.25792" stroke-linecap="round"/>
<path d="M54.0774 189.564H76.8828V165.944H54.0774V189.564Z" stroke="#D9D9D9" stroke-opacity="0.5" stroke-width="3.25792" stroke-linecap="round" stroke-linejoin="round"/>
<path d="M115.518 170.321V186.661H113.579V174.654C113.579 174.494 113.583 174.323 113.591 174.141C113.606 173.959 113.621 173.772 113.636 173.582L108.026 183.799C107.851 184.141 107.585 184.312 107.228 184.312H106.909C106.551 184.312 106.285 184.141 106.111 183.799L100.386 173.537C100.432 173.94 100.455 174.312 100.455 174.654V186.661H98.5164V170.321H100.147C100.345 170.321 100.497 170.34 100.603 170.378C100.71 170.416 100.812 170.522 100.911 170.697L106.555 180.755C106.647 180.937 106.734 181.127 106.818 181.325C106.909 181.522 106.992 181.724 107.068 181.929C107.144 181.724 107.224 181.522 107.308 181.325C107.391 181.119 107.483 180.926 107.582 180.743L113.123 170.697C113.214 170.522 113.313 170.416 113.42 170.378C113.534 170.34 113.69 170.321 113.887 170.321H115.518ZM126.347 179.626C126.347 179.154 126.279 178.725 126.142 178.337C126.013 177.942 125.819 177.604 125.561 177.322C125.31 177.033 125.002 176.813 124.637 176.661C124.272 176.501 123.858 176.421 123.394 176.421C122.421 176.421 121.65 176.707 121.079 177.277C120.517 177.839 120.167 178.622 120.03 179.626H126.347ZM127.989 185.042C127.739 185.346 127.438 185.612 127.089 185.84C126.739 186.061 126.363 186.243 125.96 186.387C125.564 186.532 125.154 186.638 124.728 186.707C124.303 186.783 123.881 186.821 123.463 186.821C122.664 186.821 121.927 186.688 121.25 186.422C120.582 186.148 120 185.753 119.506 185.236C119.019 184.711 118.639 184.065 118.366 183.297C118.092 182.53 117.955 181.648 117.955 180.652C117.955 179.846 118.077 179.094 118.32 178.394C118.571 177.695 118.928 177.09 119.392 176.581C119.856 176.064 120.422 175.661 121.091 175.372C121.76 175.076 122.512 174.928 123.349 174.928C124.04 174.928 124.679 175.046 125.264 175.281C125.857 175.509 126.366 175.844 126.792 176.285C127.225 176.718 127.564 177.258 127.807 177.904C128.05 178.542 128.172 179.272 128.172 180.093C128.172 180.412 128.138 180.625 128.069 180.732C128.001 180.838 127.872 180.891 127.682 180.891H119.962C119.985 181.621 120.084 182.256 120.258 182.796C120.441 183.335 120.692 183.788 121.011 184.153C121.33 184.51 121.71 184.78 122.151 184.962C122.592 185.137 123.086 185.224 123.634 185.224C124.143 185.224 124.58 185.167 124.945 185.053C125.317 184.932 125.637 184.802 125.903 184.666C126.169 184.529 126.389 184.403 126.564 184.289C126.747 184.168 126.902 184.107 127.032 184.107C127.199 184.107 127.328 184.172 127.419 184.301L127.989 185.042ZM130.421 186.661V175.11H131.641C131.93 175.11 132.108 175.251 132.177 175.532L132.325 176.718C132.751 176.193 133.23 175.764 133.762 175.429C134.294 175.095 134.91 174.928 135.609 174.928C136.384 174.928 137.011 175.144 137.49 175.578C137.977 176.011 138.327 176.596 138.539 177.334C138.707 176.916 138.919 176.555 139.178 176.25C139.444 175.946 139.74 175.696 140.067 175.498C140.394 175.3 140.74 175.156 141.105 175.065C141.478 174.973 141.854 174.928 142.234 174.928C142.842 174.928 143.382 175.027 143.853 175.224C144.332 175.414 144.735 175.696 145.062 176.068C145.396 176.44 145.651 176.9 145.826 177.448C146.001 177.987 146.088 178.607 146.088 179.306V186.661H144.047V179.306C144.047 178.402 143.849 177.718 143.454 177.254C143.059 176.783 142.489 176.547 141.744 176.547C141.409 176.547 141.09 176.608 140.786 176.729C140.489 176.843 140.227 177.014 139.999 177.242C139.771 177.471 139.588 177.759 139.452 178.109C139.322 178.451 139.258 178.85 139.258 179.306V186.661H137.217V179.306C137.217 178.379 137.03 177.687 136.658 177.231C136.285 176.775 135.742 176.547 135.027 176.547C134.526 176.547 134.062 176.684 133.636 176.957C133.211 177.223 132.819 177.588 132.462 178.052V186.661H130.421ZM150.97 183.879C151.342 184.381 151.749 184.734 152.19 184.939C152.638 185.145 153.128 185.247 153.661 185.247C154.748 185.247 155.58 184.863 156.158 184.096C156.736 183.328 157.024 182.184 157.024 180.663C157.024 179.249 156.766 178.212 156.249 177.55C155.74 176.881 155.01 176.547 154.06 176.547C153.398 176.547 152.821 176.699 152.326 177.003C151.84 177.307 151.388 177.737 150.97 178.292V183.879ZM150.97 176.775C151.456 176.212 152.003 175.764 152.612 175.429C153.227 175.095 153.934 174.928 154.732 174.928C155.409 174.928 156.017 175.057 156.557 175.315C157.104 175.574 157.568 175.95 157.948 176.444C158.328 176.931 158.617 177.524 158.815 178.223C159.02 178.922 159.122 179.709 159.122 180.583C159.122 181.519 159.008 182.37 158.78 183.138C158.552 183.905 158.222 184.563 157.788 185.11C157.363 185.65 156.842 186.072 156.226 186.376C155.61 186.673 154.919 186.821 154.151 186.821C153.391 186.821 152.748 186.68 152.224 186.399C151.707 186.11 151.255 185.703 150.867 185.179L150.764 186.228C150.703 186.517 150.529 186.661 150.24 186.661H148.928V169.865H150.97V176.775ZM169.176 179.626C169.176 179.154 169.108 178.725 168.971 178.337C168.842 177.942 168.648 177.604 168.39 177.322C168.139 177.033 167.831 176.813 167.466 176.661C167.101 176.501 166.687 176.421 166.223 176.421C165.25 176.421 164.478 176.707 163.908 177.277C163.346 177.839 162.996 178.622 162.859 179.626H169.176ZM170.818 185.042C170.568 185.346 170.267 185.612 169.918 185.84C169.568 186.061 169.192 186.243 168.789 186.387C168.393 186.532 167.983 186.638 167.557 186.707C167.131 186.783 166.71 186.821 166.291 186.821C165.493 186.821 164.756 186.688 164.079 186.422C163.41 186.148 162.829 185.753 162.335 185.236C161.848 184.711 161.468 184.065 161.194 183.297C160.921 182.53 160.784 181.648 160.784 180.652C160.784 179.846 160.906 179.094 161.149 178.394C161.4 177.695 161.757 177.09 162.221 176.581C162.684 176.064 163.251 175.661 163.92 175.372C164.589 175.076 165.341 174.928 166.177 174.928C166.869 174.928 167.508 175.046 168.093 175.281C168.686 175.509 169.195 175.844 169.621 176.285C170.054 176.718 170.393 177.258 170.636 177.904C170.879 178.542 171.001 179.272 171.001 180.093C171.001 180.412 170.967 180.625 170.898 180.732C170.83 180.838 170.701 180.891 170.511 180.891H162.791C162.814 181.621 162.912 182.256 163.087 182.796C163.27 183.335 163.521 183.788 163.84 184.153C164.159 184.51 164.539 184.78 164.98 184.962C165.421 185.137 165.915 185.224 166.463 185.224C166.972 185.224 167.409 185.167 167.774 185.053C168.146 184.932 168.466 184.802 168.732 184.666C168.998 184.529 169.218 184.403 169.393 184.289C169.575 184.168 169.731 184.107 169.861 184.107C170.028 184.107 170.157 184.172 170.248 184.301L170.818 185.042ZM175.177 177.425C175.542 176.634 175.99 176.019 176.522 175.578C177.054 175.129 177.704 174.905 178.472 174.905C178.715 174.905 178.947 174.932 179.168 174.985C179.396 175.038 179.597 175.122 179.772 175.236L179.624 176.752C179.578 176.942 179.464 177.037 179.282 177.037C179.175 177.037 179.019 177.014 178.814 176.969C178.609 176.923 178.377 176.9 178.119 176.9C177.754 176.9 177.427 176.954 177.138 177.06C176.857 177.166 176.602 177.326 176.374 177.539C176.153 177.744 175.952 178.003 175.77 178.314C175.595 178.618 175.435 178.968 175.291 179.363V186.661H173.25V175.11H174.413C174.633 175.11 174.785 175.152 174.869 175.236C174.952 175.319 175.009 175.464 175.04 175.669L175.177 177.425ZM196.06 184.734C196.28 184.734 196.455 184.799 196.584 184.928C196.713 185.057 196.778 185.224 196.778 185.43V186.661H185.877V185.966C185.877 185.821 185.907 185.673 185.968 185.521C186.029 185.369 186.124 185.228 186.253 185.099L191.487 179.842C191.92 179.401 192.316 178.98 192.673 178.577C193.03 178.166 193.334 177.756 193.585 177.345C193.836 176.935 194.03 176.52 194.167 176.102C194.304 175.677 194.372 175.224 194.372 174.745C194.372 174.266 194.296 173.848 194.144 173.491C193.992 173.126 193.783 172.826 193.517 172.59C193.258 172.355 192.951 172.18 192.593 172.066C192.236 171.944 191.852 171.883 191.442 171.883C191.023 171.883 190.64 171.944 190.29 172.066C189.94 172.187 189.629 172.358 189.355 172.579C189.089 172.792 188.865 173.046 188.682 173.343C188.5 173.639 188.37 173.966 188.294 174.323C188.203 174.589 188.078 174.768 187.918 174.859C187.766 174.943 187.549 174.966 187.268 174.928L186.208 174.745C186.314 174 186.519 173.343 186.823 172.773C187.135 172.195 187.523 171.712 187.987 171.324C188.458 170.937 188.994 170.644 189.594 170.446C190.195 170.241 190.845 170.139 191.544 170.139C192.236 170.139 192.882 170.241 193.483 170.446C194.083 170.652 194.604 170.952 195.045 171.347C195.486 171.735 195.832 172.21 196.082 172.773C196.333 173.335 196.459 173.974 196.459 174.688C196.459 175.296 196.368 175.863 196.185 176.387C196.003 176.904 195.756 177.398 195.444 177.87C195.132 178.341 194.771 178.801 194.361 179.249C193.958 179.698 193.528 180.15 193.072 180.606L188.762 185.008C189.066 184.924 189.374 184.86 189.686 184.814C189.997 184.761 190.297 184.734 190.586 184.734H196.06Z" fill="#D9D9D9" fill-opacity="0.5"/>
<path d="M96.4297 194.661H277.244" stroke="#D9D9D9" stroke-opacity="0.5" stroke-width="3.25792" stroke-linecap="round"/>
<path d="M90.8871 237.224V260.03M79.4844 248.627H102.29H79.4844Z" stroke="#BB86FC" stroke-width="3.25792" stroke-linecap="round" stroke-linejoin="round"/>
<path d="M132.6 251.06L130.034 244.413C129.958 244.215 129.879 243.987 129.795 243.729C129.711 243.462 129.632 243.181 129.556 242.885C129.396 243.5 129.232 244.014 129.065 244.424L126.5 251.06H132.6ZM137.207 257.127H135.496C135.299 257.127 135.139 257.077 135.017 256.978C134.896 256.88 134.805 256.754 134.744 256.602L133.216 252.657H125.884L124.356 256.602C124.31 256.739 124.223 256.861 124.094 256.967C123.964 257.073 123.805 257.127 123.615 257.127H121.904L128.438 240.787H130.673L137.207 257.127ZM145.914 248.324C145.534 247.814 145.123 247.461 144.682 247.263C144.242 247.058 143.747 246.955 143.2 246.955C142.128 246.955 141.303 247.339 140.726 248.107C140.148 248.875 139.859 249.97 139.859 251.391C139.859 252.144 139.924 252.79 140.053 253.33C140.182 253.862 140.372 254.303 140.623 254.652C140.874 254.994 141.182 255.245 141.547 255.405C141.912 255.565 142.326 255.644 142.79 255.644C143.459 255.644 144.04 255.492 144.534 255.188C145.036 254.884 145.496 254.455 145.914 253.9V248.324ZM147.944 240.331V257.127H146.735C146.446 257.127 146.264 256.986 146.188 256.705L146.005 255.302C145.511 255.895 144.949 256.374 144.318 256.739C143.687 257.104 142.957 257.286 142.128 257.286C141.467 257.286 140.866 257.161 140.327 256.91C139.787 256.652 139.327 256.275 138.947 255.781C138.567 255.287 138.274 254.671 138.069 253.934C137.864 253.197 137.761 252.349 137.761 251.391C137.761 250.54 137.875 249.749 138.103 249.019C138.331 248.282 138.658 247.643 139.084 247.104C139.509 246.564 140.03 246.142 140.646 245.838C141.269 245.526 141.969 245.371 142.744 245.371C143.451 245.371 144.055 245.492 144.557 245.735C145.066 245.971 145.519 246.302 145.914 246.727V240.331H147.944ZM158.431 248.324C158.051 247.814 157.64 247.461 157.199 247.263C156.758 247.058 156.264 246.955 155.717 246.955C154.645 246.955 153.82 247.339 153.243 248.107C152.665 248.875 152.376 249.97 152.376 251.391C152.376 252.144 152.441 252.79 152.57 253.33C152.699 253.862 152.889 254.303 153.14 254.652C153.391 254.994 153.699 255.245 154.064 255.405C154.428 255.565 154.843 255.644 155.306 255.644C155.975 255.644 156.557 255.492 157.051 255.188C157.553 254.884 158.013 254.455 158.431 253.9V248.324ZM160.461 240.331V257.127H159.252C158.963 257.127 158.781 256.986 158.705 256.705L158.522 255.302C158.028 255.895 157.465 256.374 156.834 256.739C156.204 257.104 155.474 257.286 154.645 257.286C153.984 257.286 153.383 257.161 152.844 256.91C152.304 256.652 151.844 256.275 151.464 255.781C151.084 255.287 150.791 254.671 150.586 253.934C150.381 253.197 150.278 252.349 150.278 251.391C150.278 250.54 150.392 249.749 150.62 249.019C150.848 248.282 151.175 247.643 151.601 247.104C152.026 246.564 152.547 246.142 153.163 245.838C153.786 245.526 154.485 245.371 155.261 245.371C155.968 245.371 156.572 245.492 157.074 245.735C157.583 245.971 158.036 246.302 158.431 246.727V240.331H160.461ZM186.493 240.787V257.127H184.554V245.12C184.554 244.96 184.558 244.789 184.566 244.607C184.581 244.424 184.596 244.238 184.611 244.048L179.001 254.265C178.827 254.607 178.56 254.778 178.203 254.778H177.884C177.527 254.778 177.261 254.607 177.086 254.265L171.362 244.002C171.407 244.405 171.43 244.778 171.43 245.12V257.127H169.491V240.787H171.122C171.32 240.787 171.472 240.806 171.578 240.844C171.685 240.882 171.787 240.988 171.886 241.163L177.53 251.22C177.622 251.403 177.709 251.593 177.793 251.79C177.884 251.988 177.968 252.189 178.044 252.395C178.12 252.189 178.199 251.988 178.283 251.79C178.367 251.585 178.458 251.391 178.557 251.209L184.098 241.163C184.19 240.988 184.288 240.882 184.395 240.844C184.509 240.806 184.665 240.787 184.862 240.787H186.493ZM197.323 250.091C197.323 249.62 197.254 249.19 197.117 248.803C196.988 248.407 196.794 248.069 196.536 247.788C196.285 247.499 195.977 247.279 195.612 247.127C195.247 246.967 194.833 246.887 194.369 246.887C193.396 246.887 192.625 247.172 192.055 247.742C191.492 248.305 191.142 249.088 191.005 250.091H197.323ZM198.965 255.508C198.714 255.812 198.413 256.078 198.064 256.306C197.714 256.526 197.338 256.709 196.935 256.853C196.54 256.997 196.129 257.104 195.703 257.172C195.278 257.248 194.856 257.286 194.438 257.286C193.64 257.286 192.902 257.153 192.226 256.887C191.557 256.614 190.975 256.218 190.481 255.701C189.994 255.177 189.614 254.531 189.341 253.763C189.067 252.995 188.93 252.113 188.93 251.117C188.93 250.312 189.052 249.559 189.295 248.86C189.546 248.16 189.903 247.556 190.367 247.047C190.831 246.53 191.397 246.127 192.066 245.838C192.735 245.542 193.487 245.393 194.324 245.393C195.015 245.393 195.654 245.511 196.239 245.747C196.832 245.975 197.342 246.309 197.767 246.75C198.201 247.184 198.539 247.723 198.782 248.369C199.025 249.008 199.147 249.738 199.147 250.559C199.147 250.878 199.113 251.091 199.044 251.197C198.976 251.304 198.847 251.357 198.657 251.357H190.937C190.96 252.087 191.059 252.721 191.234 253.261C191.416 253.801 191.667 254.253 191.986 254.618C192.305 254.975 192.685 255.245 193.126 255.428C193.567 255.603 194.061 255.69 194.609 255.69C195.118 255.69 195.555 255.633 195.92 255.519C196.293 255.397 196.612 255.268 196.878 255.131C197.144 254.994 197.364 254.869 197.539 254.755C197.722 254.633 197.878 254.573 198.007 254.573C198.174 254.573 198.303 254.637 198.394 254.766L198.965 255.508ZM201.396 257.127V245.576H202.616C202.905 245.576 203.083 245.716 203.152 245.998L203.3 247.184C203.726 246.659 204.205 246.23 204.737 245.895C205.269 245.561 205.885 245.393 206.584 245.393C207.359 245.393 207.987 245.61 208.465 246.043C208.952 246.477 209.302 247.062 209.515 247.799C209.682 247.381 209.895 247.02 210.153 246.716C210.419 246.412 210.716 246.161 211.042 245.963C211.369 245.766 211.715 245.621 212.08 245.53C212.453 245.439 212.829 245.393 213.209 245.393C213.817 245.393 214.357 245.492 214.828 245.69C215.307 245.88 215.71 246.161 216.037 246.534C216.371 246.906 216.626 247.366 216.801 247.913C216.976 248.453 217.063 249.073 217.063 249.772V257.127H215.022V249.772C215.022 248.867 214.824 248.183 214.429 247.719C214.034 247.248 213.464 247.013 212.719 247.013C212.384 247.013 212.065 247.073 211.761 247.195C211.464 247.309 211.202 247.48 210.974 247.708C210.746 247.936 210.564 248.225 210.427 248.575C210.298 248.917 210.233 249.316 210.233 249.772V257.127H208.192V249.772C208.192 248.845 208.006 248.153 207.633 247.697C207.261 247.241 206.717 247.013 206.002 247.013C205.501 247.013 205.037 247.149 204.611 247.423C204.186 247.689 203.794 248.054 203.437 248.518V257.127H201.396ZM221.945 254.344C222.317 254.846 222.724 255.2 223.165 255.405C223.613 255.61 224.104 255.713 224.636 255.713C225.723 255.713 226.555 255.329 227.133 254.561C227.711 253.793 227.999 252.649 227.999 251.129C227.999 249.715 227.741 248.677 227.224 248.016C226.715 247.347 225.985 247.013 225.035 247.013C224.373 247.013 223.796 247.165 223.302 247.469C222.815 247.773 222.363 248.202 221.945 248.757V254.344ZM221.945 247.241C222.431 246.678 222.978 246.23 223.587 245.895C224.202 245.561 224.909 245.393 225.708 245.393C226.384 245.393 226.992 245.523 227.532 245.781C228.079 246.039 228.543 246.416 228.923 246.91C229.303 247.396 229.592 247.989 229.79 248.689C229.995 249.388 230.098 250.175 230.098 251.049C230.098 251.984 229.984 252.835 229.756 253.603C229.527 254.371 229.197 255.029 228.763 255.576C228.338 256.116 227.817 256.538 227.201 256.842C226.586 257.138 225.894 257.286 225.126 257.286C224.366 257.286 223.723 257.146 223.199 256.864C222.682 256.576 222.23 256.169 221.842 255.644L221.739 256.693C221.679 256.982 221.504 257.127 221.215 257.127H219.904V240.331H221.945V247.241ZM240.151 250.091C240.151 249.62 240.083 249.19 239.946 248.803C239.817 248.407 239.623 248.069 239.365 247.788C239.114 247.499 238.806 247.279 238.441 247.127C238.076 246.967 237.662 246.887 237.198 246.887C236.225 246.887 235.454 247.172 234.883 247.742C234.321 248.305 233.971 249.088 233.834 250.091H240.151ZM241.793 255.508C241.543 255.812 241.242 256.078 240.893 256.306C240.543 256.526 240.167 256.709 239.764 256.853C239.369 256.997 238.958 257.104 238.532 257.172C238.107 257.248 237.685 257.286 237.267 257.286C236.468 257.286 235.731 257.153 235.054 256.887C234.386 256.614 233.804 256.218 233.31 255.701C232.823 255.177 232.443 254.531 232.17 253.763C231.896 252.995 231.759 252.113 231.759 251.117C231.759 250.312 231.881 249.559 232.124 248.86C232.375 248.16 232.732 247.556 233.196 247.047C233.66 246.53 234.226 246.127 234.895 245.838C235.564 245.542 236.316 245.393 237.153 245.393C237.844 245.393 238.483 245.511 239.068 245.747C239.661 245.975 240.171 246.309 240.596 246.75C241.03 247.184 241.368 247.723 241.611 248.369C241.854 249.008 241.976 249.738 241.976 250.559C241.976 250.878 241.942 251.091 241.873 251.197C241.805 251.304 241.676 251.357 241.486 251.357H233.766C233.789 252.087 233.888 252.721 234.062 253.261C234.245 253.801 234.496 254.253 234.815 254.618C235.134 254.975 235.514 255.245 235.955 255.428C236.396 255.603 236.89 255.69 237.438 255.69C237.947 255.69 238.384 255.633 238.749 255.519C239.121 255.397 239.441 255.268 239.707 255.131C239.973 254.994 240.193 254.869 240.368 254.755C240.551 254.633 240.706 254.573 240.836 254.573C241.003 254.573 241.132 254.637 241.223 254.766L241.793 255.508ZM246.152 247.891C246.517 247.1 246.965 246.484 247.497 246.043C248.029 245.595 248.679 245.371 249.447 245.371C249.69 245.371 249.922 245.397 250.143 245.45C250.371 245.504 250.572 245.587 250.747 245.701L250.599 247.218C250.553 247.408 250.439 247.503 250.257 247.503C250.15 247.503 249.994 247.48 249.789 247.434C249.584 247.389 249.352 247.366 249.094 247.366C248.729 247.366 248.402 247.419 248.113 247.526C247.832 247.632 247.577 247.792 247.349 248.005C247.129 248.21 246.927 248.468 246.745 248.78C246.57 249.084 246.41 249.434 246.266 249.829V257.127H244.225V245.576H245.388C245.608 245.576 245.76 245.618 245.844 245.701C245.927 245.785 245.984 245.929 246.015 246.134L246.152 247.891Z" fill="#BB86FC"/>
<rect x="30.8623" y="217.059" width="264.706" height="63.1357" rx="6.92308" stroke="#BB86FC" stroke-width="2.44344"/>
<rect x="2.76375" y="2.76473" width="320.905" height="320.905" rx="13.8462" stroke="#292929" stroke-width="4.88688"/>
</g>
<defs>
<clipPath id="clip0_1742_50710">
<rect width="325.792" height="325.792" fill="white" transform="translate(0.320312 0.321289)"/>
</clipPath>
</defs>
</svg>
