<svg width="326" height="326" viewBox="0 0 326 326" fill="none" xmlns="http://www.w3.org/2000/svg">
<g clip-path="url(#clip0_1996_69270)">
<path d="M16.2896 2.44344H309.502C317.149 2.44344 323.348 8.64257 323.348 16.2896V309.502C323.348 317.149 317.149 323.348 309.502 323.348H16.2896C8.64256 323.348 2.44344 317.149 2.44344 309.502V16.2896C2.44344 8.64256 8.64257 2.44344 16.2896 2.44344Z" fill="#323233" stroke="#292929" stroke-width="4.88688"/>
<g filter="url(#filter0_d_1996_69270)">
<rect x="55.4844" y="68.4163" width="219.91" height="89.5928" rx="8.1448" fill="#362F40"/>
</g>
<path d="M114.344 108.541H109.224V122.738H106.567V108.541H101.436V106.318H114.344V108.541ZM118.195 110.924C119.054 110.924 119.83 111.065 120.522 111.346C121.221 111.628 121.814 112.027 122.3 112.544C122.795 113.06 123.175 113.688 123.441 114.425C123.707 115.162 123.84 115.991 123.84 116.911C123.84 117.831 123.707 118.659 123.441 119.397C123.175 120.134 122.795 120.765 122.3 121.289C121.814 121.806 121.221 122.205 120.522 122.487C119.83 122.768 119.054 122.909 118.195 122.909C117.329 122.909 116.546 122.768 115.846 122.487C115.155 122.205 114.562 121.806 114.068 121.289C113.574 120.765 113.193 120.134 112.927 119.397C112.661 118.659 112.528 117.831 112.528 116.911C112.528 115.991 112.661 115.162 112.927 114.425C113.193 113.688 113.574 113.06 114.068 112.544C114.562 112.027 115.155 111.628 115.846 111.346C116.546 111.065 117.329 110.924 118.195 110.924ZM118.195 120.993C119.244 120.993 120.024 120.643 120.533 119.944C121.05 119.237 121.308 118.23 121.308 116.922C121.308 115.615 121.05 114.607 120.533 113.9C120.024 113.186 119.244 112.829 118.195 112.829C117.131 112.829 116.341 113.186 115.824 113.9C115.307 114.607 115.048 115.615 115.048 116.922C115.048 118.23 115.307 119.237 115.824 119.944C116.341 120.643 117.131 120.993 118.195 120.993ZM129.457 122.92C128.492 122.92 127.747 122.65 127.222 122.11C126.705 121.563 126.447 120.795 126.447 119.807V113.034H125.17C125.033 113.034 124.915 112.992 124.816 112.908C124.717 112.817 124.668 112.684 124.668 112.509V111.517L126.549 111.244L127.085 107.88C127.123 107.751 127.188 107.648 127.279 107.572C127.37 107.488 127.492 107.447 127.644 107.447H128.898V111.266H132.125V113.034H128.898V119.636C128.898 120.054 129.001 120.373 129.206 120.594C129.411 120.814 129.685 120.925 130.027 120.925C130.217 120.925 130.381 120.902 130.517 120.856C130.654 120.803 130.772 120.75 130.871 120.696C130.97 120.636 131.053 120.582 131.122 120.537C131.198 120.484 131.27 120.457 131.338 120.457C131.475 120.457 131.585 120.533 131.669 120.685L132.399 121.882C132.019 122.217 131.57 122.475 131.053 122.658C130.536 122.833 130.004 122.92 129.457 122.92ZM140.028 117.652C139.154 117.682 138.416 117.755 137.816 117.869C137.215 117.975 136.729 118.116 136.356 118.29C135.984 118.458 135.714 118.659 135.546 118.895C135.387 119.13 135.307 119.389 135.307 119.67C135.307 119.944 135.349 120.18 135.432 120.377C135.524 120.567 135.645 120.727 135.797 120.856C135.957 120.978 136.139 121.069 136.345 121.13C136.558 121.183 136.789 121.21 137.04 121.21C137.679 121.21 138.226 121.092 138.682 120.856C139.146 120.613 139.594 120.263 140.028 119.807V117.652ZM133.528 112.726C134.843 111.502 136.409 110.89 138.226 110.89C138.895 110.89 139.488 111 140.005 111.221C140.529 111.434 140.967 111.738 141.316 112.133C141.674 112.528 141.943 113 142.126 113.547C142.316 114.087 142.411 114.687 142.411 115.349V122.738H141.316C141.081 122.738 140.902 122.703 140.78 122.635C140.659 122.559 140.556 122.411 140.472 122.19L140.233 121.244C139.937 121.51 139.644 121.749 139.355 121.962C139.066 122.167 138.766 122.342 138.454 122.487C138.15 122.631 137.819 122.738 137.462 122.806C137.112 122.882 136.725 122.92 136.299 122.92C135.828 122.92 135.387 122.855 134.976 122.726C134.573 122.597 134.224 122.403 133.927 122.145C133.631 121.879 133.395 121.552 133.22 121.164C133.053 120.776 132.969 120.32 132.969 119.796C132.969 119.347 133.087 118.91 133.323 118.484C133.566 118.059 133.961 117.679 134.509 117.344C135.064 117.002 135.79 116.721 136.687 116.5C137.591 116.28 138.705 116.154 140.028 116.124V115.349C140.028 114.512 139.849 113.889 139.492 113.479C139.135 113.068 138.61 112.863 137.918 112.863C137.447 112.863 137.052 112.924 136.732 113.045C136.413 113.159 136.136 113.285 135.9 113.422C135.664 113.558 135.455 113.688 135.273 113.809C135.09 113.923 134.897 113.98 134.691 113.98C134.524 113.98 134.38 113.938 134.258 113.855C134.144 113.764 134.049 113.653 133.973 113.524L133.528 112.726ZM147.536 105.862V122.738H145.084V105.862H147.536ZM162.183 120.628C162.784 120.628 163.289 120.56 163.7 120.423C164.118 120.278 164.456 120.085 164.715 119.841C164.981 119.598 165.171 119.313 165.285 118.986C165.406 118.652 165.467 118.294 165.467 117.914C165.467 117.139 165.201 116.531 164.669 116.09C164.144 115.641 163.312 115.417 162.172 115.417H158.876V120.628H162.183ZM158.876 108.404V113.536H161.545C162.685 113.536 163.536 113.315 164.099 112.874C164.661 112.433 164.943 111.799 164.943 110.97C164.943 110.065 164.677 109.412 164.144 109.009C163.62 108.606 162.795 108.404 161.67 108.404H158.876ZM161.67 106.318C162.719 106.318 163.616 106.42 164.361 106.626C165.106 106.823 165.718 107.108 166.197 107.481C166.676 107.853 167.026 108.309 167.246 108.849C167.474 109.381 167.588 109.982 167.588 110.651C167.588 111.038 167.527 111.415 167.406 111.78C167.292 112.137 167.109 112.475 166.858 112.794C166.615 113.106 166.307 113.387 165.935 113.638C165.562 113.889 165.121 114.098 164.612 114.265C166.938 114.759 168.101 115.995 168.101 117.971C168.101 118.671 167.968 119.313 167.702 119.898C167.444 120.476 167.064 120.978 166.562 121.403C166.068 121.822 165.456 122.148 164.726 122.384C163.996 122.62 163.164 122.738 162.229 122.738H156.208V106.318H161.67ZM179.991 111.107V122.738H178.508C178.181 122.738 177.972 122.582 177.881 122.27L177.699 121.187C177.455 121.445 177.197 121.681 176.923 121.894C176.657 122.107 176.372 122.289 176.068 122.441C175.764 122.593 175.437 122.711 175.087 122.795C174.745 122.878 174.377 122.92 173.981 122.92C173.343 122.92 172.78 122.814 172.294 122.601C171.807 122.388 171.397 122.088 171.062 121.7C170.735 121.312 170.488 120.848 170.321 120.309C170.154 119.761 170.07 119.161 170.07 118.507V111.107H172.522V118.507C172.522 119.29 172.7 119.898 173.058 120.332C173.423 120.765 173.974 120.982 174.711 120.982C175.251 120.982 175.753 120.86 176.216 120.617C176.688 120.366 177.128 120.024 177.539 119.59V111.107H179.991ZM190.147 113.969C189.804 113.528 189.428 113.22 189.018 113.045C188.607 112.87 188.162 112.783 187.684 112.783C186.726 112.783 185.977 113.136 185.437 113.843C184.898 114.543 184.628 115.58 184.628 116.956C184.628 117.671 184.688 118.283 184.81 118.792C184.932 119.294 185.107 119.704 185.335 120.024C185.563 120.343 185.84 120.575 186.167 120.719C186.494 120.864 186.863 120.936 187.273 120.936C187.896 120.936 188.432 120.803 188.881 120.537C189.337 120.263 189.759 119.879 190.147 119.385V113.969ZM192.598 105.862V122.738H191.116C190.789 122.738 190.58 122.582 190.489 122.27L190.272 121.004C189.785 121.574 189.231 122.034 188.607 122.384C187.991 122.734 187.273 122.909 186.452 122.909C185.798 122.909 185.205 122.779 184.673 122.521C184.141 122.255 183.685 121.871 183.305 121.369C182.925 120.868 182.628 120.248 182.416 119.511C182.21 118.766 182.108 117.914 182.108 116.956C182.108 116.09 182.222 115.288 182.45 114.55C182.685 113.813 183.02 113.174 183.453 112.635C183.886 112.087 184.411 111.662 185.027 111.358C185.65 111.046 186.346 110.89 187.113 110.89C187.798 110.89 188.379 111 188.858 111.221C189.337 111.434 189.766 111.734 190.147 112.122V105.862H192.598ZM199.502 116.82C200.262 116.82 200.833 116.626 201.213 116.238C201.593 115.85 201.783 115.345 201.783 114.721C201.783 114.083 201.593 113.577 201.213 113.205C200.833 112.832 200.262 112.646 199.502 112.646C198.75 112.646 198.18 112.832 197.792 113.205C197.412 113.577 197.222 114.083 197.222 114.721C197.222 115.026 197.271 115.307 197.37 115.565C197.469 115.824 197.613 116.048 197.803 116.238C197.993 116.42 198.229 116.565 198.51 116.671C198.799 116.77 199.13 116.82 199.502 116.82ZM202.912 123.308C202.912 123.049 202.836 122.844 202.684 122.692C202.539 122.532 202.342 122.411 202.091 122.327C201.84 122.236 201.547 122.171 201.213 122.133C200.878 122.088 200.521 122.057 200.141 122.042C199.768 122.019 199.384 122 198.989 121.985C198.601 121.962 198.225 121.924 197.86 121.871C197.495 122.061 197.195 122.289 196.959 122.555C196.731 122.821 196.617 123.129 196.617 123.479C196.617 123.707 196.674 123.92 196.788 124.117C196.91 124.315 197.092 124.486 197.336 124.63C197.587 124.775 197.902 124.889 198.282 124.972C198.67 125.056 199.134 125.098 199.673 125.098C200.753 125.098 201.562 124.931 202.102 124.596C202.642 124.262 202.912 123.832 202.912 123.308ZM205.375 111.529V112.441C205.375 112.745 205.192 112.931 204.827 113L203.664 113.193C203.862 113.634 203.961 114.125 203.961 114.664C203.961 115.235 203.847 115.751 203.619 116.215C203.398 116.679 203.09 117.074 202.695 117.401C202.3 117.728 201.828 117.979 201.281 118.154C200.734 118.328 200.141 118.416 199.502 118.416C199.259 118.416 199.02 118.405 198.784 118.382C198.556 118.351 198.332 118.313 198.111 118.268C197.891 118.397 197.727 118.534 197.621 118.678C197.514 118.823 197.461 118.971 197.461 119.123C197.461 119.374 197.571 119.56 197.792 119.682C198.012 119.803 198.301 119.891 198.658 119.944C199.023 119.997 199.438 120.031 199.901 120.047C200.365 120.062 200.836 120.088 201.315 120.126C201.794 120.164 202.265 120.229 202.729 120.32C203.193 120.404 203.603 120.548 203.961 120.753C204.326 120.951 204.618 121.221 204.839 121.563C205.059 121.905 205.169 122.35 205.169 122.897C205.169 123.399 205.044 123.889 204.793 124.368C204.542 124.847 204.177 125.273 203.698 125.645C203.227 126.018 202.649 126.314 201.965 126.535C201.281 126.763 200.502 126.877 199.628 126.877C198.761 126.877 198.005 126.793 197.359 126.626C196.72 126.459 196.184 126.231 195.751 125.942C195.325 125.66 195.006 125.334 194.793 124.961C194.588 124.589 194.485 124.201 194.485 123.798C194.485 123.251 194.656 122.783 194.998 122.395C195.348 122.008 195.819 121.704 196.412 121.483C196.093 121.331 195.834 121.122 195.637 120.856C195.447 120.59 195.352 120.24 195.352 119.807C195.352 119.465 195.477 119.108 195.728 118.735C195.979 118.363 196.355 118.047 196.857 117.789C196.279 117.469 195.823 117.048 195.488 116.523C195.154 115.991 194.987 115.371 194.987 114.664C194.987 114.087 195.097 113.566 195.317 113.102C195.545 112.639 195.861 112.243 196.264 111.916C196.667 111.589 197.142 111.339 197.689 111.164C198.244 110.989 198.848 110.902 199.502 110.902C200.506 110.902 201.38 111.111 202.125 111.529H205.375ZM214.495 115.611C214.495 115.2 214.434 114.82 214.312 114.471C214.198 114.113 214.027 113.805 213.799 113.547C213.571 113.281 213.286 113.076 212.944 112.931C212.61 112.779 212.222 112.703 211.781 112.703C210.892 112.703 210.192 112.958 209.683 113.467C209.174 113.976 208.85 114.691 208.714 115.611H214.495ZM208.645 117.116C208.676 117.777 208.778 118.351 208.953 118.838C209.128 119.317 209.36 119.716 209.649 120.035C209.945 120.354 210.295 120.594 210.698 120.753C211.108 120.906 211.564 120.982 212.066 120.982C212.545 120.982 212.959 120.928 213.309 120.822C213.659 120.708 213.963 120.586 214.221 120.457C214.48 120.32 214.7 120.199 214.882 120.092C215.065 119.978 215.232 119.921 215.384 119.921C215.582 119.921 215.734 119.997 215.84 120.149L216.536 121.05C216.247 121.392 215.92 121.681 215.555 121.917C215.19 122.152 214.803 122.346 214.392 122.498C213.982 122.643 213.56 122.745 213.126 122.806C212.693 122.874 212.271 122.909 211.861 122.909C211.055 122.909 210.306 122.776 209.614 122.509C208.93 122.236 208.334 121.837 207.824 121.312C207.322 120.788 206.927 120.138 206.638 119.362C206.357 118.587 206.216 117.694 206.216 116.683C206.216 115.877 206.342 115.124 206.593 114.425C206.851 113.726 207.216 113.117 207.687 112.601C208.166 112.084 208.744 111.677 209.421 111.38C210.105 111.076 210.876 110.924 211.735 110.924C212.45 110.924 213.111 111.042 213.719 111.278C214.328 111.506 214.852 111.844 215.293 112.293C215.734 112.741 216.076 113.292 216.319 113.946C216.57 114.592 216.695 115.33 216.695 116.158C216.695 116.538 216.654 116.793 216.57 116.922C216.486 117.051 216.334 117.116 216.114 117.116H208.645ZM222.355 122.92C221.389 122.92 220.644 122.65 220.12 122.11C219.603 121.563 219.344 120.795 219.344 119.807V113.034H218.067C217.93 113.034 217.813 112.992 217.714 112.908C217.615 112.817 217.566 112.684 217.566 112.509V111.517L219.447 111.244L219.983 107.88C220.021 107.751 220.086 107.648 220.177 107.572C220.268 107.488 220.39 107.447 220.542 107.447H221.796V111.266H225.023V113.034H221.796V119.636C221.796 120.054 221.899 120.373 222.104 120.594C222.309 120.814 222.583 120.925 222.925 120.925C223.115 120.925 223.278 120.902 223.415 120.856C223.552 120.803 223.67 120.75 223.769 120.696C223.867 120.636 223.951 120.582 224.02 120.537C224.096 120.484 224.168 120.457 224.236 120.457C224.373 120.457 224.483 120.533 224.567 120.685L225.297 121.882C224.917 122.217 224.468 122.475 223.951 122.658C223.434 122.833 222.902 122.92 222.355 122.92Z" fill="#D1D1D1"/>
<path d="M39.8505 193.754L39.8407 195.299H31.2105V181.293H39.8407V182.837H33.1066V187.489H38.5603V188.975H33.1066V193.754H39.8505ZM50.0507 195.299H48.3793C48.236 195.299 48.122 195.263 48.0373 195.191C47.9591 195.113 47.8939 195.028 47.8418 194.937L45.3495 191.057C45.3234 191.148 45.2941 191.239 45.2615 191.33C45.2355 191.415 45.1964 191.493 45.1442 191.565L42.8376 194.937C42.7725 195.028 42.7008 195.113 42.6226 195.191C42.5509 195.263 42.4499 195.299 42.3196 195.299H40.7656L44.2353 190.216L40.9024 185.398H42.5737C42.7171 185.398 42.8213 185.421 42.8865 185.466C42.9517 185.512 43.0103 185.577 43.0624 185.662L45.4961 189.376C45.5482 189.187 45.6297 189.004 45.7404 188.828L47.8711 185.701C47.9298 185.61 47.9917 185.538 48.0568 185.486C48.1285 185.427 48.2132 185.398 48.3109 185.398H49.9138L46.581 190.128L50.0507 195.299ZM53.2411 192.914C53.5604 193.344 53.909 193.647 54.2869 193.823C54.6648 193.999 55.0883 194.087 55.5575 194.087C56.4827 194.087 57.1929 193.758 57.6881 193.099C58.1833 192.441 58.4309 191.503 58.4309 190.285C58.4309 189.64 58.3723 189.086 58.255 188.623C58.1442 188.16 57.9814 187.783 57.7663 187.489C57.5513 187.19 57.2874 186.971 56.9747 186.835C56.6619 186.698 56.3068 186.629 55.9093 186.629C55.3424 186.629 54.844 186.76 54.4139 187.02C53.9904 187.281 53.5995 187.649 53.2411 188.125V192.914ZM53.1531 186.932C53.5701 186.417 54.0523 186.004 54.5996 185.691C55.147 185.378 55.7725 185.222 56.4762 185.222C57.0496 185.222 57.5676 185.333 58.0302 185.554C58.4928 185.769 58.8871 186.092 59.2128 186.522C59.5386 186.945 59.7895 187.473 59.9654 188.105C60.1414 188.737 60.2293 189.464 60.2293 190.285C60.2293 191.014 60.1316 191.695 59.9361 192.327C59.7406 192.953 59.4572 193.497 59.0858 193.96C58.7209 194.416 58.2713 194.777 57.737 195.044C57.2092 195.305 56.613 195.435 55.9484 195.435C55.3424 195.435 54.8212 195.334 54.3846 195.132C53.9546 194.924 53.5734 194.637 53.2411 194.272V198.651H51.4916V185.398H52.5374C52.785 185.398 52.9381 185.518 52.9967 185.759L53.1531 186.932ZM68.9126 189.268C68.9126 188.864 68.8539 188.496 68.7367 188.164C68.6259 187.825 68.4597 187.535 68.2382 187.294C68.0232 187.046 67.7593 186.857 67.4465 186.727C67.1338 186.59 66.7786 186.522 66.3812 186.522C65.5472 186.522 64.8858 186.766 64.3971 187.255C63.9149 187.737 63.6152 188.408 63.4979 189.268H68.9126ZM70.32 193.911C70.105 194.171 69.8476 194.399 69.5479 194.595C69.2481 194.784 68.9256 194.94 68.5803 195.064C68.2415 195.188 67.8896 195.279 67.5247 195.338C67.1598 195.403 66.7982 195.435 66.4398 195.435C65.7557 195.435 65.1236 195.321 64.5437 195.093C63.9703 194.859 63.4719 194.52 63.0483 194.077C62.6313 193.627 62.3055 193.073 62.071 192.415C61.8364 191.757 61.7191 191.001 61.7191 190.148C61.7191 189.457 61.8234 188.812 62.0319 188.213C62.2469 187.613 62.5531 187.095 62.9506 186.659C63.3481 186.216 63.8335 185.87 64.4069 185.623C64.9803 185.368 65.6253 185.241 66.3421 185.241C66.935 185.241 67.4824 185.342 67.9841 185.544C68.4923 185.74 68.9289 186.027 69.2938 186.404C69.6652 186.776 69.9551 187.238 70.1636 187.792C70.3721 188.34 70.4764 188.965 70.4764 189.669C70.4764 189.943 70.4471 190.125 70.3884 190.216C70.3298 190.307 70.219 190.353 70.0561 190.353H63.4393C63.4588 190.979 63.5435 191.523 63.6934 191.985C63.8498 192.448 64.0648 192.836 64.3385 193.148C64.6121 193.455 64.9379 193.686 65.3158 193.842C65.6938 193.992 66.1173 194.067 66.5864 194.067C67.023 194.067 67.3977 194.018 67.7104 193.92C68.0297 193.816 68.3034 193.705 68.5314 193.588C68.7595 193.471 68.9484 193.363 69.0983 193.266C69.2547 193.161 69.3882 193.109 69.499 193.109C69.6424 193.109 69.7531 193.165 69.8313 193.275L70.32 193.911ZM74.0924 186.835C74.3074 186.593 74.5355 186.375 74.7766 186.18C75.0177 185.984 75.2718 185.818 75.5389 185.681C75.8126 185.538 76.0993 185.43 76.399 185.359C76.7053 185.28 77.0343 185.241 77.3862 185.241C77.927 185.241 78.4026 185.333 78.8131 185.515C79.2302 185.691 79.5755 185.945 79.8492 186.277C80.1293 186.603 80.3411 186.997 80.4845 187.46C80.6278 187.923 80.6995 188.434 80.6995 188.995V195.299H78.95V188.995C78.95 188.245 78.7773 187.665 78.432 187.255C78.0931 186.838 77.5751 186.629 76.8779 186.629C76.3632 186.629 75.881 186.753 75.4314 187.001C74.9883 187.248 74.5779 187.584 74.1999 188.007V195.299H72.4504V185.398H73.4962C73.7438 185.398 73.8969 185.518 73.9556 185.759L74.0924 186.835ZM89.6382 187.753C89.3125 187.317 88.9606 187.014 88.5827 186.844C88.2048 186.668 87.7812 186.58 87.3121 186.58C86.3934 186.58 85.6864 186.909 85.1912 187.568C84.696 188.226 84.4484 189.164 84.4484 190.382C84.4484 191.027 84.5038 191.581 84.6145 192.044C84.7253 192.5 84.8882 192.878 85.1032 193.178C85.3182 193.471 85.5821 193.686 85.8949 193.823C86.2077 193.96 86.5628 194.028 86.9602 194.028C87.5336 194.028 88.0321 193.898 88.4556 193.637C88.8857 193.376 89.2799 193.008 89.6382 192.533V187.753ZM91.378 180.902V195.299H90.342C90.0944 195.299 89.938 195.178 89.8728 194.937L89.7164 193.735C89.2929 194.243 88.8107 194.654 88.2699 194.966C87.7291 195.279 87.1036 195.435 86.3934 195.435C85.8265 195.435 85.3117 195.328 84.8491 195.113C84.3865 194.891 83.9923 194.569 83.6665 194.145C83.3407 193.722 83.0898 193.194 82.9139 192.562C82.738 191.93 82.65 191.203 82.65 190.382C82.65 189.653 82.7477 188.975 82.9432 188.349C83.1387 187.717 83.4189 187.17 83.7838 186.707C84.1486 186.245 84.595 185.883 85.1228 185.623C85.6571 185.355 86.2565 185.222 86.9211 185.222C87.5271 185.222 88.0451 185.326 88.4752 185.535C88.9117 185.737 89.2994 186.02 89.6382 186.385V180.902H91.378ZM95.8003 185.398V195.299H94.0606V185.398H95.8003ZM96.1717 182.29C96.1717 182.459 96.1359 182.619 96.0642 182.769C95.9991 182.912 95.9079 183.042 95.7906 183.16C95.6798 183.27 95.5462 183.358 95.3898 183.423C95.24 183.489 95.0803 183.521 94.9109 183.521C94.7415 183.521 94.5819 183.489 94.432 183.423C94.2887 183.358 94.1616 183.27 94.0508 183.16C93.9401 183.042 93.8521 182.912 93.7869 182.769C93.7218 182.619 93.6892 182.459 93.6892 182.29C93.6892 182.12 93.7218 181.961 93.7869 181.811C93.8521 181.654 93.9401 181.521 94.0508 181.41C94.1616 181.293 94.2887 181.202 94.432 181.136C94.5819 181.071 94.7415 181.039 94.9109 181.039C95.0803 181.039 95.24 181.071 95.3898 181.136C95.5462 181.202 95.6798 181.293 95.7906 181.41C95.9079 181.521 95.9991 181.654 96.0642 181.811C96.1359 181.961 96.1717 182.12 96.1717 182.29ZM101.536 195.455C100.754 195.455 100.151 195.237 99.7275 194.8C99.3104 194.364 99.1019 193.735 99.1019 192.914V186.854H97.9095C97.8053 186.854 97.7173 186.825 97.6456 186.766C97.574 186.701 97.5381 186.603 97.5381 186.473V185.779L99.1606 185.574L99.5613 182.515C99.5808 182.417 99.6232 182.339 99.6884 182.28C99.76 182.215 99.8513 182.182 99.962 182.182H100.842V185.593H103.705V186.854H100.842V192.797C100.842 193.214 100.943 193.523 101.145 193.725C101.347 193.927 101.607 194.028 101.927 194.028C102.109 194.028 102.265 194.005 102.396 193.96C102.533 193.907 102.65 193.852 102.748 193.793C102.845 193.735 102.927 193.683 102.992 193.637C103.064 193.585 103.125 193.559 103.178 193.559C103.269 193.559 103.35 193.614 103.422 193.725L103.93 194.556C103.63 194.836 103.269 195.057 102.845 195.22C102.422 195.377 101.985 195.455 101.536 195.455ZM113.48 185.398V195.299H112.444C112.197 195.299 112.04 195.178 111.975 194.937L111.838 193.872C111.408 194.347 110.926 194.732 110.392 195.025C109.858 195.312 109.245 195.455 108.554 195.455C108.014 195.455 107.535 195.367 107.118 195.191C106.707 195.009 106.362 194.755 106.082 194.429C105.801 194.103 105.59 193.709 105.446 193.246C105.31 192.783 105.241 192.272 105.241 191.712V185.398H106.981V191.712C106.981 192.461 107.15 193.041 107.489 193.451C107.834 193.862 108.359 194.067 109.063 194.067C109.577 194.067 110.056 193.947 110.499 193.705C110.949 193.458 111.363 193.119 111.741 192.689V185.398H113.48ZM117.728 187.382C118.041 186.704 118.425 186.176 118.881 185.798C119.337 185.414 119.894 185.222 120.552 185.222C120.761 185.222 120.96 185.245 121.149 185.29C121.344 185.336 121.517 185.408 121.667 185.505L121.54 186.805C121.5 186.968 121.403 187.05 121.246 187.05C121.155 187.05 121.022 187.03 120.846 186.991C120.67 186.952 120.471 186.932 120.249 186.932C119.937 186.932 119.656 186.978 119.409 187.069C119.168 187.16 118.949 187.297 118.754 187.48C118.565 187.656 118.392 187.877 118.236 188.144C118.086 188.405 117.949 188.705 117.826 189.043V195.299H116.076V185.398H117.073C117.262 185.398 117.392 185.434 117.464 185.505C117.536 185.577 117.584 185.701 117.61 185.877L117.728 187.382ZM129.259 189.268C129.259 188.864 129.201 188.496 129.083 188.164C128.972 187.825 128.806 187.535 128.585 187.294C128.37 187.046 128.106 186.857 127.793 186.727C127.48 186.59 127.125 186.522 126.728 186.522C125.894 186.522 125.232 186.766 124.744 187.255C124.262 187.737 123.962 188.408 123.845 189.268H129.259ZM130.667 193.911C130.452 194.171 130.194 194.399 129.894 194.595C129.595 194.784 129.272 194.94 128.927 195.064C128.588 195.188 128.236 195.279 127.871 195.338C127.506 195.403 127.145 195.435 126.786 195.435C126.102 195.435 125.47 195.321 124.89 195.093C124.317 194.859 123.818 194.52 123.395 194.077C122.978 193.627 122.652 193.073 122.418 192.415C122.183 191.757 122.066 191.001 122.066 190.148C122.066 189.457 122.17 188.812 122.378 188.213C122.593 187.613 122.9 187.095 123.297 186.659C123.695 186.216 124.18 185.87 124.753 185.623C125.327 185.368 125.972 185.241 126.689 185.241C127.282 185.241 127.829 185.342 128.331 185.544C128.839 185.74 129.275 186.027 129.64 186.404C130.012 186.776 130.302 187.238 130.51 187.792C130.719 188.34 130.823 188.965 130.823 189.669C130.823 189.943 130.794 190.125 130.735 190.216C130.676 190.307 130.566 190.353 130.403 190.353H123.786C123.805 190.979 123.89 191.523 124.04 191.985C124.196 192.448 124.411 192.836 124.685 193.148C124.959 193.455 125.285 193.686 125.662 193.842C126.04 193.992 126.464 194.067 126.933 194.067C127.37 194.067 127.744 194.018 128.057 193.92C128.376 193.816 128.65 193.705 128.878 193.588C129.106 193.471 129.295 193.363 129.445 193.266C129.601 193.161 129.735 193.109 129.846 193.109C129.989 193.109 130.1 193.165 130.178 193.275L130.667 193.911ZM149.393 181.293V195.299H147.497V188.926H139.942V195.299H138.046V181.293H139.942V187.538H147.497V181.293H149.393ZM154.085 185.398V195.299H152.346V185.398H154.085ZM154.457 182.29C154.457 182.459 154.421 182.619 154.349 182.769C154.284 182.912 154.193 183.042 154.075 183.16C153.965 183.27 153.831 183.358 153.675 183.423C153.525 183.489 153.365 183.521 153.196 183.521C153.026 183.521 152.867 183.489 152.717 183.423C152.574 183.358 152.447 183.27 152.336 183.16C152.225 183.042 152.137 182.912 152.072 182.769C152.007 182.619 151.974 182.459 151.974 182.29C151.974 182.12 152.007 181.961 152.072 181.811C152.137 181.654 152.225 181.521 152.336 181.41C152.447 181.293 152.574 181.202 152.717 181.136C152.867 181.071 153.026 181.039 153.196 181.039C153.365 181.039 153.525 181.071 153.675 181.136C153.831 181.202 153.965 181.293 154.075 181.41C154.193 181.521 154.284 181.654 154.349 181.811C154.421 181.961 154.457 182.12 154.457 182.29ZM162.547 187.03C162.469 187.173 162.349 187.245 162.186 187.245C162.088 187.245 161.977 187.209 161.853 187.137C161.73 187.066 161.577 186.988 161.394 186.903C161.218 186.812 161.006 186.73 160.759 186.659C160.511 186.58 160.218 186.541 159.879 186.541C159.586 186.541 159.322 186.58 159.087 186.659C158.853 186.73 158.651 186.831 158.482 186.962C158.319 187.092 158.192 187.245 158.1 187.421C158.016 187.59 157.973 187.776 157.973 187.978C157.973 188.232 158.045 188.444 158.188 188.613C158.338 188.783 158.534 188.929 158.775 189.053C159.016 189.177 159.289 189.288 159.596 189.385C159.902 189.477 160.215 189.578 160.534 189.688C160.86 189.793 161.176 189.91 161.482 190.04C161.788 190.171 162.062 190.334 162.303 190.529C162.544 190.724 162.736 190.966 162.88 191.252C163.03 191.532 163.105 191.871 163.105 192.269C163.105 192.725 163.023 193.148 162.86 193.539C162.697 193.924 162.456 194.259 162.137 194.546C161.818 194.826 161.427 195.048 160.964 195.211C160.501 195.374 159.967 195.455 159.361 195.455C158.67 195.455 158.045 195.344 157.485 195.123C156.924 194.895 156.449 194.605 156.058 194.253L156.468 193.588C156.52 193.503 156.582 193.438 156.654 193.393C156.726 193.347 156.817 193.324 156.927 193.324C157.045 193.324 157.169 193.37 157.299 193.461C157.429 193.552 157.586 193.653 157.768 193.764C157.957 193.875 158.185 193.976 158.452 194.067C158.719 194.158 159.052 194.204 159.449 194.204C159.788 194.204 160.084 194.162 160.339 194.077C160.593 193.986 160.804 193.865 160.974 193.715C161.143 193.565 161.267 193.393 161.345 193.197C161.43 193.002 161.472 192.793 161.472 192.572C161.472 192.298 161.397 192.073 161.248 191.897C161.104 191.715 160.912 191.562 160.671 191.438C160.43 191.308 160.153 191.197 159.84 191.106C159.534 191.008 159.218 190.907 158.892 190.803C158.573 190.698 158.257 190.581 157.944 190.451C157.638 190.314 157.364 190.145 157.123 189.943C156.882 189.741 156.686 189.493 156.537 189.2C156.393 188.9 156.322 188.538 156.322 188.115C156.322 187.737 156.4 187.375 156.556 187.03C156.712 186.678 156.941 186.372 157.24 186.111C157.54 185.844 157.908 185.632 158.345 185.476C158.781 185.32 159.28 185.241 159.84 185.241C160.492 185.241 161.075 185.346 161.59 185.554C162.111 185.756 162.56 186.036 162.938 186.395L162.547 187.03ZM168.114 195.455C167.332 195.455 166.73 195.237 166.306 194.8C165.889 194.364 165.681 193.735 165.681 192.914V186.854H164.488C164.384 186.854 164.296 186.825 164.224 186.766C164.153 186.701 164.117 186.603 164.117 186.473V185.779L165.739 185.574L166.14 182.515C166.159 182.417 166.202 182.339 166.267 182.28C166.339 182.215 166.43 182.182 166.541 182.182H167.42V185.593H170.284V186.854H167.42V192.797C167.42 193.214 167.521 193.523 167.723 193.725C167.925 193.927 168.186 194.028 168.505 194.028C168.688 194.028 168.844 194.005 168.974 193.96C169.111 193.907 169.228 193.852 169.326 193.793C169.424 193.735 169.505 193.683 169.571 193.637C169.642 193.585 169.704 193.559 169.756 193.559C169.847 193.559 169.929 193.614 170.001 193.725L170.509 194.556C170.209 194.836 169.847 195.057 169.424 195.22C169 195.377 168.564 195.455 168.114 195.455ZM176.034 185.241C176.757 185.241 177.408 185.362 177.988 185.603C178.568 185.844 179.063 186.186 179.474 186.629C179.884 187.072 180.197 187.61 180.412 188.242C180.634 188.867 180.745 189.568 180.745 190.343C180.745 191.125 180.634 191.829 180.412 192.454C180.197 193.08 179.884 193.614 179.474 194.057C179.063 194.5 178.568 194.842 177.988 195.084C177.408 195.318 176.757 195.435 176.034 195.435C175.304 195.435 174.646 195.318 174.059 195.084C173.479 194.842 172.984 194.5 172.574 194.057C172.163 193.614 171.847 193.08 171.626 192.454C171.411 191.829 171.303 191.125 171.303 190.343C171.303 189.568 171.411 188.867 171.626 188.242C171.847 187.61 172.163 187.072 172.574 186.629C172.984 186.186 173.479 185.844 174.059 185.603C174.646 185.362 175.304 185.241 176.034 185.241ZM176.034 194.077C177.011 194.077 177.741 193.751 178.223 193.099C178.705 192.441 178.946 191.526 178.946 190.353C178.946 189.174 178.705 188.255 178.223 187.597C177.741 186.939 177.011 186.61 176.034 186.61C175.538 186.61 175.105 186.694 174.734 186.864C174.369 187.033 174.063 187.278 173.815 187.597C173.574 187.916 173.391 188.31 173.268 188.779C173.15 189.242 173.092 189.767 173.092 190.353C173.092 191.526 173.333 192.441 173.815 193.099C174.304 193.751 175.043 194.077 176.034 194.077ZM184.44 187.382C184.753 186.704 185.137 186.176 185.593 185.798C186.049 185.414 186.607 185.222 187.265 185.222C187.473 185.222 187.672 185.245 187.861 185.29C188.056 185.336 188.229 185.408 188.379 185.505L188.252 186.805C188.213 186.968 188.115 187.05 187.959 187.05C187.867 187.05 187.734 187.03 187.558 186.991C187.382 186.952 187.183 186.932 186.962 186.932C186.649 186.932 186.369 186.978 186.121 187.069C185.88 187.16 185.662 187.297 185.466 187.48C185.277 187.656 185.105 187.877 184.948 188.144C184.798 188.405 184.662 188.705 184.538 189.043V195.299H182.788V185.398H183.785C183.974 185.398 184.104 185.434 184.176 185.505C184.248 185.577 184.297 185.701 184.323 185.877L184.44 187.382ZM198.288 185.398L192.766 198.221C192.707 198.351 192.632 198.456 192.541 198.534C192.456 198.612 192.323 198.651 192.14 198.651H190.85L192.658 194.722L188.573 185.398H190.078C190.228 185.398 190.345 185.437 190.43 185.515C190.521 185.587 190.583 185.668 190.616 185.759L193.264 191.995C193.368 192.269 193.456 192.555 193.528 192.855C193.619 192.549 193.717 192.259 193.821 191.985L196.392 185.759C196.431 185.655 196.496 185.57 196.587 185.505C196.685 185.434 196.793 185.398 196.91 185.398H198.288Z" fill="#D1D1D1"/>
<path d="M60.2738 223.167C60.2738 225.866 58.0858 228.054 55.3869 228.054C52.6879 228.054 50.5 225.866 50.5 223.167C50.5 220.468 52.6879 218.281 55.3869 218.281C58.0858 218.281 60.2738 220.468 60.2738 223.167Z" fill="#D1D1D1"/>
<path d="M91.7035 227.975L91.6872 228.667H84.7804V217.143H91.6872V217.835H85.6193V222.494H90.6691V223.17H85.6193V227.975H91.7035ZM99.6459 228.667H98.9047C98.8287 228.667 98.769 228.646 98.7256 228.602C98.6821 228.553 98.6468 228.507 98.6197 228.464L96.1599 224.872C96.1382 224.97 96.0975 225.065 96.0378 225.157L93.6921 228.464C93.6541 228.513 93.6133 228.559 93.5699 228.602C93.5319 228.646 93.4803 228.667 93.4151 228.667H92.7147L95.6631 224.522L92.8287 220.563H93.5699C93.6459 220.563 93.7029 220.58 93.7409 220.612C93.7789 220.645 93.8115 220.683 93.8387 220.726L96.217 224.155C96.2278 224.112 96.2441 224.066 96.2658 224.017C96.293 223.968 96.3201 223.919 96.3473 223.87L98.5708 220.734C98.6034 220.686 98.6387 220.645 98.6767 220.612C98.7147 220.58 98.7636 220.563 98.8233 220.563H99.5319L96.7056 224.473L99.6459 228.667ZM101.955 226.9C102.112 227.134 102.275 227.332 102.444 227.495C102.617 227.652 102.799 227.782 102.989 227.886C103.179 227.983 103.38 228.054 103.592 228.097C103.809 228.141 104.037 228.163 104.276 228.163C104.754 228.163 105.172 228.076 105.531 227.902C105.889 227.728 106.188 227.484 106.426 227.169C106.671 226.848 106.853 226.468 106.972 226.029C107.097 225.583 107.159 225.095 107.159 224.563C107.159 223.357 106.937 222.472 106.492 221.907C106.046 221.337 105.408 221.052 104.578 221.052C104.04 221.052 103.554 221.191 103.12 221.467C102.685 221.744 102.297 222.13 101.955 222.624V226.9ZM101.922 222.021C102.281 221.533 102.699 221.144 103.177 220.857C103.66 220.569 104.2 220.425 104.797 220.425C105.791 220.425 106.565 220.77 107.119 221.459C107.678 222.149 107.958 223.183 107.958 224.563C107.958 225.154 107.879 225.708 107.721 226.224C107.569 226.734 107.341 227.18 107.037 227.56C106.739 227.934 106.369 228.23 105.93 228.448C105.495 228.665 104.993 228.773 104.423 228.773C103.874 228.773 103.399 228.673 102.997 228.472C102.596 228.271 102.248 227.975 101.955 227.584V231.534H101.173V220.563H101.605C101.74 220.563 101.819 220.631 101.841 220.767L101.922 222.021ZM115.683 223.797C115.683 223.363 115.621 222.974 115.496 222.632C115.376 222.285 115.205 221.991 114.983 221.753C114.76 221.514 114.494 221.332 114.185 221.207C113.88 221.077 113.544 221.011 113.175 221.011C112.756 221.011 112.382 221.077 112.051 221.207C111.719 221.337 111.432 221.524 111.187 221.769C110.948 222.013 110.756 222.306 110.609 222.648C110.462 222.991 110.365 223.373 110.316 223.797H115.683ZM110.275 224.294V224.448C110.275 225.057 110.346 225.591 110.487 226.053C110.628 226.515 110.829 226.903 111.089 227.218C111.35 227.527 111.665 227.761 112.034 227.918C112.404 228.076 112.816 228.154 113.272 228.154C113.68 228.154 114.032 228.111 114.331 228.024C114.63 227.932 114.88 227.831 115.08 227.723C115.287 227.609 115.45 227.508 115.569 227.421C115.689 227.329 115.775 227.283 115.83 227.283C115.9 227.283 115.955 227.31 115.993 227.364L116.204 227.625C116.074 227.788 115.9 227.94 115.683 228.081C115.471 228.222 115.232 228.344 114.966 228.448C114.706 228.545 114.423 228.624 114.119 228.684C113.821 228.743 113.519 228.773 113.215 228.773C112.661 228.773 112.156 228.678 111.7 228.488C111.244 228.293 110.853 228.01 110.527 227.641C110.202 227.272 109.949 226.821 109.77 226.289C109.596 225.752 109.509 225.138 109.509 224.448C109.509 223.867 109.591 223.333 109.754 222.844C109.922 222.35 110.161 221.926 110.47 221.573C110.785 221.215 111.168 220.935 111.619 220.734C112.075 220.534 112.591 220.433 113.166 220.433C113.623 220.433 114.046 220.512 114.437 220.669C114.828 220.827 115.167 221.058 115.455 221.362C115.743 221.66 115.968 222.029 116.131 222.469C116.299 222.909 116.384 223.414 116.384 223.984C116.384 224.104 116.367 224.185 116.335 224.229C116.302 224.272 116.248 224.294 116.172 224.294H110.275ZM119.071 221.981C119.446 221.514 119.877 221.139 120.366 220.857C120.86 220.574 121.409 220.433 122.011 220.433C122.457 220.433 122.848 220.504 123.184 220.645C123.526 220.786 123.809 220.99 124.031 221.256C124.254 221.522 124.422 221.842 124.536 222.217C124.65 222.591 124.707 223.015 124.707 223.487V228.667H123.925V223.487C123.925 222.727 123.752 222.133 123.404 221.704C123.057 221.269 122.527 221.052 121.816 221.052C121.289 221.052 120.795 221.188 120.334 221.459C119.877 221.725 119.47 222.097 119.112 222.575V228.667H118.33V220.563H118.762C118.897 220.563 118.976 220.631 118.998 220.767L119.071 221.981ZM132.653 222.306C132.344 221.839 131.999 221.511 131.619 221.321C131.244 221.131 130.815 221.036 130.332 221.036C129.854 221.036 129.436 221.123 129.078 221.296C128.72 221.47 128.418 221.717 128.174 222.038C127.935 222.353 127.753 222.733 127.628 223.178C127.509 223.618 127.449 224.104 127.449 224.636C127.449 225.841 127.669 226.729 128.109 227.299C128.554 227.864 129.195 228.146 130.031 228.146C130.563 228.146 131.049 228.008 131.489 227.731C131.929 227.454 132.317 227.066 132.653 226.566V222.306ZM133.427 216.817V228.667H133.004C132.863 228.667 132.781 228.597 132.759 228.456L132.678 227.177C132.32 227.666 131.901 228.054 131.424 228.342C130.946 228.629 130.408 228.773 129.811 228.773C128.812 228.773 128.035 228.429 127.482 227.739C126.928 227.049 126.651 226.015 126.651 224.636C126.651 224.044 126.727 223.493 126.879 222.982C127.036 222.467 127.264 222.021 127.563 221.647C127.862 221.267 128.228 220.968 128.663 220.751C129.102 220.534 129.607 220.425 130.177 220.425C130.726 220.425 131.201 220.525 131.603 220.726C132.005 220.927 132.355 221.226 132.653 221.622V216.817H133.427ZM136.796 220.563V228.667H136.022V220.563H136.796ZM137.13 217.77C137.13 217.867 137.108 217.96 137.064 218.047C137.026 218.128 136.975 218.201 136.91 218.267C136.844 218.332 136.768 218.383 136.682 218.421C136.595 218.459 136.502 218.478 136.405 218.478C136.307 218.478 136.215 218.459 136.128 218.421C136.041 218.383 135.965 218.332 135.9 218.267C135.835 218.201 135.783 218.128 135.745 218.047C135.707 217.96 135.688 217.867 135.688 217.77C135.688 217.672 135.707 217.58 135.745 217.493C135.783 217.401 135.835 217.322 135.9 217.257C135.965 217.191 136.041 217.14 136.128 217.102C136.215 217.064 136.307 217.045 136.405 217.045C136.502 217.045 136.595 217.064 136.682 217.102C136.768 217.14 136.844 217.191 136.91 217.257C136.975 217.322 137.026 217.401 137.064 217.493C137.108 217.58 137.13 217.672 137.13 217.77ZM141.612 228.798C141.063 228.798 140.634 228.646 140.325 228.342C140.021 228.038 139.869 227.568 139.869 226.933V221.394H138.704C138.644 221.394 138.595 221.378 138.557 221.345C138.519 221.313 138.5 221.267 138.5 221.207V220.905L139.885 220.808L140.081 217.908C140.091 217.859 140.113 217.816 140.146 217.778C140.178 217.74 140.224 217.721 140.284 217.721H140.651V220.816H143.208V221.394H140.651V226.892C140.651 227.115 140.678 227.307 140.732 227.47C140.792 227.628 140.871 227.758 140.968 227.861C141.071 227.964 141.191 228.04 141.327 228.089C141.462 228.138 141.609 228.163 141.766 228.163C141.962 228.163 142.13 228.135 142.271 228.081C142.413 228.021 142.535 227.959 142.638 227.894C142.741 227.823 142.825 227.761 142.89 227.706C142.956 227.647 143.007 227.617 143.045 227.617C143.089 227.617 143.132 227.644 143.176 227.698L143.387 228.04C143.181 228.268 142.918 228.453 142.597 228.594C142.282 228.73 141.954 228.798 141.612 228.798ZM151.105 220.563V228.667H150.673C150.537 228.667 150.459 228.597 150.437 228.456L150.364 227.25C149.989 227.717 149.555 228.092 149.061 228.374C148.572 228.657 148.026 228.798 147.423 228.798C146.973 228.798 146.579 228.727 146.242 228.586C145.906 228.445 145.626 228.241 145.404 227.975C145.181 227.709 145.013 227.389 144.899 227.014C144.785 226.639 144.727 226.216 144.727 225.743V220.563H145.509V225.743C145.509 226.504 145.683 227.101 146.031 227.535C146.378 227.964 146.908 228.179 147.619 228.179C148.146 228.179 148.637 228.046 149.093 227.78C149.555 227.508 149.965 227.134 150.323 226.656V220.563H151.105ZM154.351 222.518C154.476 222.187 154.618 221.894 154.775 221.639C154.938 221.378 155.123 221.158 155.329 220.979C155.541 220.8 155.774 220.664 156.029 220.572C156.29 220.474 156.578 220.425 156.893 220.425C157.061 220.425 157.227 220.441 157.389 220.474C157.552 220.501 157.696 220.553 157.821 220.629L157.756 221.166C157.729 221.253 157.677 221.296 157.601 221.296C157.536 221.296 157.436 221.277 157.3 221.239C157.17 221.201 156.996 221.182 156.779 221.182C156.464 221.182 156.184 221.231 155.94 221.329C155.701 221.421 155.484 221.563 155.288 221.753C155.098 221.943 154.93 222.179 154.783 222.461C154.642 222.738 154.512 223.058 154.392 223.422V228.667H153.61V220.563H154.026C154.118 220.563 154.183 220.582 154.221 220.62C154.259 220.658 154.284 220.724 154.294 220.816L154.351 222.518ZM164.43 223.797C164.43 223.363 164.367 222.974 164.242 222.632C164.123 222.285 163.952 221.991 163.729 221.753C163.507 221.514 163.241 221.332 162.931 221.207C162.627 221.077 162.29 221.011 161.921 221.011C161.503 221.011 161.128 221.077 160.797 221.207C160.466 221.337 160.178 221.524 159.934 221.769C159.695 222.013 159.502 222.306 159.356 222.648C159.209 222.991 159.111 223.373 159.062 223.797H164.43ZM159.022 224.294V224.448C159.022 225.057 159.092 225.591 159.233 226.053C159.375 226.515 159.575 226.903 159.836 227.218C160.097 227.527 160.412 227.761 160.781 227.918C161.15 228.076 161.563 228.154 162.019 228.154C162.426 228.154 162.779 228.111 163.078 228.024C163.376 227.932 163.626 227.831 163.827 227.723C164.033 227.609 164.196 227.508 164.316 227.421C164.435 227.329 164.522 227.283 164.576 227.283C164.647 227.283 164.701 227.31 164.739 227.364L164.951 227.625C164.821 227.788 164.647 227.94 164.43 228.081C164.218 228.222 163.979 228.344 163.713 228.448C163.452 228.545 163.17 228.624 162.866 228.684C162.567 228.743 162.266 228.773 161.962 228.773C161.408 228.773 160.903 228.678 160.447 228.488C159.991 228.293 159.6 228.01 159.274 227.641C158.948 227.272 158.696 226.821 158.517 226.289C158.343 225.752 158.256 225.138 158.256 224.448C158.256 223.867 158.337 223.333 158.5 222.844C158.669 222.35 158.908 221.926 159.217 221.573C159.532 221.215 159.915 220.935 160.365 220.734C160.822 220.534 161.337 220.433 161.913 220.433C162.369 220.433 162.793 220.512 163.184 220.669C163.575 220.827 163.914 221.058 164.202 221.362C164.489 221.66 164.715 222.029 164.878 222.469C165.046 222.909 165.13 223.414 165.13 223.984C165.13 224.104 165.114 224.185 165.081 224.229C165.049 224.272 164.994 224.294 164.918 224.294H159.022ZM180.597 217.143V228.667H179.758V223.145H172.541V228.667H171.703V217.143H172.541V222.518H179.758V217.143H180.597ZM184.206 220.563V228.667H183.432V220.563H184.206ZM184.54 217.77C184.54 217.867 184.518 217.96 184.475 218.047C184.437 218.128 184.385 218.201 184.32 218.267C184.255 218.332 184.179 218.383 184.092 218.421C184.005 218.459 183.913 218.478 183.815 218.478C183.717 218.478 183.625 218.459 183.538 218.421C183.451 218.383 183.375 218.332 183.31 218.267C183.245 218.201 183.193 218.128 183.155 218.047C183.117 217.96 183.098 217.867 183.098 217.77C183.098 217.672 183.117 217.58 183.155 217.493C183.193 217.401 183.245 217.322 183.31 217.257C183.375 217.191 183.451 217.14 183.538 217.102C183.625 217.064 183.717 217.045 183.815 217.045C183.913 217.045 184.005 217.064 184.092 217.102C184.179 217.14 184.255 217.191 184.32 217.257C184.385 217.322 184.437 217.401 184.475 217.493C184.518 217.58 184.54 217.672 184.54 217.77ZM191.262 221.565C191.218 221.641 191.156 221.679 191.075 221.679C191.015 221.679 190.939 221.647 190.847 221.582C190.754 221.511 190.629 221.435 190.472 221.353C190.32 221.267 190.13 221.191 189.902 221.125C189.674 221.055 189.397 221.02 189.071 221.02C188.778 221.02 188.509 221.063 188.265 221.15C188.026 221.231 187.819 221.343 187.646 221.484C187.477 221.625 187.347 221.791 187.255 221.981C187.162 222.165 187.116 222.361 187.116 222.567C187.116 222.822 187.181 223.034 187.312 223.202C187.442 223.371 187.61 223.515 187.817 223.634C188.028 223.753 188.27 223.857 188.542 223.943C188.813 224.03 189.087 224.117 189.364 224.204C189.647 224.291 189.923 224.389 190.195 224.497C190.466 224.601 190.705 224.731 190.912 224.888C191.123 225.046 191.294 225.239 191.425 225.467C191.555 225.695 191.62 225.972 191.62 226.297C191.62 226.65 191.558 226.979 191.433 227.283C191.308 227.587 191.123 227.85 190.879 228.073C190.64 228.296 190.344 228.472 189.991 228.602C189.638 228.733 189.234 228.798 188.778 228.798C188.208 228.798 187.716 228.708 187.304 228.529C186.891 228.344 186.522 228.105 186.196 227.812L186.375 227.535C186.402 227.492 186.432 227.459 186.465 227.438C186.503 227.416 186.551 227.405 186.611 227.405C186.682 227.405 186.766 227.448 186.864 227.535C186.967 227.622 187.103 227.717 187.271 227.82C187.439 227.918 187.646 228.01 187.89 228.097C188.14 228.184 188.447 228.228 188.81 228.228C189.152 228.228 189.454 228.182 189.714 228.089C189.975 227.991 190.192 227.861 190.366 227.698C190.54 227.535 190.67 227.345 190.757 227.128C190.849 226.905 190.895 226.672 190.895 226.428C190.895 226.156 190.83 225.931 190.7 225.752C190.57 225.572 190.399 225.42 190.187 225.296C189.975 225.171 189.733 225.065 189.462 224.978C189.196 224.891 188.922 224.804 188.639 224.717C188.357 224.63 188.08 224.535 187.808 224.432C187.542 224.329 187.304 224.199 187.092 224.041C186.88 223.884 186.709 223.694 186.579 223.471C186.448 223.243 186.383 222.961 186.383 222.624C186.383 222.336 186.446 222.059 186.57 221.793C186.695 221.527 186.872 221.294 187.1 221.093C187.333 220.892 187.616 220.732 187.947 220.612C188.278 220.493 188.65 220.433 189.063 220.433C189.557 220.433 189.994 220.504 190.374 220.645C190.76 220.786 191.11 221.003 191.425 221.296L191.262 221.565ZM195.779 228.798C195.231 228.798 194.802 228.646 194.492 228.342C194.188 228.038 194.036 227.568 194.036 226.933V221.394H192.871C192.812 221.394 192.763 221.378 192.725 221.345C192.687 221.313 192.668 221.267 192.668 221.207V220.905L194.052 220.808L194.248 217.908C194.259 217.859 194.28 217.816 194.313 217.778C194.346 217.74 194.392 217.721 194.451 217.721H194.818V220.816H197.375V221.394H194.818V226.892C194.818 227.115 194.845 227.307 194.899 227.47C194.959 227.628 195.038 227.758 195.136 227.861C195.239 227.964 195.358 228.04 195.494 228.089C195.63 228.138 195.776 228.163 195.934 228.163C196.129 228.163 196.298 228.135 196.439 228.081C196.58 228.021 196.702 227.959 196.805 227.894C196.908 227.823 196.993 227.761 197.058 227.706C197.123 227.647 197.175 227.617 197.213 227.617C197.256 227.617 197.299 227.644 197.343 227.698L197.555 228.04C197.348 228.268 197.085 228.453 196.765 228.594C196.45 228.73 196.121 228.798 195.779 228.798ZM202.162 220.433C202.743 220.433 203.261 220.534 203.717 220.734C204.179 220.93 204.567 221.21 204.882 221.573C205.197 221.937 205.436 222.377 205.599 222.893C205.767 223.403 205.851 223.976 205.851 224.611C205.851 225.247 205.767 225.82 205.599 226.33C205.436 226.84 205.197 227.277 204.882 227.641C204.567 228.005 204.179 228.285 203.717 228.48C203.261 228.676 202.743 228.773 202.162 228.773C201.581 228.773 201.059 228.676 200.598 228.48C200.142 228.285 199.754 228.005 199.433 227.641C199.118 227.277 198.877 226.84 198.708 226.33C198.545 225.82 198.464 225.247 198.464 224.611C198.464 223.976 198.545 223.403 198.708 222.893C198.877 222.377 199.118 221.937 199.433 221.573C199.754 221.21 200.142 220.93 200.598 220.734C201.059 220.534 201.581 220.433 202.162 220.433ZM202.162 228.163C202.645 228.163 203.066 228.081 203.424 227.918C203.788 227.75 204.089 227.511 204.328 227.201C204.573 226.892 204.754 226.52 204.874 226.086C204.993 225.646 205.053 225.154 205.053 224.611C205.053 224.074 204.993 223.585 204.874 223.145C204.754 222.705 204.573 222.331 204.328 222.021C204.089 221.706 203.788 221.465 203.424 221.296C203.066 221.128 202.645 221.044 202.162 221.044C201.678 221.044 201.255 221.128 200.891 221.296C200.533 221.465 200.231 221.706 199.987 222.021C199.748 222.331 199.566 222.705 199.441 223.145C199.322 223.585 199.262 224.074 199.262 224.611C199.262 225.154 199.322 225.646 199.441 226.086C199.566 226.52 199.748 226.892 199.987 227.201C200.231 227.511 200.533 227.75 200.891 227.918C201.255 228.081 201.678 228.163 202.162 228.163ZM208.614 222.518C208.739 222.187 208.88 221.894 209.038 221.639C209.201 221.378 209.385 221.158 209.592 220.979C209.803 220.8 210.037 220.664 210.292 220.572C210.553 220.474 210.84 220.425 211.155 220.425C211.324 220.425 211.489 220.441 211.652 220.474C211.815 220.501 211.959 220.553 212.084 220.629L212.019 221.166C211.992 221.253 211.94 221.296 211.864 221.296C211.799 221.296 211.698 221.277 211.563 221.239C211.432 221.201 211.259 221.182 211.041 221.182C210.726 221.182 210.447 221.231 210.202 221.329C209.964 221.421 209.746 221.563 209.551 221.753C209.361 221.943 209.193 222.179 209.046 222.461C208.905 222.738 208.774 223.058 208.655 223.422V228.667H207.873V220.563H208.288C208.381 220.563 208.446 220.582 208.484 220.62C208.522 220.658 208.546 220.724 208.557 220.816L208.614 222.518ZM220.017 220.563L215.358 231.274C215.326 231.35 215.282 231.412 215.228 231.461C215.179 231.51 215.106 231.534 215.008 231.534H214.454L215.88 228.366L212.451 220.563H213.094C213.176 220.563 213.241 220.585 213.29 220.629C213.338 220.667 213.371 220.71 213.387 220.759L216.116 227.063C216.148 227.144 216.176 227.229 216.197 227.315C216.224 227.397 216.249 227.481 216.271 227.568C216.298 227.481 216.325 227.397 216.352 227.315C216.385 227.229 216.417 227.144 216.45 227.063L219.146 220.759C219.173 220.699 219.211 220.653 219.26 220.62C219.309 220.582 219.363 220.563 219.423 220.563H220.017Z" fill="#D1D1D1"/>
<path d="M60.2738 262.262C60.2738 264.961 58.0858 267.149 55.3869 267.149C52.6879 267.149 50.5 264.961 50.5 262.262C50.5 259.563 52.6879 257.375 55.3869 257.375C58.0858 257.375 60.2738 259.563 60.2738 262.262Z" fill="#D1D1D1"/>
<path d="M91.7035 267.07L91.6872 267.762H84.7804V256.238H91.6872V256.93H85.6193V261.589H90.6691V262.265H85.6193V267.07H91.7035ZM99.6459 267.762H98.9047C98.8287 267.762 98.769 267.741 98.7256 267.697C98.6821 267.648 98.6468 267.602 98.6197 267.559L96.1599 263.967C96.1382 264.065 96.0975 264.16 96.0378 264.252L93.6921 267.559C93.6541 267.608 93.6133 267.654 93.5699 267.697C93.5319 267.741 93.4803 267.762 93.4151 267.762H92.7147L95.6631 263.617L92.8287 259.658H93.5699C93.6459 259.658 93.7029 259.675 93.7409 259.707C93.7789 259.74 93.8115 259.778 93.8387 259.821L96.217 263.25C96.2278 263.207 96.2441 263.161 96.2658 263.112C96.293 263.063 96.3201 263.014 96.3473 262.965L98.5708 259.829C98.6034 259.781 98.6387 259.74 98.6767 259.707C98.7147 259.675 98.7636 259.658 98.8233 259.658H99.5319L96.7056 263.568L99.6459 267.762ZM101.955 265.995C102.112 266.229 102.275 266.427 102.444 266.59C102.617 266.747 102.799 266.877 102.989 266.981C103.179 267.078 103.38 267.149 103.592 267.192C103.809 267.236 104.037 267.257 104.276 267.257C104.754 267.257 105.172 267.171 105.531 266.997C105.889 266.823 106.188 266.579 106.426 266.264C106.671 265.943 106.853 265.563 106.972 265.124C107.097 264.678 107.159 264.19 107.159 263.657C107.159 262.452 106.937 261.567 106.492 261.002C106.046 260.432 105.408 260.147 104.578 260.147C104.04 260.147 103.554 260.286 103.12 260.562C102.685 260.839 102.297 261.225 101.955 261.719V265.995ZM101.922 261.116C102.281 260.628 102.699 260.239 103.177 259.952C103.66 259.664 104.2 259.52 104.797 259.52C105.791 259.52 106.565 259.865 107.119 260.554C107.678 261.244 107.958 262.278 107.958 263.657C107.958 264.249 107.879 264.803 107.721 265.319C107.569 265.829 107.341 266.275 107.037 266.655C106.739 267.029 106.369 267.325 105.93 267.543C105.495 267.76 104.993 267.868 104.423 267.868C103.874 267.868 103.399 267.768 102.997 267.567C102.596 267.366 102.248 267.07 101.955 266.679V270.629H101.173V259.658H101.605C101.74 259.658 101.819 259.726 101.841 259.862L101.922 261.116ZM115.683 262.892C115.683 262.457 115.621 262.069 115.496 261.727C115.376 261.38 115.205 261.086 114.983 260.848C114.76 260.609 114.494 260.427 114.185 260.302C113.88 260.172 113.544 260.106 113.175 260.106C112.756 260.106 112.382 260.172 112.051 260.302C111.719 260.432 111.432 260.619 111.187 260.864C110.948 261.108 110.756 261.401 110.609 261.743C110.462 262.086 110.365 262.468 110.316 262.892H115.683ZM110.275 263.389V263.543C110.275 264.152 110.346 264.686 110.487 265.148C110.628 265.61 110.829 265.998 111.089 266.313C111.35 266.622 111.665 266.856 112.034 267.013C112.404 267.171 112.816 267.249 113.272 267.249C113.68 267.249 114.032 267.206 114.331 267.119C114.63 267.027 114.88 266.926 115.08 266.818C115.287 266.704 115.45 266.603 115.569 266.516C115.689 266.424 115.775 266.378 115.83 266.378C115.9 266.378 115.955 266.405 115.993 266.459L116.204 266.72C116.074 266.883 115.9 267.035 115.683 267.176C115.471 267.317 115.232 267.439 114.966 267.543C114.706 267.64 114.423 267.719 114.119 267.779C113.821 267.838 113.519 267.868 113.215 267.868C112.661 267.868 112.156 267.773 111.7 267.583C111.244 267.388 110.853 267.105 110.527 266.736C110.202 266.367 109.949 265.916 109.77 265.384C109.596 264.847 109.509 264.233 109.509 263.543C109.509 262.962 109.591 262.428 109.754 261.939C109.922 261.445 110.161 261.021 110.47 260.668C110.785 260.31 111.168 260.03 111.619 259.829C112.075 259.629 112.591 259.528 113.166 259.528C113.623 259.528 114.046 259.607 114.437 259.764C114.828 259.922 115.167 260.152 115.455 260.457C115.743 260.755 115.968 261.124 116.131 261.564C116.299 262.004 116.384 262.509 116.384 263.079C116.384 263.199 116.367 263.28 116.335 263.324C116.302 263.367 116.248 263.389 116.172 263.389H110.275ZM119.071 261.076C119.446 260.609 119.877 260.234 120.366 259.952C120.86 259.669 121.409 259.528 122.011 259.528C122.457 259.528 122.848 259.599 123.184 259.74C123.526 259.881 123.809 260.085 124.031 260.351C124.254 260.617 124.422 260.937 124.536 261.312C124.65 261.686 124.707 262.11 124.707 262.582V267.762H123.925V262.582C123.925 261.822 123.752 261.228 123.404 260.799C123.057 260.364 122.527 260.147 121.816 260.147C121.289 260.147 120.795 260.283 120.334 260.554C119.877 260.82 119.47 261.192 119.112 261.67V267.762H118.33V259.658H118.762C118.897 259.658 118.976 259.726 118.998 259.862L119.071 261.076ZM132.653 261.401C132.344 260.934 131.999 260.606 131.619 260.416C131.244 260.226 130.815 260.131 130.332 260.131C129.854 260.131 129.436 260.218 129.078 260.391C128.72 260.565 128.418 260.812 128.174 261.133C127.935 261.448 127.753 261.828 127.628 262.273C127.509 262.713 127.449 263.199 127.449 263.731C127.449 264.936 127.669 265.824 128.109 266.394C128.554 266.959 129.195 267.241 130.031 267.241C130.563 267.241 131.049 267.103 131.489 266.826C131.929 266.549 132.317 266.161 132.653 265.661V261.401ZM133.427 255.912V267.762H133.004C132.863 267.762 132.781 267.692 132.759 267.551L132.678 266.272C132.32 266.761 131.901 267.149 131.424 267.437C130.946 267.724 130.408 267.868 129.811 267.868C128.812 267.868 128.035 267.524 127.482 266.834C126.928 266.144 126.651 265.11 126.651 263.731C126.651 263.139 126.727 262.588 126.879 262.077C127.036 261.562 127.264 261.116 127.563 260.742C127.862 260.362 128.228 260.063 128.663 259.846C129.102 259.629 129.607 259.52 130.177 259.52C130.726 259.52 131.201 259.62 131.603 259.821C132.005 260.022 132.355 260.321 132.653 260.717V255.912H133.427ZM136.796 259.658V267.762H136.022V259.658H136.796ZM137.13 256.865C137.13 256.962 137.108 257.055 137.064 257.142C137.026 257.223 136.975 257.296 136.91 257.362C136.844 257.427 136.768 257.478 136.682 257.516C136.595 257.554 136.502 257.573 136.405 257.573C136.307 257.573 136.215 257.554 136.128 257.516C136.041 257.478 135.965 257.427 135.9 257.362C135.835 257.296 135.783 257.223 135.745 257.142C135.707 257.055 135.688 256.962 135.688 256.865C135.688 256.767 135.707 256.675 135.745 256.588C135.783 256.495 135.835 256.417 135.9 256.352C135.965 256.286 136.041 256.235 136.128 256.197C136.215 256.159 136.307 256.14 136.405 256.14C136.502 256.14 136.595 256.159 136.682 256.197C136.768 256.235 136.844 256.286 136.91 256.352C136.975 256.417 137.026 256.495 137.064 256.588C137.108 256.675 137.13 256.767 137.13 256.865ZM141.612 267.893C141.063 267.893 140.634 267.741 140.325 267.437C140.021 267.133 139.869 266.663 139.869 266.028V260.489H138.704C138.644 260.489 138.595 260.473 138.557 260.44C138.519 260.408 138.5 260.362 138.5 260.302V260L139.885 259.903L140.081 257.003C140.091 256.954 140.113 256.911 140.146 256.873C140.178 256.835 140.224 256.816 140.284 256.816H140.651V259.911H143.208V260.489H140.651V265.987C140.651 266.21 140.678 266.402 140.732 266.565C140.792 266.723 140.871 266.853 140.968 266.956C141.071 267.059 141.191 267.135 141.327 267.184C141.462 267.233 141.609 267.257 141.766 267.257C141.962 267.257 142.13 267.23 142.271 267.176C142.413 267.116 142.535 267.054 142.638 266.989C142.741 266.918 142.825 266.856 142.89 266.801C142.956 266.742 143.007 266.712 143.045 266.712C143.089 266.712 143.132 266.739 143.176 266.793L143.387 267.135C143.181 267.363 142.918 267.548 142.597 267.689C142.282 267.825 141.954 267.893 141.612 267.893ZM151.105 259.658V267.762H150.673C150.537 267.762 150.459 267.692 150.437 267.551L150.364 266.345C149.989 266.812 149.555 267.187 149.061 267.469C148.572 267.752 148.026 267.893 147.423 267.893C146.973 267.893 146.579 267.822 146.242 267.681C145.906 267.54 145.626 267.336 145.404 267.07C145.181 266.804 145.013 266.484 144.899 266.109C144.785 265.734 144.727 265.311 144.727 264.838V259.658H145.509V264.838C145.509 265.599 145.683 266.196 146.031 266.63C146.378 267.059 146.908 267.274 147.619 267.274C148.146 267.274 148.637 267.141 149.093 266.875C149.555 266.603 149.965 266.229 150.323 265.751V259.658H151.105ZM154.351 261.613C154.476 261.282 154.618 260.989 154.775 260.733C154.938 260.473 155.123 260.253 155.329 260.074C155.541 259.895 155.774 259.759 156.029 259.667C156.29 259.569 156.578 259.52 156.893 259.52C157.061 259.52 157.227 259.536 157.389 259.569C157.552 259.596 157.696 259.648 157.821 259.724L157.756 260.261C157.729 260.348 157.677 260.391 157.601 260.391C157.536 260.391 157.436 260.372 157.3 260.334C157.17 260.296 156.996 260.277 156.779 260.277C156.464 260.277 156.184 260.326 155.94 260.424C155.701 260.516 155.484 260.657 155.288 260.848C155.098 261.038 154.93 261.274 154.783 261.556C154.642 261.833 154.512 262.153 154.392 262.517V267.762H153.61V259.658H154.026C154.118 259.658 154.183 259.677 154.221 259.715C154.259 259.753 154.284 259.819 154.294 259.911L154.351 261.613ZM164.43 262.892C164.43 262.457 164.367 262.069 164.242 261.727C164.123 261.38 163.952 261.086 163.729 260.848C163.507 260.609 163.241 260.427 162.931 260.302C162.627 260.172 162.29 260.106 161.921 260.106C161.503 260.106 161.128 260.172 160.797 260.302C160.466 260.432 160.178 260.619 159.934 260.864C159.695 261.108 159.502 261.401 159.356 261.743C159.209 262.086 159.111 262.468 159.062 262.892H164.43ZM159.022 263.389V263.543C159.022 264.152 159.092 264.686 159.233 265.148C159.375 265.61 159.575 265.998 159.836 266.313C160.097 266.622 160.412 266.856 160.781 267.013C161.15 267.171 161.563 267.249 162.019 267.249C162.426 267.249 162.779 267.206 163.078 267.119C163.376 267.027 163.626 266.926 163.827 266.818C164.033 266.704 164.196 266.603 164.316 266.516C164.435 266.424 164.522 266.378 164.576 266.378C164.647 266.378 164.701 266.405 164.739 266.459L164.951 266.72C164.821 266.883 164.647 267.035 164.43 267.176C164.218 267.317 163.979 267.439 163.713 267.543C163.452 267.64 163.17 267.719 162.866 267.779C162.567 267.838 162.266 267.868 161.962 267.868C161.408 267.868 160.903 267.773 160.447 267.583C159.991 267.388 159.6 267.105 159.274 266.736C158.948 266.367 158.696 265.916 158.517 265.384C158.343 264.847 158.256 264.233 158.256 263.543C158.256 262.962 158.337 262.428 158.5 261.939C158.669 261.445 158.908 261.021 159.217 260.668C159.532 260.31 159.915 260.03 160.365 259.829C160.822 259.629 161.337 259.528 161.913 259.528C162.369 259.528 162.793 259.607 163.184 259.764C163.575 259.922 163.914 260.152 164.202 260.457C164.489 260.755 164.715 261.124 164.878 261.564C165.046 262.004 165.13 262.509 165.13 263.079C165.13 263.199 165.114 263.28 165.081 263.324C165.049 263.367 164.994 263.389 164.918 263.389H159.022ZM180.597 256.238V267.762H179.758V262.24H172.541V267.762H171.703V256.238H172.541V261.613H179.758V256.238H180.597ZM184.206 259.658V267.762H183.432V259.658H184.206ZM184.54 256.865C184.54 256.962 184.518 257.055 184.475 257.142C184.437 257.223 184.385 257.296 184.32 257.362C184.255 257.427 184.179 257.478 184.092 257.516C184.005 257.554 183.913 257.573 183.815 257.573C183.717 257.573 183.625 257.554 183.538 257.516C183.451 257.478 183.375 257.427 183.31 257.362C183.245 257.296 183.193 257.223 183.155 257.142C183.117 257.055 183.098 256.962 183.098 256.865C183.098 256.767 183.117 256.675 183.155 256.588C183.193 256.495 183.245 256.417 183.31 256.352C183.375 256.286 183.451 256.235 183.538 256.197C183.625 256.159 183.717 256.14 183.815 256.14C183.913 256.14 184.005 256.159 184.092 256.197C184.179 256.235 184.255 256.286 184.32 256.352C184.385 256.417 184.437 256.495 184.475 256.588C184.518 256.675 184.54 256.767 184.54 256.865ZM191.262 260.66C191.218 260.736 191.156 260.774 191.075 260.774C191.015 260.774 190.939 260.742 190.847 260.676C190.754 260.606 190.629 260.53 190.472 260.448C190.32 260.362 190.13 260.286 189.902 260.22C189.674 260.15 189.397 260.114 189.071 260.114C188.778 260.114 188.509 260.158 188.265 260.245C188.026 260.326 187.819 260.438 187.646 260.579C187.477 260.72 187.347 260.886 187.255 261.076C187.162 261.26 187.116 261.456 187.116 261.662C187.116 261.917 187.181 262.129 187.312 262.297C187.442 262.466 187.61 262.61 187.817 262.729C188.028 262.848 188.27 262.952 188.542 263.038C188.813 263.125 189.087 263.212 189.364 263.299C189.647 263.386 189.923 263.484 190.195 263.592C190.466 263.695 190.705 263.826 190.912 263.983C191.123 264.141 191.294 264.333 191.425 264.562C191.555 264.79 191.62 265.067 191.62 265.392C191.62 265.745 191.558 266.074 191.433 266.378C191.308 266.682 191.123 266.945 190.879 267.168C190.64 267.391 190.344 267.567 189.991 267.697C189.638 267.828 189.234 267.893 188.778 267.893C188.208 267.893 187.716 267.803 187.304 267.624C186.891 267.439 186.522 267.2 186.196 266.907L186.375 266.63C186.402 266.587 186.432 266.554 186.465 266.533C186.503 266.511 186.551 266.5 186.611 266.5C186.682 266.5 186.766 266.543 186.864 266.63C186.967 266.717 187.103 266.812 187.271 266.915C187.439 267.013 187.646 267.105 187.89 267.192C188.14 267.279 188.447 267.323 188.81 267.323C189.152 267.323 189.454 267.276 189.714 267.184C189.975 267.086 190.192 266.956 190.366 266.793C190.54 266.63 190.67 266.44 190.757 266.223C190.849 266 190.895 265.767 190.895 265.523C190.895 265.251 190.83 265.026 190.7 264.847C190.57 264.667 190.399 264.515 190.187 264.391C189.975 264.266 189.733 264.16 189.462 264.073C189.196 263.986 188.922 263.899 188.639 263.812C188.357 263.725 188.08 263.63 187.808 263.527C187.542 263.424 187.304 263.294 187.092 263.136C186.88 262.979 186.709 262.789 186.579 262.566C186.448 262.338 186.383 262.056 186.383 261.719C186.383 261.431 186.446 261.154 186.57 260.888C186.695 260.622 186.872 260.389 187.1 260.188C187.333 259.987 187.616 259.827 187.947 259.707C188.278 259.588 188.65 259.528 189.063 259.528C189.557 259.528 189.994 259.599 190.374 259.74C190.76 259.881 191.11 260.098 191.425 260.391L191.262 260.66ZM195.779 267.893C195.231 267.893 194.802 267.741 194.492 267.437C194.188 267.133 194.036 266.663 194.036 266.028V260.489H192.871C192.812 260.489 192.763 260.473 192.725 260.44C192.687 260.408 192.668 260.362 192.668 260.302V260L194.052 259.903L194.248 257.003C194.259 256.954 194.28 256.911 194.313 256.873C194.346 256.835 194.392 256.816 194.451 256.816H194.818V259.911H197.375V260.489H194.818V265.987C194.818 266.21 194.845 266.402 194.899 266.565C194.959 266.723 195.038 266.853 195.136 266.956C195.239 267.059 195.358 267.135 195.494 267.184C195.63 267.233 195.776 267.257 195.934 267.257C196.129 267.257 196.298 267.23 196.439 267.176C196.58 267.116 196.702 267.054 196.805 266.989C196.908 266.918 196.993 266.856 197.058 266.801C197.123 266.742 197.175 266.712 197.213 266.712C197.256 266.712 197.299 266.739 197.343 266.793L197.555 267.135C197.348 267.363 197.085 267.548 196.765 267.689C196.45 267.825 196.121 267.893 195.779 267.893ZM202.162 259.528C202.743 259.528 203.261 259.629 203.717 259.829C204.179 260.025 204.567 260.305 204.882 260.668C205.197 261.032 205.436 261.472 205.599 261.988C205.767 262.498 205.851 263.071 205.851 263.706C205.851 264.342 205.767 264.914 205.599 265.425C205.436 265.935 205.197 266.372 204.882 266.736C204.567 267.1 204.179 267.38 203.717 267.575C203.261 267.771 202.743 267.868 202.162 267.868C201.581 267.868 201.059 267.771 200.598 267.575C200.142 267.38 199.754 267.1 199.433 266.736C199.118 266.372 198.877 265.935 198.708 265.425C198.545 264.914 198.464 264.342 198.464 263.706C198.464 263.071 198.545 262.498 198.708 261.988C198.877 261.472 199.118 261.032 199.433 260.668C199.754 260.305 200.142 260.025 200.598 259.829C201.059 259.629 201.581 259.528 202.162 259.528ZM202.162 267.257C202.645 267.257 203.066 267.176 203.424 267.013C203.788 266.845 204.089 266.606 204.328 266.296C204.573 265.987 204.754 265.615 204.874 265.181C204.993 264.741 205.053 264.249 205.053 263.706C205.053 263.169 204.993 262.68 204.874 262.24C204.754 261.8 204.573 261.426 204.328 261.116C204.089 260.801 203.788 260.56 203.424 260.391C203.066 260.223 202.645 260.139 202.162 260.139C201.678 260.139 201.255 260.223 200.891 260.391C200.533 260.56 200.231 260.801 199.987 261.116C199.748 261.426 199.566 261.8 199.441 262.24C199.322 262.68 199.262 263.169 199.262 263.706C199.262 264.249 199.322 264.741 199.441 265.181C199.566 265.615 199.748 265.987 199.987 266.296C200.231 266.606 200.533 266.845 200.891 267.013C201.255 267.176 201.678 267.257 202.162 267.257ZM208.614 261.613C208.739 261.282 208.88 260.989 209.038 260.733C209.201 260.473 209.385 260.253 209.592 260.074C209.803 259.895 210.037 259.759 210.292 259.667C210.553 259.569 210.84 259.52 211.155 259.52C211.324 259.52 211.489 259.536 211.652 259.569C211.815 259.596 211.959 259.648 212.084 259.724L212.019 260.261C211.992 260.348 211.94 260.391 211.864 260.391C211.799 260.391 211.698 260.372 211.563 260.334C211.432 260.296 211.259 260.277 211.041 260.277C210.726 260.277 210.447 260.326 210.202 260.424C209.964 260.516 209.746 260.657 209.551 260.848C209.361 261.038 209.193 261.274 209.046 261.556C208.905 261.833 208.774 262.153 208.655 262.517V267.762H207.873V259.658H208.288C208.381 259.658 208.446 259.677 208.484 259.715C208.522 259.753 208.546 259.819 208.557 259.911L208.614 261.613ZM220.017 259.658L215.358 270.369C215.326 270.445 215.282 270.507 215.228 270.556C215.179 270.605 215.106 270.629 215.008 270.629H214.454L215.88 267.461L212.451 259.658H213.094C213.176 259.658 213.241 259.68 213.29 259.724C213.338 259.762 213.371 259.805 213.387 259.854L216.116 266.158C216.148 266.239 216.176 266.324 216.197 266.41C216.224 266.492 216.249 266.576 216.271 266.663C216.298 266.576 216.325 266.492 216.352 266.41C216.385 266.324 216.417 266.239 216.45 266.158L219.146 259.854C219.173 259.794 219.211 259.748 219.26 259.715C219.309 259.677 219.363 259.658 219.423 259.658H220.017Z" fill="#D1D1D1"/>
<path d="M32.9921 47.6051C33.4612 47.6051 33.8457 47.5497 34.1454 47.4389C34.4516 47.3216 34.696 47.1685 34.8784 46.9795C35.0609 46.7906 35.1879 46.5756 35.2596 46.3345C35.3313 46.0869 35.3671 45.8328 35.3671 45.5721C35.3671 45.2854 35.3248 45.028 35.2401 44.8C35.1554 44.5719 35.0185 44.3797 34.8296 44.2233C34.6406 44.0604 34.393 43.9366 34.0868 43.8519C33.787 43.7672 33.4156 43.7249 32.9725 43.7249H30.4802V47.6051H32.9921ZM30.4802 37.8997V41.731H32.4057C32.8162 41.731 33.1811 41.6985 33.5003 41.6333C33.8196 41.5616 34.0868 41.4509 34.3018 41.301C34.5168 41.1511 34.6797 40.9557 34.7905 40.7146C34.9077 40.467 34.9664 40.1705 34.9664 39.8252C34.9664 39.4733 34.9175 39.1736 34.8198 38.926C34.7286 38.6784 34.5852 38.4796 34.3897 38.3298C34.1943 38.1799 33.9467 38.0724 33.6469 38.0072C33.3472 37.9356 32.9921 37.8997 32.5816 37.8997H30.4802ZM32.5816 35.6713C33.5329 35.6713 34.3441 35.7625 35.0153 35.945C35.6929 36.1209 36.2435 36.375 36.667 36.7073C37.0971 37.0331 37.4098 37.4306 37.6053 37.8997C37.8008 38.3689 37.8985 38.8934 37.8985 39.4733C37.8985 39.7991 37.8497 40.1118 37.7519 40.4116C37.6607 40.7113 37.5141 40.9947 37.3121 41.2619C37.1166 41.5225 36.8625 41.7604 36.5497 41.9754C36.237 42.1904 35.8656 42.3728 35.4355 42.5227C36.3999 42.7508 37.1134 43.1222 37.576 43.6369C38.0386 44.1517 38.2699 44.8195 38.2699 45.6405C38.2699 46.24 38.1526 46.7971 37.9181 47.3119C37.69 47.8266 37.3544 48.2729 36.9114 48.6509C36.4683 49.0288 35.921 49.3252 35.2694 49.5403C34.6243 49.7488 33.8815 49.853 33.041 49.853H27.5481V35.6713H32.5816ZM48.9217 47.5073C49.3974 47.5073 49.8242 47.4291 50.2021 47.2728C50.58 47.1099 50.8993 46.8818 51.1599 46.5886C51.4206 46.2954 51.6193 45.9403 51.7561 45.5233C51.893 45.1062 51.9614 44.6371 51.9614 44.1158V35.6713H54.8935V44.1158C54.8935 44.9759 54.7534 45.7676 54.4732 46.4909C54.1996 47.2076 53.8054 47.8266 53.2906 48.3479C52.7759 48.8691 52.1503 49.2764 51.414 49.5696C50.6778 49.8628 49.847 50.0094 48.9217 50.0094C47.9965 50.0094 47.1625 49.8628 46.4197 49.5696C45.6834 49.2764 45.0578 48.8691 44.5431 48.3479C44.0283 47.8266 43.6309 47.2076 43.3507 46.4909C43.077 45.7676 42.9402 44.9759 42.9402 44.1158V35.6713H45.8723V44.1158C45.8723 44.6371 45.9407 45.1062 46.0776 45.5233C46.2144 45.9403 46.4131 46.2954 46.6738 46.5886C46.9344 46.8818 47.2537 47.1099 47.6316 47.2728C48.0095 47.4291 48.4396 47.5073 48.9217 47.5073ZM73.0033 42.7573C73.0033 43.7933 72.8274 44.7479 72.4755 45.621C72.1302 46.4876 71.6382 47.2337 70.9997 47.8592C70.3676 48.4847 69.6053 48.9734 68.7126 49.3252C67.82 49.6771 66.8295 49.853 65.7414 49.853H60.2876V35.6713H65.7414C66.8295 35.6713 67.82 35.8472 68.7126 36.1991C69.6053 36.5509 70.3676 37.0429 70.9997 37.6749C71.6382 38.3004 72.1302 39.0465 72.4755 39.9131C72.8274 40.7797 73.0033 41.7278 73.0033 42.7573ZM69.993 42.7573C69.993 42.0145 69.8953 41.3466 69.6998 40.7537C69.5043 40.1607 69.2241 39.659 68.8592 39.2485C68.4943 38.838 68.048 38.522 67.5202 38.3004C66.999 38.0789 66.406 37.9681 65.7414 37.9681H63.2393V47.5562H65.7414C66.406 47.5562 66.999 47.4487 67.5202 47.2337C68.048 47.0121 68.4943 46.6961 68.8592 46.2856C69.2241 45.8686 69.5043 45.3636 69.6998 44.7707C69.8953 44.1777 69.993 43.5066 69.993 42.7573ZM84.6649 42.6302H89.5322V48.4847C88.8089 49.0125 88.0368 49.4002 87.2158 49.6478C86.4013 49.8889 85.538 50.0094 84.6258 50.0094C83.4594 50.0094 82.4039 49.8302 81.4591 49.4719C80.5143 49.107 79.7063 48.602 79.0352 47.9569C78.3641 47.3119 77.846 46.5462 77.4812 45.6601C77.1163 44.7739 76.9338 43.8063 76.9338 42.7573C76.9338 41.6952 77.1065 40.7211 77.4518 39.8349C77.8037 38.9488 78.3022 38.1864 78.9472 37.5479C79.5923 36.9093 80.3709 36.4109 81.2832 36.0525C82.2019 35.6941 83.2281 35.5149 84.3619 35.5149C84.9483 35.5149 85.4956 35.5638 86.0039 35.6615C86.5121 35.7528 86.9813 35.8831 87.4113 36.0525C87.8413 36.2154 88.2356 36.4109 88.5939 36.6389C88.9523 36.867 89.2781 37.1178 89.5713 37.3915L88.721 38.7012C88.5907 38.9097 88.4213 39.0367 88.2127 39.0823C88.0042 39.128 87.7762 39.0758 87.5286 38.926C87.294 38.7826 87.0627 38.6556 86.8346 38.5448C86.6131 38.4275 86.3753 38.3265 86.1212 38.2418C85.867 38.1571 85.5901 38.0919 85.2904 38.0463C84.9907 38.0007 84.6453 37.9779 84.2544 37.9779C83.5963 37.9779 83.0001 38.0919 82.4658 38.32C81.9315 38.548 81.4754 38.8706 81.0974 39.2876C80.726 39.7046 80.4394 40.2063 80.2374 40.7928C80.0354 41.3792 79.9344 42.034 79.9344 42.7573C79.9344 43.5392 80.0451 44.2396 80.2667 44.8586C80.4882 45.4711 80.801 45.9891 81.205 46.4127C81.6089 46.8362 82.0911 47.1587 82.6515 47.3803C83.2184 47.6018 83.8471 47.7126 84.5378 47.7126C85.007 47.7126 85.424 47.667 85.7889 47.5757C86.1603 47.478 86.5219 47.3477 86.8737 47.1848V44.8H85.2708C85.0819 44.8 84.932 44.7511 84.8213 44.6534C84.717 44.5491 84.6649 44.4188 84.6649 44.2624V42.6302ZM97.4869 37.9681V41.6138H102.217V43.8324H97.4869V47.5562H103.566V49.853H94.5352V35.6713H103.566V37.9681H97.4869ZM118.404 38.0366H114.26V49.853H111.318V38.0366H107.174V35.6713H118.404V38.0366ZM125.721 49.853H122.77V35.6713H125.721V49.853ZM143.443 35.6713V49.853H141.928C141.7 49.853 141.507 49.8172 141.351 49.7455C141.195 49.6673 141.041 49.537 140.892 49.3546L133.825 40.3627C133.845 40.5908 133.858 40.8156 133.864 41.0371C133.877 41.2586 133.884 41.4639 133.884 41.6528V49.853H131.294V35.6713H132.838C132.962 35.6713 133.066 35.6778 133.151 35.6909C133.242 35.6974 133.323 35.7202 133.395 35.7593C133.467 35.7919 133.535 35.8375 133.6 35.8961C133.665 35.9547 133.737 36.0329 133.815 36.1307L140.931 45.1616C140.905 44.914 140.885 44.6762 140.872 44.4481C140.859 44.2136 140.852 43.992 140.852 43.7835V35.6713H143.443ZM155.919 42.6302H160.786V48.4847C160.063 49.0125 159.291 49.4002 158.47 49.6478C157.656 49.8889 156.792 50.0094 155.88 50.0094C154.714 50.0094 153.658 49.8302 152.713 49.4719C151.769 49.107 150.961 48.602 150.289 47.9569C149.618 47.3119 149.1 46.5462 148.735 45.6601C148.371 44.7739 148.188 43.8063 148.188 42.7573C148.188 41.6952 148.361 40.7211 148.706 39.8349C149.058 38.9488 149.556 38.1864 150.201 37.5479C150.847 36.9093 151.625 36.4109 152.537 36.0525C153.456 35.6941 154.482 35.5149 155.616 35.5149C156.203 35.5149 156.75 35.5638 157.258 35.6615C157.766 35.7528 158.235 35.8831 158.666 36.0525C159.096 36.2154 159.49 36.4109 159.848 36.6389C160.207 36.867 160.532 37.1178 160.826 37.3915L159.975 38.7012C159.845 38.9097 159.675 39.0367 159.467 39.0823C159.258 39.128 159.03 39.0758 158.783 38.926C158.548 38.7826 158.317 38.6556 158.089 38.5448C157.867 38.4275 157.63 38.3265 157.375 38.2418C157.121 38.1571 156.844 38.0919 156.545 38.0463C156.245 38.0007 155.9 37.9779 155.509 37.9779C154.851 37.9779 154.254 38.0919 153.72 38.32C153.186 38.548 152.73 38.8706 152.352 39.2876C151.98 39.7046 151.694 40.2063 151.492 40.7928C151.29 41.3792 151.189 42.034 151.189 42.7573C151.189 43.5392 151.299 44.2396 151.521 44.8586C151.742 45.4711 152.055 45.9891 152.459 46.4127C152.863 46.8362 153.345 47.1587 153.906 47.3803C154.473 47.6018 155.101 47.7126 155.792 47.7126C156.261 47.7126 156.678 47.667 157.043 47.5757C157.415 47.478 157.776 47.3477 158.128 47.1848V44.8H156.525C156.336 44.8 156.186 44.7511 156.075 44.6534C155.971 44.5491 155.919 44.4188 155.919 44.2624V42.6302Z" fill="#BB86FC"/>
<path d="M277.13 38.6469L281.421 42.9379L273.861 50.4977H269.57V46.2067L277.13 38.6469ZM287.19 35.7323L284.336 32.8785C284.242 32.7836 284.13 32.7083 284.006 32.6569C283.883 32.6056 283.751 32.5791 283.617 32.5791C283.483 32.5791 283.351 32.6056 283.228 32.6569C283.105 32.7083 282.993 32.7836 282.899 32.8785L279.984 35.7931L284.275 40.084L287.19 37.1694C287.284 37.0753 287.36 36.9634 287.411 36.8401C287.462 36.7167 287.489 36.5845 287.489 36.4509C287.489 36.3173 287.462 36.185 287.411 36.0617C287.36 35.9383 287.284 35.8264 287.19 35.7323V35.7323Z" fill="#D1D1D1" stroke="#D1D1D1" stroke-width="1.01202" stroke-linecap="round" stroke-linejoin="round"/>
</g>
<defs>
<filter id="filter0_d_1996_69270" x="48.9685" y="68.4163" width="232.938" height="102.624" filterUnits="userSpaceOnUse" color-interpolation-filters="sRGB">
<feFlood flood-opacity="0" result="BackgroundImageFix"/>
<feColorMatrix in="SourceAlpha" type="matrix" values="0 0 0 0 0 0 0 0 0 0 0 0 0 0 0 0 0 0 127 0" result="hardAlpha"/>
<feOffset dy="6.51584"/>
<feGaussianBlur stdDeviation="3.25792"/>
<feComposite in2="hardAlpha" operator="out"/>
<feColorMatrix type="matrix" values="0 0 0 0 0 0 0 0 0 0 0 0 0 0 0 0 0 0 0.25 0"/>
<feBlend mode="normal" in2="BackgroundImageFix" result="effect1_dropShadow_1996_69270"/>
<feBlend mode="normal" in="SourceGraphic" in2="effect1_dropShadow_1996_69270" result="shape"/>
</filter>
<clipPath id="clip0_1996_69270">
<rect width="325.792" height="325.792" rx="16.2896" fill="white"/>
</clipPath>
</defs>
</svg>
