<svg width="702" height="326" viewBox="0 0 702 326" fill="none" xmlns="http://www.w3.org/2000/svg">
<rect x="3.21688" y="2.44344" width="695.566" height="320.905" rx="13.8462" fill="#323233"/>
<path d="M641.997 37.018L646.288 41.309L638.728 48.8687H634.438V44.5778L641.997 37.018ZM652.057 34.1034L649.203 31.2495C649.109 31.1547 648.997 31.0794 648.873 31.028C648.75 30.9766 648.618 30.9502 648.484 30.9502C648.351 30.9502 648.218 30.9766 648.095 31.028C647.972 31.0794 647.86 31.1547 647.766 31.2495L644.851 34.1642L649.142 38.4551L652.057 35.5405C652.152 35.4464 652.227 35.3345 652.278 35.2112C652.33 35.0878 652.356 34.9556 652.356 34.822C652.356 34.6884 652.33 34.5561 652.278 34.4328C652.227 34.3094 652.152 34.1975 652.057 34.1034V34.1034Z" fill="#D1D1D1" stroke="#D1D1D1" stroke-width="1.01202" stroke-linecap="round" stroke-linejoin="round"/>
<path d="M34.531 42.3234V46.2426H39.6329V48.5492H34.531V54.2083H31.5794V40.0265H40.6103V42.3234H34.531ZM48.2092 42.3234V45.969H52.9397V48.1876H48.2092V51.9114H54.2885V54.2083H45.2575V40.0265H54.2885V42.3234H48.2092ZM62.0401 42.3234V45.969H66.7706V48.1876H62.0401V51.9114H68.1194V54.2083H59.0884V40.0265H68.1194V42.3234H62.0401ZM85.635 47.1125C85.635 48.1485 85.459 49.1031 85.1072 49.9762C84.7618 50.8428 84.2699 51.5889 83.6313 52.2144C82.9993 52.8399 82.2369 53.3286 81.3443 53.6805C80.4516 54.0323 79.4612 54.2083 78.3731 54.2083H72.9193V40.0265H78.3731C79.4612 40.0265 80.4516 40.2025 81.3443 40.5543C82.2369 40.9062 82.9993 41.3981 83.6313 42.0302C84.2699 42.6557 84.7618 43.4017 85.1072 44.2683C85.459 45.1349 85.635 46.083 85.635 47.1125ZM82.6246 47.1125C82.6246 46.3697 82.5269 45.7018 82.3314 45.1089C82.1359 44.5159 81.8558 44.0142 81.4909 43.6037C81.126 43.1932 80.6797 42.8772 80.1519 42.6557C79.6306 42.4341 79.0377 42.3234 78.3731 42.3234H75.871V51.9114H78.3731C79.0377 51.9114 79.6306 51.8039 80.1519 51.5889C80.6797 51.3673 81.126 51.0513 81.4909 50.6408C81.8558 50.2238 82.1359 49.7188 82.3314 49.1259C82.5269 48.533 82.6246 47.8618 82.6246 47.1125ZM95.8402 51.9603C96.3094 51.9603 96.6938 51.9049 96.9935 51.7941C97.2998 51.6768 97.5441 51.5237 97.7266 51.3348C97.909 51.1458 98.0361 50.9308 98.1077 50.6897C98.1794 50.4421 98.2153 50.188 98.2153 49.9273C98.2153 49.6406 98.1729 49.3833 98.0882 49.1552C98.0035 48.9272 97.8667 48.7349 97.6777 48.5786C97.4887 48.4157 97.2411 48.2919 96.9349 48.2072C96.6352 48.1225 96.2638 48.0801 95.8207 48.0801H93.3284V51.9603H95.8402ZM93.3284 42.2549V46.0863H95.2538C95.6643 46.0863 96.0292 46.0537 96.3485 45.9885C96.6677 45.9168 96.9349 45.8061 97.1499 45.6562C97.3649 45.5064 97.5278 45.3109 97.6386 45.0698C97.7559 44.8222 97.8145 44.5257 97.8145 44.1804C97.8145 43.8285 97.7657 43.5288 97.6679 43.2812C97.5767 43.0336 97.4334 42.8349 97.2379 42.685C97.0424 42.5351 96.7948 42.4276 96.4951 42.3625C96.1953 42.2908 95.8402 42.2549 95.4297 42.2549H93.3284ZM95.4297 40.0265C96.381 40.0265 97.1923 40.1178 97.8634 40.3002C98.541 40.4761 99.0916 40.7302 99.5152 41.0625C99.9452 41.3883 100.258 41.7858 100.453 42.2549C100.649 42.7241 100.747 43.2486 100.747 43.8285C100.747 44.1543 100.698 44.4671 100.6 44.7668C100.509 45.0665 100.362 45.35 100.16 45.6171C99.9648 45.8778 99.7106 46.1156 99.3979 46.3306C99.0851 46.5456 98.7137 46.7281 98.2837 46.8779C99.248 47.106 99.9615 47.4774 100.424 47.9921C100.887 48.5069 101.118 49.1748 101.118 49.9958C101.118 50.5952 101.001 51.1523 100.766 51.6671C100.538 52.1818 100.203 52.6282 99.7595 53.0061C99.3164 53.384 98.7691 53.6805 98.1175 53.8955C97.4724 54.104 96.7296 54.2083 95.8891 54.2083H90.3962V40.0265H95.4297ZM113.222 48.8229L111.687 44.4834C111.596 44.2553 111.498 43.9882 111.394 43.6819C111.296 43.3757 111.202 43.0434 111.111 42.685C111.02 43.0499 110.922 43.3887 110.818 43.7015C110.72 44.0077 110.625 44.2749 110.534 44.5029L109.009 48.8229H113.222ZM118.148 54.2083H115.871C115.616 54.2083 115.408 54.1496 115.245 54.0323C115.089 53.9085 114.971 53.7521 114.893 53.5632L113.935 50.8559H108.286L107.328 53.5632C107.263 53.7261 107.149 53.8759 106.986 54.0128C106.823 54.1431 106.618 54.2083 106.37 54.2083H104.074L109.615 40.0265H112.616L118.148 54.2083ZM131.284 50.719C131.447 50.719 131.584 50.7777 131.695 50.8949L132.858 52.1362C132.284 52.866 131.571 53.4198 130.717 53.7978C129.87 54.1757 128.86 54.3646 127.687 54.3646C126.625 54.3646 125.671 54.1854 124.824 53.8271C123.977 53.4622 123.257 52.9572 122.664 52.3121C122.071 51.6671 121.615 50.9015 121.295 50.0153C120.976 49.1292 120.817 48.1616 120.817 47.1125C120.817 46.4088 120.891 45.7409 121.041 45.1089C121.198 44.4703 121.422 43.8839 121.716 43.3496C122.009 42.8153 122.361 42.3331 122.771 41.9031C123.188 41.473 123.657 41.1082 124.179 40.8084C124.7 40.5022 125.267 40.2709 125.879 40.1145C126.498 39.9516 127.156 39.8702 127.854 39.8702C128.375 39.8702 128.867 39.9158 129.329 40.007C129.799 40.0982 130.235 40.2253 130.639 40.3882C131.043 40.5511 131.415 40.7498 131.753 40.9844C132.099 41.2124 132.408 41.4633 132.682 41.7369L131.695 43.0857C131.636 43.1704 131.561 43.2454 131.47 43.3105C131.379 43.3757 131.255 43.4083 131.098 43.4083C130.942 43.4083 130.782 43.3529 130.62 43.2421C130.463 43.1313 130.268 43.0075 130.033 42.8707C129.805 42.7339 129.515 42.6101 129.163 42.4993C128.818 42.3885 128.378 42.3331 127.844 42.3331C127.251 42.3331 126.707 42.4406 126.212 42.6557C125.716 42.8707 125.29 43.1835 124.931 43.594C124.579 43.9979 124.306 44.4964 124.11 45.0893C123.915 45.6823 123.817 46.3567 123.817 47.1125C123.817 47.8749 123.921 48.5558 124.13 49.1552C124.345 49.7482 124.635 50.2499 125 50.6604C125.371 51.0709 125.801 51.3836 126.29 51.5987C126.785 51.8072 127.313 51.9114 127.873 51.9114C128.205 51.9114 128.505 51.8951 128.772 51.8626C129.046 51.83 129.297 51.7746 129.525 51.6964C129.759 51.6182 129.978 51.5172 130.18 51.3934C130.388 51.2696 130.597 51.1132 130.805 50.9243C130.877 50.8656 130.952 50.8168 131.03 50.7777C131.108 50.7386 131.193 50.719 131.284 50.719ZM140.052 45.881H140.628C141.11 45.881 141.459 45.7311 141.674 45.4314L145.261 40.6325C145.43 40.4045 145.616 40.2481 145.818 40.1634C146.02 40.0721 146.268 40.0265 146.561 40.0265H149.102L144.587 45.8419C144.293 46.2198 143.99 46.4902 143.678 46.6531C143.906 46.7444 144.111 46.8649 144.293 47.0148C144.476 47.1581 144.652 47.3503 144.821 47.5914L149.454 54.2083H146.844C146.675 54.2083 146.528 54.1952 146.404 54.1692C146.287 54.1431 146.183 54.1073 146.092 54.0616C146 54.016 145.922 53.9607 145.857 53.8955C145.792 53.8238 145.73 53.7424 145.671 53.6511L142.026 48.5492C141.902 48.3733 141.755 48.2495 141.586 48.1778C141.417 48.0997 141.179 48.0606 140.873 48.0606H140.052V54.2083H137.119V40.0265H140.052V45.881Z" fill="#BB86FC"/>
<path d="M43.2297 81.1296H37.9388V95.6111H35.7381V81.1296H30.4358V79.271H43.2297V81.1296ZM48.5855 90.4114C47.6505 90.4419 46.8523 90.5179 46.1909 90.6395C45.5372 90.7535 45.0012 90.9056 44.5831 91.0956C44.1726 91.2857 43.8724 91.5099 43.6823 91.7684C43.4999 92.0268 43.4087 92.3157 43.4087 92.635C43.4087 92.939 43.4581 93.2013 43.5569 93.4218C43.6557 93.6422 43.7888 93.8247 43.956 93.9691C44.1308 94.1059 44.3323 94.2086 44.5603 94.277C44.796 94.3378 45.0468 94.3682 45.3129 94.3682C45.6702 94.3682 45.9971 94.334 46.2935 94.2656C46.59 94.1895 46.8675 94.0831 47.1259 93.9463C47.392 93.8095 47.6429 93.646 47.8785 93.456C48.1218 93.2659 48.3574 93.0493 48.5855 92.806V90.4114ZM42.0289 85.6907C42.6675 85.075 43.3554 84.6151 44.0928 84.311C44.8302 84.0069 45.6474 83.8549 46.5444 83.8549C47.1906 83.8549 47.7645 83.9613 48.2662 84.1742C48.7679 84.387 49.1898 84.6835 49.5319 85.0636C49.874 85.4437 50.1325 85.9036 50.3073 86.4433C50.4821 86.983 50.5696 87.576 50.5696 88.2221V95.6111H49.6688C49.4711 95.6111 49.3191 95.5807 49.2126 95.5199C49.1062 95.4514 49.0226 95.3222 48.9618 95.1322L48.7337 94.0375C48.4297 94.3188 48.1332 94.5696 47.8443 94.7901C47.5554 95.0029 47.2514 95.1854 46.9321 95.3374C46.6128 95.4819 46.2707 95.5921 45.9059 95.6681C45.5486 95.7517 45.1495 95.7935 44.7086 95.7935C44.2601 95.7935 43.8382 95.7327 43.4429 95.6111C43.0476 95.4819 42.7017 95.2918 42.4052 95.0409C42.1164 94.7901 41.8845 94.4746 41.7097 94.0945C41.5424 93.7068 41.4588 93.2507 41.4588 92.7262C41.4588 92.2701 41.5842 91.833 41.8351 91.4149C42.0859 90.9892 42.4926 90.6129 43.0552 90.286C43.6177 89.9591 44.3513 89.6931 45.2559 89.4878C46.1605 89.275 47.2704 89.1533 48.5855 89.1229V88.2221C48.5855 87.3251 48.3916 86.6485 48.004 86.1924C47.6163 85.7287 47.0499 85.4969 46.3049 85.4969C45.8032 85.4969 45.3813 85.5615 45.0392 85.6907C44.7048 85.8124 44.4121 85.953 44.1612 86.1126C43.918 86.2647 43.7051 86.4053 43.5227 86.5345C43.3478 86.6562 43.173 86.717 42.9982 86.717C42.8613 86.717 42.7435 86.6828 42.6447 86.6143C42.5459 86.5383 42.4622 86.4471 42.3938 86.3407L42.0289 85.6907ZM60.1446 85.9644C60.0533 86.1316 59.9127 86.2152 59.7227 86.2152C59.6086 86.2152 59.4794 86.1734 59.335 86.0898C59.1905 86.0062 59.0119 85.915 58.799 85.8162C58.5938 85.7097 58.3467 85.6147 58.0579 85.5311C57.769 85.4399 57.4269 85.3943 57.0316 85.3943C56.6895 85.3943 56.3817 85.4399 56.108 85.5311C55.8343 85.6147 55.5987 85.7325 55.401 85.8846C55.211 86.0366 55.0628 86.2152 54.9563 86.4205C54.8575 86.6181 54.8081 86.8348 54.8081 87.0705C54.8081 87.3669 54.8917 87.614 55.059 87.8116C55.2338 88.0093 55.4618 88.1803 55.7431 88.3247C56.0244 88.4692 56.3437 88.5984 56.7009 88.7124C57.0582 88.8189 57.4231 88.9367 57.7956 89.0659C58.1757 89.1876 58.5444 89.3244 58.9017 89.4764C59.259 89.6285 59.5782 89.8185 59.8595 90.0466C60.1408 90.2746 60.365 90.5559 60.5323 90.8904C60.7071 91.2172 60.7945 91.6125 60.7945 92.0762C60.7945 92.6084 60.6995 93.1025 60.5094 93.5586C60.3194 94.0071 60.0381 94.3986 59.6656 94.7331C59.2932 95.06 58.8371 95.3184 58.2973 95.5085C57.7576 95.6985 57.1342 95.7935 56.4273 95.7935C55.6215 95.7935 54.8917 95.6643 54.238 95.4058C53.5842 95.1398 53.0293 94.8015 52.5732 94.391L53.0521 93.6156C53.1129 93.5168 53.1851 93.4408 53.2687 93.3876C53.3523 93.3343 53.4588 93.3077 53.588 93.3077C53.7248 93.3077 53.8693 93.3609 54.0213 93.4674C54.1733 93.5738 54.3558 93.6916 54.5686 93.8209C54.7891 93.9501 55.0552 94.0679 55.3668 94.1743C55.6785 94.2808 56.0662 94.334 56.5299 94.334C56.9252 94.334 57.2711 94.2846 57.5675 94.1857C57.864 94.0793 58.1111 93.9387 58.3087 93.7638C58.5064 93.589 58.6508 93.3876 58.742 93.1595C58.8409 92.9314 58.8903 92.6882 58.8903 92.4297C58.8903 92.1105 58.8028 91.8482 58.628 91.6429C58.4608 91.4301 58.2365 91.2514 57.9552 91.107C57.674 90.955 57.3509 90.8257 56.986 90.7193C56.6287 90.6053 56.26 90.4875 55.8799 90.3658C55.5075 90.2442 55.1388 90.1074 54.7739 89.9553C54.4166 89.7957 54.0973 89.5981 53.8161 89.3624C53.5348 89.1267 53.3067 88.8379 53.1319 88.4958C52.9647 88.1461 52.881 87.7242 52.881 87.2301C52.881 86.7892 52.9723 86.3673 53.1547 85.9644C53.3371 85.5539 53.6032 85.1966 53.9529 84.8925C54.3026 84.5809 54.7321 84.3338 55.2414 84.1514C55.7507 83.9689 56.3323 83.8777 56.986 83.8777C57.7462 83.8777 58.4266 83.9993 59.0271 84.2426C59.6352 84.4782 60.1598 84.8051 60.6007 85.2232L60.1446 85.9644ZM65.0797 78.8149V88.701H65.6042C65.7563 88.701 65.8817 88.682 65.9805 88.644C66.087 88.5984 66.1972 88.511 66.3112 88.3818L69.9601 84.4706C70.0665 84.3414 70.1767 84.2426 70.2908 84.1742C70.4124 84.0981 70.572 84.0601 70.7697 84.0601H72.6055L68.3523 88.587C68.1471 88.8455 67.9266 89.0469 67.6909 89.1914C67.8278 89.2826 67.9494 89.389 68.0558 89.5106C68.1699 89.6247 68.2763 89.7577 68.3751 89.9097L72.8906 95.6111H71.0776C70.9027 95.6111 70.7507 95.5845 70.6214 95.5313C70.4998 95.4705 70.3934 95.364 70.3022 95.212L66.5051 90.4799C66.391 90.3202 66.277 90.2176 66.163 90.172C66.0566 90.1188 65.8893 90.0922 65.6613 90.0922H65.0797V95.6111H63.0386V78.8149H65.0797ZM89.966 94.0603V95.6111H81.2087V94.0603H84.7093V82.9199C84.7093 82.5854 84.7207 82.2471 84.7436 81.905L81.8359 84.4022C81.737 84.4858 81.6382 84.539 81.5394 84.5619C81.4406 84.5771 81.3493 84.5771 81.2657 84.5619C81.1821 84.5466 81.1023 84.5162 81.0263 84.4706C80.9579 84.425 80.9046 84.3756 80.8666 84.3224L80.2281 83.4444L85.097 79.2368H86.7504V94.0603H89.966ZM92.768 94.3568C92.768 94.1591 92.8022 93.9729 92.8706 93.7981C92.9466 93.6232 93.0454 93.4712 93.1671 93.3419C93.2963 93.2127 93.4483 93.1101 93.6232 93.0341C93.798 92.9581 93.9842 92.92 94.1819 92.92C94.3795 92.92 94.5658 92.9581 94.7406 93.0341C94.9155 93.1101 95.0675 93.2127 95.1967 93.3419C95.326 93.4712 95.4286 93.6232 95.5046 93.7981C95.5806 93.9729 95.6186 94.1591 95.6186 94.3568C95.6186 94.562 95.5806 94.7521 95.5046 94.9269C95.4286 95.0942 95.326 95.2424 95.1967 95.3716C95.0675 95.5009 94.9155 95.5997 94.7406 95.6681C94.5658 95.7441 94.3795 95.7821 94.1819 95.7821C93.9842 95.7821 93.798 95.7441 93.6232 95.6681C93.4483 95.5997 93.2963 95.5009 93.1671 95.3716C93.0454 95.2424 92.9466 95.0942 92.8706 94.9269C92.8022 94.7521 92.768 94.562 92.768 94.3568ZM92.768 85.8047C92.768 85.6071 92.8022 85.4209 92.8706 85.246C92.9466 85.0712 93.0454 84.9191 93.1671 84.7899C93.2963 84.6607 93.4483 84.5581 93.6232 84.482C93.798 84.406 93.9842 84.368 94.1819 84.368C94.3795 84.368 94.5658 84.406 94.7406 84.482C94.9155 84.5581 95.0675 84.6607 95.1967 84.7899C95.326 84.9191 95.4286 85.0712 95.5046 85.246C95.5806 85.4209 95.6186 85.6071 95.6186 85.8047C95.6186 86.01 95.5806 86.2 95.5046 86.3749C95.4286 86.5421 95.326 86.6904 95.1967 86.8196C95.0675 86.9488 94.9155 87.0514 94.7406 87.1275C94.5658 87.1959 94.3795 87.2301 94.1819 87.2301C93.9842 87.2301 93.798 87.1959 93.6232 87.1275C93.4483 87.0514 93.2963 86.9488 93.1671 86.8196C93.0454 86.6904 92.9466 86.5421 92.8706 86.3749C92.8022 86.2 92.768 86.01 92.768 85.8047Z" fill="#D1D1D1"/>
<path d="M62.7766 141.822H57.4857V156.303H55.285V141.822H49.9827V139.963H62.7766V141.822ZM68.1324 151.104C67.1973 151.134 66.3992 151.21 65.7378 151.332C65.084 151.446 64.5481 151.598 64.13 151.788C63.7195 151.978 63.4192 152.202 63.2292 152.461C63.0468 152.719 62.9555 153.008 62.9555 153.327C62.9555 153.631 63.0049 153.893 63.1038 154.114C63.2026 154.334 63.3356 154.517 63.5029 154.661C63.6777 154.798 63.8792 154.901 64.1072 154.969C64.3429 155.03 64.5937 155.06 64.8598 155.06C65.2171 155.06 65.544 155.026 65.8404 154.958C66.1369 154.882 66.4144 154.775 66.6728 154.638C66.9389 154.502 67.1897 154.338 67.4254 154.148C67.6687 153.958 67.9043 153.741 68.1324 153.498V151.104ZM61.5758 146.383C62.2144 145.767 62.9023 145.307 63.6397 145.003C64.3771 144.699 65.1943 144.547 66.0913 144.547C66.7374 144.547 67.3114 144.653 67.8131 144.866C68.3148 145.079 68.7367 145.376 69.0788 145.756C69.4209 146.136 69.6793 146.596 69.8542 147.135C70.029 147.675 70.1164 148.268 70.1164 148.914V156.303H69.2156C69.018 156.303 68.8659 156.273 68.7595 156.212C68.6531 156.144 68.5695 156.014 68.5087 155.824L68.2806 154.73C67.9765 155.011 67.6801 155.262 67.3912 155.482C67.1023 155.695 66.7982 155.878 66.479 156.03C66.1597 156.174 65.8176 156.284 65.4527 156.36C65.0954 156.444 64.6963 156.486 64.2554 156.486C63.8069 156.486 63.385 156.425 62.9897 156.303C62.5944 156.174 62.2486 155.984 61.9521 155.733C61.6632 155.482 61.4314 155.167 61.2565 154.787C61.0893 154.399 61.0057 153.943 61.0057 153.418C61.0057 152.962 61.1311 152.525 61.382 152.107C61.6328 151.681 62.0395 151.305 62.6021 150.978C63.1646 150.651 63.8982 150.385 64.8028 150.18C65.7074 149.967 66.8173 149.845 68.1324 149.815V148.914C68.1324 148.017 67.9385 147.341 67.5508 146.885C67.1631 146.421 66.5968 146.189 65.8518 146.189C65.3501 146.189 64.9282 146.254 64.5861 146.383C64.2516 146.504 63.959 146.645 63.7081 146.805C63.4649 146.957 63.252 147.097 63.0696 147.227C62.8947 147.348 62.7199 147.409 62.545 147.409C62.4082 147.409 62.2904 147.375 62.1916 147.306C62.0927 147.23 62.0091 147.139 61.9407 147.033L61.5758 146.383ZM79.6914 146.657C79.6002 146.824 79.4596 146.907 79.2695 146.907C79.1555 146.907 79.0263 146.866 78.8818 146.782C78.7374 146.698 78.5588 146.607 78.3459 146.508C78.1407 146.402 77.8936 146.307 77.6047 146.223C77.3159 146.132 76.9738 146.086 76.5785 146.086C76.2364 146.086 75.9285 146.132 75.6549 146.223C75.3812 146.307 75.1456 146.425 74.9479 146.577C74.7579 146.729 74.6096 146.907 74.5032 147.113C74.4044 147.31 74.355 147.527 74.355 147.763C74.355 148.059 74.4386 148.306 74.6058 148.504C74.7807 148.701 75.0087 148.872 75.29 149.017C75.5713 149.161 75.8905 149.291 76.2478 149.405C76.6051 149.511 76.97 149.629 77.3425 149.758C77.7226 149.88 78.0913 150.017 78.4485 150.169C78.8058 150.321 79.1251 150.511 79.4064 150.739C79.6876 150.967 79.9119 151.248 80.0791 151.582C80.254 151.909 80.3414 152.305 80.3414 152.768C80.3414 153.301 80.2464 153.795 80.0563 154.251C79.8663 154.699 79.585 155.091 79.2125 155.425C78.84 155.752 78.3839 156.011 77.8442 156.201C77.3045 156.391 76.6811 156.486 75.9742 156.486C75.1684 156.486 74.4386 156.356 73.7848 156.098C73.1311 155.832 72.5761 155.494 72.12 155.083L72.5989 154.308C72.6598 154.209 72.732 154.133 72.8156 154.08C72.8992 154.026 73.0056 154 73.1349 154C73.2717 154 73.4161 154.053 73.5682 154.16C73.7202 154.266 73.9027 154.384 74.1155 154.513C74.336 154.642 74.602 154.76 74.9137 154.866C75.2254 154.973 75.6131 155.026 76.0768 155.026C76.4721 155.026 76.818 154.977 77.1144 154.878C77.4109 154.771 77.658 154.631 77.8556 154.456C78.0532 154.281 78.1977 154.08 78.2889 153.852C78.3877 153.624 78.4371 153.38 78.4371 153.122C78.4371 152.803 78.3497 152.54 78.1749 152.335C78.0076 152.122 77.7834 151.944 77.5021 151.799C77.2208 151.647 76.8978 151.518 76.5329 151.411C76.1756 151.297 75.8069 151.18 75.4268 151.058C75.0543 150.936 74.6856 150.8 74.3208 150.647C73.9635 150.488 73.6442 150.29 73.3629 150.055C73.0817 149.819 72.8536 149.53 72.6788 149.188C72.5115 148.838 72.4279 148.416 72.4279 147.922C72.4279 147.481 72.5191 147.059 72.7016 146.657C72.884 146.246 73.1501 145.889 73.4998 145.585C73.8494 145.273 74.2789 145.026 74.7883 144.843C75.2976 144.661 75.8791 144.57 76.5329 144.57C77.2931 144.57 77.9734 144.691 78.574 144.935C79.1821 145.17 79.7066 145.497 80.1475 145.915L79.6914 146.657ZM84.6266 139.507V149.393H85.1511C85.3032 149.393 85.4286 149.374 85.5274 149.336C85.6338 149.291 85.7441 149.203 85.8581 149.074L89.507 145.163C89.6134 145.034 89.7236 144.935 89.8376 144.866C89.9593 144.79 90.1189 144.752 90.3166 144.752H92.1524L87.8992 149.279C87.6939 149.538 87.4735 149.739 87.2378 149.883C87.3747 149.975 87.4963 150.081 87.6027 150.203C87.7167 150.317 87.8232 150.45 87.922 150.602L92.4375 156.303H90.6244C90.4496 156.303 90.2975 156.277 90.1683 156.223C90.0467 156.163 89.9403 156.056 89.849 155.904L86.0519 151.172C85.9379 151.012 85.8239 150.91 85.7099 150.864C85.6034 150.811 85.4362 150.784 85.2081 150.784H84.6266V156.303H82.5855V139.507H84.6266ZM109.513 154.752V156.303H100.756V154.752H104.256V143.612C104.256 143.278 104.268 142.939 104.29 142.597L101.383 145.094C101.284 145.178 101.185 145.231 101.086 145.254C100.987 145.269 100.896 145.269 100.813 145.254C100.729 145.239 100.649 145.208 100.573 145.163C100.505 145.117 100.452 145.068 100.414 145.015L99.775 144.137L104.644 139.929H106.297V154.752H109.513ZM125.614 147.5C125.234 146.991 124.823 146.638 124.382 146.44C123.941 146.235 123.447 146.132 122.9 146.132C121.828 146.132 121.003 146.516 120.425 147.284C119.848 148.051 119.559 149.146 119.559 150.568C119.559 151.32 119.623 151.966 119.753 152.506C119.882 153.038 120.072 153.479 120.323 153.829C120.574 154.171 120.882 154.422 121.246 154.581C121.611 154.741 122.026 154.821 122.489 154.821C123.158 154.821 123.74 154.669 124.234 154.365C124.736 154.061 125.196 153.631 125.614 153.076V147.5ZM127.643 139.507V156.303H126.435C126.146 156.303 125.963 156.163 125.887 155.881L125.705 154.479C125.211 155.072 124.648 155.551 124.017 155.916C123.386 156.28 122.657 156.463 121.828 156.463C121.167 156.463 120.566 156.337 120.026 156.087C119.487 155.828 119.027 155.452 118.647 154.958C118.267 154.464 117.974 153.848 117.769 153.11C117.563 152.373 117.461 151.525 117.461 150.568C117.461 149.716 117.575 148.926 117.803 148.196C118.031 147.459 118.358 146.82 118.783 146.28C119.209 145.741 119.73 145.319 120.346 145.015C120.969 144.703 121.668 144.547 122.444 144.547C123.151 144.547 123.755 144.669 124.257 144.912C124.766 145.148 125.218 145.478 125.614 145.904V139.507H127.643ZM138.336 149.268C138.336 148.796 138.267 148.367 138.131 147.979C138.001 147.584 137.808 147.246 137.549 146.964C137.298 146.676 136.99 146.455 136.625 146.303C136.261 146.143 135.846 146.064 135.383 146.064C134.41 146.064 133.638 146.349 133.068 146.919C132.505 147.481 132.156 148.264 132.019 149.268H138.336ZM139.978 154.684C139.727 154.988 139.427 155.254 139.077 155.482C138.727 155.703 138.351 155.885 137.948 156.03C137.553 156.174 137.142 156.28 136.717 156.349C136.291 156.425 135.869 156.463 135.451 156.463C134.653 156.463 133.915 156.33 133.239 156.064C132.57 155.79 131.988 155.395 131.494 154.878C131.008 154.353 130.628 153.707 130.354 152.939C130.08 152.172 129.943 151.29 129.943 150.294C129.943 149.488 130.065 148.736 130.308 148.036C130.559 147.337 130.916 146.733 131.38 146.223C131.844 145.706 132.41 145.303 133.079 145.015C133.748 144.718 134.501 144.57 135.337 144.57C136.029 144.57 136.667 144.688 137.253 144.923C137.846 145.151 138.355 145.486 138.781 145.927C139.214 146.36 139.552 146.9 139.795 147.546C140.039 148.184 140.16 148.914 140.16 149.735C140.16 150.055 140.126 150.267 140.058 150.374C139.989 150.48 139.86 150.533 139.67 150.533H131.95C131.973 151.263 132.072 151.898 132.247 152.438C132.429 152.977 132.68 153.43 132.999 153.795C133.319 154.152 133.699 154.422 134.14 154.604C134.581 154.779 135.075 154.866 135.622 154.866C136.131 154.866 136.568 154.809 136.933 154.695C137.306 154.574 137.625 154.445 137.891 154.308C138.157 154.171 138.378 154.045 138.553 153.931C138.735 153.81 138.891 153.749 139.02 153.749C139.187 153.749 139.316 153.814 139.408 153.943L139.978 154.684ZM145.866 156.486C144.954 156.486 144.251 156.231 143.757 155.722C143.27 155.212 143.027 154.479 143.027 153.521V146.451H141.636C141.514 146.451 141.412 146.417 141.328 146.349C141.244 146.273 141.202 146.159 141.202 146.007V145.197L143.095 144.958L143.563 141.388C143.586 141.274 143.635 141.183 143.711 141.115C143.795 141.039 143.901 141.001 144.03 141.001H145.057V144.98H148.398V146.451H145.057V153.384C145.057 153.871 145.174 154.232 145.41 154.467C145.646 154.703 145.95 154.821 146.322 154.821C146.535 154.821 146.718 154.794 146.87 154.741C147.029 154.68 147.166 154.616 147.28 154.547C147.394 154.479 147.489 154.418 147.565 154.365C147.649 154.304 147.721 154.274 147.782 154.274C147.888 154.274 147.983 154.338 148.067 154.467L148.66 155.437C148.31 155.763 147.888 156.022 147.394 156.212C146.9 156.394 146.391 156.486 145.866 156.486ZM156.509 151.104C155.574 151.134 154.776 151.21 154.115 151.332C153.461 151.446 152.925 151.598 152.507 151.788C152.096 151.978 151.796 152.202 151.606 152.461C151.424 152.719 151.332 153.008 151.332 153.327C151.332 153.631 151.382 153.893 151.481 154.114C151.579 154.334 151.712 154.517 151.88 154.661C152.054 154.798 152.256 154.901 152.484 154.969C152.72 155.03 152.97 155.06 153.237 155.06C153.594 155.06 153.921 155.026 154.217 154.958C154.514 154.882 154.791 154.775 155.05 154.638C155.316 154.502 155.567 154.338 155.802 154.148C156.045 153.958 156.281 153.741 156.509 153.498V151.104ZM149.953 146.383C150.591 145.767 151.279 145.307 152.016 145.003C152.754 144.699 153.571 144.547 154.468 144.547C155.114 144.547 155.688 144.653 156.19 144.866C156.692 145.079 157.113 145.376 157.456 145.756C157.798 146.136 158.056 146.596 158.231 147.135C158.406 147.675 158.493 148.268 158.493 148.914V156.303H157.592C157.395 156.303 157.243 156.273 157.136 156.212C157.03 156.144 156.946 156.014 156.885 155.824L156.657 154.73C156.353 155.011 156.057 155.262 155.768 155.482C155.479 155.695 155.175 155.878 154.856 156.03C154.536 156.174 154.194 156.284 153.829 156.36C153.472 156.444 153.073 156.486 152.632 156.486C152.184 156.486 151.762 156.425 151.367 156.303C150.971 156.174 150.625 155.984 150.329 155.733C150.04 155.482 149.808 155.167 149.633 154.787C149.466 154.399 149.382 153.943 149.382 153.418C149.382 152.962 149.508 152.525 149.759 152.107C150.01 151.681 150.416 151.305 150.979 150.978C151.541 150.651 152.275 150.385 153.18 150.18C154.084 149.967 155.194 149.845 156.509 149.815V148.914C156.509 148.017 156.315 147.341 155.928 146.885C155.54 146.421 154.974 146.189 154.229 146.189C153.727 146.189 153.305 146.254 152.963 146.383C152.628 146.504 152.336 146.645 152.085 146.805C151.842 146.957 151.629 147.097 151.446 147.227C151.271 147.348 151.097 147.409 150.922 147.409C150.785 147.409 150.667 147.375 150.568 147.306C150.469 147.23 150.386 147.139 150.317 147.033L149.953 146.383ZM163.484 144.752V156.303H161.455V144.752H163.484ZM163.918 141.126C163.918 141.324 163.876 141.51 163.792 141.685C163.716 141.852 163.61 142.004 163.473 142.141C163.344 142.27 163.188 142.373 163.005 142.449C162.831 142.525 162.644 142.563 162.447 142.563C162.249 142.563 162.063 142.525 161.888 142.449C161.721 142.373 161.572 142.27 161.443 142.141C161.314 142.004 161.211 141.852 161.135 141.685C161.059 141.51 161.021 141.324 161.021 141.126C161.021 140.929 161.059 140.742 161.135 140.567C161.211 140.385 161.314 140.229 161.443 140.1C161.572 139.963 161.721 139.857 161.888 139.781C162.063 139.705 162.249 139.667 162.447 139.667C162.644 139.667 162.831 139.705 163.005 139.781C163.188 139.857 163.344 139.963 163.473 140.1C163.61 140.229 163.716 140.385 163.792 140.567C163.876 140.742 163.918 140.929 163.918 141.126ZM168.673 139.507V156.303H166.643V139.507H168.673ZM178.448 146.657C178.357 146.824 178.216 146.907 178.026 146.907C177.912 146.907 177.783 146.866 177.638 146.782C177.494 146.698 177.315 146.607 177.102 146.508C176.897 146.402 176.65 146.307 176.361 146.223C176.072 146.132 175.73 146.086 175.335 146.086C174.993 146.086 174.685 146.132 174.411 146.223C174.138 146.307 173.902 146.425 173.704 146.577C173.514 146.729 173.366 146.907 173.259 147.113C173.161 147.31 173.111 147.527 173.111 147.763C173.111 148.059 173.195 148.306 173.362 148.504C173.537 148.701 173.765 148.872 174.046 149.017C174.328 149.161 174.647 149.291 175.004 149.405C175.361 149.511 175.726 149.629 176.099 149.758C176.479 149.88 176.848 150.017 177.205 150.169C177.562 150.321 177.881 150.511 178.163 150.739C178.444 150.967 178.668 151.248 178.835 151.582C179.01 151.909 179.098 152.305 179.098 152.768C179.098 153.301 179.003 153.795 178.813 154.251C178.623 154.699 178.341 155.091 177.969 155.425C177.596 155.752 177.14 156.011 176.6 156.201C176.061 156.391 175.437 156.486 174.73 156.486C173.925 156.486 173.195 156.356 172.541 156.098C171.887 155.832 171.332 155.494 170.876 155.083L171.355 154.308C171.416 154.209 171.488 154.133 171.572 154.08C171.656 154.026 171.762 154 171.891 154C172.028 154 172.172 154.053 172.324 154.16C172.477 154.266 172.659 154.384 172.872 154.513C173.092 154.642 173.358 154.76 173.67 154.866C173.982 154.973 174.369 155.026 174.833 155.026C175.228 155.026 175.574 154.977 175.871 154.878C176.167 154.771 176.414 154.631 176.612 154.456C176.81 154.281 176.954 154.08 177.045 153.852C177.144 153.624 177.193 153.38 177.193 153.122C177.193 152.803 177.106 152.54 176.931 152.335C176.764 152.122 176.54 151.944 176.258 151.799C175.977 151.647 175.654 151.518 175.289 151.411C174.932 151.297 174.563 151.18 174.183 151.058C173.811 150.936 173.442 150.8 173.077 150.647C172.72 150.488 172.4 150.29 172.119 150.055C171.838 149.819 171.61 149.53 171.435 149.188C171.268 148.838 171.184 148.416 171.184 147.922C171.184 147.481 171.275 147.059 171.458 146.657C171.64 146.246 171.906 145.889 172.256 145.585C172.606 145.273 173.035 145.026 173.545 144.843C174.054 144.661 174.635 144.57 175.289 144.57C176.049 144.57 176.73 144.691 177.33 144.935C177.938 145.17 178.463 145.497 178.904 145.915L178.448 146.657Z" fill="#D1D1D1"/>
<path d="M49.6406 164.303H660.5" stroke="#D1D1D1" stroke-width="3.25792" stroke-linecap="round"/>
<path d="M43.2297 202.514H37.9388V216.996H35.7381V202.514H30.4358V200.656H43.2297V202.514ZM48.5855 211.796C47.6505 211.826 46.8523 211.902 46.1909 212.024C45.5372 212.138 45.0012 212.29 44.5831 212.48C44.1726 212.67 43.8724 212.894 43.6823 213.153C43.4999 213.411 43.4087 213.7 43.4087 214.019C43.4087 214.324 43.4581 214.586 43.5569 214.806C43.6557 215.027 43.7888 215.209 43.956 215.354C44.1308 215.49 44.3323 215.593 44.5603 215.661C44.796 215.722 45.0468 215.753 45.3129 215.753C45.6702 215.753 45.9971 215.719 46.2935 215.65C46.59 215.574 46.8675 215.468 47.1259 215.331C47.392 215.194 47.6429 215.031 47.8785 214.84C48.1218 214.65 48.3574 214.434 48.5855 214.191V211.796ZM42.0289 207.075C42.6675 206.459 43.3554 206 44.0928 205.696C44.8302 205.391 45.6474 205.239 46.5444 205.239C47.1906 205.239 47.7645 205.346 48.2662 205.559C48.7679 205.772 49.1898 206.068 49.5319 206.448C49.874 206.828 50.1325 207.288 50.3073 207.828C50.4821 208.368 50.5696 208.96 50.5696 209.607V216.996H49.6688C49.4711 216.996 49.3191 216.965 49.2126 216.904C49.1062 216.836 49.0226 216.707 48.9618 216.517L48.7337 215.422C48.4297 215.703 48.1332 215.954 47.8443 216.175C47.5554 216.387 47.2514 216.57 46.9321 216.722C46.6128 216.866 46.2707 216.977 45.9059 217.053C45.5486 217.136 45.1495 217.178 44.7086 217.178C44.2601 217.178 43.8382 217.117 43.4429 216.996C43.0476 216.866 42.7017 216.676 42.4052 216.425C42.1164 216.175 41.8845 215.859 41.7097 215.479C41.5424 215.091 41.4588 214.635 41.4588 214.111C41.4588 213.655 41.5842 213.218 41.8351 212.799C42.0859 212.374 42.4926 211.997 43.0552 211.671C43.6177 211.344 44.3513 211.078 45.2559 210.872C46.1605 210.659 47.2704 210.538 48.5855 210.507V209.607C48.5855 208.71 48.3916 208.033 48.004 207.577C47.6163 207.113 47.0499 206.881 46.3049 206.881C45.8032 206.881 45.3813 206.946 45.0392 207.075C44.7048 207.197 44.4121 207.338 44.1612 207.497C43.918 207.649 43.7051 207.79 43.5227 207.919C43.3478 208.041 43.173 208.101 42.9982 208.101C42.8613 208.101 42.7435 208.067 42.6447 207.999C42.5459 207.923 42.4622 207.832 42.3938 207.725L42.0289 207.075ZM60.1446 207.349C60.0533 207.516 59.9127 207.6 59.7227 207.6C59.6086 207.6 59.4794 207.558 59.335 207.474C59.1905 207.391 59.0119 207.299 58.799 207.201C58.5938 207.094 58.3467 206.999 58.0579 206.916C57.769 206.824 57.4269 206.779 57.0316 206.779C56.6895 206.779 56.3817 206.824 56.108 206.916C55.8343 206.999 55.5987 207.117 55.401 207.269C55.211 207.421 55.0628 207.6 54.9563 207.805C54.8575 208.003 54.8081 208.219 54.8081 208.455C54.8081 208.751 54.8917 208.999 55.059 209.196C55.2338 209.394 55.4618 209.565 55.7431 209.709C56.0244 209.854 56.3437 209.983 56.7009 210.097C57.0582 210.203 57.4231 210.321 57.7956 210.45C58.1757 210.572 58.5444 210.709 58.9017 210.861C59.259 211.013 59.5782 211.203 59.8595 211.431C60.1408 211.659 60.365 211.94 60.5323 212.275C60.7071 212.602 60.7945 212.997 60.7945 213.461C60.7945 213.993 60.6995 214.487 60.5094 214.943C60.3194 215.392 60.0381 215.783 59.6656 216.118C59.2932 216.444 58.8371 216.703 58.2973 216.893C57.7576 217.083 57.1342 217.178 56.4273 217.178C55.6215 217.178 54.8917 217.049 54.238 216.79C53.5842 216.524 53.0293 216.186 52.5732 215.776L53.0521 215C53.1129 214.901 53.1851 214.825 53.2687 214.772C53.3523 214.719 53.4588 214.692 53.588 214.692C53.7248 214.692 53.8693 214.745 54.0213 214.852C54.1733 214.958 54.3558 215.076 54.5686 215.205C54.7891 215.335 55.0552 215.452 55.3668 215.559C55.6785 215.665 56.0662 215.719 56.5299 215.719C56.9252 215.719 57.2711 215.669 57.5675 215.57C57.864 215.464 58.1111 215.323 58.3087 215.148C58.5064 214.974 58.6508 214.772 58.742 214.544C58.8409 214.316 58.8903 214.073 58.8903 213.814C58.8903 213.495 58.8028 213.233 58.628 213.027C58.4608 212.815 58.2365 212.636 57.9552 212.492C57.674 212.339 57.3509 212.21 56.986 212.104C56.6287 211.99 56.26 211.872 55.8799 211.75C55.5075 211.629 55.1388 211.492 54.7739 211.34C54.4166 211.18 54.0973 210.983 53.8161 210.747C53.5348 210.511 53.3067 210.222 53.1319 209.88C52.9647 209.531 52.881 209.109 52.881 208.615C52.881 208.174 52.9723 207.752 53.1547 207.349C53.3371 206.938 53.6032 206.581 53.9529 206.277C54.3026 205.965 54.7321 205.718 55.2414 205.536C55.7507 205.353 56.3323 205.262 56.986 205.262C57.7462 205.262 58.4266 205.384 59.0271 205.627C59.6352 205.863 60.1598 206.19 60.6007 206.608L60.1446 207.349ZM65.0797 200.199V210.086H65.6042C65.7563 210.086 65.8817 210.067 65.9805 210.029C66.087 209.983 66.1972 209.896 66.3112 209.766L69.9601 205.855C70.0665 205.726 70.1767 205.627 70.2908 205.559C70.4124 205.483 70.572 205.445 70.7697 205.445H72.6055L68.3523 209.972C68.1471 210.23 67.9266 210.431 67.6909 210.576C67.8278 210.667 67.9494 210.774 68.0558 210.895C68.1699 211.009 68.2763 211.142 68.3751 211.294L72.8906 216.996H71.0776C70.9027 216.996 70.7507 216.969 70.6214 216.916C70.4998 216.855 70.3934 216.749 70.3022 216.597L66.5051 211.864C66.391 211.705 66.277 211.602 66.163 211.557C66.0566 211.503 65.8893 211.477 65.6613 211.477H65.0797V216.996H63.0386V200.199H65.0797ZM89.6125 215.069C89.833 215.069 90.0078 215.133 90.137 215.262C90.2663 215.392 90.3309 215.559 90.3309 215.764V216.996H79.4299V216.3C79.4299 216.156 79.4603 216.007 79.5211 215.855C79.5819 215.703 79.6769 215.563 79.8062 215.433L85.04 210.177C85.4733 209.736 85.8686 209.314 86.2259 208.911C86.5832 208.501 86.8873 208.09 87.1381 207.68C87.389 207.269 87.5828 206.855 87.7197 206.437C87.8565 206.011 87.9249 205.559 87.9249 205.08C87.9249 204.601 87.8489 204.183 87.6969 203.825C87.5448 203.461 87.3358 203.16 87.0697 202.925C86.8112 202.689 86.5034 202.514 86.1461 202.4C85.7888 202.279 85.4049 202.218 84.9944 202.218C84.5763 202.218 84.1924 202.279 83.8427 202.4C83.4931 202.522 83.1814 202.693 82.9077 202.913C82.6417 203.126 82.4174 203.381 82.235 203.677C82.0525 203.974 81.9233 204.301 81.8473 204.658C81.756 204.924 81.6306 205.103 81.471 205.194C81.3189 205.277 81.1023 205.3 80.821 205.262L79.7606 205.08C79.867 204.335 80.0722 203.677 80.3763 203.107C80.688 202.529 81.0757 202.047 81.5394 201.659C82.0107 201.271 82.5466 200.979 83.1472 200.781C83.7477 200.576 84.3977 200.473 85.097 200.473C85.7888 200.473 86.435 200.576 87.0355 200.781C87.636 200.986 88.1568 201.286 88.5977 201.682C89.0386 202.069 89.3845 202.545 89.6353 203.107C89.8862 203.67 90.0116 204.308 90.0116 205.023C90.0116 205.631 89.9204 206.197 89.7379 206.722C89.5555 207.239 89.3084 207.733 88.9968 208.204C88.6851 208.675 88.324 209.135 87.9135 209.584C87.5106 210.032 87.0811 210.485 86.625 210.941L82.3148 215.342C82.6188 215.259 82.9267 215.194 83.2384 215.148C83.5501 215.095 83.8503 215.069 84.1392 215.069H89.6125ZM92.768 215.741C92.768 215.544 92.8022 215.357 92.8706 215.183C92.9466 215.008 93.0454 214.856 93.1671 214.726C93.2963 214.597 93.4483 214.495 93.6232 214.419C93.798 214.343 93.9842 214.305 94.1819 214.305C94.3795 214.305 94.5658 214.343 94.7406 214.419C94.9155 214.495 95.0675 214.597 95.1967 214.726C95.326 214.856 95.4286 215.008 95.5046 215.183C95.5806 215.357 95.6186 215.544 95.6186 215.741C95.6186 215.947 95.5806 216.137 95.5046 216.311C95.4286 216.479 95.326 216.627 95.1967 216.756C95.0675 216.885 94.9155 216.984 94.7406 217.053C94.5658 217.129 94.3795 217.167 94.1819 217.167C93.9842 217.167 93.798 217.129 93.6232 217.053C93.4483 216.984 93.2963 216.885 93.1671 216.756C93.0454 216.627 92.9466 216.479 92.8706 216.311C92.8022 216.137 92.768 215.947 92.768 215.741ZM92.768 207.189C92.768 206.992 92.8022 206.805 92.8706 206.631C92.9466 206.456 93.0454 206.304 93.1671 206.174C93.2963 206.045 93.4483 205.943 93.6232 205.867C93.798 205.791 93.9842 205.753 94.1819 205.753C94.3795 205.753 94.5658 205.791 94.7406 205.867C94.9155 205.943 95.0675 206.045 95.1967 206.174C95.326 206.304 95.4286 206.456 95.5046 206.631C95.5806 206.805 95.6186 206.992 95.6186 207.189C95.6186 207.395 95.5806 207.585 95.5046 207.759C95.4286 207.927 95.326 208.075 95.1967 208.204C95.0675 208.333 94.9155 208.436 94.7406 208.512C94.5658 208.58 94.3795 208.615 94.1819 208.615C93.9842 208.615 93.798 208.58 93.6232 208.512C93.4483 208.436 93.2963 208.333 93.1671 208.204C93.0454 208.075 92.9466 207.927 92.8706 207.759C92.8022 207.585 92.768 207.395 92.768 207.189Z" fill="#D1D1D1"/>
<path d="M62.7766 263.206H57.4857V277.688H55.285V263.206H49.9827V261.348H62.7766V263.206ZM68.1324 272.488C67.1973 272.519 66.3992 272.595 65.7378 272.716C65.084 272.83 64.5481 272.982 64.13 273.172C63.7195 273.362 63.4192 273.587 63.2292 273.845C63.0468 274.103 62.9555 274.392 62.9555 274.712C62.9555 275.016 63.0049 275.278 63.1038 275.498C63.2026 275.719 63.3356 275.901 63.5029 276.046C63.6777 276.183 63.8792 276.285 64.1072 276.354C64.3429 276.414 64.5937 276.445 64.8598 276.445C65.2171 276.445 65.544 276.411 65.8404 276.342C66.1369 276.266 66.4144 276.16 66.6728 276.023C66.9389 275.886 67.1897 275.723 67.4254 275.533C67.6687 275.343 67.9043 275.126 68.1324 274.883V272.488ZM61.5758 267.767C62.2144 267.152 62.9023 266.692 63.6397 266.388C64.3771 266.084 65.1943 265.932 66.0913 265.932C66.7374 265.932 67.3114 266.038 67.8131 266.251C68.3148 266.464 68.7367 266.76 69.0788 267.14C69.4209 267.52 69.6793 267.98 69.8542 268.52C70.029 269.06 70.1164 269.653 70.1164 270.299V277.688H69.2156C69.018 277.688 68.8659 277.657 68.7595 277.597C68.6531 277.528 68.5695 277.399 68.5087 277.209L68.2806 276.114C67.9765 276.395 67.6801 276.646 67.3912 276.867C67.1023 277.08 66.7982 277.262 66.479 277.414C66.1597 277.559 65.8176 277.669 65.4527 277.745C65.0954 277.828 64.6963 277.87 64.2554 277.87C63.8069 277.87 63.385 277.809 62.9897 277.688C62.5944 277.559 62.2486 277.368 61.9521 277.118C61.6632 276.867 61.4314 276.551 61.2565 276.171C61.0893 275.783 61.0057 275.327 61.0057 274.803C61.0057 274.347 61.1311 273.91 61.382 273.492C61.6328 273.066 62.0395 272.69 62.6021 272.363C63.1646 272.036 63.8982 271.77 64.8028 271.564C65.7074 271.352 66.8173 271.23 68.1324 271.2V270.299C68.1324 269.402 67.9385 268.725 67.5508 268.269C67.1631 267.805 66.5968 267.574 65.8518 267.574C65.3501 267.574 64.9282 267.638 64.5861 267.767C64.2516 267.889 63.959 268.03 63.7081 268.189C63.4649 268.341 63.252 268.482 63.0696 268.611C62.8947 268.733 62.7199 268.794 62.545 268.794C62.4082 268.794 62.2904 268.759 62.1916 268.691C62.0927 268.615 62.0091 268.524 61.9407 268.417L61.5758 267.767ZM79.6914 268.041C79.6002 268.208 79.4596 268.292 79.2695 268.292C79.1555 268.292 79.0263 268.25 78.8818 268.166C78.7374 268.083 78.5588 267.992 78.3459 267.893C78.1407 267.786 77.8936 267.691 77.6047 267.608C77.3159 267.517 76.9738 267.471 76.5785 267.471C76.2364 267.471 75.9285 267.517 75.6549 267.608C75.3812 267.691 75.1456 267.809 74.9479 267.961C74.7579 268.113 74.6096 268.292 74.5032 268.497C74.4044 268.695 74.355 268.911 74.355 269.147C74.355 269.444 74.4386 269.691 74.6058 269.888C74.7807 270.086 75.0087 270.257 75.29 270.401C75.5713 270.546 75.8905 270.675 76.2478 270.789C76.6051 270.896 76.97 271.013 77.3425 271.143C77.7226 271.264 78.0913 271.401 78.4485 271.553C78.8058 271.705 79.1251 271.895 79.4064 272.123C79.6876 272.351 79.9119 272.633 80.0791 272.967C80.254 273.294 80.3414 273.689 80.3414 274.153C80.3414 274.685 80.2464 275.179 80.0563 275.635C79.8663 276.084 79.585 276.475 79.2125 276.81C78.84 277.137 78.3839 277.395 77.8442 277.585C77.3045 277.775 76.6811 277.87 75.9742 277.87C75.1684 277.87 74.4386 277.741 73.7848 277.482C73.1311 277.216 72.5761 276.878 72.12 276.468L72.5989 275.692C72.6598 275.593 72.732 275.517 72.8156 275.464C72.8992 275.411 73.0056 275.384 73.1349 275.384C73.2717 275.384 73.4161 275.438 73.5682 275.544C73.7202 275.65 73.9027 275.768 74.1155 275.898C74.336 276.027 74.602 276.145 74.9137 276.251C75.2254 276.357 75.6131 276.411 76.0768 276.411C76.4721 276.411 76.818 276.361 77.1144 276.262C77.4109 276.156 77.658 276.015 77.8556 275.841C78.0532 275.666 78.1977 275.464 78.2889 275.236C78.3877 275.008 78.4371 274.765 78.4371 274.506C78.4371 274.187 78.3497 273.925 78.1749 273.72C78.0076 273.507 77.7834 273.328 77.5021 273.184C77.2208 273.032 76.8978 272.902 76.5329 272.796C76.1756 272.682 75.8069 272.564 75.4268 272.442C75.0543 272.321 74.6856 272.184 74.3208 272.032C73.9635 271.872 73.6442 271.675 73.3629 271.439C73.0817 271.203 72.8536 270.915 72.6788 270.572C72.5115 270.223 72.4279 269.801 72.4279 269.307C72.4279 268.866 72.5191 268.444 72.7016 268.041C72.884 267.631 73.1501 267.273 73.4998 266.969C73.8494 266.658 74.2789 266.41 74.7883 266.228C75.2976 266.046 75.8791 265.954 76.5329 265.954C77.2931 265.954 77.9734 266.076 78.574 266.319C79.1821 266.555 79.7066 266.882 80.1475 267.3L79.6914 268.041ZM84.6266 260.892V270.778H85.1511C85.3032 270.778 85.4286 270.759 85.5274 270.721C85.6338 270.675 85.7441 270.588 85.8581 270.458L89.507 266.547C89.6134 266.418 89.7236 266.319 89.8376 266.251C89.9593 266.175 90.1189 266.137 90.3166 266.137H92.1524L87.8992 270.664C87.6939 270.922 87.4735 271.124 87.2378 271.268C87.3747 271.359 87.4963 271.466 87.6027 271.587C87.7167 271.701 87.8232 271.834 87.922 271.986L92.4375 277.688H90.6244C90.4496 277.688 90.2975 277.661 90.1683 277.608C90.0467 277.547 89.9403 277.441 89.849 277.289L86.0519 272.557C85.9379 272.397 85.8239 272.294 85.7099 272.249C85.6034 272.195 85.4362 272.169 85.2081 272.169H84.6266V277.688H82.5855V260.892H84.6266ZM109.159 275.761C109.38 275.761 109.555 275.825 109.684 275.955C109.813 276.084 109.878 276.251 109.878 276.456V277.688H98.9768V276.992C98.9768 276.848 99.0072 276.7 99.068 276.547C99.1288 276.395 99.2238 276.255 99.3531 276.126L104.587 270.869C105.02 270.428 105.415 270.006 105.773 269.603C106.13 269.193 106.434 268.782 106.685 268.372C106.936 267.961 107.13 267.547 107.267 267.129C107.403 266.703 107.472 266.251 107.472 265.772C107.472 265.293 107.396 264.875 107.244 264.518C107.092 264.153 106.883 263.852 106.617 263.617C106.358 263.381 106.05 263.206 105.693 263.092C105.336 262.971 104.952 262.91 104.541 262.91C104.123 262.91 103.739 262.971 103.39 263.092C103.04 263.214 102.728 263.385 102.455 263.605C102.189 263.818 101.964 264.073 101.782 264.369C101.599 264.666 101.47 264.993 101.394 265.35C101.303 265.616 101.177 265.795 101.018 265.886C100.866 265.97 100.649 265.992 100.368 265.954L99.3074 265.772C99.4139 265.027 99.6191 264.369 99.9232 263.799C100.235 263.221 100.623 262.739 101.086 262.351C101.558 261.963 102.094 261.671 102.694 261.473C103.295 261.268 103.945 261.165 104.644 261.165C105.336 261.165 105.982 261.268 106.582 261.473C107.183 261.678 107.704 261.979 108.145 262.374C108.585 262.762 108.931 263.237 109.182 263.799C109.433 264.362 109.558 265 109.558 265.715C109.558 266.323 109.467 266.889 109.285 267.414C109.102 267.931 108.855 268.425 108.544 268.896C108.232 269.368 107.871 269.827 107.46 270.276C107.057 270.724 106.628 271.177 106.172 271.633L101.862 276.034C102.166 275.951 102.474 275.886 102.785 275.841C103.097 275.787 103.397 275.761 103.686 275.761H109.159ZM125.614 268.885C125.234 268.376 124.823 268.022 124.382 267.824C123.941 267.619 123.447 267.517 122.9 267.517C121.828 267.517 121.003 267.9 120.425 268.668C119.848 269.436 119.559 270.531 119.559 271.952C119.559 272.705 119.623 273.351 119.753 273.891C119.882 274.423 120.072 274.864 120.323 275.213C120.574 275.555 120.882 275.806 121.246 275.966C121.611 276.126 122.026 276.205 122.489 276.205C123.158 276.205 123.74 276.053 124.234 275.749C124.736 275.445 125.196 275.016 125.614 274.461V268.885ZM127.643 260.892V277.688H126.435C126.146 277.688 125.963 277.547 125.887 277.266L125.705 275.863C125.211 276.456 124.648 276.935 124.017 277.3C123.386 277.665 122.657 277.847 121.828 277.847C121.167 277.847 120.566 277.722 120.026 277.471C119.487 277.213 119.027 276.836 118.647 276.342C118.267 275.848 117.974 275.232 117.769 274.495C117.563 273.758 117.461 272.91 117.461 271.952C117.461 271.101 117.575 270.31 117.803 269.58C118.031 268.843 118.358 268.204 118.783 267.665C119.209 267.125 119.73 266.703 120.346 266.399C120.969 266.087 121.668 265.932 122.444 265.932C123.151 265.932 123.755 266.053 124.257 266.296C124.766 266.532 125.218 266.863 125.614 267.288V260.892H127.643ZM138.336 270.652C138.336 270.181 138.267 269.751 138.131 269.364C138.001 268.968 137.808 268.63 137.549 268.349C137.298 268.06 136.99 267.84 136.625 267.688C136.261 267.528 135.846 267.448 135.383 267.448C134.41 267.448 133.638 267.733 133.068 268.303C132.505 268.866 132.156 269.649 132.019 270.652H138.336ZM139.978 276.069C139.727 276.373 139.427 276.639 139.077 276.867C138.727 277.087 138.351 277.27 137.948 277.414C137.553 277.559 137.142 277.665 136.717 277.733C136.291 277.809 135.869 277.847 135.451 277.847C134.653 277.847 133.915 277.714 133.239 277.448C132.57 277.175 131.988 276.779 131.494 276.262C131.008 275.738 130.628 275.092 130.354 274.324C130.08 273.556 129.943 272.674 129.943 271.679C129.943 270.873 130.065 270.12 130.308 269.421C130.559 268.721 130.916 268.117 131.38 267.608C131.844 267.091 132.41 266.688 133.079 266.399C133.748 266.103 134.501 265.954 135.337 265.954C136.029 265.954 136.667 266.072 137.253 266.308C137.846 266.536 138.355 266.87 138.781 267.311C139.214 267.745 139.552 268.284 139.795 268.93C140.039 269.569 140.16 270.299 140.16 271.12C140.16 271.439 140.126 271.652 140.058 271.758C139.989 271.865 139.86 271.918 139.67 271.918H131.95C131.973 272.648 132.072 273.282 132.247 273.822C132.429 274.362 132.68 274.814 132.999 275.179C133.319 275.536 133.699 275.806 134.14 275.989C134.581 276.164 135.075 276.251 135.622 276.251C136.131 276.251 136.568 276.194 136.933 276.08C137.306 275.958 137.625 275.829 137.891 275.692C138.157 275.555 138.378 275.43 138.553 275.316C138.735 275.194 138.891 275.134 139.02 275.134C139.187 275.134 139.316 275.198 139.408 275.327L139.978 276.069ZM145.866 277.87C144.954 277.87 144.251 277.616 143.757 277.106C143.27 276.597 143.027 275.863 143.027 274.905V267.836H141.636C141.514 267.836 141.412 267.802 141.328 267.733C141.244 267.657 141.202 267.543 141.202 267.391V266.581L143.095 266.342L143.563 262.773C143.586 262.659 143.635 262.568 143.711 262.499C143.795 262.423 143.901 262.385 144.03 262.385H145.057V266.365H148.398V267.836H145.057V274.769C145.057 275.255 145.174 275.616 145.41 275.852C145.646 276.088 145.95 276.205 146.322 276.205C146.535 276.205 146.718 276.179 146.87 276.126C147.029 276.065 147.166 276 147.28 275.932C147.394 275.863 147.489 275.802 147.565 275.749C147.649 275.688 147.721 275.658 147.782 275.658C147.888 275.658 147.983 275.723 148.067 275.852L148.66 276.821C148.31 277.148 147.888 277.406 147.394 277.597C146.9 277.779 146.391 277.87 145.866 277.87ZM156.509 272.488C155.574 272.519 154.776 272.595 154.115 272.716C153.461 272.83 152.925 272.982 152.507 273.172C152.096 273.362 151.796 273.587 151.606 273.845C151.424 274.103 151.332 274.392 151.332 274.712C151.332 275.016 151.382 275.278 151.481 275.498C151.579 275.719 151.712 275.901 151.88 276.046C152.054 276.183 152.256 276.285 152.484 276.354C152.72 276.414 152.97 276.445 153.237 276.445C153.594 276.445 153.921 276.411 154.217 276.342C154.514 276.266 154.791 276.16 155.05 276.023C155.316 275.886 155.567 275.723 155.802 275.533C156.045 275.343 156.281 275.126 156.509 274.883V272.488ZM149.953 267.767C150.591 267.152 151.279 266.692 152.016 266.388C152.754 266.084 153.571 265.932 154.468 265.932C155.114 265.932 155.688 266.038 156.19 266.251C156.692 266.464 157.113 266.76 157.456 267.14C157.798 267.52 158.056 267.98 158.231 268.52C158.406 269.06 158.493 269.653 158.493 270.299V277.688H157.592C157.395 277.688 157.243 277.657 157.136 277.597C157.03 277.528 156.946 277.399 156.885 277.209L156.657 276.114C156.353 276.395 156.057 276.646 155.768 276.867C155.479 277.08 155.175 277.262 154.856 277.414C154.536 277.559 154.194 277.669 153.829 277.745C153.472 277.828 153.073 277.87 152.632 277.87C152.184 277.87 151.762 277.809 151.367 277.688C150.971 277.559 150.625 277.368 150.329 277.118C150.04 276.867 149.808 276.551 149.633 276.171C149.466 275.783 149.382 275.327 149.382 274.803C149.382 274.347 149.508 273.91 149.759 273.492C150.01 273.066 150.416 272.69 150.979 272.363C151.541 272.036 152.275 271.77 153.18 271.564C154.084 271.352 155.194 271.23 156.509 271.2V270.299C156.509 269.402 156.315 268.725 155.928 268.269C155.54 267.805 154.974 267.574 154.229 267.574C153.727 267.574 153.305 267.638 152.963 267.767C152.628 267.889 152.336 268.03 152.085 268.189C151.842 268.341 151.629 268.482 151.446 268.611C151.271 268.733 151.097 268.794 150.922 268.794C150.785 268.794 150.667 268.759 150.568 268.691C150.469 268.615 150.386 268.524 150.317 268.417L149.953 267.767ZM163.484 266.137V277.688H161.455V266.137H163.484ZM163.918 262.511C163.918 262.708 163.876 262.895 163.792 263.069C163.716 263.237 163.61 263.389 163.473 263.526C163.344 263.655 163.188 263.757 163.005 263.833C162.831 263.909 162.644 263.947 162.447 263.947C162.249 263.947 162.063 263.909 161.888 263.833C161.721 263.757 161.572 263.655 161.443 263.526C161.314 263.389 161.211 263.237 161.135 263.069C161.059 262.895 161.021 262.708 161.021 262.511C161.021 262.313 161.059 262.127 161.135 261.952C161.211 261.77 161.314 261.614 161.443 261.484C161.572 261.348 161.721 261.241 161.888 261.165C162.063 261.089 162.249 261.051 162.447 261.051C162.644 261.051 162.831 261.089 163.005 261.165C163.188 261.241 163.344 261.348 163.473 261.484C163.61 261.614 163.716 261.77 163.792 261.952C163.876 262.127 163.918 262.313 163.918 262.511ZM168.673 260.892V277.688H166.643V260.892H168.673ZM178.448 268.041C178.357 268.208 178.216 268.292 178.026 268.292C177.912 268.292 177.783 268.25 177.638 268.166C177.494 268.083 177.315 267.992 177.102 267.893C176.897 267.786 176.65 267.691 176.361 267.608C176.072 267.517 175.73 267.471 175.335 267.471C174.993 267.471 174.685 267.517 174.411 267.608C174.138 267.691 173.902 267.809 173.704 267.961C173.514 268.113 173.366 268.292 173.259 268.497C173.161 268.695 173.111 268.911 173.111 269.147C173.111 269.444 173.195 269.691 173.362 269.888C173.537 270.086 173.765 270.257 174.046 270.401C174.328 270.546 174.647 270.675 175.004 270.789C175.361 270.896 175.726 271.013 176.099 271.143C176.479 271.264 176.848 271.401 177.205 271.553C177.562 271.705 177.881 271.895 178.163 272.123C178.444 272.351 178.668 272.633 178.835 272.967C179.01 273.294 179.098 273.689 179.098 274.153C179.098 274.685 179.003 275.179 178.813 275.635C178.623 276.084 178.341 276.475 177.969 276.81C177.596 277.137 177.14 277.395 176.6 277.585C176.061 277.775 175.437 277.87 174.73 277.87C173.925 277.87 173.195 277.741 172.541 277.482C171.887 277.216 171.332 276.878 170.876 276.468L171.355 275.692C171.416 275.593 171.488 275.517 171.572 275.464C171.656 275.411 171.762 275.384 171.891 275.384C172.028 275.384 172.172 275.438 172.324 275.544C172.477 275.65 172.659 275.768 172.872 275.898C173.092 276.027 173.358 276.145 173.67 276.251C173.982 276.357 174.369 276.411 174.833 276.411C175.228 276.411 175.574 276.361 175.871 276.262C176.167 276.156 176.414 276.015 176.612 275.841C176.81 275.666 176.954 275.464 177.045 275.236C177.144 275.008 177.193 274.765 177.193 274.506C177.193 274.187 177.106 273.925 176.931 273.72C176.764 273.507 176.54 273.328 176.258 273.184C175.977 273.032 175.654 272.902 175.289 272.796C174.932 272.682 174.563 272.564 174.183 272.442C173.811 272.321 173.442 272.184 173.077 272.032C172.72 271.872 172.4 271.675 172.119 271.439C171.838 271.203 171.61 270.915 171.435 270.572C171.268 270.223 171.184 269.801 171.184 269.307C171.184 268.866 171.275 268.444 171.458 268.041C171.64 267.631 171.906 267.273 172.256 266.969C172.606 266.658 173.035 266.41 173.545 266.228C174.054 266.046 174.635 265.954 175.289 265.954C176.049 265.954 176.73 266.076 177.33 266.319C177.938 266.555 178.463 266.882 178.904 267.3L178.448 268.041Z" fill="#D1D1D1"/>
<path d="M49.6406 285.688H660.5" stroke="#D1D1D1" stroke-width="3.25792" stroke-linecap="round"/>
<rect x="3.21688" y="2.44344" width="695.566" height="320.905" rx="13.8462" stroke="#292929" stroke-width="4.88688"/>
</svg>
