<svg width="701" height="327" viewBox="0 0 701 327" fill="none" xmlns="http://www.w3.org/2000/svg">
<g clip-path="url(#clip0_1742_50709)">
<rect x="2.44344" y="2.76473" width="695.566" height="320.905" rx="13.8462" fill="#323233" stroke="#292929" stroke-width="4.88688"/>
<path d="M47.202 93.7185C47.202 94.9424 47.0081 96.056 46.6205 97.0595C46.2328 98.0629 45.6854 98.9219 44.9785 99.6365C44.2715 100.351 43.4201 100.906 42.4243 101.301C41.436 101.689 40.3414 101.883 39.1403 101.883H33.0398V85.5427H39.1403C40.3414 85.5427 41.436 85.7404 42.4243 86.1357C43.4201 86.5234 44.2715 87.0783 44.9785 87.8005C45.6854 88.515 46.2328 89.374 46.6205 90.3775C47.0081 91.3809 47.202 92.4946 47.202 93.7185ZM44.9329 93.7185C44.9329 92.715 44.796 91.818 44.5224 91.0274C44.2487 90.2368 43.861 89.5679 43.3593 89.0206C42.8576 88.4732 42.2494 88.0551 41.5348 87.7663C40.8203 87.4774 40.0221 87.3329 39.1403 87.3329H35.2519V100.093H39.1403C40.0221 100.093 40.8203 99.9482 41.5348 99.6593C42.2494 99.3704 42.8576 98.9561 43.3593 98.4164C43.861 97.8691 44.2487 97.2001 44.5224 96.4095C44.796 95.6189 44.9329 94.7219 44.9329 93.7185ZM55.6362 96.6832C54.7012 96.7136 53.903 96.7896 53.2416 96.9112C52.5879 97.0253 52.0519 97.1773 51.6338 97.3673C51.2233 97.5574 50.9231 97.7816 50.733 98.0401C50.5506 98.2986 50.4594 98.5874 50.4594 98.9067C50.4594 99.2108 50.5088 99.473 50.6076 99.6935C50.7064 99.9139 50.8394 100.096 51.0067 100.241C51.1815 100.378 51.383 100.48 51.611 100.549C51.8467 100.61 52.0975 100.64 52.3636 100.64C52.7209 100.64 53.0478 100.606 53.3442 100.537C53.6407 100.461 53.9182 100.355 54.1766 100.218C54.4427 100.081 54.6936 99.9177 54.9292 99.7277C55.1725 99.5377 55.4081 99.321 55.6362 99.0777V96.6832ZM49.0796 91.9624C49.7182 91.3467 50.4061 90.8868 51.1435 90.5827C51.8809 90.2786 52.6981 90.1266 53.5951 90.1266C54.2413 90.1266 54.8152 90.233 55.3169 90.4459C55.8186 90.6587 56.2405 90.9552 56.5826 91.3353C56.9247 91.7154 57.1832 92.1753 57.358 92.715C57.5328 93.2548 57.6203 93.8477 57.6203 94.4939V101.883H56.7194C56.5218 101.883 56.3698 101.852 56.2633 101.792C56.1569 101.723 56.0733 101.594 56.0125 101.404L55.7844 100.309C55.4803 100.591 55.1839 100.841 54.895 101.062C54.6061 101.275 54.3021 101.457 53.9828 101.609C53.6635 101.754 53.3214 101.864 52.9565 101.94C52.5993 102.023 52.2002 102.065 51.7593 102.065C51.3108 102.065 50.8889 102.004 50.4936 101.883C50.0983 101.754 49.7524 101.564 49.4559 101.313C49.167 101.062 48.9352 100.746 48.7603 100.366C48.5931 99.9786 48.5095 99.5225 48.5095 98.9979C48.5095 98.5418 48.6349 98.1047 48.8858 97.6866C49.1366 97.2609 49.5433 96.8846 50.1059 96.5577C50.6684 96.2309 51.402 95.9648 52.3066 95.7596C53.2112 95.5467 54.3211 95.4251 55.6362 95.3947V94.4939C55.6362 93.5968 55.4423 92.9203 55.0546 92.4642C54.667 92.0005 54.1006 91.7686 53.3556 91.7686C52.8539 91.7686 52.432 91.8332 52.0899 91.9624C51.7555 92.0841 51.4628 92.2247 51.2119 92.3844C50.9687 92.5364 50.7558 92.677 50.5734 92.8063C50.3985 92.9279 50.2237 92.9887 50.0489 92.9887C49.912 92.9887 49.7942 92.9545 49.6954 92.8861C49.5965 92.8101 49.5129 92.7188 49.4445 92.6124L49.0796 91.9624ZM63.858 102.065C62.9458 102.065 62.2426 101.811 61.7485 101.301C61.262 100.792 61.0187 100.058 61.0187 99.1005V92.0309H59.6276C59.506 92.0309 59.4033 91.9967 59.3197 91.9282C59.2361 91.8522 59.1943 91.7382 59.1943 91.5862V90.7766L61.0871 90.5371L61.5547 86.9681C61.5775 86.854 61.6269 86.7628 61.7029 86.6944C61.7865 86.6184 61.8929 86.5804 62.0222 86.5804H63.0484V90.5599H66.3894V92.0309H63.0484V98.9637C63.0484 99.4502 63.1662 99.8113 63.4019 100.047C63.6375 100.283 63.9416 100.4 64.3141 100.4C64.527 100.4 64.7094 100.374 64.8614 100.321C65.0211 100.26 65.1579 100.195 65.2719 100.127C65.386 100.058 65.481 99.9976 65.557 99.9444C65.6406 99.8835 65.7128 99.8531 65.7737 99.8531C65.8801 99.8531 65.9751 99.9177 66.0587 100.047L66.6517 101.016C66.302 101.343 65.8801 101.602 65.386 101.792C64.8918 101.974 64.3825 102.065 63.858 102.065ZM75.9051 94.8473C75.9051 94.376 75.8367 93.9465 75.6998 93.5588C75.5706 93.1635 75.3767 92.8253 75.1183 92.544C74.8674 92.2551 74.5595 92.0347 74.1947 91.8826C73.8298 91.723 73.4155 91.6432 72.9518 91.6432C71.9787 91.6432 71.2072 91.9282 70.637 92.4984C70.0745 93.0609 69.7248 93.8439 69.588 94.8473H75.9051ZM77.5471 100.264C77.2962 100.568 76.9959 100.834 76.6462 101.062C76.2966 101.282 75.9203 101.465 75.5174 101.609C75.1221 101.754 74.7116 101.86 74.2859 101.928C73.8602 102.004 73.4383 102.042 73.0202 102.042C72.222 102.042 71.4846 101.909 70.8081 101.643C70.1391 101.37 69.5576 100.974 69.0634 100.457C68.5769 99.9329 68.1968 99.2868 67.9232 98.519C67.6495 97.7512 67.5127 96.8694 67.5127 95.8736C67.5127 95.0678 67.6343 94.3152 67.8776 93.6158C68.1284 92.9165 68.4857 92.3121 68.9494 91.8028C69.4131 91.2859 69.9795 90.883 70.6484 90.5941C71.3174 90.2977 72.07 90.1494 72.9062 90.1494C73.5979 90.1494 74.2365 90.2672 74.8218 90.5029C75.4148 90.731 75.9241 91.0654 76.3498 91.5063C76.7831 91.9396 77.1214 92.4794 77.3646 93.1255C77.6079 93.7641 77.7295 94.4939 77.7295 95.3148C77.7295 95.6341 77.6953 95.847 77.6269 95.9534C77.5585 96.0598 77.4292 96.113 77.2392 96.113H69.5195C69.5424 96.8428 69.6412 97.4776 69.816 98.0173C69.9985 98.557 70.2493 99.0093 70.5686 99.3742C70.8879 99.7315 71.268 100.001 71.7089 100.184C72.1498 100.359 72.6439 100.446 73.1912 100.446C73.7005 100.446 74.1376 100.389 74.5025 100.275C74.875 100.153 75.1943 100.024 75.4604 99.8873C75.7264 99.7505 75.9469 99.6251 76.1217 99.511C76.3042 99.3894 76.46 99.3286 76.5892 99.3286C76.7565 99.3286 76.8857 99.3932 76.9769 99.5225L77.5471 100.264ZM95.5691 100.332V101.883H86.8118V100.332H90.3124V89.1916C90.3124 88.8571 90.3238 88.5188 90.3466 88.1767L87.4389 90.6739C87.3401 90.7576 87.2413 90.8108 87.1425 90.8336C87.0436 90.8488 86.9524 90.8488 86.8688 90.8336C86.7852 90.8184 86.7054 90.788 86.6293 90.7424C86.5609 90.6967 86.5077 90.6473 86.4697 90.5941L85.8312 89.7161L90.7001 85.5085H92.3535V100.332H95.5691ZM98.371 100.629C98.371 100.431 98.4052 100.245 98.4737 100.07C98.5497 99.8949 98.6485 99.7429 98.7701 99.6137C98.8994 99.4844 99.0514 99.3818 99.2262 99.3058C99.4011 99.2298 99.5873 99.1918 99.785 99.1918C99.9826 99.1918 100.169 99.2298 100.344 99.3058C100.519 99.3818 100.671 99.4844 100.8 99.6137C100.929 99.7429 101.032 99.8949 101.108 100.07C101.184 100.245 101.222 100.431 101.222 100.629C101.222 100.834 101.184 101.024 101.108 101.199C101.032 101.366 100.929 101.514 100.8 101.643C100.671 101.773 100.519 101.871 100.344 101.94C100.169 102.016 99.9826 102.054 99.785 102.054C99.5873 102.054 99.4011 102.016 99.2262 101.94C99.0514 101.871 98.8994 101.773 98.7701 101.643C98.6485 101.514 98.5497 101.366 98.4737 101.199C98.4052 101.024 98.371 100.834 98.371 100.629ZM98.371 92.0765C98.371 91.8788 98.4052 91.6926 98.4737 91.5177C98.5497 91.3429 98.6485 91.1909 98.7701 91.0616C98.8994 90.9324 99.0514 90.8298 99.2262 90.7538C99.4011 90.6777 99.5873 90.6397 99.785 90.6397C99.9826 90.6397 100.169 90.6777 100.344 90.7538C100.519 90.8298 100.671 90.9324 100.8 91.0616C100.929 91.1909 101.032 91.3429 101.108 91.5177C101.184 91.6926 101.222 91.8788 101.222 92.0765C101.222 92.2817 101.184 92.4718 101.108 92.6466C101.032 92.8139 100.929 92.9621 100.8 93.0913C100.671 93.2206 100.519 93.3232 100.344 93.3992C100.169 93.4676 99.9826 93.5018 99.785 93.5018C99.5873 93.5018 99.4011 93.4676 99.2262 93.3992C99.0514 93.3232 98.8994 93.2206 98.7701 93.0913C98.6485 92.9621 98.5497 92.8139 98.4737 92.6466C98.4052 92.4718 98.371 92.2817 98.371 92.0765Z" fill="#D1D1D1"/>
<path d="M60.2816 129.43C60.2816 132.129 58.0936 134.317 55.3947 134.317C52.6957 134.317 50.5078 132.129 50.5078 129.43C50.5078 126.731 52.6957 124.543 55.3947 124.543C58.0936 124.543 60.2816 126.731 60.2816 129.43Z" fill="#D1D1D1"/>
<path d="M89.0467 130.102L86.8476 124.404C86.7825 124.234 86.7141 124.039 86.6424 123.817C86.5707 123.589 86.5023 123.348 86.4371 123.094C86.3003 123.622 86.1602 124.061 86.0169 124.413L83.8178 130.102H89.0467ZM92.9953 135.301H91.5293C91.3599 135.301 91.223 135.259 91.1188 135.174C91.0145 135.09 90.9363 134.982 90.8842 134.852L89.5745 131.47H83.29L81.9803 134.852C81.9412 134.969 81.8663 135.073 81.7555 135.164C81.6447 135.256 81.5079 135.301 81.345 135.301H79.879L85.4793 121.295H87.395L92.9953 135.301ZM97.7146 130.463C98.0664 130.463 98.3759 130.414 98.6431 130.317C98.9102 130.219 99.135 130.082 99.3175 129.906C99.4999 129.73 99.6368 129.522 99.728 129.281C99.8192 129.033 99.8648 128.763 99.8648 128.469C99.8648 127.863 99.6791 127.381 99.3077 127.023C98.9428 126.665 98.4118 126.485 97.7146 126.485C97.0109 126.485 96.4733 126.665 96.1019 127.023C95.737 127.381 95.5546 127.863 95.5546 128.469C95.5546 128.763 95.6002 129.033 95.6914 129.281C95.7892 129.522 95.9292 129.73 96.1117 129.906C96.2941 130.082 96.5189 130.219 96.7861 130.317C97.0532 130.414 97.3627 130.463 97.7146 130.463ZM100.852 135.839C100.852 135.598 100.784 135.402 100.647 135.252C100.51 135.103 100.324 134.985 100.09 134.901C99.8616 134.816 99.5944 134.757 99.2882 134.725C98.9819 134.686 98.6561 134.656 98.3108 134.637C97.972 134.617 97.6266 134.598 97.2748 134.578C96.9229 134.558 96.5841 134.526 96.2583 134.48C95.8934 134.65 95.5937 134.865 95.3591 135.125C95.1311 135.379 95.017 135.679 95.017 136.025C95.017 136.246 95.0724 136.451 95.1832 136.64C95.3005 136.836 95.4764 137.002 95.711 137.139C95.9455 137.282 96.2387 137.393 96.5906 137.471C96.949 137.556 97.3692 137.598 97.8514 137.598C98.3206 137.598 98.7408 137.556 99.1122 137.471C99.4836 137.386 99.7964 137.266 100.051 137.109C100.311 136.953 100.51 136.767 100.647 136.552C100.784 136.337 100.852 136.099 100.852 135.839ZM102.621 125.791V126.436C102.621 126.651 102.484 126.788 102.211 126.847L101.087 126.994C101.308 127.424 101.419 127.899 101.419 128.421C101.419 128.903 101.324 129.343 101.135 129.74C100.953 130.131 100.699 130.467 100.373 130.747C100.047 131.027 99.6563 131.242 99.2002 131.392C98.7441 131.542 98.2489 131.617 97.7146 131.617C97.252 131.617 96.8154 131.561 96.4049 131.45C96.1964 131.581 96.0368 131.721 95.926 131.871C95.8152 132.014 95.7598 132.161 95.7598 132.31C95.7598 132.545 95.8543 132.724 96.0433 132.848C96.2387 132.965 96.4929 133.05 96.8056 133.102C97.1184 133.154 97.4735 133.187 97.871 133.2C98.2749 133.213 98.6854 133.236 99.1025 133.268C99.526 133.294 99.9365 133.343 100.334 133.415C100.738 133.487 101.096 133.604 101.409 133.767C101.722 133.93 101.973 134.154 102.162 134.441C102.357 134.728 102.455 135.099 102.455 135.555C102.455 135.979 102.347 136.389 102.132 136.787C101.924 137.184 101.621 137.536 101.223 137.842C100.826 138.155 100.337 138.403 99.7573 138.585C99.1839 138.774 98.5356 138.869 97.8123 138.869C97.0891 138.869 96.457 138.797 95.9162 138.654C95.3754 138.51 94.9258 138.318 94.5674 138.077C94.2091 137.836 93.9387 137.556 93.7562 137.236C93.5803 136.924 93.4923 136.595 93.4923 136.249C93.4923 135.761 93.6454 135.347 93.9517 135.008C94.2579 134.669 94.6782 134.399 95.2125 134.197C94.9193 134.067 94.6847 133.894 94.5088 133.679C94.3394 133.457 94.2547 133.161 94.2547 132.789C94.2547 132.646 94.2807 132.499 94.3329 132.35C94.385 132.193 94.4632 132.04 94.5674 131.89C94.6782 131.734 94.8118 131.587 94.9682 131.45C95.1245 131.314 95.307 131.193 95.5155 131.089C95.0268 130.815 94.6456 130.453 94.372 130.004C94.0983 129.548 93.9615 129.02 93.9615 128.421C93.9615 127.938 94.0527 127.502 94.2351 127.111C94.4241 126.713 94.6847 126.378 95.017 126.104C95.3493 125.824 95.7435 125.609 96.1997 125.459C96.6623 125.309 97.1673 125.234 97.7146 125.234C98.1446 125.234 98.5454 125.283 98.9168 125.381C99.2882 125.472 99.627 125.609 99.9332 125.791H102.621ZM110.731 129.271C110.731 128.867 110.672 128.499 110.555 128.166C110.444 127.828 110.278 127.538 110.057 127.297C109.842 127.049 109.578 126.86 109.265 126.73C108.952 126.593 108.597 126.524 108.2 126.524C107.366 126.524 106.704 126.769 106.216 127.257C105.733 127.74 105.434 128.411 105.316 129.271H110.731ZM112.138 133.913C111.923 134.174 111.666 134.402 111.366 134.598C111.067 134.787 110.744 134.943 110.399 135.067C110.06 135.191 109.708 135.282 109.343 135.34C108.978 135.406 108.617 135.438 108.258 135.438C107.574 135.438 106.942 135.324 106.362 135.096C105.789 134.861 105.29 134.523 104.867 134.08C104.45 133.63 104.124 133.076 103.889 132.418C103.655 131.76 103.538 131.004 103.538 130.151C103.538 129.46 103.642 128.815 103.85 128.215C104.065 127.616 104.372 127.098 104.769 126.661C105.166 126.218 105.652 125.873 106.225 125.625C106.799 125.371 107.444 125.244 108.16 125.244C108.753 125.244 109.301 125.345 109.802 125.547C110.311 125.743 110.747 126.029 111.112 126.407C111.484 126.779 111.774 127.241 111.982 127.795C112.191 128.342 112.295 128.968 112.295 129.672C112.295 129.945 112.265 130.128 112.207 130.219C112.148 130.31 112.037 130.356 111.875 130.356H105.258C105.277 130.981 105.362 131.525 105.512 131.988C105.668 132.451 105.883 132.838 106.157 133.151C106.431 133.457 106.756 133.689 107.134 133.845C107.512 133.995 107.936 134.07 108.405 134.07C108.841 134.07 109.216 134.021 109.529 133.923C109.848 133.819 110.122 133.708 110.35 133.591C110.578 133.474 110.767 133.366 110.917 133.268C111.073 133.164 111.207 133.112 111.317 133.112C111.461 133.112 111.572 133.167 111.65 133.278L112.138 133.913ZM115.911 126.837C116.126 126.596 116.354 126.378 116.595 126.182C116.836 125.987 117.09 125.821 117.357 125.684C117.631 125.541 117.918 125.433 118.217 125.361C118.524 125.283 118.853 125.244 119.205 125.244C119.745 125.244 120.221 125.335 120.632 125.518C121.049 125.694 121.394 125.948 121.668 126.28C121.948 126.606 122.16 127 122.303 127.463C122.446 127.925 122.518 128.437 122.518 128.997V135.301H120.768V128.997C120.768 128.248 120.596 127.668 120.25 127.257C119.912 126.84 119.394 126.632 118.696 126.632C118.182 126.632 117.699 126.756 117.25 127.003C116.807 127.251 116.396 127.587 116.018 128.01V135.301H114.269V125.4H115.315C115.562 125.4 115.715 125.521 115.774 125.762L115.911 126.837ZM131.457 127.756C131.131 127.319 130.779 127.016 130.401 126.847C130.023 126.671 129.6 126.583 129.13 126.583C128.212 126.583 127.505 126.912 127.01 127.57C126.514 128.228 126.267 129.167 126.267 130.385C126.267 131.03 126.322 131.584 126.433 132.047C126.544 132.503 126.707 132.881 126.922 133.18C127.137 133.474 127.401 133.689 127.713 133.825C128.026 133.962 128.381 134.031 128.779 134.031C129.352 134.031 129.85 133.9 130.274 133.64C130.704 133.379 131.098 133.011 131.457 132.535V127.756ZM133.196 120.905V135.301H132.16C131.913 135.301 131.756 135.181 131.691 134.94L131.535 133.737C131.111 134.246 130.629 134.656 130.088 134.969C129.548 135.282 128.922 135.438 128.212 135.438C127.645 135.438 127.13 135.331 126.668 135.116C126.205 134.894 125.811 134.571 125.485 134.148C125.159 133.724 124.908 133.197 124.732 132.565C124.556 131.933 124.468 131.206 124.468 130.385C124.468 129.655 124.566 128.978 124.762 128.352C124.957 127.72 125.237 127.173 125.602 126.71C125.967 126.248 126.413 125.886 126.941 125.625C127.475 125.358 128.075 125.225 128.74 125.225C129.346 125.225 129.864 125.329 130.294 125.537C130.73 125.739 131.118 126.023 131.457 126.388V120.905H133.196ZM141.147 130.844C140.346 130.87 139.661 130.936 139.095 131.04C138.534 131.138 138.075 131.268 137.716 131.431C137.365 131.594 137.107 131.786 136.944 132.008C136.788 132.229 136.71 132.477 136.71 132.75C136.71 133.011 136.752 133.236 136.837 133.425C136.922 133.614 137.036 133.77 137.179 133.894C137.329 134.011 137.501 134.099 137.697 134.158C137.899 134.21 138.114 134.236 138.342 134.236C138.648 134.236 138.928 134.207 139.183 134.148C139.437 134.083 139.674 133.992 139.896 133.874C140.124 133.757 140.339 133.617 140.541 133.454C140.75 133.291 140.952 133.105 141.147 132.897V130.844ZM135.527 126.798C136.074 126.27 136.664 125.876 137.296 125.615C137.928 125.355 138.629 125.225 139.398 125.225C139.951 125.225 140.443 125.316 140.873 125.498C141.303 125.681 141.665 125.935 141.958 126.261C142.252 126.586 142.473 126.981 142.623 127.443C142.773 127.906 142.848 128.414 142.848 128.968V135.301H142.076C141.906 135.301 141.776 135.275 141.685 135.223C141.593 135.164 141.522 135.054 141.47 134.891L141.274 133.952C141.013 134.194 140.759 134.409 140.512 134.598C140.264 134.78 140.004 134.936 139.73 135.067C139.456 135.191 139.163 135.285 138.85 135.35C138.544 135.422 138.202 135.458 137.824 135.458C137.44 135.458 137.078 135.406 136.739 135.301C136.4 135.191 136.104 135.028 135.85 134.813C135.602 134.598 135.403 134.327 135.253 134.001C135.11 133.669 135.038 133.278 135.038 132.829C135.038 132.438 135.146 132.063 135.361 131.705C135.576 131.34 135.925 131.017 136.407 130.737C136.889 130.457 137.518 130.229 138.293 130.053C139.069 129.87 140.02 129.766 141.147 129.74V128.968C141.147 128.199 140.981 127.619 140.649 127.228C140.316 126.831 139.831 126.632 139.192 126.632C138.762 126.632 138.401 126.687 138.107 126.798C137.821 126.902 137.57 127.023 137.355 127.16C137.146 127.29 136.964 127.411 136.808 127.521C136.658 127.626 136.508 127.678 136.358 127.678C136.241 127.678 136.14 127.648 136.055 127.59C135.97 127.525 135.899 127.446 135.84 127.355L135.527 126.798ZM145.178 134.226C145.178 134.057 145.208 133.897 145.266 133.747C145.332 133.597 145.416 133.467 145.521 133.356C145.631 133.246 145.762 133.158 145.912 133.092C146.061 133.027 146.221 132.995 146.39 132.995C146.56 132.995 146.719 133.027 146.869 133.092C147.019 133.158 147.15 133.246 147.26 133.356C147.371 133.467 147.459 133.597 147.524 133.747C147.589 133.897 147.622 134.057 147.622 134.226C147.622 134.402 147.589 134.565 147.524 134.715C147.459 134.858 147.371 134.985 147.26 135.096C147.15 135.207 147.019 135.291 146.869 135.35C146.719 135.415 146.56 135.448 146.39 135.448C146.221 135.448 146.061 135.415 145.912 135.35C145.762 135.291 145.631 135.207 145.521 135.096C145.416 134.985 145.332 134.858 145.266 134.715C145.208 134.565 145.178 134.402 145.178 134.226ZM145.178 126.896C145.178 126.726 145.208 126.567 145.266 126.417C145.332 126.267 145.416 126.137 145.521 126.026C145.631 125.915 145.762 125.827 145.912 125.762C146.061 125.697 146.221 125.664 146.39 125.664C146.56 125.664 146.719 125.697 146.869 125.762C147.019 125.827 147.15 125.915 147.26 126.026C147.371 126.137 147.459 126.267 147.524 126.417C147.589 126.567 147.622 126.726 147.622 126.896C147.622 127.072 147.589 127.235 147.524 127.385C147.459 127.528 147.371 127.655 147.26 127.766C147.15 127.876 147.019 127.964 146.869 128.03C146.719 128.088 146.56 128.118 146.39 128.118C146.221 128.118 146.061 128.088 145.912 128.03C145.762 127.964 145.631 127.876 145.521 127.766C145.416 127.655 145.332 127.528 145.266 127.385C145.208 127.235 145.178 127.072 145.178 126.896Z" fill="#D1D1D1"/>
<path d="M79.8203 144.559H659.73" stroke="#D1D1D1" stroke-width="3.25792" stroke-linecap="round"/>
<path d="M47.202 214.682C47.202 215.906 47.0081 217.02 46.6205 218.023C46.2328 219.027 45.6854 219.886 44.9785 220.6C44.2715 221.315 43.4201 221.87 42.4243 222.265C41.436 222.653 40.3414 222.847 39.1403 222.847H33.0398V206.507H39.1403C40.3414 206.507 41.436 206.704 42.4243 207.1C43.4201 207.487 44.2715 208.042 44.9785 208.764C45.6854 209.479 46.2328 210.338 46.6205 211.341C47.0081 212.345 47.202 213.458 47.202 214.682ZM44.9329 214.682C44.9329 213.679 44.796 212.782 44.5224 211.991C44.2487 211.201 43.861 210.532 43.3593 209.984C42.8576 209.437 42.2494 209.019 41.5348 208.73C40.8203 208.441 40.0221 208.297 39.1403 208.297H35.2519V221.056H39.1403C40.0221 221.056 40.8203 220.912 41.5348 220.623C42.2494 220.334 42.8576 219.92 43.3593 219.38C43.861 218.833 44.2487 218.164 44.5224 217.373C44.796 216.583 44.9329 215.686 44.9329 214.682ZM55.6362 217.647C54.7012 217.677 53.903 217.753 53.2416 217.875C52.5879 217.989 52.0519 218.141 51.6338 218.331C51.2233 218.521 50.9231 218.746 50.733 219.004C50.5506 219.262 50.4594 219.551 50.4594 219.871C50.4594 220.175 50.5088 220.437 50.6076 220.657C50.7064 220.878 50.8394 221.06 51.0067 221.205C51.1815 221.342 51.383 221.444 51.611 221.513C51.8467 221.573 52.0975 221.604 52.3636 221.604C52.7209 221.604 53.0478 221.57 53.3442 221.501C53.6407 221.425 53.9182 221.319 54.1766 221.182C54.4427 221.045 54.6936 220.882 54.9292 220.692C55.1725 220.502 55.4081 220.285 55.6362 220.042V217.647ZM49.0796 212.926C49.7182 212.311 50.4061 211.851 51.1435 211.547C51.8809 211.243 52.6981 211.09 53.5951 211.09C54.2413 211.09 54.8152 211.197 55.3169 211.41C55.8186 211.623 56.2405 211.919 56.5826 212.299C56.9247 212.679 57.1832 213.139 57.358 213.679C57.5328 214.219 57.6203 214.812 57.6203 215.458V222.847H56.7194C56.5218 222.847 56.3698 222.816 56.2633 222.755C56.1569 222.687 56.0733 222.558 56.0125 222.368L55.7844 221.273C55.4803 221.554 55.1839 221.805 54.895 222.026C54.6061 222.239 54.3021 222.421 53.9828 222.573C53.6635 222.717 53.3214 222.828 52.9565 222.904C52.5993 222.987 52.2002 223.029 51.7593 223.029C51.3108 223.029 50.8889 222.968 50.4936 222.847C50.0983 222.717 49.7524 222.527 49.4559 222.277C49.167 222.026 48.9352 221.71 48.7603 221.33C48.5931 220.942 48.5095 220.486 48.5095 219.962C48.5095 219.506 48.6349 219.069 48.8858 218.65C49.1366 218.225 49.5433 217.848 50.1059 217.522C50.6684 217.195 51.402 216.929 52.3066 216.723C53.2112 216.511 54.3211 216.389 55.6362 216.359V215.458C55.6362 214.561 55.4423 213.884 55.0546 213.428C54.667 212.964 54.1006 212.732 53.3556 212.732C52.8539 212.732 52.432 212.797 52.0899 212.926C51.7555 213.048 51.4628 213.189 51.2119 213.348C50.9687 213.5 50.7558 213.641 50.5734 213.77C50.3985 213.892 50.2237 213.953 50.0489 213.953C49.912 213.953 49.7942 213.918 49.6954 213.85C49.5965 213.774 49.5129 213.683 49.4445 213.576L49.0796 212.926ZM63.858 223.029C62.9458 223.029 62.2426 222.774 61.7485 222.265C61.262 221.756 61.0187 221.022 61.0187 220.064V212.995H59.6276C59.506 212.995 59.4033 212.961 59.3197 212.892C59.2361 212.816 59.1943 212.702 59.1943 212.55V211.74L61.0871 211.501L61.5547 207.932C61.5775 207.818 61.6269 207.727 61.7029 207.658C61.7865 207.582 61.8929 207.544 62.0222 207.544H63.0484V211.524H66.3894V212.995H63.0484V219.928C63.0484 220.414 63.1662 220.775 63.4019 221.011C63.6375 221.246 63.9416 221.364 64.3141 221.364C64.527 221.364 64.7094 221.338 64.8614 221.285C65.0211 221.224 65.1579 221.159 65.2719 221.091C65.386 221.022 65.481 220.961 65.557 220.908C65.6406 220.847 65.7128 220.817 65.7737 220.817C65.8801 220.817 65.9751 220.882 66.0587 221.011L66.6517 221.98C66.302 222.307 65.8801 222.565 65.386 222.755C64.8918 222.938 64.3825 223.029 63.858 223.029ZM75.9051 215.811C75.9051 215.34 75.8367 214.91 75.6998 214.523C75.5706 214.127 75.3767 213.789 75.1183 213.508C74.8674 213.219 74.5595 212.999 74.1947 212.846C73.8298 212.687 73.4155 212.607 72.9518 212.607C71.9787 212.607 71.2072 212.892 70.637 213.462C70.0745 214.025 69.7248 214.808 69.588 215.811H75.9051ZM77.5471 221.227C77.2962 221.532 76.9959 221.798 76.6462 222.026C76.2966 222.246 75.9203 222.429 75.5174 222.573C75.1221 222.717 74.7116 222.824 74.2859 222.892C73.8602 222.968 73.4383 223.006 73.0202 223.006C72.222 223.006 71.4846 222.873 70.8081 222.607C70.1391 222.334 69.5576 221.938 69.0634 221.421C68.5769 220.897 68.1968 220.251 67.9232 219.483C67.6495 218.715 67.5127 217.833 67.5127 216.837C67.5127 216.032 67.6343 215.279 67.8776 214.58C68.1284 213.88 68.4857 213.276 68.9494 212.767C69.4131 212.25 69.9795 211.847 70.6484 211.558C71.3174 211.262 72.07 211.113 72.9062 211.113C73.5979 211.113 74.2365 211.231 74.8218 211.467C75.4148 211.695 75.9241 212.029 76.3498 212.47C76.7831 212.904 77.1214 213.443 77.3646 214.089C77.6079 214.728 77.7295 215.458 77.7295 216.279C77.7295 216.598 77.6953 216.811 77.6269 216.917C77.5585 217.024 77.4292 217.077 77.2392 217.077H69.5195C69.5424 217.807 69.6412 218.441 69.816 218.981C69.9985 219.521 70.2493 219.973 70.5686 220.338C70.8879 220.695 71.268 220.965 71.7089 221.148C72.1498 221.323 72.6439 221.41 73.1912 221.41C73.7005 221.41 74.1376 221.353 74.5025 221.239C74.875 221.117 75.1943 220.988 75.4604 220.851C75.7264 220.714 75.9469 220.589 76.1217 220.475C76.3042 220.353 76.46 220.292 76.5892 220.292C76.7565 220.292 76.8857 220.357 76.9769 220.486L77.5471 221.227ZM95.2156 220.92C95.436 220.92 95.6109 220.984 95.7401 221.113C95.8693 221.243 95.934 221.41 95.934 221.615V222.847H85.033V222.151C85.033 222.007 85.0634 221.858 85.1242 221.706C85.185 221.554 85.28 221.414 85.4093 221.285L90.6431 216.028C91.0764 215.587 91.4717 215.165 91.829 214.762C92.1863 214.352 92.4903 213.941 92.7412 213.531C92.9921 213.12 93.1859 212.706 93.3227 212.288C93.4596 211.862 93.528 211.41 93.528 210.931C93.528 210.452 93.452 210.034 93.2999 209.677C93.1479 209.312 92.9389 209.011 92.6728 208.776C92.4143 208.54 92.1065 208.365 91.7492 208.251C91.3919 208.13 91.008 208.069 90.5975 208.069C90.1794 208.069 89.7955 208.13 89.4458 208.251C89.0961 208.373 88.7845 208.544 88.5108 208.764C88.2447 208.977 88.0205 209.232 87.838 209.528C87.6556 209.825 87.5264 210.152 87.4503 210.509C87.3591 210.775 87.2337 210.954 87.0741 211.045C86.922 211.128 86.7054 211.151 86.4241 211.113L85.3636 210.931C85.4701 210.186 85.6753 209.528 85.9794 208.958C86.2911 208.38 86.6788 207.898 87.1425 207.51C87.6138 207.122 88.1497 206.83 88.7503 206.632C89.3508 206.427 90.0008 206.324 90.7001 206.324C91.3919 206.324 92.038 206.427 92.6386 206.632C93.2391 206.837 93.7598 207.138 94.2008 207.533C94.6417 207.921 94.9875 208.396 95.2384 208.958C95.4893 209.521 95.6147 210.159 95.6147 210.874C95.6147 211.482 95.5235 212.048 95.341 212.573C95.1586 213.09 94.9115 213.584 94.5998 214.055C94.2882 214.526 93.9271 214.986 93.5166 215.435C93.1137 215.883 92.6842 216.336 92.2281 216.792L87.9179 221.193C88.2219 221.11 88.5298 221.045 88.8415 220.999C89.1531 220.946 89.4534 220.92 89.7423 220.92H95.2156ZM98.371 221.592C98.371 221.395 98.4052 221.208 98.4737 221.034C98.5497 220.859 98.6485 220.707 98.7701 220.578C98.8994 220.448 99.0514 220.346 99.2262 220.27C99.4011 220.194 99.5873 220.156 99.785 220.156C99.9826 220.156 100.169 220.194 100.344 220.27C100.519 220.346 100.671 220.448 100.8 220.578C100.929 220.707 101.032 220.859 101.108 221.034C101.184 221.208 101.222 221.395 101.222 221.592C101.222 221.798 101.184 221.988 101.108 222.163C101.032 222.33 100.929 222.478 100.8 222.607C100.671 222.736 100.519 222.835 100.344 222.904C100.169 222.98 99.9826 223.018 99.785 223.018C99.5873 223.018 99.4011 222.98 99.2262 222.904C99.0514 222.835 98.8994 222.736 98.7701 222.607C98.6485 222.478 98.5497 222.33 98.4737 222.163C98.4052 221.988 98.371 221.798 98.371 221.592ZM98.371 213.04C98.371 212.843 98.4052 212.656 98.4737 212.482C98.5497 212.307 98.6485 212.155 98.7701 212.026C98.8994 211.896 99.0514 211.794 99.2262 211.718C99.4011 211.642 99.5873 211.604 99.785 211.604C99.9826 211.604 100.169 211.642 100.344 211.718C100.519 211.794 100.671 211.896 100.8 212.026C100.929 212.155 101.032 212.307 101.108 212.482C101.184 212.656 101.222 212.843 101.222 213.04C101.222 213.246 101.184 213.436 101.108 213.61C101.032 213.778 100.929 213.926 100.8 214.055C100.671 214.184 100.519 214.287 100.344 214.363C100.169 214.431 99.9826 214.466 99.785 214.466C99.5873 214.466 99.4011 214.431 99.2262 214.363C99.0514 214.287 98.8994 214.184 98.7701 214.055C98.6485 213.926 98.5497 213.778 98.4737 213.61C98.4052 213.436 98.371 213.246 98.371 213.04Z" fill="#D1D1D1"/>
<path d="M60.2816 250.394C60.2816 253.093 58.0936 255.281 55.3947 255.281C52.6957 255.281 50.5078 253.093 50.5078 250.394C50.5078 247.695 52.6957 245.507 55.3947 245.507C58.0936 245.507 60.2816 247.695 60.2816 250.394Z" fill="#D1D1D1"/>
<path d="M89.0467 251.065L86.8476 245.367C86.7825 245.197 86.7141 245.002 86.6424 244.78C86.5707 244.552 86.5023 244.311 86.4371 244.057C86.3003 244.585 86.1602 245.025 86.0169 245.377L83.8178 251.065H89.0467ZM92.9953 256.265H91.5293C91.3599 256.265 91.223 256.222 91.1188 256.138C91.0145 256.053 90.9363 255.945 90.8842 255.815L89.5745 252.433H83.29L81.9803 255.815C81.9412 255.932 81.8663 256.037 81.7555 256.128C81.6447 256.219 81.5079 256.265 81.345 256.265H79.879L85.4793 242.259H87.395L92.9953 256.265ZM97.7146 251.427C98.0664 251.427 98.3759 251.378 98.6431 251.28C98.9102 251.182 99.135 251.045 99.3175 250.87C99.4999 250.694 99.6368 250.485 99.728 250.244C99.8192 249.996 99.8648 249.726 99.8648 249.433C99.8648 248.827 99.6791 248.345 99.3077 247.986C98.9428 247.628 98.4118 247.449 97.7146 247.449C97.0109 247.449 96.4733 247.628 96.1019 247.986C95.737 248.345 95.5546 248.827 95.5546 249.433C95.5546 249.726 95.6002 249.996 95.6914 250.244C95.7892 250.485 95.9292 250.694 96.1117 250.87C96.2941 251.045 96.5189 251.182 96.7861 251.28C97.0532 251.378 97.3627 251.427 97.7146 251.427ZM100.852 256.802C100.852 256.561 100.784 256.366 100.647 256.216C100.51 256.066 100.324 255.949 100.09 255.864C99.8616 255.779 99.5944 255.721 99.2882 255.688C98.9819 255.649 98.6561 255.62 98.3108 255.6C97.972 255.58 97.6266 255.561 97.2748 255.541C96.9229 255.522 96.5841 255.489 96.2583 255.444C95.8934 255.613 95.5937 255.828 95.3591 256.089C95.1311 256.343 95.017 256.643 95.017 256.988C95.017 257.209 95.0724 257.415 95.1832 257.604C95.3005 257.799 95.4764 257.965 95.711 258.102C95.9455 258.245 96.2387 258.356 96.5906 258.434C96.949 258.519 97.3692 258.561 97.8514 258.561C98.3206 258.561 98.7408 258.519 99.1122 258.434C99.4836 258.35 99.7964 258.229 100.051 258.073C100.311 257.916 100.51 257.731 100.647 257.516C100.784 257.301 100.852 257.063 100.852 256.802ZM102.621 246.755V247.4C102.621 247.615 102.484 247.752 102.211 247.81L101.087 247.957C101.308 248.387 101.419 248.863 101.419 249.384C101.419 249.866 101.324 250.306 101.135 250.703C100.953 251.094 100.699 251.43 100.373 251.71C100.047 251.99 99.6563 252.205 99.2002 252.355C98.7441 252.505 98.2489 252.58 97.7146 252.58C97.252 252.58 96.8154 252.525 96.4049 252.414C96.1964 252.544 96.0368 252.684 95.926 252.834C95.8152 252.977 95.7598 253.124 95.7598 253.274C95.7598 253.508 95.8543 253.688 96.0433 253.811C96.2387 253.929 96.4929 254.013 96.8056 254.066C97.1184 254.118 97.4735 254.15 97.871 254.163C98.2749 254.176 98.6854 254.199 99.1025 254.232C99.526 254.258 99.9365 254.307 100.334 254.378C100.738 254.45 101.096 254.567 101.409 254.73C101.722 254.893 101.973 255.118 102.162 255.405C102.357 255.691 102.455 256.063 102.455 256.519C102.455 256.942 102.347 257.353 102.132 257.75C101.924 258.148 101.621 258.5 101.223 258.806C100.826 259.119 100.337 259.366 99.7573 259.549C99.1839 259.738 98.5356 259.832 97.8123 259.832C97.0891 259.832 96.457 259.76 95.9162 259.617C95.3754 259.474 94.9258 259.281 94.5674 259.04C94.2091 258.799 93.9387 258.519 93.7562 258.2C93.5803 257.887 93.4923 257.558 93.4923 257.213C93.4923 256.724 93.6454 256.31 93.9517 255.971C94.2579 255.633 94.6782 255.362 95.2125 255.16C94.9193 255.03 94.6847 254.857 94.5088 254.642C94.3394 254.421 94.2547 254.124 94.2547 253.753C94.2547 253.609 94.2807 253.463 94.3329 253.313C94.385 253.157 94.4632 253.003 94.5674 252.854C94.6782 252.697 94.8118 252.551 94.9682 252.414C95.1245 252.277 95.307 252.156 95.5155 252.052C95.0268 251.778 94.6456 251.417 94.372 250.967C94.0983 250.511 93.9615 249.983 93.9615 249.384C93.9615 248.902 94.0527 248.465 94.2351 248.074C94.4241 247.677 94.6847 247.341 95.017 247.068C95.3493 246.787 95.7435 246.572 96.1997 246.422C96.6623 246.273 97.1673 246.198 97.7146 246.198C98.1446 246.198 98.5454 246.247 98.9168 246.344C99.2882 246.436 99.627 246.572 99.9332 246.755H102.621ZM110.731 250.234C110.731 249.83 110.672 249.462 110.555 249.13C110.444 248.791 110.278 248.501 110.057 248.26C109.842 248.012 109.578 247.823 109.265 247.693C108.952 247.556 108.597 247.488 108.2 247.488C107.366 247.488 106.704 247.732 106.216 248.221C105.733 248.703 105.434 249.374 105.316 250.234H110.731ZM112.138 254.877C111.923 255.137 111.666 255.365 111.366 255.561C111.067 255.75 110.744 255.906 110.399 256.03C110.06 256.154 109.708 256.245 109.343 256.304C108.978 256.369 108.617 256.401 108.258 256.401C107.574 256.401 106.942 256.287 106.362 256.059C105.789 255.825 105.29 255.486 104.867 255.043C104.45 254.593 104.124 254.039 103.889 253.381C103.655 252.723 103.538 251.967 103.538 251.114C103.538 250.423 103.642 249.778 103.85 249.179C104.065 248.579 104.372 248.061 104.769 247.625C105.166 247.182 105.652 246.836 106.225 246.589C106.799 246.335 107.444 246.207 108.16 246.207C108.753 246.207 109.301 246.308 109.802 246.51C110.311 246.706 110.747 246.993 111.112 247.371C111.484 247.742 111.774 248.205 111.982 248.758C112.191 249.306 112.295 249.931 112.295 250.635C112.295 250.909 112.265 251.091 112.207 251.182C112.148 251.274 112.037 251.319 111.875 251.319H105.258C105.277 251.945 105.362 252.489 105.512 252.951C105.668 253.414 105.883 253.802 106.157 254.114C106.431 254.421 106.756 254.652 107.134 254.808C107.512 254.958 107.936 255.033 108.405 255.033C108.841 255.033 109.216 254.984 109.529 254.887C109.848 254.782 110.122 254.672 110.35 254.554C110.578 254.437 110.767 254.329 110.917 254.232C111.073 254.127 111.207 254.075 111.317 254.075C111.461 254.075 111.572 254.131 111.65 254.241L112.138 254.877ZM115.911 247.801C116.126 247.559 116.354 247.341 116.595 247.146C116.836 246.95 117.09 246.784 117.357 246.647C117.631 246.504 117.918 246.396 118.217 246.325C118.524 246.247 118.853 246.207 119.205 246.207C119.745 246.207 120.221 246.299 120.632 246.481C121.049 246.657 121.394 246.911 121.668 247.243C121.948 247.569 122.16 247.963 122.303 248.426C122.446 248.889 122.518 249.4 122.518 249.961V256.265H120.768V249.961C120.768 249.211 120.596 248.631 120.25 248.221C119.912 247.804 119.394 247.595 118.696 247.595C118.182 247.595 117.699 247.719 117.25 247.967C116.807 248.214 116.396 248.55 116.018 248.973V256.265H114.269V246.364H115.315C115.562 246.364 115.715 246.484 115.774 246.725L115.911 247.801ZM131.457 248.719C131.131 248.283 130.779 247.98 130.401 247.81C130.023 247.634 129.6 247.546 129.13 247.546C128.212 247.546 127.505 247.876 127.01 248.534C126.514 249.192 126.267 250.13 126.267 251.348C126.267 251.994 126.322 252.547 126.433 253.01C126.544 253.466 126.707 253.844 126.922 254.144C127.137 254.437 127.401 254.652 127.713 254.789C128.026 254.926 128.381 254.994 128.779 254.994C129.352 254.994 129.85 254.864 130.274 254.603C130.704 254.342 131.098 253.974 131.457 253.499V248.719ZM133.196 241.868V256.265H132.16C131.913 256.265 131.756 256.144 131.691 255.903L131.535 254.701C131.111 255.209 130.629 255.62 130.088 255.932C129.548 256.245 128.922 256.401 128.212 256.401C127.645 256.401 127.13 256.294 126.668 256.079C126.205 255.857 125.811 255.535 125.485 255.111C125.159 254.688 124.908 254.16 124.732 253.528C124.556 252.896 124.468 252.169 124.468 251.348C124.468 250.619 124.566 249.941 124.762 249.316C124.957 248.683 125.237 248.136 125.602 247.674C125.967 247.211 126.413 246.849 126.941 246.589C127.475 246.321 128.075 246.188 128.74 246.188C129.346 246.188 129.864 246.292 130.294 246.501C130.73 246.703 131.118 246.986 131.457 247.351V241.868H133.196ZM141.147 251.808C140.346 251.834 139.661 251.899 139.095 252.003C138.534 252.101 138.075 252.231 137.716 252.394C137.365 252.557 137.107 252.749 136.944 252.971C136.788 253.192 136.71 253.44 136.71 253.714C136.71 253.974 136.752 254.199 136.837 254.388C136.922 254.577 137.036 254.733 137.179 254.857C137.329 254.975 137.501 255.062 137.697 255.121C137.899 255.173 138.114 255.199 138.342 255.199C138.648 255.199 138.928 255.17 139.183 255.111C139.437 255.046 139.674 254.955 139.896 254.838C140.124 254.72 140.339 254.58 140.541 254.417C140.75 254.255 140.952 254.069 141.147 253.86V251.808ZM135.527 247.761C136.074 247.234 136.664 246.839 137.296 246.579C137.928 246.318 138.629 246.188 139.398 246.188C139.951 246.188 140.443 246.279 140.873 246.462C141.303 246.644 141.665 246.898 141.958 247.224C142.252 247.55 142.473 247.944 142.623 248.407C142.773 248.869 142.848 249.377 142.848 249.931V256.265H142.076C141.906 256.265 141.776 256.239 141.685 256.186C141.593 256.128 141.522 256.017 141.47 255.854L141.274 254.916C141.013 255.157 140.759 255.372 140.512 255.561C140.264 255.743 140.004 255.9 139.73 256.03C139.456 256.154 139.163 256.248 138.85 256.314C138.544 256.385 138.202 256.421 137.824 256.421C137.44 256.421 137.078 256.369 136.739 256.265C136.4 256.154 136.104 255.991 135.85 255.776C135.602 255.561 135.403 255.291 135.253 254.965C135.11 254.632 135.038 254.241 135.038 253.792C135.038 253.401 135.146 253.026 135.361 252.668C135.576 252.303 135.925 251.98 136.407 251.7C136.889 251.42 137.518 251.192 138.293 251.016C139.069 250.834 140.02 250.729 141.147 250.703V249.931C141.147 249.162 140.981 248.582 140.649 248.192C140.316 247.794 139.831 247.595 139.192 247.595C138.762 247.595 138.401 247.651 138.107 247.761C137.821 247.866 137.57 247.986 137.355 248.123C137.146 248.253 136.964 248.374 136.808 248.485C136.658 248.589 136.508 248.641 136.358 248.641C136.241 248.641 136.14 248.612 136.055 248.553C135.97 248.488 135.899 248.41 135.84 248.319L135.527 247.761ZM145.178 255.19C145.178 255.02 145.208 254.86 145.266 254.711C145.332 254.561 145.416 254.43 145.521 254.32C145.631 254.209 145.762 254.121 145.912 254.056C146.061 253.991 146.221 253.958 146.39 253.958C146.56 253.958 146.719 253.991 146.869 254.056C147.019 254.121 147.15 254.209 147.26 254.32C147.371 254.43 147.459 254.561 147.524 254.711C147.589 254.86 147.622 255.02 147.622 255.19C147.622 255.365 147.589 255.528 147.524 255.678C147.459 255.822 147.371 255.949 147.26 256.059C147.15 256.17 147.019 256.255 146.869 256.314C146.719 256.379 146.56 256.411 146.39 256.411C146.221 256.411 146.061 256.379 145.912 256.314C145.762 256.255 145.631 256.17 145.521 256.059C145.416 255.949 145.332 255.822 145.266 255.678C145.208 255.528 145.178 255.365 145.178 255.19ZM145.178 247.859C145.178 247.69 145.208 247.53 145.266 247.38C145.332 247.23 145.416 247.1 145.521 246.989C145.631 246.879 145.762 246.791 145.912 246.725C146.061 246.66 146.221 246.628 146.39 246.628C146.56 246.628 146.719 246.66 146.869 246.725C147.019 246.791 147.15 246.879 147.26 246.989C147.371 247.1 147.459 247.23 147.524 247.38C147.589 247.53 147.622 247.69 147.622 247.859C147.622 248.035 147.589 248.198 147.524 248.348C147.459 248.491 147.371 248.618 147.26 248.729C147.15 248.84 147.019 248.928 146.869 248.993C146.719 249.052 146.56 249.081 146.39 249.081C146.221 249.081 146.061 249.052 145.912 248.993C145.762 248.928 145.631 248.84 145.521 248.729C145.416 248.618 145.332 248.491 145.266 248.348C145.208 248.198 145.178 248.035 145.178 247.859Z" fill="#D1D1D1"/>
<path d="M79.8203 265.523H659.73" stroke="#D1D1D1" stroke-width="3.25792" stroke-linecap="round"/>
<path d="M33.7381 40.2177H34.3147C34.7969 40.2177 35.1455 40.0678 35.3605 39.7681L38.9475 34.9692C39.1169 34.7411 39.3026 34.5847 39.5046 34.5C39.7066 34.4088 39.9542 34.3632 40.2474 34.3632H42.7885L38.2731 40.1786C37.9799 40.5565 37.6769 40.8269 37.3641 40.9898C37.5922 41.081 37.7974 41.2016 37.9799 41.3514C38.1623 41.4948 38.3382 41.687 38.5076 41.9281L43.1404 48.5449H40.5308C40.3614 48.5449 40.2148 48.5319 40.091 48.5058C39.9737 48.4798 39.8695 48.4439 39.7782 48.3983C39.687 48.3527 39.6088 48.2973 39.5437 48.2322C39.4785 48.1605 39.4166 48.079 39.358 47.9878L35.7123 42.8859C35.5885 42.71 35.4419 42.5862 35.2725 42.5145C35.1031 42.4363 34.8653 42.3972 34.559 42.3972H33.7381V48.5449H30.8059V34.3632H33.7381V40.2177ZM49.9556 36.66V40.3056H54.6861V42.5243H49.9556V46.2481H56.0348V48.5449H47.0039V34.3632H56.0348V36.66H49.9556ZM67.2464 43.0912V48.5449H64.3142V43.0912L59.1635 34.3632H61.7437C61.9978 34.3632 62.1998 34.4251 62.3497 34.5489C62.5061 34.6662 62.6299 34.8193 62.7211 35.0083L65.0473 39.4749C65.2036 39.7746 65.3437 40.0548 65.4675 40.3154C65.5978 40.5761 65.7119 40.8367 65.8096 41.0973C65.9008 40.8367 66.0051 40.5761 66.1224 40.3154C66.2462 40.0483 66.383 39.7681 66.5329 39.4749L68.8395 35.0083C68.9177 34.8519 69.035 34.7053 69.1913 34.5685C69.3477 34.4316 69.5497 34.3632 69.7973 34.3632H72.3971L67.2464 43.0912ZM95.4663 41.4492C95.4663 42.4852 95.2904 43.4398 94.9385 44.3129C94.5932 45.1795 94.1012 45.9256 93.4627 46.5511C92.8306 47.1766 92.0683 47.6653 91.1756 48.0171C90.2829 48.369 89.2925 48.5449 88.2044 48.5449H82.7506V34.3632H88.2044C89.2925 34.3632 90.2829 34.5391 91.1756 34.891C92.0683 35.2428 92.8306 35.7348 93.4627 36.3668C94.1012 36.9923 94.5932 37.7384 94.9385 38.605C95.2904 39.4716 95.4663 40.4197 95.4663 41.4492ZM92.456 41.4492C92.456 40.7064 92.3582 40.0385 92.1628 39.4456C91.9673 38.8526 91.6871 38.3509 91.3222 37.9404C90.9573 37.5299 90.511 37.2139 89.9832 36.9923C89.4619 36.7708 88.869 36.66 88.2044 36.66H85.7023V46.2481H88.2044C88.869 46.2481 89.4619 46.1406 89.9832 45.9256C90.511 45.704 90.9573 45.388 91.3222 44.9775C91.6871 44.5605 91.9673 44.0555 92.1628 43.4626C92.3582 42.8696 92.456 42.1985 92.456 41.4492ZM107.256 43.1596L105.722 38.82C105.63 38.592 105.533 38.3248 105.428 38.0186C105.331 37.7123 105.236 37.38 105.145 37.0217C105.054 37.3866 104.956 37.7254 104.852 38.0381C104.754 38.3444 104.66 38.6115 104.568 38.8396L103.044 43.1596H107.256ZM112.182 48.5449H109.905C109.651 48.5449 109.442 48.4863 109.279 48.369C109.123 48.2452 109.006 48.0888 108.927 47.8999L107.97 45.1925H102.32L101.363 47.8999C101.297 48.0627 101.183 48.2126 101.02 48.3494C100.858 48.4798 100.652 48.5449 100.405 48.5449H98.1079L103.65 34.3632H106.65L112.182 48.5449ZM124.745 36.7284H120.601V48.5449H117.659V36.7284H113.515V34.3632H124.745V36.7284ZM132.063 36.66V40.3056H136.793V42.5243H132.063V46.2481H138.142V48.5449H129.111V34.3632H138.142V36.66H132.063ZM150.624 37.0803C150.533 37.2302 150.438 37.3409 150.341 37.4126C150.249 37.4778 150.129 37.5104 149.979 37.5104C149.836 37.5104 149.679 37.4615 149.51 37.3637C149.347 37.2595 149.155 37.1487 148.933 37.0314C148.712 36.9142 148.458 36.8066 148.171 36.7089C147.884 36.6046 147.549 36.5525 147.164 36.5525C146.487 36.5525 145.978 36.7056 145.64 37.0119C145.301 37.3116 145.131 37.7058 145.131 38.1945C145.131 38.5073 145.222 38.7679 145.405 38.9764C145.594 39.1784 145.838 39.3543 146.138 39.5042C146.444 39.6541 146.79 39.7876 147.174 39.9049C147.558 40.0222 147.953 40.1525 148.357 40.2959C148.761 40.4327 149.155 40.5956 149.539 40.7846C149.924 40.9735 150.266 41.2113 150.565 41.498C150.872 41.7847 151.116 42.1366 151.299 42.5536C151.487 42.9641 151.582 43.4658 151.582 44.0588C151.582 44.7038 151.468 45.3098 151.24 45.8767C151.018 46.437 150.696 46.929 150.272 47.3525C149.849 47.7695 149.324 48.0986 148.699 48.3397C148.08 48.5808 147.376 48.7013 146.588 48.7013C146.138 48.7013 145.688 48.6557 145.239 48.5645C144.796 48.4732 144.366 48.3462 143.949 48.1833C143.538 48.0204 143.15 47.8249 142.786 47.5969C142.421 47.3688 142.101 47.1147 141.828 46.8345L142.688 45.4466C142.76 45.3424 142.854 45.2577 142.971 45.1925C143.089 45.1208 143.212 45.085 143.343 45.085C143.519 45.085 143.704 45.1502 143.9 45.2805C144.095 45.4108 144.32 45.5542 144.574 45.7105C144.828 45.8669 145.122 46.0103 145.454 46.1406C145.793 46.2709 146.197 46.3361 146.666 46.3361C147.35 46.3361 147.878 46.1797 148.249 45.8669C148.627 45.5542 148.816 45.0883 148.816 44.4693C148.816 44.1109 148.722 43.8209 148.533 43.5994C148.35 43.3779 148.109 43.1922 147.809 43.0423C147.51 42.8924 147.167 42.7654 146.783 42.6611C146.399 42.5504 146.004 42.4298 145.6 42.2995C145.196 42.1692 144.802 42.0128 144.418 41.8304C144.033 41.6479 143.691 41.4068 143.392 41.1071C143.092 40.8074 142.847 40.436 142.659 39.9929C142.476 39.5498 142.385 38.9992 142.385 38.3411C142.385 37.8133 142.489 37.3018 142.698 36.8066C142.906 36.3114 143.212 35.8716 143.616 35.4872C144.02 35.1027 144.516 34.7932 145.102 34.5587C145.695 34.3241 146.373 34.2068 147.135 34.2068C147.988 34.2068 148.777 34.3404 149.5 34.6075C150.23 34.8682 150.846 35.2331 151.347 35.7022L150.624 37.0803Z" fill="#BB86FC"/>
<path d="M649.372 37.3393L653.663 41.6303L646.103 49.19H641.812V44.8991L649.372 37.3393ZM659.432 34.4247L656.578 31.5708C656.484 31.476 656.372 31.4007 656.248 31.3493C656.125 31.2979 655.993 31.2715 655.859 31.2715C655.726 31.2715 655.593 31.2979 655.47 31.3493C655.347 31.4007 655.235 31.476 655.141 31.5708L652.226 34.4854L656.517 38.7764L659.432 35.8618C659.527 35.7677 659.602 35.6558 659.653 35.5325C659.705 35.4091 659.731 35.2769 659.731 35.1433C659.731 35.0097 659.705 34.8774 659.653 34.7541C659.602 34.6307 659.527 34.5188 659.432 34.4247V34.4247Z" fill="#D1D1D1" stroke="#D1D1D1" stroke-width="1.01202" stroke-linecap="round" stroke-linejoin="round"/>
</g>
<defs>
<clipPath id="clip0_1742_50709">
<rect width="700.453" height="325.792" fill="white" transform="translate(0 0.321289)"/>
</clipPath>
</defs>
</svg>
