<svg width="330" height="335" viewBox="0 0 330 335" fill="none" xmlns="http://www.w3.org/2000/svg">
<g filter="url(#filter0_d_1742_50711)">
<g clip-path="url(#clip0_1742_50711)">
<rect x="2.44344" y="3.42537" width="320.905" height="320.905" rx="13.8462" fill="#323233"/>
<path d="M39.2211 63.2942V65.679H30.8059V51.4972H33.7381V63.2942H39.2211ZM46.5767 65.679H43.6251V51.4972H46.5767V65.679ZM64.2979 51.4972V65.679H62.783C62.5549 65.679 62.3627 65.6431 62.2063 65.5714C62.0499 65.4933 61.8968 65.3629 61.7469 65.1805L54.6805 56.1886C54.7001 56.4167 54.7131 56.6415 54.7196 56.863C54.7326 57.0846 54.7392 57.2898 54.7392 57.4788V65.679H52.1491V51.4972H53.6934C53.8172 51.4972 53.9214 51.5037 54.0061 51.5168C54.0973 51.5233 54.1788 51.5461 54.2505 51.5852C54.3221 51.6178 54.3906 51.6634 54.4557 51.722C54.5209 51.7807 54.5925 51.8589 54.6707 51.9566L61.786 60.9876C61.76 60.74 61.7404 60.5021 61.7274 60.2741C61.7144 60.0395 61.7078 59.818 61.7078 59.6095V51.4972H64.2979ZM72.8063 57.3517H73.383C73.8652 57.3517 74.2138 57.2019 74.4288 56.9021L78.0158 52.1032C78.1852 51.8752 78.3709 51.7188 78.5729 51.6341C78.7749 51.5428 79.0225 51.4972 79.3157 51.4972H81.8568L77.3414 57.3126C77.0482 57.6905 76.7452 57.9609 76.4324 58.1238C76.6605 58.2151 76.8657 58.3356 77.0482 58.4855C77.2306 58.6288 77.4065 58.821 77.5759 59.0621L82.2087 65.679H79.5991C79.4297 65.679 79.2831 65.6659 79.1593 65.6399C79.042 65.6138 78.9378 65.578 78.8465 65.5323C78.7553 65.4867 78.6771 65.4314 78.612 65.3662C78.5468 65.2945 78.4849 65.2131 78.4263 65.1219L74.7806 60.0199C74.6568 59.844 74.5102 59.7202 74.3408 59.6485C74.1714 59.5704 73.9336 59.5313 73.6273 59.5313H72.8063V65.679H69.8742V51.4972H72.8063V57.3517ZM93.7544 54.2143C93.6631 54.3642 93.5687 54.475 93.4709 54.5466C93.3797 54.6118 93.2592 54.6444 93.1093 54.6444C92.9659 54.6444 92.8096 54.5955 92.6402 54.4978C92.4773 54.3935 92.285 54.2828 92.0635 54.1655C91.842 54.0482 91.5878 53.9407 91.3011 53.8429C91.0144 53.7387 90.6789 53.6866 90.2944 53.6866C89.6168 53.6866 89.1086 53.8397 88.7697 54.1459C88.4309 54.4457 88.2615 54.8399 88.2615 55.3285C88.2615 55.6413 88.3527 55.9019 88.5352 56.1104C88.7241 56.3124 88.9685 56.4884 89.2682 56.6382C89.5744 56.7881 89.9198 56.9217 90.3042 57.039C90.6887 57.1562 91.0829 57.2866 91.4868 57.4299C91.8908 57.5667 92.285 57.7296 92.6695 57.9186C93.0539 58.1076 93.396 58.3454 93.6957 58.6321C94.002 58.9188 94.2463 59.2706 94.4287 59.6876C94.6177 60.0981 94.7122 60.5999 94.7122 61.1928C94.7122 61.8379 94.5982 62.4438 94.3701 63.0107C94.1486 63.5711 93.826 64.063 93.4025 64.4866C92.979 64.9036 92.4544 65.2326 91.8289 65.4737C91.2099 65.7148 90.5062 65.8353 89.7178 65.8353C89.2682 65.8353 88.8186 65.7897 88.369 65.6985C87.9259 65.6073 87.4959 65.4802 87.0789 65.3173C86.6684 65.1544 86.2807 64.959 85.9158 64.7309C85.5509 64.5028 85.2316 64.2487 84.958 63.9685L85.8181 62.5807C85.8897 62.4764 85.9842 62.3917 86.1015 62.3266C86.2188 62.2549 86.3426 62.219 86.4729 62.219C86.6488 62.219 86.8345 62.2842 87.03 62.4145C87.2255 62.5448 87.4503 62.6882 87.7044 62.8446C87.9585 63.0009 88.2517 63.1443 88.584 63.2746C88.9229 63.4049 89.3268 63.4701 89.796 63.4701C90.4801 63.4701 91.0079 63.3137 91.3793 63.0009C91.7573 62.6882 91.9462 62.2223 91.9462 61.6033C91.9462 61.2449 91.8517 60.955 91.6628 60.7334C91.4803 60.5119 91.2392 60.3262 90.9395 60.1763C90.6398 60.0265 90.2977 59.8994 89.9133 59.7952C89.5288 59.6844 89.1346 59.5638 88.7306 59.4335C88.3267 59.3032 87.9325 59.1468 87.548 58.9644C87.1636 58.7819 86.8215 58.5409 86.5218 58.2411C86.222 57.9414 85.9777 57.57 85.7887 57.1269C85.6063 56.6838 85.5151 56.1333 85.5151 55.4752C85.5151 54.9474 85.6193 54.4359 85.8278 53.9407C86.0363 53.4455 86.3426 53.0057 86.7466 52.6212C87.1506 52.2368 87.6458 51.9273 88.2322 51.6927C88.8251 51.4581 89.5028 51.3409 90.2651 51.3409C91.1187 51.3409 91.9071 51.4744 92.6304 51.7416C93.3601 52.0022 93.9759 52.3671 94.4776 52.8362L93.7544 54.2143Z" fill="#BB86FC"/>
<path d="M274.708 54.4729L278.999 58.7638L271.439 66.3236H267.148V62.0326L274.708 54.4729ZM284.768 51.5583L281.914 48.7044C281.82 48.6095 281.708 48.5342 281.584 48.4829C281.461 48.4315 281.329 48.405 281.195 48.405C281.062 48.405 280.929 48.4315 280.806 48.4829C280.683 48.5342 280.571 48.6095 280.477 48.7044L277.562 51.619L281.853 55.9099L284.768 52.9953C284.862 52.9012 284.938 52.7893 284.989 52.666C285.041 52.5427 285.067 52.4104 285.067 52.2768C285.067 52.1432 285.041 52.0109 284.989 51.8876C284.938 51.7643 284.862 51.6523 284.768 51.5583V51.5583Z" fill="#D1D1D1" stroke="#D1D1D1" stroke-width="1.01202" stroke-linecap="round" stroke-linejoin="round"/>
<path d="M70.0472 115.403C70.0472 118.102 67.8593 120.29 65.1603 120.29C62.4614 120.29 60.2734 118.102 60.2734 115.403C60.2734 112.704 62.4614 110.516 65.1603 110.516C67.8593 110.516 70.0472 112.704 70.0472 115.403Z" fill="#D1D1D1"/>
<path d="M107.466 122.044V123.903H98.1961V107.563H100.397V122.044H107.466ZM111.331 112.352V123.903H109.301V112.352H111.331ZM111.764 108.726C111.764 108.923 111.723 109.11 111.639 109.285C111.563 109.452 111.456 109.604 111.32 109.741C111.19 109.87 111.035 109.973 110.852 110.049C110.677 110.125 110.491 110.163 110.293 110.163C110.096 110.163 109.909 110.125 109.735 110.049C109.567 109.973 109.419 109.87 109.29 109.741C109.161 109.604 109.058 109.452 108.982 109.285C108.906 109.11 108.868 108.923 108.868 108.726C108.868 108.528 108.906 108.342 108.982 108.167C109.058 107.985 109.161 107.829 109.29 107.7C109.419 107.563 109.567 107.456 109.735 107.38C109.909 107.304 110.096 107.266 110.293 107.266C110.491 107.266 110.677 107.304 110.852 107.38C111.035 107.456 111.19 107.563 111.32 107.7C111.456 107.829 111.563 107.985 111.639 108.167C111.723 108.342 111.764 108.528 111.764 108.726ZM116.337 114.028C116.588 113.747 116.854 113.492 117.135 113.264C117.417 113.036 117.713 112.842 118.025 112.683C118.344 112.515 118.679 112.39 119.028 112.306C119.386 112.215 119.769 112.169 120.18 112.169C120.811 112.169 121.366 112.276 121.845 112.489C122.331 112.694 122.734 112.99 123.053 113.378C123.38 113.758 123.627 114.218 123.795 114.758C123.962 115.298 124.046 115.894 124.046 116.548V123.903H122.004V116.548C122.004 115.674 121.803 114.997 121.4 114.518C121.005 114.032 120.4 113.789 119.587 113.789C118.987 113.789 118.424 113.933 117.899 114.222C117.383 114.511 116.904 114.902 116.463 115.396V123.903H114.422V112.352H115.642C115.931 112.352 116.109 112.493 116.178 112.774L116.337 114.028ZM128.935 107.107V116.993H129.46C129.612 116.993 129.737 116.974 129.836 116.936C129.942 116.89 130.053 116.803 130.167 116.674L133.815 112.762C133.922 112.633 134.032 112.534 134.146 112.466C134.268 112.39 134.427 112.352 134.625 112.352H136.461L132.208 116.879C132.002 117.137 131.782 117.339 131.546 117.483C131.683 117.574 131.805 117.681 131.911 117.802C132.025 117.916 132.132 118.049 132.23 118.201L136.746 123.903H134.933C134.758 123.903 134.606 123.876 134.477 123.823C134.355 123.762 134.249 123.656 134.158 123.504L130.36 118.772C130.246 118.612 130.132 118.509 130.018 118.464C129.912 118.411 129.745 118.384 129.517 118.384H128.935V123.903H126.894V107.107H128.935ZM153.821 122.352V123.903H145.064V122.352H148.565V111.212C148.565 110.877 148.576 110.539 148.599 110.197L145.691 112.694C145.592 112.778 145.494 112.831 145.395 112.854C145.296 112.869 145.205 112.869 145.121 112.854C145.037 112.838 144.958 112.808 144.882 112.762C144.813 112.717 144.76 112.667 144.722 112.614L144.083 111.736L148.952 107.529H150.606V122.352H153.821Z" fill="#D1D1D1"/>
<path d="M70.0472 185.869C70.0472 188.568 67.8593 190.756 65.1603 190.756C62.4614 190.756 60.2734 188.568 60.2734 185.869C60.2734 183.17 62.4614 180.982 65.1603 180.982C67.8593 180.982 70.0472 183.17 70.0472 185.869Z" fill="#D1D1D1"/>
<path d="M107.466 192.51V194.369H98.1961V178.029H100.397V192.51H107.466ZM111.331 182.818V194.369H109.301V182.818H111.331ZM111.764 179.192C111.764 179.389 111.723 179.576 111.639 179.75C111.563 179.918 111.456 180.07 111.32 180.206C111.19 180.336 111.035 180.438 110.852 180.514C110.677 180.59 110.491 180.628 110.293 180.628C110.096 180.628 109.909 180.59 109.735 180.514C109.567 180.438 109.419 180.336 109.29 180.206C109.161 180.07 109.058 179.918 108.982 179.75C108.906 179.576 108.868 179.389 108.868 179.192C108.868 178.994 108.906 178.808 108.982 178.633C109.058 178.45 109.161 178.295 109.29 178.165C109.419 178.029 109.567 177.922 109.735 177.846C109.909 177.77 110.096 177.732 110.293 177.732C110.491 177.732 110.677 177.77 110.852 177.846C111.035 177.922 111.19 178.029 111.32 178.165C111.456 178.295 111.563 178.45 111.639 178.633C111.723 178.808 111.764 178.994 111.764 179.192ZM116.337 184.494C116.588 184.213 116.854 183.958 117.135 183.73C117.417 183.502 117.713 183.308 118.025 183.148C118.344 182.981 118.679 182.856 119.028 182.772C119.386 182.681 119.769 182.635 120.18 182.635C120.811 182.635 121.366 182.742 121.845 182.955C122.331 183.16 122.734 183.456 123.053 183.844C123.38 184.224 123.627 184.684 123.795 185.224C123.962 185.763 124.046 186.36 124.046 187.014V194.369H122.004V187.014C122.004 186.14 121.803 185.463 121.4 184.984C121.005 184.498 120.4 184.254 119.587 184.254C118.987 184.254 118.424 184.399 117.899 184.688C117.383 184.977 116.904 185.368 116.463 185.862V194.369H114.422V182.818H115.642C115.931 182.818 116.109 182.958 116.178 183.24L116.337 184.494ZM128.935 177.572V187.459H129.46C129.612 187.459 129.737 187.44 129.836 187.402C129.942 187.356 130.053 187.269 130.167 187.139L133.815 183.228C133.922 183.099 134.032 183 134.146 182.932C134.268 182.856 134.427 182.818 134.625 182.818H136.461L132.208 187.345C132.002 187.603 131.782 187.804 131.546 187.949C131.683 188.04 131.805 188.147 131.911 188.268C132.025 188.382 132.132 188.515 132.23 188.667L136.746 194.369H134.933C134.758 194.369 134.606 194.342 134.477 194.289C134.355 194.228 134.249 194.122 134.158 193.97L130.36 189.237C130.246 189.078 130.132 188.975 130.018 188.93C129.912 188.876 129.745 188.85 129.517 188.85H128.935V194.369H126.894V177.572H128.935ZM153.468 192.442C153.688 192.442 153.863 192.506 153.992 192.635C154.122 192.765 154.186 192.932 154.186 193.137V194.369H143.285V193.673C143.285 193.529 143.316 193.38 143.376 193.228C143.437 193.076 143.532 192.936 143.662 192.806L148.895 187.55C149.329 187.109 149.724 186.687 150.081 186.284C150.439 185.874 150.743 185.463 150.993 185.053C151.244 184.642 151.438 184.228 151.575 183.81C151.712 183.384 151.78 182.932 151.78 182.453C151.78 181.974 151.704 181.556 151.552 181.199C151.4 180.834 151.191 180.533 150.925 180.298C150.667 180.062 150.359 179.887 150.001 179.773C149.644 179.652 149.26 179.591 148.85 179.591C148.432 179.591 148.048 179.652 147.698 179.773C147.348 179.895 147.037 180.066 146.763 180.286C146.497 180.499 146.273 180.754 146.09 181.05C145.908 181.347 145.779 181.674 145.703 182.031C145.611 182.297 145.486 182.476 145.326 182.567C145.174 182.65 144.958 182.673 144.676 182.635L143.616 182.453C143.722 181.708 143.928 181.05 144.232 180.48C144.543 179.902 144.931 179.42 145.395 179.032C145.866 178.644 146.402 178.352 147.003 178.154C147.603 177.949 148.253 177.846 148.952 177.846C149.644 177.846 150.29 177.949 150.891 178.154C151.491 178.359 152.012 178.66 152.453 179.055C152.894 179.442 153.24 179.918 153.491 180.48C153.742 181.043 153.867 181.681 153.867 182.396C153.867 183.004 153.776 183.57 153.593 184.095C153.411 184.612 153.164 185.106 152.852 185.577C152.54 186.048 152.179 186.508 151.769 186.957C151.366 187.405 150.936 187.858 150.48 188.314L146.17 192.715C146.474 192.632 146.782 192.567 147.094 192.521C147.405 192.468 147.706 192.442 147.995 192.442H153.468Z" fill="#D1D1D1"/>
<path d="M70.0472 256.335C70.0472 259.034 67.8593 261.222 65.1603 261.222C62.4614 261.222 60.2734 259.034 60.2734 256.335C60.2734 253.636 62.4614 251.448 65.1603 251.448C67.8593 251.448 70.0472 253.636 70.0472 256.335Z" fill="#D1D1D1"/>
<path d="M107.466 262.976V264.835H98.1961V248.495H100.397V262.976H107.466ZM111.331 253.284V264.835H109.301V253.284H111.331ZM111.764 249.658C111.764 249.856 111.723 250.042 111.639 250.217C111.563 250.384 111.456 250.536 111.32 250.673C111.19 250.802 111.035 250.905 110.852 250.981C110.677 251.057 110.491 251.095 110.293 251.095C110.096 251.095 109.909 251.057 109.735 250.981C109.567 250.905 109.419 250.802 109.29 250.673C109.161 250.536 109.058 250.384 108.982 250.217C108.906 250.042 108.868 249.856 108.868 249.658C108.868 249.46 108.906 249.274 108.982 249.099C109.058 248.917 109.161 248.761 109.29 248.632C109.419 248.495 109.567 248.388 109.735 248.312C109.909 248.236 110.096 248.198 110.293 248.198C110.491 248.198 110.677 248.236 110.852 248.312C111.035 248.388 111.19 248.495 111.32 248.632C111.456 248.761 111.563 248.917 111.639 249.099C111.723 249.274 111.764 249.46 111.764 249.658ZM116.337 254.96C116.588 254.679 116.854 254.424 117.135 254.196C117.417 253.968 117.713 253.774 118.025 253.615C118.344 253.447 118.679 253.322 119.028 253.238C119.386 253.147 119.769 253.102 120.18 253.102C120.811 253.102 121.366 253.208 121.845 253.421C122.331 253.626 122.734 253.923 123.053 254.31C123.38 254.69 123.627 255.15 123.795 255.69C123.962 256.23 124.046 256.826 124.046 257.48V264.835H122.004V257.48C122.004 256.606 121.803 255.929 121.4 255.451C121.005 254.964 120.4 254.721 119.587 254.721C118.987 254.721 118.424 254.865 117.899 255.154C117.383 255.443 116.904 255.834 116.463 256.329V264.835H114.422V253.284H115.642C115.931 253.284 116.109 253.425 116.178 253.706L116.337 254.96ZM128.935 248.039V257.925H129.46C129.612 257.925 129.737 257.906 129.836 257.868C129.942 257.822 130.053 257.735 130.167 257.606L133.815 253.695C133.922 253.565 134.032 253.466 134.146 253.398C134.268 253.322 134.427 253.284 134.625 253.284H136.461L132.208 257.811C132.002 258.069 131.782 258.271 131.546 258.415C131.683 258.506 131.805 258.613 131.911 258.735C132.025 258.849 132.132 258.982 132.23 259.134L136.746 264.835H134.933C134.758 264.835 134.606 264.808 134.477 264.755C134.355 264.694 134.249 264.588 134.158 264.436L130.36 259.704C130.246 259.544 130.132 259.441 130.018 259.396C129.912 259.343 129.745 259.316 129.517 259.316H128.935V264.835H126.894V248.039H128.935ZM143.696 252.919C143.802 252.174 144.007 251.517 144.311 250.946C144.616 250.369 144.999 249.886 145.463 249.498C145.934 249.111 146.47 248.818 147.071 248.62C147.679 248.415 148.333 248.312 149.032 248.312C149.724 248.312 150.363 248.411 150.948 248.609C151.533 248.807 152.035 249.088 152.453 249.453C152.879 249.818 153.209 250.258 153.445 250.775C153.681 251.292 153.799 251.866 153.799 252.497C153.799 253.014 153.73 253.478 153.593 253.888C153.464 254.291 153.274 254.645 153.023 254.949C152.78 255.253 152.483 255.511 152.134 255.724C151.784 255.937 151.393 256.112 150.959 256.249C152.024 256.522 152.822 256.994 153.354 257.663C153.894 258.324 154.163 259.153 154.163 260.148C154.163 260.901 154.019 261.578 153.73 262.178C153.449 262.779 153.061 263.292 152.567 263.717C152.073 264.136 151.495 264.459 150.834 264.687C150.18 264.907 149.477 265.017 148.724 265.017C147.858 265.017 147.117 264.911 146.501 264.698C145.885 264.478 145.364 264.177 144.939 263.797C144.513 263.417 144.163 262.969 143.89 262.452C143.616 261.927 143.384 261.361 143.194 260.753L144.072 260.388C144.3 260.289 144.521 260.262 144.733 260.308C144.954 260.354 145.113 260.479 145.212 260.684C145.311 260.897 145.433 261.152 145.577 261.448C145.729 261.745 145.934 262.03 146.193 262.304C146.451 262.577 146.778 262.809 147.174 262.999C147.576 263.189 148.086 263.284 148.702 263.284C149.272 263.284 149.77 263.193 150.195 263.011C150.629 262.82 150.986 262.577 151.267 262.281C151.556 261.984 151.773 261.654 151.917 261.289C152.062 260.924 152.134 260.563 152.134 260.205C152.134 259.765 152.077 259.362 151.963 258.997C151.849 258.632 151.636 258.316 151.324 258.05C151.012 257.784 150.583 257.575 150.036 257.423C149.496 257.271 148.8 257.195 147.949 257.195V255.724C148.648 255.717 149.241 255.641 149.728 255.496C150.222 255.352 150.621 255.154 150.925 254.903C151.237 254.652 151.461 254.352 151.598 254.002C151.742 253.653 151.814 253.265 151.814 252.839C151.814 252.368 151.738 251.957 151.586 251.608C151.442 251.258 151.241 250.969 150.982 250.741C150.724 250.513 150.416 250.342 150.058 250.228C149.709 250.114 149.329 250.057 148.918 250.057C148.508 250.057 148.124 250.118 147.766 250.239C147.417 250.361 147.105 250.532 146.831 250.753C146.565 250.965 146.341 251.22 146.159 251.517C145.976 251.813 145.847 252.14 145.771 252.497C145.672 252.763 145.547 252.942 145.395 253.033C145.25 253.117 145.037 253.14 144.756 253.102L143.696 252.919Z" fill="#D1D1D1"/>
<rect x="2.44344" y="3.42537" width="320.905" height="320.905" rx="13.8462" stroke="#292929" stroke-width="4.88688"/>
</g>
</g>
<defs>
<filter id="filter0_d_1742_50711" x="-4" y="0.981934" width="333.789" height="333.792" filterUnits="userSpaceOnUse" color-interpolation-filters="sRGB">
<feFlood flood-opacity="0" result="BackgroundImageFix"/>
<feColorMatrix in="SourceAlpha" type="matrix" values="0 0 0 0 0 0 0 0 0 0 0 0 0 0 0 0 0 0 127 0" result="hardAlpha"/>
<feOffset dy="4"/>
<feGaussianBlur stdDeviation="2"/>
<feComposite in2="hardAlpha" operator="out"/>
<feColorMatrix type="matrix" values="0 0 0 0 0 0 0 0 0 0 0 0 0 0 0 0 0 0 0.25 0"/>
<feBlend mode="normal" in2="BackgroundImageFix" result="effect1_dropShadow_1742_50711"/>
<feBlend mode="normal" in="SourceGraphic" in2="effect1_dropShadow_1742_50711" result="shape"/>
</filter>
<clipPath id="clip0_1742_50711">
<rect y="0.981934" width="325.792" height="325.792" rx="16.2896" fill="white"/>
</clipPath>
</defs>
</svg>
