<svg width="702" height="327" viewBox="0 0 702 327" fill="none" xmlns="http://www.w3.org/2000/svg">
<g clip-path="url(#clip0_1742_50712)">
<path d="M16.9537 3.42537H684.827C692.474 3.42537 698.673 9.62451 698.673 17.2715V310.484C698.673 318.131 692.474 324.33 684.827 324.33H16.9537C9.30664 324.33 3.1075 318.131 3.1075 310.484V17.2715C3.1075 9.62449 9.30663 3.42537 16.9537 3.42537Z" fill="#323233" stroke="#292929" stroke-width="4.88688"/>
<path d="M47.108 31.7663V45.948H44.518V37.2396C44.518 37.0571 44.5212 36.8617 44.5277 36.6532C44.5408 36.4446 44.5603 36.2329 44.5864 36.0179L40.5303 43.7098C40.3087 44.1333 39.9666 44.3451 39.504 44.3451H39.0935C38.8655 44.3451 38.6635 44.293 38.4875 44.1887C38.3116 44.078 38.1715 43.9183 38.0673 43.7098L33.9916 35.9885C34.0112 36.2166 34.0275 36.4381 34.0405 36.6532C34.0535 36.8617 34.06 37.0571 34.06 37.2396V45.948H31.47V31.7663H33.6984C33.8222 31.7663 33.933 31.7695 34.0307 31.7761C34.1284 31.7826 34.2132 31.8021 34.2848 31.8347C34.363 31.8608 34.4314 31.9064 34.4901 31.9715C34.5552 32.0302 34.6171 32.1149 34.6758 32.2256L38.6439 39.7905C38.7677 40.0186 38.8818 40.2532 38.986 40.4942C39.0968 40.7353 39.201 40.9829 39.2988 41.237C39.3965 40.9764 39.4975 40.7223 39.6018 40.4747C39.7125 40.2271 39.8298 39.9893 39.9536 39.7612L43.8924 32.2256C43.9511 32.1149 44.013 32.0302 44.0781 31.9715C44.1433 31.9064 44.2117 31.8608 44.2834 31.8347C44.3616 31.8021 44.4463 31.7826 44.5375 31.7761C44.6352 31.7695 44.7493 31.7663 44.8796 31.7663H47.108ZM55.621 34.0631V37.7087H60.3515V39.9274H55.621V43.6512H61.7003V45.948H52.6694V31.7663H61.7003V34.0631H55.621ZM69.4519 34.0631V37.7087H74.1824V39.9274H69.4519V43.6512H75.5312V45.948H66.5002V31.7663H75.5312V34.0631H69.4519ZM90.3688 34.1315H86.2247V45.948H83.2828V34.1315H79.1387V31.7663H90.3688V34.1315ZM97.6864 45.948H94.7347V31.7663H97.6864V45.948ZM115.408 31.7663V45.948H113.893C113.665 45.948 113.472 45.9122 113.316 45.8405C113.16 45.7623 113.006 45.632 112.857 45.4495L105.79 36.4577C105.81 36.6857 105.823 36.9105 105.829 37.1321C105.842 37.3536 105.849 37.5589 105.849 37.7478V45.948H103.259V31.7663H104.803C104.927 31.7663 105.031 31.7728 105.116 31.7858C105.207 31.7923 105.288 31.8151 105.36 31.8542C105.432 31.8868 105.5 31.9324 105.565 31.9911C105.631 32.0497 105.702 32.1279 105.78 32.2256L112.896 41.2566C112.87 41.009 112.85 40.7712 112.837 40.5431C112.824 40.3085 112.817 40.087 112.817 39.8785V31.7663H115.408ZM127.884 38.7252H132.751V44.5797C132.028 45.1075 131.256 45.4951 130.435 45.7427C129.621 45.9838 128.757 46.1044 127.845 46.1044C126.679 46.1044 125.623 45.9252 124.678 45.5668C123.734 45.2019 122.926 44.697 122.254 44.0519C121.583 43.4068 121.065 42.6412 120.7 41.7551C120.336 40.8689 120.153 39.9013 120.153 38.8523C120.153 37.7902 120.326 36.8161 120.671 35.9299C121.023 35.0437 121.521 34.2814 122.166 33.6428C122.812 33.0043 123.59 32.5058 124.502 32.1475C125.421 31.7891 126.447 31.6099 127.581 31.6099C128.168 31.6099 128.715 31.6588 129.223 31.7565C129.731 31.8477 130.201 31.978 130.631 32.1475C131.061 32.3103 131.455 32.5058 131.813 32.7339C132.172 32.9619 132.497 33.2128 132.791 33.4865L131.94 34.7961C131.81 35.0046 131.641 35.1317 131.432 35.1773C131.223 35.2229 130.995 35.1708 130.748 35.0209C130.513 34.8776 130.282 34.7505 130.054 34.6398C129.832 34.5225 129.595 34.4215 129.34 34.3368C129.086 34.2521 128.809 34.1869 128.51 34.1413C128.21 34.0957 127.865 34.0729 127.474 34.0729C126.816 34.0729 126.219 34.1869 125.685 34.415C125.151 34.643 124.695 34.9656 124.317 35.3826C123.945 35.7996 123.659 36.3013 123.457 36.8877C123.255 37.4742 123.154 38.129 123.154 38.8523C123.154 39.6342 123.264 40.3346 123.486 40.9536C123.707 41.5661 124.02 42.0841 124.424 42.5076C124.828 42.9312 125.31 43.2537 125.871 43.4752C126.438 43.6968 127.066 43.8075 127.757 43.8075C128.226 43.8075 128.643 43.7619 129.008 43.6707C129.38 43.573 129.741 43.4427 130.093 43.2798V40.895H128.49C128.301 40.895 128.151 40.8461 128.041 40.7484C127.936 40.6441 127.884 40.5138 127.884 40.3574V38.7252ZM157.715 38.8523C157.715 39.8883 157.539 40.8428 157.187 41.716C156.842 42.5826 156.35 43.3286 155.712 43.9542C155.08 44.5797 154.317 45.0684 153.425 45.4202C152.532 45.7721 151.541 45.948 150.453 45.948H145V31.7663H150.453C151.541 31.7663 152.532 31.9422 153.425 32.2941C154.317 32.6459 155.08 33.1379 155.712 33.7699C156.35 34.3954 156.842 35.1415 157.187 36.0081C157.539 36.8747 157.715 37.8227 157.715 38.8523ZM154.705 38.8523C154.705 38.1094 154.607 37.4416 154.412 36.8486C154.216 36.2557 153.936 35.754 153.571 35.3435C153.206 34.933 152.76 34.617 152.232 34.3954C151.711 34.1739 151.118 34.0631 150.453 34.0631H147.951V43.6512H150.453C151.118 43.6512 151.711 43.5437 152.232 43.3286C152.76 43.1071 153.206 42.7911 153.571 42.3806C153.936 41.9636 154.216 41.4586 154.412 40.8656C154.607 40.2727 154.705 39.6016 154.705 38.8523ZM165.428 34.0631V37.7087H170.159V39.9274H165.428V43.6512H171.507V45.948H162.477V31.7663H171.507V34.0631H165.428ZM186.345 34.1315H182.201V45.948H179.259V34.1315H175.115V31.7663H186.345V34.1315ZM196.804 40.5627L195.27 36.2231C195.178 35.9951 195.081 35.7279 194.976 35.4217C194.879 35.1154 194.784 34.7831 194.693 34.4247C194.602 34.7896 194.504 35.1284 194.4 35.4412C194.302 35.7475 194.208 36.0146 194.116 36.2427L192.592 40.5627H196.804ZM201.73 45.948H199.453C199.199 45.948 198.99 45.8894 198.827 45.7721C198.671 45.6483 198.554 45.4919 198.475 45.3029L197.518 42.5956H191.868L190.911 45.3029C190.845 45.4658 190.731 45.6157 190.568 45.7525C190.406 45.8828 190.2 45.948 189.953 45.948H187.656L193.198 31.7663H196.198L201.73 45.948ZM208.601 45.948H205.649V31.7663H208.601V45.948ZM222.588 43.5632V45.948H214.173V31.7663H217.105V43.5632H222.588ZM234.674 34.4834C234.583 34.6332 234.489 34.744 234.391 34.8157C234.3 34.8808 234.179 34.9134 234.029 34.9134C233.886 34.9134 233.73 34.8646 233.56 34.7668C233.397 34.6626 233.205 34.5518 232.984 34.4345C232.762 34.3172 232.508 34.2097 232.221 34.112C231.934 34.0077 231.599 33.9556 231.214 33.9556C230.537 33.9556 230.029 34.1087 229.69 34.415C229.351 34.7147 229.182 35.1089 229.182 35.5976C229.182 35.9104 229.273 36.171 229.455 36.3795C229.644 36.5815 229.888 36.7574 230.188 36.9073C230.494 37.0571 230.84 37.1907 231.224 37.308C231.609 37.4253 232.003 37.5556 232.407 37.6989C232.811 37.8358 233.205 37.9987 233.589 38.1876C233.974 38.3766 234.316 38.6144 234.616 38.9011C234.922 39.1878 235.166 39.5397 235.349 39.9567C235.538 40.3672 235.632 40.8689 235.632 41.4618C235.632 42.1069 235.518 42.7129 235.29 43.2798C235.069 43.8401 234.746 44.3321 234.323 44.7556C233.899 45.1726 233.374 45.5017 232.749 45.7427C232.13 45.9838 231.426 46.1044 230.638 46.1044C230.188 46.1044 229.739 46.0588 229.289 45.9675C228.846 45.8763 228.416 45.7493 227.999 45.5864C227.588 45.4235 227.201 45.228 226.836 44.9999C226.471 44.7719 226.152 44.5178 225.878 44.2376L226.738 42.8497C226.81 42.7455 226.904 42.6608 227.022 42.5956C227.139 42.5239 227.263 42.4881 227.393 42.4881C227.569 42.4881 227.755 42.5532 227.95 42.6836C228.146 42.8139 228.37 42.9572 228.624 43.1136C228.879 43.27 229.172 43.4133 229.504 43.5437C229.843 43.674 230.247 43.7391 230.716 43.7391C231.4 43.7391 231.928 43.5827 232.299 43.27C232.677 42.9572 232.866 42.4913 232.866 41.8723C232.866 41.514 232.772 41.224 232.583 41.0025C232.4 40.7809 232.159 40.5952 231.86 40.4454C231.56 40.2955 231.218 40.1684 230.833 40.0642C230.449 39.9534 230.055 39.8329 229.651 39.7026C229.247 39.5723 228.852 39.4159 228.468 39.2334C228.084 39.051 227.742 38.8099 227.442 38.5102C227.142 38.2104 226.898 37.839 226.709 37.396C226.526 36.9529 226.435 36.4023 226.435 35.7442C226.435 35.2164 226.539 34.7049 226.748 34.2097C226.956 33.7145 227.263 33.2747 227.667 32.8903C228.071 32.5058 228.566 32.1963 229.152 31.9618C229.745 31.7272 230.423 31.6099 231.185 31.6099C232.039 31.6099 232.827 31.7435 233.55 32.0106C234.28 32.2713 234.896 32.6361 235.398 33.1053L234.674 34.4834Z" fill="#BB86FC"/>
<path d="M651.786 34.7422L656.077 39.0331L648.518 46.5929H644.227V42.3019L651.786 34.7422ZM661.846 31.8276L658.992 28.9737C658.898 28.8788 658.786 28.8035 658.663 28.7521C658.539 28.7008 658.407 28.6743 658.273 28.6743C658.14 28.6743 658.007 28.7008 657.884 28.7521C657.761 28.8035 657.649 28.8788 657.555 28.9737L654.64 31.8883L658.931 36.1792L661.846 33.2646C661.941 33.1705 662.016 33.0586 662.067 32.9353C662.119 32.812 662.145 32.6797 662.145 32.5461C662.145 32.4125 662.119 32.2802 662.067 32.1569C662.016 32.0336 661.941 31.9216 661.846 31.8276V31.8276Z" fill="#D1D1D1" stroke="#D1D1D1" stroke-width="1.01202" stroke-linecap="round" stroke-linejoin="round"/>
<path d="M46.8766 195.759V209.941H45.3616C45.1336 209.941 44.9414 209.905 44.785 209.834C44.6286 209.755 44.4755 209.625 44.3256 209.443L37.2592 200.451C37.2787 200.679 37.2918 200.904 37.2983 201.125C37.3113 201.347 37.3178 201.552 37.3178 201.741V209.941H34.7278V195.759H36.2721C36.3959 195.759 36.5001 195.766 36.5848 195.779C36.676 195.786 36.7575 195.808 36.8292 195.847C36.9008 195.88 36.9692 195.926 37.0344 195.984C37.0996 196.043 37.1712 196.121 37.2494 196.219L44.3647 205.25C44.3387 205.002 44.3191 204.764 44.3061 204.536C44.293 204.302 44.2865 204.08 44.2865 203.872V195.759H46.8766ZM55.4046 198.056V201.702H60.1351V203.921H55.4046V207.644H61.4839V209.941H52.4529V195.759H61.4839V198.056H55.4046ZM78.1003 209.941H75.1681C74.9727 209.941 74.813 209.892 74.6892 209.795C74.5719 209.697 74.4775 209.583 74.4058 209.452L71.3368 204.233C71.3042 204.305 71.2717 204.377 71.2391 204.448C71.213 204.513 71.1804 204.575 71.1414 204.634L68.2288 209.452C68.1441 209.576 68.0431 209.69 67.9258 209.795C67.815 209.892 67.6717 209.941 67.4957 209.941H64.7591L69.4016 202.64L64.935 195.759H67.8671C68.0626 195.759 68.206 195.786 68.2972 195.838C68.3884 195.89 68.4699 195.974 68.5415 196.092L71.5909 201.106C71.6235 201.027 71.6594 200.949 71.6985 200.871C71.7376 200.786 71.7832 200.702 71.8353 200.617L74.5719 196.141C74.6501 196.01 74.7348 195.916 74.8261 195.857C74.9238 195.792 75.0411 195.759 75.1779 195.759H77.983L73.4773 202.513L78.1003 209.941ZM92.214 198.125H88.0699V209.941H85.128V198.125H80.9839V195.759H92.214V198.125ZM118.871 195.759V209.941H116.281V201.233C116.281 201.05 116.284 200.855 116.291 200.646C116.304 200.438 116.323 200.226 116.35 200.011L112.293 207.703C112.072 208.127 111.73 208.338 111.267 208.338H110.857C110.629 208.338 110.427 208.286 110.251 208.182C110.075 208.071 109.935 207.911 109.83 207.703L105.755 199.982C105.774 200.21 105.791 200.431 105.804 200.646C105.817 200.855 105.823 201.05 105.823 201.233V209.941H103.233V195.759H105.462C105.585 195.759 105.696 195.763 105.794 195.769C105.892 195.776 105.976 195.795 106.048 195.828C106.126 195.854 106.195 195.9 106.253 195.965C106.318 196.023 106.38 196.108 106.439 196.219L110.407 203.784C110.531 204.012 110.645 204.246 110.749 204.487C110.86 204.728 110.964 204.976 111.062 205.23C111.16 204.97 111.261 204.715 111.365 204.468C111.476 204.22 111.593 203.982 111.717 203.754L115.656 196.219C115.714 196.108 115.776 196.023 115.841 195.965C115.906 195.9 115.975 195.854 116.047 195.828C116.125 195.795 116.209 195.776 116.301 195.769C116.398 195.763 116.512 195.759 116.643 195.759H118.871ZM127.384 198.056V201.702H132.115V203.921H127.384V207.644H133.464V209.941H124.433V195.759H133.464V198.056H127.384ZM141.215 198.056V201.702H145.946V203.921H141.215V207.644H147.294V209.941H138.263V195.759H147.294V198.056H141.215ZM162.132 198.125H157.988V209.941H155.046V198.125H150.902V195.759H162.132V198.125ZM169.45 209.941H166.498V195.759H169.45V209.941ZM187.171 195.759V209.941H185.656C185.428 209.941 185.236 209.905 185.079 209.834C184.923 209.755 184.77 209.625 184.62 209.443L177.553 200.451C177.573 200.679 177.586 200.904 177.592 201.125C177.605 201.347 177.612 201.552 177.612 201.741V209.941H175.022V195.759H176.566C176.69 195.759 176.794 195.766 176.879 195.779C176.97 195.786 177.052 195.808 177.123 195.847C177.195 195.88 177.263 195.926 177.329 195.984C177.394 196.043 177.465 196.121 177.544 196.219L184.659 205.25C184.633 205.002 184.613 204.764 184.6 204.536C184.587 204.302 184.581 204.08 184.581 203.872V195.759H187.171ZM199.647 202.718H204.515V208.573C203.791 209.101 203.019 209.488 202.198 209.736C201.384 209.977 200.52 210.098 199.608 210.098C198.442 210.098 197.386 209.918 196.442 209.56C195.497 209.195 194.689 208.69 194.018 208.045C193.346 207.4 192.828 206.634 192.464 205.748C192.099 204.862 191.916 203.894 191.916 202.845C191.916 201.783 192.089 200.809 192.434 199.923C192.786 199.037 193.285 198.275 193.93 197.636C194.575 196.997 195.353 196.499 196.266 196.141C197.184 195.782 198.211 195.603 199.344 195.603C199.931 195.603 200.478 195.652 200.986 195.75C201.495 195.841 201.964 195.971 202.394 196.141C202.824 196.304 203.218 196.499 203.576 196.727C203.935 196.955 204.261 197.206 204.554 197.48L203.703 198.789C203.573 198.998 203.404 199.125 203.195 199.17C202.987 199.216 202.759 199.164 202.511 199.014C202.276 198.871 202.045 198.744 201.817 198.633C201.596 198.516 201.358 198.415 201.104 198.33C200.849 198.245 200.573 198.18 200.273 198.134C199.973 198.089 199.628 198.066 199.237 198.066C198.579 198.066 197.983 198.18 197.448 198.408C196.914 198.636 196.458 198.959 196.08 199.376C195.708 199.793 195.422 200.294 195.22 200.881C195.018 201.467 194.917 202.122 194.917 202.845C194.917 203.627 195.028 204.328 195.249 204.947C195.471 205.559 195.783 206.077 196.187 206.501C196.591 206.924 197.074 207.247 197.634 207.468C198.201 207.69 198.83 207.801 199.52 207.801C199.989 207.801 200.406 207.755 200.771 207.664C201.143 207.566 201.504 207.436 201.856 207.273V204.888H200.253C200.064 204.888 199.914 204.839 199.804 204.742C199.699 204.637 199.647 204.507 199.647 204.351V202.718Z" fill="#BB86FC"/>
<path d="M65.8284 84.2694C65.8284 86.9684 63.6405 89.1563 60.9416 89.1563C58.2426 89.1563 56.0547 86.9684 56.0547 84.2694C56.0547 81.5705 58.2426 79.3826 60.9416 79.3826C63.6405 79.3826 65.8284 81.5705 65.8284 84.2694Z" fill="#D1D1D1"/>
<path d="M108.139 84.6049C108.139 85.8288 107.946 86.9425 107.558 87.9459C107.17 88.9494 106.623 89.8084 105.916 90.523C105.209 91.2375 104.358 91.7925 103.362 92.1877C102.374 92.5754 101.279 92.7693 100.078 92.7693H93.9773V76.4292H100.078C101.279 76.4292 102.374 76.6268 103.362 77.0221C104.358 77.4098 105.209 77.9648 105.916 78.6869C106.623 79.4015 107.17 80.2605 107.558 81.2639C107.946 82.2674 108.139 83.3811 108.139 84.6049ZM105.87 84.6049C105.87 83.6015 105.734 82.7045 105.46 81.9139C105.186 81.1233 104.798 80.4544 104.297 79.907C103.795 79.3597 103.187 78.9416 102.472 78.6527C101.758 78.3639 100.96 78.2194 100.078 78.2194H96.1894V90.9791H100.078C100.96 90.9791 101.758 90.8346 102.472 90.5458C103.187 90.2569 103.795 89.8426 104.297 89.3029C104.798 88.7555 105.186 88.0866 105.46 87.296C105.734 86.5054 105.87 85.6084 105.87 84.6049ZM116.574 87.5696C115.639 87.6001 114.84 87.6761 114.179 87.7977C113.525 87.9117 112.989 88.0638 112.571 88.2538C112.161 88.4439 111.861 88.6681 111.671 88.9266C111.488 89.185 111.397 89.4739 111.397 89.7932C111.397 90.0973 111.446 90.3595 111.545 90.58C111.644 90.8004 111.777 90.9829 111.944 91.1273C112.119 91.2641 112.32 91.3668 112.549 91.4352C112.784 91.496 113.035 91.5264 113.301 91.5264C113.658 91.5264 113.985 91.4922 114.282 91.4238C114.578 91.3477 114.856 91.2413 115.114 91.1045C115.38 90.9677 115.631 90.8042 115.867 90.6142C116.11 90.4241 116.346 90.2075 116.574 89.9642V87.5696ZM110.017 82.8489C110.656 82.2332 111.344 81.7733 112.081 81.4692C112.818 81.1651 113.636 81.0131 114.533 81.0131C115.179 81.0131 115.753 81.1195 116.254 81.3324C116.756 81.5452 117.178 81.8417 117.52 82.2218C117.862 82.6019 118.121 83.0618 118.295 83.6015C118.47 84.1412 118.558 84.7342 118.558 85.3803V92.7693H117.657C117.459 92.7693 117.307 92.7389 117.201 92.6781C117.094 92.6096 117.011 92.4804 116.95 92.2904L116.722 91.1957C116.418 91.477 116.121 91.7278 115.833 91.9483C115.544 92.1611 115.24 92.3436 114.92 92.4956C114.601 92.6401 114.259 92.7503 113.894 92.8263C113.537 92.9099 113.138 92.9517 112.697 92.9517C112.248 92.9517 111.826 92.8909 111.431 92.7693C111.036 92.6401 110.69 92.45 110.393 92.1992C110.105 91.9483 109.873 91.6328 109.698 91.2527C109.531 90.865 109.447 90.4089 109.447 89.8844C109.447 89.4283 109.572 88.9912 109.823 88.5731C110.074 88.1474 110.481 87.7711 111.043 87.4442C111.606 87.1173 112.339 86.8513 113.244 86.646C114.149 86.4332 115.259 86.3115 116.574 86.2811V85.3803C116.574 84.4833 116.38 83.8068 115.992 83.3506C115.604 82.8869 115.038 82.6551 114.293 82.6551C113.791 82.6551 113.37 82.7197 113.027 82.8489C112.693 82.9706 112.4 83.1112 112.149 83.2708C111.906 83.4229 111.693 83.5635 111.511 83.6927C111.336 83.8144 111.161 83.8752 110.986 83.8752C110.85 83.8752 110.732 83.841 110.633 83.7725C110.534 83.6965 110.45 83.6053 110.382 83.4989L110.017 82.8489ZM124.795 92.9517C123.883 92.9517 123.18 92.6971 122.686 92.1877C122.199 91.6784 121.956 90.9449 121.956 89.987V82.9173H120.565C120.443 82.9173 120.341 82.8831 120.257 82.8147C120.174 82.7387 120.132 82.6247 120.132 82.4726V81.663L122.025 81.4236L122.492 77.8545C122.515 77.7405 122.564 77.6493 122.64 77.5809C122.724 77.5049 122.83 77.4668 122.96 77.4668H123.986V81.4464H127.327V82.9173H123.986V89.8502C123.986 90.3367 124.104 90.6978 124.339 90.9334C124.575 91.1691 124.879 91.2869 125.252 91.2869C125.464 91.2869 125.647 91.2603 125.799 91.2071C125.959 91.1463 126.095 91.0817 126.209 91.0133C126.323 90.9449 126.418 90.884 126.495 90.8308C126.578 90.77 126.65 90.7396 126.711 90.7396C126.818 90.7396 126.913 90.8042 126.996 90.9334L127.589 91.9027C127.239 92.2296 126.818 92.488 126.323 92.6781C125.829 92.8605 125.32 92.9517 124.795 92.9517ZM136.843 85.7338C136.843 85.2625 136.774 84.833 136.637 84.4453C136.508 84.05 136.314 83.7117 136.056 83.4305C135.805 83.1416 135.497 82.9211 135.132 82.7691C134.767 82.6095 134.353 82.5296 133.889 82.5296C132.916 82.5296 132.145 82.8147 131.575 83.3849C131.012 83.9474 130.662 84.7304 130.525 85.7338H136.843ZM138.485 91.1501C138.234 91.4542 137.933 91.7202 137.584 91.9483C137.234 92.1687 136.858 92.3512 136.455 92.4956C136.06 92.6401 135.649 92.7465 135.223 92.8149C134.798 92.8909 134.376 92.9289 133.958 92.9289C133.159 92.9289 132.422 92.7959 131.746 92.5298C131.077 92.2562 130.495 91.8609 130.001 91.3439C129.514 90.8194 129.134 90.1733 128.861 89.4055C128.587 88.6377 128.45 87.7559 128.45 86.7601C128.45 85.9543 128.572 85.2017 128.815 84.5023C129.066 83.803 129.423 83.1986 129.887 82.6893C130.351 82.1724 130.917 81.7695 131.586 81.4806C132.255 81.1841 133.007 81.0359 133.844 81.0359C134.535 81.0359 135.174 81.1537 135.759 81.3894C136.352 81.6174 136.862 81.9519 137.287 82.3928C137.721 82.8261 138.059 83.3658 138.302 84.012C138.545 84.6506 138.667 85.3803 138.667 86.2013C138.667 86.5206 138.633 86.7334 138.564 86.8399C138.496 86.9463 138.367 86.9995 138.177 86.9995H130.457C130.48 87.7293 130.579 88.364 130.754 88.9038C130.936 89.4435 131.187 89.8958 131.506 90.2607C131.825 90.618 132.205 90.8878 132.646 91.0703C133.087 91.2451 133.581 91.3325 134.129 91.3325C134.638 91.3325 135.075 91.2755 135.44 91.1615C135.813 91.0399 136.132 90.9106 136.398 90.7738C136.664 90.637 136.884 90.5115 137.059 90.3975C137.242 90.2759 137.398 90.2151 137.527 90.2151C137.694 90.2151 137.823 90.2797 137.914 90.4089L138.485 91.1501ZM150.406 84.719C149.6 85.1447 148.992 85.6616 148.582 86.2697C148.179 86.8779 147.977 87.5392 147.977 88.2538C147.977 88.7479 148.069 89.185 148.251 89.5651C148.433 89.9376 148.673 90.2531 148.969 90.5115C149.266 90.77 149.604 90.9677 149.984 91.1045C150.364 91.2337 150.752 91.2983 151.147 91.2983C151.999 91.2983 152.763 91.1425 153.439 90.8308C154.123 90.5192 154.72 90.1011 155.229 89.5765L150.406 84.719ZM160.942 92.7693H158.97C158.749 92.7693 158.57 92.7427 158.434 92.6895C158.297 92.6363 158.149 92.526 157.989 92.3588L156.336 90.694C155.621 91.3858 154.796 91.9369 153.861 92.3474C152.934 92.7503 151.911 92.9517 150.794 92.9517C150.186 92.9517 149.589 92.8491 149.004 92.6439C148.426 92.4386 147.905 92.1421 147.441 91.7544C146.978 91.3592 146.605 90.8802 146.324 90.3177C146.043 89.7552 145.902 89.1204 145.902 88.4134C145.902 87.8813 145.989 87.3796 146.164 86.9083C146.347 86.4294 146.598 85.9885 146.917 85.5856C147.236 85.1827 147.612 84.8216 148.046 84.5023C148.479 84.183 148.954 83.9094 149.471 83.6813C149.007 83.0884 148.665 82.5182 148.445 81.9709C148.224 81.416 148.114 80.842 148.114 80.2491C148.114 79.6942 148.213 79.1735 148.411 78.6869C148.616 78.2004 148.909 77.7785 149.289 77.4212C149.669 77.0563 150.129 76.7713 150.668 76.566C151.216 76.3532 151.828 76.2468 152.504 76.2468C153.105 76.2468 153.652 76.3456 154.146 76.5432C154.64 76.7333 155.066 76.9879 155.423 77.3072C155.781 77.6265 156.062 77.999 156.267 78.4247C156.48 78.8428 156.602 79.2799 156.632 79.736L155.366 79.9868C155.115 80.0477 154.929 79.9298 154.808 79.6334C154.754 79.4357 154.667 79.2305 154.545 79.0176C154.431 78.8048 154.279 78.6109 154.089 78.4361C153.907 78.2612 153.683 78.1168 153.416 78.0028C153.158 77.8887 152.854 77.8317 152.504 77.8317C152.124 77.8317 151.778 77.8925 151.467 78.0142C151.163 78.1358 150.9 78.3068 150.68 78.5273C150.467 78.7401 150.304 78.9948 150.189 79.2913C150.075 79.5801 150.018 79.8956 150.018 80.2377C150.018 80.5038 150.049 80.7584 150.11 81.0017C150.17 81.2449 150.265 81.492 150.395 81.7429C150.532 81.9937 150.703 82.2484 150.908 82.5068C151.113 82.7653 151.36 83.039 151.649 83.3278L156.347 88.1056C156.636 87.5887 156.868 87.0527 157.043 86.4978C157.217 85.9353 157.331 85.3765 157.385 84.8216C157.4 84.6772 157.445 84.5631 157.521 84.4795C157.597 84.3959 157.704 84.3541 157.841 84.3541H159.084C159.076 85.2283 158.939 86.0873 158.673 86.9311C158.407 87.7673 158.023 88.5541 157.521 89.2915L160.942 92.7693ZM178.926 78.2878H173.635V92.7693H171.434V78.2878H166.132V76.4292H178.926V78.2878ZM182.704 81.2183V92.7693H180.675V81.2183H182.704ZM183.138 77.5923C183.138 77.7899 183.096 77.9762 183.012 78.151C182.936 78.3182 182.83 78.4703 182.693 78.6071C182.564 78.7363 182.408 78.839 182.225 78.915C182.051 78.991 181.864 79.029 181.667 79.029C181.469 79.029 181.283 78.991 181.108 78.915C180.941 78.839 180.792 78.7363 180.663 78.6071C180.534 78.4703 180.431 78.3182 180.355 78.151C180.279 77.9762 180.241 77.7899 180.241 77.5923C180.241 77.3946 180.279 77.2084 180.355 77.0335C180.431 76.8511 180.534 76.6953 180.663 76.566C180.792 76.4292 180.941 76.3228 181.108 76.2468C181.283 76.1707 181.469 76.1327 181.667 76.1327C181.864 76.1327 182.051 76.1707 182.225 76.2468C182.408 76.3228 182.564 76.4292 182.693 76.566C182.83 76.6953 182.936 76.8511 183.012 77.0335C183.096 77.2084 183.138 77.3946 183.138 77.5923ZM185.795 92.7693V81.2183H187.015C187.304 81.2183 187.482 81.359 187.551 81.6402L187.699 82.8261C188.125 82.3016 188.604 81.8721 189.136 81.5376C189.668 81.2031 190.284 81.0359 190.983 81.0359C191.758 81.0359 192.386 81.2525 192.865 81.6858C193.351 82.1192 193.701 82.7045 193.914 83.4419C194.081 83.0238 194.294 82.6627 194.552 82.3586C194.818 82.0545 195.115 81.8037 195.442 81.606C195.768 81.4084 196.114 81.2639 196.479 81.1727C196.852 81.0815 197.228 81.0359 197.608 81.0359C198.216 81.0359 198.756 81.1347 199.227 81.3324C199.706 81.5224 200.109 81.8037 200.436 82.1762C200.77 82.5487 201.025 83.0086 201.2 83.5559C201.375 84.0956 201.462 84.7152 201.462 85.4145V92.7693H199.421V85.4145C199.421 84.5099 199.223 83.8258 198.828 83.362C198.433 82.8907 197.863 82.6551 197.118 82.6551C196.783 82.6551 196.464 82.7159 196.16 82.8375C195.863 82.9515 195.601 83.1226 195.373 83.3506C195.145 83.5787 194.963 83.8676 194.826 84.2173C194.697 84.5593 194.632 84.9584 194.632 85.4145V92.7693H192.591V85.4145C192.591 84.4871 192.405 83.7954 192.032 83.3392C191.66 82.8831 191.116 82.6551 190.402 82.6551C189.9 82.6551 189.436 82.7919 189.01 83.0656C188.585 83.3316 188.193 83.6965 187.836 84.1602V92.7693H185.795ZM212.034 85.7338C212.034 85.2625 211.965 84.833 211.828 84.4453C211.699 84.05 211.505 83.7117 211.247 83.4305C210.996 83.1416 210.688 82.9211 210.323 82.7691C209.958 82.6095 209.544 82.5296 209.08 82.5296C208.107 82.5296 207.336 82.8147 206.766 83.3849C206.203 83.9474 205.853 84.7304 205.717 85.7338H212.034ZM213.676 91.1501C213.425 91.4542 213.125 91.7202 212.775 91.9483C212.425 92.1687 212.049 92.3512 211.646 92.4956C211.251 92.6401 210.84 92.7465 210.414 92.8149C209.989 92.8909 209.567 92.9289 209.149 92.9289C208.351 92.9289 207.613 92.7959 206.937 92.5298C206.268 92.2562 205.686 91.8609 205.192 91.3439C204.706 90.8194 204.325 90.1733 204.052 89.4055C203.778 88.6377 203.641 87.7559 203.641 86.7601C203.641 85.9543 203.763 85.2017 204.006 84.5023C204.257 83.803 204.614 83.1986 205.078 82.6893C205.542 82.1724 206.108 81.7695 206.777 81.4806C207.446 81.1841 208.199 81.0359 209.035 81.0359C209.727 81.0359 210.365 81.1537 210.95 81.3894C211.543 81.6174 212.053 81.9519 212.478 82.3928C212.912 82.8261 213.25 83.3658 213.493 84.012C213.736 84.6506 213.858 85.3803 213.858 86.2013C213.858 86.5206 213.824 86.7334 213.755 86.8399C213.687 86.9463 213.558 86.9995 213.368 86.9995H205.648C205.671 87.7293 205.77 88.364 205.945 88.9038C206.127 89.4435 206.378 89.8958 206.697 90.2607C207.016 90.618 207.397 90.8878 207.837 91.0703C208.278 91.2451 208.772 91.3325 209.32 91.3325C209.829 91.3325 210.266 91.2755 210.631 91.1615C211.004 91.0399 211.323 90.9106 211.589 90.7738C211.855 90.637 212.075 90.5115 212.25 90.3975C212.433 90.2759 212.589 90.2151 212.718 90.2151C212.885 90.2151 213.014 90.2797 213.106 90.4089L213.676 91.1501Z" fill="#D1D1D1"/>
<path d="M91.8906 100.769H648.995" stroke="#D1D1D1" stroke-width="3.25792" stroke-linecap="round"/>
<path d="M65.8284 133.559C65.8284 136.258 63.6405 138.446 60.9416 138.446C58.2426 138.446 56.0547 136.258 56.0547 133.559C56.0547 130.86 58.2426 128.672 60.9416 128.672C63.6405 128.672 65.8284 130.86 65.8284 133.559Z" fill="#D1D1D1"/>
<path d="M103.248 140.2V142.059H93.9773V125.719H96.178V140.2H103.248ZM109.014 130.325C109.857 130.325 110.617 130.466 111.294 130.747C111.971 131.029 112.548 131.428 113.027 131.945C113.506 132.462 113.871 133.089 114.122 133.826C114.38 134.556 114.51 135.373 114.51 136.278C114.51 137.19 114.38 138.011 114.122 138.741C113.871 139.47 113.506 140.094 113.027 140.611C112.548 141.128 111.971 141.527 111.294 141.808C110.617 142.082 109.857 142.218 109.014 142.218C108.162 142.218 107.394 142.082 106.71 141.808C106.034 141.527 105.456 141.128 104.977 140.611C104.498 140.094 104.129 139.47 103.871 138.741C103.62 138.011 103.495 137.19 103.495 136.278C103.495 135.373 103.62 134.556 103.871 133.826C104.129 133.089 104.498 132.462 104.977 131.945C105.456 131.428 106.034 131.029 106.71 130.747C107.394 130.466 108.162 130.325 109.014 130.325ZM109.014 140.633C110.154 140.633 111.005 140.253 111.568 139.493C112.13 138.725 112.412 137.657 112.412 136.289C112.412 134.913 112.13 133.841 111.568 133.073C111.005 132.306 110.154 131.922 109.014 131.922C108.436 131.922 107.93 132.021 107.497 132.218C107.071 132.416 106.714 132.701 106.425 133.073C106.144 133.446 105.931 133.906 105.787 134.453C105.65 134.993 105.581 135.605 105.581 136.289C105.581 137.657 105.863 138.725 106.425 139.493C106.995 140.253 107.858 140.633 109.014 140.633ZM124.879 132.56C124.818 132.644 124.757 132.709 124.696 132.754C124.635 132.8 124.552 132.823 124.445 132.823C124.331 132.823 124.206 132.777 124.069 132.686C123.932 132.587 123.761 132.481 123.556 132.367C123.358 132.253 123.111 132.15 122.815 132.059C122.526 131.96 122.168 131.91 121.743 131.91C121.173 131.91 120.671 132.013 120.238 132.218C119.804 132.416 119.439 132.705 119.143 133.085C118.854 133.465 118.634 133.925 118.482 134.465C118.337 135.004 118.265 135.609 118.265 136.278C118.265 136.977 118.345 137.6 118.504 138.148C118.664 138.687 118.888 139.144 119.177 139.516C119.474 139.881 119.827 140.162 120.238 140.36C120.656 140.55 121.123 140.645 121.64 140.645C122.134 140.645 122.541 140.588 122.86 140.474C123.18 140.352 123.442 140.219 123.647 140.075C123.86 139.93 124.035 139.801 124.172 139.687C124.316 139.565 124.457 139.505 124.593 139.505C124.761 139.505 124.89 139.569 124.981 139.698L125.551 140.44C125.3 140.751 125.015 141.017 124.696 141.238C124.377 141.458 124.031 141.645 123.658 141.797C123.294 141.941 122.91 142.047 122.507 142.116C122.104 142.184 121.693 142.218 121.275 142.218C120.553 142.218 119.88 142.085 119.257 141.819C118.641 141.553 118.105 141.169 117.649 140.668C117.193 140.158 116.836 139.535 116.577 138.798C116.319 138.06 116.19 137.22 116.19 136.278C116.19 135.419 116.307 134.624 116.543 133.894C116.786 133.165 117.136 132.538 117.592 132.013C118.056 131.481 118.622 131.067 119.291 130.77C119.968 130.474 120.743 130.325 121.617 130.325C122.431 130.325 123.145 130.458 123.761 130.725C124.384 130.983 124.936 131.352 125.414 131.831L124.879 132.56ZM133.746 136.859C132.811 136.89 132.013 136.966 131.351 137.087C130.698 137.201 130.162 137.353 129.743 137.543C129.333 137.733 129.033 137.958 128.843 138.216C128.66 138.475 128.569 138.763 128.569 139.083C128.569 139.387 128.618 139.649 128.717 139.87C128.816 140.09 128.949 140.272 129.116 140.417C129.291 140.554 129.493 140.656 129.721 140.725C129.956 140.786 130.207 140.816 130.473 140.816C130.831 140.816 131.157 140.782 131.454 140.713C131.75 140.637 132.028 140.531 132.286 140.394C132.552 140.257 132.803 140.094 133.039 139.904C133.282 139.714 133.518 139.497 133.746 139.254V136.859ZM127.189 132.138C127.828 131.523 128.516 131.063 129.253 130.759C129.991 130.455 130.808 130.303 131.705 130.303C132.351 130.303 132.925 130.409 133.427 130.622C133.928 130.835 134.35 131.131 134.692 131.511C135.034 131.891 135.293 132.351 135.468 132.891C135.642 133.431 135.73 134.024 135.73 134.67V142.059H134.829C134.631 142.059 134.479 142.028 134.373 141.968C134.267 141.899 134.183 141.77 134.122 141.58L133.894 140.485C133.59 140.767 133.294 141.017 133.005 141.238C132.716 141.451 132.412 141.633 132.092 141.785C131.773 141.93 131.431 142.04 131.066 142.116C130.709 142.199 130.31 142.241 129.869 142.241C129.42 142.241 128.999 142.18 128.603 142.059C128.208 141.93 127.862 141.74 127.566 141.489C127.277 141.238 127.045 140.922 126.87 140.542C126.703 140.155 126.619 139.698 126.619 139.174C126.619 138.718 126.745 138.281 126.995 137.863C127.246 137.437 127.653 137.061 128.216 136.734C128.778 136.407 129.512 136.141 130.416 135.936C131.321 135.723 132.431 135.601 133.746 135.571V134.67C133.746 133.773 133.552 133.096 133.164 132.64C132.777 132.176 132.21 131.945 131.465 131.945C130.964 131.945 130.542 132.009 130.2 132.138C129.865 132.26 129.572 132.401 129.322 132.56C129.078 132.712 128.865 132.853 128.683 132.982C128.508 133.104 128.333 133.165 128.159 133.165C128.022 133.165 127.904 133.131 127.805 133.062C127.706 132.986 127.623 132.895 127.554 132.788L127.189 132.138ZM149.14 142.059H147.11V132.207H141.158V139.14C141.158 139.626 141.276 139.987 141.512 140.223C141.747 140.459 142.051 140.576 142.424 140.576C142.637 140.576 142.819 140.55 142.971 140.497C143.131 140.436 143.268 140.371 143.382 140.303C143.496 140.234 143.591 140.174 143.667 140.12C143.75 140.06 143.822 140.029 143.883 140.029C143.99 140.029 144.085 140.094 144.168 140.223L144.761 141.192C144.412 141.519 143.99 141.778 143.496 141.968C143.002 142.15 142.492 142.241 141.968 142.241C141.055 142.241 140.352 141.987 139.858 141.477C139.372 140.968 139.128 140.234 139.128 139.277V132.207H137.737C137.616 132.207 137.513 132.173 137.429 132.104C137.346 132.028 137.304 131.914 137.304 131.762V130.953L139.197 130.702L139.664 127.144C139.687 127.03 139.737 126.939 139.813 126.87C139.896 126.794 140.003 126.756 140.132 126.756H141.158V130.736H149.14V142.059ZM149.642 126.802C149.642 127 149.6 127.186 149.516 127.361C149.44 127.528 149.334 127.676 149.197 127.805C149.068 127.935 148.916 128.037 148.741 128.113C148.566 128.189 148.38 128.227 148.182 128.227C147.984 128.227 147.798 128.189 147.623 128.113C147.456 128.037 147.308 127.935 147.179 127.805C147.049 127.676 146.947 127.528 146.871 127.361C146.795 127.186 146.757 127 146.757 126.802C146.757 126.604 146.795 126.418 146.871 126.243C146.947 126.061 147.049 125.905 147.179 125.776C147.308 125.639 147.456 125.533 147.623 125.456C147.798 125.38 147.984 125.342 148.182 125.342C148.38 125.342 148.566 125.38 148.741 125.456C148.916 125.533 149.068 125.639 149.197 125.776C149.334 125.905 149.44 126.061 149.516 126.243C149.6 126.418 149.642 126.604 149.642 126.802ZM157.099 130.325C157.943 130.325 158.703 130.466 159.38 130.747C160.056 131.029 160.634 131.428 161.113 131.945C161.592 132.462 161.957 133.089 162.207 133.826C162.466 134.556 162.595 135.373 162.595 136.278C162.595 137.19 162.466 138.011 162.207 138.741C161.957 139.47 161.592 140.094 161.113 140.611C160.634 141.128 160.056 141.527 159.38 141.808C158.703 142.082 157.943 142.218 157.099 142.218C156.248 142.218 155.48 142.082 154.796 141.808C154.119 141.527 153.541 141.128 153.062 140.611C152.584 140.094 152.215 139.47 151.956 138.741C151.705 138.011 151.58 137.19 151.58 136.278C151.58 135.373 151.705 134.556 151.956 133.826C152.215 133.089 152.584 132.462 153.062 131.945C153.541 131.428 154.119 131.029 154.796 130.747C155.48 130.466 156.248 130.325 157.099 130.325ZM157.099 140.633C158.239 140.633 159.091 140.253 159.653 139.493C160.216 138.725 160.497 137.657 160.497 136.289C160.497 134.913 160.216 133.841 159.653 133.073C159.091 132.306 158.239 131.922 157.099 131.922C156.521 131.922 156.016 132.021 155.582 132.218C155.157 132.416 154.799 132.701 154.511 133.073C154.229 133.446 154.016 133.906 153.872 134.453C153.735 134.993 153.667 135.605 153.667 136.289C153.667 137.657 153.948 138.725 154.511 139.493C155.081 140.253 155.944 140.633 157.099 140.633ZM166.841 132.184C167.092 131.903 167.358 131.648 167.639 131.42C167.92 131.192 168.217 130.998 168.528 130.839C168.848 130.671 169.182 130.546 169.532 130.462C169.889 130.371 170.273 130.325 170.683 130.325C171.314 130.325 171.869 130.432 172.348 130.645C172.835 130.85 173.238 131.146 173.557 131.534C173.884 131.914 174.131 132.374 174.298 132.914C174.465 133.454 174.549 134.05 174.549 134.704V142.059H172.508V134.704C172.508 133.83 172.306 133.153 171.904 132.674C171.508 132.188 170.904 131.945 170.091 131.945C169.49 131.945 168.927 132.089 168.403 132.378C167.886 132.667 167.407 133.058 166.966 133.552V142.059H164.925V130.508H166.145C166.434 130.508 166.613 130.649 166.681 130.93L166.841 132.184Z" fill="#D1D1D1"/>
<path d="M91.8906 150.059H648.995" stroke="#D1D1D1" stroke-width="3.25792" stroke-linecap="round"/>
<path d="M65.8284 247.165C65.8284 249.864 63.6405 252.052 60.9416 252.052C58.2426 252.052 56.0547 249.864 56.0547 247.165C56.0547 244.466 58.2426 242.278 60.9416 242.278C63.6405 242.278 65.8284 244.466 65.8284 247.165Z" fill="#D1D1D1"/>
<path d="M108.139 247.501C108.139 248.725 107.946 249.838 107.558 250.842C107.17 251.845 106.623 252.704 105.916 253.419C105.209 254.133 104.358 254.688 103.362 255.084C102.374 255.471 101.279 255.665 100.078 255.665H93.9773V239.325H100.078C101.279 239.325 102.374 239.523 103.362 239.918C104.358 240.306 105.209 240.861 105.916 241.583C106.623 242.297 107.17 243.156 107.558 244.16C107.946 245.163 108.139 246.277 108.139 247.501ZM105.87 247.501C105.87 246.497 105.734 245.6 105.46 244.81C105.186 244.019 104.798 243.35 104.297 242.803C103.795 242.255 103.187 241.837 102.472 241.548C101.758 241.26 100.96 241.115 100.078 241.115H96.1894V253.875H100.078C100.96 253.875 101.758 253.73 102.472 253.442C103.187 253.153 103.795 252.738 104.297 252.199C104.798 251.651 105.186 250.982 105.46 250.192C105.734 249.401 105.87 248.504 105.87 247.501ZM116.574 250.465C115.639 250.496 114.84 250.572 114.179 250.693C113.525 250.807 112.989 250.96 112.571 251.15C112.161 251.34 111.861 251.564 111.671 251.822C111.488 252.081 111.397 252.37 111.397 252.689C111.397 252.993 111.446 253.255 111.545 253.476C111.644 253.696 111.777 253.879 111.944 254.023C112.119 254.16 112.32 254.263 112.549 254.331C112.784 254.392 113.035 254.422 113.301 254.422C113.658 254.422 113.985 254.388 114.282 254.32C114.578 254.244 114.856 254.137 115.114 254C115.38 253.863 115.631 253.7 115.867 253.51C116.11 253.32 116.346 253.103 116.574 252.86V250.465ZM110.017 245.745C110.656 245.129 111.344 244.669 112.081 244.365C112.818 244.061 113.636 243.909 114.533 243.909C115.179 243.909 115.753 244.015 116.254 244.228C116.756 244.441 117.178 244.737 117.52 245.118C117.862 245.498 118.121 245.958 118.295 246.497C118.47 247.037 118.558 247.63 118.558 248.276V255.665H117.657C117.459 255.665 117.307 255.635 117.201 255.574C117.094 255.505 117.011 255.376 116.95 255.186L116.722 254.091C116.418 254.373 116.121 254.624 115.833 254.844C115.544 255.057 115.24 255.239 114.92 255.391C114.601 255.536 114.259 255.646 113.894 255.722C113.537 255.806 113.138 255.847 112.697 255.847C112.248 255.847 111.826 255.787 111.431 255.665C111.036 255.536 110.69 255.346 110.393 255.095C110.105 254.844 109.873 254.529 109.698 254.148C109.531 253.761 109.447 253.305 109.447 252.78C109.447 252.324 109.572 251.887 109.823 251.469C110.074 251.043 110.481 250.667 111.043 250.34C111.606 250.013 112.339 249.747 113.244 249.542C114.149 249.329 115.259 249.207 116.574 249.177V248.276C116.574 247.379 116.38 246.703 115.992 246.246C115.604 245.783 115.038 245.551 114.293 245.551C113.791 245.551 113.37 245.615 113.027 245.745C112.693 245.866 112.4 246.007 112.149 246.167C111.906 246.319 111.693 246.459 111.511 246.588C111.336 246.71 111.161 246.771 110.986 246.771C110.85 246.771 110.732 246.737 110.633 246.668C110.534 246.592 110.45 246.501 110.382 246.395L110.017 245.745ZM124.795 255.847C123.883 255.847 123.18 255.593 122.686 255.084C122.199 254.574 121.956 253.841 121.956 252.883V245.813H120.565C120.443 245.813 120.341 245.779 120.257 245.71C120.174 245.634 120.132 245.52 120.132 245.368V244.559L122.025 244.319L122.492 240.75C122.515 240.636 122.564 240.545 122.64 240.477C122.724 240.401 122.83 240.363 122.96 240.363H123.986V244.342H127.327V245.813H123.986V252.746C123.986 253.232 124.104 253.594 124.339 253.829C124.575 254.065 124.879 254.183 125.252 254.183C125.464 254.183 125.647 254.156 125.799 254.103C125.959 254.042 126.095 253.977 126.209 253.909C126.323 253.841 126.418 253.78 126.495 253.727C126.578 253.666 126.65 253.635 126.711 253.635C126.818 253.635 126.913 253.7 126.996 253.829L127.589 254.798C127.239 255.125 126.818 255.384 126.323 255.574C125.829 255.756 125.32 255.847 124.795 255.847ZM136.843 248.63C136.843 248.158 136.774 247.729 136.637 247.341C136.508 246.946 136.314 246.607 136.056 246.326C135.805 246.037 135.497 245.817 135.132 245.665C134.767 245.505 134.353 245.425 133.889 245.425C132.916 245.425 132.145 245.71 131.575 246.281C131.012 246.843 130.662 247.626 130.525 248.63H136.843ZM138.485 254.046C138.234 254.35 137.933 254.616 137.584 254.844C137.234 255.064 136.858 255.247 136.455 255.391C136.06 255.536 135.649 255.642 135.223 255.711C134.798 255.787 134.376 255.825 133.958 255.825C133.159 255.825 132.422 255.692 131.746 255.426C131.077 255.152 130.495 254.757 130.001 254.24C129.514 253.715 129.134 253.069 128.861 252.301C128.587 251.533 128.45 250.652 128.45 249.656C128.45 248.85 128.572 248.097 128.815 247.398C129.066 246.699 129.423 246.094 129.887 245.585C130.351 245.068 130.917 244.665 131.586 244.376C132.255 244.08 133.007 243.932 133.844 243.932C134.535 243.932 135.174 244.049 135.759 244.285C136.352 244.513 136.862 244.848 137.287 245.289C137.721 245.722 138.059 246.262 138.302 246.908C138.545 247.546 138.667 248.276 138.667 249.097C138.667 249.416 138.633 249.629 138.564 249.736C138.496 249.842 138.367 249.895 138.177 249.895H130.457C130.48 250.625 130.579 251.26 130.754 251.8C130.936 252.339 131.187 252.792 131.506 253.156C131.825 253.514 132.205 253.784 132.646 253.966C133.087 254.141 133.581 254.228 134.129 254.228C134.638 254.228 135.075 254.171 135.44 254.057C135.813 253.936 136.132 253.806 136.398 253.67C136.664 253.533 136.884 253.407 137.059 253.293C137.242 253.172 137.398 253.111 137.527 253.111C137.694 253.111 137.823 253.175 137.914 253.305L138.485 254.046ZM150.406 247.615C149.6 248.04 148.992 248.557 148.582 249.165C148.179 249.774 147.977 250.435 147.977 251.15C147.977 251.644 148.069 252.081 148.251 252.461C148.433 252.833 148.673 253.149 148.969 253.407C149.266 253.666 149.604 253.863 149.984 254C150.364 254.129 150.752 254.194 151.147 254.194C151.999 254.194 152.763 254.038 153.439 253.727C154.123 253.415 154.72 252.997 155.229 252.472L150.406 247.615ZM160.942 255.665H158.97C158.749 255.665 158.57 255.638 158.434 255.585C158.297 255.532 158.149 255.422 157.989 255.255L156.336 253.59C155.621 254.282 154.796 254.833 153.861 255.243C152.934 255.646 151.911 255.847 150.794 255.847C150.186 255.847 149.589 255.745 149.004 255.54C148.426 255.334 147.905 255.038 147.441 254.65C146.978 254.255 146.605 253.776 146.324 253.213C146.043 252.651 145.902 252.016 145.902 251.309C145.902 250.777 145.989 250.275 146.164 249.804C146.347 249.325 146.598 248.884 146.917 248.481C147.236 248.078 147.612 247.717 148.046 247.398C148.479 247.079 148.954 246.805 149.471 246.577C149.007 245.984 148.665 245.414 148.445 244.867C148.224 244.312 148.114 243.738 148.114 243.145C148.114 242.59 148.213 242.069 148.411 241.583C148.616 241.096 148.909 240.674 149.289 240.317C149.669 239.952 150.129 239.667 150.668 239.462C151.216 239.249 151.828 239.143 152.504 239.143C153.105 239.143 153.652 239.241 154.146 239.439C154.64 239.629 155.066 239.884 155.423 240.203C155.781 240.522 156.062 240.895 156.267 241.32C156.48 241.739 156.602 242.176 156.632 242.632L155.366 242.883C155.115 242.943 154.929 242.826 154.808 242.529C154.754 242.331 154.667 242.126 154.545 241.913C154.431 241.701 154.279 241.507 154.089 241.332C153.907 241.157 153.683 241.013 153.416 240.899C153.158 240.784 152.854 240.727 152.504 240.727C152.124 240.727 151.778 240.788 151.467 240.91C151.163 241.032 150.9 241.203 150.68 241.423C150.467 241.636 150.304 241.891 150.189 242.187C150.075 242.476 150.018 242.791 150.018 243.133C150.018 243.4 150.049 243.654 150.11 243.897C150.17 244.141 150.265 244.388 150.395 244.639C150.532 244.889 150.703 245.144 150.908 245.403C151.113 245.661 151.36 245.935 151.649 246.224L156.347 251.001C156.636 250.484 156.868 249.948 157.043 249.394C157.217 248.831 157.331 248.272 157.385 247.717C157.4 247.573 157.445 247.459 157.521 247.375C157.597 247.292 157.704 247.25 157.841 247.25H159.084C159.076 248.124 158.939 248.983 158.673 249.827C158.407 250.663 158.023 251.45 157.521 252.187L160.942 255.665ZM178.926 241.184H173.635V255.665H171.434V241.184H166.132V239.325H178.926V241.184ZM182.704 244.114V255.665H180.675V244.114H182.704ZM183.138 240.488C183.138 240.686 183.096 240.872 183.012 241.047C182.936 241.214 182.83 241.366 182.693 241.503C182.564 241.632 182.408 241.735 182.225 241.811C182.051 241.887 181.864 241.925 181.667 241.925C181.469 241.925 181.283 241.887 181.108 241.811C180.941 241.735 180.792 241.632 180.663 241.503C180.534 241.366 180.431 241.214 180.355 241.047C180.279 240.872 180.241 240.686 180.241 240.488C180.241 240.29 180.279 240.104 180.355 239.929C180.431 239.747 180.534 239.591 180.663 239.462C180.792 239.325 180.941 239.219 181.108 239.143C181.283 239.066 181.469 239.028 181.667 239.028C181.864 239.028 182.051 239.066 182.225 239.143C182.408 239.219 182.564 239.325 182.693 239.462C182.83 239.591 182.936 239.747 183.012 239.929C183.096 240.104 183.138 240.29 183.138 240.488ZM185.795 255.665V244.114H187.015C187.304 244.114 187.482 244.255 187.551 244.536L187.699 245.722C188.125 245.197 188.604 244.768 189.136 244.433C189.668 244.099 190.284 243.932 190.983 243.932C191.758 243.932 192.386 244.148 192.865 244.582C193.351 245.015 193.701 245.6 193.914 246.338C194.081 245.92 194.294 245.558 194.552 245.254C194.818 244.95 195.115 244.699 195.442 244.502C195.768 244.304 196.114 244.16 196.479 244.068C196.852 243.977 197.228 243.932 197.608 243.932C198.216 243.932 198.756 244.03 199.227 244.228C199.706 244.418 200.109 244.699 200.436 245.072C200.77 245.444 201.025 245.904 201.2 246.452C201.375 246.991 201.462 247.611 201.462 248.31V255.665H199.421V248.31C199.421 247.406 199.223 246.722 198.828 246.258C198.433 245.786 197.863 245.551 197.118 245.551C196.783 245.551 196.464 245.612 196.16 245.733C195.863 245.847 195.601 246.018 195.373 246.246C195.145 246.474 194.963 246.763 194.826 247.113C194.697 247.455 194.632 247.854 194.632 248.31V255.665H192.591V248.31C192.591 247.383 192.405 246.691 192.032 246.235C191.66 245.779 191.116 245.551 190.402 245.551C189.9 245.551 189.436 245.688 189.01 245.961C188.585 246.227 188.193 246.592 187.836 247.056V255.665H185.795ZM212.034 248.63C212.034 248.158 211.965 247.729 211.828 247.341C211.699 246.946 211.505 246.607 211.247 246.326C210.996 246.037 210.688 245.817 210.323 245.665C209.958 245.505 209.544 245.425 209.08 245.425C208.107 245.425 207.336 245.71 206.766 246.281C206.203 246.843 205.853 247.626 205.717 248.63H212.034ZM213.676 254.046C213.425 254.35 213.125 254.616 212.775 254.844C212.425 255.064 212.049 255.247 211.646 255.391C211.251 255.536 210.84 255.642 210.414 255.711C209.989 255.787 209.567 255.825 209.149 255.825C208.351 255.825 207.613 255.692 206.937 255.426C206.268 255.152 205.686 254.757 205.192 254.24C204.706 253.715 204.325 253.069 204.052 252.301C203.778 251.533 203.641 250.652 203.641 249.656C203.641 248.85 203.763 248.097 204.006 247.398C204.257 246.699 204.614 246.094 205.078 245.585C205.542 245.068 206.108 244.665 206.777 244.376C207.446 244.08 208.199 243.932 209.035 243.932C209.727 243.932 210.365 244.049 210.95 244.285C211.543 244.513 212.053 244.848 212.478 245.289C212.912 245.722 213.25 246.262 213.493 246.908C213.736 247.546 213.858 248.276 213.858 249.097C213.858 249.416 213.824 249.629 213.755 249.736C213.687 249.842 213.558 249.895 213.368 249.895H205.648C205.671 250.625 205.77 251.26 205.945 251.8C206.127 252.339 206.378 252.792 206.697 253.156C207.016 253.514 207.397 253.784 207.837 253.966C208.278 254.141 208.772 254.228 209.32 254.228C209.829 254.228 210.266 254.171 210.631 254.057C211.004 253.936 211.323 253.806 211.589 253.67C211.855 253.533 212.075 253.407 212.25 253.293C212.433 253.172 212.589 253.111 212.718 253.111C212.885 253.111 213.014 253.175 213.106 253.305L213.676 254.046Z" fill="#D1D1D1"/>
<path d="M91.8906 263.665H648.995" stroke="#D1D1D1" stroke-width="3.25792" stroke-linecap="round"/>
</g>
<defs>
<clipPath id="clip0_1742_50712">
<rect width="700.453" height="325.792" fill="white" transform="translate(0.664062 0.981934)"/>
</clipPath>
</defs>
</svg>
