<svg width="1076" height="327" viewBox="0 0 1076 327" fill="none" xmlns="http://www.w3.org/2000/svg">
<rect x="2.44344" y="6.15145" width="1070.23" height="314.81" rx="13.8462" fill="#323233"/>
<path d="M27.8123 35.2284H23.6682V47.0449H20.7263V35.2284H16.5823V32.8632H27.8123V35.2284ZM38.2714 41.6596L36.7369 37.32C36.6457 37.092 36.548 36.8248 36.4437 36.5186C36.346 36.2123 36.2515 35.88 36.1603 35.5217C36.0691 35.8866 35.9713 36.2254 35.8671 36.5381C35.7693 36.8444 35.6748 37.1115 35.5836 37.3396L34.0589 41.6596H38.2714ZM43.1974 47.0449H40.9201C40.666 47.0449 40.4575 46.9863 40.2946 46.869C40.1382 46.7452 40.0209 46.5888 39.9427 46.3999L38.9849 43.6925H33.3357L32.3778 46.3999C32.3127 46.5627 32.1987 46.7126 32.0358 46.8494C31.8729 46.9798 31.6676 47.0449 31.42 47.0449H29.1232L34.6649 32.8632H37.6654L43.1974 47.0449ZM54.7985 35.5803C54.7073 35.7302 54.6128 35.8409 54.515 35.9126C54.4238 35.9778 54.3033 36.0104 54.1534 36.0104C54.0101 36.0104 53.8537 35.9615 53.6843 35.8637C53.5214 35.7595 53.3292 35.6487 53.1076 35.5314C52.8861 35.4142 52.632 35.3066 52.3453 35.2089C52.0586 35.1046 51.723 35.0525 51.3386 35.0525C50.6609 35.0525 50.1527 35.2056 49.8139 35.5119C49.475 35.8116 49.3056 36.2058 49.3056 36.6945C49.3056 37.0073 49.3968 37.2679 49.5793 37.4764C49.7683 37.6784 50.0126 37.8543 50.3123 38.0042C50.6186 38.1541 50.9639 38.2876 51.3483 38.4049C51.7328 38.5222 52.127 38.6525 52.531 38.7959C52.9349 38.9327 53.3292 39.0956 53.7136 39.2846C54.098 39.4735 54.4401 39.7113 54.7398 39.998C55.0461 40.2847 55.2904 40.6366 55.4729 41.0536C55.6618 41.4641 55.7563 41.9658 55.7563 42.5588C55.7563 43.2038 55.6423 43.8098 55.4142 44.3767C55.1927 44.937 54.8702 45.429 54.4466 45.8525C54.0231 46.2695 53.4986 46.5986 52.873 46.8397C52.254 47.0808 51.5503 47.2013 50.7619 47.2013C50.3123 47.2013 49.8627 47.1557 49.4131 47.0645C48.9701 46.9732 48.54 46.8462 48.123 46.6833C47.7125 46.5204 47.3248 46.3249 46.9599 46.0969C46.595 45.8688 46.2758 45.6147 46.0021 45.3345L46.8622 43.9466C46.9339 43.8424 47.0283 43.7577 47.1456 43.6925C47.2629 43.6208 47.3867 43.585 47.517 43.585C47.693 43.585 47.8787 43.6502 48.0741 43.7805C48.2696 43.9108 48.4944 44.0542 48.7485 44.2105C49.0026 44.3669 49.2959 44.5103 49.6282 44.6406C49.967 44.7709 50.371 44.8361 50.8401 44.8361C51.5243 44.8361 52.0521 44.6797 52.4235 44.3669C52.8014 44.0542 52.9903 43.5883 52.9903 42.9693C52.9903 42.6109 52.8959 42.3209 52.7069 42.0994C52.5244 41.8779 52.2834 41.6922 51.9836 41.5423C51.6839 41.3924 51.3418 41.2654 50.9574 41.1611C50.573 41.0504 50.1787 40.9298 49.7748 40.7995C49.3708 40.6692 48.9766 40.5128 48.5921 40.3304C48.2077 40.1479 47.8656 39.9068 47.5659 39.6071C47.2662 39.3074 47.0218 38.936 46.8329 38.4929C46.6504 38.0498 46.5592 37.4992 46.5592 36.8411C46.5592 36.3133 46.6635 35.8018 46.872 35.3066C47.0805 34.8114 47.3867 34.3716 47.7907 33.9872C48.1947 33.6027 48.6899 33.2932 49.2763 33.0587C49.8692 32.8241 50.5469 32.7068 51.3092 32.7068C52.1628 32.7068 52.9512 32.8404 53.6745 33.1075C54.4043 33.3682 55.02 33.7331 55.5217 34.2022L54.7985 35.5803ZM63.4212 38.7177H63.9978C64.48 38.7177 64.8286 38.5678 65.0436 38.2681L68.6306 33.4692C68.8 33.2411 68.9857 33.0847 69.1877 33C69.3897 32.9088 69.6373 32.8632 69.9305 32.8632H72.4717L67.9562 38.6786C67.663 39.0565 67.36 39.3269 67.0472 39.4898C67.2753 39.581 67.4805 39.7016 67.663 39.8514C67.8454 39.9948 68.0213 40.187 68.1908 40.4281L72.8235 47.0449H70.2139C70.0445 47.0449 69.8979 47.0319 69.7741 47.0058C69.6568 46.9798 69.5526 46.9439 69.4613 46.8983C69.3701 46.8527 69.2919 46.7973 69.2268 46.7322C69.1616 46.6605 69.0997 46.579 69.0411 46.4878L65.3955 41.3859C65.2717 41.21 65.1251 41.0862 64.9556 41.0145C64.7862 40.9363 64.5484 40.8972 64.2422 40.8972H63.4212V47.0449H60.489V32.8632H63.4212V38.7177ZM91.6142 35.5803C91.523 35.7302 91.4285 35.8409 91.3308 35.9126C91.2396 35.9778 91.119 36.0104 90.9692 36.0104C90.8258 36.0104 90.6694 35.9615 90.5 35.8637C90.3371 35.7595 90.1449 35.6487 89.9234 35.5314C89.7018 35.4142 89.4477 35.3066 89.161 35.2089C88.8743 35.1046 88.5388 35.0525 88.1543 35.0525C87.4767 35.0525 86.9684 35.2056 86.6296 35.5119C86.2908 35.8116 86.1214 36.2058 86.1214 36.6945C86.1214 37.0073 86.2126 37.2679 86.395 37.4764C86.584 37.6784 86.8284 37.8543 87.1281 38.0042C87.4343 38.1541 87.7797 38.2876 88.1641 38.4049C88.5485 38.5222 88.9427 38.6525 89.3467 38.7959C89.7507 38.9327 90.1449 39.0956 90.5293 39.2846C90.9138 39.4735 91.2559 39.7113 91.5556 39.998C91.8618 40.2847 92.1062 40.6366 92.2886 41.0536C92.4776 41.4641 92.5721 41.9658 92.5721 42.5588C92.5721 43.2038 92.458 43.8098 92.23 44.3767C92.0084 44.937 91.6859 45.429 91.2624 45.8525C90.8388 46.2695 90.3143 46.5986 89.6888 46.8397C89.0698 47.0808 88.3661 47.2013 87.5777 47.2013C87.1281 47.2013 86.6785 47.1557 86.2289 47.0645C85.7858 46.9732 85.3558 46.8462 84.9388 46.6833C84.5283 46.5204 84.1406 46.3249 83.7757 46.0969C83.4108 45.8688 83.0915 45.6147 82.8179 45.3345L83.6779 43.9466C83.7496 43.8424 83.8441 43.7577 83.9614 43.6925C84.0787 43.6208 84.2025 43.585 84.3328 43.585C84.5087 43.585 84.6944 43.6502 84.8899 43.7805C85.0854 43.9108 85.3102 44.0542 85.5643 44.2105C85.8184 44.3669 86.1116 44.5103 86.4439 44.6406C86.7827 44.7709 87.1867 44.8361 87.6559 44.8361C88.34 44.8361 88.8678 44.6797 89.2392 44.3669C89.6171 44.0542 89.8061 43.5883 89.8061 42.9693C89.8061 42.6109 89.7116 42.3209 89.5226 42.0994C89.3402 41.8779 89.0991 41.6922 88.7994 41.5423C88.4997 41.3924 88.1576 41.2654 87.7731 41.1611C87.3887 41.0504 86.9945 40.9298 86.5905 40.7995C86.1865 40.6692 85.7923 40.5128 85.4079 40.3304C85.0235 40.1479 84.6814 39.9068 84.3817 39.6071C84.0819 39.3074 83.8376 38.936 83.6486 38.4929C83.4662 38.0498 83.375 37.4992 83.375 36.8411C83.375 36.3133 83.4792 35.8018 83.6877 35.3066C83.8962 34.8114 84.2025 34.3716 84.6064 33.9872C85.0104 33.6027 85.5056 33.2932 86.0921 33.0587C86.685 32.8241 87.3626 32.7068 88.125 32.7068C88.9786 32.7068 89.767 32.8404 90.4903 33.1075C91.22 33.3682 91.8358 33.7331 92.3375 34.2022L91.6142 35.5803ZM103.11 44.6992C103.586 44.6992 104.013 44.621 104.391 44.4647C104.769 44.3018 105.088 44.0737 105.349 43.7805C105.609 43.4873 105.808 43.1322 105.945 42.7151C106.082 42.2981 106.15 41.829 106.15 41.3077V32.8632H109.082V41.3077C109.082 42.1678 108.942 42.9595 108.662 43.6827C108.388 44.3995 107.994 45.0185 107.479 45.5398C106.965 46.061 106.339 46.4683 105.603 46.7615C104.866 47.0547 104.036 47.2013 103.11 47.2013C102.185 47.2013 101.351 47.0547 100.608 46.7615C99.872 46.4683 99.2465 46.061 98.7318 45.5398C98.217 45.0185 97.8195 44.3995 97.5394 43.6827C97.2657 42.9595 97.1289 42.1678 97.1289 41.3077V32.8632H100.061V41.3077C100.061 41.829 100.129 42.2981 100.266 42.7151C100.403 43.1322 100.602 43.4873 100.862 43.7805C101.123 44.0737 101.442 44.3018 101.82 44.4647C102.198 44.621 102.628 44.6992 103.11 44.6992ZM130.114 32.8632V47.0449H127.524V38.3365C127.524 38.1541 127.528 37.9586 127.534 37.7501C127.547 37.5416 127.567 37.3298 127.593 37.1148L123.537 44.8067C123.315 45.2303 122.973 45.442 122.51 45.442H122.1C121.872 45.442 121.67 45.3899 121.494 45.2856C121.318 45.1749 121.178 45.0152 121.074 44.8067L116.998 37.0855C117.017 37.3135 117.034 37.5351 117.047 37.7501C117.06 37.9586 117.066 38.1541 117.066 38.3365V47.0449H114.476V32.8632H116.705C116.829 32.8632 116.939 32.8665 117.037 32.873C117.135 32.8795 117.219 32.899 117.291 32.9316C117.369 32.9577 117.438 33.0033 117.496 33.0685C117.562 33.1271 117.623 33.2118 117.682 33.3226L121.65 40.8875C121.774 41.1155 121.888 41.3501 121.992 41.5912C122.103 41.8323 122.207 42.0799 122.305 42.334C122.403 42.0733 122.504 41.8192 122.608 41.5716C122.719 41.324 122.836 41.0862 122.96 40.8581L126.899 33.3226C126.957 33.2118 127.019 33.1271 127.084 33.0685C127.15 33.0033 127.218 32.9577 127.29 32.9316C127.368 32.899 127.453 32.8795 127.544 32.873C127.642 32.8665 127.756 32.8632 127.886 32.8632H130.114ZM151.314 32.8632V47.0449H148.724V38.3365C148.724 38.1541 148.727 37.9586 148.733 37.7501C148.746 37.5416 148.766 37.3298 148.792 37.1148L144.736 44.8067C144.514 45.2303 144.172 45.442 143.71 45.442H143.299C143.071 45.442 142.869 45.3899 142.693 45.2856C142.517 45.1749 142.377 45.0152 142.273 44.8067L138.197 37.0855C138.217 37.3135 138.233 37.5351 138.246 37.7501C138.259 37.9586 138.266 38.1541 138.266 38.3365V47.0449H135.676V32.8632H137.904C138.028 32.8632 138.139 32.8665 138.236 32.873C138.334 32.8795 138.419 32.899 138.491 32.9316C138.569 32.9577 138.637 33.0033 138.696 33.0685C138.761 33.1271 138.823 33.2118 138.881 33.3226L142.85 40.8875C142.973 41.1155 143.087 41.3501 143.192 41.5912C143.302 41.8323 143.407 42.0799 143.504 42.334C143.602 42.0733 143.703 41.8192 143.807 41.5716C143.918 41.324 144.036 41.0862 144.159 40.8581L148.098 33.3226C148.157 33.2118 148.219 33.1271 148.284 33.0685C148.349 33.0033 148.417 32.9577 148.489 32.9316C148.567 32.899 148.652 32.8795 148.743 32.873C148.841 32.8665 148.955 32.8632 149.085 32.8632H151.314ZM164.362 41.6596L162.827 37.32C162.736 37.092 162.638 36.8248 162.534 36.5186C162.436 36.2123 162.342 35.88 162.251 35.5217C162.159 35.8866 162.062 36.2254 161.957 36.5381C161.86 36.8444 161.765 37.1115 161.674 37.3396L160.149 41.6596H164.362ZM169.288 47.0449H167.01C166.756 47.0449 166.548 46.9863 166.385 46.869C166.229 46.7452 166.111 46.5888 166.033 46.3999L165.075 43.6925H159.426L158.468 46.3999C158.403 46.5627 158.289 46.7126 158.126 46.8494C157.963 46.9798 157.758 47.0449 157.51 47.0449H155.214L160.755 32.8632H163.756L169.288 47.0449ZM177.644 39.5778C178.12 39.5778 178.53 39.5191 178.875 39.4018C179.221 39.278 179.504 39.1119 179.726 38.9034C179.947 38.6884 180.11 38.4375 180.214 38.1508C180.319 37.8641 180.371 37.5513 180.371 37.2125C180.371 36.5414 180.146 36.0201 179.696 35.6487C179.253 35.2773 178.576 35.0916 177.663 35.0916H176.139V39.5778H177.644ZM184.515 47.0449H181.866C181.371 47.0449 181.013 46.856 180.791 46.478L178.094 42.1287C177.983 41.9593 177.859 41.8355 177.722 41.7573C177.592 41.6791 177.396 41.64 177.136 41.64H176.139V47.0449H173.207V32.8632H177.663C178.654 32.8632 179.501 32.9675 180.205 33.176C180.908 33.378 181.485 33.6614 181.935 34.0263C182.384 34.3912 182.713 34.8277 182.922 35.336C183.13 35.8377 183.235 36.3915 183.235 36.9975C183.235 37.4666 183.166 37.913 183.029 38.3365C182.899 38.7535 182.707 39.1347 182.453 39.48C182.199 39.8254 181.886 40.1316 181.514 40.3988C181.143 40.6659 180.719 40.8809 180.244 41.0438C180.433 41.1481 180.609 41.2751 180.772 41.425C180.934 41.5684 181.081 41.741 181.211 41.943L184.515 47.0449ZM191.459 47.0449H188.507V32.8632H191.459V47.0449ZM204.714 35.5803C204.622 35.7302 204.528 35.8409 204.43 35.9126C204.339 35.9778 204.218 36.0104 204.069 36.0104C203.925 36.0104 203.769 35.9615 203.599 35.8637C203.437 35.7595 203.244 35.6487 203.023 35.5314C202.801 35.4142 202.547 35.3066 202.26 35.2089C201.974 35.1046 201.638 35.0525 201.254 35.0525C200.576 35.0525 200.068 35.2056 199.729 35.5119C199.39 35.8116 199.221 36.2058 199.221 36.6945C199.221 37.0073 199.312 37.2679 199.494 37.4764C199.683 37.6784 199.928 37.8543 200.227 38.0042C200.534 38.1541 200.879 38.2876 201.264 38.4049C201.648 38.5222 202.042 38.6525 202.446 38.7959C202.85 38.9327 203.244 39.0956 203.629 39.2846C204.013 39.4735 204.355 39.7113 204.655 39.998C204.961 40.2847 205.206 40.6366 205.388 41.0536C205.577 41.4641 205.671 41.9658 205.671 42.5588C205.671 43.2038 205.557 43.8098 205.329 44.3767C205.108 44.937 204.785 45.429 204.362 45.8525C203.938 46.2695 203.414 46.5986 202.788 46.8397C202.169 47.0808 201.465 47.2013 200.677 47.2013C200.227 47.2013 199.778 47.1557 199.328 47.0645C198.885 46.9732 198.455 46.8462 198.038 46.6833C197.628 46.5204 197.24 46.3249 196.875 46.0969C196.51 45.8688 196.191 45.6147 195.917 45.3345L196.777 43.9466C196.849 43.8424 196.943 43.7577 197.061 43.6925C197.178 43.6208 197.302 43.585 197.432 43.585C197.608 43.585 197.794 43.6502 197.989 43.7805C198.185 43.9108 198.41 44.0542 198.664 44.2105C198.918 44.3669 199.211 44.5103 199.543 44.6406C199.882 44.7709 200.286 44.8361 200.755 44.8361C201.439 44.8361 201.967 44.6797 202.339 44.3669C202.717 44.0542 202.905 43.5883 202.905 42.9693C202.905 42.6109 202.811 42.3209 202.622 42.0994C202.44 41.8779 202.199 41.6922 201.899 41.5423C201.599 41.3924 201.257 41.2654 200.873 41.1611C200.488 41.0504 200.094 40.9298 199.69 40.7995C199.286 40.6692 198.892 40.5128 198.507 40.3304C198.123 40.1479 197.781 39.9068 197.481 39.6071C197.181 39.3074 196.937 38.936 196.748 38.4929C196.566 38.0498 196.474 37.4992 196.474 36.8411C196.474 36.3133 196.579 35.8018 196.787 35.3066C196.996 34.8114 197.302 34.3716 197.706 33.9872C198.11 33.6027 198.605 33.2932 199.191 33.0587C199.784 32.8241 200.462 32.7068 201.224 32.7068C202.078 32.7068 202.866 32.8404 203.59 33.1075C204.319 33.3682 204.935 33.7331 205.437 34.2022L204.714 35.5803ZM213.356 35.16V38.8056H218.086V41.0243H213.356V44.7481H219.435V47.0449H210.404V32.8632H219.435V35.16H213.356ZM228.672 39.5778C229.148 39.5778 229.559 39.5191 229.904 39.4018C230.249 39.278 230.533 39.1119 230.754 38.9034C230.976 38.6884 231.139 38.4375 231.243 38.1508C231.347 37.8641 231.399 37.5513 231.399 37.2125C231.399 36.5414 231.174 36.0201 230.725 35.6487C230.282 35.2773 229.604 35.0916 228.692 35.0916H227.167V39.5778H228.672ZM235.543 47.0449H232.895C232.399 47.0449 232.041 46.856 231.82 46.478L229.122 42.1287C229.011 41.9593 228.887 41.8355 228.751 41.7573C228.62 41.6791 228.425 41.64 228.164 41.64H227.167V47.0449H224.235V32.8632H228.692C229.682 32.8632 230.529 32.9675 231.233 33.176C231.937 33.378 232.513 33.6614 232.963 34.0263C233.413 34.3912 233.742 34.8277 233.95 35.336C234.159 35.8377 234.263 36.3915 234.263 36.9975C234.263 37.4666 234.195 37.913 234.058 38.3365C233.927 38.7535 233.735 39.1347 233.481 39.48C233.227 39.8254 232.914 40.1316 232.543 40.3988C232.171 40.6659 231.748 40.8809 231.272 41.0438C231.461 41.1481 231.637 41.2751 231.8 41.425C231.963 41.5684 232.109 41.741 232.24 41.943L235.543 47.0449ZM249.957 40.5649C249.508 40.8907 249.185 41.2491 248.99 41.64C248.794 42.031 248.697 42.4447 248.697 42.8813C248.697 43.2201 248.752 43.5264 248.863 43.8C248.973 44.0672 249.127 44.2985 249.322 44.494C249.518 44.6829 249.749 44.8295 250.016 44.9338C250.283 45.038 250.57 45.0902 250.876 45.0902C251.384 45.0902 251.853 45.0185 252.284 44.8751C252.72 44.7253 253.118 44.5135 253.476 44.2399L249.957 40.5649ZM259.526 47.0449H256.877C256.74 47.0449 256.617 47.0384 256.506 47.0254C256.402 47.0123 256.304 46.9863 256.213 46.9472C256.121 46.9081 256.033 46.856 255.949 46.7908C255.864 46.7256 255.776 46.6442 255.685 46.5465L254.883 45.7059C254.258 46.1816 253.567 46.5497 252.811 46.8104C252.062 47.071 251.257 47.2013 250.397 47.2013C249.843 47.2013 249.299 47.1068 248.765 46.9179C248.231 46.7224 247.755 46.4487 247.338 46.0969C246.921 45.7385 246.585 45.3085 246.331 44.8067C246.077 44.2985 245.95 43.7284 245.95 43.0963C245.95 42.6598 246.019 42.246 246.155 41.8551C246.292 41.4641 246.484 41.1025 246.732 40.7702C246.986 40.4379 247.283 40.1349 247.621 39.8612C247.967 39.5875 248.345 39.353 248.755 39.1575C248.423 38.6753 248.182 38.2062 248.032 37.7501C247.889 37.2875 247.817 36.8313 247.817 36.3818C247.817 35.8865 247.908 35.4174 248.091 34.9743C248.273 34.5247 248.537 34.1338 248.882 33.8015C249.228 33.4627 249.651 33.1955 250.153 33C250.661 32.8046 251.238 32.7068 251.883 32.7068C252.482 32.7068 253.017 32.798 253.486 32.9805C253.955 33.1564 254.352 33.3942 254.678 33.694C255.004 33.9937 255.258 34.3358 255.44 34.7202C255.629 35.1046 255.743 35.5054 255.783 35.9224L254.062 36.2742C253.743 36.3394 253.512 36.2091 253.368 35.8833C253.238 35.5445 253.056 35.2675 252.821 35.0525C252.593 34.831 252.28 34.7202 251.883 34.7202C251.635 34.7202 251.414 34.7658 251.218 34.857C251.023 34.9418 250.857 35.059 250.72 35.2089C250.589 35.3588 250.488 35.5347 250.417 35.7367C250.352 35.9322 250.319 36.1407 250.319 36.3622C250.319 36.5446 250.335 36.7206 250.368 36.89C250.407 37.0594 250.466 37.2321 250.544 37.408C250.629 37.5774 250.739 37.7533 250.876 37.9358C251.013 38.1182 251.179 38.3137 251.375 38.5222L255.02 42.334C255.222 41.9365 255.382 41.5195 255.499 41.0829C255.616 40.6399 255.695 40.187 255.734 39.7244C255.753 39.555 255.809 39.4214 255.9 39.3237C255.998 39.2259 256.128 39.177 256.291 39.177H257.982C257.982 40.0762 257.855 40.9266 257.6 41.728C257.353 42.5294 257.004 43.2657 256.555 43.9369L259.526 47.0449ZM277.672 41.6596L276.138 37.32C276.047 37.092 275.949 36.8248 275.845 36.5186C275.747 36.2123 275.653 35.88 275.561 35.5217C275.47 35.8866 275.372 36.2254 275.268 36.5381C275.17 36.8444 275.076 37.1115 274.985 37.3396L273.46 41.6596H277.672ZM282.598 47.0449H280.321C280.067 47.0449 279.859 46.9863 279.696 46.869C279.539 46.7452 279.422 46.5888 279.344 46.3999L278.386 43.6925H272.737L271.779 46.3999C271.714 46.5627 271.6 46.7126 271.437 46.8494C271.274 46.9798 271.069 47.0449 270.821 47.0449H268.524L274.066 32.8632H277.066L282.598 47.0449ZM294.199 35.5803C294.108 35.7302 294.014 35.8409 293.916 35.9126C293.825 35.9778 293.704 36.0104 293.554 36.0104C293.411 36.0104 293.255 35.9615 293.085 35.8637C292.922 35.7595 292.73 35.6487 292.509 35.5314C292.287 35.4142 292.033 35.3066 291.746 35.2089C291.46 35.1046 291.124 35.0525 290.74 35.0525C290.062 35.0525 289.554 35.2056 289.215 35.5119C288.876 35.8116 288.707 36.2058 288.707 36.6945C288.707 37.0073 288.798 37.2679 288.98 37.4764C289.169 37.6784 289.414 37.8543 289.713 38.0042C290.02 38.1541 290.365 38.2876 290.749 38.4049C291.134 38.5222 291.528 38.6525 291.932 38.7959C292.336 38.9327 292.73 39.0956 293.115 39.2846C293.499 39.4735 293.841 39.7113 294.141 39.998C294.447 40.2847 294.691 40.6366 294.874 41.0536C295.063 41.4641 295.157 41.9658 295.157 42.5588C295.157 43.2038 295.043 43.8098 294.815 44.3767C294.594 44.937 294.271 45.429 293.848 45.8525C293.424 46.2695 292.9 46.5986 292.274 46.8397C291.655 47.0808 290.951 47.2013 290.163 47.2013C289.713 47.2013 289.264 47.1557 288.814 47.0645C288.371 46.9732 287.941 46.8462 287.524 46.6833C287.114 46.5204 286.726 46.3249 286.361 46.0969C285.996 45.8688 285.677 45.6147 285.403 45.3345L286.263 43.9466C286.335 43.8424 286.429 43.7577 286.547 43.6925C286.664 43.6208 286.788 43.585 286.918 43.585C287.094 43.585 287.28 43.6502 287.475 43.7805C287.671 43.9108 287.895 44.0542 288.15 44.2105C288.404 44.3669 288.697 44.5103 289.029 44.6406C289.368 44.7709 289.772 44.8361 290.241 44.8361C290.925 44.8361 291.453 44.6797 291.824 44.3669C292.202 44.0542 292.391 43.5883 292.391 42.9693C292.391 42.6109 292.297 42.3209 292.108 42.0994C291.925 41.8779 291.684 41.6922 291.385 41.5423C291.085 41.3924 290.743 41.2654 290.358 41.1611C289.974 41.0504 289.58 40.9298 289.176 40.7995C288.772 40.6692 288.378 40.5128 287.993 40.3304C287.609 40.1479 287.267 39.9068 286.967 39.6071C286.667 39.3074 286.423 38.936 286.234 38.4929C286.051 38.0498 285.96 37.4992 285.96 36.8411C285.96 36.3133 286.064 35.8018 286.273 35.3066C286.481 34.8114 286.788 34.3716 287.192 33.9872C287.596 33.6027 288.091 33.2932 288.677 33.0587C289.27 32.8241 289.948 32.7068 290.71 32.7068C291.564 32.7068 292.352 32.8404 293.076 33.1075C293.805 33.3682 294.421 33.7331 294.923 34.2022L294.199 35.5803ZM307.572 35.5803C307.481 35.7302 307.387 35.8409 307.289 35.9126C307.198 35.9778 307.077 36.0104 306.927 36.0104C306.784 36.0104 306.627 35.9615 306.458 35.8637C306.295 35.7595 306.103 35.6487 305.881 35.5314C305.66 35.4142 305.406 35.3066 305.119 35.2089C304.832 35.1046 304.497 35.0525 304.112 35.0525C303.435 35.0525 302.926 35.2056 302.588 35.5119C302.249 35.8116 302.079 36.2058 302.079 36.6945C302.079 37.0073 302.171 37.2679 302.353 37.4764C302.542 37.6784 302.786 37.8543 303.086 38.0042C303.392 38.1541 303.738 38.2876 304.122 38.4049C304.507 38.5222 304.901 38.6525 305.305 38.7959C305.709 38.9327 306.103 39.0956 306.487 39.2846C306.872 39.4735 307.214 39.7113 307.514 39.998C307.82 40.2847 308.064 40.6366 308.247 41.0536C308.436 41.4641 308.53 41.9658 308.53 42.5588C308.53 43.2038 308.416 43.8098 308.188 44.3767C307.966 44.937 307.644 45.429 307.22 45.8525C306.797 46.2695 306.272 46.5986 305.647 46.8397C305.028 47.0808 304.324 47.2013 303.536 47.2013C303.086 47.2013 302.636 47.1557 302.187 47.0645C301.744 46.9732 301.314 46.8462 300.897 46.6833C300.486 46.5204 300.099 46.3249 299.734 46.0969C299.369 45.8688 299.05 45.6147 298.776 45.3345L299.636 43.9466C299.708 43.8424 299.802 43.7577 299.919 43.6925C300.037 43.6208 300.16 43.585 300.291 43.585C300.467 43.585 300.652 43.6502 300.848 43.7805C301.043 43.9108 301.268 44.0542 301.522 44.2105C301.776 44.3669 302.07 44.5103 302.402 44.6406C302.741 44.7709 303.145 44.8361 303.614 44.8361C304.298 44.8361 304.826 44.6797 305.197 44.3669C305.575 44.0542 305.764 43.5883 305.764 42.9693C305.764 42.6109 305.67 42.3209 305.481 42.0994C305.298 41.8779 305.057 41.6922 304.757 41.5423C304.458 41.3924 304.116 41.2654 303.731 41.1611C303.347 41.0504 302.953 40.9298 302.549 40.7995C302.145 40.6692 301.75 40.5128 301.366 40.3304C300.981 40.1479 300.639 39.9068 300.34 39.6071C300.04 39.3074 299.796 38.936 299.607 38.4929C299.424 38.0498 299.333 37.4992 299.333 36.8411C299.333 36.3133 299.437 35.8018 299.646 35.3066C299.854 34.8114 300.16 34.3716 300.564 33.9872C300.968 33.6027 301.464 33.2932 302.05 33.0587C302.643 32.8241 303.321 32.7068 304.083 32.7068C304.937 32.7068 305.725 32.8404 306.448 33.1075C307.178 33.3682 307.794 33.7331 308.295 34.2022L307.572 35.5803ZM316.214 47.0449H313.263V32.8632H316.214V47.0449ZM328.687 39.8221H333.554V45.6766C332.831 46.2044 332.059 46.5921 331.238 46.8397C330.424 47.0808 329.56 47.2013 328.648 47.2013C327.482 47.2013 326.426 47.0221 325.481 46.6637C324.537 46.2989 323.729 45.7939 323.057 45.1488C322.386 44.5037 321.868 43.7381 321.503 42.852C321.139 41.9658 320.956 40.9982 320.956 39.9492C320.956 38.8871 321.129 37.913 321.474 37.0268C321.826 36.1407 322.324 35.3783 322.969 34.7398C323.615 34.1012 324.393 33.6027 325.305 33.2444C326.224 32.886 327.25 32.7068 328.384 32.7068C328.971 32.7068 329.518 32.7557 330.026 32.8534C330.534 32.9446 331.004 33.075 331.434 33.2444C331.864 33.4073 332.258 33.6027 332.616 33.8308C332.975 34.0589 333.3 34.3097 333.594 34.5834L332.743 35.8931C332.613 36.1016 332.444 36.2286 332.235 36.2742C332.026 36.3199 331.798 36.2677 331.551 36.1179C331.316 35.9745 331.085 35.8475 330.857 35.7367C330.635 35.6194 330.398 35.5184 330.143 35.4337C329.889 35.349 329.612 35.2838 329.313 35.2382C329.013 35.1926 328.668 35.1698 328.277 35.1698C327.619 35.1698 327.022 35.2838 326.488 35.5119C325.954 35.7399 325.498 36.0625 325.12 36.4795C324.748 36.8965 324.462 37.3982 324.26 37.9846C324.058 38.5711 323.957 39.2259 323.957 39.9492C323.957 40.7311 324.067 41.4315 324.289 42.0505C324.51 42.663 324.823 43.181 325.227 43.6046C325.631 44.0281 326.113 44.3506 326.674 44.5722C327.241 44.7937 327.869 44.9045 328.56 44.9045C329.029 44.9045 329.446 44.8589 329.811 44.7676C330.183 44.6699 330.544 44.5396 330.896 44.3767V41.9919H329.293C329.104 41.9919 328.954 41.943 328.844 41.8453C328.739 41.741 328.687 41.6107 328.687 41.4543V39.8221ZM350.706 32.8632V47.0449H349.191C348.963 47.0449 348.771 47.0091 348.615 46.9374C348.458 46.8592 348.305 46.7289 348.155 46.5465L341.089 37.5546C341.108 37.7827 341.121 38.0075 341.128 38.229C341.141 38.4505 341.148 38.6558 341.148 38.8447V47.0449H338.557V32.8632H340.102C340.226 32.8632 340.33 32.8697 340.414 32.8827C340.506 32.8893 340.587 32.9121 340.659 32.9512C340.731 32.9837 340.799 33.0294 340.864 33.088C340.929 33.1466 341.001 33.2248 341.079 33.3226L348.194 42.3535C348.168 42.1059 348.149 41.8681 348.136 41.64C348.123 41.4055 348.116 41.1839 348.116 40.9754V32.8632H350.706ZM359.234 35.16V38.8056H363.965V41.0243H359.234V44.7481H365.314V47.0449H356.283V32.8632H365.314V35.16H359.234ZM374.551 39.5778C375.026 39.5778 375.437 39.5191 375.782 39.4018C376.128 39.278 376.411 39.1119 376.633 38.9034C376.854 38.6884 377.017 38.4375 377.121 38.1508C377.226 37.8641 377.278 37.5513 377.278 37.2125C377.278 36.5414 377.053 36.0201 376.603 35.6487C376.16 35.2773 375.483 35.0916 374.57 35.0916H373.046V39.5778H374.551ZM381.422 47.0449H378.773C378.278 47.0449 377.919 46.856 377.698 46.478L375 42.1287C374.89 41.9593 374.766 41.8355 374.629 41.7573C374.499 41.6791 374.303 41.64 374.043 41.64H373.046V47.0449H370.113V32.8632H374.57C375.561 32.8632 376.408 32.9675 377.111 33.176C377.815 33.378 378.392 33.6614 378.841 34.0263C379.291 34.3912 379.62 34.8277 379.829 35.336C380.037 35.8377 380.141 36.3915 380.141 36.9975C380.141 37.4666 380.073 37.913 379.936 38.3365C379.806 38.7535 379.614 39.1347 379.359 39.48C379.105 39.8254 378.793 40.1316 378.421 40.3988C378.05 40.6659 377.626 40.8809 377.151 41.0438C377.34 41.1481 377.515 41.2751 377.678 41.425C377.841 41.5684 377.988 41.741 378.118 41.943L381.422 47.0449Z" fill="#BB86FC"/>
<path d="M1028.92 35.8388L1033.21 40.1298L1025.65 47.6895H1021.36V43.3986L1028.92 35.8388ZM1038.98 32.9242L1036.12 30.0703C1036.03 29.9755 1035.92 29.9002 1035.8 29.8488C1035.67 29.7974 1035.54 29.771 1035.41 29.771C1035.27 29.771 1035.14 29.7974 1035.02 29.8488C1034.89 29.9002 1034.78 29.9755 1034.69 30.0703L1031.77 32.985L1036.06 37.2759L1038.98 34.3613C1039.07 34.2672 1039.15 34.1553 1039.2 34.032C1039.25 33.9086 1039.28 33.7764 1039.28 33.6428C1039.28 33.5092 1039.25 33.3769 1039.2 33.2536C1039.15 33.1302 1039.07 33.0183 1038.98 32.9242V32.9242Z" fill="#D1D1D1" stroke="#D1D1D1" stroke-width="1.01202" stroke-linecap="round" stroke-linejoin="round"/>
<path d="M40.7258 113.058H63.5312V89.4385H40.7258V113.058Z" stroke="#D1D1D1" stroke-width="3.25792" stroke-linecap="round" stroke-linejoin="round"/>
<path d="M93.8423 104.09L91.2767 97.4422C91.2007 97.2446 91.1208 97.0165 91.0372 96.7581C90.9536 96.492 90.8738 96.2107 90.7978 95.9143C90.6381 96.53 90.4747 97.0431 90.3074 97.4536L87.7418 104.09H93.8423ZM98.449 110.156H96.7386C96.5409 110.156 96.3813 110.107 96.2597 110.008C96.138 109.909 96.0468 109.784 95.986 109.632L94.458 105.686H87.1261L85.5981 109.632C85.5525 109.769 85.4651 109.89 85.3359 109.997C85.2066 110.103 85.047 110.156 84.8569 110.156H83.1465L89.6803 93.8162H91.9152L98.449 110.156ZM103.9 104.512C104.311 104.512 104.672 104.455 104.984 104.341C105.295 104.227 105.558 104.067 105.771 103.862C105.983 103.657 106.143 103.413 106.249 103.132C106.356 102.843 106.409 102.528 106.409 102.186C106.409 101.479 106.192 100.916 105.759 100.498C105.333 100.08 104.714 99.871 103.9 99.871C103.079 99.871 102.452 100.08 102.019 100.498C101.593 100.916 101.38 101.479 101.38 102.186C101.38 102.528 101.434 102.843 101.54 103.132C101.654 103.413 101.818 103.657 102.03 103.862C102.243 104.067 102.506 104.227 102.817 104.341C103.129 104.455 103.49 104.512 103.9 104.512ZM107.561 110.783C107.561 110.502 107.481 110.274 107.321 110.099C107.162 109.924 106.945 109.788 106.671 109.689C106.405 109.59 106.094 109.521 105.736 109.483C105.379 109.438 104.999 109.404 104.596 109.381C104.201 109.358 103.798 109.335 103.387 109.312C102.977 109.29 102.582 109.252 102.201 109.198C101.776 109.396 101.426 109.647 101.152 109.951C100.886 110.247 100.753 110.597 100.753 111C100.753 111.259 100.818 111.498 100.947 111.718C101.084 111.946 101.289 112.14 101.563 112.3C101.837 112.467 102.179 112.596 102.589 112.688C103.007 112.786 103.498 112.836 104.06 112.836C104.607 112.836 105.098 112.786 105.531 112.688C105.964 112.589 106.329 112.448 106.626 112.266C106.93 112.083 107.162 111.867 107.321 111.616C107.481 111.365 107.561 111.087 107.561 110.783ZM109.625 99.0614V99.814C109.625 100.065 109.465 100.224 109.146 100.293L107.834 100.464C108.093 100.966 108.222 101.521 108.222 102.129C108.222 102.691 108.112 103.204 107.891 103.668C107.679 104.124 107.382 104.516 107.002 104.843C106.622 105.169 106.166 105.42 105.634 105.595C105.102 105.77 104.524 105.857 103.9 105.857C103.361 105.857 102.851 105.793 102.373 105.664C102.129 105.816 101.943 105.979 101.814 106.154C101.685 106.321 101.62 106.492 101.62 106.667C101.62 106.941 101.73 107.15 101.951 107.294C102.179 107.431 102.475 107.53 102.84 107.591C103.205 107.651 103.619 107.689 104.083 107.705C104.554 107.72 105.033 107.746 105.52 107.784C106.014 107.815 106.493 107.872 106.956 107.956C107.428 108.039 107.846 108.176 108.211 108.366C108.576 108.556 108.868 108.818 109.089 109.153C109.317 109.487 109.431 109.921 109.431 110.453C109.431 110.947 109.305 111.426 109.055 111.889C108.811 112.353 108.458 112.764 107.994 113.121C107.53 113.486 106.96 113.775 106.284 113.988C105.615 114.208 104.858 114.318 104.015 114.318C103.171 114.318 102.433 114.235 101.802 114.067C101.171 113.9 100.647 113.676 100.229 113.395C99.8107 113.113 99.4952 112.786 99.2824 112.414C99.0771 112.049 98.9745 111.665 98.9745 111.262C98.9745 110.692 99.1531 110.209 99.5104 109.814C99.8677 109.419 100.358 109.103 100.981 108.868C100.639 108.716 100.366 108.514 100.16 108.263C99.9627 108.005 99.8639 107.659 99.8639 107.226C99.8639 107.059 99.8943 106.887 99.9551 106.713C100.016 106.53 100.107 106.352 100.229 106.177C100.358 105.994 100.514 105.823 100.696 105.664C100.879 105.504 101.092 105.363 101.335 105.242C100.765 104.922 100.32 104.501 100.001 103.976C99.6815 103.444 99.5218 102.828 99.5218 102.129C99.5218 101.566 99.6283 101.057 99.8411 100.601C100.062 100.137 100.366 99.7456 100.753 99.4263C101.141 99.0994 101.601 98.8486 102.133 98.6737C102.673 98.4989 103.262 98.4115 103.9 98.4115C104.402 98.4115 104.87 98.4685 105.303 98.5825C105.736 98.6889 106.132 98.8486 106.489 99.0614H109.625ZM119.032 103.121C119.032 102.649 118.964 102.22 118.827 101.832C118.697 101.437 118.504 101.099 118.245 100.817C117.994 100.529 117.686 100.308 117.322 100.156C116.957 99.9964 116.542 99.9166 116.079 99.9166C115.106 99.9166 114.334 100.202 113.764 100.772C113.201 101.334 112.852 102.117 112.715 103.121H119.032ZM120.674 108.537C120.423 108.841 120.123 109.107 119.773 109.335C119.423 109.556 119.047 109.738 118.644 109.883C118.249 110.027 117.838 110.133 117.413 110.202C116.987 110.278 116.565 110.316 116.147 110.316C115.349 110.316 114.612 110.183 113.935 109.917C113.266 109.643 112.684 109.248 112.19 108.731C111.704 108.206 111.324 107.56 111.05 106.792C110.776 106.025 110.64 105.143 110.64 104.147C110.64 103.341 110.761 102.589 111.004 101.889C111.255 101.19 111.613 100.586 112.076 100.076C112.54 99.5593 113.106 99.1564 113.775 98.8676C114.444 98.5711 115.197 98.4229 116.033 98.4229C116.725 98.4229 117.363 98.5407 117.949 98.7763C118.542 99.0044 119.051 99.3389 119.477 99.7798C119.91 100.213 120.248 100.753 120.492 101.399C120.735 102.038 120.856 102.767 120.856 103.588C120.856 103.908 120.822 104.12 120.754 104.227C120.685 104.333 120.556 104.386 120.366 104.386H112.646C112.669 105.116 112.768 105.751 112.943 106.291C113.125 106.83 113.376 107.283 113.696 107.648C114.015 108.005 114.395 108.275 114.836 108.457C115.277 108.632 115.771 108.72 116.318 108.72C116.827 108.72 117.265 108.662 117.629 108.548C118.002 108.427 118.321 108.298 118.587 108.161C118.853 108.024 119.074 107.899 119.249 107.784C119.431 107.663 119.587 107.602 119.716 107.602C119.883 107.602 120.013 107.667 120.104 107.796L120.674 108.537ZM125.021 100.281C125.272 100 125.538 99.7456 125.819 99.5175C126.1 99.2895 126.397 99.0956 126.708 98.936C127.028 98.7687 127.362 98.6433 127.712 98.5597C128.069 98.4685 128.453 98.4229 128.864 98.4229C129.494 98.4229 130.049 98.5293 130.528 98.7421C131.015 98.9474 131.418 99.2439 131.737 99.6315C132.064 100.012 132.311 100.472 132.478 101.011C132.645 101.551 132.729 102.148 132.729 102.801V110.156H130.688V102.801C130.688 101.927 130.487 101.251 130.084 100.772C129.688 100.285 129.084 100.042 128.271 100.042C127.67 100.042 127.108 100.186 126.583 100.475C126.066 100.764 125.587 101.156 125.146 101.65V110.156H123.105V98.6053H124.325C124.614 98.6053 124.793 98.7459 124.861 99.0272L125.021 100.281ZM143.103 101.353C142.723 100.844 142.313 100.491 141.872 100.293C141.431 100.088 140.937 99.985 140.389 99.985C139.318 99.985 138.493 100.369 137.915 101.137C137.337 101.904 137.048 102.999 137.048 104.421C137.048 105.173 137.113 105.819 137.242 106.359C137.372 106.891 137.562 107.332 137.812 107.682C138.063 108.024 138.371 108.275 138.736 108.434C139.101 108.594 139.515 108.674 139.979 108.674C140.648 108.674 141.229 108.522 141.724 108.218C142.225 107.914 142.685 107.484 143.103 106.929V101.353ZM145.133 93.3601V110.156H143.924C143.635 110.156 143.453 110.016 143.377 109.734L143.195 108.332C142.7 108.925 142.138 109.404 141.507 109.769C140.876 110.133 140.146 110.316 139.318 110.316C138.656 110.316 138.056 110.19 137.516 109.94C136.976 109.681 136.516 109.305 136.136 108.811C135.756 108.317 135.463 107.701 135.258 106.963C135.053 106.226 134.95 105.379 134.95 104.421C134.95 103.569 135.064 102.779 135.292 102.049C135.521 101.312 135.847 100.673 136.273 100.133C136.699 99.5935 137.22 99.1716 137.835 98.8676C138.459 98.5559 139.158 98.4001 139.933 98.4001C140.64 98.4001 141.245 98.5217 141.746 98.7649C142.256 99.0006 142.708 99.3313 143.103 99.757V93.3601H145.133ZM154.355 104.957C153.419 104.987 152.621 105.063 151.96 105.185C151.306 105.299 150.77 105.451 150.352 105.641C149.942 105.831 149.641 106.055 149.451 106.314C149.269 106.572 149.178 106.861 149.178 107.18C149.178 107.484 149.227 107.746 149.326 107.967C149.425 108.187 149.558 108.37 149.725 108.514C149.9 108.651 150.101 108.754 150.329 108.822C150.565 108.883 150.816 108.913 151.082 108.913C151.439 108.913 151.766 108.879 152.063 108.811C152.359 108.735 152.637 108.628 152.895 108.491C153.161 108.355 153.412 108.191 153.648 108.001C153.891 107.811 154.126 107.594 154.355 107.351V104.957ZM147.798 100.236C148.437 99.6201 149.124 99.1602 149.862 98.8562C150.599 98.5521 151.416 98.4001 152.313 98.4001C152.96 98.4001 153.534 98.5065 154.035 98.7193C154.537 98.9322 154.959 99.2286 155.301 99.6087C155.643 99.9888 155.901 100.449 156.076 100.988C156.251 101.528 156.339 102.121 156.339 102.767V110.156H155.438C155.24 110.156 155.088 110.126 154.982 110.065C154.875 109.997 154.792 109.867 154.731 109.677L154.503 108.583C154.199 108.864 153.902 109.115 153.613 109.335C153.324 109.548 153.02 109.731 152.701 109.883C152.382 110.027 152.04 110.137 151.675 110.213C151.318 110.297 150.918 110.339 150.478 110.339C150.029 110.339 149.607 110.278 149.212 110.156C148.817 110.027 148.471 109.837 148.174 109.586C147.885 109.335 147.654 109.02 147.479 108.64C147.311 108.252 147.228 107.796 147.228 107.271C147.228 106.815 147.353 106.378 147.604 105.96C147.855 105.534 148.262 105.158 148.824 104.831C149.387 104.504 150.12 104.238 151.025 104.033C151.93 103.82 153.039 103.699 154.355 103.668V102.767C154.355 101.87 154.161 101.194 153.773 100.738C153.385 100.274 152.819 100.042 152.074 100.042C151.572 100.042 151.15 100.107 150.808 100.236C150.474 100.358 150.181 100.498 149.93 100.658C149.687 100.81 149.474 100.95 149.292 101.08C149.117 101.201 148.942 101.262 148.767 101.262C148.63 101.262 148.513 101.228 148.414 101.16C148.315 101.083 148.231 100.992 148.163 100.886L147.798 100.236ZM174.777 108.605V110.156H166.02V108.605H169.52V97.465C169.52 97.1305 169.532 96.7923 169.554 96.4502L166.647 98.9474C166.548 99.031 166.449 99.0842 166.35 99.107C166.251 99.1222 166.16 99.1222 166.077 99.107C165.993 99.0918 165.913 99.0614 165.837 99.0158C165.769 98.9702 165.715 98.9208 165.677 98.8676L165.039 97.9896L169.908 93.782H171.561V108.605H174.777Z" fill="#D1D1D1"/>
<path d="M32.5781 147.478H1042.53" stroke="#D1D1D1" stroke-width="3.25792" stroke-linecap="round"/>
<path d="M32.5781 176.799H1042.53" stroke="#D1D1D1" stroke-width="3.25792" stroke-linecap="round"/>
<path d="M32.5781 206.12H1042.53" stroke="#D1D1D1" stroke-width="3.25792" stroke-linecap="round"/>
<g clip-path="url(#clip0_1742_50708)">
<path d="M43.3423 267.406L40.7767 260.759C40.7007 260.561 40.6208 260.333 40.5372 260.074C40.4536 259.808 40.3738 259.527 40.2978 259.231C40.1381 259.846 39.9747 260.36 39.8074 260.77L37.2418 267.406H43.3423ZM47.949 273.473H46.2386C46.0409 273.473 45.8813 273.423 45.7597 273.324C45.638 273.226 45.5468 273.1 45.486 272.948L43.958 269.003H36.6261L35.0981 272.948C35.0525 273.085 34.9651 273.207 34.8359 273.313C34.7066 273.419 34.547 273.473 34.3569 273.473H32.6465L39.1803 257.133H41.4152L47.949 273.473ZM56.1029 263.826C56.0117 263.993 55.8711 264.077 55.681 264.077C55.567 264.077 55.4378 264.035 55.2933 263.951C55.1489 263.868 54.9702 263.777 54.7574 263.678C54.5521 263.571 54.3051 263.476 54.0162 263.393C53.7274 263.301 53.3853 263.256 52.99 263.256C52.6479 263.256 52.34 263.301 52.0664 263.393C51.7927 263.476 51.557 263.594 51.3594 263.746C51.1693 263.898 51.0211 264.077 50.9147 264.282C50.8159 264.48 50.7664 264.696 50.7664 264.932C50.7664 265.228 50.8501 265.476 51.0173 265.673C51.1921 265.871 51.4202 266.042 51.7015 266.186C51.9827 266.331 52.302 266.46 52.6593 266.574C53.0166 266.68 53.3815 266.798 53.754 266.927C54.1341 267.049 54.5027 267.186 54.86 267.338C55.2173 267.49 55.5366 267.68 55.8179 267.908C56.0991 268.136 56.3234 268.417 56.4906 268.752C56.6655 269.079 56.7529 269.474 56.7529 269.938C56.7529 270.47 56.6579 270.964 56.4678 271.42C56.2778 271.869 55.9965 272.26 55.624 272.595C55.2515 272.922 54.7954 273.18 54.2557 273.37C53.716 273.56 53.0926 273.655 52.3856 273.655C51.5798 273.655 50.8501 273.526 50.1963 273.267C49.5426 273.001 48.9876 272.663 48.5315 272.253L49.0104 271.477C49.0712 271.378 49.1435 271.302 49.2271 271.249C49.3107 271.196 49.4171 271.169 49.5464 271.169C49.6832 271.169 49.8276 271.223 49.9797 271.329C50.1317 271.435 50.3141 271.553 50.527 271.682C50.7474 271.812 51.0135 271.929 51.3252 272.036C51.6369 272.142 52.0245 272.196 52.4883 272.196C52.8836 272.196 53.2294 272.146 53.5259 272.047C53.8224 271.941 54.0694 271.8 54.2671 271.625C54.4647 271.451 54.6092 271.249 54.7004 271.021C54.7992 270.793 54.8486 270.55 54.8486 270.291C54.8486 269.972 54.7612 269.71 54.5864 269.505C54.4191 269.292 54.1949 269.113 53.9136 268.969C53.6323 268.817 53.3093 268.687 52.9444 268.581C52.5871 268.467 52.2184 268.349 51.8383 268.227C51.4658 268.106 51.0971 267.969 50.7322 267.817C50.375 267.657 50.0557 267.46 49.7744 267.224C49.4931 266.988 49.2651 266.699 49.0902 266.357C48.923 266.008 48.8394 265.586 48.8394 265.092C48.8394 264.651 48.9306 264.229 49.1131 263.826C49.2955 263.415 49.5616 263.058 49.9112 262.754C50.2609 262.442 50.6904 262.195 51.1998 262.013C51.7091 261.83 52.2906 261.739 52.9444 261.739C53.7045 261.739 54.3849 261.861 54.9855 262.104C55.5936 262.34 56.1181 262.667 56.559 263.085L56.1029 263.826ZM65.7246 263.826C65.6334 263.993 65.4927 264.077 65.3027 264.077C65.1887 264.077 65.0594 264.035 64.915 263.951C64.7706 263.868 64.5919 263.777 64.3791 263.678C64.1738 263.571 63.9268 263.476 63.6379 263.393C63.349 263.301 63.0069 263.256 62.6117 263.256C62.2696 263.256 61.9617 263.301 61.688 263.393C61.4144 263.476 61.1787 263.594 60.9811 263.746C60.791 263.898 60.6428 264.077 60.5364 264.282C60.4375 264.48 60.3881 264.696 60.3881 264.932C60.3881 265.228 60.4717 265.476 60.639 265.673C60.8138 265.871 61.0419 266.042 61.3231 266.186C61.6044 266.331 61.9237 266.46 62.281 266.574C62.6383 266.68 63.0031 266.798 63.3756 266.927C63.7557 267.049 64.1244 267.186 64.4817 267.338C64.839 267.49 65.1583 267.68 65.4395 267.908C65.7208 268.136 65.945 268.417 66.1123 268.752C66.2871 269.079 66.3746 269.474 66.3746 269.938C66.3746 270.47 66.2795 270.964 66.0895 271.42C65.8994 271.869 65.6182 272.26 65.2457 272.595C64.8732 272.922 64.4171 273.18 63.8774 273.37C63.3376 273.56 62.7143 273.655 62.0073 273.655C61.2015 273.655 60.4717 273.526 59.818 273.267C59.1642 273.001 58.6093 272.663 58.1532 272.253L58.6321 271.477C58.6929 271.378 58.7651 271.302 58.8488 271.249C58.9324 271.196 59.0388 271.169 59.168 271.169C59.3049 271.169 59.4493 271.223 59.6013 271.329C59.7534 271.435 59.9358 271.553 60.1487 271.682C60.3691 271.812 60.6352 271.929 60.9469 272.036C61.2585 272.142 61.6462 272.196 62.1099 272.196C62.5052 272.196 62.8511 272.146 63.1476 272.047C63.4441 271.941 63.6911 271.8 63.8888 271.625C64.0864 271.451 64.2308 271.249 64.3221 271.021C64.4209 270.793 64.4703 270.55 64.4703 270.291C64.4703 269.972 64.3829 269.71 64.208 269.505C64.0408 269.292 63.8165 269.113 63.5353 268.969C63.254 268.817 62.9309 268.687 62.566 268.581C62.2088 268.467 61.8401 268.349 61.46 268.227C61.0875 268.106 60.7188 267.969 60.3539 267.817C59.9966 267.657 59.6774 267.46 59.3961 267.224C59.1148 266.988 58.8868 266.699 58.7119 266.357C58.5447 266.008 58.4611 265.586 58.4611 265.092C58.4611 264.651 58.5523 264.229 58.7347 263.826C58.9172 263.415 59.1832 263.058 59.5329 262.754C59.8826 262.442 60.3121 262.195 60.8214 262.013C61.3308 261.83 61.9123 261.739 62.566 261.739C63.3262 261.739 64.0066 261.861 64.6071 262.104C65.2153 262.34 65.7398 262.667 66.1807 263.085L65.7246 263.826ZM70.7624 261.922V273.473H68.7327V261.922H70.7624ZM71.1957 258.296C71.1957 258.493 71.1539 258.68 71.0703 258.854C70.9942 259.022 70.8878 259.174 70.751 259.31C70.6217 259.44 70.4659 259.542 70.2835 259.618C70.1086 259.694 69.9224 259.732 69.7247 259.732C69.5271 259.732 69.3408 259.694 69.166 259.618C68.9988 259.542 68.8505 259.44 68.7213 259.31C68.5921 259.174 68.4894 259.022 68.4134 258.854C68.3374 258.68 68.2994 258.493 68.2994 258.296C68.2994 258.098 68.3374 257.912 68.4134 257.737C68.4894 257.554 68.5921 257.399 68.7213 257.269C68.8505 257.133 68.9988 257.026 69.166 256.95C69.3408 256.874 69.5271 256.836 69.7247 256.836C69.9224 256.836 70.1086 256.874 70.2835 256.95C70.4659 257.026 70.6217 257.133 70.751 257.269C70.8878 257.399 70.9942 257.554 71.0703 257.737C71.1539 257.912 71.1957 258.098 71.1957 258.296ZM77.8781 267.828C78.2886 267.828 78.6497 267.771 78.9614 267.657C79.2731 267.543 79.5353 267.384 79.7482 267.178C79.961 266.973 80.1207 266.73 80.2271 266.449C80.3335 266.16 80.3867 265.844 80.3867 265.502C80.3867 264.795 80.1701 264.233 79.7368 263.815C79.3111 263.396 78.6915 263.187 77.8781 263.187C77.0571 263.187 76.43 263.396 75.9967 263.815C75.571 264.233 75.3581 264.795 75.3581 265.502C75.3581 265.844 75.4113 266.16 75.5178 266.449C75.6318 266.73 75.7952 266.973 76.0081 267.178C76.2209 267.384 76.4832 267.543 76.7949 267.657C77.1066 267.771 77.4676 267.828 77.8781 267.828ZM81.5384 274.1C81.5384 273.819 81.4586 273.59 81.2989 273.416C81.1393 273.241 80.9227 273.104 80.649 273.005C80.3829 272.906 80.0713 272.838 79.714 272.8C79.3567 272.754 78.9766 272.72 78.5737 272.697C78.1784 272.674 77.7755 272.652 77.365 272.629C76.9545 272.606 76.5592 272.568 76.1791 272.515C75.7534 272.712 75.4037 272.963 75.1301 273.267C74.864 273.564 74.731 273.914 74.731 274.316C74.731 274.575 74.7956 274.814 74.9248 275.035C75.0617 275.263 75.2669 275.457 75.5406 275.616C75.8142 275.784 76.1563 275.913 76.5668 276.004C76.9849 276.103 77.4752 276.152 78.0378 276.152C78.5851 276.152 79.0754 276.103 79.5087 276.004C79.942 275.905 80.3069 275.765 80.6034 275.582C80.9075 275.4 81.1393 275.183 81.2989 274.932C81.4586 274.681 81.5384 274.404 81.5384 274.1ZM83.6023 262.378V263.13C83.6023 263.381 83.4427 263.541 83.1234 263.609L81.8121 263.78C82.0705 264.282 82.1998 264.837 82.1998 265.445C82.1998 266.008 82.0895 266.521 81.8691 266.985C81.6562 267.441 81.3598 267.832 80.9797 268.159C80.5996 268.486 80.1435 268.737 79.6113 268.912C79.0792 269.086 78.5015 269.174 77.8781 269.174C77.3384 269.174 76.8291 269.109 76.3502 268.98C76.1069 269.132 75.9207 269.295 75.7914 269.47C75.6622 269.638 75.5976 269.809 75.5976 269.983C75.5976 270.257 75.7078 270.466 75.9283 270.611C76.1563 270.747 76.4528 270.846 76.8177 270.907C77.1826 270.968 77.5969 271.006 78.0606 271.021C78.5319 271.036 79.0108 271.063 79.4973 271.101C79.9914 271.131 80.4704 271.188 80.9341 271.272C81.4054 271.356 81.8235 271.492 82.1884 271.682C82.5532 271.872 82.8459 272.135 83.0664 272.469C83.2944 272.804 83.4085 273.237 83.4085 273.769C83.4085 274.263 83.283 274.742 83.0322 275.206C82.7889 275.67 82.4354 276.08 81.9717 276.437C81.508 276.802 80.9379 277.091 80.2613 277.304C79.5923 277.524 78.836 277.635 77.9922 277.635C77.1484 277.635 76.411 277.551 75.78 277.384C75.1491 277.217 74.6246 276.992 74.2065 276.711C73.7884 276.43 73.4729 276.103 73.26 275.73C73.0548 275.366 72.9522 274.982 72.9522 274.579C72.9522 274.009 73.1308 273.526 73.4881 273.131C73.8454 272.735 74.3357 272.42 74.959 272.184C74.617 272.032 74.3433 271.831 74.138 271.58C73.9404 271.321 73.8416 270.975 73.8416 270.542C73.8416 270.375 73.872 270.204 73.9328 270.029C73.9936 269.847 74.0848 269.668 74.2065 269.493C74.3357 269.311 74.4915 269.14 74.674 268.98C74.8564 268.82 75.0693 268.68 75.3125 268.558C74.7424 268.239 74.2977 267.817 73.9784 267.292C73.6591 266.76 73.4995 266.145 73.4995 265.445C73.4995 264.883 73.6059 264.373 73.8188 263.917C74.0392 263.453 74.3433 263.062 74.731 262.743C75.1187 262.416 75.5786 262.165 76.1107 261.99C76.6504 261.815 77.2396 261.728 77.8781 261.728C78.3799 261.728 78.8474 261.785 79.2807 261.899C79.714 262.005 80.1093 262.165 80.4666 262.378H83.6023ZM87.3724 263.598C87.6233 263.317 87.8893 263.062 88.1706 262.834C88.4519 262.606 88.7484 262.412 89.06 262.252C89.3793 262.085 89.7138 261.96 90.0635 261.876C90.4207 261.785 90.8046 261.739 91.2151 261.739C91.8461 261.739 92.401 261.846 92.8799 262.059C93.3665 262.264 93.7693 262.56 94.0886 262.948C94.4155 263.328 94.6626 263.788 94.8298 264.328C94.997 264.867 95.0807 265.464 95.0807 266.118V273.473H93.0396V266.118C93.0396 265.244 92.8381 264.567 92.4352 264.088C92.0399 263.602 91.4356 263.358 90.6222 263.358C90.0217 263.358 89.4591 263.503 88.9346 263.792C88.4177 264.081 87.9388 264.472 87.4979 264.966V273.473H85.4568V261.922H86.6769C86.9657 261.922 87.1444 262.062 87.2128 262.344L87.3724 263.598ZM114.358 258.991H109.067V273.473H106.866V258.991H101.564V257.133H114.358V258.991ZM119.713 268.273C118.778 268.303 117.98 268.379 117.319 268.501C116.665 268.615 116.129 268.767 115.711 268.957C115.3 269.147 115 269.371 114.81 269.63C114.628 269.888 114.536 270.177 114.536 270.497C114.536 270.801 114.586 271.063 114.685 271.283C114.784 271.504 114.917 271.686 115.084 271.831C115.259 271.967 115.46 272.07 115.688 272.139C115.924 272.199 116.175 272.23 116.441 272.23C116.798 272.23 117.125 272.196 117.421 272.127C117.718 272.051 117.995 271.945 118.254 271.808C118.52 271.671 118.771 271.508 119.006 271.318C119.25 271.127 119.485 270.911 119.713 270.668V268.273ZM113.157 263.552C113.795 262.937 114.483 262.477 115.221 262.173C115.958 261.868 116.775 261.716 117.672 261.716C118.318 261.716 118.892 261.823 119.394 262.036C119.896 262.249 120.318 262.545 120.66 262.925C121.002 263.305 121.26 263.765 121.435 264.305C121.61 264.845 121.697 265.438 121.697 266.084V273.473H120.797C120.599 273.473 120.447 273.442 120.34 273.381C120.234 273.313 120.15 273.184 120.09 272.994L119.862 271.899C119.557 272.18 119.261 272.431 118.972 272.652C118.683 272.865 118.379 273.047 118.06 273.199C117.741 273.343 117.399 273.454 117.034 273.53C116.676 273.613 116.277 273.655 115.836 273.655C115.388 273.655 114.966 273.594 114.571 273.473C114.175 273.343 113.83 273.153 113.533 272.903C113.244 272.652 113.012 272.336 112.837 271.956C112.67 271.568 112.587 271.112 112.587 270.588C112.587 270.132 112.712 269.695 112.963 269.276C113.214 268.851 113.62 268.474 114.183 268.148C114.746 267.821 115.479 267.555 116.384 267.349C117.288 267.137 118.398 267.015 119.713 266.985V266.084C119.713 265.187 119.519 264.51 119.132 264.054C118.744 263.59 118.178 263.358 117.433 263.358C116.931 263.358 116.509 263.423 116.167 263.552C115.833 263.674 115.54 263.815 115.289 263.974C115.046 264.126 114.833 264.267 114.651 264.396C114.476 264.518 114.301 264.579 114.126 264.579C113.989 264.579 113.871 264.544 113.773 264.476C113.674 264.4 113.59 264.309 113.522 264.202L113.157 263.552ZM131.272 263.826C131.181 263.993 131.041 264.077 130.85 264.077C130.736 264.077 130.607 264.035 130.463 263.951C130.318 263.868 130.14 263.777 129.927 263.678C129.722 263.571 129.475 263.476 129.186 263.393C128.897 263.301 128.555 263.256 128.159 263.256C127.817 263.256 127.509 263.301 127.236 263.393C126.962 263.476 126.727 263.594 126.529 263.746C126.339 263.898 126.191 264.077 126.084 264.282C125.985 264.48 125.936 264.696 125.936 264.932C125.936 265.228 126.02 265.476 126.187 265.673C126.362 265.871 126.59 266.042 126.871 266.186C127.152 266.331 127.471 266.46 127.829 266.574C128.186 266.68 128.551 266.798 128.923 266.927C129.304 267.049 129.672 267.186 130.029 267.338C130.387 267.49 130.706 267.68 130.987 267.908C131.269 268.136 131.493 268.417 131.66 268.752C131.835 269.079 131.922 269.474 131.922 269.938C131.922 270.47 131.827 270.964 131.637 271.42C131.447 271.869 131.166 272.26 130.793 272.595C130.421 272.922 129.965 273.18 129.425 273.37C128.885 273.56 128.262 273.655 127.555 273.655C126.749 273.655 126.02 273.526 125.366 273.267C124.712 273.001 124.157 272.663 123.701 272.253L124.18 271.477C124.241 271.378 124.313 271.302 124.397 271.249C124.48 271.196 124.587 271.169 124.716 271.169C124.853 271.169 124.997 271.223 125.149 271.329C125.301 271.435 125.484 271.553 125.696 271.682C125.917 271.812 126.183 271.929 126.495 272.036C126.806 272.142 127.194 272.196 127.658 272.196C128.053 272.196 128.399 272.146 128.695 272.047C128.992 271.941 129.239 271.8 129.437 271.625C129.634 271.451 129.779 271.249 129.87 271.021C129.969 270.793 130.018 270.55 130.018 270.291C130.018 269.972 129.931 269.71 129.756 269.505C129.589 269.292 129.364 269.113 129.083 268.969C128.802 268.817 128.479 268.687 128.114 268.581C127.757 268.467 127.388 268.349 127.008 268.227C126.635 268.106 126.267 267.969 125.902 267.817C125.544 267.657 125.225 267.46 124.944 267.224C124.663 266.988 124.435 266.699 124.26 266.357C124.092 266.008 124.009 265.586 124.009 265.092C124.009 264.651 124.1 264.229 124.283 263.826C124.465 263.415 124.731 263.058 125.081 262.754C125.43 262.442 125.86 262.195 126.369 262.013C126.879 261.83 127.46 261.739 128.114 261.739C128.874 261.739 129.554 261.861 130.155 262.104C130.763 262.34 131.288 262.667 131.728 263.085L131.272 263.826ZM136.208 256.676V266.563H136.732C136.884 266.563 137.01 266.544 137.108 266.506C137.215 266.46 137.325 266.373 137.439 266.243L141.088 262.332C141.194 262.203 141.305 262.104 141.419 262.036C141.54 261.96 141.7 261.922 141.898 261.922H143.733L139.48 266.449C139.275 266.707 139.054 266.908 138.819 267.053C138.956 267.144 139.077 267.251 139.184 267.372C139.298 267.486 139.404 267.619 139.503 267.771L144.018 273.473H142.205C142.031 273.473 141.879 273.446 141.749 273.393C141.628 273.332 141.521 273.226 141.43 273.074L137.633 268.341C137.519 268.182 137.405 268.079 137.291 268.034C137.184 267.98 137.017 267.954 136.789 267.954H136.208V273.473H134.166V256.676H136.208ZM154.64 273.655C153.728 273.655 153.025 273.4 152.53 272.891C152.044 272.382 151.801 271.648 151.801 270.69V263.621H150.409C150.288 263.621 150.185 263.587 150.102 263.518C150.018 263.442 149.976 263.328 149.976 263.176V262.366L151.869 262.127L152.337 258.558C152.359 258.444 152.409 258.353 152.485 258.284C152.568 258.208 152.675 258.17 152.804 258.17H153.83V262.15H157.171V263.621H153.83V270.554C153.83 271.04 153.948 271.401 154.184 271.637C154.419 271.872 154.724 271.99 155.096 271.99C155.309 271.99 155.491 271.964 155.643 271.91C155.803 271.85 155.94 271.785 156.054 271.717C156.168 271.648 156.263 271.587 156.339 271.534C156.423 271.473 156.495 271.443 156.556 271.443C156.662 271.443 156.757 271.508 156.841 271.637L157.434 272.606C157.084 272.933 156.662 273.191 156.168 273.381C155.674 273.564 155.164 273.655 154.64 273.655ZM163.825 261.739C164.669 261.739 165.429 261.88 166.105 262.161C166.782 262.442 167.36 262.842 167.839 263.358C168.318 263.875 168.682 264.503 168.933 265.24C169.192 265.97 169.321 266.787 169.321 267.691C169.321 268.604 169.192 269.425 168.933 270.154C168.682 270.884 168.318 271.508 167.839 272.025C167.36 272.541 166.782 272.941 166.105 273.222C165.429 273.495 164.669 273.632 163.825 273.632C162.973 273.632 162.206 273.495 161.522 273.222C160.845 272.941 160.267 272.541 159.788 272.025C159.309 271.508 158.941 270.884 158.682 270.154C158.431 269.425 158.306 268.604 158.306 267.691C158.306 266.787 158.431 265.97 158.682 265.24C158.941 264.503 159.309 263.875 159.788 263.358C160.267 262.842 160.845 262.442 161.522 262.161C162.206 261.88 162.973 261.739 163.825 261.739ZM163.825 272.047C164.965 272.047 165.817 271.667 166.379 270.907C166.942 270.139 167.223 269.071 167.223 267.703C167.223 266.327 166.942 265.255 166.379 264.487C165.817 263.72 164.965 263.336 163.825 263.336C163.247 263.336 162.742 263.434 162.308 263.632C161.883 263.83 161.525 264.115 161.236 264.487C160.955 264.86 160.742 265.32 160.598 265.867C160.461 266.407 160.393 267.019 160.393 267.703C160.393 269.071 160.674 270.139 161.236 270.907C161.807 271.667 162.669 272.047 163.825 272.047Z" fill="#D1D1D1"/>
<path d="M1016.47 264.762L1023.25 272.907L1029.5 264.762" stroke="#D1D1D1" stroke-width="2.44344" stroke-linecap="round" stroke-linejoin="round"/>
</g>
<path d="M32.5781 290.826L1042.53 290.826" stroke="#D1D1D1" stroke-width="3.25792" stroke-linecap="round"/>
<rect x="2.44344" y="6.15145" width="1070.23" height="314.81" rx="13.8462" stroke="#292929" stroke-width="4.88688"/>
<defs>
<clipPath id="clip0_1742_50708">
<rect width="1009.95" height="39.095" fill="white" transform="translate(32.5781 248.473)"/>
</clipPath>
</defs>
</svg>
