<svg width="327" height="327" viewBox="0 0 327 327" fill="none" xmlns="http://www.w3.org/2000/svg">
<g clip-path="url(#clip0_1334_46872)">
<path d="M2.76375 17.1288C2.76375 9.48179 8.96288 3.28267 16.6099 3.28267H309.823C317.47 3.28267 323.669 9.4818 323.669 17.1288V310.342C323.669 317.989 317.47 324.188 309.823 324.188H16.6099C8.96288 324.188 2.76375 317.989 2.76375 310.341V17.1288Z" fill="#323233" stroke="#292929" stroke-width="4.88688"/>
<g filter="url(#filter0_d_1334_46872)">
<rect x="55.8047" y="69.2555" width="219.91" height="89.5928" rx="8.1448" fill="#362F40"/>
</g>
<path d="M114.664 109.38H109.544V123.577H106.887V109.38H101.756V107.157H114.664V109.38ZM118.516 111.764C119.375 111.764 120.15 111.904 120.842 112.185C121.541 112.467 122.134 112.866 122.621 113.383C123.115 113.9 123.495 114.527 123.761 115.264C124.027 116.002 124.16 116.83 124.16 117.75C124.16 118.67 124.027 119.498 123.761 120.236C123.495 120.973 123.115 121.604 122.621 122.129C122.134 122.646 121.541 123.045 120.842 123.326C120.15 123.607 119.375 123.748 118.516 123.748C117.649 123.748 116.866 123.607 116.167 123.326C115.475 123.045 114.882 122.646 114.388 122.129C113.894 121.604 113.514 120.973 113.248 120.236C112.982 119.498 112.849 118.67 112.849 117.75C112.849 116.83 112.982 116.002 113.248 115.264C113.514 114.527 113.894 113.9 114.388 113.383C114.882 112.866 115.475 112.467 116.167 112.185C116.866 111.904 117.649 111.764 118.516 111.764ZM118.516 121.832C119.565 121.832 120.344 121.482 120.853 120.783C121.37 120.076 121.629 119.069 121.629 117.761C121.629 116.454 121.37 115.447 120.853 114.74C120.344 114.025 119.565 113.668 118.516 113.668C117.451 113.668 116.661 114.025 116.144 114.74C115.627 115.447 115.369 116.454 115.369 117.761C115.369 119.069 115.627 120.076 116.144 120.783C116.661 121.482 117.451 121.832 118.516 121.832ZM129.777 123.759C128.812 123.759 128.067 123.489 127.542 122.95C127.025 122.402 126.767 121.635 126.767 120.646V113.873H125.49C125.353 113.873 125.235 113.831 125.136 113.748C125.038 113.656 124.988 113.523 124.988 113.349V112.357L126.87 112.083L127.406 108.719C127.444 108.59 127.508 108.487 127.599 108.411C127.691 108.328 127.812 108.286 127.964 108.286H129.219V112.106H132.446V113.873H129.219V120.475C129.219 120.893 129.321 121.213 129.526 121.433C129.732 121.654 130.005 121.764 130.347 121.764C130.537 121.764 130.701 121.741 130.838 121.695C130.975 121.642 131.092 121.589 131.191 121.536C131.29 121.475 131.374 121.422 131.442 121.376C131.518 121.323 131.59 121.296 131.659 121.296C131.796 121.296 131.906 121.372 131.989 121.524L132.719 122.722C132.339 123.056 131.891 123.315 131.374 123.497C130.857 123.672 130.325 123.759 129.777 123.759ZM140.348 118.491C139.474 118.522 138.736 118.594 138.136 118.708C137.535 118.814 137.049 118.955 136.676 119.13C136.304 119.297 136.034 119.498 135.867 119.734C135.707 119.97 135.627 120.228 135.627 120.509C135.627 120.783 135.669 121.019 135.753 121.216C135.844 121.406 135.966 121.566 136.118 121.695C136.277 121.817 136.46 121.908 136.665 121.969C136.878 122.022 137.11 122.049 137.361 122.049C137.999 122.049 138.546 121.931 139.003 121.695C139.466 121.452 139.915 121.102 140.348 120.646V118.491ZM133.848 113.565C135.164 112.341 136.73 111.729 138.546 111.729C139.215 111.729 139.808 111.84 140.325 112.06C140.85 112.273 141.287 112.577 141.637 112.972C141.994 113.368 142.264 113.839 142.446 114.386C142.636 114.926 142.731 115.526 142.731 116.188V123.577H141.637C141.401 123.577 141.222 123.543 141.101 123.474C140.979 123.398 140.876 123.25 140.793 123.029L140.553 122.083C140.257 122.349 139.964 122.589 139.675 122.801C139.386 123.007 139.086 123.181 138.774 123.326C138.47 123.47 138.14 123.577 137.782 123.645C137.433 123.721 137.045 123.759 136.619 123.759C136.148 123.759 135.707 123.695 135.297 123.565C134.894 123.436 134.544 123.242 134.248 122.984C133.951 122.718 133.715 122.391 133.541 122.003C133.373 121.616 133.29 121.159 133.29 120.635C133.29 120.186 133.408 119.749 133.643 119.324C133.887 118.898 134.282 118.518 134.829 118.183C135.384 117.841 136.11 117.56 137.007 117.339C137.912 117.119 139.025 116.994 140.348 116.963V116.188C140.348 115.352 140.169 114.728 139.812 114.318C139.455 113.907 138.93 113.702 138.239 113.702C137.767 113.702 137.372 113.763 137.053 113.884C136.733 113.999 136.456 114.124 136.22 114.261C135.985 114.398 135.776 114.527 135.593 114.648C135.411 114.762 135.217 114.819 135.012 114.819C134.844 114.819 134.7 114.778 134.578 114.694C134.464 114.603 134.369 114.493 134.293 114.363L133.848 113.565ZM147.856 106.701V123.577H145.404V106.701H147.856ZM162.503 121.467C163.104 121.467 163.61 121.399 164.02 121.262C164.438 121.118 164.776 120.924 165.035 120.68C165.301 120.437 165.491 120.152 165.605 119.825C165.727 119.491 165.787 119.134 165.787 118.753C165.787 117.978 165.521 117.37 164.989 116.929C164.465 116.48 163.632 116.256 162.492 116.256H159.197V121.467H162.503ZM159.197 109.244V114.375H161.865C163.005 114.375 163.857 114.154 164.419 113.713C164.982 113.273 165.263 112.638 165.263 111.809C165.263 110.905 164.997 110.251 164.465 109.848C163.94 109.445 163.115 109.244 161.99 109.244H159.197ZM161.99 107.157C163.039 107.157 163.936 107.259 164.681 107.465C165.426 107.662 166.038 107.947 166.517 108.32C166.996 108.692 167.346 109.149 167.566 109.688C167.794 110.22 167.908 110.821 167.908 111.49C167.908 111.878 167.848 112.254 167.726 112.619C167.612 112.976 167.429 113.314 167.179 113.634C166.935 113.945 166.627 114.227 166.255 114.477C165.882 114.728 165.442 114.937 164.932 115.105C167.258 115.599 168.421 116.834 168.421 118.81C168.421 119.51 168.288 120.152 168.022 120.738C167.764 121.315 167.384 121.817 166.882 122.243C166.388 122.661 165.776 122.988 165.046 123.223C164.317 123.459 163.484 123.577 162.549 123.577H156.528V107.157H161.99ZM180.311 111.946V123.577H178.829C178.502 123.577 178.293 123.421 178.201 123.109L178.019 122.026C177.776 122.284 177.517 122.52 177.244 122.733C176.977 122.946 176.692 123.128 176.388 123.28C176.084 123.432 175.757 123.55 175.408 123.634C175.066 123.717 174.697 123.759 174.302 123.759C173.663 123.759 173.101 123.653 172.614 123.44C172.128 123.227 171.717 122.927 171.383 122.539C171.056 122.151 170.809 121.688 170.641 121.148C170.474 120.601 170.391 120 170.391 119.346V111.946H172.842V119.346C172.842 120.129 173.021 120.738 173.378 121.171C173.743 121.604 174.294 121.821 175.031 121.821C175.571 121.821 176.073 121.699 176.537 121.456C177.008 121.205 177.449 120.863 177.859 120.43V111.946H180.311ZM190.467 114.808C190.125 114.367 189.749 114.059 189.338 113.884C188.928 113.71 188.483 113.622 188.004 113.622C187.046 113.622 186.297 113.976 185.758 114.683C185.218 115.382 184.948 116.42 184.948 117.796C184.948 118.51 185.009 119.122 185.13 119.631C185.252 120.133 185.427 120.544 185.655 120.863C185.883 121.182 186.16 121.414 186.487 121.559C186.814 121.703 187.183 121.775 187.593 121.775C188.217 121.775 188.753 121.642 189.201 121.376C189.657 121.102 190.079 120.719 190.467 120.224V114.808ZM192.918 106.701V123.577H191.436C191.109 123.577 190.9 123.421 190.809 123.109L190.592 121.844C190.106 122.414 189.551 122.874 188.928 123.223C188.312 123.573 187.593 123.748 186.772 123.748C186.119 123.748 185.526 123.619 184.994 123.36C184.461 123.094 184.005 122.71 183.625 122.208C183.245 121.707 182.949 121.087 182.736 120.35C182.531 119.605 182.428 118.753 182.428 117.796C182.428 116.929 182.542 116.127 182.77 115.39C183.006 114.652 183.34 114.014 183.773 113.474C184.207 112.927 184.731 112.501 185.347 112.197C185.97 111.885 186.666 111.729 187.434 111.729C188.118 111.729 188.699 111.84 189.178 112.06C189.657 112.273 190.087 112.573 190.467 112.961V106.701H192.918ZM199.823 117.659C200.583 117.659 201.153 117.465 201.533 117.077C201.913 116.69 202.103 116.184 202.103 115.561C202.103 114.922 201.913 114.417 201.533 114.044C201.153 113.672 200.583 113.485 199.823 113.485C199.07 113.485 198.5 113.672 198.112 114.044C197.732 114.417 197.542 114.922 197.542 115.561C197.542 115.865 197.591 116.146 197.69 116.404C197.789 116.663 197.933 116.887 198.124 117.077C198.314 117.26 198.549 117.404 198.831 117.511C199.119 117.609 199.45 117.659 199.823 117.659ZM203.232 124.147C203.232 123.888 203.156 123.683 203.004 123.531C202.859 123.372 202.662 123.25 202.411 123.166C202.16 123.075 201.867 123.01 201.533 122.972C201.198 122.927 200.841 122.896 200.461 122.881C200.089 122.858 199.705 122.839 199.309 122.824C198.922 122.801 198.545 122.763 198.181 122.71C197.816 122.9 197.515 123.128 197.28 123.394C197.052 123.66 196.938 123.968 196.938 124.318C196.938 124.546 196.995 124.759 197.109 124.957C197.23 125.154 197.413 125.325 197.656 125.47C197.907 125.614 198.222 125.728 198.602 125.812C198.99 125.895 199.454 125.937 199.994 125.937C201.073 125.937 201.883 125.77 202.422 125.435C202.962 125.101 203.232 124.671 203.232 124.147ZM205.695 112.368V113.28C205.695 113.584 205.512 113.77 205.148 113.839L203.985 114.033C204.182 114.474 204.281 114.964 204.281 115.504C204.281 116.074 204.167 116.591 203.939 117.054C203.718 117.518 203.411 117.913 203.015 118.24C202.62 118.567 202.149 118.818 201.601 118.993C201.054 119.168 200.461 119.255 199.823 119.255C199.579 119.255 199.34 119.244 199.104 119.221C198.876 119.191 198.652 119.153 198.431 119.107C198.211 119.236 198.048 119.373 197.941 119.517C197.835 119.662 197.781 119.81 197.781 119.962C197.781 120.213 197.892 120.399 198.112 120.521C198.333 120.642 198.621 120.73 198.979 120.783C199.344 120.836 199.758 120.871 200.222 120.886C200.685 120.901 201.157 120.928 201.636 120.966C202.114 121.004 202.586 121.068 203.05 121.159C203.513 121.243 203.924 121.387 204.281 121.593C204.646 121.79 204.939 122.06 205.159 122.402C205.379 122.744 205.49 123.189 205.49 123.736C205.49 124.238 205.364 124.728 205.113 125.207C204.863 125.686 204.498 126.112 204.019 126.484C203.547 126.857 202.97 127.153 202.286 127.374C201.601 127.602 200.822 127.716 199.948 127.716C199.081 127.716 198.325 127.632 197.679 127.465C197.04 127.298 196.504 127.07 196.071 126.781C195.645 126.5 195.326 126.173 195.113 125.8C194.908 125.428 194.805 125.04 194.805 124.637C194.805 124.09 194.976 123.622 195.318 123.235C195.668 122.847 196.139 122.543 196.732 122.322C196.413 122.17 196.155 121.961 195.957 121.695C195.767 121.429 195.672 121.08 195.672 120.646C195.672 120.304 195.797 119.947 196.048 119.574C196.299 119.202 196.675 118.886 197.177 118.628C196.599 118.309 196.143 117.887 195.809 117.362C195.474 116.83 195.307 116.211 195.307 115.504C195.307 114.926 195.417 114.405 195.638 113.941C195.866 113.478 196.181 113.082 196.584 112.756C196.987 112.429 197.462 112.178 198.01 112.003C198.564 111.828 199.169 111.741 199.823 111.741C200.826 111.741 201.7 111.95 202.445 112.368H205.695ZM214.815 116.45C214.815 116.04 214.754 115.659 214.633 115.31C214.519 114.953 214.348 114.645 214.12 114.386C213.891 114.12 213.606 113.915 213.264 113.77C212.93 113.618 212.542 113.542 212.101 113.542C211.212 113.542 210.512 113.797 210.003 114.306C209.494 114.816 209.171 115.53 209.034 116.45H214.815ZM208.965 117.955C208.996 118.617 209.099 119.191 209.273 119.677C209.448 120.156 209.68 120.555 209.969 120.874C210.265 121.194 210.615 121.433 211.018 121.593C211.428 121.745 211.885 121.821 212.386 121.821C212.865 121.821 213.28 121.768 213.629 121.661C213.979 121.547 214.283 121.425 214.541 121.296C214.8 121.159 215.02 121.038 215.203 120.931C215.385 120.817 215.552 120.76 215.704 120.76C215.902 120.76 216.054 120.836 216.161 120.988L216.856 121.889C216.567 122.231 216.24 122.52 215.876 122.756C215.511 122.991 215.123 123.185 214.712 123.337C214.302 123.482 213.88 123.584 213.447 123.645C213.013 123.714 212.592 123.748 212.181 123.748C211.375 123.748 210.626 123.615 209.935 123.349C209.251 123.075 208.654 122.676 208.144 122.151C207.643 121.627 207.247 120.977 206.959 120.202C206.677 119.426 206.537 118.533 206.537 117.522C206.537 116.716 206.662 115.964 206.913 115.264C207.171 114.565 207.536 113.957 208.008 113.44C208.487 112.923 209.064 112.516 209.741 112.22C210.425 111.916 211.197 111.764 212.056 111.764C212.77 111.764 213.432 111.881 214.04 112.117C214.648 112.345 215.172 112.683 215.613 113.132C216.054 113.58 216.396 114.132 216.64 114.785C216.89 115.431 217.016 116.169 217.016 116.997C217.016 117.378 216.974 117.632 216.89 117.761C216.807 117.891 216.655 117.955 216.434 117.955H208.965ZM222.675 123.759C221.71 123.759 220.965 123.489 220.44 122.95C219.923 122.402 219.665 121.635 219.665 120.646V113.873H218.388C218.251 113.873 218.133 113.831 218.034 113.748C217.935 113.656 217.886 113.523 217.886 113.349V112.357L219.767 112.083L220.303 108.719C220.341 108.59 220.406 108.487 220.497 108.411C220.588 108.328 220.71 108.286 220.862 108.286H222.116V112.106H225.343V113.873H222.116V120.475C222.116 120.893 222.219 121.213 222.424 121.433C222.629 121.654 222.903 121.764 223.245 121.764C223.435 121.764 223.599 121.741 223.735 121.695C223.872 121.642 223.99 121.589 224.089 121.536C224.188 121.475 224.271 121.422 224.34 121.376C224.416 121.323 224.488 121.296 224.556 121.296C224.693 121.296 224.804 121.372 224.887 121.524L225.617 122.722C225.237 123.056 224.788 123.315 224.271 123.497C223.754 123.672 223.222 123.759 222.675 123.759Z" fill="#D1D1D1"/>
<path d="M40.1708 194.594L40.161 196.138H31.5308V182.132H40.161V183.676H33.4269V188.329H38.8806V189.814H33.4269V194.594H40.1708ZM50.371 196.138H48.6997C48.5563 196.138 48.4423 196.102 48.3576 196.03C48.2794 195.952 48.2142 195.867 48.1621 195.776L45.6698 191.896C45.6437 191.987 45.6144 192.079 45.5818 192.17C45.5558 192.254 45.5167 192.333 45.4645 192.404L43.1579 195.776C43.0928 195.867 43.0211 195.952 42.9429 196.03C42.8712 196.102 42.7702 196.138 42.6399 196.138H41.0859L44.5556 191.056L41.2227 186.237H42.894C43.0374 186.237 43.1417 186.26 43.2068 186.305C43.272 186.351 43.3306 186.416 43.3827 186.501L45.8164 190.215C45.8685 190.026 45.95 189.844 46.0607 189.668L48.1914 186.54C48.2501 186.449 48.312 186.377 48.3771 186.325C48.4488 186.266 48.5335 186.237 48.6312 186.237H50.2341L46.9013 190.968L50.371 196.138ZM53.5614 193.753C53.8807 194.183 54.2293 194.486 54.6072 194.662C54.9851 194.838 55.4086 194.926 55.8778 194.926C56.803 194.926 57.5132 194.597 58.0085 193.939C58.5037 193.281 58.7513 192.342 58.7513 191.124C58.7513 190.479 58.6926 189.925 58.5753 189.462C58.4646 189 58.3017 188.622 58.0866 188.329C57.8716 188.029 57.6077 187.811 57.295 187.674C56.9822 187.537 56.6271 187.469 56.2296 187.469C55.6628 187.469 55.1643 187.599 54.7342 187.86C54.3107 188.12 53.9198 188.488 53.5614 188.964V193.753ZM53.4734 187.772C53.8904 187.257 54.3726 186.843 54.9199 186.53C55.4673 186.218 56.0928 186.061 56.7965 186.061C57.3699 186.061 57.8879 186.172 58.3505 186.393C58.8132 186.608 59.2074 186.931 59.5332 187.361C59.8589 187.785 60.1098 188.312 60.2857 188.944C60.4617 189.576 60.5496 190.303 60.5496 191.124C60.5496 191.854 60.4519 192.535 60.2564 193.167C60.0609 193.792 59.7775 194.336 59.4061 194.799C59.0412 195.255 58.5916 195.617 58.0573 195.884C57.5295 196.144 56.9333 196.275 56.2687 196.275C55.6627 196.275 55.1415 196.174 54.7049 195.972C54.2749 195.763 53.8937 195.477 53.5614 195.112V199.49H51.8119V186.237H52.8577C53.1053 186.237 53.2584 186.358 53.317 186.599L53.4734 187.772ZM69.2329 190.107C69.2329 189.703 69.1743 189.335 69.057 189.003C68.9462 188.664 68.78 188.374 68.5585 188.133C68.3435 187.886 68.0796 187.697 67.7668 187.566C67.4541 187.429 67.099 187.361 66.7015 187.361C65.8675 187.361 65.2061 187.605 64.7174 188.094C64.2352 188.576 63.9355 189.247 63.8182 190.107H69.2329ZM70.6403 194.75C70.4253 195.011 70.1679 195.239 69.8682 195.434C69.5685 195.623 69.2459 195.78 68.9006 195.903C68.5618 196.027 68.2099 196.118 67.845 196.177C67.4801 196.242 67.1185 196.275 66.7601 196.275C66.076 196.275 65.4439 196.161 64.864 195.933C64.2906 195.698 63.7922 195.359 63.3686 194.916C62.9516 194.467 62.6258 193.913 62.3913 193.255C62.1567 192.597 62.0394 191.841 62.0394 190.987C62.0394 190.296 62.1437 189.651 62.3522 189.052C62.5672 188.452 62.8734 187.934 63.2709 187.498C63.6684 187.055 64.1538 186.709 64.7272 186.462C65.3006 186.208 65.9457 186.081 66.6624 186.081C67.2553 186.081 67.8027 186.182 68.3044 186.384C68.8126 186.579 69.2492 186.866 69.6141 187.244C69.9855 187.615 70.2754 188.078 70.4839 188.632C70.6924 189.179 70.7967 189.804 70.7967 190.508C70.7967 190.782 70.7674 190.964 70.7087 191.056C70.6501 191.147 70.5393 191.192 70.3764 191.192H63.7596C63.7791 191.818 63.8638 192.362 64.0137 192.825C64.1701 193.287 64.3851 193.675 64.6588 193.988C64.9324 194.294 65.2582 194.525 65.6362 194.682C66.0141 194.831 66.4376 194.906 66.9067 194.906C67.3433 194.906 67.718 194.858 68.0307 194.76C68.35 194.656 68.6237 194.545 68.8517 194.427C69.0798 194.31 69.2687 194.203 69.4186 194.105C69.575 194.001 69.7086 193.949 69.8193 193.949C69.9627 193.949 70.0734 194.004 70.1516 194.115L70.6403 194.75ZM74.4127 187.674C74.6278 187.433 74.8558 187.214 75.0969 187.019C75.338 186.823 75.5921 186.657 75.8592 186.521C76.1329 186.377 76.4196 186.27 76.7193 186.198C77.0256 186.12 77.3546 186.081 77.7065 186.081C78.2473 186.081 78.723 186.172 79.1335 186.354C79.5505 186.53 79.8958 186.784 80.1695 187.117C80.4497 187.442 80.6614 187.837 80.8048 188.299C80.9481 188.762 81.0198 189.273 81.0198 189.834V196.138H79.2703V189.834C79.2703 189.084 79.0976 188.505 78.7523 188.094C78.4135 187.677 77.8954 187.469 77.1983 187.469C76.6835 187.469 76.2013 187.592 75.7517 187.84C75.3087 188.088 74.8982 188.423 74.5202 188.847V196.138H72.7707V186.237H73.8165C74.0641 186.237 74.2173 186.358 74.2759 186.599L74.4127 187.674ZM89.9586 188.593C89.6328 188.156 89.2809 187.853 88.903 187.684C88.5251 187.508 88.1015 187.42 87.6324 187.42C86.7137 187.42 86.0067 187.749 85.5115 188.407C85.0163 189.065 84.7687 190.003 84.7687 191.222C84.7687 191.867 84.8241 192.421 84.9348 192.883C85.0456 193.339 85.2085 193.717 85.4235 194.017C85.6386 194.31 85.9024 194.525 86.2152 194.662C86.528 194.799 86.8831 194.867 87.2805 194.867C87.8539 194.867 88.3524 194.737 88.7759 194.476C89.206 194.216 89.6002 193.848 89.9586 193.372V188.593ZM91.6983 181.741V196.138H90.6623C90.4147 196.138 90.2583 196.017 90.1931 195.776L90.0367 194.574C89.6132 195.082 89.131 195.493 88.5902 195.806C88.0494 196.118 87.4239 196.275 86.7137 196.275C86.1468 196.275 85.632 196.167 85.1694 195.952C84.7068 195.731 84.3126 195.408 83.9868 194.985C83.661 194.561 83.4101 194.033 83.2342 193.401C83.0583 192.769 82.9703 192.043 82.9703 191.222C82.9703 190.492 83.0681 189.814 83.2635 189.189C83.459 188.557 83.7392 188.009 84.1041 187.547C84.469 187.084 84.9153 186.722 85.4431 186.462C85.9774 186.195 86.5768 186.061 87.2415 186.061C87.8474 186.061 88.3654 186.165 88.7955 186.374C89.232 186.576 89.6197 186.859 89.9586 187.224V181.741H91.6983ZM96.1207 186.237V196.138H94.3809V186.237H96.1207ZM96.4921 183.129C96.4921 183.298 96.4562 183.458 96.3845 183.608C96.3194 183.751 96.2282 183.882 96.1109 183.999C96.0001 184.11 95.8665 184.198 95.7102 184.263C95.5603 184.328 95.4007 184.361 95.2312 184.361C95.0618 184.361 94.9022 184.328 94.7523 184.263C94.609 184.198 94.4819 184.11 94.3711 183.999C94.2604 183.882 94.1724 183.751 94.1073 183.608C94.0421 183.458 94.0095 183.298 94.0095 183.129C94.0095 182.96 94.0421 182.8 94.1073 182.65C94.1724 182.494 94.2604 182.36 94.3711 182.249C94.4819 182.132 94.609 182.041 94.7523 181.976C94.9022 181.911 95.0618 181.878 95.2312 181.878C95.4007 181.878 95.5603 181.911 95.7102 181.976C95.8665 182.041 96.0001 182.132 96.1109 182.249C96.2282 182.36 96.3194 182.494 96.3845 182.65C96.4562 182.8 96.4921 182.96 96.4921 183.129ZM101.856 196.294C101.074 196.294 100.471 196.076 100.048 195.639C99.6308 195.203 99.4222 194.574 99.4222 193.753V187.693H98.2298C98.1256 187.693 98.0376 187.664 97.966 187.605C97.8943 187.54 97.8584 187.442 97.8584 187.312V186.618L99.4809 186.413L99.8816 183.354C99.9012 183.256 99.9435 183.178 100.009 183.119C100.08 183.054 100.172 183.021 100.282 183.021H101.162V186.433H104.026V187.693H101.162V193.636C101.162 194.053 101.263 194.362 101.465 194.564C101.667 194.766 101.928 194.867 102.247 194.867C102.429 194.867 102.586 194.844 102.716 194.799C102.853 194.747 102.97 194.691 103.068 194.633C103.166 194.574 103.247 194.522 103.312 194.476C103.384 194.424 103.446 194.398 103.498 194.398C103.589 194.398 103.671 194.454 103.742 194.564L104.25 195.395C103.951 195.675 103.589 195.897 103.166 196.06C102.742 196.216 102.306 196.294 101.856 196.294ZM113.801 186.237V196.138H112.765C112.517 196.138 112.361 196.017 112.296 195.776L112.159 194.711C111.729 195.187 111.247 195.571 110.712 195.864C110.178 196.151 109.565 196.294 108.875 196.294C108.334 196.294 107.855 196.206 107.438 196.03C107.028 195.848 106.682 195.594 106.402 195.268C106.122 194.942 105.91 194.548 105.767 194.085C105.63 193.623 105.561 193.111 105.561 192.551V186.237H107.301V192.551C107.301 193.3 107.471 193.88 107.809 194.291C108.155 194.701 108.679 194.906 109.383 194.906C109.898 194.906 110.377 194.786 110.82 194.545C111.269 194.297 111.683 193.958 112.061 193.528V186.237H113.801ZM118.048 188.221C118.361 187.543 118.745 187.016 119.201 186.638C119.657 186.253 120.215 186.061 120.873 186.061C121.081 186.061 121.28 186.084 121.469 186.13C121.664 186.175 121.837 186.247 121.987 186.345L121.86 187.644C121.821 187.807 121.723 187.889 121.567 187.889C121.475 187.889 121.342 187.869 121.166 187.83C120.99 187.791 120.791 187.772 120.57 187.772C120.257 187.772 119.977 187.817 119.729 187.908C119.488 188 119.27 188.136 119.074 188.319C118.885 188.495 118.713 188.716 118.556 188.983C118.406 189.244 118.27 189.544 118.146 189.883V196.138H116.396V186.237H117.393C117.582 186.237 117.713 186.273 117.784 186.345C117.856 186.416 117.905 186.54 117.931 186.716L118.048 188.221ZM129.579 190.107C129.579 189.703 129.521 189.335 129.404 189.003C129.293 188.664 129.127 188.374 128.905 188.133C128.69 187.886 128.426 187.697 128.113 187.566C127.801 187.429 127.446 187.361 127.048 187.361C126.214 187.361 125.553 187.605 125.064 188.094C124.582 188.576 124.282 189.247 124.165 190.107H129.579ZM130.987 194.75C130.772 195.011 130.514 195.239 130.215 195.434C129.915 195.623 129.593 195.78 129.247 195.903C128.908 196.027 128.556 196.118 128.192 196.177C127.827 196.242 127.465 196.275 127.107 196.275C126.423 196.275 125.791 196.161 125.211 195.933C124.637 195.698 124.139 195.359 123.715 194.916C123.298 194.467 122.972 193.913 122.738 193.255C122.503 192.597 122.386 191.841 122.386 190.987C122.386 190.296 122.49 189.651 122.699 189.052C122.914 188.452 123.22 187.934 123.617 187.498C124.015 187.055 124.5 186.709 125.074 186.462C125.647 186.208 126.292 186.081 127.009 186.081C127.602 186.081 128.149 186.182 128.651 186.384C129.159 186.579 129.596 186.866 129.961 187.244C130.332 187.615 130.622 188.078 130.831 188.632C131.039 189.179 131.143 189.804 131.143 190.508C131.143 190.782 131.114 190.964 131.055 191.056C130.997 191.147 130.886 191.192 130.723 191.192H124.106C124.126 191.818 124.21 192.362 124.36 192.825C124.517 193.287 124.732 193.675 125.005 193.988C125.279 194.294 125.605 194.525 125.983 194.682C126.361 194.831 126.784 194.906 127.253 194.906C127.69 194.906 128.065 194.858 128.377 194.76C128.697 194.656 128.97 194.545 129.198 194.427C129.426 194.31 129.615 194.203 129.765 194.105C129.922 194.001 130.055 193.949 130.166 193.949C130.309 193.949 130.42 194.004 130.498 194.115L130.987 194.75ZM149.714 182.132V196.138H147.818V189.765H140.262V196.138H138.366V182.132H140.262V188.378H147.818V182.132H149.714ZM154.406 186.237V196.138H152.666V186.237H154.406ZM154.777 183.129C154.777 183.298 154.741 183.458 154.669 183.608C154.604 183.751 154.513 183.882 154.396 183.999C154.285 184.11 154.151 184.198 153.995 184.263C153.845 184.328 153.686 184.361 153.516 184.361C153.347 184.361 153.187 184.328 153.037 184.263C152.894 184.198 152.767 184.11 152.656 183.999C152.545 183.882 152.457 183.751 152.392 183.608C152.327 183.458 152.294 183.298 152.294 183.129C152.294 182.96 152.327 182.8 152.392 182.65C152.457 182.494 152.545 182.36 152.656 182.249C152.767 182.132 152.894 182.041 153.037 181.976C153.187 181.911 153.347 181.878 153.516 181.878C153.686 181.878 153.845 181.911 153.995 181.976C154.151 182.041 154.285 182.132 154.396 182.249C154.513 182.36 154.604 182.494 154.669 182.65C154.741 182.8 154.777 182.96 154.777 183.129ZM162.868 187.869C162.79 188.013 162.669 188.084 162.506 188.084C162.408 188.084 162.298 188.048 162.174 187.977C162.05 187.905 161.897 187.827 161.714 187.742C161.538 187.651 161.327 187.57 161.079 187.498C160.832 187.42 160.538 187.381 160.199 187.381C159.906 187.381 159.642 187.42 159.408 187.498C159.173 187.57 158.971 187.671 158.802 187.801C158.639 187.931 158.512 188.084 158.421 188.26C158.336 188.43 158.294 188.615 158.294 188.817C158.294 189.071 158.365 189.283 158.509 189.453C158.658 189.622 158.854 189.769 159.095 189.892C159.336 190.016 159.61 190.127 159.916 190.225C160.222 190.316 160.535 190.417 160.854 190.528C161.18 190.632 161.496 190.749 161.802 190.88C162.109 191.01 162.382 191.173 162.623 191.368C162.864 191.564 163.057 191.805 163.2 192.092C163.35 192.372 163.425 192.711 163.425 193.108C163.425 193.564 163.343 193.988 163.18 194.379C163.018 194.763 162.777 195.099 162.457 195.385C162.138 195.665 161.747 195.887 161.284 196.05C160.822 196.213 160.287 196.294 159.681 196.294C158.991 196.294 158.365 196.183 157.805 195.962C157.245 195.734 156.769 195.444 156.378 195.092L156.788 194.427C156.841 194.343 156.902 194.278 156.974 194.232C157.046 194.186 157.137 194.164 157.248 194.164C157.365 194.164 157.489 194.209 157.619 194.3C157.75 194.392 157.906 194.493 158.088 194.603C158.277 194.714 158.505 194.815 158.773 194.906C159.04 194.998 159.372 195.043 159.769 195.043C160.108 195.043 160.405 195.001 160.659 194.916C160.913 194.825 161.125 194.704 161.294 194.555C161.464 194.405 161.587 194.232 161.666 194.037C161.75 193.841 161.793 193.633 161.793 193.411C161.793 193.137 161.718 192.913 161.568 192.737C161.424 192.554 161.232 192.401 160.991 192.277C160.75 192.147 160.473 192.036 160.16 191.945C159.854 191.847 159.538 191.746 159.212 191.642C158.893 191.538 158.577 191.42 158.264 191.29C157.958 191.153 157.684 190.984 157.443 190.782C157.202 190.58 157.007 190.332 156.857 190.039C156.714 189.739 156.642 189.378 156.642 188.954C156.642 188.576 156.72 188.215 156.876 187.869C157.033 187.517 157.261 187.211 157.561 186.951C157.86 186.683 158.228 186.472 158.665 186.315C159.102 186.159 159.6 186.081 160.16 186.081C160.812 186.081 161.395 186.185 161.91 186.393C162.431 186.595 162.881 186.876 163.259 187.234L162.868 187.869ZM168.435 196.294C167.653 196.294 167.05 196.076 166.626 195.639C166.209 195.203 166.001 194.574 166.001 193.753V187.693H164.808C164.704 187.693 164.616 187.664 164.545 187.605C164.473 187.54 164.437 187.442 164.437 187.312V186.618L166.06 186.413L166.46 183.354C166.48 183.256 166.522 183.178 166.587 183.119C166.659 183.054 166.75 183.021 166.861 183.021H167.741V186.433H170.604V187.693H167.741V193.636C167.741 194.053 167.842 194.362 168.044 194.564C168.246 194.766 168.506 194.867 168.825 194.867C169.008 194.867 169.164 194.844 169.295 194.799C169.431 194.747 169.549 194.691 169.646 194.633C169.744 194.574 169.826 194.522 169.891 194.476C169.963 194.424 170.024 194.398 170.077 194.398C170.168 194.398 170.249 194.454 170.321 194.564L170.829 195.395C170.529 195.675 170.168 195.897 169.744 196.06C169.321 196.216 168.884 196.294 168.435 196.294ZM176.354 186.081C177.077 186.081 177.729 186.201 178.309 186.442C178.889 186.683 179.384 187.025 179.794 187.469C180.205 187.912 180.518 188.449 180.733 189.081C180.954 189.707 181.065 190.407 181.065 191.183C181.065 191.964 180.954 192.668 180.733 193.294C180.518 193.919 180.205 194.454 179.794 194.897C179.384 195.34 178.889 195.682 178.309 195.923C177.729 196.157 177.077 196.275 176.354 196.275C175.624 196.275 174.966 196.157 174.38 195.923C173.8 195.682 173.305 195.34 172.894 194.897C172.484 194.454 172.167 193.919 171.946 193.294C171.731 192.668 171.623 191.964 171.623 191.183C171.623 190.407 171.731 189.707 171.946 189.081C172.167 188.449 172.484 187.912 172.894 187.469C173.305 187.025 173.8 186.683 174.38 186.442C174.966 186.201 175.624 186.081 176.354 186.081ZM176.354 194.916C177.331 194.916 178.061 194.59 178.543 193.939C179.025 193.281 179.267 192.365 179.267 191.192C179.267 190.013 179.025 189.094 178.543 188.436C178.061 187.778 177.331 187.449 176.354 187.449C175.859 187.449 175.425 187.534 175.054 187.703C174.689 187.873 174.383 188.117 174.135 188.436C173.894 188.755 173.712 189.15 173.588 189.619C173.471 190.081 173.412 190.606 173.412 191.192C173.412 192.365 173.653 193.281 174.135 193.939C174.624 194.59 175.364 194.916 176.354 194.916ZM184.76 188.221C185.073 187.543 185.458 187.016 185.914 186.638C186.37 186.253 186.927 186.061 187.585 186.061C187.793 186.061 187.992 186.084 188.181 186.13C188.377 186.175 188.549 186.247 188.699 186.345L188.572 187.644C188.533 187.807 188.435 187.889 188.279 187.889C188.188 187.889 188.054 187.869 187.878 187.83C187.702 187.791 187.503 187.772 187.282 187.772C186.969 187.772 186.689 187.817 186.441 187.908C186.2 188 185.982 188.136 185.787 188.319C185.598 188.495 185.425 188.716 185.269 188.983C185.119 189.244 184.982 189.544 184.858 189.883V196.138H183.109V186.237H184.105C184.294 186.237 184.425 186.273 184.496 186.345C184.568 186.416 184.617 186.54 184.643 186.716L184.76 188.221ZM198.608 186.237L193.086 199.06C193.027 199.191 192.953 199.295 192.861 199.373C192.777 199.451 192.643 199.49 192.461 199.49H191.17L192.979 195.561L188.893 186.237H190.398C190.548 186.237 190.665 186.276 190.75 186.354C190.841 186.426 190.903 186.507 190.936 186.599L193.585 192.834C193.689 193.108 193.777 193.395 193.848 193.694C193.94 193.388 194.037 193.098 194.142 192.825L196.712 186.599C196.751 186.494 196.816 186.41 196.908 186.345C197.005 186.273 197.113 186.237 197.23 186.237H198.608Z" fill="#D1D1D1"/>
<path d="M60.5941 224.007C60.5941 226.706 58.4061 228.894 55.7072 228.894C53.0082 228.894 50.8203 226.706 50.8203 224.007C50.8203 221.308 53.0082 219.12 55.7072 219.12C58.4061 219.12 60.5941 221.308 60.5941 224.007Z" fill="#D1D1D1"/>
<path d="M92.0238 228.814L92.0075 229.507H85.1007V217.982H92.0075V218.674H85.9396V223.333H90.9894V224.009H85.9396V228.814H92.0238ZM99.9662 229.507H99.225C99.149 229.507 99.0893 229.485 99.0459 229.441C99.0024 229.393 98.9671 229.346 98.94 229.303L96.4803 225.711C96.4585 225.809 96.4178 225.904 96.3581 225.996L94.0124 229.303C93.9744 229.352 93.9336 229.398 93.8902 229.441C93.8522 229.485 93.8006 229.507 93.7355 229.507H93.035L95.9834 225.361L93.149 221.403H93.8902C93.9662 221.403 94.0232 221.419 94.0612 221.451C94.0993 221.484 94.1318 221.522 94.159 221.565L96.5373 224.994C96.5481 224.951 96.5644 224.905 96.5861 224.856C96.6133 224.807 96.6404 224.758 96.6676 224.709L98.8911 221.574C98.9237 221.525 98.959 221.484 98.997 221.451C99.035 221.419 99.0839 221.403 99.1436 221.403H99.8522L97.026 225.312L99.9662 229.507ZM102.275 227.739C102.433 227.973 102.596 228.171 102.764 228.334C102.938 228.491 103.12 228.622 103.31 228.725C103.5 228.822 103.701 228.893 103.912 228.937C104.13 228.98 104.358 229.002 104.597 229.002C105.074 229.002 105.492 228.915 105.851 228.741C106.209 228.567 106.508 228.323 106.747 228.008C106.991 227.688 107.173 227.308 107.292 226.868C107.417 226.422 107.48 225.934 107.48 225.402C107.48 224.196 107.257 223.311 106.812 222.746C106.367 222.176 105.729 221.891 104.898 221.891C104.36 221.891 103.874 222.03 103.44 222.307C103.006 222.584 102.617 222.969 102.275 223.463V227.739ZM102.243 222.86C102.601 222.372 103.019 221.984 103.497 221.696C103.98 221.408 104.521 221.264 105.118 221.264C106.111 221.264 106.885 221.609 107.439 222.299C107.998 222.988 108.278 224.022 108.278 225.402C108.278 225.994 108.199 226.547 108.042 227.063C107.89 227.574 107.662 228.019 107.358 228.399C107.059 228.774 106.69 229.07 106.25 229.287C105.816 229.504 105.313 229.613 104.743 229.613C104.195 229.613 103.72 229.512 103.318 229.311C102.916 229.11 102.568 228.814 102.275 228.423V232.374H101.493V221.403H101.925C102.061 221.403 102.14 221.47 102.161 221.606L102.243 222.86ZM116.003 224.636C116.003 224.202 115.941 223.813 115.816 223.471C115.697 223.124 115.526 222.831 115.303 222.592C115.08 222.353 114.814 222.171 114.505 222.046C114.201 221.916 113.864 221.851 113.495 221.851C113.077 221.851 112.702 221.916 112.371 222.046C112.04 222.176 111.752 222.364 111.508 222.608C111.269 222.852 111.076 223.146 110.929 223.488C110.783 223.83 110.685 224.213 110.636 224.636H116.003ZM110.595 225.133V225.288C110.595 225.896 110.666 226.431 110.807 226.892C110.948 227.354 111.149 227.742 111.41 228.057C111.67 228.366 111.985 228.6 112.355 228.757C112.724 228.915 113.136 228.994 113.593 228.994C114 228.994 114.353 228.95 114.651 228.863C114.95 228.771 115.2 228.67 115.401 228.562C115.607 228.448 115.77 228.347 115.889 228.26C116.009 228.168 116.096 228.122 116.15 228.122C116.221 228.122 116.275 228.149 116.313 228.203L116.525 228.464C116.394 228.627 116.221 228.779 116.003 228.92C115.792 229.061 115.553 229.184 115.287 229.287C115.026 229.384 114.744 229.463 114.44 229.523C114.141 229.583 113.84 229.613 113.536 229.613C112.982 229.613 112.477 229.518 112.021 229.327C111.565 229.132 111.174 228.85 110.848 228.48C110.522 228.111 110.27 227.66 110.09 227.128C109.917 226.591 109.83 225.977 109.83 225.288C109.83 224.707 109.911 224.172 110.074 223.683C110.242 223.189 110.481 222.765 110.791 222.413C111.106 222.054 111.489 221.775 111.939 221.574C112.395 221.373 112.911 221.272 113.487 221.272C113.943 221.272 114.366 221.351 114.757 221.508C115.148 221.666 115.488 221.897 115.775 222.201C116.063 222.499 116.289 222.869 116.451 223.308C116.62 223.748 116.704 224.253 116.704 224.823C116.704 224.943 116.688 225.024 116.655 225.068C116.622 225.111 116.568 225.133 116.492 225.133H110.595ZM119.391 222.82C119.766 222.353 120.198 221.978 120.686 221.696C121.181 221.413 121.729 221.272 122.332 221.272C122.777 221.272 123.168 221.343 123.505 221.484C123.847 221.625 124.129 221.829 124.352 222.095C124.574 222.361 124.743 222.681 124.857 223.056C124.971 223.431 125.028 223.854 125.028 224.327V229.507H124.246V224.327C124.246 223.566 124.072 222.972 123.724 222.543C123.377 222.108 122.848 221.891 122.136 221.891C121.61 221.891 121.115 222.027 120.654 222.299C120.198 222.565 119.791 222.937 119.432 223.414V229.507H118.65V221.403H119.082C119.218 221.403 119.296 221.47 119.318 221.606L119.391 222.82ZM132.974 223.146C132.664 222.679 132.319 222.35 131.939 222.16C131.565 221.97 131.136 221.875 130.653 221.875C130.175 221.875 129.757 221.962 129.398 222.136C129.04 222.309 128.738 222.556 128.494 222.877C128.255 223.192 128.073 223.572 127.948 224.017C127.829 224.457 127.769 224.943 127.769 225.475C127.769 226.68 127.989 227.568 128.429 228.138C128.874 228.703 129.515 228.985 130.351 228.985C130.883 228.985 131.369 228.847 131.809 228.57C132.249 228.293 132.637 227.905 132.974 227.405V223.146ZM133.748 217.656V229.507H133.324C133.183 229.507 133.101 229.436 133.08 229.295L132.998 228.016C132.64 228.505 132.222 228.893 131.744 229.181C131.266 229.469 130.729 229.613 130.131 229.613C129.132 229.613 128.356 229.268 127.802 228.578C127.248 227.889 126.971 226.854 126.971 225.475C126.971 224.883 127.047 224.332 127.199 223.822C127.357 223.306 127.585 222.86 127.883 222.486C128.182 222.106 128.548 221.807 128.983 221.59C129.423 221.373 129.928 221.264 130.498 221.264C131.046 221.264 131.521 221.365 131.923 221.565C132.325 221.766 132.675 222.065 132.974 222.461V217.656H133.748ZM137.116 221.403V229.507H136.342V221.403H137.116ZM137.45 218.609C137.45 218.707 137.428 218.799 137.385 218.886C137.347 218.967 137.295 219.041 137.23 219.106C137.165 219.171 137.089 219.222 137.002 219.26C136.915 219.299 136.823 219.318 136.725 219.318C136.627 219.318 136.535 219.299 136.448 219.26C136.361 219.222 136.285 219.171 136.22 219.106C136.155 219.041 136.103 218.967 136.065 218.886C136.027 218.799 136.008 218.707 136.008 218.609C136.008 218.511 136.027 218.419 136.065 218.332C136.103 218.24 136.155 218.161 136.22 218.096C136.285 218.031 136.361 217.979 136.448 217.941C136.535 217.903 136.627 217.884 136.725 217.884C136.823 217.884 136.915 217.903 137.002 217.941C137.089 217.979 137.165 218.031 137.23 218.096C137.295 218.161 137.347 218.24 137.385 218.332C137.428 218.419 137.45 218.511 137.45 218.609ZM141.932 229.637C141.384 229.637 140.955 229.485 140.645 229.181C140.341 228.877 140.189 228.407 140.189 227.772V222.233H139.024C138.965 222.233 138.916 222.217 138.878 222.184C138.84 222.152 138.821 222.106 138.821 222.046V221.745L140.205 221.647L140.401 218.747C140.412 218.699 140.433 218.655 140.466 218.617C140.499 218.579 140.545 218.56 140.604 218.56H140.971V221.655H143.528V222.233H140.971V227.731C140.971 227.954 140.998 228.146 141.052 228.309C141.112 228.467 141.191 228.597 141.289 228.7C141.392 228.803 141.511 228.88 141.647 228.928C141.783 228.977 141.929 229.002 142.087 229.002C142.282 229.002 142.451 228.975 142.592 228.92C142.733 228.86 142.855 228.798 142.958 228.733C143.061 228.662 143.146 228.6 143.211 228.546C143.276 228.486 143.328 228.456 143.366 228.456C143.409 228.456 143.452 228.483 143.496 228.537L143.708 228.88C143.501 229.108 143.238 229.292 142.918 229.433C142.603 229.569 142.274 229.637 141.932 229.637ZM151.425 221.403V229.507H150.994C150.858 229.507 150.779 229.436 150.757 229.295L150.684 228.089C150.309 228.556 149.875 228.931 149.381 229.213C148.892 229.496 148.346 229.637 147.744 229.637C147.293 229.637 146.899 229.566 146.563 229.425C146.226 229.284 145.946 229.08 145.724 228.814C145.501 228.548 145.333 228.228 145.219 227.853C145.105 227.479 145.048 227.055 145.048 226.583V221.403H145.83V226.583C145.83 227.343 146.003 227.94 146.351 228.375C146.698 228.803 147.228 229.018 147.939 229.018C148.466 229.018 148.957 228.885 149.413 228.619C149.875 228.347 150.285 227.973 150.643 227.495V221.403H151.425ZM154.672 223.357C154.797 223.026 154.938 222.733 155.095 222.478C155.258 222.217 155.443 221.997 155.649 221.818C155.861 221.639 156.094 221.503 156.35 221.411C156.61 221.313 156.898 221.264 157.213 221.264C157.381 221.264 157.547 221.28 157.71 221.313C157.873 221.34 158.017 221.392 158.141 221.468L158.076 222.005C158.049 222.092 157.998 222.136 157.922 222.136C157.856 222.136 157.756 222.117 157.62 222.079C157.49 222.041 157.316 222.022 157.099 222.022C156.784 222.022 156.504 222.07 156.26 222.168C156.021 222.26 155.804 222.402 155.608 222.592C155.418 222.782 155.25 223.018 155.103 223.3C154.962 223.577 154.832 223.898 154.712 224.261V229.507H153.931V221.403H154.346C154.438 221.403 154.503 221.422 154.541 221.46C154.579 221.498 154.604 221.563 154.615 221.655L154.672 223.357ZM164.75 224.636C164.75 224.202 164.688 223.813 164.563 223.471C164.443 223.124 164.272 222.831 164.05 222.592C163.827 222.353 163.561 222.171 163.251 222.046C162.947 221.916 162.611 221.851 162.241 221.851C161.823 221.851 161.449 221.916 161.117 222.046C160.786 222.176 160.498 222.364 160.254 222.608C160.015 222.852 159.822 223.146 159.676 223.488C159.529 223.83 159.432 224.213 159.383 224.636H164.75ZM159.342 225.133V225.288C159.342 225.896 159.413 226.431 159.554 226.892C159.695 227.354 159.896 227.742 160.156 228.057C160.417 228.366 160.732 228.6 161.101 228.757C161.47 228.915 161.883 228.994 162.339 228.994C162.746 228.994 163.099 228.95 163.398 228.863C163.697 228.771 163.946 228.67 164.147 228.562C164.354 228.448 164.517 228.347 164.636 228.26C164.755 228.168 164.842 228.122 164.897 228.122C164.967 228.122 165.022 228.149 165.06 228.203L165.271 228.464C165.141 228.627 164.967 228.779 164.75 228.92C164.538 229.061 164.299 229.184 164.033 229.287C163.773 229.384 163.49 229.463 163.186 229.523C162.888 229.583 162.586 229.613 162.282 229.613C161.728 229.613 161.223 229.518 160.767 229.327C160.311 229.132 159.92 228.85 159.594 228.48C159.269 228.111 159.016 227.66 158.837 227.128C158.663 226.591 158.576 225.977 158.576 225.288C158.576 224.707 158.658 224.172 158.821 223.683C158.989 223.189 159.228 222.765 159.537 222.413C159.852 222.054 160.235 221.775 160.686 221.574C161.142 221.373 161.658 221.272 162.233 221.272C162.689 221.272 163.113 221.351 163.504 221.508C163.895 221.666 164.234 221.897 164.522 222.201C164.81 222.499 165.035 222.869 165.198 223.308C165.366 223.748 165.451 224.253 165.451 224.823C165.451 224.943 165.434 225.024 165.402 225.068C165.369 225.111 165.315 225.133 165.239 225.133H159.342ZM180.917 217.982V229.507H180.078V223.984H172.862V229.507H172.023V217.982H172.862V223.357H180.078V217.982H180.917ZM184.526 221.403V229.507H183.753V221.403H184.526ZM184.86 218.609C184.86 218.707 184.838 218.799 184.795 218.886C184.757 218.967 184.705 219.041 184.64 219.106C184.575 219.171 184.499 219.222 184.412 219.26C184.325 219.299 184.233 219.318 184.135 219.318C184.038 219.318 183.945 219.299 183.858 219.26C183.772 219.222 183.695 219.171 183.63 219.106C183.565 219.041 183.514 218.967 183.476 218.886C183.438 218.799 183.419 218.707 183.419 218.609C183.419 218.511 183.438 218.419 183.476 218.332C183.514 218.24 183.565 218.161 183.63 218.096C183.695 218.031 183.772 217.979 183.858 217.941C183.945 217.903 184.038 217.884 184.135 217.884C184.233 217.884 184.325 217.903 184.412 217.941C184.499 217.979 184.575 218.031 184.64 218.096C184.705 218.161 184.757 218.24 184.795 218.332C184.838 218.419 184.86 218.511 184.86 218.609ZM191.582 222.404C191.539 222.48 191.476 222.518 191.395 222.518C191.335 222.518 191.259 222.486 191.167 222.421C191.075 222.35 190.95 222.274 190.792 222.193C190.64 222.106 190.45 222.03 190.222 221.965C189.994 221.894 189.717 221.859 189.391 221.859C189.098 221.859 188.829 221.902 188.585 221.989C188.346 222.07 188.14 222.182 187.966 222.323C187.798 222.464 187.667 222.63 187.575 222.82C187.483 223.004 187.437 223.2 187.437 223.406C187.437 223.661 187.502 223.873 187.632 224.041C187.762 224.21 187.931 224.354 188.137 224.473C188.349 224.593 188.59 224.696 188.862 224.783C189.133 224.87 189.408 224.956 189.684 225.043C189.967 225.13 190.244 225.228 190.515 225.337C190.787 225.44 191.026 225.57 191.232 225.727C191.444 225.885 191.615 226.078 191.745 226.306C191.875 226.534 191.941 226.811 191.941 227.137C191.941 227.489 191.878 227.818 191.753 228.122C191.628 228.426 191.444 228.689 191.199 228.912C190.96 229.135 190.665 229.311 190.312 229.441C189.959 229.572 189.554 229.637 189.098 229.637C188.528 229.637 188.037 229.547 187.624 229.368C187.211 229.184 186.842 228.945 186.516 228.651L186.695 228.375C186.722 228.331 186.752 228.299 186.785 228.277C186.823 228.255 186.872 228.244 186.932 228.244C187.002 228.244 187.086 228.288 187.184 228.375C187.287 228.461 187.423 228.556 187.591 228.66C187.76 228.757 187.966 228.85 188.21 228.937C188.46 229.023 188.767 229.067 189.131 229.067C189.473 229.067 189.774 229.021 190.035 228.928C190.295 228.831 190.513 228.7 190.686 228.537C190.86 228.375 190.99 228.184 191.077 227.967C191.17 227.745 191.216 227.511 191.216 227.267C191.216 226.995 191.151 226.77 191.02 226.591C190.89 226.412 190.719 226.26 190.507 226.135C190.295 226.01 190.054 225.904 189.782 225.817C189.516 225.73 189.242 225.643 188.96 225.556C188.677 225.47 188.4 225.375 188.129 225.271C187.863 225.168 187.624 225.038 187.412 224.88C187.2 224.723 187.029 224.533 186.899 224.31C186.769 224.082 186.703 223.8 186.703 223.463C186.703 223.175 186.766 222.899 186.891 222.632C187.016 222.366 187.192 222.133 187.42 221.932C187.654 221.731 187.936 221.571 188.267 221.451C188.598 221.332 188.97 221.272 189.383 221.272C189.877 221.272 190.314 221.343 190.694 221.484C191.08 221.625 191.43 221.842 191.745 222.136L191.582 222.404ZM196.099 229.637C195.551 229.637 195.122 229.485 194.813 229.181C194.508 228.877 194.356 228.407 194.356 227.772V222.233H193.192C193.132 222.233 193.083 222.217 193.045 222.184C193.007 222.152 192.988 222.106 192.988 222.046V221.745L194.373 221.647L194.568 218.747C194.579 218.699 194.601 218.655 194.633 218.617C194.666 218.579 194.712 218.56 194.772 218.56H195.138V221.655H197.696V222.233H195.138V227.731C195.138 227.954 195.165 228.146 195.22 228.309C195.279 228.467 195.358 228.597 195.456 228.7C195.559 228.803 195.679 228.88 195.814 228.928C195.95 228.977 196.097 229.002 196.254 229.002C196.45 229.002 196.618 228.975 196.759 228.92C196.9 228.86 197.022 228.798 197.126 228.733C197.229 228.662 197.313 228.6 197.378 228.546C197.443 228.486 197.495 228.456 197.533 228.456C197.576 228.456 197.62 228.483 197.663 228.537L197.875 228.88C197.669 229.108 197.405 229.292 197.085 229.433C196.77 229.569 196.441 229.637 196.099 229.637ZM202.482 221.272C203.063 221.272 203.582 221.373 204.038 221.574C204.499 221.769 204.887 222.049 205.202 222.413C205.517 222.776 205.756 223.216 205.919 223.732C206.087 224.242 206.172 224.815 206.172 225.451C206.172 226.086 206.087 226.659 205.919 227.169C205.756 227.68 205.517 228.117 205.202 228.48C204.887 228.844 204.499 229.124 204.038 229.319C203.582 229.515 203.063 229.613 202.482 229.613C201.901 229.613 201.38 229.515 200.918 229.319C200.462 229.124 200.074 228.844 199.753 228.48C199.439 228.117 199.197 227.68 199.029 227.169C198.866 226.659 198.784 226.086 198.784 225.451C198.784 224.815 198.866 224.242 199.029 223.732C199.197 223.216 199.439 222.776 199.753 222.413C200.074 222.049 200.462 221.769 200.918 221.574C201.38 221.373 201.901 221.272 202.482 221.272ZM202.482 229.002C202.965 229.002 203.386 228.92 203.744 228.757C204.108 228.589 204.41 228.35 204.648 228.041C204.893 227.731 205.075 227.359 205.194 226.925C205.314 226.485 205.373 225.994 205.373 225.451C205.373 224.913 205.314 224.424 205.194 223.984C205.075 223.545 204.893 223.17 204.648 222.86C204.41 222.546 204.108 222.304 203.744 222.136C203.386 221.967 202.965 221.883 202.482 221.883C201.999 221.883 201.575 221.967 201.211 222.136C200.853 222.304 200.552 222.546 200.307 222.86C200.068 223.17 199.887 223.545 199.762 223.984C199.642 224.424 199.582 224.913 199.582 225.451C199.582 225.994 199.642 226.485 199.762 226.925C199.887 227.359 200.068 227.731 200.307 228.041C200.552 228.35 200.853 228.589 201.211 228.757C201.575 228.92 201.999 229.002 202.482 229.002ZM208.935 223.357C209.059 223.026 209.201 222.733 209.358 222.478C209.521 222.217 209.706 221.997 209.912 221.818C210.124 221.639 210.357 221.503 210.612 221.411C210.873 221.313 211.161 221.264 211.476 221.264C211.644 221.264 211.81 221.28 211.973 221.313C212.135 221.34 212.279 221.392 212.404 221.468L212.339 222.005C212.312 222.092 212.26 222.136 212.184 222.136C212.119 222.136 212.019 222.117 211.883 222.079C211.753 222.041 211.579 222.022 211.362 222.022C211.047 222.022 210.767 222.07 210.523 222.168C210.284 222.26 210.067 222.402 209.871 222.592C209.681 222.782 209.513 223.018 209.366 223.3C209.225 223.577 209.095 223.898 208.975 224.261V229.507H208.193V221.403H208.609C208.701 221.403 208.766 221.422 208.804 221.46C208.842 221.498 208.867 221.563 208.878 221.655L208.935 223.357ZM220.338 221.403L215.679 232.113C215.646 232.189 215.603 232.251 215.548 232.3C215.5 232.349 215.426 232.374 215.328 232.374H214.775L216.2 229.205L212.771 221.403H213.414C213.496 221.403 213.561 221.424 213.61 221.468C213.659 221.506 213.691 221.549 213.708 221.598L216.436 227.902C216.469 227.984 216.496 228.068 216.518 228.155C216.545 228.236 216.569 228.32 216.591 228.407C216.618 228.32 216.645 228.236 216.672 228.155C216.705 228.068 216.738 227.984 216.77 227.902L219.466 221.598C219.493 221.538 219.531 221.492 219.58 221.46C219.629 221.422 219.683 221.403 219.743 221.403H220.338Z" fill="#D1D1D1"/>
<path d="M60.5941 263.102C60.5941 265.801 58.4061 267.989 55.7072 267.989C53.0082 267.989 50.8203 265.801 50.8203 263.102C50.8203 260.403 53.0082 258.215 55.7072 258.215C58.4061 258.215 60.5941 260.403 60.5941 263.102Z" fill="#D1D1D1"/>
<path d="M92.0238 267.909L92.0075 268.602H85.1007V257.077H92.0075V257.769H85.9396V262.428H90.9894V263.104H85.9396V267.909H92.0238ZM99.9662 268.602H99.225C99.149 268.602 99.0893 268.58 99.0459 268.537C99.0024 268.488 98.9671 268.442 98.94 268.398L96.4803 264.806C96.4585 264.904 96.4178 264.999 96.3581 265.091L94.0124 268.398C93.9744 268.447 93.9336 268.493 93.8902 268.537C93.8522 268.58 93.8006 268.602 93.7355 268.602H93.035L95.9834 264.456L93.149 260.498H93.8902C93.9662 260.498 94.0232 260.514 94.0612 260.546C94.0993 260.579 94.1318 260.617 94.159 260.661L96.5373 264.089C96.5481 264.046 96.5644 264 96.5861 263.951C96.6133 263.902 96.6404 263.853 96.6676 263.804L98.8911 260.669C98.9237 260.62 98.959 260.579 98.997 260.546C99.035 260.514 99.0839 260.498 99.1436 260.498H99.8522L97.026 264.407L99.9662 268.602ZM102.275 266.834C102.433 267.068 102.596 267.266 102.764 267.429C102.938 267.586 103.12 267.717 103.31 267.82C103.5 267.918 103.701 267.988 103.912 268.032C104.13 268.075 104.358 268.097 104.597 268.097C105.074 268.097 105.492 268.01 105.851 267.836C106.209 267.662 106.508 267.418 106.747 267.103C106.991 266.783 107.173 266.403 107.292 265.963C107.417 265.518 107.48 265.029 107.48 264.497C107.48 263.291 107.257 262.406 106.812 261.842C106.367 261.271 105.729 260.986 104.898 260.986C104.36 260.986 103.874 261.125 103.44 261.402C103.006 261.679 102.617 262.064 102.275 262.558V266.834ZM102.243 261.956C102.601 261.467 103.019 261.079 103.497 260.791C103.98 260.503 104.521 260.359 105.118 260.359C106.111 260.359 106.885 260.704 107.439 261.394C107.998 262.083 108.278 263.118 108.278 264.497C108.278 265.089 108.199 265.642 108.042 266.158C107.89 266.669 107.662 267.114 107.358 267.494C107.059 267.869 106.69 268.165 106.25 268.382C105.816 268.599 105.313 268.708 104.743 268.708C104.195 268.708 103.72 268.607 103.318 268.406C102.916 268.205 102.568 267.909 102.275 267.518V271.469H101.493V260.498H101.925C102.061 260.498 102.14 260.565 102.161 260.701L102.243 261.956ZM116.003 263.731C116.003 263.297 115.941 262.908 115.816 262.566C115.697 262.219 115.526 261.926 115.303 261.687C115.08 261.448 114.814 261.266 114.505 261.141C114.201 261.011 113.864 260.946 113.495 260.946C113.077 260.946 112.702 261.011 112.371 261.141C112.04 261.271 111.752 261.459 111.508 261.703C111.269 261.947 111.076 262.241 110.929 262.583C110.783 262.925 110.685 263.308 110.636 263.731H116.003ZM110.595 264.228V264.383C110.595 264.991 110.666 265.526 110.807 265.987C110.948 266.449 111.149 266.837 111.41 267.152C111.67 267.461 111.985 267.695 112.355 267.852C112.724 268.01 113.136 268.089 113.593 268.089C114 268.089 114.353 268.045 114.651 267.958C114.95 267.866 115.2 267.765 115.401 267.657C115.607 267.543 115.77 267.442 115.889 267.356C116.009 267.263 116.096 267.217 116.15 267.217C116.221 267.217 116.275 267.244 116.313 267.299L116.525 267.559C116.394 267.722 116.221 267.874 116.003 268.015C115.792 268.156 115.553 268.279 115.287 268.382C115.026 268.48 114.744 268.558 114.44 268.618C114.141 268.678 113.84 268.708 113.536 268.708C112.982 268.708 112.477 268.613 112.021 268.422C111.565 268.227 111.174 267.945 110.848 267.575C110.522 267.206 110.27 266.756 110.09 266.223C109.917 265.686 109.83 265.072 109.83 264.383C109.83 263.802 109.911 263.267 110.074 262.778C110.242 262.284 110.481 261.861 110.791 261.508C111.106 261.149 111.489 260.87 111.939 260.669C112.395 260.468 112.911 260.367 113.487 260.367C113.943 260.367 114.366 260.446 114.757 260.603C115.148 260.761 115.488 260.992 115.775 261.296C116.063 261.594 116.289 261.964 116.451 262.403C116.62 262.843 116.704 263.348 116.704 263.918C116.704 264.038 116.688 264.119 116.655 264.163C116.622 264.206 116.568 264.228 116.492 264.228H110.595ZM119.391 261.915C119.766 261.448 120.198 261.073 120.686 260.791C121.181 260.508 121.729 260.367 122.332 260.367C122.777 260.367 123.168 260.438 123.505 260.579C123.847 260.72 124.129 260.924 124.352 261.19C124.574 261.456 124.743 261.776 124.857 262.151C124.971 262.526 125.028 262.949 125.028 263.422V268.602H124.246V263.422C124.246 262.661 124.072 262.067 123.724 261.638C123.377 261.203 122.848 260.986 122.136 260.986C121.61 260.986 121.115 261.122 120.654 261.394C120.198 261.66 119.791 262.032 119.432 262.509V268.602H118.65V260.498H119.082C119.218 260.498 119.296 260.565 119.318 260.701L119.391 261.915ZM132.974 262.241C132.664 261.774 132.319 261.445 131.939 261.255C131.565 261.065 131.136 260.97 130.653 260.97C130.175 260.97 129.757 261.057 129.398 261.231C129.04 261.404 128.738 261.651 128.494 261.972C128.255 262.287 128.073 262.667 127.948 263.112C127.829 263.552 127.769 264.038 127.769 264.57C127.769 265.775 127.989 266.663 128.429 267.233C128.874 267.798 129.515 268.08 130.351 268.08C130.883 268.08 131.369 267.942 131.809 267.665C132.249 267.388 132.637 267 132.974 266.5V262.241ZM133.748 256.751V268.602H133.324C133.183 268.602 133.101 268.531 133.08 268.39L132.998 267.111C132.64 267.6 132.222 267.988 131.744 268.276C131.266 268.564 130.729 268.708 130.131 268.708C129.132 268.708 128.356 268.363 127.802 267.673C127.248 266.984 126.971 265.949 126.971 264.57C126.971 263.978 127.047 263.427 127.199 262.917C127.357 262.401 127.585 261.956 127.883 261.581C128.182 261.201 128.548 260.902 128.983 260.685C129.423 260.468 129.928 260.359 130.498 260.359C131.046 260.359 131.521 260.46 131.923 260.661C132.325 260.861 132.675 261.16 132.974 261.556V256.751H133.748ZM137.116 260.498V268.602H136.342V260.498H137.116ZM137.45 257.704C137.45 257.802 137.428 257.894 137.385 257.981C137.347 258.062 137.295 258.136 137.23 258.201C137.165 258.266 137.089 258.318 137.002 258.356C136.915 258.394 136.823 258.413 136.725 258.413C136.627 258.413 136.535 258.394 136.448 258.356C136.361 258.318 136.285 258.266 136.22 258.201C136.155 258.136 136.103 258.062 136.065 257.981C136.027 257.894 136.008 257.802 136.008 257.704C136.008 257.606 136.027 257.514 136.065 257.427C136.103 257.335 136.155 257.256 136.22 257.191C136.285 257.126 136.361 257.074 136.448 257.036C136.535 256.998 136.627 256.979 136.725 256.979C136.823 256.979 136.915 256.998 137.002 257.036C137.089 257.074 137.165 257.126 137.23 257.191C137.295 257.256 137.347 257.335 137.385 257.427C137.428 257.514 137.45 257.606 137.45 257.704ZM141.932 268.732C141.384 268.732 140.955 268.58 140.645 268.276C140.341 267.972 140.189 267.502 140.189 266.867V261.328H139.024C138.965 261.328 138.916 261.312 138.878 261.28C138.84 261.247 138.821 261.201 138.821 261.141V260.84L140.205 260.742L140.401 257.842C140.412 257.794 140.433 257.75 140.466 257.712C140.499 257.674 140.545 257.655 140.604 257.655H140.971V260.75H143.528V261.328H140.971V266.826C140.971 267.049 140.998 267.242 141.052 267.404C141.112 267.562 141.191 267.692 141.289 267.795C141.392 267.899 141.511 267.975 141.647 268.023C141.783 268.072 141.929 268.097 142.087 268.097C142.282 268.097 142.451 268.07 142.592 268.015C142.733 267.956 142.855 267.893 142.958 267.828C143.061 267.757 143.146 267.695 143.211 267.641C143.276 267.581 143.328 267.551 143.366 267.551C143.409 267.551 143.452 267.578 143.496 267.632L143.708 267.975C143.501 268.203 143.238 268.387 142.918 268.528C142.603 268.664 142.274 268.732 141.932 268.732ZM151.425 260.498V268.602H150.994C150.858 268.602 150.779 268.531 150.757 268.39L150.684 267.184C150.309 267.651 149.875 268.026 149.381 268.308C148.892 268.591 148.346 268.732 147.744 268.732C147.293 268.732 146.899 268.661 146.563 268.52C146.226 268.379 145.946 268.175 145.724 267.909C145.501 267.643 145.333 267.323 145.219 266.948C145.105 266.574 145.048 266.15 145.048 265.678V260.498H145.83V265.678C145.83 266.438 146.003 267.035 146.351 267.47C146.698 267.899 147.228 268.113 147.939 268.113C148.466 268.113 148.957 267.98 149.413 267.714C149.875 267.442 150.285 267.068 150.643 266.59V260.498H151.425ZM154.672 262.452C154.797 262.121 154.938 261.828 155.095 261.573C155.258 261.312 155.443 261.092 155.649 260.913C155.861 260.734 156.094 260.598 156.35 260.506C156.61 260.408 156.898 260.359 157.213 260.359C157.381 260.359 157.547 260.375 157.71 260.408C157.873 260.435 158.017 260.487 158.141 260.563L158.076 261.1C158.049 261.187 157.998 261.231 157.922 261.231C157.856 261.231 157.756 261.212 157.62 261.174C157.49 261.136 157.316 261.117 157.099 261.117C156.784 261.117 156.504 261.165 156.26 261.263C156.021 261.356 155.804 261.497 155.608 261.687C155.418 261.877 155.25 262.113 155.103 262.395C154.962 262.672 154.832 262.993 154.712 263.356V268.602H153.931V260.498H154.346C154.438 260.498 154.503 260.517 154.541 260.555C154.579 260.593 154.604 260.658 154.615 260.75L154.672 262.452ZM164.75 263.731C164.75 263.297 164.688 262.908 164.563 262.566C164.443 262.219 164.272 261.926 164.05 261.687C163.827 261.448 163.561 261.266 163.251 261.141C162.947 261.011 162.611 260.946 162.241 260.946C161.823 260.946 161.449 261.011 161.117 261.141C160.786 261.271 160.498 261.459 160.254 261.703C160.015 261.947 159.822 262.241 159.676 262.583C159.529 262.925 159.432 263.308 159.383 263.731H164.75ZM159.342 264.228V264.383C159.342 264.991 159.413 265.526 159.554 265.987C159.695 266.449 159.896 266.837 160.156 267.152C160.417 267.461 160.732 267.695 161.101 267.852C161.47 268.01 161.883 268.089 162.339 268.089C162.746 268.089 163.099 268.045 163.398 267.958C163.697 267.866 163.946 267.765 164.147 267.657C164.354 267.543 164.517 267.442 164.636 267.356C164.755 267.263 164.842 267.217 164.897 267.217C164.967 267.217 165.022 267.244 165.06 267.299L165.271 267.559C165.141 267.722 164.967 267.874 164.75 268.015C164.538 268.156 164.299 268.279 164.033 268.382C163.773 268.48 163.49 268.558 163.186 268.618C162.888 268.678 162.586 268.708 162.282 268.708C161.728 268.708 161.223 268.613 160.767 268.422C160.311 268.227 159.92 267.945 159.594 267.575C159.269 267.206 159.016 266.756 158.837 266.223C158.663 265.686 158.576 265.072 158.576 264.383C158.576 263.802 158.658 263.267 158.821 262.778C158.989 262.284 159.228 261.861 159.537 261.508C159.852 261.149 160.235 260.87 160.686 260.669C161.142 260.468 161.658 260.367 162.233 260.367C162.689 260.367 163.113 260.446 163.504 260.603C163.895 260.761 164.234 260.992 164.522 261.296C164.81 261.594 165.035 261.964 165.198 262.403C165.366 262.843 165.451 263.348 165.451 263.918C165.451 264.038 165.434 264.119 165.402 264.163C165.369 264.206 165.315 264.228 165.239 264.228H159.342ZM180.917 257.077V268.602H180.078V263.08H172.862V268.602H172.023V257.077H172.862V262.452H180.078V257.077H180.917ZM184.526 260.498V268.602H183.753V260.498H184.526ZM184.86 257.704C184.86 257.802 184.838 257.894 184.795 257.981C184.757 258.062 184.705 258.136 184.64 258.201C184.575 258.266 184.499 258.318 184.412 258.356C184.325 258.394 184.233 258.413 184.135 258.413C184.038 258.413 183.945 258.394 183.858 258.356C183.772 258.318 183.695 258.266 183.63 258.201C183.565 258.136 183.514 258.062 183.476 257.981C183.438 257.894 183.419 257.802 183.419 257.704C183.419 257.606 183.438 257.514 183.476 257.427C183.514 257.335 183.565 257.256 183.63 257.191C183.695 257.126 183.772 257.074 183.858 257.036C183.945 256.998 184.038 256.979 184.135 256.979C184.233 256.979 184.325 256.998 184.412 257.036C184.499 257.074 184.575 257.126 184.64 257.191C184.705 257.256 184.757 257.335 184.795 257.427C184.838 257.514 184.86 257.606 184.86 257.704ZM191.582 261.499C191.539 261.575 191.476 261.613 191.395 261.613C191.335 261.613 191.259 261.581 191.167 261.516C191.075 261.445 190.95 261.369 190.792 261.288C190.64 261.201 190.45 261.125 190.222 261.06C189.994 260.989 189.717 260.954 189.391 260.954C189.098 260.954 188.829 260.997 188.585 261.084C188.346 261.165 188.14 261.277 187.966 261.418C187.798 261.559 187.667 261.725 187.575 261.915C187.483 262.099 187.437 262.295 187.437 262.501C187.437 262.756 187.502 262.968 187.632 263.137C187.762 263.305 187.931 263.449 188.137 263.568C188.349 263.688 188.59 263.791 188.862 263.878C189.133 263.965 189.408 264.051 189.684 264.138C189.967 264.225 190.244 264.323 190.515 264.432C190.787 264.535 191.026 264.665 191.232 264.822C191.444 264.98 191.615 265.173 191.745 265.401C191.875 265.629 191.941 265.906 191.941 266.232C191.941 266.584 191.878 266.913 191.753 267.217C191.628 267.521 191.444 267.784 191.199 268.007C190.96 268.23 190.665 268.406 190.312 268.537C189.959 268.667 189.554 268.732 189.098 268.732C188.528 268.732 188.037 268.642 187.624 268.463C187.211 268.279 186.842 268.04 186.516 267.746L186.695 267.47C186.722 267.426 186.752 267.394 186.785 267.372C186.823 267.35 186.872 267.339 186.932 267.339C187.002 267.339 187.086 267.383 187.184 267.47C187.287 267.556 187.423 267.651 187.591 267.755C187.76 267.852 187.966 267.945 188.21 268.032C188.46 268.118 188.767 268.162 189.131 268.162C189.473 268.162 189.774 268.116 190.035 268.023C190.295 267.926 190.513 267.795 190.686 267.632C190.86 267.47 190.99 267.28 191.077 267.062C191.17 266.84 191.216 266.606 191.216 266.362C191.216 266.09 191.151 265.865 191.02 265.686C190.89 265.507 190.719 265.355 190.507 265.23C190.295 265.105 190.054 264.999 189.782 264.912C189.516 264.825 189.242 264.738 188.96 264.651C188.677 264.565 188.4 264.47 188.129 264.366C187.863 264.263 187.624 264.133 187.412 263.975C187.2 263.818 187.029 263.628 186.899 263.405C186.769 263.177 186.703 262.895 186.703 262.558C186.703 262.27 186.766 261.994 186.891 261.727C187.016 261.461 187.192 261.228 187.42 261.027C187.654 260.826 187.936 260.666 188.267 260.546C188.598 260.427 188.97 260.367 189.383 260.367C189.877 260.367 190.314 260.438 190.694 260.579C191.08 260.72 191.43 260.937 191.745 261.231L191.582 261.499ZM196.099 268.732C195.551 268.732 195.122 268.58 194.813 268.276C194.508 267.972 194.356 267.502 194.356 266.867V261.328H193.192C193.132 261.328 193.083 261.312 193.045 261.28C193.007 261.247 192.988 261.201 192.988 261.141V260.84L194.373 260.742L194.568 257.842C194.579 257.794 194.601 257.75 194.633 257.712C194.666 257.674 194.712 257.655 194.772 257.655H195.138V260.75H197.696V261.328H195.138V266.826C195.138 267.049 195.165 267.242 195.22 267.404C195.279 267.562 195.358 267.692 195.456 267.795C195.559 267.899 195.679 267.975 195.814 268.023C195.95 268.072 196.097 268.097 196.254 268.097C196.45 268.097 196.618 268.07 196.759 268.015C196.9 267.956 197.022 267.893 197.126 267.828C197.229 267.757 197.313 267.695 197.378 267.641C197.443 267.581 197.495 267.551 197.533 267.551C197.576 267.551 197.62 267.578 197.663 267.632L197.875 267.975C197.669 268.203 197.405 268.387 197.085 268.528C196.77 268.664 196.441 268.732 196.099 268.732ZM202.482 260.367C203.063 260.367 203.582 260.468 204.038 260.669C204.499 260.864 204.887 261.144 205.202 261.508C205.517 261.871 205.756 262.311 205.919 262.827C206.087 263.337 206.172 263.91 206.172 264.546C206.172 265.181 206.087 265.754 205.919 266.264C205.756 266.775 205.517 267.212 205.202 267.575C204.887 267.939 204.499 268.219 204.038 268.414C203.582 268.61 203.063 268.708 202.482 268.708C201.901 268.708 201.38 268.61 200.918 268.414C200.462 268.219 200.074 267.939 199.753 267.575C199.439 267.212 199.197 266.775 199.029 266.264C198.866 265.754 198.784 265.181 198.784 264.546C198.784 263.91 198.866 263.337 199.029 262.827C199.197 262.311 199.439 261.871 199.753 261.508C200.074 261.144 200.462 260.864 200.918 260.669C201.38 260.468 201.901 260.367 202.482 260.367ZM202.482 268.097C202.965 268.097 203.386 268.015 203.744 267.852C204.108 267.684 204.41 267.445 204.648 267.136C204.893 266.826 205.075 266.454 205.194 266.02C205.314 265.58 205.373 265.089 205.373 264.546C205.373 264.008 205.314 263.519 205.194 263.08C205.075 262.64 204.893 262.265 204.648 261.956C204.41 261.641 204.108 261.399 203.744 261.231C203.386 261.062 202.965 260.978 202.482 260.978C201.999 260.978 201.575 261.062 201.211 261.231C200.853 261.399 200.552 261.641 200.307 261.956C200.068 262.265 199.887 262.64 199.762 263.08C199.642 263.519 199.582 264.008 199.582 264.546C199.582 265.089 199.642 265.58 199.762 266.02C199.887 266.454 200.068 266.826 200.307 267.136C200.552 267.445 200.853 267.684 201.211 267.852C201.575 268.015 201.999 268.097 202.482 268.097ZM208.935 262.452C209.059 262.121 209.201 261.828 209.358 261.573C209.521 261.312 209.706 261.092 209.912 260.913C210.124 260.734 210.357 260.598 210.612 260.506C210.873 260.408 211.161 260.359 211.476 260.359C211.644 260.359 211.81 260.375 211.973 260.408C212.135 260.435 212.279 260.487 212.404 260.563L212.339 261.1C212.312 261.187 212.26 261.231 212.184 261.231C212.119 261.231 212.019 261.212 211.883 261.174C211.753 261.136 211.579 261.117 211.362 261.117C211.047 261.117 210.767 261.165 210.523 261.263C210.284 261.356 210.067 261.497 209.871 261.687C209.681 261.877 209.513 262.113 209.366 262.395C209.225 262.672 209.095 262.993 208.975 263.356V268.602H208.193V260.498H208.609C208.701 260.498 208.766 260.517 208.804 260.555C208.842 260.593 208.867 260.658 208.878 260.75L208.935 262.452ZM220.338 260.498L215.679 271.208C215.646 271.284 215.603 271.346 215.548 271.395C215.5 271.444 215.426 271.469 215.328 271.469H214.775L216.2 268.3L212.771 260.498H213.414C213.496 260.498 213.561 260.519 213.61 260.563C213.659 260.601 213.691 260.644 213.708 260.693L216.436 266.997C216.469 267.079 216.496 267.163 216.518 267.25C216.545 267.331 216.569 267.415 216.591 267.502C216.618 267.415 216.645 267.331 216.672 267.25C216.705 267.163 216.738 267.079 216.77 266.997L219.466 260.693C219.493 260.633 219.531 260.587 219.58 260.555C219.629 260.517 219.683 260.498 219.743 260.498H220.338Z" fill="#D1D1D1"/>
<path d="M33.3124 48.4442C33.7815 48.4442 34.166 48.3888 34.4657 48.278C34.772 48.1607 35.0163 48.0076 35.1987 47.8187C35.3812 47.6297 35.5082 47.4147 35.5799 47.1736C35.6516 46.926 35.6874 46.6719 35.6874 46.4112C35.6874 46.1245 35.6451 45.8672 35.5604 45.6391C35.4757 45.4111 35.3388 45.2188 35.1499 45.0625C34.9609 44.8996 34.7133 44.7758 34.4071 44.6911C34.1073 44.6063 33.7359 44.564 33.2929 44.564H30.8006V48.4442H33.3124ZM30.8006 38.7388V42.5701H32.726C33.1365 42.5701 33.5014 42.5376 33.8206 42.4724C34.1399 42.4007 34.4071 42.29 34.6221 42.1401C34.8371 41.9902 35 41.7948 35.1108 41.5537C35.2281 41.3061 35.2867 41.0096 35.2867 40.6643C35.2867 40.3124 35.2378 40.0127 35.1401 39.7651C35.0489 39.5175 34.9055 39.3187 34.7101 39.1689C34.5146 39.019 34.267 38.9115 33.9672 38.8463C33.6675 38.7747 33.3124 38.7388 32.9019 38.7388H30.8006ZM32.9019 36.5104C33.8532 36.5104 34.6644 36.6016 35.3356 36.7841C36.0132 36.96 36.5638 37.2141 36.9873 37.5464C37.4174 37.8722 37.7301 38.2697 37.9256 38.7388C38.1211 39.208 38.2188 39.7325 38.2188 40.3124C38.2188 40.6382 38.17 40.951 38.0722 41.2507C37.981 41.5504 37.8344 41.8339 37.6324 42.101C37.4369 42.3616 37.1828 42.5995 36.8701 42.8145C36.5573 43.0295 36.1859 43.212 35.7558 43.3618C36.7202 43.5899 37.4337 43.9613 37.8963 44.476C38.3589 44.9908 38.5902 45.6587 38.5902 46.4796C38.5902 47.0791 38.4729 47.6362 38.2384 48.151C38.0103 48.6657 37.6748 49.112 37.2317 49.49C36.7886 49.8679 36.2413 50.1644 35.5897 50.3794C34.9446 50.5879 34.2018 50.6921 33.3613 50.6921H27.8684V36.5104H32.9019ZM49.2421 48.3464C49.7177 48.3464 50.1445 48.2682 50.5224 48.1119C50.9003 47.949 51.2196 47.7209 51.4802 47.4277C51.7409 47.1345 51.9396 46.7794 52.0764 46.3624C52.2133 45.9454 52.2817 45.4762 52.2817 44.9549V36.5104H55.2138V44.9549C55.2138 45.815 55.0737 46.6067 54.7935 47.33C54.5199 48.0467 54.1257 48.6657 53.6109 49.187C53.0962 49.7082 52.4706 50.1155 51.7344 50.4087C50.9981 50.7019 50.1673 50.8485 49.2421 50.8485C48.3168 50.8485 47.4828 50.7019 46.74 50.4087C46.0037 50.1155 45.3782 49.7082 44.8634 49.187C44.3487 48.6657 43.9512 48.0467 43.671 47.33C43.3973 46.6067 43.2605 45.815 43.2605 44.9549V36.5104H46.1926V44.9549C46.1926 45.4762 46.2611 45.9454 46.3979 46.3624C46.5347 46.7794 46.7335 47.1345 46.9941 47.4277C47.2547 47.7209 47.574 47.949 47.9519 48.1119C48.3298 48.2682 48.7599 48.3464 49.2421 48.3464ZM73.3236 43.5964C73.3236 44.6324 73.1477 45.587 72.7958 46.4601C72.4505 47.3267 71.9585 48.0728 71.32 48.6983C70.688 49.3238 69.9256 49.8125 69.0329 50.1644C68.1403 50.5162 67.1499 50.6921 66.0617 50.6921H60.608V36.5104H66.0617C67.1499 36.5104 68.1403 36.6863 69.0329 37.0382C69.9256 37.3901 70.688 37.882 71.32 38.514C71.9585 39.1396 72.4505 39.8856 72.7958 40.7522C73.1477 41.6188 73.3236 42.5669 73.3236 43.5964ZM70.3133 43.5964C70.3133 42.8536 70.2156 42.1857 70.0201 41.5928C69.8246 40.9998 69.5444 40.4981 69.1795 40.0876C68.8147 39.6771 68.3683 39.3611 67.8405 39.1396C67.3193 38.918 66.7263 38.8073 66.0617 38.8073H63.5596V48.3953H66.0617C66.7263 48.3953 67.3193 48.2878 67.8405 48.0728C68.3683 47.8512 68.8147 47.5352 69.1795 47.1247C69.5444 46.7077 69.8246 46.2027 70.0201 45.6098C70.2156 45.0168 70.3133 44.3457 70.3133 43.5964ZM84.9852 43.4693H89.8525V49.3238C89.1293 49.8516 88.3571 50.2393 87.5361 50.4869C86.7217 50.728 85.8583 50.8485 84.9461 50.8485C83.7798 50.8485 82.7242 50.6693 81.7794 50.311C80.8346 49.9461 80.0266 49.4411 79.3555 48.796C78.6844 48.151 78.1664 47.3854 77.8015 46.4992C77.4366 45.613 77.2541 44.6454 77.2541 43.5964C77.2541 42.5343 77.4268 41.5602 77.7722 40.674C78.124 39.7879 78.6225 39.0255 79.2675 38.387C79.9126 37.7484 80.6912 37.25 81.6035 36.8916C82.5222 36.5332 83.5484 36.354 84.6822 36.354C85.2686 36.354 85.816 36.4029 86.3242 36.5006C86.8324 36.5919 87.3016 36.7222 87.7316 36.8916C88.1617 37.0545 88.5559 37.25 88.9142 37.478C89.2726 37.7061 89.5984 37.9569 89.8916 38.2306L89.0413 39.5403C88.911 39.7488 88.7416 39.8758 88.5331 39.9215C88.3246 39.9671 88.0965 39.9149 87.8489 39.7651C87.6143 39.6217 87.383 39.4947 87.155 39.3839C86.9334 39.2666 86.6956 39.1656 86.4415 39.0809C86.1874 38.9962 85.9104 38.9311 85.6107 38.8854C85.311 38.8398 84.9656 38.817 84.5747 38.817C83.9166 38.817 83.3204 38.9311 82.7861 39.1591C82.2518 39.3872 81.7957 39.7097 81.4178 40.1267C81.0464 40.5437 80.7597 41.0454 80.5577 41.6319C80.3557 42.2183 80.2547 42.8731 80.2547 43.5964C80.2547 44.3783 80.3655 45.0787 80.587 45.6977C80.8085 46.3102 81.1213 46.8282 81.5253 47.2518C81.9293 47.6753 82.4114 47.9978 82.9718 48.2194C83.5387 48.4409 84.1674 48.5517 84.8581 48.5517C85.3273 48.5517 85.7443 48.5061 86.1092 48.4149C86.4806 48.3171 86.8422 48.1868 87.1941 48.0239V45.6391H85.5912C85.4022 45.6391 85.2523 45.5902 85.1416 45.4925C85.0373 45.3882 84.9852 45.2579 84.9852 45.1015V43.4693ZM97.8072 38.8073V42.4529H102.538V44.6715H97.8072V48.3953H103.887V50.6921H94.8556V36.5104H103.887V38.8073H97.8072ZM118.724 38.8757H114.58V50.6921H111.638V38.8757H107.494V36.5104H118.724V38.8757ZM126.042 50.6921H123.09V36.5104H126.042V50.6921ZM143.763 36.5104V50.6921H142.248C142.02 50.6921 141.828 50.6563 141.671 50.5846C141.515 50.5064 141.362 50.3761 141.212 50.1937L134.145 41.2018C134.165 41.4299 134.178 41.6547 134.185 41.8762C134.198 42.0977 134.204 42.303 134.204 42.492V50.6921H131.614V36.5104H133.158C133.282 36.5104 133.386 36.5169 133.471 36.53C133.562 36.5365 133.644 36.5593 133.715 36.5984C133.787 36.631 133.855 36.6766 133.921 36.7352C133.986 36.7939 134.057 36.872 134.136 36.9698L141.251 46.0007C141.225 45.7531 141.205 45.5153 141.192 45.2873C141.179 45.0527 141.173 44.8311 141.173 44.6226V36.5104H143.763ZM156.239 43.4693H161.107V49.3238C160.384 49.8516 159.611 50.2393 158.79 50.4869C157.976 50.728 157.113 50.8485 156.2 50.8485C155.034 50.8485 153.978 50.6693 153.034 50.311C152.089 49.9461 151.281 49.4411 150.61 48.796C149.939 48.151 149.421 47.3854 149.056 46.4992C148.691 45.613 148.508 44.6454 148.508 43.5964C148.508 42.5343 148.681 41.5602 149.026 40.674C149.378 39.7879 149.877 39.0255 150.522 38.387C151.167 37.7484 151.945 37.25 152.858 36.8916C153.776 36.5332 154.803 36.354 155.936 36.354C156.523 36.354 157.07 36.4029 157.578 36.5006C158.087 36.5919 158.556 36.7222 158.986 36.8916C159.416 37.0545 159.81 37.25 160.168 37.478C160.527 37.7061 160.853 37.9569 161.146 38.2306L160.296 39.5403C160.165 39.7488 159.996 39.8758 159.787 39.9215C159.579 39.9671 159.351 39.9149 159.103 39.7651C158.869 39.6217 158.637 39.4947 158.409 39.3839C158.188 39.2666 157.95 39.1656 157.696 39.0809C157.442 38.9962 157.165 38.9311 156.865 38.8854C156.565 38.8398 156.22 38.817 155.829 38.817C155.171 38.817 154.575 38.9311 154.04 39.1591C153.506 39.3872 153.05 39.7097 152.672 40.1267C152.301 40.5437 152.014 41.0454 151.812 41.6319C151.61 42.2183 151.509 42.8731 151.509 43.5964C151.509 44.3783 151.62 45.0787 151.841 45.6977C152.063 46.3102 152.376 46.8282 152.78 47.2518C153.184 47.6753 153.666 47.9978 154.226 48.2194C154.793 48.4409 155.422 48.5517 156.112 48.5517C156.582 48.5517 156.999 48.5061 157.363 48.4149C157.735 48.3171 158.096 48.1868 158.448 48.0239V45.6391H156.845C156.656 45.6391 156.507 45.5902 156.396 45.4925C156.292 45.3882 156.239 45.2579 156.239 45.1015V43.4693Z" fill="#BB86FC"/>
<path d="M277.45 39.4862L281.741 43.7772L274.182 51.3369H269.891V47.046L277.45 39.4862ZM287.51 36.5716L284.656 33.7177C284.562 33.6229 284.45 33.5476 284.327 33.4962C284.203 33.4448 284.071 33.4184 283.937 33.4184C283.804 33.4184 283.672 33.4448 283.548 33.4962C283.425 33.5476 283.313 33.6229 283.219 33.7177L280.304 36.6324L284.595 40.9233L287.51 38.0087C287.605 37.9146 287.68 37.8027 287.731 37.6794C287.783 37.556 287.809 37.4238 287.809 37.2902C287.809 37.1566 287.783 37.0243 287.731 36.901C287.68 36.7776 287.605 36.6657 287.51 36.5716Z" fill="#D1D1D1" stroke="#D1D1D1" stroke-width="1.01202" stroke-linecap="round" stroke-linejoin="round"/>
</g>
<defs>
<filter id="filter0_d_1334_46872" x="49.2889" y="69.2555" width="232.938" height="102.624" filterUnits="userSpaceOnUse" color-interpolation-filters="sRGB">
<feFlood flood-opacity="0" result="BackgroundImageFix"/>
<feColorMatrix in="SourceAlpha" type="matrix" values="0 0 0 0 0 0 0 0 0 0 0 0 0 0 0 0 0 0 127 0" result="hardAlpha"/>
<feOffset dy="6.51584"/>
<feGaussianBlur stdDeviation="3.25792"/>
<feComposite in2="hardAlpha" operator="out"/>
<feColorMatrix type="matrix" values="0 0 0 0 0 0 0 0 0 0 0 0 0 0 0 0 0 0 0.25 0"/>
<feBlend mode="normal" in2="BackgroundImageFix" result="effect1_dropShadow_1334_46872"/>
<feBlend mode="normal" in="SourceGraphic" in2="effect1_dropShadow_1334_46872" result="shape"/>
</filter>
<clipPath id="clip0_1334_46872">
<rect x="0.320312" y="0.839233" width="325.792" height="325.792" rx="16.2896" fill="white"/>
</clipPath>
</defs>
</svg>
