<svg width="701" height="326" viewBox="0 0 701 326" fill="none" xmlns="http://www.w3.org/2000/svg">
<rect x="2.76375" y="2.62203" width="695.566" height="320.905" rx="13.8462" fill="#323233"/>
<path d="M641.544 37.1966L645.835 41.4876L638.275 49.0473H633.984V44.7564L641.544 37.1966ZM651.604 34.282L648.75 31.4281C648.656 31.3333 648.544 31.258 648.42 31.2066C648.297 31.1552 648.165 31.1288 648.031 31.1288C647.898 31.1288 647.765 31.1552 647.642 31.2066C647.519 31.258 647.407 31.3333 647.313 31.4281L644.398 34.3427L648.689 38.6337L651.604 35.7191C651.698 35.625 651.774 35.5131 651.825 35.3898C651.876 35.2664 651.903 35.1342 651.903 35.0006C651.903 34.867 651.876 34.7347 651.825 34.6114C651.774 34.488 651.698 34.3761 651.604 34.282V34.282Z" fill="#D1D1D1" stroke="#D1D1D1" stroke-width="1.01202" stroke-linecap="round" stroke-linejoin="round"/>
<path d="M34.0779 42.5018V46.4211H39.1798V48.7277H34.0779V54.3867H31.1262V40.205H40.1572V42.5018H34.0779ZM47.7561 42.5018V46.1474H52.4866V48.3661H47.7561V52.0899H53.8354V54.3867H44.8044V40.205H53.8354V42.5018H47.7561ZM61.587 42.5018V46.1474H66.3175V48.3661H61.587V52.0899H67.6662V54.3867H58.6353V40.205H67.6662V42.5018H61.587ZM85.1818 47.291C85.1818 48.327 85.0059 49.2816 84.654 50.1547C84.3087 51.0213 83.8168 51.7674 83.1782 52.3929C82.5462 53.0184 81.7838 53.5071 80.8911 53.8589C79.9985 54.2108 79.0081 54.3867 77.9199 54.3867H72.4662V40.205H77.9199C79.0081 40.205 79.9985 40.3809 80.8911 40.7328C81.7838 41.0846 82.5462 41.5766 83.1782 42.2086C83.8168 42.8341 84.3087 43.5802 84.654 44.4468C85.0059 45.3134 85.1818 46.2615 85.1818 47.291ZM82.1715 47.291C82.1715 46.5482 82.0738 45.8803 81.8783 45.2874C81.6828 44.6944 81.4026 44.1927 81.0378 43.7822C80.6729 43.3717 80.2265 43.0557 79.6988 42.8341C79.1775 42.6126 78.5845 42.5018 77.9199 42.5018H75.4178V52.0899H77.9199C78.5845 52.0899 79.1775 51.9824 79.6988 51.7674C80.2265 51.5458 80.6729 51.2298 81.0378 50.8193C81.4026 50.4023 81.6828 49.8973 81.8783 49.3044C82.0738 48.7114 82.1715 48.0403 82.1715 47.291ZM95.3871 52.1388C95.8562 52.1388 96.2407 52.0834 96.5404 51.9726C96.8467 51.8553 97.091 51.7022 97.2734 51.5132C97.4559 51.3243 97.5829 51.1093 97.6546 50.8682C97.7263 50.6206 97.7621 50.3664 97.7621 50.1058C97.7621 49.8191 97.7198 49.5617 97.6351 49.3337C97.5504 49.1056 97.4135 48.9134 97.2246 48.757C97.0356 48.5941 96.788 48.4703 96.4818 48.3856C96.182 48.3009 95.8106 48.2586 95.3676 48.2586H92.8752V52.1388H95.3871ZM92.8752 42.4334V46.2647H94.8007C95.2112 46.2647 95.5761 46.2321 95.8953 46.167C96.2146 46.0953 96.4818 45.9845 96.6968 45.8347C96.9118 45.6848 97.0747 45.4893 97.1855 45.2483C97.3028 45.0007 97.3614 44.7042 97.3614 44.3588C97.3614 44.007 97.3125 43.7073 97.2148 43.4597C97.1236 43.2121 96.9802 43.0133 96.7848 42.8635C96.5893 42.7136 96.3417 42.6061 96.0419 42.5409C95.7422 42.4693 95.3871 42.4334 94.9766 42.4334H92.8752ZM94.9766 40.205C95.9279 40.205 96.7391 40.2962 97.4103 40.4787C98.0879 40.6546 98.6385 40.9087 99.062 41.241C99.4921 41.5668 99.8048 41.9643 100 42.4334C100.196 42.9026 100.294 43.4271 100.294 44.007C100.294 44.3328 100.245 44.6455 100.147 44.9453C100.056 45.245 99.9091 45.5284 99.7071 45.7956C99.5116 46.0562 99.2575 46.294 98.9448 46.5091C98.632 46.7241 98.2606 46.9065 97.8305 47.0564C98.7949 47.2845 99.5084 47.6559 99.971 48.1706C100.434 48.6854 100.665 49.3532 100.665 50.1742C100.665 50.7737 100.548 51.3308 100.313 51.8455C100.085 52.3603 99.7495 52.8066 99.3064 53.1845C98.8633 53.5625 98.316 53.8589 97.6644 54.074C97.0193 54.2825 96.2765 54.3867 95.436 54.3867H89.9431V40.205H94.9766ZM112.769 49.0014L111.234 44.6618C111.143 44.4338 111.045 44.1666 110.941 43.8604C110.843 43.5541 110.749 43.2218 110.658 42.8635C110.566 43.2283 110.469 43.5672 110.364 43.8799C110.267 44.1862 110.172 44.4533 110.081 44.6814L108.556 49.0014H112.769ZM117.695 54.3867H115.417C115.163 54.3867 114.955 54.3281 114.792 54.2108C114.636 54.087 114.518 53.9306 114.44 53.7417L113.482 51.0343H107.833L106.875 53.7417C106.81 53.9045 106.696 54.0544 106.533 54.1912C106.37 54.3216 106.165 54.3867 105.917 54.3867H103.621L109.162 40.205H112.163L117.695 54.3867ZM130.831 50.8975C130.994 50.8975 131.131 50.9561 131.242 51.0734L132.405 52.3147C131.831 53.0445 131.118 53.5983 130.264 53.9762C129.417 54.3541 128.407 54.5431 127.234 54.5431C126.172 54.5431 125.218 54.3639 124.371 54.0055C123.524 53.6407 122.804 53.1357 122.211 52.4906C121.618 51.8455 121.162 51.0799 120.842 50.1938C120.523 49.3076 120.363 48.34 120.363 47.291C120.363 46.5873 120.438 45.9194 120.588 45.2874C120.745 44.6488 120.969 44.0624 121.263 43.5281C121.556 42.9938 121.908 42.5116 122.318 42.0816C122.735 41.6515 123.204 41.2866 123.726 40.9869C124.247 40.6807 124.814 40.4493 125.426 40.293C126.045 40.1301 126.703 40.0486 127.4 40.0486C127.922 40.0486 128.414 40.0942 128.876 40.1855C129.345 40.2767 129.782 40.4037 130.186 40.5666C130.59 40.7295 130.961 40.9283 131.3 41.1628C131.646 41.3909 131.955 41.6417 132.229 41.9154L131.242 43.2642C131.183 43.3489 131.108 43.4238 131.017 43.489C130.926 43.5541 130.802 43.5867 130.645 43.5867C130.489 43.5867 130.329 43.5313 130.166 43.4206C130.01 43.3098 129.815 43.186 129.58 43.0492C129.352 42.9123 129.062 42.7885 128.71 42.6778C128.365 42.567 127.925 42.5116 127.391 42.5116C126.798 42.5116 126.254 42.6191 125.758 42.8341C125.263 43.0492 124.836 43.3619 124.478 43.7724C124.126 44.1764 123.853 44.6749 123.657 45.2678C123.462 45.8607 123.364 46.5351 123.364 47.291C123.364 48.0533 123.468 48.7342 123.677 49.3337C123.892 49.9266 124.182 50.4283 124.547 50.8388C124.918 51.2493 125.348 51.5621 125.837 51.7771C126.332 51.9856 126.86 52.0899 127.42 52.0899C127.752 52.0899 128.052 52.0736 128.319 52.041C128.593 52.0084 128.844 51.9531 129.072 51.8749C129.306 51.7967 129.525 51.6957 129.727 51.5719C129.935 51.4481 130.144 51.2917 130.352 51.1027C130.424 51.0441 130.499 50.9952 130.577 50.9561C130.655 50.917 130.74 50.8975 130.831 50.8975ZM139.598 46.0595H140.175C140.657 46.0595 141.006 45.9096 141.221 45.6099L144.808 40.811C144.977 40.5829 145.163 40.4265 145.365 40.3418C145.567 40.2506 145.814 40.205 146.108 40.205H148.649L144.133 46.0204C143.84 46.3983 143.537 46.6687 143.224 46.8316C143.453 46.9228 143.658 47.0434 143.84 47.1932C144.023 47.3366 144.199 47.5288 144.368 47.7699L149.001 54.3867H146.391C146.222 54.3867 146.075 54.3737 145.951 54.3476C145.834 54.3216 145.73 54.2857 145.639 54.2401C145.547 54.1945 145.469 54.1391 145.404 54.074C145.339 54.0023 145.277 53.9208 145.218 53.8296L141.573 48.7277C141.449 48.5518 141.302 48.428 141.133 48.3563C140.963 48.2781 140.726 48.239 140.419 48.239H139.598V54.3867H136.666V40.205H139.598V46.0595Z" fill="#BB86FC"/>
<path d="M42.7766 81.308H37.4857V95.7894H35.285V81.308H29.9827V79.4493H42.7766V81.308ZM48.1324 90.5898C47.1973 90.6202 46.3992 90.6962 45.7378 90.8178C45.084 90.9319 44.5481 91.0839 44.13 91.274C43.7195 91.464 43.4192 91.6883 43.2292 91.9467C43.0468 92.2052 42.9555 92.494 42.9555 92.8133C42.9555 93.1174 43.0049 93.3797 43.1038 93.6001C43.2026 93.8206 43.3356 94.003 43.5029 94.1474C43.6777 94.2843 43.8792 94.3869 44.1072 94.4553C44.3429 94.5161 44.5937 94.5465 44.8598 94.5465C45.2171 94.5465 45.544 94.5123 45.8404 94.4439C46.1369 94.3679 46.4144 94.2615 46.6728 94.1246C46.9389 93.9878 47.1897 93.8244 47.4254 93.6343C47.6687 93.4443 47.9043 93.2276 48.1324 92.9844V90.5898ZM41.5758 85.8691C42.2144 85.2533 42.9023 84.7934 43.6397 84.4893C44.3771 84.1853 45.1943 84.0332 46.0913 84.0332C46.7374 84.0332 47.3114 84.1397 47.8131 84.3525C48.3148 84.5654 48.7367 84.8618 49.0788 85.2419C49.4209 85.622 49.6793 86.0819 49.8542 86.6216C50.029 87.1614 50.1164 87.7543 50.1164 88.4005V95.7894H49.2156C49.018 95.7894 48.8659 95.759 48.7595 95.6982C48.6531 95.6298 48.5695 95.5006 48.5087 95.3105L48.2806 94.2159C47.9765 94.4971 47.6801 94.748 47.3912 94.9684C47.1023 95.1813 46.7982 95.3637 46.479 95.5158C46.1597 95.6602 45.8176 95.7704 45.4527 95.8464C45.0954 95.9301 44.6963 95.9719 44.2554 95.9719C43.8069 95.9719 43.385 95.9111 42.9897 95.7894C42.5944 95.6602 42.2486 95.4702 41.9521 95.2193C41.6632 94.9684 41.4314 94.653 41.2565 94.2729C41.0893 93.8852 41.0057 93.4291 41.0057 92.9045C41.0057 92.4484 41.1311 92.0113 41.382 91.5932C41.6328 91.1675 42.0395 90.7912 42.6021 90.4644C43.1646 90.1375 43.8982 89.8714 44.8028 89.6662C45.7074 89.4533 46.8173 89.3317 48.1324 89.3013V88.4005C48.1324 87.5035 47.9385 86.8269 47.5508 86.3708C47.1631 85.9071 46.5968 85.6752 45.8518 85.6752C45.3501 85.6752 44.9282 85.7398 44.5861 85.8691C44.2516 85.9907 43.959 86.1313 43.7081 86.291C43.4649 86.443 43.252 86.5836 43.0696 86.7129C42.8947 86.8345 42.7199 86.8953 42.545 86.8953C42.4082 86.8953 42.2904 86.8611 42.1916 86.7927C42.0927 86.7167 42.0091 86.6254 41.9407 86.519L41.5758 85.8691ZM59.6914 86.1427C59.6002 86.31 59.4596 86.3936 59.2695 86.3936C59.1555 86.3936 59.0263 86.3518 58.8818 86.2682C58.7374 86.1845 58.5588 86.0933 58.3459 85.9945C58.1407 85.8881 57.8936 85.793 57.6047 85.7094C57.3159 85.6182 56.9738 85.5726 56.5785 85.5726C56.2364 85.5726 55.9285 85.6182 55.6549 85.7094C55.3812 85.793 55.1456 85.9109 54.9479 86.0629C54.7579 86.2149 54.6096 86.3936 54.5032 86.5988C54.4044 86.7965 54.355 87.0131 54.355 87.2488C54.355 87.5453 54.4386 87.7923 54.6058 87.99C54.7807 88.1876 55.0087 88.3587 55.29 88.5031C55.5713 88.6475 55.8905 88.7768 56.2478 88.8908C56.6051 88.9972 56.97 89.115 57.3425 89.2443C57.7226 89.3659 58.0913 89.5027 58.4485 89.6548C58.8058 89.8068 59.1251 89.9968 59.4064 90.2249C59.6876 90.453 59.9119 90.7342 60.0791 91.0687C60.254 91.3956 60.3414 91.7909 60.3414 92.2546C60.3414 92.7867 60.2464 93.2808 60.0563 93.7369C59.8663 94.1854 59.585 94.5769 59.2125 94.9114C58.84 95.2383 58.3839 95.4968 57.8442 95.6868C57.3045 95.8768 56.6811 95.9719 55.9742 95.9719C55.1684 95.9719 54.4386 95.8426 53.7848 95.5842C53.1311 95.3181 52.5761 94.9798 52.12 94.5693L52.5989 93.794C52.6598 93.6951 52.732 93.6191 52.8156 93.5659C52.8992 93.5127 53.0056 93.4861 53.1349 93.4861C53.2717 93.4861 53.4161 93.5393 53.5682 93.6457C53.7202 93.7521 53.9027 93.87 54.1155 93.9992C54.336 94.1284 54.602 94.2463 54.9137 94.3527C55.2254 94.4591 55.6131 94.5123 56.0768 94.5123C56.4721 94.5123 56.818 94.4629 57.1144 94.3641C57.4109 94.2577 57.658 94.117 57.8556 93.9422C58.0532 93.7673 58.1977 93.5659 58.2889 93.3378C58.3877 93.1098 58.4371 92.8665 58.4371 92.6081C58.4371 92.2888 58.3497 92.0265 58.1749 91.8213C58.0076 91.6084 57.7834 91.4298 57.5021 91.2854C57.2208 91.1333 56.8978 91.0041 56.5329 90.8977C56.1756 90.7836 55.8069 90.6658 55.4268 90.5442C55.0543 90.4226 54.6856 90.2857 54.3208 90.1337C53.9635 89.974 53.6442 89.7764 53.3629 89.5407C53.0817 89.3051 52.8536 89.0162 52.6788 88.6741C52.5115 88.3245 52.4279 87.9026 52.4279 87.4084C52.4279 86.9675 52.5191 86.5456 52.7016 86.1427C52.884 85.7322 53.1501 85.3749 53.4998 85.0709C53.8494 84.7592 54.2789 84.5121 54.7883 84.3297C55.2976 84.1473 55.8791 84.056 56.5329 84.056C57.2931 84.056 57.9734 84.1777 58.574 84.4209C59.1821 84.6566 59.7066 84.9835 60.1475 85.4016L59.6914 86.1427ZM64.6266 78.9932V88.8794H65.1511C65.3032 88.8794 65.4286 88.8604 65.5274 88.8224C65.6338 88.7768 65.7441 88.6893 65.8581 88.5601L69.507 84.649C69.6134 84.5197 69.7236 84.4209 69.8376 84.3525C69.9593 84.2765 70.1189 84.2385 70.3166 84.2385H72.1524L67.8992 88.7654C67.6939 89.0238 67.4735 89.2253 67.2378 89.3697C67.3747 89.4609 67.4963 89.5673 67.6027 89.689C67.7167 89.803 67.8232 89.936 67.922 90.0881L72.4375 95.7894H70.6244C70.4496 95.7894 70.2975 95.7628 70.1683 95.7096C70.0467 95.6488 69.9403 95.5424 69.849 95.3903L66.0519 90.6582C65.9379 90.4986 65.8239 90.3959 65.7099 90.3503C65.6034 90.2971 65.4362 90.2705 65.2081 90.2705H64.6266V95.7894H62.5855V78.9932H64.6266ZM89.5129 94.2387V95.7894H80.7556V94.2387H84.2562V83.0982C84.2562 82.7637 84.2676 82.4254 84.2904 82.0834L81.3827 84.5806C81.2839 84.6642 81.1851 84.7174 81.0863 84.7402C80.9874 84.7554 80.8962 84.7554 80.8126 84.7402C80.729 84.725 80.6492 84.6946 80.5731 84.649C80.5047 84.6034 80.4515 84.554 80.4135 84.5007L79.775 83.6227L84.6439 79.4151H86.2973V94.2387H89.5129ZM92.3148 94.5351C92.3148 94.3375 92.349 94.1512 92.4175 93.9764C92.4935 93.8016 92.5923 93.6495 92.7139 93.5203C92.8432 93.3911 92.9952 93.2884 93.17 93.2124C93.3449 93.1364 93.5311 93.0984 93.7288 93.0984C93.9264 93.0984 94.1127 93.1364 94.2875 93.2124C94.4623 93.2884 94.6144 93.3911 94.7436 93.5203C94.8728 93.6495 94.9755 93.8016 95.0515 93.9764C95.1275 94.1512 95.1655 94.3375 95.1655 94.5351C95.1655 94.7404 95.1275 94.9304 95.0515 95.1053C94.9755 95.2725 94.8728 95.4207 94.7436 95.55C94.6144 95.6792 94.4623 95.778 94.2875 95.8464C94.1127 95.9225 93.9264 95.9605 93.7288 95.9605C93.5311 95.9605 93.3449 95.9225 93.17 95.8464C92.9952 95.778 92.8432 95.6792 92.7139 95.55C92.5923 95.4207 92.4935 95.2725 92.4175 95.1053C92.349 94.9304 92.3148 94.7404 92.3148 94.5351ZM92.3148 85.9831C92.3148 85.7854 92.349 85.5992 92.4175 85.4244C92.4935 85.2495 92.5923 85.0975 92.7139 84.9683C92.8432 84.839 92.9952 84.7364 93.17 84.6604C93.3449 84.5844 93.5311 84.5464 93.7288 84.5464C93.9264 84.5464 94.1127 84.5844 94.2875 84.6604C94.4623 84.7364 94.6144 84.839 94.7436 84.9683C94.8728 85.0975 94.9755 85.2495 95.0515 85.4244C95.1275 85.5992 95.1655 85.7854 95.1655 85.9831C95.1655 86.1883 95.1275 86.3784 95.0515 86.5532C94.9755 86.7205 94.8728 86.8687 94.7436 86.9979C94.6144 87.1272 94.4623 87.2298 94.2875 87.3058C94.1127 87.3742 93.9264 87.4084 93.7288 87.4084C93.5311 87.4084 93.3449 87.3742 93.17 87.3058C92.9952 87.2298 92.8432 87.1272 92.7139 86.9979C92.5923 86.8687 92.4935 86.7205 92.4175 86.5532C92.349 86.3784 92.3148 86.1883 92.3148 85.9831Z" fill="#D1D1D1"/>
<path d="M62.3234 142H57.0326V156.482H54.8318V142H49.5296V140.142H62.3234V142ZM67.6792 151.282C66.7442 151.312 65.946 151.388 65.2847 151.51C64.6309 151.624 64.095 151.776 63.6769 151.966C63.2664 152.156 62.9661 152.381 62.7761 152.639C62.5936 152.897 62.5024 153.186 62.5024 153.506C62.5024 153.81 62.5518 154.072 62.6506 154.292C62.7495 154.513 62.8825 154.695 63.0497 154.84C63.2246 154.977 63.426 155.079 63.6541 155.148C63.8897 155.208 64.1406 155.239 64.4067 155.239C64.7639 155.239 65.0908 155.205 65.3873 155.136C65.6838 155.06 65.9612 154.954 66.2197 154.817C66.4858 154.68 66.7366 154.517 66.9723 154.327C67.2155 154.137 67.4512 153.92 67.6792 153.677V151.282ZM61.1227 146.561C61.7612 145.946 62.4492 145.486 63.1866 145.182C63.9239 144.878 64.7411 144.725 65.6382 144.725C66.2843 144.725 66.8582 144.832 67.36 145.045C67.8617 145.258 68.2836 145.554 68.6257 145.934C68.9677 146.314 69.2262 146.774 69.4011 147.314C69.5759 147.854 69.6633 148.447 69.6633 149.093V156.482H68.7625C68.5649 156.482 68.4128 156.451 68.3064 156.39C68.2 156.322 68.1163 156.193 68.0555 156.003L67.8275 154.908C67.5234 155.189 67.2269 155.44 66.9381 155.661C66.6492 155.874 66.3451 156.056 66.0258 156.208C65.7066 156.352 65.3645 156.463 64.9996 156.539C64.6423 156.622 64.2432 156.664 63.8023 156.664C63.3538 156.664 62.9319 156.603 62.5366 156.482C62.1413 156.352 61.7954 156.162 61.499 155.912C61.2101 155.661 60.9782 155.345 60.8034 154.965C60.6362 154.577 60.5525 154.121 60.5525 153.597C60.5525 153.141 60.678 152.704 60.9288 152.285C61.1797 151.86 61.5864 151.483 62.1489 151.157C62.7115 150.83 63.445 150.564 64.3496 150.358C65.2543 150.146 66.3641 150.024 67.6792 149.994V149.093C67.6792 148.196 67.4854 147.519 67.0977 147.063C66.71 146.599 66.1437 146.367 65.3987 146.367C64.897 146.367 64.4751 146.432 64.133 146.561C63.7985 146.683 63.5058 146.824 63.255 146.983C63.0117 147.135 62.7989 147.276 62.6164 147.405C62.4416 147.527 62.2668 147.588 62.0919 147.588C61.9551 147.588 61.8373 147.553 61.7384 147.485C61.6396 147.409 61.556 147.318 61.4876 147.211L61.1227 146.561ZM79.2383 146.835C79.1471 147.002 79.0065 147.086 78.8164 147.086C78.7024 147.086 78.5732 147.044 78.4287 146.96C78.2843 146.877 78.1056 146.786 77.8928 146.687C77.6875 146.58 77.4405 146.485 77.1516 146.402C76.8627 146.31 76.5207 146.265 76.1254 146.265C75.7833 146.265 75.4754 146.31 75.2018 146.402C74.9281 146.485 74.6924 146.603 74.4948 146.755C74.3047 146.907 74.1565 147.086 74.0501 147.291C73.9513 147.489 73.9018 147.705 73.9018 147.941C73.9018 148.238 73.9855 148.485 74.1527 148.682C74.3275 148.88 74.5556 149.051 74.8369 149.195C75.1181 149.34 75.4374 149.469 75.7947 149.583C76.152 149.689 76.5169 149.807 76.8894 149.937C77.2694 150.058 77.6381 150.195 77.9954 150.347C78.3527 150.499 78.672 150.689 78.9532 150.917C79.2345 151.145 79.4588 151.426 79.626 151.761C79.8008 152.088 79.8883 152.483 79.8883 152.947C79.8883 153.479 79.7932 153.973 79.6032 154.429C79.4132 154.878 79.1319 155.269 78.7594 155.604C78.3869 155.931 77.9308 156.189 77.3911 156.379C76.8513 156.569 76.228 156.664 75.521 156.664C74.7152 156.664 73.9855 156.535 73.3317 156.276C72.678 156.01 72.123 155.672 71.6669 155.262L72.1458 154.486C72.2066 154.387 72.2789 154.311 72.3625 154.258C72.4461 154.205 72.5525 154.178 72.6818 154.178C72.8186 154.178 72.963 154.232 73.1151 154.338C73.2671 154.444 73.4495 154.562 73.6624 154.691C73.8828 154.821 74.1489 154.939 74.4606 155.045C74.7722 155.151 75.1599 155.205 75.6237 155.205C76.0189 155.205 76.3648 155.155 76.6613 155.056C76.9578 154.95 77.2048 154.809 77.4025 154.634C77.6001 154.46 77.7446 154.258 77.8358 154.03C77.9346 153.802 77.984 153.559 77.984 153.3C77.984 152.981 77.8966 152.719 77.7218 152.514C77.5545 152.301 77.3303 152.122 77.049 151.978C76.7677 151.826 76.4446 151.696 76.0798 151.59C75.7225 151.476 75.3538 151.358 74.9737 151.236C74.6012 151.115 74.2325 150.978 73.8676 150.826C73.5103 150.666 73.1911 150.469 72.9098 150.233C72.6285 149.997 72.4005 149.708 72.2256 149.366C72.0584 149.017 71.9748 148.595 71.9748 148.101C71.9748 147.66 72.066 147.238 72.2484 146.835C72.4309 146.424 72.697 146.067 73.0466 145.763C73.3963 145.451 73.8258 145.204 74.3351 145.022C74.8445 144.84 75.426 144.748 76.0798 144.748C76.8399 144.748 77.5203 144.87 78.1208 145.113C78.729 145.349 79.2535 145.676 79.6944 146.094L79.2383 146.835ZM84.1735 139.685V149.572H84.698C84.85 149.572 84.9755 149.553 85.0743 149.515C85.1807 149.469 85.2909 149.382 85.405 149.252L89.0538 145.341C89.1603 145.212 89.2705 145.113 89.3845 145.045C89.5061 144.969 89.6658 144.931 89.8634 144.931H91.6993L87.4461 149.458C87.2408 149.716 87.0204 149.918 86.7847 150.062C86.9215 150.153 87.0432 150.26 87.1496 150.381C87.2636 150.495 87.37 150.628 87.4689 150.78L91.9843 156.482H90.1713C89.9965 156.482 89.8444 156.455 89.7152 156.402C89.5936 156.341 89.4871 156.235 89.3959 156.083L85.5988 151.35C85.4848 151.191 85.3708 151.088 85.2567 151.043C85.1503 150.989 84.9831 150.963 84.755 150.963H84.1735V156.482H82.1324V139.685H84.1735ZM109.06 154.931V156.482H100.302V154.931H103.803V143.79C103.803 143.456 103.814 143.118 103.837 142.776L100.93 145.273C100.831 145.356 100.732 145.41 100.633 145.432C100.534 145.448 100.443 145.448 100.359 145.432C100.276 145.417 100.196 145.387 100.12 145.341C100.052 145.296 99.9984 145.246 99.9604 145.193L99.3218 144.315L104.191 140.107H105.844V154.931H109.06ZM125.161 147.679C124.78 147.169 124.37 146.816 123.929 146.618C123.488 146.413 122.994 146.31 122.447 146.31C121.375 146.31 120.55 146.694 119.972 147.462C119.395 148.23 119.106 149.325 119.106 150.746C119.106 151.499 119.17 152.145 119.3 152.685C119.429 153.217 119.619 153.658 119.87 154.007C120.121 154.349 120.428 154.6 120.793 154.76C121.158 154.92 121.573 154.999 122.036 154.999C122.705 154.999 123.287 154.847 123.781 154.543C124.283 154.239 124.742 153.81 125.161 153.255V147.679ZM127.19 139.685V156.482H125.982C125.693 156.482 125.51 156.341 125.434 156.06L125.252 154.657C124.758 155.25 124.195 155.729 123.564 156.094C122.933 156.459 122.203 156.641 121.375 156.641C120.714 156.641 120.113 156.516 119.573 156.265C119.034 156.007 118.574 155.63 118.194 155.136C117.813 154.642 117.521 154.026 117.316 153.289C117.11 152.552 117.008 151.704 117.008 150.746C117.008 149.895 117.122 149.104 117.35 148.374C117.578 147.637 117.905 146.998 118.33 146.459C118.756 145.919 119.277 145.497 119.893 145.193C120.516 144.881 121.215 144.725 121.991 144.725C122.698 144.725 123.302 144.847 123.804 145.09C124.313 145.326 124.765 145.657 125.161 146.082V139.685H127.19ZM137.883 149.446C137.883 148.975 137.814 148.545 137.677 148.158C137.548 147.762 137.354 147.424 137.096 147.143C136.845 146.854 136.537 146.634 136.172 146.482C135.807 146.322 135.393 146.242 134.929 146.242C133.956 146.242 133.185 146.527 132.615 147.097C132.052 147.66 131.702 148.443 131.566 149.446H137.883ZM139.525 154.863C139.274 155.167 138.974 155.433 138.624 155.661C138.274 155.881 137.898 156.064 137.495 156.208C137.1 156.352 136.689 156.459 136.264 156.527C135.838 156.603 135.416 156.641 134.998 156.641C134.2 156.641 133.462 156.508 132.786 156.242C132.117 155.969 131.535 155.573 131.041 155.056C130.555 154.532 130.174 153.886 129.901 153.118C129.627 152.35 129.49 151.468 129.49 150.472C129.49 149.667 129.612 148.914 129.855 148.215C130.106 147.515 130.463 146.911 130.927 146.402C131.391 145.885 131.957 145.482 132.626 145.193C133.295 144.897 134.048 144.748 134.884 144.748C135.576 144.748 136.214 144.866 136.799 145.102C137.392 145.33 137.902 145.664 138.327 146.105C138.761 146.539 139.099 147.078 139.342 147.724C139.586 148.363 139.707 149.093 139.707 149.914C139.707 150.233 139.673 150.446 139.605 150.552C139.536 150.659 139.407 150.712 139.217 150.712H131.497C131.52 151.442 131.619 152.076 131.794 152.616C131.976 153.156 132.227 153.608 132.546 153.973C132.866 154.33 133.246 154.6 133.687 154.783C134.127 154.958 134.622 155.045 135.169 155.045C135.678 155.045 136.115 154.988 136.48 154.874C136.853 154.752 137.172 154.623 137.438 154.486C137.704 154.349 137.925 154.224 138.099 154.11C138.282 153.988 138.438 153.927 138.567 153.927C138.734 153.927 138.863 153.992 138.955 154.121L139.525 154.863ZM145.413 156.664C144.501 156.664 143.798 156.409 143.304 155.9C142.817 155.391 142.574 154.657 142.574 153.699V146.63H141.183C141.061 146.63 140.958 146.596 140.875 146.527C140.791 146.451 140.749 146.337 140.749 146.185V145.375L142.642 145.136L143.11 141.567C143.133 141.453 143.182 141.362 143.258 141.293C143.342 141.217 143.448 141.179 143.577 141.179H144.603V145.159H147.944V146.63H144.603V153.563C144.603 154.049 144.721 154.41 144.957 154.646C145.193 154.882 145.497 154.999 145.869 154.999C146.082 154.999 146.264 154.973 146.417 154.92C146.576 154.859 146.713 154.794 146.827 154.726C146.941 154.657 147.036 154.596 147.112 154.543C147.196 154.482 147.268 154.452 147.329 154.452C147.435 154.452 147.53 154.517 147.614 154.646L148.207 155.615C147.857 155.942 147.435 156.2 146.941 156.39C146.447 156.573 145.938 156.664 145.413 156.664ZM156.056 151.282C155.121 151.312 154.323 151.388 153.661 151.51C153.008 151.624 152.472 151.776 152.054 151.966C151.643 152.156 151.343 152.381 151.153 152.639C150.97 152.897 150.879 153.186 150.879 153.506C150.879 153.81 150.929 154.072 151.027 154.292C151.126 154.513 151.259 154.695 151.427 154.84C151.601 154.977 151.803 155.079 152.031 155.148C152.267 155.208 152.517 155.239 152.783 155.239C153.141 155.239 153.468 155.205 153.764 155.136C154.061 155.06 154.338 154.954 154.596 154.817C154.863 154.68 155.113 154.517 155.349 154.327C155.592 154.137 155.828 153.92 156.056 153.677V151.282ZM149.499 146.561C150.138 145.946 150.826 145.486 151.563 145.182C152.301 144.878 153.118 144.725 154.015 144.725C154.661 144.725 155.235 144.832 155.737 145.045C156.238 145.258 156.66 145.554 157.002 145.934C157.345 146.314 157.603 146.774 157.778 147.314C157.953 147.854 158.04 148.447 158.04 149.093V156.482H157.139C156.942 156.482 156.79 156.451 156.683 156.39C156.577 156.322 156.493 156.193 156.432 156.003L156.204 154.908C155.9 155.189 155.604 155.44 155.315 155.661C155.026 155.874 154.722 156.056 154.403 156.208C154.083 156.352 153.741 156.463 153.376 156.539C153.019 156.622 152.62 156.664 152.179 156.664C151.731 156.664 151.309 156.603 150.913 156.482C150.518 156.352 150.172 156.162 149.876 155.912C149.587 155.661 149.355 155.345 149.18 154.965C149.013 154.577 148.929 154.121 148.929 153.597C148.929 153.141 149.055 152.704 149.306 152.285C149.556 151.86 149.963 151.483 150.526 151.157C151.088 150.83 151.822 150.564 152.726 150.358C153.631 150.146 154.741 150.024 156.056 149.994V149.093C156.056 148.196 155.862 147.519 155.474 147.063C155.087 146.599 154.52 146.367 153.775 146.367C153.274 146.367 152.852 146.432 152.51 146.561C152.175 146.683 151.883 146.824 151.632 146.983C151.388 147.135 151.176 147.276 150.993 147.405C150.818 147.527 150.644 147.588 150.469 147.588C150.332 147.588 150.214 147.553 150.115 147.485C150.016 147.409 149.933 147.318 149.864 147.211L149.499 146.561ZM163.031 144.931V156.482H161.002V144.931H163.031ZM163.464 141.305C163.464 141.502 163.423 141.689 163.339 141.863C163.263 142.031 163.157 142.183 163.02 142.32C162.891 142.449 162.735 142.551 162.552 142.627C162.377 142.703 162.191 142.741 161.994 142.741C161.796 142.741 161.61 142.703 161.435 142.627C161.268 142.551 161.119 142.449 160.99 142.32C160.861 142.183 160.758 142.031 160.682 141.863C160.606 141.689 160.568 141.502 160.568 141.305C160.568 141.107 160.606 140.921 160.682 140.746C160.758 140.563 160.861 140.408 160.99 140.278C161.119 140.142 161.268 140.035 161.435 139.959C161.61 139.883 161.796 139.845 161.994 139.845C162.191 139.845 162.377 139.883 162.552 139.959C162.735 140.035 162.891 140.142 163.02 140.278C163.157 140.408 163.263 140.563 163.339 140.746C163.423 140.921 163.464 141.107 163.464 141.305ZM168.22 139.685V156.482H166.19V139.685H168.22ZM177.995 146.835C177.903 147.002 177.763 147.086 177.573 147.086C177.459 147.086 177.329 147.044 177.185 146.96C177.041 146.877 176.862 146.786 176.649 146.687C176.444 146.58 176.197 146.485 175.908 146.402C175.619 146.31 175.277 146.265 174.882 146.265C174.54 146.265 174.232 146.31 173.958 146.402C173.684 146.485 173.449 146.603 173.251 146.755C173.061 146.907 172.913 147.086 172.806 147.291C172.708 147.489 172.658 147.705 172.658 147.941C172.658 148.238 172.742 148.485 172.909 148.682C173.084 148.88 173.312 149.051 173.593 149.195C173.874 149.34 174.194 149.469 174.551 149.583C174.908 149.689 175.273 149.807 175.646 149.937C176.026 150.058 176.394 150.195 176.752 150.347C177.109 150.499 177.428 150.689 177.71 150.917C177.991 151.145 178.215 151.426 178.382 151.761C178.557 152.088 178.645 152.483 178.645 152.947C178.645 153.479 178.55 153.973 178.359 154.429C178.169 154.878 177.888 155.269 177.516 155.604C177.143 155.931 176.687 156.189 176.147 156.379C175.608 156.569 174.984 156.664 174.277 156.664C173.472 156.664 172.742 156.535 172.088 156.276C171.434 156.01 170.879 155.672 170.423 155.262L170.902 154.486C170.963 154.387 171.035 154.311 171.119 154.258C171.202 154.205 171.309 154.178 171.438 154.178C171.575 154.178 171.719 154.232 171.871 154.338C172.023 154.444 172.206 154.562 172.419 154.691C172.639 154.821 172.905 154.939 173.217 155.045C173.529 155.151 173.916 155.205 174.38 155.205C174.775 155.205 175.121 155.155 175.418 155.056C175.714 154.95 175.961 154.809 176.159 154.634C176.356 154.46 176.501 154.258 176.592 154.03C176.691 153.802 176.74 153.559 176.74 153.3C176.74 152.981 176.653 152.719 176.478 152.514C176.311 152.301 176.087 152.122 175.805 151.978C175.524 151.826 175.201 151.696 174.836 151.59C174.479 151.476 174.11 151.358 173.73 151.236C173.357 151.115 172.989 150.978 172.624 150.826C172.267 150.666 171.947 150.469 171.666 150.233C171.385 149.997 171.157 149.708 170.982 149.366C170.815 149.017 170.731 148.595 170.731 148.101C170.731 147.66 170.822 147.238 171.005 146.835C171.187 146.424 171.453 146.067 171.803 145.763C172.153 145.451 172.582 145.204 173.091 145.022C173.601 144.84 174.182 144.748 174.836 144.748C175.596 144.748 176.277 144.87 176.877 145.113C177.485 145.349 178.01 145.676 178.451 146.094L177.995 146.835Z" fill="#D1D1D1"/>
<path d="M49.1875 164.482H660.047" stroke="#D1D1D1" stroke-width="3.25792" stroke-linecap="round"/>
<path d="M42.7766 202.693H37.4857V217.174H35.285V202.693H29.9827V200.834H42.7766V202.693ZM48.1324 211.974C47.1973 212.005 46.3992 212.081 45.7378 212.202C45.084 212.317 44.5481 212.469 44.13 212.659C43.7195 212.849 43.4192 213.073 43.2292 213.331C43.0468 213.59 42.9555 213.879 42.9555 214.198C42.9555 214.502 43.0049 214.764 43.1038 214.985C43.2026 215.205 43.3356 215.388 43.5029 215.532C43.6777 215.669 43.8792 215.772 44.1072 215.84C44.3429 215.901 44.5937 215.931 44.8598 215.931C45.2171 215.931 45.544 215.897 45.8404 215.829C46.1369 215.753 46.4144 215.646 46.6728 215.509C46.9389 215.372 47.1897 215.209 47.4254 215.019C47.6687 214.829 47.9043 214.612 48.1324 214.369V211.974ZM41.5758 207.254C42.2144 206.638 42.9023 206.178 43.6397 205.874C44.3771 205.57 45.1943 205.418 46.0913 205.418C46.7374 205.418 47.3114 205.524 47.8131 205.737C48.3148 205.95 48.7367 206.246 49.0788 206.627C49.4209 207.007 49.6793 207.467 49.8542 208.006C50.029 208.546 50.1164 209.139 50.1164 209.785V217.174H49.2156C49.018 217.174 48.8659 217.144 48.7595 217.083C48.6531 217.014 48.5695 216.885 48.5087 216.695L48.2806 215.6C47.9765 215.882 47.6801 216.133 47.3912 216.353C47.1023 216.566 46.7982 216.748 46.479 216.9C46.1597 217.045 45.8176 217.155 45.4527 217.231C45.0954 217.315 44.6963 217.357 44.2554 217.357C43.8069 217.357 43.385 217.296 42.9897 217.174C42.5944 217.045 42.2486 216.855 41.9521 216.604C41.6632 216.353 41.4314 216.038 41.2565 215.658C41.0893 215.27 41.0057 214.814 41.0057 214.289C41.0057 213.833 41.1311 213.396 41.382 212.978C41.6328 212.552 42.0395 212.176 42.6021 211.849C43.1646 211.522 43.8982 211.256 44.8028 211.051C45.7074 210.838 46.8173 210.716 48.1324 210.686V209.785C48.1324 208.888 47.9385 208.212 47.5508 207.755C47.1631 207.292 46.5968 207.06 45.8518 207.06C45.3501 207.06 44.9282 207.124 44.5861 207.254C44.2516 207.375 43.959 207.516 43.7081 207.676C43.4649 207.828 43.252 207.968 43.0696 208.098C42.8947 208.219 42.7199 208.28 42.545 208.28C42.4082 208.28 42.2904 208.246 42.1916 208.177C42.0927 208.101 42.0091 208.01 41.9407 207.904L41.5758 207.254ZM59.6914 207.527C59.6002 207.695 59.4596 207.778 59.2695 207.778C59.1555 207.778 59.0263 207.736 58.8818 207.653C58.7374 207.569 58.5588 207.478 58.3459 207.379C58.1407 207.273 57.8936 207.178 57.6047 207.094C57.3159 207.003 56.9738 206.957 56.5785 206.957C56.2364 206.957 55.9285 207.003 55.6549 207.094C55.3812 207.178 55.1456 207.296 54.9479 207.448C54.7579 207.6 54.6096 207.778 54.5032 207.983C54.4044 208.181 54.355 208.398 54.355 208.633C54.355 208.93 54.4386 209.177 54.6058 209.375C54.7807 209.572 55.0087 209.743 55.29 209.888C55.5713 210.032 55.8905 210.161 56.2478 210.275C56.6051 210.382 56.97 210.5 57.3425 210.629C57.7226 210.751 58.0913 210.887 58.4485 211.039C58.8058 211.191 59.1251 211.381 59.4064 211.61C59.6876 211.838 59.9119 212.119 60.0791 212.453C60.254 212.78 60.3414 213.176 60.3414 213.639C60.3414 214.171 60.2464 214.665 60.0563 215.122C59.8663 215.57 59.585 215.962 59.2125 216.296C58.84 216.623 58.3839 216.881 57.8442 217.071C57.3045 217.261 56.6811 217.357 55.9742 217.357C55.1684 217.357 54.4386 217.227 53.7848 216.969C53.1311 216.703 52.5761 216.364 52.12 215.954L52.5989 215.179C52.6598 215.08 52.732 215.004 52.8156 214.951C52.8992 214.897 53.0056 214.871 53.1349 214.871C53.2717 214.871 53.4161 214.924 53.5682 215.03C53.7202 215.137 53.9027 215.255 54.1155 215.384C54.336 215.513 54.602 215.631 54.9137 215.737C55.2254 215.844 55.6131 215.897 56.0768 215.897C56.4721 215.897 56.818 215.848 57.1144 215.749C57.4109 215.642 57.658 215.502 57.8556 215.327C58.0532 215.152 58.1977 214.951 58.2889 214.722C58.3877 214.494 58.4371 214.251 58.4371 213.993C58.4371 213.673 58.3497 213.411 58.1749 213.206C58.0076 212.993 57.7834 212.814 57.5021 212.67C57.2208 212.518 56.8978 212.389 56.5329 212.282C56.1756 212.168 55.8069 212.05 55.4268 211.929C55.0543 211.807 54.6856 211.67 54.3208 211.518C53.9635 211.359 53.6442 211.161 53.3629 210.925C53.0817 210.69 52.8536 210.401 52.6788 210.059C52.5115 209.709 52.4279 209.287 52.4279 208.793C52.4279 208.352 52.5191 207.93 52.7016 207.527C52.884 207.117 53.1501 206.76 53.4998 206.456C53.8494 206.144 54.2789 205.897 54.7883 205.714C55.2976 205.532 55.8791 205.441 56.5329 205.441C57.2931 205.441 57.9734 205.562 58.574 205.806C59.1821 206.041 59.7066 206.368 60.1475 206.786L59.6914 207.527ZM64.6266 200.378V210.264H65.1511C65.3032 210.264 65.4286 210.245 65.5274 210.207C65.6338 210.161 65.7441 210.074 65.8581 209.945L69.507 206.034C69.6134 205.904 69.7236 205.806 69.8376 205.737C69.9593 205.661 70.1189 205.623 70.3166 205.623H72.1524L67.8992 210.15C67.6939 210.408 67.4735 210.61 67.2378 210.754C67.3747 210.846 67.4963 210.952 67.6027 211.074C67.7167 211.188 67.8232 211.321 67.922 211.473L72.4375 217.174H70.6244C70.4496 217.174 70.2975 217.147 70.1683 217.094C70.0467 217.033 69.9403 216.927 69.849 216.775L66.0519 212.043C65.9379 211.883 65.8239 211.781 65.7099 211.735C65.6034 211.682 65.4362 211.655 65.2081 211.655H64.6266V217.174H62.5855V200.378H64.6266ZM89.1594 215.247C89.3798 215.247 89.5547 215.312 89.6839 215.441C89.8131 215.57 89.8778 215.737 89.8778 215.943V217.174H78.9768V216.479C78.9768 216.334 79.0072 216.186 79.068 216.034C79.1288 215.882 79.2238 215.741 79.3531 215.612L84.5869 210.355C85.0202 209.914 85.4155 209.492 85.7728 209.09C86.1301 208.679 86.4341 208.269 86.685 207.858C86.9359 207.448 87.1297 207.033 87.2665 206.615C87.4034 206.189 87.4718 205.737 87.4718 205.258C87.4718 204.779 87.3958 204.361 87.2437 204.004C87.0917 203.639 86.8826 203.339 86.6166 203.103C86.3581 202.867 86.0502 202.693 85.693 202.579C85.3357 202.457 84.9518 202.396 84.5413 202.396C84.1232 202.396 83.7393 202.457 83.3896 202.579C83.0399 202.7 82.7283 202.871 82.4546 203.092C82.1885 203.305 81.9643 203.559 81.7818 203.856C81.5994 204.152 81.4702 204.479 81.3941 204.836C81.3029 205.102 81.1775 205.281 81.0178 205.372C80.8658 205.456 80.6492 205.479 80.3679 205.441L79.3074 205.258C79.4139 204.513 79.6191 203.856 79.9232 203.286C80.2349 202.708 80.6226 202.225 81.0863 201.837C81.5576 201.45 82.0935 201.157 82.694 200.959C83.2946 200.754 83.9445 200.652 84.6439 200.652C85.3357 200.652 85.9818 200.754 86.5824 200.959C87.1829 201.165 87.7036 201.465 88.1445 201.86C88.5855 202.248 88.9313 202.723 89.1822 203.286C89.4331 203.848 89.5585 204.487 89.5585 205.201C89.5585 205.809 89.4673 206.376 89.2848 206.9C89.1024 207.417 88.8553 207.911 88.5436 208.383C88.232 208.854 87.8709 209.314 87.4604 209.762C87.0575 210.211 86.628 210.663 86.1719 211.119L81.8616 215.521C82.1657 215.437 82.4736 215.372 82.7853 215.327C83.0969 215.274 83.3972 215.247 83.6861 215.247H89.1594ZM92.3148 215.92C92.3148 215.722 92.349 215.536 92.4175 215.361C92.4935 215.186 92.5923 215.034 92.7139 214.905C92.8432 214.776 92.9952 214.673 93.17 214.597C93.3449 214.521 93.5311 214.483 93.7288 214.483C93.9264 214.483 94.1127 214.521 94.2875 214.597C94.4623 214.673 94.6144 214.776 94.7436 214.905C94.8728 215.034 94.9755 215.186 95.0515 215.361C95.1275 215.536 95.1655 215.722 95.1655 215.92C95.1655 216.125 95.1275 216.315 95.0515 216.49C94.9755 216.657 94.8728 216.805 94.7436 216.935C94.6144 217.064 94.4623 217.163 94.2875 217.231C94.1127 217.307 93.9264 217.345 93.7288 217.345C93.5311 217.345 93.3449 217.307 93.17 217.231C92.9952 217.163 92.8432 217.064 92.7139 216.935C92.5923 216.805 92.4935 216.657 92.4175 216.49C92.349 216.315 92.3148 216.125 92.3148 215.92ZM92.3148 207.368C92.3148 207.17 92.349 206.984 92.4175 206.809C92.4935 206.634 92.5923 206.482 92.7139 206.353C92.8432 206.224 92.9952 206.121 93.17 206.045C93.3449 205.969 93.5311 205.931 93.7288 205.931C93.9264 205.931 94.1127 205.969 94.2875 206.045C94.4623 206.121 94.6144 206.224 94.7436 206.353C94.8728 206.482 94.9755 206.634 95.0515 206.809C95.1275 206.984 95.1655 207.17 95.1655 207.368C95.1655 207.573 95.1275 207.763 95.0515 207.938C94.9755 208.105 94.8728 208.253 94.7436 208.383C94.6144 208.512 94.4623 208.614 94.2875 208.69C94.1127 208.759 93.9264 208.793 93.7288 208.793C93.5311 208.793 93.3449 208.759 93.17 208.69C92.9952 208.614 92.8432 208.512 92.7139 208.383C92.5923 208.253 92.4935 208.105 92.4175 207.938C92.349 207.763 92.3148 207.573 92.3148 207.368Z" fill="#D1D1D1"/>
<path d="M62.3234 263.385H57.0326V277.866H54.8318V263.385H49.5296V261.526H62.3234V263.385ZM67.6792 272.667C66.7442 272.697 65.946 272.773 65.2847 272.895C64.6309 273.009 64.095 273.161 63.6769 273.351C63.2664 273.541 62.9661 273.765 62.7761 274.024C62.5936 274.282 62.5024 274.571 62.5024 274.89C62.5024 275.194 62.5518 275.457 62.6506 275.677C62.7495 275.897 62.8825 276.08 63.0497 276.224C63.2246 276.361 63.426 276.464 63.6541 276.532C63.8897 276.593 64.1406 276.623 64.4067 276.623C64.7639 276.623 65.0908 276.589 65.3873 276.521C65.6838 276.445 65.9612 276.338 66.2197 276.202C66.4858 276.065 66.7366 275.901 66.9723 275.711C67.2155 275.521 67.4512 275.305 67.6792 275.061V272.667ZM61.1227 267.946C61.7612 267.33 62.4492 266.87 63.1866 266.566C63.9239 266.262 64.7411 266.11 65.6382 266.11C66.2843 266.11 66.8582 266.217 67.36 266.429C67.8617 266.642 68.2836 266.939 68.6257 267.319C68.9677 267.699 69.2262 268.159 69.4011 268.699C69.5759 269.238 69.6633 269.831 69.6633 270.477V277.866H68.7625C68.5649 277.866 68.4128 277.836 68.3064 277.775C68.2 277.707 68.1163 277.577 68.0555 277.387L67.8275 276.293C67.5234 276.574 67.2269 276.825 66.9381 277.045C66.6492 277.258 66.3451 277.441 66.0258 277.593C65.7066 277.737 65.3645 277.847 64.9996 277.923C64.6423 278.007 64.2432 278.049 63.8023 278.049C63.3538 278.049 62.9319 277.988 62.5366 277.866C62.1413 277.737 61.7954 277.547 61.499 277.296C61.2101 277.045 60.9782 276.73 60.8034 276.35C60.6362 275.962 60.5525 275.506 60.5525 274.981C60.5525 274.525 60.678 274.088 60.9288 273.67C61.1797 273.244 61.5864 272.868 62.1489 272.541C62.7115 272.214 63.445 271.948 64.3496 271.743C65.2543 271.53 66.3641 271.409 67.6792 271.378V270.477C67.6792 269.58 67.4854 268.904 67.0977 268.448C66.71 267.984 66.1437 267.752 65.3987 267.752C64.897 267.752 64.4751 267.817 64.133 267.946C63.7985 268.068 63.5058 268.208 63.255 268.368C63.0117 268.52 62.7989 268.661 62.6164 268.79C62.4416 268.911 62.2668 268.972 62.0919 268.972C61.9551 268.972 61.8373 268.938 61.7384 268.87C61.6396 268.794 61.556 268.702 61.4876 268.596L61.1227 267.946ZM79.2383 268.22C79.1471 268.387 79.0065 268.47 78.8164 268.47C78.7024 268.47 78.5732 268.429 78.4287 268.345C78.2843 268.261 78.1056 268.17 77.8928 268.071C77.6875 267.965 77.4405 267.87 77.1516 267.786C76.8627 267.695 76.5207 267.65 76.1254 267.65C75.7833 267.65 75.4754 267.695 75.2018 267.786C74.9281 267.87 74.6924 267.988 74.4948 268.14C74.3047 268.292 74.1565 268.47 74.0501 268.676C73.9513 268.873 73.9018 269.09 73.9018 269.326C73.9018 269.622 73.9855 269.869 74.1527 270.067C74.3275 270.265 74.5556 270.436 74.8369 270.58C75.1181 270.724 75.4374 270.854 75.7947 270.968C76.152 271.074 76.5169 271.192 76.8894 271.321C77.2694 271.443 77.6381 271.58 77.9954 271.732C78.3527 271.884 78.672 272.074 78.9532 272.302C79.2345 272.53 79.4588 272.811 79.626 273.146C79.8008 273.472 79.8883 273.868 79.8883 274.331C79.8883 274.864 79.7932 275.358 79.6032 275.814C79.4132 276.262 79.1319 276.654 78.7594 276.988C78.3869 277.315 77.9308 277.574 77.3911 277.764C76.8513 277.954 76.228 278.049 75.521 278.049C74.7152 278.049 73.9855 277.92 73.3317 277.661C72.678 277.395 72.123 277.057 71.6669 276.646L72.1458 275.871C72.2066 275.772 72.2789 275.696 72.3625 275.643C72.4461 275.59 72.5525 275.563 72.6818 275.563C72.8186 275.563 72.963 275.616 73.1151 275.723C73.2671 275.829 73.4495 275.947 73.6624 276.076C73.8828 276.205 74.1489 276.323 74.4606 276.43C74.7722 276.536 75.1599 276.589 75.6237 276.589C76.0189 276.589 76.3648 276.54 76.6613 276.441C76.9578 276.335 77.2048 276.194 77.4025 276.019C77.6001 275.844 77.7446 275.643 77.8358 275.415C77.9346 275.187 77.984 274.943 77.984 274.685C77.984 274.366 77.8966 274.103 77.7218 273.898C77.5545 273.685 77.3303 273.507 77.049 273.362C76.7677 273.21 76.4446 273.081 76.0798 272.975C75.7225 272.861 75.3538 272.743 74.9737 272.621C74.6012 272.499 74.2325 272.363 73.8676 272.211C73.5103 272.051 73.1911 271.853 72.9098 271.618C72.6285 271.382 72.4005 271.093 72.2256 270.751C72.0584 270.401 71.9748 269.979 71.9748 269.485C71.9748 269.044 72.066 268.623 72.2484 268.22C72.4309 267.809 72.697 267.452 73.0466 267.148C73.3963 266.836 73.8258 266.589 74.3351 266.407C74.8445 266.224 75.426 266.133 76.0798 266.133C76.8399 266.133 77.5203 266.255 78.1208 266.498C78.729 266.733 79.2535 267.06 79.6944 267.478L79.2383 268.22ZM84.1735 261.07V270.956H84.698C84.85 270.956 84.9755 270.937 85.0743 270.899C85.1807 270.854 85.2909 270.766 85.405 270.637L89.0538 266.726C89.1603 266.597 89.2705 266.498 89.3845 266.429C89.5061 266.353 89.6658 266.315 89.8634 266.315H91.6993L87.4461 270.842C87.2408 271.101 87.0204 271.302 86.7847 271.447C86.9215 271.538 87.0432 271.644 87.1496 271.766C87.2636 271.88 87.37 272.013 87.4689 272.165L91.9843 277.866H90.1713C89.9965 277.866 89.8444 277.84 89.7152 277.787C89.5936 277.726 89.4871 277.619 89.3959 277.467L85.5988 272.735C85.4848 272.575 85.3708 272.473 85.2567 272.427C85.1503 272.374 84.9831 272.347 84.755 272.347H84.1735V277.866H82.1324V261.07H84.1735ZM108.706 275.939C108.927 275.939 109.102 276.004 109.231 276.133C109.36 276.262 109.425 276.43 109.425 276.635V277.866H98.5236V277.171C98.5236 277.026 98.554 276.878 98.6149 276.726C98.6757 276.574 98.7707 276.433 98.8999 276.304L104.134 271.048C104.567 270.607 104.962 270.185 105.32 269.782C105.677 269.371 105.981 268.961 106.232 268.55C106.483 268.14 106.677 267.726 106.813 267.307C106.95 266.882 107.019 266.429 107.019 265.95C107.019 265.472 106.943 265.053 106.791 264.696C106.639 264.331 106.43 264.031 106.163 263.795C105.905 263.56 105.597 263.385 105.24 263.271C104.883 263.149 104.499 263.088 104.088 263.088C103.67 263.088 103.286 263.149 102.936 263.271C102.587 263.392 102.275 263.564 102.001 263.784C101.735 263.997 101.511 264.251 101.329 264.548C101.146 264.844 101.017 265.171 100.941 265.529C100.85 265.795 100.724 265.973 100.565 266.065C100.413 266.148 100.196 266.171 99.9148 266.133L98.8543 265.95C98.9607 265.206 99.166 264.548 99.4701 263.978C99.7817 263.4 100.169 262.917 100.633 262.53C101.104 262.142 101.64 261.849 102.241 261.652C102.841 261.446 103.491 261.344 104.191 261.344C104.883 261.344 105.529 261.446 106.129 261.652C106.73 261.857 107.251 262.157 107.691 262.552C108.132 262.94 108.478 263.415 108.729 263.978C108.98 264.54 109.105 265.179 109.105 265.893C109.105 266.502 109.014 267.068 108.832 267.592C108.649 268.109 108.402 268.604 108.091 269.075C107.779 269.546 107.418 270.006 107.007 270.455C106.604 270.903 106.175 271.355 105.719 271.811L101.409 276.213C101.713 276.129 102.02 276.065 102.332 276.019C102.644 275.966 102.944 275.939 103.233 275.939H108.706ZM125.161 269.063C124.78 268.554 124.37 268.201 123.929 268.003C123.488 267.798 122.994 267.695 122.447 267.695C121.375 267.695 120.55 268.079 119.972 268.847C119.395 269.615 119.106 270.709 119.106 272.131C119.106 272.883 119.17 273.53 119.3 274.069C119.429 274.601 119.619 275.042 119.87 275.392C120.121 275.734 120.428 275.985 120.793 276.145C121.158 276.304 121.573 276.384 122.036 276.384C122.705 276.384 123.287 276.232 123.781 275.928C124.283 275.624 124.742 275.194 125.161 274.639V269.063ZM127.19 261.07V277.866H125.982C125.693 277.866 125.51 277.726 125.434 277.444L125.252 276.042C124.758 276.635 124.195 277.114 123.564 277.479C122.933 277.844 122.203 278.026 121.375 278.026C120.714 278.026 120.113 277.901 119.573 277.65C119.034 277.391 118.574 277.015 118.194 276.521C117.813 276.027 117.521 275.411 117.316 274.674C117.11 273.936 117.008 273.089 117.008 272.131C117.008 271.279 117.122 270.489 117.35 269.759C117.578 269.022 117.905 268.383 118.33 267.843C118.756 267.304 119.277 266.882 119.893 266.578C120.516 266.266 121.215 266.11 121.991 266.11C122.698 266.11 123.302 266.232 123.804 266.475C124.313 266.711 124.765 267.041 125.161 267.467V261.07H127.19ZM137.883 270.831C137.883 270.36 137.814 269.93 137.677 269.542C137.548 269.147 137.354 268.809 137.096 268.528C136.845 268.239 136.537 268.018 136.172 267.866C135.807 267.707 135.393 267.627 134.929 267.627C133.956 267.627 133.185 267.912 132.615 268.482C132.052 269.044 131.702 269.827 131.566 270.831H137.883ZM139.525 276.247C139.274 276.551 138.974 276.817 138.624 277.045C138.274 277.266 137.898 277.448 137.495 277.593C137.1 277.737 136.689 277.844 136.264 277.912C135.838 277.988 135.416 278.026 134.998 278.026C134.2 278.026 133.462 277.893 132.786 277.627C132.117 277.353 131.535 276.958 131.041 276.441C130.555 275.916 130.174 275.27 129.901 274.503C129.627 273.735 129.49 272.853 129.49 271.857C129.49 271.051 129.612 270.299 129.855 269.599C130.106 268.9 130.463 268.296 130.927 267.786C131.391 267.269 131.957 266.867 132.626 266.578C133.295 266.281 134.048 266.133 134.884 266.133C135.576 266.133 136.214 266.251 136.799 266.486C137.392 266.714 137.902 267.049 138.327 267.49C138.761 267.923 139.099 268.463 139.342 269.109C139.586 269.748 139.707 270.477 139.707 271.298C139.707 271.618 139.673 271.83 139.605 271.937C139.536 272.043 139.407 272.097 139.217 272.097H131.497C131.52 272.826 131.619 273.461 131.794 274.001C131.976 274.541 132.227 274.993 132.546 275.358C132.866 275.715 133.246 275.985 133.687 276.167C134.127 276.342 134.622 276.43 135.169 276.43C135.678 276.43 136.115 276.373 136.48 276.259C136.853 276.137 137.172 276.008 137.438 275.871C137.704 275.734 137.925 275.609 138.099 275.495C138.282 275.373 138.438 275.312 138.567 275.312C138.734 275.312 138.863 275.377 138.955 275.506L139.525 276.247ZM145.413 278.049C144.501 278.049 143.798 277.794 143.304 277.285C142.817 276.775 142.574 276.042 142.574 275.084V268.014H141.183C141.061 268.014 140.958 267.98 140.875 267.912C140.791 267.836 140.749 267.722 140.749 267.57V266.76L142.642 266.521L143.11 262.952C143.133 262.838 143.182 262.746 143.258 262.678C143.342 262.602 143.448 262.564 143.577 262.564H144.603V266.543H147.944V268.014H144.603V274.947C144.603 275.434 144.721 275.795 144.957 276.03C145.193 276.266 145.497 276.384 145.869 276.384C146.082 276.384 146.264 276.357 146.417 276.304C146.576 276.243 146.713 276.179 146.827 276.11C146.941 276.042 147.036 275.981 147.112 275.928C147.196 275.867 147.268 275.837 147.329 275.837C147.435 275.837 147.53 275.901 147.614 276.03L148.207 277C147.857 277.327 147.435 277.585 146.941 277.775C146.447 277.958 145.938 278.049 145.413 278.049ZM156.056 272.667C155.121 272.697 154.323 272.773 153.661 272.895C153.008 273.009 152.472 273.161 152.054 273.351C151.643 273.541 151.343 273.765 151.153 274.024C150.97 274.282 150.879 274.571 150.879 274.89C150.879 275.194 150.929 275.457 151.027 275.677C151.126 275.897 151.259 276.08 151.427 276.224C151.601 276.361 151.803 276.464 152.031 276.532C152.267 276.593 152.517 276.623 152.783 276.623C153.141 276.623 153.468 276.589 153.764 276.521C154.061 276.445 154.338 276.338 154.596 276.202C154.863 276.065 155.113 275.901 155.349 275.711C155.592 275.521 155.828 275.305 156.056 275.061V272.667ZM149.499 267.946C150.138 267.33 150.826 266.87 151.563 266.566C152.301 266.262 153.118 266.11 154.015 266.11C154.661 266.11 155.235 266.217 155.737 266.429C156.238 266.642 156.66 266.939 157.002 267.319C157.345 267.699 157.603 268.159 157.778 268.699C157.953 269.238 158.04 269.831 158.04 270.477V277.866H157.139C156.942 277.866 156.79 277.836 156.683 277.775C156.577 277.707 156.493 277.577 156.432 277.387L156.204 276.293C155.9 276.574 155.604 276.825 155.315 277.045C155.026 277.258 154.722 277.441 154.403 277.593C154.083 277.737 153.741 277.847 153.376 277.923C153.019 278.007 152.62 278.049 152.179 278.049C151.731 278.049 151.309 277.988 150.913 277.866C150.518 277.737 150.172 277.547 149.876 277.296C149.587 277.045 149.355 276.73 149.18 276.35C149.013 275.962 148.929 275.506 148.929 274.981C148.929 274.525 149.055 274.088 149.306 273.67C149.556 273.244 149.963 272.868 150.526 272.541C151.088 272.214 151.822 271.948 152.726 271.743C153.631 271.53 154.741 271.409 156.056 271.378V270.477C156.056 269.58 155.862 268.904 155.474 268.448C155.087 267.984 154.52 267.752 153.775 267.752C153.274 267.752 152.852 267.817 152.51 267.946C152.175 268.068 151.883 268.208 151.632 268.368C151.388 268.52 151.176 268.661 150.993 268.79C150.818 268.911 150.644 268.972 150.469 268.972C150.332 268.972 150.214 268.938 150.115 268.87C150.016 268.794 149.933 268.702 149.864 268.596L149.499 267.946ZM163.031 266.315V277.866H161.002V266.315H163.031ZM163.464 262.689C163.464 262.887 163.423 263.073 163.339 263.248C163.263 263.415 163.157 263.567 163.02 263.704C162.891 263.833 162.735 263.936 162.552 264.012C162.377 264.088 162.191 264.126 161.994 264.126C161.796 264.126 161.61 264.088 161.435 264.012C161.268 263.936 161.119 263.833 160.99 263.704C160.861 263.567 160.758 263.415 160.682 263.248C160.606 263.073 160.568 262.887 160.568 262.689C160.568 262.492 160.606 262.305 160.682 262.131C160.758 261.948 160.861 261.792 160.99 261.663C161.119 261.526 161.268 261.42 161.435 261.344C161.61 261.268 161.796 261.23 161.994 261.23C162.191 261.23 162.377 261.268 162.552 261.344C162.735 261.42 162.891 261.526 163.02 261.663C163.157 261.792 163.263 261.948 163.339 262.131C163.423 262.305 163.464 262.492 163.464 262.689ZM168.22 261.07V277.866H166.19V261.07H168.22ZM177.995 268.22C177.903 268.387 177.763 268.47 177.573 268.47C177.459 268.47 177.329 268.429 177.185 268.345C177.041 268.261 176.862 268.17 176.649 268.071C176.444 267.965 176.197 267.87 175.908 267.786C175.619 267.695 175.277 267.65 174.882 267.65C174.54 267.65 174.232 267.695 173.958 267.786C173.684 267.87 173.449 267.988 173.251 268.14C173.061 268.292 172.913 268.47 172.806 268.676C172.708 268.873 172.658 269.09 172.658 269.326C172.658 269.622 172.742 269.869 172.909 270.067C173.084 270.265 173.312 270.436 173.593 270.58C173.874 270.724 174.194 270.854 174.551 270.968C174.908 271.074 175.273 271.192 175.646 271.321C176.026 271.443 176.394 271.58 176.752 271.732C177.109 271.884 177.428 272.074 177.71 272.302C177.991 272.53 178.215 272.811 178.382 273.146C178.557 273.472 178.645 273.868 178.645 274.331C178.645 274.864 178.55 275.358 178.359 275.814C178.169 276.262 177.888 276.654 177.516 276.988C177.143 277.315 176.687 277.574 176.147 277.764C175.608 277.954 174.984 278.049 174.277 278.049C173.472 278.049 172.742 277.92 172.088 277.661C171.434 277.395 170.879 277.057 170.423 276.646L170.902 275.871C170.963 275.772 171.035 275.696 171.119 275.643C171.202 275.59 171.309 275.563 171.438 275.563C171.575 275.563 171.719 275.616 171.871 275.723C172.023 275.829 172.206 275.947 172.419 276.076C172.639 276.205 172.905 276.323 173.217 276.43C173.529 276.536 173.916 276.589 174.38 276.589C174.775 276.589 175.121 276.54 175.418 276.441C175.714 276.335 175.961 276.194 176.159 276.019C176.356 275.844 176.501 275.643 176.592 275.415C176.691 275.187 176.74 274.943 176.74 274.685C176.74 274.366 176.653 274.103 176.478 273.898C176.311 273.685 176.087 273.507 175.805 273.362C175.524 273.21 175.201 273.081 174.836 272.975C174.479 272.861 174.11 272.743 173.73 272.621C173.357 272.499 172.989 272.363 172.624 272.211C172.267 272.051 171.947 271.853 171.666 271.618C171.385 271.382 171.157 271.093 170.982 270.751C170.815 270.401 170.731 269.979 170.731 269.485C170.731 269.044 170.822 268.623 171.005 268.22C171.187 267.809 171.453 267.452 171.803 267.148C172.153 266.836 172.582 266.589 173.091 266.407C173.601 266.224 174.182 266.133 174.836 266.133C175.596 266.133 176.277 266.255 176.877 266.498C177.485 266.733 178.01 267.06 178.451 267.478L177.995 268.22Z" fill="#D1D1D1"/>
<path d="M49.1875 285.866H660.047" stroke="#D1D1D1" stroke-width="3.25792" stroke-linecap="round"/>
<rect x="2.76375" y="2.62203" width="695.566" height="320.905" rx="13.8462" stroke="#292929" stroke-width="4.88688"/>
</svg>
