<svg width="702" height="327" viewBox="0 0 702 327" fill="none" xmlns="http://www.w3.org/2000/svg">
<g clip-path="url(#clip0_1334_46865)">
<rect x="3.1075" y="3.30074" width="695.566" height="320.905" rx="13.8462" fill="#323233" stroke="#292929" stroke-width="4.88688"/>
<path d="M47.8661 94.254C47.8661 95.4779 47.6722 96.5915 47.2845 97.595C46.8968 98.5984 46.3495 99.4574 45.6425 100.172C44.9356 100.887 44.0842 101.442 43.0883 101.837C42.1001 102.224 41.0054 102.418 39.8043 102.418H33.7039V86.0782H39.8043C41.0054 86.0782 42.1001 86.2759 43.0883 86.6712C44.0842 87.0589 44.9356 87.6138 45.6425 88.336C46.3495 89.0506 46.8968 89.9096 47.2845 90.913C47.6722 91.9164 47.8661 93.0301 47.8661 94.254ZM45.5969 94.254C45.5969 93.2506 45.4601 92.3535 45.1864 91.563C44.9128 90.7724 44.5251 90.1034 44.0233 89.5561C43.5216 89.0087 42.9135 88.5906 42.1989 88.3018C41.4843 88.0129 40.6861 87.8685 39.8043 87.8685H35.916V100.628H39.8043C40.6861 100.628 41.4843 100.484 42.1989 100.195C42.9135 99.9059 43.5216 99.4916 44.0233 98.9519C44.5251 98.4046 44.9128 97.7356 45.1864 96.945C45.4601 96.1544 45.5969 95.2574 45.5969 94.254ZM56.3002 97.2187C55.3652 97.2491 54.567 97.3251 53.9057 97.4468C53.2519 97.5608 52.716 97.7128 52.2979 97.9029C51.8874 98.0929 51.5871 98.3172 51.3971 98.5756C51.2146 98.8341 51.1234 99.123 51.1234 99.4422C51.1234 99.7463 51.1728 100.009 51.2716 100.229C51.3705 100.449 51.5035 100.632 51.6707 100.776C51.8456 100.913 52.047 101.016 52.2751 101.084C52.5107 101.145 52.7616 101.175 53.0277 101.175C53.385 101.175 53.7118 101.141 54.0083 101.073C54.3048 100.997 54.5822 100.89 54.8407 100.754C55.1068 100.617 55.3576 100.453 55.5933 100.263C55.8365 100.073 56.0722 99.8565 56.3002 99.6133V97.2187ZM49.7437 92.498C50.3822 91.8822 51.0702 91.4223 51.8076 91.1182C52.545 90.8142 53.3621 90.6621 54.2592 90.6621C54.9053 90.6621 55.4793 90.7686 55.981 90.9814C56.4827 91.1943 56.9046 91.4907 57.2467 91.8708C57.5888 92.2509 57.8472 92.7108 58.0221 93.2506C58.1969 93.7903 58.2843 94.3832 58.2843 95.0294V102.418H57.3835C57.1859 102.418 57.0338 102.388 56.9274 102.327C56.821 102.259 56.7374 102.129 56.6765 101.939L56.4485 100.845C56.1444 101.126 55.8479 101.377 55.5591 101.597C55.2702 101.81 54.9661 101.993 54.6469 102.145C54.3276 102.289 53.9855 102.399 53.6206 102.475C53.2633 102.559 52.8642 102.601 52.4233 102.601C51.9748 102.601 51.5529 102.54 51.1576 102.418C50.7623 102.289 50.4164 102.099 50.12 101.848C49.8311 101.597 49.5993 101.282 49.4244 100.902C49.2572 100.514 49.1735 100.058 49.1735 99.5334C49.1735 99.0773 49.299 98.6402 49.5498 98.2221C49.8007 97.7964 50.2074 97.4201 50.7699 97.0933C51.3325 96.7664 52.066 96.5003 52.9707 96.2951C53.8753 96.0822 54.9851 95.9606 56.3002 95.9302V95.0294C56.3002 94.1324 56.1064 93.4558 55.7187 92.9997C55.331 92.536 54.7647 92.3041 54.0197 92.3041C53.518 92.3041 53.0961 92.3687 52.754 92.498C52.4195 92.6196 52.1269 92.7602 51.876 92.9199C51.6327 93.0719 51.4199 93.2125 51.2374 93.3418C51.0626 93.4634 50.8878 93.5242 50.7129 93.5242C50.5761 93.5242 50.4583 93.49 50.3594 93.4216C50.2606 93.3456 50.177 93.2544 50.1086 93.1479L49.7437 92.498ZM64.5221 102.601C63.6098 102.601 62.9067 102.346 62.4126 101.837C61.926 101.327 61.6828 100.594 61.6828 99.6361V92.5664H60.2917C60.17 92.5664 60.0674 92.5322 59.9838 92.4638C59.9002 92.3877 59.8584 92.2737 59.8584 92.1217V91.3121L61.7512 91.0726L62.2187 87.5036C62.2415 87.3896 62.2909 87.2983 62.3669 87.2299C62.4506 87.1539 62.557 87.1159 62.6862 87.1159H63.7125V91.0954H67.0535V92.5664H63.7125V99.4992C63.7125 99.9858 63.8303 100.347 64.066 100.582C64.3016 100.818 64.6057 100.936 64.9782 100.936C65.191 100.936 65.3735 100.909 65.5255 100.856C65.6851 100.795 65.822 100.731 65.936 100.662C66.05 100.594 66.145 100.533 66.2211 100.48C66.3047 100.419 66.3769 100.389 66.4377 100.389C66.5441 100.389 66.6392 100.453 66.7228 100.582L67.3157 101.552C66.966 101.879 66.5441 102.137 66.05 102.327C65.5559 102.51 65.0466 102.601 64.5221 102.601ZM76.5691 95.3829C76.5691 94.9115 76.5007 94.482 76.3639 94.0944C76.2347 93.6991 76.0408 93.3608 75.7823 93.0795C75.5315 92.7906 75.2236 92.5702 74.8587 92.4182C74.4938 92.2585 74.0795 92.1787 73.6158 92.1787C72.6428 92.1787 71.8712 92.4638 71.3011 93.0339C70.7385 93.5964 70.3889 94.3794 70.252 95.3829H76.5691ZM78.2111 100.799C77.9603 101.103 77.66 101.369 77.3103 101.597C76.9606 101.818 76.5843 102 76.1814 102.145C75.7861 102.289 75.3756 102.396 74.9499 102.464C74.5242 102.54 74.1023 102.578 73.6842 102.578C72.8861 102.578 72.1487 102.445 71.4721 102.179C70.8032 101.905 70.2216 101.51 69.7275 100.993C69.241 100.468 68.8609 99.8223 68.5872 99.0545C68.3136 98.2868 68.1767 97.4049 68.1767 96.4091C68.1767 95.6033 68.2984 94.8507 68.5416 94.1514C68.7925 93.452 69.1498 92.8477 69.6135 92.3383C70.0772 91.8214 70.6435 91.4185 71.3125 91.1296C71.9814 90.8332 72.734 90.6849 73.5702 90.6849C74.262 90.6849 74.9005 90.8028 75.4859 91.0384C76.0788 91.2665 76.5881 91.601 77.0138 92.0419C77.4471 92.4752 77.7854 93.0149 78.0287 93.661C78.2719 94.2996 78.3936 95.0294 78.3936 95.8504C78.3936 96.1696 78.3594 96.3825 78.2909 96.4889C78.2225 96.5953 78.0933 96.6486 77.9033 96.6486H70.1836C70.2064 97.3783 70.3052 98.0131 70.4801 98.5528C70.6625 99.0925 70.9134 99.5449 71.2327 99.9097C71.5519 100.267 71.932 100.537 72.3729 100.719C72.8138 100.894 73.308 100.982 73.8553 100.982C74.3646 100.982 74.8017 100.925 75.1666 100.811C75.5391 100.689 75.8584 100.56 76.1244 100.423C76.3905 100.286 76.6109 100.161 76.7858 100.047C76.9682 99.9249 77.1241 99.8641 77.2533 99.8641C77.4205 99.8641 77.5498 99.9287 77.641 100.058L78.2111 100.799ZM96.2331 100.868V102.418H87.4759V100.868H90.9765V89.7271C90.9765 89.3926 90.9879 89.0544 91.0107 88.7123L88.103 91.2095C88.0042 91.2931 87.9054 91.3463 87.8065 91.3691C87.7077 91.3843 87.6165 91.3843 87.5329 91.3691C87.4492 91.3539 87.3694 91.3235 87.2934 91.2779C87.225 91.2323 87.1718 91.1829 87.1338 91.1296L86.4952 90.2516L91.3642 86.044H93.0176V100.868H96.2331ZM99.0351 101.164C99.0351 100.966 99.0693 100.78 99.1377 100.605C99.2137 100.43 99.3126 100.278 99.4342 100.149C99.5634 100.02 99.7155 99.9173 99.8903 99.8413C100.065 99.7653 100.251 99.7273 100.449 99.7273C100.647 99.7273 100.833 99.7653 101.008 99.8413C101.183 99.9173 101.335 100.02 101.464 100.149C101.593 100.278 101.696 100.43 101.772 100.605C101.848 100.78 101.886 100.966 101.886 101.164C101.886 101.369 101.848 101.559 101.772 101.734C101.696 101.901 101.593 102.05 101.464 102.179C101.335 102.308 101.183 102.407 101.008 102.475C100.833 102.551 100.647 102.589 100.449 102.589C100.251 102.589 100.065 102.551 99.8903 102.475C99.7155 102.407 99.5634 102.308 99.4342 102.179C99.3126 102.05 99.2137 101.901 99.1377 101.734C99.0693 101.559 99.0351 101.369 99.0351 101.164ZM99.0351 92.612C99.0351 92.4144 99.0693 92.2281 99.1377 92.0533C99.2137 91.8784 99.3126 91.7264 99.4342 91.5972C99.5634 91.4679 99.7155 91.3653 99.8903 91.2893C100.065 91.2133 100.251 91.1753 100.449 91.1753C100.647 91.1753 100.833 91.2133 101.008 91.2893C101.183 91.3653 101.335 91.4679 101.464 91.5972C101.593 91.7264 101.696 91.8784 101.772 92.0533C101.848 92.2281 101.886 92.4144 101.886 92.612C101.886 92.8172 101.848 93.0073 101.772 93.1821C101.696 93.3494 101.593 93.4976 101.464 93.6268C101.335 93.7561 101.183 93.8587 101.008 93.9347C100.833 94.0031 100.647 94.0373 100.449 94.0373C100.251 94.0373 100.065 94.0031 99.8903 93.9347C99.7155 93.8587 99.5634 93.7561 99.4342 93.6268C99.3126 93.4976 99.2137 93.3494 99.1377 93.1821C99.0693 93.0073 99.0351 92.8172 99.0351 92.612Z" fill="#D1D1D1"/>
<path d="M60.9456 129.966C60.9456 132.665 58.7577 134.853 56.0588 134.853C53.3598 134.853 51.1719 132.665 51.1719 129.966C51.1719 127.267 53.3598 125.079 56.0588 125.079C58.7577 125.079 60.9456 127.267 60.9456 129.966Z" fill="#D1D1D1"/>
<path d="M89.7108 130.637L87.5117 124.939C87.4465 124.77 87.3781 124.574 87.3065 124.353C87.2348 124.125 87.1664 123.884 87.1012 123.629C86.9644 124.157 86.8243 124.597 86.6809 124.949L84.4818 130.637H89.7108ZM93.6594 135.837H92.1933C92.0239 135.837 91.8871 135.795 91.7828 135.71C91.6786 135.625 91.6004 135.518 91.5483 135.387L90.2386 132.006H83.9541L82.6444 135.387C82.6053 135.505 82.5303 135.609 82.4196 135.7C82.3088 135.791 82.172 135.837 82.0091 135.837H80.543L86.1434 121.831H88.059L93.6594 135.837ZM98.3786 130.999C98.7305 130.999 99.04 130.95 99.3072 130.852C99.5743 130.755 99.7991 130.618 99.9815 130.442C100.164 130.266 100.301 130.057 100.392 129.816C100.483 129.569 100.529 129.298 100.529 129.005C100.529 128.399 100.343 127.917 99.9718 127.559C99.6069 127.2 99.0758 127.021 98.3786 127.021C97.6749 127.021 97.1374 127.2 96.766 127.559C96.4011 127.917 96.2186 128.399 96.2186 129.005C96.2186 129.298 96.2643 129.569 96.3555 129.816C96.4532 130.057 96.5933 130.266 96.7757 130.442C96.9582 130.618 97.183 130.755 97.4501 130.852C97.7173 130.95 98.0268 130.999 98.3786 130.999ZM101.516 136.374C101.516 136.133 101.448 135.938 101.311 135.788C101.174 135.638 100.988 135.521 100.754 135.436C100.526 135.351 100.258 135.293 99.9522 135.26C99.646 135.221 99.3202 135.192 98.9748 135.172C98.636 135.153 98.2907 135.133 97.9388 135.114C97.587 135.094 97.2481 135.062 96.9224 135.016C96.5575 135.185 96.2577 135.4 96.0232 135.661C95.7951 135.915 95.6811 136.215 95.6811 136.56C95.6811 136.782 95.7365 136.987 95.8472 137.176C95.9645 137.371 96.1405 137.538 96.375 137.674C96.6096 137.818 96.9028 137.928 97.2547 138.007C97.613 138.091 98.0333 138.134 98.5155 138.134C98.9846 138.134 99.4049 138.091 99.7763 138.007C100.148 137.922 100.46 137.801 100.715 137.645C100.975 137.489 101.174 137.303 101.311 137.088C101.448 136.873 101.516 136.635 101.516 136.374ZM103.285 126.327V126.972C103.285 127.187 103.148 127.324 102.875 127.383L101.751 127.529C101.972 127.959 102.083 128.435 102.083 128.956C102.083 129.438 101.988 129.878 101.799 130.276C101.617 130.667 101.363 131.002 101.037 131.282C100.711 131.563 100.32 131.778 99.8643 131.927C99.4081 132.077 98.9129 132.152 98.3786 132.152C97.916 132.152 97.4795 132.097 97.069 131.986C96.8605 132.116 96.7008 132.256 96.59 132.406C96.4793 132.55 96.4239 132.696 96.4239 132.846C96.4239 133.081 96.5184 133.26 96.7073 133.384C96.9028 133.501 97.1569 133.586 97.4697 133.638C97.7824 133.69 98.1376 133.723 98.535 133.736C98.939 133.749 99.3495 133.771 99.7665 133.804C100.19 133.83 100.601 133.879 100.998 133.951C101.402 134.022 101.76 134.14 102.073 134.302C102.386 134.465 102.637 134.69 102.826 134.977C103.021 135.264 103.119 135.635 103.119 136.091C103.119 136.515 103.011 136.925 102.796 137.323C102.588 137.72 102.285 138.072 101.887 138.378C101.49 138.691 101.001 138.938 100.421 139.121C99.848 139.31 99.1996 139.404 98.4764 139.404C97.7531 139.404 97.1211 139.333 96.5803 139.189C96.0395 139.046 95.5899 138.854 95.2315 138.613C94.8731 138.372 94.6027 138.091 94.4203 137.772C94.2443 137.459 94.1564 137.13 94.1564 136.785C94.1564 136.296 94.3095 135.883 94.6157 135.544C94.922 135.205 95.3423 134.934 95.8766 134.732C95.5834 134.602 95.3488 134.429 95.1729 134.214C95.0034 133.993 94.9187 133.696 94.9187 133.325C94.9187 133.182 94.9448 133.035 94.9969 132.885C95.0491 132.729 95.1272 132.576 95.2315 132.426C95.3423 132.269 95.4758 132.123 95.6322 131.986C95.7886 131.849 95.971 131.729 96.1796 131.624C95.6909 131.351 95.3097 130.989 95.036 130.54C94.7624 130.083 94.6255 129.556 94.6255 128.956C94.6255 128.474 94.7167 128.037 94.8992 127.647C95.0881 127.249 95.3488 126.913 95.6811 126.64C96.0134 126.36 96.4076 126.145 96.8637 125.995C97.3263 125.845 97.8313 125.77 98.3786 125.77C98.8087 125.77 99.2094 125.819 99.5808 125.917C99.9522 126.008 100.291 126.145 100.597 126.327H103.285ZM111.395 129.807C111.395 129.403 111.336 129.034 111.219 128.702C111.108 128.363 110.942 128.073 110.721 127.832C110.506 127.585 110.242 127.396 109.929 127.265C109.616 127.128 109.261 127.06 108.864 127.06C108.03 127.06 107.368 127.304 106.88 127.793C106.397 128.275 106.098 128.946 105.98 129.807H111.395ZM112.802 134.449C112.587 134.71 112.33 134.938 112.03 135.133C111.731 135.322 111.408 135.479 111.063 135.602C110.724 135.726 110.372 135.817 110.007 135.876C109.642 135.941 109.281 135.974 108.922 135.974C108.238 135.974 107.606 135.86 107.026 135.632C106.453 135.397 105.954 135.058 105.531 134.615C105.114 134.166 104.788 133.612 104.553 132.954C104.319 132.296 104.202 131.54 104.202 130.686C104.202 129.995 104.306 129.35 104.514 128.751C104.729 128.151 105.036 127.633 105.433 127.197C105.831 126.754 106.316 126.408 106.889 126.161C107.463 125.907 108.108 125.78 108.825 125.78C109.417 125.78 109.965 125.881 110.467 126.083C110.975 126.278 111.411 126.565 111.776 126.943C112.148 127.314 112.438 127.777 112.646 128.331C112.855 128.878 112.959 129.504 112.959 130.207C112.959 130.481 112.93 130.663 112.871 130.755C112.812 130.846 112.701 130.891 112.539 130.891H105.922C105.941 131.517 106.026 132.061 106.176 132.524C106.332 132.986 106.547 133.374 106.821 133.687C107.095 133.993 107.42 134.224 107.798 134.381C108.176 134.53 108.6 134.605 109.069 134.605C109.505 134.605 109.88 134.557 110.193 134.459C110.512 134.355 110.786 134.244 111.014 134.127C111.242 134.009 111.431 133.902 111.581 133.804C111.737 133.7 111.871 133.648 111.981 133.648C112.125 133.648 112.236 133.703 112.314 133.814L112.802 134.449ZM116.575 127.373C116.79 127.132 117.018 126.913 117.259 126.718C117.5 126.523 117.754 126.356 118.021 126.22C118.295 126.076 118.582 125.969 118.881 125.897C119.188 125.819 119.517 125.78 119.869 125.78C120.409 125.78 120.885 125.871 121.296 126.053C121.713 126.229 122.058 126.483 122.332 126.816C122.612 127.142 122.824 127.536 122.967 127.998C123.11 128.461 123.182 128.972 123.182 129.533V135.837H121.432V129.533C121.432 128.784 121.26 128.204 120.914 127.793C120.576 127.376 120.058 127.168 119.36 127.168C118.846 127.168 118.363 127.291 117.914 127.539C117.471 127.787 117.06 128.122 116.682 128.546V135.837H114.933V125.936H115.979C116.226 125.936 116.379 126.057 116.438 126.298L116.575 127.373ZM132.121 128.292C131.795 127.855 131.443 127.552 131.065 127.383C130.687 127.207 130.264 127.119 129.795 127.119C128.876 127.119 128.169 127.448 127.674 128.106C127.178 128.764 126.931 129.702 126.931 130.921C126.931 131.566 126.986 132.12 127.097 132.582C127.208 133.038 127.371 133.416 127.586 133.716C127.801 134.009 128.065 134.224 128.377 134.361C128.69 134.498 129.045 134.566 129.443 134.566C130.016 134.566 130.515 134.436 130.938 134.175C131.368 133.915 131.762 133.547 132.121 133.071V128.292ZM133.86 121.44V135.837H132.824C132.577 135.837 132.42 135.716 132.355 135.475L132.199 134.273C131.775 134.781 131.293 135.192 130.752 135.505C130.212 135.817 129.586 135.974 128.876 135.974C128.309 135.974 127.794 135.866 127.332 135.651C126.869 135.43 126.475 135.107 126.149 134.684C125.823 134.26 125.572 133.732 125.396 133.1C125.22 132.468 125.132 131.742 125.132 130.921C125.132 130.191 125.23 129.513 125.426 128.888C125.621 128.256 125.901 127.708 126.266 127.246C126.631 126.783 127.077 126.422 127.605 126.161C128.14 125.894 128.739 125.76 129.404 125.76C130.01 125.76 130.528 125.864 130.958 126.073C131.394 126.275 131.782 126.558 132.121 126.923V121.44H133.86ZM141.811 131.38C141.01 131.406 140.326 131.471 139.759 131.576C139.198 131.673 138.739 131.804 138.381 131.967C138.029 132.129 137.771 132.322 137.608 132.543C137.452 132.765 137.374 133.012 137.374 133.286C137.374 133.547 137.416 133.771 137.501 133.96C137.586 134.149 137.7 134.306 137.843 134.429C137.993 134.547 138.166 134.635 138.361 134.693C138.563 134.746 138.778 134.772 139.006 134.772C139.312 134.772 139.592 134.742 139.847 134.684C140.101 134.618 140.339 134.527 140.56 134.41C140.788 134.293 141.003 134.153 141.205 133.99C141.414 133.827 141.616 133.641 141.811 133.433V131.38ZM136.191 127.334C136.739 126.806 137.328 126.412 137.96 126.151C138.592 125.89 139.293 125.76 140.062 125.76C140.615 125.76 141.107 125.851 141.537 126.034C141.968 126.216 142.329 126.47 142.622 126.796C142.916 127.122 143.137 127.516 143.287 127.979C143.437 128.441 143.512 128.95 143.512 129.504V135.837H142.74C142.57 135.837 142.44 135.811 142.349 135.759C142.257 135.7 142.186 135.589 142.134 135.426L141.938 134.488C141.678 134.729 141.423 134.944 141.176 135.133C140.928 135.316 140.668 135.472 140.394 135.602C140.12 135.726 139.827 135.821 139.514 135.886C139.208 135.957 138.866 135.993 138.488 135.993C138.104 135.993 137.742 135.941 137.403 135.837C137.064 135.726 136.768 135.563 136.514 135.348C136.266 135.133 136.067 134.863 135.918 134.537C135.774 134.205 135.703 133.814 135.703 133.364C135.703 132.973 135.81 132.599 136.025 132.24C136.24 131.875 136.589 131.553 137.071 131.273C137.553 130.992 138.182 130.764 138.957 130.588C139.733 130.406 140.684 130.302 141.811 130.276V129.504C141.811 128.735 141.645 128.155 141.313 127.764C140.98 127.366 140.495 127.168 139.856 127.168C139.426 127.168 139.065 127.223 138.771 127.334C138.485 127.438 138.234 127.559 138.019 127.695C137.81 127.826 137.628 127.946 137.472 128.057C137.322 128.161 137.172 128.213 137.022 128.213C136.905 128.213 136.804 128.184 136.719 128.125C136.634 128.06 136.563 127.982 136.504 127.891L136.191 127.334ZM145.843 134.762C145.843 134.592 145.872 134.433 145.931 134.283C145.996 134.133 146.08 134.003 146.185 133.892C146.295 133.781 146.426 133.693 146.576 133.628C146.725 133.563 146.885 133.53 147.054 133.53C147.224 133.53 147.384 133.563 147.533 133.628C147.683 133.693 147.814 133.781 147.924 133.892C148.035 134.003 148.123 134.133 148.188 134.283C148.253 134.433 148.286 134.592 148.286 134.762C148.286 134.938 148.253 135.101 148.188 135.25C148.123 135.394 148.035 135.521 147.924 135.632C147.814 135.742 147.683 135.827 147.533 135.886C147.384 135.951 147.224 135.984 147.054 135.984C146.885 135.984 146.725 135.951 146.576 135.886C146.426 135.827 146.295 135.742 146.185 135.632C146.08 135.521 145.996 135.394 145.931 135.25C145.872 135.101 145.843 134.938 145.843 134.762ZM145.843 127.431C145.843 127.262 145.872 127.102 145.931 126.953C145.996 126.803 146.08 126.672 146.185 126.562C146.295 126.451 146.426 126.363 146.576 126.298C146.725 126.233 146.885 126.2 147.054 126.2C147.224 126.2 147.384 126.233 147.533 126.298C147.683 126.363 147.814 126.451 147.924 126.562C148.035 126.672 148.123 126.803 148.188 126.953C148.253 127.102 148.286 127.262 148.286 127.431C148.286 127.607 148.253 127.77 148.188 127.92C148.123 128.064 148.035 128.191 147.924 128.301C147.814 128.412 147.683 128.5 147.533 128.565C147.384 128.624 147.224 128.653 147.054 128.653C146.885 128.653 146.725 128.624 146.576 128.565C146.426 128.5 146.295 128.412 146.185 128.301C146.08 128.191 145.996 128.064 145.931 127.92C145.872 127.77 145.843 127.607 145.843 127.431Z" fill="#D1D1D1"/>
<path d="M80.4844 145.095H660.394" stroke="#D1D1D1" stroke-width="3.25792" stroke-linecap="round"/>
<path d="M47.8661 215.218C47.8661 216.442 47.6722 217.555 47.2845 218.559C46.8968 219.562 46.3495 220.421 45.6425 221.136C44.9356 221.85 44.0842 222.405 43.0883 222.801C42.1001 223.188 41.0054 223.382 39.8043 223.382H33.7039V207.042H39.8043C41.0054 207.042 42.1001 207.24 43.0883 207.635C44.0842 208.023 44.9356 208.578 45.6425 209.3C46.3495 210.014 46.8968 210.873 47.2845 211.877C47.6722 212.88 47.8661 213.994 47.8661 215.218ZM45.5969 215.218C45.5969 214.214 45.4601 213.317 45.1864 212.527C44.9128 211.736 44.5251 211.067 44.0233 210.52C43.5216 209.972 42.9135 209.554 42.1989 209.266C41.4843 208.977 40.6861 208.832 39.8043 208.832H35.916V221.592H39.8043C40.6861 221.592 41.4843 221.447 42.1989 221.159C42.9135 220.87 43.5216 220.455 44.0233 219.916C44.5251 219.368 44.9128 218.699 45.1864 217.909C45.4601 217.118 45.5969 216.221 45.5969 215.218ZM56.3002 218.182C55.3652 218.213 54.567 218.289 53.9057 218.41C53.2519 218.525 52.716 218.677 52.2979 218.867C51.8874 219.057 51.5871 219.281 51.3971 219.539C51.2146 219.798 51.1234 220.087 51.1234 220.406C51.1234 220.71 51.1728 220.972 51.2716 221.193C51.3705 221.413 51.5035 221.596 51.6707 221.74C51.8456 221.877 52.047 221.98 52.2751 222.048C52.5107 222.109 52.7616 222.139 53.0277 222.139C53.385 222.139 53.7118 222.105 54.0083 222.037C54.3048 221.961 54.5822 221.854 54.8407 221.717C55.1068 221.58 55.3576 221.417 55.5933 221.227C55.8365 221.037 56.0722 220.82 56.3002 220.577V218.182ZM49.7437 213.462C50.3822 212.846 51.0702 212.386 51.8076 212.082C52.545 211.778 53.3621 211.626 54.2592 211.626C54.9053 211.626 55.4793 211.732 55.981 211.945C56.4827 212.158 56.9046 212.454 57.2467 212.835C57.5888 213.215 57.8472 213.675 58.0221 214.214C58.1969 214.754 58.2843 215.347 58.2843 215.993V223.382H57.3835C57.1859 223.382 57.0338 223.352 56.9274 223.291C56.821 223.222 56.7374 223.093 56.6765 222.903L56.4485 221.809C56.1444 222.09 55.8479 222.341 55.5591 222.561C55.2702 222.774 54.9661 222.956 54.6469 223.108C54.3276 223.253 53.9855 223.363 53.6206 223.439C53.2633 223.523 52.8642 223.565 52.4233 223.565C51.9748 223.565 51.5529 223.504 51.1576 223.382C50.7623 223.253 50.4164 223.063 50.12 222.812C49.8311 222.561 49.5993 222.246 49.4244 221.866C49.2572 221.478 49.1735 221.022 49.1735 220.497C49.1735 220.041 49.299 219.604 49.5498 219.186C49.8007 218.76 50.2074 218.384 50.7699 218.057C51.3325 217.73 52.066 217.464 52.9707 217.259C53.8753 217.046 54.9851 216.924 56.3002 216.894V215.993C56.3002 215.096 56.1064 214.42 55.7187 213.963C55.331 213.5 54.7647 213.268 54.0197 213.268C53.518 213.268 53.0961 213.332 52.754 213.462C52.4195 213.583 52.1269 213.724 51.876 213.884C51.6327 214.036 51.4199 214.176 51.2374 214.306C51.0626 214.427 50.8878 214.488 50.7129 214.488C50.5761 214.488 50.4583 214.454 50.3594 214.385C50.2606 214.309 50.177 214.218 50.1086 214.112L49.7437 213.462ZM64.5221 223.565C63.6098 223.565 62.9067 223.31 62.4126 222.801C61.926 222.291 61.6828 221.558 61.6828 220.6V213.53H60.2917C60.17 213.53 60.0674 213.496 59.9838 213.428C59.9002 213.351 59.8584 213.237 59.8584 213.085V212.276L61.7512 212.036L62.2187 208.467C62.2415 208.353 62.2909 208.262 62.3669 208.194C62.4506 208.118 62.557 208.08 62.6862 208.08H63.7125V212.059H67.0535V213.53H63.7125V220.463C63.7125 220.95 63.8303 221.311 64.066 221.546C64.3016 221.782 64.6057 221.9 64.9782 221.9C65.191 221.9 65.3735 221.873 65.5255 221.82C65.6851 221.759 65.822 221.694 65.936 221.626C66.05 221.558 66.145 221.497 66.2211 221.444C66.3047 221.383 66.3769 221.352 66.4377 221.352C66.5441 221.352 66.6392 221.417 66.7228 221.546L67.3157 222.515C66.966 222.842 66.5441 223.101 66.05 223.291C65.5559 223.473 65.0466 223.565 64.5221 223.565ZM76.5691 216.347C76.5691 215.875 76.5007 215.446 76.3639 215.058C76.2347 214.663 76.0408 214.325 75.7823 214.043C75.5315 213.754 75.2236 213.534 74.8587 213.382C74.4938 213.222 74.0795 213.142 73.6158 213.142C72.6428 213.142 71.8712 213.428 71.3011 213.998C70.7385 214.56 70.3889 215.343 70.252 216.347H76.5691ZM78.2111 221.763C77.9603 222.067 77.66 222.333 77.3103 222.561C76.9606 222.782 76.5843 222.964 76.1814 223.108C75.7861 223.253 75.3756 223.359 74.9499 223.428C74.5242 223.504 74.1023 223.542 73.6842 223.542C72.8861 223.542 72.1487 223.409 71.4721 223.143C70.8032 222.869 70.2216 222.474 69.7275 221.957C69.241 221.432 68.8609 220.786 68.5872 220.018C68.3136 219.25 68.1767 218.369 68.1767 217.373C68.1767 216.567 68.2984 215.814 68.5416 215.115C68.7925 214.416 69.1498 213.811 69.6135 213.302C70.0772 212.785 70.6435 212.382 71.3125 212.093C71.9814 211.797 72.734 211.649 73.5702 211.649C74.262 211.649 74.9005 211.767 75.4859 212.002C76.0788 212.23 76.5881 212.565 77.0138 213.006C77.4471 213.439 77.7854 213.979 78.0287 214.625C78.2719 215.263 78.3936 215.993 78.3936 216.814C78.3936 217.133 78.3594 217.346 78.2909 217.453C78.2225 217.559 78.0933 217.612 77.9033 217.612H70.1836C70.2064 218.342 70.3052 218.977 70.4801 219.517C70.6625 220.056 70.9134 220.509 71.2327 220.873C71.5519 221.231 71.932 221.501 72.3729 221.683C72.8138 221.858 73.308 221.945 73.8553 221.945C74.3646 221.945 74.8017 221.888 75.1666 221.774C75.5391 221.653 75.8584 221.523 76.1244 221.387C76.3905 221.25 76.6109 221.124 76.7858 221.01C76.9682 220.889 77.1241 220.828 77.2533 220.828C77.4205 220.828 77.5498 220.892 77.641 221.022L78.2111 221.763ZM95.8797 221.455C96.1001 221.455 96.2749 221.52 96.4042 221.649C96.5334 221.778 96.598 221.945 96.598 222.151V223.382H85.697V222.687C85.697 222.542 85.7274 222.394 85.7883 222.242C85.8491 222.09 85.9441 221.949 86.0733 221.82L91.3072 216.563C91.7405 216.122 92.1358 215.7 92.493 215.298C92.8503 214.887 93.1544 214.477 93.4053 214.066C93.6561 213.656 93.85 213.241 93.9868 212.823C94.1236 212.397 94.1921 211.945 94.1921 211.466C94.1921 210.987 94.116 210.569 93.964 210.212C93.812 209.847 93.6029 209.547 93.3369 209.311C93.0784 209.075 92.7705 208.901 92.4132 208.787C92.0559 208.665 91.6721 208.604 91.2616 208.604C90.8435 208.604 90.4596 208.665 90.1099 208.787C89.7602 208.908 89.4485 209.079 89.1749 209.3C88.9088 209.513 88.6845 209.767 88.5021 210.064C88.3197 210.36 88.1904 210.687 88.1144 211.044C88.0232 211.31 87.8978 211.489 87.7381 211.58C87.5861 211.664 87.3694 211.687 87.0882 211.649L86.0277 211.466C86.1341 210.721 86.3394 210.064 86.6435 209.494C86.9551 208.916 87.3428 208.433 87.8065 208.045C88.2778 207.658 88.8138 207.365 89.4143 207.167C90.0149 206.962 90.6648 206.86 91.3642 206.86C92.0559 206.86 92.7021 206.962 93.3026 207.167C93.9032 207.373 94.4239 207.673 94.8648 208.068C95.3057 208.456 95.6516 208.931 95.9025 209.494C96.1533 210.056 96.2788 210.695 96.2788 211.409C96.2788 212.017 96.1875 212.584 96.0051 213.108C95.8226 213.625 95.5756 214.119 95.2639 214.591C94.9522 215.062 94.5911 215.522 94.1807 215.97C93.7778 216.419 93.3483 216.871 92.8921 217.327L88.5819 221.729C88.886 221.645 89.1939 221.58 89.5055 221.535C89.8172 221.482 90.1175 221.455 90.4064 221.455H95.8797ZM99.0351 222.128C99.0351 221.93 99.0693 221.744 99.1377 221.569C99.2137 221.394 99.3126 221.242 99.4342 221.113C99.5634 220.984 99.7155 220.881 99.8903 220.805C100.065 220.729 100.251 220.691 100.449 220.691C100.647 220.691 100.833 220.729 101.008 220.805C101.183 220.881 101.335 220.984 101.464 221.113C101.593 221.242 101.696 221.394 101.772 221.569C101.848 221.744 101.886 221.93 101.886 222.128C101.886 222.333 101.848 222.523 101.772 222.698C101.696 222.865 101.593 223.013 101.464 223.143C101.335 223.272 101.183 223.371 101.008 223.439C100.833 223.515 100.647 223.553 100.449 223.553C100.251 223.553 100.065 223.515 99.8903 223.439C99.7155 223.371 99.5634 223.272 99.4342 223.143C99.3126 223.013 99.2137 222.865 99.1377 222.698C99.0693 222.523 99.0351 222.333 99.0351 222.128ZM99.0351 213.576C99.0351 213.378 99.0693 213.192 99.1377 213.017C99.2137 212.842 99.3126 212.69 99.4342 212.561C99.5634 212.432 99.7155 212.329 99.8903 212.253C100.065 212.177 100.251 212.139 100.449 212.139C100.647 212.139 100.833 212.177 101.008 212.253C101.183 212.329 101.335 212.432 101.464 212.561C101.593 212.69 101.696 212.842 101.772 213.017C101.848 213.192 101.886 213.378 101.886 213.576C101.886 213.781 101.848 213.971 101.772 214.146C101.696 214.313 101.593 214.461 101.464 214.591C101.335 214.72 101.183 214.822 101.008 214.898C100.833 214.967 100.647 215.001 100.449 215.001C100.251 215.001 100.065 214.967 99.8903 214.898C99.7155 214.822 99.5634 214.72 99.4342 214.591C99.3126 214.461 99.2137 214.313 99.1377 214.146C99.0693 213.971 99.0351 213.781 99.0351 213.576Z" fill="#D1D1D1"/>
<path d="M60.9456 250.93C60.9456 253.629 58.7577 255.816 56.0588 255.816C53.3598 255.816 51.1719 253.629 51.1719 250.93C51.1719 248.231 53.3598 246.043 56.0588 246.043C58.7577 246.043 60.9456 248.231 60.9456 250.93Z" fill="#D1D1D1"/>
<path d="M89.7108 251.601L87.5117 245.903C87.4465 245.734 87.3781 245.538 87.3065 245.316C87.2348 245.088 87.1664 244.847 87.1012 244.593C86.9644 245.121 86.8243 245.561 86.6809 245.913L84.4818 251.601H89.7108ZM93.6594 256.801H92.1933C92.0239 256.801 91.8871 256.758 91.7828 256.674C91.6786 256.589 91.6004 256.481 91.5483 256.351L90.2386 252.969H83.9541L82.6444 256.351C82.6053 256.468 82.5303 256.573 82.4196 256.664C82.3088 256.755 82.172 256.801 82.0091 256.801H80.543L86.1434 242.795H88.059L93.6594 256.801ZM98.3786 251.963C98.7305 251.963 99.04 251.914 99.3072 251.816C99.5743 251.718 99.7991 251.581 99.9815 251.406C100.164 251.23 100.301 251.021 100.392 250.78C100.483 250.532 100.529 250.262 100.529 249.969C100.529 249.363 100.343 248.881 99.9718 248.522C99.6069 248.164 99.0758 247.985 98.3786 247.985C97.6749 247.985 97.1374 248.164 96.766 248.522C96.4011 248.881 96.2186 249.363 96.2186 249.969C96.2186 250.262 96.2643 250.532 96.3555 250.78C96.4532 251.021 96.5933 251.23 96.7757 251.406C96.9582 251.581 97.183 251.718 97.4501 251.816C97.7173 251.914 98.0268 251.963 98.3786 251.963ZM101.516 257.338C101.516 257.097 101.448 256.902 101.311 256.752C101.174 256.602 100.988 256.485 100.754 256.4C100.526 256.315 100.258 256.257 99.9522 256.224C99.646 256.185 99.3202 256.156 98.9748 256.136C98.636 256.116 98.2907 256.097 97.9388 256.077C97.587 256.058 97.2481 256.025 96.9224 255.98C96.5575 256.149 96.2577 256.364 96.0232 256.625C95.7951 256.879 95.6811 257.179 95.6811 257.524C95.6811 257.745 95.7365 257.951 95.8472 258.14C95.9645 258.335 96.1405 258.501 96.375 258.638C96.6096 258.781 96.9028 258.892 97.2547 258.97C97.613 259.055 98.0333 259.097 98.5155 259.097C98.9846 259.097 99.4049 259.055 99.7763 258.97C100.148 258.886 100.46 258.765 100.715 258.609C100.975 258.452 101.174 258.267 101.311 258.052C101.448 257.837 101.516 257.599 101.516 257.338ZM103.285 247.291V247.936C103.285 248.151 103.148 248.288 102.875 248.346L101.751 248.493C101.972 248.923 102.083 249.399 102.083 249.92C102.083 250.402 101.988 250.842 101.799 251.239C101.617 251.63 101.363 251.966 101.037 252.246C100.711 252.526 100.32 252.741 99.8643 252.891C99.4081 253.041 98.9129 253.116 98.3786 253.116C97.916 253.116 97.4795 253.061 97.069 252.95C96.8605 253.08 96.7008 253.22 96.59 253.37C96.4793 253.513 96.4239 253.66 96.4239 253.81C96.4239 254.044 96.5184 254.224 96.7073 254.347C96.9028 254.465 97.1569 254.549 97.4697 254.602C97.7824 254.654 98.1376 254.686 98.535 254.699C98.939 254.712 99.3495 254.735 99.7665 254.768C100.19 254.794 100.601 254.843 100.998 254.914C101.402 254.986 101.76 255.103 102.073 255.266C102.386 255.429 102.637 255.654 102.826 255.941C103.021 256.227 103.119 256.599 103.119 257.055C103.119 257.478 103.011 257.889 102.796 258.286C102.588 258.684 102.285 259.036 101.887 259.342C101.49 259.655 101.001 259.902 100.421 260.085C99.848 260.274 99.1996 260.368 98.4764 260.368C97.7531 260.368 97.1211 260.296 96.5803 260.153C96.0395 260.01 95.5899 259.817 95.2315 259.576C94.8731 259.335 94.6027 259.055 94.4203 258.736C94.2443 258.423 94.1564 258.094 94.1564 257.749C94.1564 257.26 94.3095 256.846 94.6157 256.507C94.922 256.169 95.3423 255.898 95.8766 255.696C95.5834 255.566 95.3488 255.393 95.1729 255.178C95.0034 254.957 94.9187 254.66 94.9187 254.289C94.9187 254.145 94.9448 253.999 94.9969 253.849C95.0491 253.693 95.1272 253.539 95.2315 253.39C95.3423 253.233 95.4758 253.087 95.6322 252.95C95.7886 252.813 95.971 252.692 96.1796 252.588C95.6909 252.315 95.3097 251.953 95.036 251.503C94.7624 251.047 94.6255 250.519 94.6255 249.92C94.6255 249.438 94.7167 249.001 94.8992 248.61C95.0881 248.213 95.3488 247.877 95.6811 247.604C96.0134 247.323 96.4076 247.108 96.8637 246.958C97.3263 246.809 97.8313 246.734 98.3786 246.734C98.8087 246.734 99.2094 246.783 99.5808 246.88C99.9522 246.972 100.291 247.108 100.597 247.291H103.285ZM111.395 250.77C111.395 250.366 111.336 249.998 111.219 249.666C111.108 249.327 110.942 249.037 110.721 248.796C110.506 248.548 110.242 248.359 109.929 248.229C109.616 248.092 109.261 248.024 108.864 248.024C108.03 248.024 107.368 248.268 106.88 248.757C106.397 249.239 106.098 249.91 105.98 250.77H111.395ZM112.802 255.413C112.587 255.673 112.33 255.901 112.03 256.097C111.731 256.286 111.408 256.442 111.063 256.566C110.724 256.69 110.372 256.781 110.007 256.84C109.642 256.905 109.281 256.937 108.922 256.937C108.238 256.937 107.606 256.823 107.026 256.595C106.453 256.361 105.954 256.022 105.531 255.579C105.114 255.129 104.788 254.576 104.553 253.917C104.319 253.259 104.202 252.503 104.202 251.65C104.202 250.959 104.306 250.314 104.514 249.715C104.729 249.115 105.036 248.597 105.433 248.161C105.831 247.718 106.316 247.372 106.889 247.125C107.463 246.871 108.108 246.743 108.825 246.743C109.417 246.743 109.965 246.844 110.467 247.046C110.975 247.242 111.411 247.529 111.776 247.907C112.148 248.278 112.438 248.741 112.646 249.294C112.855 249.842 112.959 250.467 112.959 251.171C112.959 251.445 112.93 251.627 112.871 251.718C112.812 251.81 112.701 251.855 112.539 251.855H105.922C105.941 252.481 106.026 253.025 106.176 253.487C106.332 253.95 106.547 254.338 106.821 254.65C107.095 254.957 107.42 255.188 107.798 255.344C108.176 255.494 108.6 255.569 109.069 255.569C109.505 255.569 109.88 255.52 110.193 255.423C110.512 255.318 110.786 255.208 111.014 255.09C111.242 254.973 111.431 254.865 111.581 254.768C111.737 254.663 111.871 254.611 111.981 254.611C112.125 254.611 112.236 254.667 112.314 254.777L112.802 255.413ZM116.575 248.337C116.79 248.095 117.018 247.877 117.259 247.682C117.5 247.486 117.754 247.32 118.021 247.183C118.295 247.04 118.582 246.932 118.881 246.861C119.188 246.783 119.517 246.743 119.869 246.743C120.409 246.743 120.885 246.835 121.296 247.017C121.713 247.193 122.058 247.447 122.332 247.779C122.612 248.105 122.824 248.499 122.967 248.962C123.11 249.425 123.182 249.936 123.182 250.497V256.801H121.432V250.497C121.432 249.747 121.26 249.167 120.914 248.757C120.576 248.34 120.058 248.131 119.36 248.131C118.846 248.131 118.363 248.255 117.914 248.503C117.471 248.75 117.06 249.086 116.682 249.509V256.801H114.933V246.9H115.979C116.226 246.9 116.379 247.02 116.438 247.261L116.575 248.337ZM132.121 249.255C131.795 248.819 131.443 248.516 131.065 248.346C130.687 248.17 130.264 248.082 129.795 248.082C128.876 248.082 128.169 248.412 127.674 249.07C127.178 249.728 126.931 250.666 126.931 251.884C126.931 252.53 126.986 253.083 127.097 253.546C127.208 254.002 127.371 254.38 127.586 254.68C127.801 254.973 128.065 255.188 128.377 255.325C128.69 255.462 129.045 255.53 129.443 255.53C130.016 255.53 130.515 255.4 130.938 255.139C131.368 254.878 131.762 254.51 132.121 254.035V249.255ZM133.86 242.404V256.801H132.824C132.577 256.801 132.42 256.68 132.355 256.439L132.199 255.237C131.775 255.745 131.293 256.156 130.752 256.468C130.212 256.781 129.586 256.937 128.876 256.937C128.309 256.937 127.794 256.83 127.332 256.615C126.869 256.393 126.475 256.071 126.149 255.647C125.823 255.224 125.572 254.696 125.396 254.064C125.22 253.432 125.132 252.705 125.132 251.884C125.132 251.155 125.23 250.477 125.426 249.852C125.621 249.219 125.901 248.672 126.266 248.21C126.631 247.747 127.077 247.385 127.605 247.125C128.14 246.857 128.739 246.724 129.404 246.724C130.01 246.724 130.528 246.828 130.958 247.037C131.394 247.239 131.782 247.522 132.121 247.887V242.404H133.86ZM141.811 252.344C141.01 252.37 140.326 252.435 139.759 252.539C139.198 252.637 138.739 252.767 138.381 252.93C138.029 253.093 137.771 253.285 137.608 253.507C137.452 253.728 137.374 253.976 137.374 254.25C137.374 254.51 137.416 254.735 137.501 254.924C137.586 255.113 137.7 255.269 137.843 255.393C137.993 255.511 138.166 255.598 138.361 255.657C138.563 255.709 138.778 255.735 139.006 255.735C139.312 255.735 139.592 255.706 139.847 255.647C140.101 255.582 140.339 255.491 140.56 255.374C140.788 255.256 141.003 255.116 141.205 254.953C141.414 254.791 141.616 254.605 141.811 254.396V252.344ZM136.191 248.297C136.739 247.77 137.328 247.376 137.96 247.115C138.592 246.854 139.293 246.724 140.062 246.724C140.615 246.724 141.107 246.815 141.537 246.998C141.968 247.18 142.329 247.434 142.622 247.76C142.916 248.086 143.137 248.48 143.287 248.943C143.437 249.405 143.512 249.913 143.512 250.467V256.801H142.74C142.57 256.801 142.44 256.775 142.349 256.722C142.257 256.664 142.186 256.553 142.134 256.39L141.938 255.452C141.678 255.693 141.423 255.908 141.176 256.097C140.928 256.279 140.668 256.436 140.394 256.566C140.12 256.69 139.827 256.784 139.514 256.85C139.208 256.921 138.866 256.957 138.488 256.957C138.104 256.957 137.742 256.905 137.403 256.801C137.064 256.69 136.768 256.527 136.514 256.312C136.266 256.097 136.067 255.827 135.918 255.501C135.774 255.168 135.703 254.777 135.703 254.328C135.703 253.937 135.81 253.562 136.025 253.204C136.24 252.839 136.589 252.516 137.071 252.236C137.553 251.956 138.182 251.728 138.957 251.552C139.733 251.37 140.684 251.265 141.811 251.239V250.467C141.811 249.698 141.645 249.118 141.313 248.728C140.98 248.33 140.495 248.131 139.856 248.131C139.426 248.131 139.065 248.187 138.771 248.297C138.485 248.402 138.234 248.522 138.019 248.659C137.81 248.789 137.628 248.91 137.472 249.021C137.322 249.125 137.172 249.177 137.022 249.177C136.905 249.177 136.804 249.148 136.719 249.089C136.634 249.024 136.563 248.946 136.504 248.855L136.191 248.297ZM145.843 255.726C145.843 255.556 145.872 255.396 145.931 255.247C145.996 255.097 146.08 254.966 146.185 254.856C146.295 254.745 146.426 254.657 146.576 254.592C146.725 254.527 146.885 254.494 147.054 254.494C147.224 254.494 147.384 254.527 147.533 254.592C147.683 254.657 147.814 254.745 147.924 254.856C148.035 254.966 148.123 255.097 148.188 255.247C148.253 255.396 148.286 255.556 148.286 255.726C148.286 255.901 148.253 256.064 148.188 256.214C148.123 256.358 148.035 256.485 147.924 256.595C147.814 256.706 147.683 256.791 147.533 256.85C147.384 256.915 147.224 256.947 147.054 256.947C146.885 256.947 146.725 256.915 146.576 256.85C146.426 256.791 146.295 256.706 146.185 256.595C146.08 256.485 145.996 256.358 145.931 256.214C145.872 256.064 145.843 255.901 145.843 255.726ZM145.843 248.395C145.843 248.226 145.872 248.066 145.931 247.916C145.996 247.766 146.08 247.636 146.185 247.525C146.295 247.415 146.426 247.327 146.576 247.261C146.725 247.196 146.885 247.164 147.054 247.164C147.224 247.164 147.384 247.196 147.533 247.261C147.683 247.327 147.814 247.415 147.924 247.525C148.035 247.636 148.123 247.766 148.188 247.916C148.253 248.066 148.286 248.226 148.286 248.395C148.286 248.571 148.253 248.734 148.188 248.884C148.123 249.027 148.035 249.154 147.924 249.265C147.814 249.376 147.683 249.464 147.533 249.529C147.384 249.588 147.224 249.617 147.054 249.617C146.885 249.617 146.725 249.588 146.576 249.529C146.426 249.464 146.295 249.376 146.185 249.265C146.08 249.154 145.996 249.027 145.931 248.884C145.872 248.734 145.843 248.571 145.843 248.395Z" fill="#D1D1D1"/>
<path d="M80.4844 266.059H660.394" stroke="#D1D1D1" stroke-width="3.25792" stroke-linecap="round"/>
<path d="M34.4021 40.7541H34.9788C35.4609 40.7541 35.8095 40.6042 36.0246 40.3045L39.6115 35.5056C39.7809 35.2775 39.9666 35.1211 40.1686 35.0364C40.3706 34.9452 40.6182 34.8996 40.9114 34.8996H43.4526L38.9371 40.715C38.6439 41.0929 38.3409 41.3633 38.0282 41.5262C38.2562 41.6174 38.4615 41.7379 38.6439 41.8878C38.8264 42.0312 39.0023 42.2234 39.1717 42.4645L43.8045 49.0813H41.1949C41.0255 49.0813 40.8789 49.0683 40.7551 49.0422C40.6378 49.0161 40.5335 48.9803 40.4423 48.9347C40.3511 48.8891 40.2729 48.8337 40.2077 48.7685C40.1426 48.6969 40.0807 48.6154 40.022 48.5242L36.3764 43.4223C36.2526 43.2464 36.106 43.1226 35.9366 43.0509C35.7672 42.9727 35.5294 42.9336 35.2231 42.9336H34.4021V49.0813H31.47V34.8996H34.4021V40.7541ZM50.6196 37.1964V40.842H55.3501V43.0607H50.6196V46.7845H56.6989V49.0813H47.6679V34.8996H56.6989V37.1964H50.6196ZM67.9104 43.6275V49.0813H64.9783V43.6275L59.8275 34.8996H62.4078C62.6619 34.8996 62.8639 34.9615 63.0138 35.0853C63.1701 35.2026 63.2939 35.3557 63.3852 35.5446L65.7113 40.0113C65.8677 40.311 66.0078 40.5912 66.1316 40.8518C66.2619 41.1124 66.3759 41.3731 66.4737 41.6337C66.5649 41.3731 66.6691 41.1124 66.7864 40.8518C66.9102 40.5846 67.0471 40.3045 67.1969 40.0113L69.5035 35.5446C69.5817 35.3883 69.699 35.2417 69.8554 35.1048C70.0118 34.968 70.2138 34.8996 70.4614 34.8996H73.0612L67.9104 43.6275ZM96.1304 41.9856C96.1304 43.0216 95.9544 43.9761 95.6026 44.8493C95.2572 45.7159 94.7653 46.4619 94.1267 47.0875C93.4947 47.713 92.7323 48.2017 91.8397 48.5535C90.947 48.9054 89.9566 49.0813 88.8685 49.0813H83.4147V34.8996H88.8685C89.9566 34.8996 90.947 35.0755 91.8397 35.4274C92.7323 35.7792 93.4947 36.2712 94.1267 36.9032C94.7653 37.5287 95.2572 38.2748 95.6026 39.1414C95.9544 40.008 96.1304 40.956 96.1304 41.9856ZM93.12 41.9856C93.12 41.2427 93.0223 40.5749 92.8268 39.9819C92.6314 39.389 92.3512 38.8873 91.9863 38.4768C91.6214 38.0663 91.1751 37.7503 90.6473 37.5287C90.126 37.3072 89.5331 37.1964 88.8685 37.1964H86.3664V46.7845H88.8685C89.5331 46.7845 90.126 46.677 90.6473 46.4619C91.1751 46.2404 91.6214 45.9244 91.9863 45.5139C92.3512 45.0969 92.6314 44.5919 92.8268 43.9989C93.0223 43.406 93.12 42.7349 93.12 41.9856ZM107.92 43.696L106.386 39.3564C106.295 39.1284 106.197 38.8612 106.093 38.555C105.995 38.2487 105.9 37.9164 105.809 37.558C105.718 37.9229 105.62 38.2618 105.516 38.5745C105.418 38.8808 105.324 39.1479 105.232 39.376L103.708 43.696H107.92ZM112.846 49.0813H110.569C110.315 49.0813 110.106 49.0227 109.943 48.9054C109.787 48.7816 109.67 48.6252 109.592 48.4362L108.634 45.7289H102.984L102.027 48.4362C101.961 48.5991 101.847 48.749 101.685 48.8858C101.522 49.0161 101.316 49.0813 101.069 49.0813H98.772L104.314 34.8996H107.314L112.846 49.0813ZM125.409 37.2648H121.265V49.0813H118.323V37.2648H114.179V34.8996H125.409V37.2648ZM132.727 37.1964V40.842H137.457V43.0607H132.727V46.7845H138.806V49.0813H129.775V34.8996H138.806V37.1964H132.727ZM151.288 37.6167C151.197 37.7665 151.102 37.8773 151.005 37.949C150.914 38.0141 150.793 38.0467 150.643 38.0467C150.5 38.0467 150.343 37.9979 150.174 37.9001C150.011 37.7959 149.819 37.6851 149.597 37.5678C149.376 37.4505 149.122 37.343 148.835 37.2453C148.548 37.141 148.213 37.0889 147.828 37.0889C147.151 37.0889 146.642 37.242 146.304 37.5483C145.965 37.848 145.795 38.2422 145.795 38.7309C145.795 39.0437 145.887 39.3043 146.069 39.5128C146.258 39.7148 146.502 39.8907 146.802 40.0406C147.108 40.1904 147.454 40.324 147.838 40.4413C148.222 40.5586 148.617 40.6889 149.021 40.8322C149.425 40.9691 149.819 41.132 150.203 41.3209C150.588 41.5099 150.93 41.7477 151.23 42.0344C151.536 42.3211 151.78 42.673 151.963 43.09C152.152 43.5005 152.246 44.0022 152.246 44.5951C152.246 45.2402 152.132 45.8462 151.904 46.4131C151.682 46.9734 151.36 47.4654 150.936 47.8889C150.513 48.3059 149.988 48.635 149.363 48.876C148.744 49.1171 148.04 49.2377 147.252 49.2377C146.802 49.2377 146.352 49.1921 145.903 49.1008C145.46 49.0096 145.03 48.8826 144.613 48.7197C144.202 48.5568 143.815 48.3613 143.45 48.1332C143.085 47.9052 142.765 47.6511 142.492 47.3709L143.352 45.983C143.424 45.8788 143.518 45.7941 143.635 45.7289C143.753 45.6572 143.876 45.6214 144.007 45.6214C144.183 45.6214 144.368 45.6865 144.564 45.8169C144.759 45.9472 144.984 46.0905 145.238 46.2469C145.492 46.4033 145.786 46.5466 146.118 46.677C146.457 46.8073 146.861 46.8724 147.33 46.8724C148.014 46.8724 148.542 46.716 148.913 46.4033C149.291 46.0905 149.48 45.6246 149.48 45.0056C149.48 44.6473 149.386 44.3573 149.197 44.1358C149.014 43.9142 148.773 43.7285 148.473 43.5787C148.174 43.4288 147.832 43.3018 147.447 43.1975C147.063 43.0867 146.668 42.9662 146.264 42.8359C145.86 42.7056 145.466 42.5492 145.082 42.3667C144.697 42.1843 144.355 41.9432 144.056 41.6435C143.756 41.3437 143.512 40.9723 143.323 40.5293C143.14 40.0862 143.049 39.5356 143.049 38.8775C143.049 38.3497 143.153 37.8382 143.362 37.343C143.57 36.8478 143.876 36.408 144.28 36.0236C144.684 35.6391 145.18 35.3296 145.766 35.0951C146.359 34.8605 147.037 34.7432 147.799 34.7432C148.653 34.7432 149.441 34.8768 150.164 35.1439C150.894 35.4046 151.51 35.7694 152.011 36.2386L151.288 37.6167Z" fill="#BB86FC"/>
<path d="M650.036 37.8753L654.327 42.1663L646.768 49.726H642.477V45.4351L650.036 37.8753ZM660.096 34.9607L657.242 32.1068C657.148 32.012 657.036 31.9367 656.913 31.8853C656.789 31.8339 656.657 31.8075 656.523 31.8075C656.39 31.8075 656.257 31.8339 656.134 31.8853C656.011 31.9367 655.899 32.012 655.805 32.1068L652.89 35.0215L657.181 39.3124L660.096 36.3978C660.191 36.3037 660.266 36.1918 660.317 36.0685C660.369 35.9451 660.395 35.8129 660.395 35.6793C660.395 35.5457 660.369 35.4134 660.317 35.2901C660.266 35.1667 660.191 35.0548 660.096 34.9607V34.9607Z" fill="#D1D1D1" stroke="#D1D1D1" stroke-width="1.01202" stroke-linecap="round" stroke-linejoin="round"/>
</g>
<defs>
<clipPath id="clip0_1334_46865">
<rect width="700.453" height="325.792" fill="white" transform="translate(0.664062 0.8573)"/>
</clipPath>
</defs>
</svg>
