<svg width="327" height="327" viewBox="0 0 327 327" fill="none" xmlns="http://www.w3.org/2000/svg">
<g clip-path="url(#clip0_1334_46868)">
<rect x="2.76375" y="2.96138" width="320.905" height="320.905" rx="13.8462" fill="#323233"/>
<path d="M39.5414 62.8299V65.2147H31.1262V51.033H34.0584V62.8299H39.5414ZM46.8971 65.2147H43.9454V51.033H46.8971V65.2147ZM64.6182 51.033V65.2147H63.1033C62.8752 65.2147 62.683 65.1789 62.5266 65.1072C62.3702 65.029 62.2171 64.8987 62.0673 64.7163L55.0008 55.7244C55.0204 55.9525 55.0334 56.1773 55.0399 56.3988C55.053 56.6203 55.0595 56.8256 55.0595 57.0145V65.2147H52.4694V51.033H54.0137C54.1375 51.033 54.2417 51.0395 54.3264 51.0525C54.4177 51.0591 54.4991 51.0819 54.5708 51.121C54.6425 51.1535 54.7109 51.1992 54.776 51.2578C54.8412 51.3164 54.9129 51.3946 54.9911 51.4924L62.1063 60.5233C62.0803 60.2757 62.0607 60.0379 62.0477 59.8098C62.0347 59.5753 62.0282 59.3537 62.0282 59.1452V51.033H64.6182ZM73.1267 56.8875H73.7033C74.1855 56.8875 74.5341 56.7376 74.7491 56.4379L78.3361 51.639C78.5055 51.4109 78.6912 51.2545 78.8932 51.1698C79.0952 51.0786 79.3428 51.033 79.636 51.033H82.1772L77.6617 56.8484C77.3685 57.2263 77.0655 57.4967 76.7527 57.6596C76.9808 57.7508 77.186 57.8714 77.3685 58.0212C77.5509 58.1646 77.7268 58.3568 77.8963 58.5979L82.529 65.2147H79.9194C79.75 65.2147 79.6034 65.2017 79.4796 65.1756C79.3623 65.1496 79.2581 65.1137 79.1668 65.0681C79.0756 65.0225 78.9974 64.9671 78.9323 64.902C78.8671 64.8303 78.8052 64.7488 78.7466 64.6576L75.101 59.5557C74.9772 59.3798 74.8306 59.256 74.6611 59.1843C74.4917 59.1061 74.2539 59.067 73.9477 59.067H73.1267V65.2147H70.1945V51.033H73.1267V56.8875ZM94.0747 53.7501C93.9834 53.9 93.889 54.0107 93.7912 54.0824C93.7 54.1476 93.5795 54.1802 93.4296 54.1802C93.2863 54.1802 93.1299 54.1313 92.9605 54.0335C92.7976 53.9293 92.6053 53.8185 92.3838 53.7012C92.1623 53.584 91.9082 53.4764 91.6215 53.3787C91.3348 53.2744 90.9992 53.2223 90.6148 53.2223C89.9371 53.2223 89.4289 53.3754 89.0901 53.6817C88.7512 53.9814 88.5818 54.3756 88.5818 54.8643C88.5818 55.1771 88.673 55.4377 88.8555 55.6462C89.0444 55.8482 89.2888 56.0241 89.5885 56.174C89.8948 56.3239 90.2401 56.4574 90.6245 56.5747C91.009 56.692 91.4032 56.8223 91.8072 56.9657C92.2111 57.1025 92.6053 57.2654 92.9898 57.4544C93.3742 57.6433 93.7163 57.8811 94.016 58.1678C94.3223 58.4545 94.5666 58.8064 94.7491 59.2234C94.938 59.6339 95.0325 60.1356 95.0325 60.7286C95.0325 61.3736 94.9185 61.9796 94.6904 62.5465C94.4689 63.1068 94.1463 63.5988 93.7228 64.0223C93.2993 64.4393 92.7748 64.7684 92.1492 65.0095C91.5302 65.2506 90.8265 65.3711 90.0381 65.3711C89.5885 65.3711 89.1389 65.3255 88.6893 65.2343C88.2463 65.143 87.8162 65.016 87.3992 64.8531C86.9887 64.6902 86.601 64.4947 86.2361 64.2667C85.8712 64.0386 85.552 63.7845 85.2783 63.5043L86.1384 62.1164C86.2101 62.0122 86.3045 61.9275 86.4218 61.8623C86.5391 61.7906 86.6629 61.7548 86.7932 61.7548C86.9691 61.7548 87.1549 61.82 87.3503 61.9503C87.5458 62.0806 87.7706 62.224 88.0247 62.3803C88.2788 62.5367 88.572 62.6801 88.9044 62.8104C89.2432 62.9407 89.6472 63.0059 90.1163 63.0059C90.8005 63.0059 91.3282 62.8495 91.6996 62.5367C92.0776 62.224 92.2665 61.7581 92.2665 61.1391C92.2665 60.7807 92.172 60.4907 91.9831 60.2692C91.8006 60.0477 91.5596 59.862 91.2598 59.7121C90.9601 59.5622 90.618 59.4352 90.2336 59.3309C89.8491 59.2202 89.4549 59.0996 89.051 58.9693C88.647 58.839 88.2528 58.6826 87.8683 58.5002C87.4839 58.3177 87.1418 58.0766 86.8421 57.7769C86.5424 57.4772 86.298 57.1058 86.1091 56.6627C85.9266 56.2196 85.8354 55.669 85.8354 55.0109C85.8354 54.4831 85.9396 53.9716 86.1482 53.4764C86.3567 52.9812 86.6629 52.5414 87.0669 52.157C87.4709 51.7725 87.9661 51.463 88.5525 51.2285C89.1454 50.9939 89.8231 50.8766 90.5854 50.8766C91.439 50.8766 92.2274 51.0102 92.9507 51.2773C93.6805 51.538 94.2962 51.9029 94.7979 52.372L94.0747 53.7501Z" fill="#BB86FC"/>
<path d="M275.029 54.0089L279.319 58.2998L271.76 65.8596H267.469V61.5686L275.029 54.0089ZM285.088 51.0943L282.234 48.2404C282.14 48.1455 282.028 48.0702 281.905 48.0189C281.781 47.9675 281.649 47.941 281.516 47.941C281.382 47.941 281.25 47.9675 281.126 48.0189C281.003 48.0702 280.891 48.1455 280.797 48.2404L277.882 51.155L282.173 55.4459L285.088 52.5313C285.183 52.4373 285.258 52.3253 285.309 52.202C285.361 52.0787 285.387 51.9464 285.387 51.8128C285.387 51.6792 285.361 51.5469 285.309 51.4236C285.258 51.3003 285.183 51.1884 285.088 51.0943Z" fill="#D1D1D1" stroke="#D1D1D1" stroke-width="1.01202" stroke-linecap="round" stroke-linejoin="round"/>
<path d="M70.3675 114.939C70.3675 117.638 68.1796 119.826 65.4806 119.826C62.7817 119.826 60.5938 117.638 60.5938 114.939C60.5938 112.24 62.7817 110.052 65.4806 110.052C68.1796 110.052 70.3675 112.24 70.3675 114.939Z" fill="#D1D1D1"/>
<path d="M107.787 121.58V123.439H98.5164V107.099H100.717V121.58H107.787ZM111.651 111.888V123.439H109.622V111.888H111.651ZM112.085 108.262C112.085 108.459 112.043 108.646 111.959 108.82C111.883 108.988 111.777 109.14 111.64 109.277C111.511 109.406 111.355 109.508 111.172 109.584C110.998 109.66 110.811 109.698 110.614 109.698C110.416 109.698 110.23 109.66 110.055 109.584C109.888 109.508 109.739 109.406 109.61 109.277C109.481 109.14 109.378 108.988 109.302 108.82C109.226 108.646 109.188 108.459 109.188 108.262C109.188 108.064 109.226 107.878 109.302 107.703C109.378 107.521 109.481 107.365 109.61 107.235C109.739 107.099 109.888 106.992 110.055 106.916C110.23 106.84 110.416 106.802 110.614 106.802C110.811 106.802 110.998 106.84 111.172 106.916C111.355 106.992 111.511 107.099 111.64 107.235C111.777 107.365 111.883 107.521 111.959 107.703C112.043 107.878 112.085 108.064 112.085 108.262ZM116.658 113.564C116.908 113.283 117.175 113.028 117.456 112.8C117.737 112.572 118.034 112.378 118.345 112.218C118.664 112.051 118.999 111.926 119.349 111.842C119.706 111.751 120.09 111.705 120.5 111.705C121.131 111.705 121.686 111.812 122.165 112.025C122.652 112.23 123.055 112.526 123.374 112.914C123.701 113.294 123.948 113.754 124.115 114.294C124.282 114.833 124.366 115.43 124.366 116.084V123.439H122.325V116.084C122.325 115.21 122.123 114.533 121.72 114.054C121.325 113.568 120.721 113.325 119.907 113.325C119.307 113.325 118.744 113.469 118.22 113.758C117.703 114.047 117.224 114.438 116.783 114.932V123.439H114.742V111.888H115.962C116.251 111.888 116.43 112.028 116.498 112.31L116.658 113.564ZM129.255 106.643V116.529H129.78C129.932 116.529 130.057 116.51 130.156 116.472C130.263 116.426 130.373 116.339 130.487 116.209L134.136 112.298C134.242 112.169 134.352 112.07 134.466 112.002C134.588 111.926 134.748 111.888 134.945 111.888H136.781L132.528 116.415C132.323 116.673 132.102 116.875 131.867 117.019C132.003 117.11 132.125 117.217 132.231 117.338C132.346 117.452 132.452 117.585 132.551 117.737L137.066 123.439H135.253C135.078 123.439 134.926 123.412 134.797 123.359C134.675 123.298 134.569 123.192 134.478 123.04L130.681 118.307C130.567 118.148 130.453 118.045 130.339 118C130.232 117.946 130.065 117.92 129.837 117.92H129.255V123.439H127.214V106.643H129.255ZM154.142 121.888V123.439H145.384V121.888H148.885V110.747C148.885 110.413 148.896 110.075 148.919 109.733L146.012 112.23C145.913 112.313 145.814 112.367 145.715 112.389C145.616 112.405 145.525 112.405 145.441 112.389C145.358 112.374 145.278 112.344 145.202 112.298C145.134 112.253 145.08 112.203 145.042 112.15L144.404 111.272L149.273 107.064H150.926V121.888H154.142Z" fill="#D1D1D1"/>
<path d="M70.3675 185.405C70.3675 188.104 68.1796 190.292 65.4806 190.292C62.7817 190.292 60.5938 188.104 60.5938 185.405C60.5938 182.706 62.7817 180.518 65.4806 180.518C68.1796 180.518 70.3675 182.706 70.3675 185.405Z" fill="#D1D1D1"/>
<path d="M107.787 192.046V193.905H98.5164V177.565H100.717V192.046H107.787ZM111.651 182.354V193.905H109.622V182.354H111.651ZM112.085 178.728C112.085 178.925 112.043 179.112 111.959 179.287C111.883 179.454 111.777 179.606 111.64 179.743C111.511 179.872 111.355 179.974 111.172 180.05C110.998 180.127 110.811 180.165 110.614 180.165C110.416 180.165 110.23 180.127 110.055 180.05C109.888 179.974 109.739 179.872 109.61 179.743C109.481 179.606 109.378 179.454 109.302 179.287C109.226 179.112 109.188 178.925 109.188 178.728C109.188 178.53 109.226 178.344 109.302 178.169C109.378 177.987 109.481 177.831 109.61 177.702C109.739 177.565 109.888 177.458 110.055 177.382C110.23 177.306 110.416 177.268 110.614 177.268C110.811 177.268 110.998 177.306 111.172 177.382C111.355 177.458 111.511 177.565 111.64 177.702C111.777 177.831 111.883 177.987 111.959 178.169C112.043 178.344 112.085 178.53 112.085 178.728ZM116.658 184.03C116.908 183.749 117.175 183.494 117.456 183.266C117.737 183.038 118.034 182.844 118.345 182.685C118.664 182.517 118.999 182.392 119.349 182.308C119.706 182.217 120.09 182.171 120.5 182.171C121.131 182.171 121.686 182.278 122.165 182.491C122.652 182.696 123.055 182.992 123.374 183.38C123.701 183.76 123.948 184.22 124.115 184.76C124.282 185.3 124.366 185.896 124.366 186.55V193.905H122.325V186.55C122.325 185.676 122.123 184.999 121.72 184.52C121.325 184.034 120.721 183.791 119.907 183.791C119.307 183.791 118.744 183.935 118.22 184.224C117.703 184.513 117.224 184.904 116.783 185.398V193.905H114.742V182.354H115.962C116.251 182.354 116.43 182.494 116.498 182.776L116.658 184.03ZM129.255 177.109V186.995H129.78C129.932 186.995 130.057 186.976 130.156 186.938C130.263 186.892 130.373 186.805 130.487 186.675L134.136 182.764C134.242 182.635 134.352 182.536 134.466 182.468C134.588 182.392 134.748 182.354 134.945 182.354H136.781L132.528 186.881C132.323 187.139 132.102 187.341 131.867 187.485C132.003 187.576 132.125 187.683 132.231 187.804C132.346 187.918 132.452 188.051 132.551 188.203L137.066 193.905H135.253C135.078 193.905 134.926 193.878 134.797 193.825C134.675 193.764 134.569 193.658 134.478 193.506L130.681 188.774C130.567 188.614 130.453 188.511 130.339 188.466C130.232 188.412 130.065 188.386 129.837 188.386H129.255V193.905H127.214V177.109H129.255ZM153.788 191.978C154.009 191.978 154.183 192.042 154.313 192.172C154.442 192.301 154.507 192.468 154.507 192.673V193.905H143.606V193.209C143.606 193.065 143.636 192.917 143.697 192.765C143.758 192.612 143.853 192.472 143.982 192.343L149.216 187.086C149.649 186.645 150.044 186.223 150.402 185.82C150.759 185.41 151.063 184.999 151.314 184.589C151.565 184.178 151.758 183.764 151.895 183.346C152.032 182.92 152.101 182.468 152.101 181.989C152.101 181.51 152.025 181.092 151.873 180.735C151.72 180.37 151.511 180.069 151.245 179.834C150.987 179.598 150.679 179.423 150.322 179.309C149.964 179.188 149.581 179.127 149.17 179.127C148.752 179.127 148.368 179.188 148.018 179.309C147.669 179.431 147.357 179.602 147.083 179.822C146.817 180.035 146.593 180.29 146.411 180.586C146.228 180.883 146.099 181.21 146.023 181.567C145.932 181.833 145.806 182.012 145.647 182.103C145.495 182.187 145.278 182.209 144.997 182.171L143.936 181.989C144.043 181.244 144.248 180.586 144.552 180.016C144.864 179.439 145.251 178.956 145.715 178.568C146.186 178.18 146.722 177.888 147.323 177.69C147.923 177.485 148.573 177.382 149.273 177.382C149.964 177.382 150.611 177.485 151.211 177.69C151.812 177.895 152.332 178.196 152.773 178.591C153.214 178.979 153.56 179.454 153.811 180.016C154.062 180.579 154.187 181.217 154.187 181.932C154.187 182.54 154.096 183.106 153.914 183.631C153.731 184.148 153.484 184.642 153.172 185.113C152.861 185.585 152.5 186.045 152.089 186.493C151.686 186.942 151.257 187.394 150.801 187.85L146.49 192.251C146.795 192.168 147.102 192.103 147.414 192.058C147.726 192.004 148.026 191.978 148.315 191.978H153.788Z" fill="#D1D1D1"/>
<path d="M70.3675 255.871C70.3675 258.57 68.1796 260.758 65.4806 260.758C62.7817 260.758 60.5938 258.57 60.5938 255.871C60.5938 253.172 62.7817 250.984 65.4806 250.984C68.1796 250.984 70.3675 253.172 70.3675 255.871Z" fill="#D1D1D1"/>
<path d="M107.787 262.512V264.371H98.5164V248.031H100.717V262.512H107.787ZM111.651 252.82V264.371H109.622V252.82H111.651ZM112.085 249.194C112.085 249.391 112.043 249.578 111.959 249.753C111.883 249.92 111.777 250.072 111.64 250.209C111.511 250.338 111.355 250.441 111.172 250.517C110.998 250.593 110.811 250.631 110.614 250.631C110.416 250.631 110.23 250.593 110.055 250.517C109.888 250.441 109.739 250.338 109.61 250.209C109.481 250.072 109.378 249.92 109.302 249.753C109.226 249.578 109.188 249.391 109.188 249.194C109.188 248.996 109.226 248.81 109.302 248.635C109.378 248.453 109.481 248.297 109.61 248.168C109.739 248.031 109.888 247.924 110.055 247.848C110.23 247.772 110.416 247.734 110.614 247.734C110.811 247.734 110.998 247.772 111.172 247.848C111.355 247.924 111.511 248.031 111.64 248.168C111.777 248.297 111.883 248.453 111.959 248.635C112.043 248.81 112.085 248.996 112.085 249.194ZM116.658 254.496C116.908 254.215 117.175 253.96 117.456 253.732C117.737 253.504 118.034 253.31 118.345 253.151C118.664 252.983 118.999 252.858 119.349 252.774C119.706 252.683 120.09 252.637 120.5 252.637C121.131 252.637 121.686 252.744 122.165 252.957C122.652 253.162 123.055 253.458 123.374 253.846C123.701 254.226 123.948 254.686 124.115 255.226C124.282 255.766 124.366 256.362 124.366 257.016V264.371H122.325V257.016C122.325 256.142 122.123 255.465 121.72 254.986C121.325 254.5 120.721 254.257 119.907 254.257C119.307 254.257 118.744 254.401 118.22 254.69C117.703 254.979 117.224 255.37 116.783 255.864V264.371H114.742V252.82H115.962C116.251 252.82 116.43 252.961 116.498 253.242L116.658 254.496ZM129.255 247.575V257.461H129.78C129.932 257.461 130.057 257.442 130.156 257.404C130.263 257.358 130.373 257.271 130.487 257.142L134.136 253.23C134.242 253.101 134.352 253.002 134.466 252.934C134.588 252.858 134.748 252.82 134.945 252.82H136.781L132.528 257.347C132.323 257.605 132.102 257.807 131.867 257.951C132.003 258.042 132.125 258.149 132.231 258.27C132.346 258.384 132.452 258.517 132.551 258.669L137.066 264.371H135.253C135.078 264.371 134.926 264.344 134.797 264.291C134.675 264.23 134.569 264.124 134.478 263.972L130.681 259.24C130.567 259.08 130.453 258.977 130.339 258.932C130.232 258.879 130.065 258.852 129.837 258.852H129.255V264.371H127.214V247.575H129.255ZM144.016 252.455C144.122 251.71 144.328 251.052 144.632 250.482C144.936 249.905 145.32 249.422 145.783 249.034C146.255 248.647 146.791 248.354 147.391 248.156C147.999 247.951 148.653 247.848 149.353 247.848C150.044 247.848 150.683 247.947 151.268 248.145C151.854 248.342 152.355 248.624 152.773 248.989C153.199 249.353 153.53 249.794 153.765 250.311C154.001 250.828 154.119 251.402 154.119 252.033C154.119 252.55 154.05 253.014 153.914 253.424C153.784 253.827 153.594 254.181 153.343 254.485C153.1 254.789 152.804 255.047 152.454 255.26C152.104 255.473 151.713 255.648 151.28 255.785C152.344 256.058 153.142 256.53 153.674 257.199C154.214 257.86 154.484 258.688 154.484 259.684C154.484 260.437 154.339 261.113 154.05 261.714C153.769 262.315 153.381 262.828 152.887 263.253C152.393 263.671 151.815 263.995 151.154 264.223C150.5 264.443 149.797 264.553 149.045 264.553C148.178 264.553 147.437 264.447 146.821 264.234C146.205 264.014 145.685 263.713 145.259 263.333C144.833 262.953 144.484 262.505 144.21 261.988C143.936 261.463 143.704 260.897 143.514 260.289L144.392 259.924C144.62 259.825 144.841 259.798 145.054 259.844C145.274 259.89 145.434 260.015 145.533 260.22C145.631 260.433 145.753 260.688 145.897 260.984C146.05 261.281 146.255 261.566 146.513 261.839C146.772 262.113 147.099 262.345 147.494 262.535C147.897 262.725 148.406 262.82 149.022 262.82C149.592 262.82 150.09 262.729 150.516 262.546C150.949 262.356 151.306 262.113 151.587 261.817C151.876 261.52 152.093 261.189 152.237 260.825C152.382 260.46 152.454 260.099 152.454 259.741C152.454 259.3 152.397 258.898 152.283 258.533C152.169 258.168 151.956 257.852 151.644 257.586C151.333 257.32 150.903 257.111 150.356 256.959C149.816 256.807 149.121 256.731 148.269 256.731V255.26C148.969 255.252 149.562 255.176 150.048 255.032C150.542 254.888 150.941 254.69 151.245 254.439C151.557 254.188 151.781 253.888 151.918 253.538C152.063 253.189 152.135 252.801 152.135 252.375C152.135 251.904 152.059 251.493 151.907 251.144C151.762 250.794 151.561 250.505 151.302 250.277C151.044 250.049 150.736 249.878 150.379 249.764C150.029 249.65 149.649 249.593 149.238 249.593C148.828 249.593 148.444 249.654 148.087 249.775C147.737 249.897 147.425 250.068 147.152 250.288C146.886 250.501 146.661 250.756 146.479 251.052C146.297 251.349 146.167 251.676 146.091 252.033C145.993 252.299 145.867 252.478 145.715 252.569C145.571 252.653 145.358 252.675 145.076 252.637L144.016 252.455Z" fill="#D1D1D1"/>
<rect x="2.76375" y="2.96138" width="320.905" height="320.905" rx="13.8462" stroke="#292929" stroke-width="4.88688"/>
</g>
<defs>
<clipPath id="clip0_1334_46868">
<rect x="0.320312" y="0.517944" width="325.792" height="325.792" rx="16.2896" fill="white"/>
</clipPath>
</defs>
</svg>
