<svg width="701" height="327" viewBox="0 0 701 327" fill="none" xmlns="http://www.w3.org/2000/svg">
<g clip-path="url(#clip0_1334_46867)">
<path d="M2.44344 16.8075C2.44344 9.16051 8.64257 2.96138 16.2896 2.96138H684.163C691.81 2.96138 698.009 9.16052 698.009 16.8075V310.02C698.009 317.667 691.81 323.866 684.163 323.866H16.2896C8.64258 323.866 2.44344 317.667 2.44344 310.02V16.8075Z" fill="#323233" stroke="#292929" stroke-width="4.88688"/>
<path d="M46.4439 31.3023V45.484H43.8539V36.7756C43.8539 36.5931 43.8571 36.3977 43.8637 36.1892C43.8767 35.9807 43.8962 35.7689 43.9223 35.5539L39.8662 43.2458C39.6447 43.6693 39.3026 43.8811 38.84 43.8811H38.4295C38.2014 43.8811 37.9994 43.829 37.8235 43.7247C37.6476 43.614 37.5075 43.4543 37.4032 43.2458L33.3276 35.5246C33.3471 35.7526 33.3634 35.9741 33.3764 36.1892C33.3895 36.3977 33.396 36.5931 33.396 36.7756V45.484H30.8059V31.3023H33.0343C33.1581 31.3023 33.2689 31.3055 33.3666 31.3121C33.4644 31.3186 33.5491 31.3381 33.6208 31.3707C33.699 31.3968 33.7674 31.4424 33.826 31.5075C33.8912 31.5662 33.9531 31.6509 34.0117 31.7617L37.9799 39.3265C38.1037 39.5546 38.2177 39.7892 38.3219 40.0303C38.4327 40.2713 38.537 40.5189 38.6347 40.7731C38.7324 40.5124 38.8334 40.2583 38.9377 40.0107C39.0485 39.7631 39.1657 39.5253 39.2895 39.2972L43.2284 31.7617C43.287 31.6509 43.3489 31.5662 43.4141 31.5075C43.4792 31.4424 43.5476 31.3968 43.6193 31.3707C43.6975 31.3381 43.7822 31.3186 43.8734 31.3121C43.9712 31.3055 44.0852 31.3023 44.2155 31.3023H46.4439ZM54.957 33.5991V37.2447H59.6875V39.4634H54.957V43.1872H61.0363V45.484H52.0053V31.3023H61.0363V33.5991H54.957ZM68.7879 33.5991V37.2447H73.5184V39.4634H68.7879V43.1872H74.8671V45.484H65.8362V31.3023H74.8671V33.5991H68.7879ZM89.7047 33.6675H85.5606V45.484H82.6187V33.6675H78.4747V31.3023H89.7047V33.6675ZM97.0223 45.484H94.0706V31.3023H97.0223V45.484ZM114.743 31.3023V45.484H113.229C113 45.484 112.808 45.4482 112.652 45.3765C112.495 45.2983 112.342 45.168 112.193 44.9855L105.126 35.9937C105.146 36.2217 105.159 36.4465 105.165 36.6681C105.178 36.8896 105.185 37.0949 105.185 37.2838V45.484H102.595V31.3023H104.139C104.263 31.3023 104.367 31.3088 104.452 31.3218C104.543 31.3284 104.624 31.3512 104.696 31.3903C104.768 31.4228 104.836 31.4684 104.901 31.5271C104.966 31.5857 105.038 31.6639 105.116 31.7617L112.232 40.7926C112.206 40.545 112.186 40.3072 112.173 40.0791C112.16 39.8446 112.153 39.623 112.153 39.4145V31.3023H114.743ZM127.22 38.2612H132.087V44.1157C131.364 44.6435 130.592 45.0312 129.771 45.2788C128.957 45.5198 128.093 45.6404 127.181 45.6404C126.015 45.6404 124.959 45.4612 124.014 45.1028C123.069 44.7379 122.262 44.233 121.59 43.5879C120.919 42.9428 120.401 42.1772 120.036 41.2911C119.671 40.4049 119.489 39.4373 119.489 38.3883C119.489 37.3262 119.662 36.3521 120.007 35.4659C120.359 34.5798 120.857 33.8174 121.502 33.1788C122.147 32.5403 122.926 32.0418 123.838 31.6835C124.757 31.3251 125.783 31.1459 126.917 31.1459C127.503 31.1459 128.051 31.1948 128.559 31.2925C129.067 31.3837 129.536 31.5141 129.966 31.6835C130.397 31.8464 130.791 32.0418 131.149 32.2699C131.507 32.4979 131.833 32.7488 132.126 33.0225L131.276 34.3322C131.146 34.5407 130.976 34.6677 130.768 34.7133C130.559 34.7589 130.331 34.7068 130.084 34.5569C129.849 34.4136 129.618 34.2865 129.39 34.1758C129.168 34.0585 128.93 33.9575 128.676 33.8728C128.422 33.7881 128.145 33.7229 127.846 33.6773C127.546 33.6317 127.201 33.6089 126.81 33.6089C126.151 33.6089 125.555 33.7229 125.021 33.951C124.487 34.179 124.031 34.5016 123.653 34.9186C123.281 35.3356 122.995 35.8373 122.793 36.4237C122.591 37.0102 122.49 37.665 122.49 38.3883C122.49 39.1702 122.6 39.8706 122.822 40.4896C123.043 41.1021 123.356 41.6201 123.76 42.0436C124.164 42.4672 124.646 42.7897 125.207 43.0112C125.774 43.2328 126.402 43.3436 127.093 43.3436C127.562 43.3436 127.979 43.2979 128.344 43.2067C128.715 43.109 129.077 42.9787 129.429 42.8158V40.431H127.826C127.637 40.431 127.487 40.3821 127.376 40.2844C127.272 40.1801 127.22 40.0498 127.22 39.8934V38.2612ZM157.051 38.3883C157.051 39.4243 156.875 40.3788 156.523 41.252C156.178 42.1186 155.686 42.8646 155.048 43.4902C154.415 44.1157 153.653 44.6044 152.76 44.9562C151.868 45.3081 150.877 45.484 149.789 45.484H144.335V31.3023H149.789C150.877 31.3023 151.868 31.4782 152.76 31.8301C153.653 32.1819 154.415 32.6739 155.048 33.3059C155.686 33.9314 156.178 34.6775 156.523 35.5441C156.875 36.4107 157.051 37.3588 157.051 38.3883ZM154.041 38.3883C154.041 37.6455 153.943 36.9776 153.748 36.3846C153.552 35.7917 153.272 35.29 152.907 34.8795C152.542 34.469 152.096 34.153 151.568 33.9314C151.047 33.7099 150.454 33.5991 149.789 33.5991H147.287V43.1872H149.789C150.454 43.1872 151.047 43.0797 151.568 42.8646C152.096 42.6431 152.542 42.3271 152.907 41.9166C153.272 41.4996 153.552 40.9946 153.748 40.4017C153.943 39.8087 154.041 39.1376 154.041 38.3883ZM164.764 33.5991V37.2447H169.495V39.4634H164.764V43.1872H170.843V45.484H161.812V31.3023H170.843V33.5991H164.764ZM185.681 33.6675H181.537V45.484H178.595V33.6675H174.451V31.3023H185.681V33.6675ZM196.14 40.0987L194.606 35.7591C194.514 35.5311 194.417 35.2639 194.312 34.9577C194.215 34.6514 194.12 34.3191 194.029 33.9608C193.938 34.3256 193.84 34.6645 193.736 34.9772C193.638 35.2835 193.543 35.5506 193.452 35.7787L191.928 40.0987H196.14ZM201.066 45.484H198.789C198.535 45.484 198.326 45.4254 198.163 45.3081C198.007 45.1843 197.89 45.0279 197.811 44.8389L196.854 42.1316H191.204L190.246 44.8389C190.181 45.0018 190.067 45.1517 189.904 45.2885C189.741 45.4189 189.536 45.484 189.289 45.484H186.992L192.534 31.3023H195.534L201.066 45.484ZM207.937 45.484H204.985V31.3023H207.937V45.484ZM221.924 43.0992V45.484H213.509V31.3023H216.441V43.0992H221.924ZM234.01 34.0194C233.919 34.1693 233.825 34.28 233.727 34.3517C233.636 34.4169 233.515 34.4494 233.365 34.4494C233.222 34.4494 233.066 34.4006 232.896 34.3028C232.733 34.1986 232.541 34.0878 232.319 33.9705C232.098 33.8532 231.844 33.7457 231.557 33.648C231.27 33.5437 230.935 33.4916 230.55 33.4916C229.873 33.4916 229.365 33.6447 229.026 33.951C228.687 34.2507 228.517 34.6449 228.517 35.1336C228.517 35.4464 228.609 35.707 228.791 35.9155C228.98 36.1175 229.224 36.2934 229.524 36.4433C229.83 36.5931 230.176 36.7267 230.56 36.844C230.945 36.9613 231.339 37.0916 231.743 37.235C232.147 37.3718 232.541 37.5347 232.925 37.7236C233.31 37.9126 233.652 38.1504 233.952 38.4371C234.258 38.7238 234.502 39.0757 234.685 39.4927C234.874 39.9032 234.968 40.4049 234.968 40.9979C234.968 41.6429 234.854 42.2489 234.626 42.8158C234.405 43.3761 234.082 43.8681 233.658 44.2916C233.235 44.7086 232.71 45.0377 232.085 45.2788C231.466 45.5198 230.762 45.6404 229.974 45.6404C229.524 45.6404 229.075 45.5948 228.625 45.5036C228.182 45.4123 227.752 45.2853 227.335 45.1224C226.924 44.9595 226.537 44.764 226.172 44.536C225.807 44.3079 225.488 44.0538 225.214 43.7736L226.074 42.3857C226.146 42.2815 226.24 42.1968 226.357 42.1316C226.475 42.0599 226.599 42.0241 226.729 42.0241C226.905 42.0241 227.09 42.0893 227.286 42.2196C227.481 42.3499 227.706 42.4932 227.96 42.6496C228.214 42.806 228.508 42.9493 228.84 43.0797C229.179 43.21 229.583 43.2751 230.052 43.2751C230.736 43.2751 231.264 43.1188 231.635 42.806C232.013 42.4932 232.202 42.0274 232.202 41.4084C232.202 41.05 232.108 40.76 231.919 40.5385C231.736 40.3169 231.495 40.1312 231.195 39.9814C230.896 39.8315 230.554 39.7045 230.169 39.6002C229.785 39.4894 229.391 39.3689 228.987 39.2386C228.583 39.1083 228.188 38.9519 227.804 38.7694C227.42 38.587 227.077 38.3459 226.778 38.0462C226.478 37.7465 226.234 37.375 226.045 36.932C225.862 36.4889 225.771 35.9383 225.771 35.2802C225.771 34.7524 225.875 34.2409 226.084 33.7457C226.292 33.2505 226.599 32.8107 227.003 32.4263C227.407 32.0418 227.902 31.7323 228.488 31.4978C229.081 31.2632 229.759 31.1459 230.521 31.1459C231.375 31.1459 232.163 31.2795 232.886 31.5466C233.616 31.8073 234.232 32.1722 234.734 32.6413L234.01 34.0194Z" fill="#BB86FC"/>
<path d="M651.122 34.278L655.413 38.569L647.853 46.1288H643.562V41.8378L651.122 34.278ZM661.182 31.3634L658.328 28.5096C658.234 28.4147 658.122 28.3394 657.998 28.288C657.875 28.2367 657.743 28.2102 657.609 28.2102C657.476 28.2102 657.343 28.2367 657.22 28.288C657.097 28.3394 656.985 28.4147 656.891 28.5096L653.976 31.4242L658.267 35.7151L661.182 32.8005C661.277 32.7064 661.352 32.5945 661.403 32.4712C661.455 32.3478 661.481 32.2156 661.481 32.082C661.481 31.9484 661.455 31.8161 661.403 31.6928C661.352 31.5695 661.277 31.4575 661.182 31.3634Z" fill="#D1D1D1" stroke="#D1D1D1" stroke-width="1.01202" stroke-linecap="round" stroke-linejoin="round"/>
<path d="M46.2125 195.295V209.477H44.6976C44.4695 209.477 44.2773 209.441 44.1209 209.37C43.9646 209.291 43.8114 209.161 43.6616 208.979L36.5951 199.987C36.6147 200.215 36.6277 200.44 36.6342 200.661C36.6473 200.883 36.6538 201.088 36.6538 201.277V209.477H34.0637V195.295H35.608C35.7318 195.295 35.836 195.302 35.9207 195.315C36.012 195.322 36.0934 195.344 36.1651 195.383C36.2368 195.416 36.3052 195.462 36.3703 195.52C36.4355 195.579 36.5072 195.657 36.5854 195.755L43.7007 204.786C43.6746 204.538 43.655 204.3 43.642 204.072C43.629 203.838 43.6225 203.616 43.6225 203.408V195.295H46.2125ZM54.7405 197.592V201.238H59.471V203.457H54.7405V207.18H60.8198V209.477H51.7889V195.295H60.8198V197.592H54.7405ZM77.4362 209.477H74.5041C74.3086 209.477 74.149 209.428 74.0252 209.331C73.9079 209.233 73.8134 209.119 73.7417 208.988L70.6728 203.769C70.6402 203.841 70.6076 203.913 70.575 203.984C70.549 204.049 70.5164 204.111 70.4773 204.17L67.5647 208.988C67.48 209.112 67.379 209.226 67.2617 209.331C67.151 209.428 67.0076 209.477 66.8317 209.477H64.095L68.7376 202.176L64.271 195.295H67.2031C67.3986 195.295 67.5419 195.322 67.6331 195.374C67.7243 195.426 67.8058 195.51 67.8775 195.628L70.9269 200.642C70.9595 200.564 70.9953 200.485 71.0344 200.407C71.0735 200.322 71.1191 200.238 71.1712 200.153L73.9079 195.677C73.9861 195.546 74.0708 195.452 74.162 195.393C74.2597 195.328 74.377 195.295 74.5139 195.295H77.3189L72.8132 202.049L77.4362 209.477ZM91.5499 197.661H87.4058V209.477H84.4639V197.661H80.3199V195.295H91.5499V197.661ZM118.207 195.295V209.477H115.617V200.769C115.617 200.586 115.62 200.391 115.627 200.182C115.64 199.974 115.659 199.762 115.685 199.547L111.629 207.239C111.408 207.663 111.066 207.874 110.603 207.874H110.193C109.965 207.874 109.763 207.822 109.587 207.718C109.411 207.607 109.271 207.447 109.166 207.239L105.091 199.518C105.11 199.746 105.127 199.967 105.14 200.182C105.153 200.391 105.159 200.586 105.159 200.769V209.477H102.569V195.295H104.798C104.921 195.295 105.032 195.299 105.13 195.305C105.228 195.312 105.312 195.331 105.384 195.364C105.462 195.39 105.531 195.436 105.589 195.501C105.654 195.559 105.716 195.644 105.775 195.755L109.743 203.32C109.867 203.548 109.981 203.782 110.085 204.023C110.196 204.265 110.3 204.512 110.398 204.766C110.496 204.506 110.597 204.251 110.701 204.004C110.812 203.756 110.929 203.518 111.053 203.29L114.992 195.755C115.05 195.644 115.112 195.559 115.177 195.501C115.242 195.436 115.311 195.39 115.383 195.364C115.461 195.331 115.545 195.312 115.637 195.305C115.734 195.299 115.848 195.295 115.979 195.295H118.207ZM126.72 197.592V201.238H131.451V203.457H126.72V207.18H132.799V209.477H123.768V195.295H132.799V197.592H126.72ZM140.551 197.592V201.238H145.282V203.457H140.551V207.18H146.63V209.477H137.599V195.295H146.63V197.592H140.551ZM161.468 197.661H157.324V209.477H154.382V197.661H150.238V195.295H161.468V197.661ZM168.785 209.477H165.834V195.295H168.785V209.477ZM186.507 195.295V209.477H184.992C184.764 209.477 184.571 209.441 184.415 209.37C184.259 209.291 184.106 209.161 183.956 208.979L176.889 199.987C176.909 200.215 176.922 200.44 176.928 200.661C176.941 200.883 176.948 201.088 176.948 201.277V209.477H174.358V195.295H175.902C176.026 195.295 176.13 195.302 176.215 195.315C176.306 195.322 176.388 195.344 176.459 195.383C176.531 195.416 176.599 195.462 176.664 195.52C176.73 195.579 176.801 195.657 176.879 195.755L183.995 204.786C183.969 204.538 183.949 204.3 183.936 204.072C183.923 203.838 183.917 203.616 183.917 203.408V195.295H186.507ZM198.983 202.254H203.851V208.109C203.127 208.637 202.355 209.024 201.534 209.272C200.72 209.513 199.856 209.634 198.944 209.634C197.778 209.634 196.722 209.454 195.777 209.096C194.833 208.731 194.025 208.226 193.354 207.581C192.682 206.936 192.164 206.17 191.8 205.284C191.435 204.398 191.252 203.43 191.252 202.381C191.252 201.319 191.425 200.345 191.77 199.459C192.122 198.573 192.621 197.811 193.266 197.172C193.911 196.533 194.689 196.035 195.602 195.677C196.52 195.318 197.547 195.139 198.68 195.139C199.267 195.139 199.814 195.188 200.322 195.286C200.83 195.377 201.3 195.507 201.73 195.677C202.16 195.84 202.554 196.035 202.912 196.263C203.271 196.491 203.596 196.742 203.89 197.016L203.039 198.325C202.909 198.534 202.74 198.661 202.531 198.706C202.323 198.752 202.095 198.7 201.847 198.55C201.612 198.407 201.381 198.28 201.153 198.169C200.931 198.052 200.694 197.951 200.44 197.866C200.185 197.781 199.908 197.716 199.609 197.67C199.309 197.625 198.964 197.602 198.573 197.602C197.915 197.602 197.318 197.716 196.784 197.944C196.25 198.172 195.794 198.495 195.416 198.912C195.044 199.329 194.758 199.83 194.556 200.417C194.354 201.003 194.253 201.658 194.253 202.381C194.253 203.163 194.364 203.864 194.585 204.483C194.807 205.095 195.119 205.613 195.523 206.037C195.927 206.46 196.409 206.783 196.97 207.004C197.537 207.226 198.166 207.337 198.856 207.337C199.325 207.337 199.742 207.291 200.107 207.2C200.479 207.102 200.84 206.972 201.192 206.809V204.424H199.589C199.4 204.424 199.25 204.375 199.14 204.278C199.035 204.173 198.983 204.043 198.983 203.887V202.254Z" fill="#BB86FC"/>
<path d="M65.1644 83.8052C65.1644 86.5042 62.9765 88.6921 60.2775 88.6921C57.5786 88.6921 55.3906 86.5042 55.3906 83.8052C55.3906 81.1063 57.5786 78.9183 60.2775 78.9183C62.9765 78.9183 65.1644 81.1063 65.1644 83.8052Z" fill="#D1D1D1"/>
<path d="M107.475 84.1408C107.475 85.3647 107.282 86.4784 106.894 87.4818C106.506 88.4853 105.959 89.3443 105.252 90.0588C104.545 90.7734 103.694 91.3283 102.698 91.7236C101.709 92.1113 100.615 92.3052 99.4137 92.3052H93.3133V75.9651H99.4137C100.615 75.9651 101.709 76.1627 102.698 76.558C103.694 76.9457 104.545 77.5007 105.252 78.2228C105.959 78.9374 106.506 79.7964 106.894 80.7998C107.282 81.8033 107.475 82.9169 107.475 84.1408ZM105.206 84.1408C105.206 83.1374 105.069 82.2404 104.796 81.4498C104.522 80.6592 104.134 79.9902 103.633 79.4429C103.131 78.8956 102.523 78.4775 101.808 78.1886C101.094 77.8997 100.296 77.7553 99.4137 77.7553H95.5254V90.5149H99.4137C100.296 90.5149 101.094 90.3705 101.808 90.0816C102.523 89.7928 103.131 89.3785 103.633 88.8388C104.134 88.2914 104.522 87.6225 104.796 86.8319C105.069 86.0413 105.206 85.1443 105.206 84.1408ZM115.91 87.1055C114.975 87.1359 114.176 87.212 113.515 87.3336C112.861 87.4476 112.325 87.5997 111.907 87.7897C111.497 87.9797 111.196 88.204 111.006 88.4625C110.824 88.7209 110.733 89.0098 110.733 89.3291C110.733 89.6331 110.782 89.8954 110.881 90.1159C110.98 90.3363 111.113 90.5188 111.28 90.6632C111.455 90.8 111.656 90.9026 111.884 90.9711C112.12 91.0319 112.371 91.0623 112.637 91.0623C112.994 91.0623 113.321 91.0281 113.618 90.9597C113.914 90.8836 114.192 90.7772 114.45 90.6404C114.716 90.5035 114.967 90.3401 115.203 90.1501C115.446 89.96 115.682 89.7434 115.91 89.5001V87.1055ZM109.353 82.3848C109.992 81.7691 110.68 81.3092 111.417 81.0051C112.154 80.701 112.972 80.549 113.869 80.549C114.515 80.549 115.089 80.6554 115.59 80.8683C116.092 81.0811 116.514 81.3776 116.856 81.7577C117.198 82.1378 117.457 82.5977 117.631 83.1374C117.806 83.6771 117.894 84.2701 117.894 84.9162V92.3052H116.993C116.795 92.3052 116.643 92.2748 116.537 92.214C116.43 92.1455 116.347 92.0163 116.286 91.8263L116.058 90.7316C115.754 91.0129 115.457 91.2637 115.168 91.4842C114.88 91.697 114.576 91.8795 114.256 92.0315C113.937 92.1759 113.595 92.2862 113.23 92.3622C112.873 92.4458 112.474 92.4876 112.033 92.4876C111.584 92.4876 111.162 92.4268 110.767 92.3052C110.372 92.1759 110.026 91.9859 109.729 91.735C109.44 91.4842 109.209 91.1687 109.034 90.7886C108.867 90.4009 108.783 89.9448 108.783 89.4203C108.783 88.9642 108.908 88.5271 109.159 88.109C109.41 87.6833 109.817 87.307 110.379 86.9801C110.942 86.6532 111.675 86.3872 112.58 86.1819C113.485 85.9691 114.595 85.8474 115.91 85.817V84.9162C115.91 84.0192 115.716 83.3426 115.328 82.8865C114.94 82.4228 114.374 82.191 113.629 82.191C113.127 82.191 112.705 82.2556 112.363 82.3848C112.029 82.5064 111.736 82.6471 111.485 82.8067C111.242 82.9588 111.029 83.0994 110.847 83.2286C110.672 83.3502 110.497 83.4111 110.322 83.4111C110.185 83.4111 110.068 83.3768 109.969 83.3084C109.87 83.2324 109.786 83.1412 109.718 83.0348L109.353 82.3848ZM124.131 92.4876C123.219 92.4876 122.516 92.233 122.022 91.7236C121.535 91.2143 121.292 90.4807 121.292 89.5229V82.4532H119.901C119.779 82.4532 119.677 82.419 119.593 82.3506C119.51 82.2746 119.468 82.1606 119.468 82.0085V81.1989L121.361 80.9595L121.828 77.3904C121.851 77.2764 121.9 77.1852 121.976 77.1168C122.06 77.0407 122.166 77.0027 122.296 77.0027H123.322V80.9823H126.663V82.4532H123.322V89.3861C123.322 89.8726 123.44 90.2337 123.675 90.4693C123.911 90.705 124.215 90.8228 124.588 90.8228C124.8 90.8228 124.983 90.7962 125.135 90.743C125.295 90.6822 125.431 90.6176 125.545 90.5492C125.659 90.4807 125.754 90.4199 125.83 90.3667C125.914 90.3059 125.986 90.2755 126.047 90.2755C126.154 90.2755 126.249 90.3401 126.332 90.4693L126.925 91.4386C126.575 91.7654 126.154 92.0239 125.659 92.214C125.165 92.3964 124.656 92.4876 124.131 92.4876ZM136.179 85.2697C136.179 84.7984 136.11 84.3689 135.973 83.9812C135.844 83.5859 135.65 83.2476 135.392 82.9664C135.141 82.6775 134.833 82.457 134.468 82.305C134.103 82.1454 133.689 82.0655 133.225 82.0655C132.252 82.0655 131.481 82.3506 130.91 82.9207C130.348 83.4833 129.998 84.2663 129.861 85.2697H136.179ZM137.82 90.686C137.57 90.9901 137.269 91.2561 136.92 91.4842C136.57 91.7046 136.194 91.8871 135.791 92.0315C135.396 92.1759 134.985 92.2824 134.559 92.3508C134.134 92.4268 133.712 92.4648 133.294 92.4648C132.495 92.4648 131.758 92.3318 131.081 92.0657C130.413 91.7921 129.831 91.3968 129.337 90.8798C128.85 90.3553 128.47 89.7092 128.197 88.9414C127.923 88.1736 127.786 87.2918 127.786 86.2959C127.786 85.4902 127.908 84.7376 128.151 84.0382C128.402 83.3388 128.759 82.7345 129.223 82.2252C129.687 81.7083 130.253 81.3054 130.922 81.0165C131.591 80.72 132.343 80.5718 133.18 80.5718C133.871 80.5718 134.51 80.6896 135.095 80.9253C135.688 81.1533 136.198 81.4878 136.623 81.9287C137.057 82.362 137.395 82.9017 137.638 83.5479C137.881 84.1864 138.003 84.9162 138.003 85.7372C138.003 86.0565 137.969 86.2693 137.9 86.3758C137.832 86.4822 137.703 86.5354 137.513 86.5354H129.793C129.816 87.2652 129.915 87.8999 130.089 88.4397C130.272 88.9794 130.523 89.4317 130.842 89.7966C131.161 90.1539 131.541 90.4237 131.982 90.6062C132.423 90.781 132.917 90.8684 133.465 90.8684C133.974 90.8684 134.411 90.8114 134.776 90.6974C135.148 90.5758 135.468 90.4465 135.734 90.3097C136 90.1729 136.22 90.0474 136.395 89.9334C136.578 89.8118 136.733 89.751 136.863 89.751C137.03 89.751 137.159 89.8156 137.25 89.9448L137.82 90.686ZM149.742 84.2549C148.936 84.6806 148.328 85.1975 147.918 85.8056C147.515 86.4138 147.313 87.0751 147.313 87.7897C147.313 88.2838 147.405 88.7209 147.587 89.101C147.769 89.4735 148.009 89.789 148.305 90.0474C148.602 90.3059 148.94 90.5035 149.32 90.6404C149.7 90.7696 150.088 90.8342 150.483 90.8342C151.335 90.8342 152.099 90.6784 152.775 90.3667C153.459 90.055 154.056 89.6369 154.565 89.1124L149.742 84.2549ZM160.278 92.3052H158.306C158.085 92.3052 157.906 92.2786 157.77 92.2254C157.633 92.1721 157.485 92.0619 157.325 91.8947L155.671 90.2299C154.957 90.9216 154.132 91.4728 153.197 91.8833C152.27 92.2862 151.247 92.4876 150.13 92.4876C149.522 92.4876 148.925 92.385 148.34 92.1797C147.762 91.9745 147.241 91.678 146.777 91.2903C146.314 90.895 145.941 90.4161 145.66 89.8536C145.379 89.2911 145.238 88.6563 145.238 87.9493C145.238 87.4172 145.325 86.9155 145.5 86.4442C145.683 85.9653 145.934 85.5244 146.253 85.1215C146.572 84.7186 146.948 84.3575 147.382 84.0382C147.815 83.7189 148.29 83.4453 148.807 83.2172C148.343 82.6243 148.001 82.0541 147.781 81.5068C147.56 80.9519 147.45 80.3779 147.45 79.785C147.45 79.2301 147.549 78.7093 147.747 78.2228C147.952 77.7363 148.245 77.3144 148.625 76.9571C149.005 76.5922 149.465 76.3072 150.004 76.1019C150.552 75.8891 151.164 75.7826 151.84 75.7826C152.441 75.7826 152.988 75.8815 153.482 76.0791C153.976 76.2692 154.402 76.5238 154.759 76.8431C155.117 77.1624 155.398 77.5349 155.603 77.9606C155.816 78.3787 155.938 78.8158 155.968 79.2719L154.702 79.5227C154.451 79.5835 154.265 79.4657 154.144 79.1692C154.09 78.9716 154.003 78.7664 153.881 78.5535C153.767 78.3407 153.615 78.1468 153.425 77.972C153.243 77.7971 153.018 77.6527 152.752 77.5387C152.494 77.4246 152.19 77.3676 151.84 77.3676C151.46 77.3676 151.114 77.4284 150.803 77.5501C150.498 77.6717 150.236 77.8427 150.016 78.0632C149.803 78.276 149.639 78.5307 149.525 78.8272C149.411 79.116 149.354 79.4315 149.354 79.7736C149.354 80.0397 149.385 80.2943 149.446 80.5376C149.506 80.7808 149.601 81.0279 149.731 81.2787C149.867 81.5296 150.039 81.7843 150.244 82.0427C150.449 82.3012 150.696 82.5749 150.985 82.8637L155.683 87.6415C155.972 87.1245 156.204 86.5886 156.378 86.0337C156.553 85.4711 156.667 84.9124 156.721 84.3575C156.736 84.213 156.781 84.099 156.857 84.0154C156.933 83.9318 157.04 83.89 157.177 83.89H158.42C158.412 84.7642 158.275 85.6232 158.009 86.467C157.743 87.3032 157.359 88.09 156.857 88.8273L160.278 92.3052ZM178.262 77.8237H172.971V92.3052H170.77V77.8237H165.468V75.9651H178.262V77.8237ZM182.04 80.7542V92.3052H180.011V80.7542H182.04ZM182.474 77.1282C182.474 77.3258 182.432 77.5121 182.348 77.6869C182.272 77.8541 182.166 78.0062 182.029 78.143C181.9 78.2722 181.744 78.3749 181.561 78.4509C181.386 78.5269 181.2 78.5649 181.003 78.5649C180.805 78.5649 180.619 78.5269 180.444 78.4509C180.277 78.3749 180.128 78.2722 179.999 78.143C179.87 78.0062 179.767 77.8541 179.691 77.6869C179.615 77.5121 179.577 77.3258 179.577 77.1282C179.577 76.9305 179.615 76.7443 179.691 76.5694C179.767 76.387 179.87 76.2311 179.999 76.1019C180.128 75.9651 180.277 75.8587 180.444 75.7826C180.619 75.7066 180.805 75.6686 181.003 75.6686C181.2 75.6686 181.386 75.7066 181.561 75.7826C181.744 75.8587 181.9 75.9651 182.029 76.1019C182.166 76.2311 182.272 76.387 182.348 76.5694C182.432 76.7443 182.474 76.9305 182.474 77.1282ZM185.131 92.3052V80.7542H186.351C186.64 80.7542 186.818 80.8949 186.887 81.1761L187.035 82.362C187.461 81.8375 187.94 81.408 188.472 81.0735C189.004 80.739 189.62 80.5718 190.319 80.5718C191.094 80.5718 191.722 80.7884 192.2 81.2217C192.687 81.655 193.037 82.2404 193.25 82.9778C193.417 82.5597 193.63 82.1986 193.888 81.8945C194.154 81.5904 194.451 81.3396 194.777 81.1419C195.104 80.9443 195.45 80.7998 195.815 80.7086C196.188 80.6174 196.564 80.5718 196.944 80.5718C197.552 80.5718 198.092 80.6706 198.563 80.8683C199.042 81.0583 199.445 81.3396 199.772 81.7121C200.106 82.0845 200.361 82.5445 200.536 83.0918C200.711 83.6315 200.798 84.2511 200.798 84.9504V92.3052H198.757V84.9504C198.757 84.0458 198.559 83.3616 198.164 82.8979C197.769 82.4266 197.199 82.191 196.454 82.191C196.119 82.191 195.8 82.2518 195.496 82.3734C195.199 82.4874 194.937 82.6585 194.709 82.8865C194.481 83.1146 194.299 83.4035 194.162 83.7531C194.033 84.0952 193.968 84.4943 193.968 84.9504V92.3052H191.927V84.9504C191.927 84.023 191.741 83.3312 191.368 82.8751C190.996 82.419 190.452 82.191 189.737 82.191C189.236 82.191 188.772 82.3278 188.346 82.6015C187.921 82.8675 187.529 83.2324 187.172 83.6961V92.3052H185.131ZM211.37 85.2697C211.37 84.7984 211.301 84.3689 211.164 83.9812C211.035 83.5859 210.841 83.2476 210.583 82.9664C210.332 82.6775 210.024 82.457 209.659 82.305C209.294 82.1454 208.88 82.0655 208.416 82.0655C207.443 82.0655 206.672 82.3506 206.102 82.9207C205.539 83.4833 205.189 84.2663 205.053 85.2697H211.37ZM213.012 90.686C212.761 90.9901 212.46 91.2561 212.111 91.4842C211.761 91.7046 211.385 91.8871 210.982 92.0315C210.587 92.1759 210.176 92.2824 209.75 92.3508C209.325 92.4268 208.903 92.4648 208.485 92.4648C207.687 92.4648 206.949 92.3318 206.273 92.0657C205.604 91.7921 205.022 91.3968 204.528 90.8798C204.041 90.3553 203.661 89.7092 203.388 88.9414C203.114 88.1736 202.977 87.2918 202.977 86.2959C202.977 85.4902 203.099 84.7376 203.342 84.0382C203.593 83.3388 203.95 82.7345 204.414 82.2252C204.878 81.7083 205.444 81.3054 206.113 81.0165C206.782 80.72 207.534 80.5718 208.371 80.5718C209.062 80.5718 209.701 80.6896 210.286 80.9253C210.879 81.1533 211.389 81.4878 211.814 81.9287C212.248 82.362 212.586 82.9017 212.829 83.5479C213.072 84.1864 213.194 84.9162 213.194 85.7372C213.194 86.0565 213.16 86.2693 213.091 86.3758C213.023 86.4822 212.894 86.5354 212.704 86.5354H204.984C205.007 87.2652 205.106 87.8999 205.281 88.4397C205.463 88.9794 205.714 89.4317 206.033 89.7966C206.352 90.1539 206.733 90.4237 207.173 90.6062C207.614 90.781 208.108 90.8684 208.656 90.8684C209.165 90.8684 209.602 90.8114 209.967 90.6974C210.34 90.5758 210.659 90.4465 210.925 90.3097C211.191 90.1729 211.411 90.0474 211.586 89.9334C211.769 89.8118 211.925 89.751 212.054 89.751C212.221 89.751 212.35 89.8156 212.441 89.9448L213.012 90.686Z" fill="#D1D1D1"/>
<path d="M91.2266 100.305H648.331" stroke="#D1D1D1" stroke-width="3.25792" stroke-linecap="round"/>
<path d="M65.1644 133.095C65.1644 135.794 62.9765 137.982 60.2775 137.982C57.5786 137.982 55.3906 135.794 55.3906 133.095C55.3906 130.396 57.5786 128.208 60.2775 128.208C62.9765 128.208 65.1644 130.396 65.1644 133.095Z" fill="#D1D1D1"/>
<path d="M102.584 139.736V141.595H93.3133V125.255H95.514V139.736H102.584ZM108.349 129.861C109.193 129.861 109.953 130.002 110.63 130.283C111.307 130.565 111.884 130.964 112.363 131.481C112.842 131.997 113.207 132.625 113.458 133.362C113.716 134.092 113.846 134.909 113.846 135.814C113.846 136.726 113.716 137.547 113.458 138.277C113.207 139.006 112.842 139.63 112.363 140.147C111.884 140.664 111.307 141.063 110.63 141.344C109.953 141.618 109.193 141.754 108.349 141.754C107.498 141.754 106.73 141.618 106.046 141.344C105.37 141.063 104.792 140.664 104.313 140.147C103.834 139.63 103.465 139.006 103.207 138.277C102.956 137.547 102.831 136.726 102.831 135.814C102.831 134.909 102.956 134.092 103.207 133.362C103.465 132.625 103.834 131.997 104.313 131.481C104.792 130.964 105.37 130.565 106.046 130.283C106.73 130.002 107.498 129.861 108.349 129.861ZM108.349 140.169C109.49 140.169 110.341 139.789 110.904 139.029C111.466 138.261 111.747 137.193 111.747 135.825C111.747 134.449 111.466 133.377 110.904 132.609C110.341 131.842 109.49 131.458 108.349 131.458C107.772 131.458 107.266 131.557 106.833 131.754C106.407 131.952 106.05 132.237 105.761 132.609C105.48 132.982 105.267 133.442 105.122 133.989C104.986 134.529 104.917 135.141 104.917 135.825C104.917 137.193 105.198 138.261 105.761 139.029C106.331 139.789 107.194 140.169 108.349 140.169ZM124.214 132.096C124.154 132.18 124.093 132.245 124.032 132.29C123.971 132.336 123.888 132.359 123.781 132.359C123.667 132.359 123.542 132.313 123.405 132.222C123.268 132.123 123.097 132.016 122.892 131.902C122.694 131.788 122.447 131.686 122.151 131.595C121.862 131.496 121.504 131.446 121.079 131.446C120.509 131.446 120.007 131.549 119.574 131.754C119.14 131.952 118.775 132.241 118.479 132.621C118.19 133.001 117.97 133.461 117.818 134.001C117.673 134.54 117.601 135.145 117.601 135.814C117.601 136.513 117.681 137.136 117.84 137.684C118 138.223 118.224 138.679 118.513 139.052C118.81 139.417 119.163 139.698 119.574 139.896C119.992 140.086 120.459 140.181 120.976 140.181C121.47 140.181 121.877 140.124 122.196 140.01C122.515 139.888 122.778 139.755 122.983 139.611C123.196 139.466 123.371 139.337 123.507 139.223C123.652 139.101 123.793 139.041 123.929 139.041C124.097 139.041 124.226 139.105 124.317 139.234L124.887 139.976C124.636 140.287 124.351 140.553 124.032 140.774C123.713 140.994 123.367 141.18 122.994 141.332C122.629 141.477 122.246 141.583 121.843 141.652C121.44 141.72 121.029 141.754 120.611 141.754C119.889 141.754 119.216 141.621 118.593 141.355C117.977 141.089 117.441 140.705 116.985 140.204C116.529 139.694 116.172 139.071 115.913 138.334C115.655 137.596 115.526 136.756 115.526 135.814C115.526 134.955 115.643 134.16 115.879 133.43C116.122 132.701 116.472 132.073 116.928 131.549C117.392 131.017 117.958 130.603 118.627 130.306C119.304 130.01 120.079 129.861 120.953 129.861C121.767 129.861 122.481 129.994 123.097 130.26C123.72 130.519 124.271 130.888 124.75 131.366L124.214 132.096ZM133.082 136.395C132.147 136.425 131.349 136.502 130.687 136.623C130.033 136.737 129.498 136.889 129.079 137.079C128.669 137.269 128.369 137.494 128.179 137.752C127.996 138.01 127.905 138.299 127.905 138.619C127.905 138.923 127.954 139.185 128.053 139.405C128.152 139.626 128.285 139.808 128.452 139.953C128.627 140.09 128.829 140.192 129.057 140.261C129.292 140.321 129.543 140.352 129.809 140.352C130.166 140.352 130.493 140.318 130.79 140.249C131.086 140.173 131.364 140.067 131.622 139.93C131.888 139.793 132.139 139.63 132.375 139.44C132.618 139.25 132.854 139.033 133.082 138.79V136.395ZM126.525 131.674C127.164 131.059 127.852 130.599 128.589 130.295C129.326 129.991 130.144 129.839 131.041 129.839C131.687 129.839 132.261 129.945 132.763 130.158C133.264 130.371 133.686 130.667 134.028 131.047C134.37 131.427 134.629 131.887 134.804 132.427C134.978 132.967 135.066 133.56 135.066 134.206V141.595H134.165C133.967 141.595 133.815 141.564 133.709 141.504C133.603 141.435 133.519 141.306 133.458 141.116L133.23 140.021C132.926 140.302 132.629 140.553 132.341 140.774C132.052 140.987 131.748 141.169 131.428 141.321C131.109 141.465 130.767 141.576 130.402 141.652C130.045 141.735 129.646 141.777 129.205 141.777C128.756 141.777 128.334 141.716 127.939 141.595C127.544 141.465 127.198 141.275 126.902 141.025C126.613 140.774 126.381 140.458 126.206 140.078C126.039 139.69 125.955 139.234 125.955 138.71C125.955 138.254 126.081 137.817 126.331 137.399C126.582 136.973 126.989 136.597 127.551 136.27C128.114 135.943 128.848 135.677 129.752 135.471C130.657 135.259 131.767 135.137 133.082 135.107V134.206C133.082 133.309 132.888 132.632 132.5 132.176C132.113 131.712 131.546 131.481 130.801 131.481C130.3 131.481 129.878 131.545 129.536 131.674C129.201 131.796 128.908 131.937 128.658 132.096C128.414 132.248 128.201 132.389 128.019 132.518C127.844 132.64 127.669 132.701 127.494 132.701C127.358 132.701 127.24 132.666 127.141 132.598C127.042 132.522 126.959 132.431 126.89 132.324L126.525 131.674ZM148.476 141.595H146.446V131.743H140.494V138.676C140.494 139.162 140.612 139.523 140.847 139.759C141.083 139.995 141.387 140.112 141.76 140.112C141.973 140.112 142.155 140.086 142.307 140.033C142.467 139.972 142.604 139.907 142.718 139.839C142.832 139.77 142.927 139.709 143.003 139.656C143.086 139.595 143.158 139.565 143.219 139.565C143.326 139.565 143.421 139.63 143.504 139.759L144.097 140.728C143.748 141.055 143.326 141.313 142.832 141.504C142.337 141.686 141.828 141.777 141.304 141.777C140.391 141.777 139.688 141.523 139.194 141.013C138.708 140.504 138.464 139.77 138.464 138.812V131.743H137.073C136.952 131.743 136.849 131.709 136.765 131.64C136.682 131.564 136.64 131.45 136.64 131.298V130.488L138.533 130.238L139 126.68C139.023 126.566 139.072 126.475 139.148 126.406C139.232 126.33 139.339 126.292 139.468 126.292H140.494V130.272H148.476V141.595ZM148.978 126.338C148.978 126.536 148.936 126.722 148.852 126.897C148.776 127.064 148.67 127.212 148.533 127.341C148.404 127.471 148.252 127.573 148.077 127.649C147.902 127.725 147.716 127.763 147.518 127.763C147.32 127.763 147.134 127.725 146.959 127.649C146.792 127.573 146.644 127.471 146.515 127.341C146.385 127.212 146.283 127.064 146.207 126.897C146.131 126.722 146.093 126.536 146.093 126.338C146.093 126.14 146.131 125.954 146.207 125.779C146.283 125.597 146.385 125.441 146.515 125.312C146.644 125.175 146.792 125.068 146.959 124.992C147.134 124.916 147.32 124.878 147.518 124.878C147.716 124.878 147.902 124.916 148.077 124.992C148.252 125.068 148.404 125.175 148.533 125.312C148.67 125.441 148.776 125.597 148.852 125.779C148.936 125.954 148.978 126.14 148.978 126.338ZM156.435 129.861C157.279 129.861 158.039 130.002 158.715 130.283C159.392 130.565 159.97 130.964 160.449 131.481C160.928 131.997 161.292 132.625 161.543 133.362C161.802 134.092 161.931 134.909 161.931 135.814C161.931 136.726 161.802 137.547 161.543 138.277C161.292 139.006 160.928 139.63 160.449 140.147C159.97 140.664 159.392 141.063 158.715 141.344C158.039 141.618 157.279 141.754 156.435 141.754C155.584 141.754 154.816 141.618 154.132 141.344C153.455 141.063 152.877 140.664 152.398 140.147C151.919 139.63 151.551 139.006 151.292 138.277C151.041 137.547 150.916 136.726 150.916 135.814C150.916 134.909 151.041 134.092 151.292 133.362C151.551 132.625 151.919 131.997 152.398 131.481C152.877 130.964 153.455 130.565 154.132 130.283C154.816 130.002 155.584 129.861 156.435 129.861ZM156.435 140.169C157.575 140.169 158.427 139.789 158.989 139.029C159.552 138.261 159.833 137.193 159.833 135.825C159.833 134.449 159.552 133.377 158.989 132.609C158.427 131.842 157.575 131.458 156.435 131.458C155.857 131.458 155.352 131.557 154.918 131.754C154.493 131.952 154.135 132.237 153.847 132.609C153.565 132.982 153.352 133.442 153.208 133.989C153.071 134.529 153.003 135.141 153.003 135.825C153.003 137.193 153.284 138.261 153.847 139.029C154.417 139.789 155.279 140.169 156.435 140.169ZM166.177 131.72C166.428 131.439 166.694 131.184 166.975 130.956C167.256 130.728 167.553 130.534 167.864 130.374C168.184 130.207 168.518 130.082 168.868 129.998C169.225 129.907 169.609 129.861 170.019 129.861C170.65 129.861 171.205 129.968 171.684 130.181C172.171 130.386 172.574 130.682 172.893 131.07C173.22 131.45 173.467 131.91 173.634 132.45C173.801 132.989 173.885 133.586 173.885 134.24V141.595H171.844V134.24C171.844 133.366 171.642 132.689 171.239 132.21C170.844 131.724 170.24 131.481 169.426 131.481C168.826 131.481 168.263 131.625 167.739 131.914C167.222 132.203 166.743 132.594 166.302 133.088V141.595H164.261V130.044H165.481C165.77 130.044 165.949 130.184 166.017 130.466L166.177 131.72Z" fill="#D1D1D1"/>
<path d="M91.2266 149.595H648.331" stroke="#D1D1D1" stroke-width="3.25792" stroke-linecap="round"/>
<path d="M65.1644 246.701C65.1644 249.4 62.9765 251.588 60.2775 251.588C57.5786 251.588 55.3906 249.4 55.3906 246.701C55.3906 244.002 57.5786 241.814 60.2775 241.814C62.9765 241.814 65.1644 244.002 65.1644 246.701Z" fill="#D1D1D1"/>
<path d="M107.475 247.037C107.475 248.261 107.282 249.374 106.894 250.378C106.506 251.381 105.959 252.24 105.252 252.955C104.545 253.669 103.694 254.224 102.698 254.62C101.709 255.007 100.615 255.201 99.4137 255.201H93.3133V238.861H99.4137C100.615 238.861 101.709 239.059 102.698 239.454C103.694 239.842 104.545 240.397 105.252 241.119C105.959 241.833 106.506 242.692 106.894 243.696C107.282 244.699 107.475 245.813 107.475 247.037ZM105.206 247.037C105.206 246.033 105.069 245.136 104.796 244.346C104.522 243.555 104.134 242.886 103.633 242.339C103.131 241.792 102.523 241.373 101.808 241.085C101.094 240.796 100.296 240.651 99.4137 240.651H95.5254V253.411H99.4137C100.296 253.411 101.094 253.267 101.808 252.978C102.523 252.689 103.131 252.274 103.633 251.735C104.134 251.187 104.522 250.518 104.796 249.728C105.069 248.937 105.206 248.04 105.206 247.037ZM115.91 250.002C114.975 250.032 114.176 250.108 113.515 250.23C112.861 250.344 112.325 250.496 111.907 250.686C111.497 250.876 111.196 251.1 111.006 251.358C110.824 251.617 110.733 251.906 110.733 252.225C110.733 252.529 110.782 252.791 110.881 253.012C110.98 253.232 111.113 253.415 111.28 253.559C111.455 253.696 111.656 253.799 111.884 253.867C112.12 253.928 112.371 253.958 112.637 253.958C112.994 253.958 113.321 253.924 113.618 253.856C113.914 253.78 114.192 253.673 114.45 253.536C114.716 253.4 114.967 253.236 115.203 253.046C115.446 252.856 115.682 252.639 115.91 252.396V250.002ZM109.353 245.281C109.992 244.665 110.68 244.205 111.417 243.901C112.154 243.597 112.972 243.445 113.869 243.445C114.515 243.445 115.089 243.551 115.59 243.764C116.092 243.977 116.514 244.274 116.856 244.654C117.198 245.034 117.457 245.494 117.631 246.033C117.806 246.573 117.894 247.166 117.894 247.812V255.201H116.993C116.795 255.201 116.643 255.171 116.537 255.11C116.43 255.042 116.347 254.912 116.286 254.722L116.058 253.628C115.754 253.909 115.457 254.16 115.168 254.38C114.88 254.593 114.576 254.775 114.256 254.928C113.937 255.072 113.595 255.182 113.23 255.258C112.873 255.342 112.474 255.384 112.033 255.384C111.584 255.384 111.162 255.323 110.767 255.201C110.372 255.072 110.026 254.882 109.729 254.631C109.44 254.38 109.209 254.065 109.034 253.685C108.867 253.297 108.783 252.841 108.783 252.316C108.783 251.86 108.908 251.423 109.159 251.005C109.41 250.579 109.817 250.203 110.379 249.876C110.942 249.549 111.675 249.283 112.58 249.078C113.485 248.865 114.595 248.743 115.91 248.713V247.812C115.91 246.915 115.716 246.239 115.328 245.783C114.94 245.319 114.374 245.087 113.629 245.087C113.127 245.087 112.705 245.152 112.363 245.281C112.029 245.402 111.736 245.543 111.485 245.703C111.242 245.855 111.029 245.995 110.847 246.125C110.672 246.246 110.497 246.307 110.322 246.307C110.185 246.307 110.068 246.273 109.969 246.204C109.87 246.128 109.786 246.037 109.718 245.931L109.353 245.281ZM124.131 255.384C123.219 255.384 122.516 255.129 122.022 254.62C121.535 254.11 121.292 253.377 121.292 252.419V245.349H119.901C119.779 245.349 119.677 245.315 119.593 245.247C119.51 245.171 119.468 245.057 119.468 244.905V244.095L121.361 243.855L121.828 240.286C121.851 240.172 121.9 240.081 121.976 240.013C122.06 239.937 122.166 239.899 122.296 239.899H123.322V243.878H126.663V245.349H123.322V252.282C123.322 252.769 123.44 253.13 123.675 253.365C123.911 253.601 124.215 253.719 124.588 253.719C124.8 253.719 124.983 253.692 125.135 253.639C125.295 253.578 125.431 253.514 125.545 253.445C125.659 253.377 125.754 253.316 125.83 253.263C125.914 253.202 125.986 253.171 126.047 253.171C126.154 253.171 126.249 253.236 126.332 253.365L126.925 254.335C126.575 254.661 126.154 254.92 125.659 255.11C125.165 255.292 124.656 255.384 124.131 255.384ZM136.179 248.166C136.179 247.694 136.11 247.265 135.973 246.877C135.844 246.482 135.65 246.144 135.392 245.862C135.141 245.573 134.833 245.353 134.468 245.201C134.103 245.041 133.689 244.962 133.225 244.962C132.252 244.962 131.481 245.247 130.91 245.817C130.348 246.379 129.998 247.162 129.861 248.166H136.179ZM137.82 253.582C137.57 253.886 137.269 254.152 136.92 254.38C136.57 254.601 136.194 254.783 135.791 254.928C135.396 255.072 134.985 255.178 134.559 255.247C134.134 255.323 133.712 255.361 133.294 255.361C132.495 255.361 131.758 255.228 131.081 254.962C130.413 254.688 129.831 254.293 129.337 253.776C128.85 253.251 128.47 252.605 128.197 251.837C127.923 251.07 127.786 250.188 127.786 249.192C127.786 248.386 127.908 247.634 128.151 246.934C128.402 246.235 128.759 245.63 129.223 245.121C129.687 244.604 130.253 244.201 130.922 243.912C131.591 243.616 132.343 243.468 133.18 243.468C133.871 243.468 134.51 243.586 135.095 243.821C135.688 244.049 136.198 244.384 136.623 244.825C137.057 245.258 137.395 245.798 137.638 246.444C137.881 247.082 138.003 247.812 138.003 248.633C138.003 248.952 137.969 249.165 137.9 249.272C137.832 249.378 137.703 249.431 137.513 249.431H129.793C129.816 250.161 129.915 250.796 130.089 251.336C130.272 251.875 130.523 252.328 130.842 252.693C131.161 253.05 131.541 253.32 131.982 253.502C132.423 253.677 132.917 253.764 133.465 253.764C133.974 253.764 134.411 253.707 134.776 253.593C135.148 253.472 135.468 253.343 135.734 253.206C136 253.069 136.22 252.943 136.395 252.829C136.578 252.708 136.733 252.647 136.863 252.647C137.03 252.647 137.159 252.712 137.25 252.841L137.82 253.582ZM149.742 247.151C148.936 247.577 148.328 248.093 147.918 248.702C147.515 249.31 147.313 249.971 147.313 250.686C147.313 251.18 147.405 251.617 147.587 251.997C147.769 252.369 148.009 252.685 148.305 252.943C148.602 253.202 148.94 253.4 149.32 253.536C149.7 253.666 150.088 253.73 150.483 253.73C151.335 253.73 152.099 253.574 152.775 253.263C153.459 252.951 154.056 252.533 154.565 252.008L149.742 247.151ZM160.278 255.201H158.306C158.085 255.201 157.906 255.175 157.77 255.121C157.633 255.068 157.485 254.958 157.325 254.791L155.671 253.126C154.957 253.818 154.132 254.369 153.197 254.779C152.27 255.182 151.247 255.384 150.13 255.384C149.522 255.384 148.925 255.281 148.34 255.076C147.762 254.87 147.241 254.574 146.777 254.186C146.314 253.791 145.941 253.312 145.66 252.75C145.379 252.187 145.238 251.552 145.238 250.845C145.238 250.313 145.325 249.811 145.5 249.34C145.683 248.861 145.934 248.42 146.253 248.017C146.572 247.615 146.948 247.253 147.382 246.934C147.815 246.615 148.29 246.341 148.807 246.113C148.343 245.52 148.001 244.95 147.781 244.403C147.56 243.848 147.45 243.274 147.45 242.681C147.45 242.126 147.549 241.605 147.747 241.119C147.952 240.632 148.245 240.21 148.625 239.853C149.005 239.488 149.465 239.203 150.004 238.998C150.552 238.785 151.164 238.679 151.84 238.679C152.441 238.679 152.988 238.777 153.482 238.975C153.976 239.165 154.402 239.42 154.759 239.739C155.117 240.058 155.398 240.431 155.603 240.857C155.816 241.275 155.938 241.712 155.968 242.168L154.702 242.419C154.451 242.48 154.265 242.362 154.144 242.065C154.09 241.868 154.003 241.662 153.881 241.449C153.767 241.237 153.615 241.043 153.425 240.868C153.243 240.693 153.018 240.549 152.752 240.435C152.494 240.321 152.19 240.264 151.84 240.264C151.46 240.264 151.114 240.324 150.803 240.446C150.498 240.568 150.236 240.739 150.016 240.959C149.803 241.172 149.639 241.427 149.525 241.723C149.411 242.012 149.354 242.328 149.354 242.67C149.354 242.936 149.385 243.19 149.446 243.434C149.506 243.677 149.601 243.924 149.731 244.175C149.867 244.426 150.039 244.68 150.244 244.939C150.449 245.197 150.696 245.471 150.985 245.76L155.683 250.537C155.972 250.021 156.204 249.485 156.378 248.93C156.553 248.367 156.667 247.808 156.721 247.253C156.736 247.109 156.781 246.995 156.857 246.911C156.933 246.828 157.04 246.786 157.177 246.786H158.42C158.412 247.66 158.275 248.519 158.009 249.363C157.743 250.199 157.359 250.986 156.857 251.723L160.278 255.201ZM178.262 240.72H172.971V255.201H170.77V240.72H165.468V238.861H178.262V240.72ZM182.04 243.65V255.201H180.011V243.65H182.04ZM182.474 240.024C182.474 240.222 182.432 240.408 182.348 240.583C182.272 240.75 182.166 240.902 182.029 241.039C181.9 241.168 181.744 241.271 181.561 241.347C181.386 241.423 181.2 241.461 181.003 241.461C180.805 241.461 180.619 241.423 180.444 241.347C180.277 241.271 180.128 241.168 179.999 241.039C179.87 240.902 179.767 240.75 179.691 240.583C179.615 240.408 179.577 240.222 179.577 240.024C179.577 239.827 179.615 239.64 179.691 239.465C179.767 239.283 179.87 239.127 179.999 238.998C180.128 238.861 180.277 238.755 180.444 238.679C180.619 238.603 180.805 238.565 181.003 238.565C181.2 238.565 181.386 238.603 181.561 238.679C181.744 238.755 181.9 238.861 182.029 238.998C182.166 239.127 182.272 239.283 182.348 239.465C182.432 239.64 182.474 239.827 182.474 240.024ZM185.131 255.201V243.65H186.351C186.64 243.65 186.818 243.791 186.887 244.072L187.035 245.258C187.461 244.733 187.94 244.304 188.472 243.969C189.004 243.635 189.62 243.468 190.319 243.468C191.094 243.468 191.722 243.684 192.2 244.118C192.687 244.551 193.037 245.136 193.25 245.874C193.417 245.456 193.63 245.095 193.888 244.79C194.154 244.486 194.451 244.236 194.777 244.038C195.104 243.84 195.45 243.696 195.815 243.605C196.188 243.513 196.564 243.468 196.944 243.468C197.552 243.468 198.092 243.567 198.563 243.764C199.042 243.954 199.445 244.236 199.772 244.608C200.106 244.981 200.361 245.44 200.536 245.988C200.711 246.528 200.798 247.147 200.798 247.846V255.201H198.757V247.846C198.757 246.942 198.559 246.258 198.164 245.794C197.769 245.323 197.199 245.087 196.454 245.087C196.119 245.087 195.8 245.148 195.496 245.269C195.199 245.383 194.937 245.554 194.709 245.783C194.481 246.011 194.299 246.299 194.162 246.649C194.033 246.991 193.968 247.39 193.968 247.846V255.201H191.927V247.846C191.927 246.919 191.741 246.227 191.368 245.771C190.996 245.315 190.452 245.087 189.737 245.087C189.236 245.087 188.772 245.224 188.346 245.497C187.921 245.764 187.529 246.128 187.172 246.592V255.201H185.131ZM211.37 248.166C211.37 247.694 211.301 247.265 211.164 246.877C211.035 246.482 210.841 246.144 210.583 245.862C210.332 245.573 210.024 245.353 209.659 245.201C209.294 245.041 208.88 244.962 208.416 244.962C207.443 244.962 206.672 245.247 206.102 245.817C205.539 246.379 205.189 247.162 205.053 248.166H211.37ZM213.012 253.582C212.761 253.886 212.46 254.152 212.111 254.38C211.761 254.601 211.385 254.783 210.982 254.928C210.587 255.072 210.176 255.178 209.75 255.247C209.325 255.323 208.903 255.361 208.485 255.361C207.687 255.361 206.949 255.228 206.273 254.962C205.604 254.688 205.022 254.293 204.528 253.776C204.041 253.251 203.661 252.605 203.388 251.837C203.114 251.07 202.977 250.188 202.977 249.192C202.977 248.386 203.099 247.634 203.342 246.934C203.593 246.235 203.95 245.63 204.414 245.121C204.878 244.604 205.444 244.201 206.113 243.912C206.782 243.616 207.534 243.468 208.371 243.468C209.062 243.468 209.701 243.586 210.286 243.821C210.879 244.049 211.389 244.384 211.814 244.825C212.248 245.258 212.586 245.798 212.829 246.444C213.072 247.082 213.194 247.812 213.194 248.633C213.194 248.952 213.16 249.165 213.091 249.272C213.023 249.378 212.894 249.431 212.704 249.431H204.984C205.007 250.161 205.106 250.796 205.281 251.336C205.463 251.875 205.714 252.328 206.033 252.693C206.352 253.05 206.733 253.32 207.173 253.502C207.614 253.677 208.108 253.764 208.656 253.764C209.165 253.764 209.602 253.707 209.967 253.593C210.34 253.472 210.659 253.343 210.925 253.206C211.191 253.069 211.411 252.943 211.586 252.829C211.769 252.708 211.925 252.647 212.054 252.647C212.221 252.647 212.35 252.712 212.441 252.841L213.012 253.582Z" fill="#D1D1D1"/>
<path d="M91.2266 263.201H648.331" stroke="#D1D1D1" stroke-width="3.25792" stroke-linecap="round"/>
</g>
<defs>
<clipPath id="clip0_1334_46867">
<rect width="700.453" height="325.792" fill="white" transform="translate(0 0.517944)"/>
</clipPath>
</defs>
</svg>
