<svg width="701" height="327" viewBox="0 0 701 327" fill="none" xmlns="http://www.w3.org/2000/svg">
<g clip-path="url(#clip0_1334_46871)">
<rect x="2.44344" y="3.28267" width="695.566" height="320.905" rx="13.8462" fill="#323233" stroke="#292929" stroke-width="4.88688"/>
<path d="M35.5951 41.4065C36.5138 41.4065 37.1849 41.1849 37.6085 40.7419C38.0385 40.2988 38.2535 39.6928 38.2535 38.924C38.2535 38.5721 38.1981 38.2528 38.0874 37.9661C37.9831 37.6729 37.8202 37.4253 37.5987 37.2233C37.3837 37.0148 37.11 36.8552 36.7777 36.7444C36.4454 36.6336 36.0512 36.5783 35.5951 36.5783H33.7381V41.4065H35.5951ZM35.5951 34.3498C36.5659 34.3498 37.4032 34.4639 38.1069 34.6919C38.8171 34.92 39.4003 35.2392 39.8564 35.6497C40.3125 36.0537 40.6481 36.5359 40.8631 37.0963C41.0847 37.6566 41.1954 38.2659 41.1954 38.924C41.1954 39.6211 41.0814 40.2597 40.8533 40.8396C40.6253 41.4195 40.28 41.918 39.8173 42.335C39.3547 42.752 38.7715 43.0778 38.0678 43.3124C37.3641 43.5404 36.5399 43.6545 35.5951 43.6545H33.7381V48.5316H30.8059V34.3498H35.5951ZM59.3704 41.4358C59.3704 42.4718 59.1945 43.4329 58.8427 44.3191C58.4973 45.2052 58.0054 45.9708 57.3668 46.6159C56.7348 47.261 55.9724 47.7692 55.0798 48.1406C54.1871 48.5055 53.1967 48.6879 52.1085 48.6879C51.0204 48.6879 50.03 48.5055 49.1373 48.1406C48.2446 47.7692 47.479 47.261 46.8405 46.6159C46.2019 45.9708 45.7067 45.2052 45.3549 44.3191C45.0095 43.4329 44.8369 42.4718 44.8369 41.4358C44.8369 40.3998 45.0095 39.442 45.3549 38.5623C45.7067 37.6762 46.2019 36.9106 46.8405 36.2655C47.479 35.6204 48.2446 35.1154 49.1373 34.7506C50.03 34.3792 51.0204 34.1935 52.1085 34.1935C53.1967 34.1935 54.1871 34.3792 55.0798 34.7506C55.9724 35.1154 56.7348 35.6237 57.3668 36.2753C58.0054 36.9203 58.4973 37.6859 58.8427 38.5721C59.1945 39.4517 59.3704 40.4063 59.3704 41.4358ZM56.3699 41.4358C56.3699 40.693 56.2722 40.0284 56.0767 39.442C55.8812 38.849 55.5978 38.3473 55.2264 37.9368C54.8615 37.5198 54.4151 37.2038 53.8874 36.9887C53.3661 36.7672 52.7732 36.6564 52.1085 36.6564C51.4439 36.6564 50.8477 36.7672 50.3199 36.9887C49.7922 37.2038 49.3426 37.5198 48.9712 37.9368C48.6063 38.3473 48.3261 38.849 48.1306 39.442C47.9351 40.0284 47.8374 40.693 47.8374 41.4358C47.8374 42.1851 47.9351 42.8563 48.1306 43.4492C48.3261 44.0356 48.6063 44.5341 48.9712 44.9446C49.3426 45.3551 49.7922 45.6711 50.3199 45.8926C50.8477 46.1077 51.4439 46.2152 52.1085 46.2152C52.7732 46.2152 53.3661 46.1077 53.8874 45.8926C54.4151 45.6711 54.8615 45.3551 55.2264 44.9446C55.5978 44.5341 55.8812 44.0356 56.0767 43.4492C56.2722 42.8563 56.3699 42.1851 56.3699 41.4358ZM72.5333 46.1468V48.5316H64.1181V34.3498H67.0503V46.1468H72.5333ZM85.3525 46.1468V48.5316H76.9373V34.3498H79.8694V46.1468H85.3525Z" fill="#BB86FC"/>
<path d="M42.9547 70.1869V84.3687H41.4398C41.2117 84.3687 41.0195 84.3328 40.8631 84.2611C40.7067 84.183 40.5536 84.0526 40.4038 83.8702L33.3373 74.8783C33.3569 75.1064 33.3699 75.3312 33.3764 75.5527C33.3895 75.7743 33.396 75.9795 33.396 76.1685V84.3687H30.8059V70.1869H32.3502C32.474 70.1869 32.5782 70.1934 32.6629 70.2065C32.7542 70.213 32.8356 70.2358 32.9073 70.2749C32.979 70.3075 33.0474 70.3531 33.1125 70.4117C33.1777 70.4704 33.2494 70.5486 33.3276 70.6463L40.4428 79.6772C40.4168 79.4296 40.3972 79.1918 40.3842 78.9638C40.3712 78.7292 40.3647 78.5077 40.3647 78.2991V70.1869H42.9547ZM62.2338 77.2729C62.2338 78.3089 62.0579 79.27 61.7061 80.1562C61.3607 81.0423 60.8688 81.8079 60.2302 82.453C59.5982 83.0981 58.8358 83.6063 57.9432 83.9777C57.0505 84.3426 56.0601 84.525 54.9719 84.525C53.8838 84.525 52.8934 84.3426 52.0007 83.9777C51.1081 83.6063 50.3424 83.0981 49.7039 82.453C49.0653 81.8079 48.5701 81.0423 48.2183 80.1562C47.8729 79.27 47.7003 78.3089 47.7003 77.2729C47.7003 76.2369 47.8729 75.2791 48.2183 74.3994C48.5701 73.5133 49.0653 72.7477 49.7039 72.1026C50.3424 71.4575 51.1081 70.9525 52.0007 70.5877C52.8934 70.2163 53.8838 70.0306 54.9719 70.0306C56.0601 70.0306 57.0505 70.2163 57.9432 70.5877C58.8358 70.9525 59.5982 71.4608 60.2302 72.1124C60.8688 72.7574 61.3607 73.523 61.7061 74.4092C62.0579 75.2888 62.2338 76.2434 62.2338 77.2729ZM59.2333 77.2729C59.2333 76.5301 59.1356 75.8655 58.9401 75.2791C58.7446 74.6861 58.4612 74.1844 58.0898 73.7739C57.7249 73.3569 57.2785 73.0409 56.7508 72.8258C56.2295 72.6043 55.6366 72.4935 54.9719 72.4935C54.3073 72.4935 53.7111 72.6043 53.1833 72.8258C52.6556 73.0409 52.206 73.3569 51.8346 73.7739C51.4697 74.1844 51.1895 74.6861 50.994 75.2791C50.7985 75.8655 50.7008 76.5301 50.7008 77.2729C50.7008 78.0222 50.7985 78.6934 50.994 79.2863C51.1895 79.8727 51.4697 80.3712 51.8346 80.7817C52.206 81.1922 52.6556 81.5082 53.1833 81.7297C53.7111 81.9448 54.3073 82.0523 54.9719 82.0523C55.6366 82.0523 56.2295 81.9448 56.7508 81.7297C57.2785 81.5082 57.7249 81.1922 58.0898 80.7817C58.4612 80.3712 58.7446 79.8727 58.9401 79.2863C59.1356 78.6934 59.2333 78.0222 59.2333 77.2729ZM83.8831 80.8794C84.046 80.8794 84.1828 80.9381 84.2936 81.0553L85.4566 82.2966C84.8832 83.0264 84.1698 83.5802 83.3162 83.9582C82.4691 84.3361 81.4592 84.525 80.2863 84.525C79.2242 84.525 78.2697 84.3458 77.4226 83.9875C76.5756 83.6226 75.8556 83.1176 75.2626 82.4725C74.6697 81.8275 74.2136 81.0619 73.8943 80.1757C73.575 79.2896 73.4154 78.322 73.4154 77.2729C73.4154 76.5692 73.4903 75.9013 73.6402 75.2693C73.7966 74.6307 74.0213 74.0443 74.3146 73.51C74.6078 72.9757 74.9596 72.4935 75.3701 72.0635C75.7871 71.6334 76.2563 71.2686 76.7775 70.9688C77.2988 70.6626 77.8657 70.4313 78.4782 70.2749C79.0972 70.112 79.7553 70.0306 80.4525 70.0306C80.9737 70.0306 81.4657 70.0762 81.9283 70.1674C82.3975 70.2586 82.834 70.3857 83.238 70.5486C83.642 70.7115 84.0134 70.9102 84.3522 71.1448C84.6975 71.3728 85.0071 71.6237 85.2807 71.8973L84.2936 73.2461C84.2349 73.3308 84.16 73.4058 84.0688 73.4709C83.9775 73.5361 83.8537 73.5687 83.6974 73.5687C83.541 73.5687 83.3813 73.5133 83.2185 73.4025C83.0621 73.2917 82.8666 73.1679 82.632 73.0311C82.404 72.8943 82.114 72.7705 81.7622 72.6597C81.4168 72.5489 80.977 72.4935 80.4427 72.4935C79.8498 72.4935 79.3057 72.601 78.8105 72.8161C78.3153 73.0311 77.8885 73.3439 77.5301 73.7544C77.1783 74.1583 76.9046 74.6568 76.7091 75.2497C76.5137 75.8427 76.4159 76.5171 76.4159 77.2729C76.4159 78.0353 76.5202 78.7162 76.7287 79.3156C76.9437 79.9086 77.2337 80.4103 77.5985 80.8208C77.9699 81.2313 78.4 81.544 78.8887 81.7591C79.3839 81.9676 79.9117 82.0718 80.472 82.0718C80.8043 82.0718 81.1041 82.0555 81.3712 82.023C81.6449 81.9904 81.8957 81.935 82.1238 81.8568C82.3584 81.7786 82.5766 81.6776 82.7786 81.5538C82.9871 81.43 83.1956 81.2736 83.4042 81.0847C83.4758 81.026 83.5508 80.9772 83.629 80.9381C83.7071 80.899 83.7918 80.8794 83.8831 80.8794ZM95.5239 82.023C95.9995 82.023 96.4263 81.9448 96.8042 81.7884C97.1821 81.6255 97.5014 81.3974 97.7621 81.1042C98.0227 80.811 98.2214 80.4559 98.3583 80.0389C98.4951 79.6219 98.5635 79.1527 98.5635 78.6315V70.1869H101.496V78.6315C101.496 79.4915 101.356 80.2832 101.075 81.0065C100.802 81.7232 100.407 82.3422 99.8927 82.8635C99.378 83.3848 98.7525 83.792 98.0162 84.0852C97.2799 84.3784 96.4491 84.525 95.5239 84.525C94.5986 84.525 93.7646 84.3784 93.0218 84.0852C92.2855 83.792 91.66 83.3848 91.1452 82.8635C90.6305 82.3422 90.233 81.7232 89.9528 81.0065C89.6792 80.2832 89.5423 79.4915 89.5423 78.6315V70.1869H92.4745V78.6315C92.4745 79.1527 92.5429 79.6219 92.6797 80.0389C92.8165 80.4559 93.0153 80.811 93.2759 81.1042C93.5365 81.3974 93.8558 81.6255 94.2337 81.7884C94.6116 81.9448 95.0417 82.023 95.5239 82.023ZM111.327 76.9015C111.803 76.9015 112.213 76.8429 112.559 76.7256C112.904 76.6018 113.187 76.4356 113.409 76.2271C113.63 76.0121 113.793 75.7612 113.898 75.4745C114.002 75.1878 114.054 74.8751 114.054 74.5363C114.054 73.8651 113.829 73.3439 113.38 72.9725C112.936 72.601 112.259 72.4153 111.347 72.4153H109.822V76.9015H111.327ZM118.198 84.3687H115.549C115.054 84.3687 114.696 84.1797 114.474 83.8018L111.777 79.4525C111.666 79.283 111.542 79.1592 111.405 79.0811C111.275 79.0029 111.079 78.9638 110.819 78.9638H109.822V84.3687H106.89V70.1869H111.347C112.337 70.1869 113.184 70.2912 113.888 70.4997C114.591 70.7017 115.168 70.9851 115.618 71.35C116.067 71.7149 116.396 72.1515 116.605 72.6597C116.813 73.1614 116.918 73.7153 116.918 74.3212C116.918 74.7904 116.849 75.2367 116.712 75.6602C116.582 76.0772 116.39 76.4584 116.136 76.8038C115.882 77.1491 115.569 77.4553 115.197 77.7225C114.826 77.9896 114.403 78.2047 113.927 78.3676C114.116 78.4718 114.292 78.5989 114.455 78.7487C114.618 78.8921 114.764 79.0648 114.894 79.2668L118.198 84.3687ZM126.628 76.9015C127.103 76.9015 127.514 76.8429 127.859 76.7256C128.205 76.6018 128.488 76.4356 128.71 76.2271C128.931 76.0121 129.094 75.7612 129.198 75.4745C129.303 75.1878 129.355 74.8751 129.355 74.5363C129.355 73.8651 129.13 73.3439 128.68 72.9725C128.237 72.601 127.56 72.4153 126.647 72.4153H125.123V76.9015H126.628ZM133.499 84.3687H130.85C130.355 84.3687 129.997 84.1797 129.775 83.8018L127.077 79.4525C126.967 79.283 126.843 79.1592 126.706 79.0811C126.576 79.0029 126.38 78.9638 126.12 78.9638H125.123V84.3687H122.191V70.1869H126.647C127.638 70.1869 128.485 70.2912 129.189 70.4997C129.892 70.7017 130.469 70.9851 130.919 71.35C131.368 71.7149 131.697 72.1515 131.906 72.6597C132.114 73.1614 132.218 73.7153 132.218 74.3212C132.218 74.7904 132.15 75.2367 132.013 75.6602C131.883 76.0772 131.691 76.4584 131.437 76.8038C131.182 77.1491 130.87 77.4553 130.498 77.7225C130.127 77.9896 129.703 78.2047 129.228 78.3676C129.417 78.4718 129.593 78.5989 129.755 78.7487C129.918 78.8921 130.065 79.0648 130.195 79.2668L133.499 84.3687ZM140.443 72.4838V76.1294H145.173V78.348H140.443V82.0718H146.522V84.3687H137.491V70.1869H146.522V72.4838H140.443ZM163.471 70.1869V84.3687H161.956C161.728 84.3687 161.536 84.3328 161.379 84.2611C161.223 84.183 161.07 84.0526 160.92 83.8702L153.854 74.8783C153.873 75.1064 153.886 75.3312 153.893 75.5527C153.906 75.7743 153.912 75.9795 153.912 76.1685V84.3687H151.322V70.1869H152.866C152.99 70.1869 153.094 70.1934 153.179 70.2065C153.27 70.213 153.352 70.2358 153.424 70.2749C153.495 70.3075 153.564 70.3531 153.629 70.4117C153.694 70.4704 153.766 70.5486 153.844 70.6463L160.959 79.6772C160.933 79.4296 160.914 79.1918 160.9 78.9638C160.887 78.7292 160.881 78.5077 160.881 78.2991V70.1869H163.471ZM179.085 72.5522H174.941V84.3687H171.999V72.5522H167.855V70.1869H179.085V72.5522ZM192.284 77.2729C192.284 78.0222 192.381 78.6934 192.577 79.2863C192.772 79.8727 193.053 80.3712 193.417 80.7817C193.789 81.1922 194.238 81.5082 194.766 81.7297C195.294 81.9448 195.89 82.0523 196.555 82.0523C197.219 82.0523 197.812 81.9448 198.334 81.7297C198.861 81.5082 199.308 81.1922 199.673 80.7817C200.044 80.3712 200.327 79.8727 200.523 79.2863C200.718 78.6934 200.816 78.0222 200.816 77.2729C200.816 76.5301 200.718 75.8655 200.523 75.2791C200.327 74.6861 200.044 74.1844 199.673 73.7739C199.308 73.3569 198.861 73.0409 198.334 72.8258C197.812 72.6043 197.219 72.4935 196.555 72.4935C195.89 72.4935 195.294 72.6043 194.766 72.8258C194.238 73.0409 193.789 73.3569 193.417 73.7739C193.053 74.1844 192.772 74.6861 192.577 75.2791C192.381 75.8655 192.284 76.5301 192.284 77.2729ZM204.579 87.0858H202.165C201.813 87.0858 201.497 87.0401 201.217 86.9489C200.943 86.8577 200.689 86.6883 200.455 86.4407L198.529 84.3002C197.897 84.4501 197.239 84.525 196.555 84.525C195.467 84.525 194.476 84.3426 193.584 83.9777C192.691 83.6063 191.925 83.0981 191.287 82.453C190.648 81.8079 190.153 81.0423 189.801 80.1562C189.456 79.27 189.283 78.3089 189.283 77.2729C189.283 76.2369 189.456 75.2791 189.801 74.3994C190.153 73.5133 190.648 72.7477 191.287 72.1026C191.925 71.4575 192.691 70.9525 193.584 70.5877C194.476 70.2163 195.467 70.0306 196.555 70.0306C197.643 70.0306 198.633 70.2163 199.526 70.5877C200.419 70.9525 201.181 71.4608 201.813 72.1124C202.452 72.7574 202.944 73.523 203.289 74.4092C203.641 75.2888 203.817 76.2434 203.817 77.2729C203.817 77.8984 203.752 78.4979 203.621 79.0713C203.497 79.6382 203.315 80.1725 203.074 80.6742C202.833 81.1694 202.536 81.6287 202.185 82.0523C201.833 82.4758 201.435 82.8472 200.992 83.1665L204.579 87.0858ZM214.379 82.023C214.855 82.023 215.282 81.9448 215.66 81.7884C216.038 81.6255 216.357 81.3974 216.618 81.1042C216.878 80.811 217.077 80.4559 217.214 80.0389C217.351 79.6219 217.419 79.1527 217.419 78.6315V70.1869H220.351V78.6315C220.351 79.4915 220.211 80.2832 219.931 81.0065C219.657 81.7232 219.263 82.3422 218.748 82.8635C218.233 83.3848 217.608 83.792 216.872 84.0852C216.135 84.3784 215.305 84.525 214.379 84.525C213.454 84.525 212.62 84.3784 211.877 84.0852C211.141 83.792 210.515 83.3848 210.001 82.8635C209.486 82.3422 209.088 81.7232 208.808 81.0065C208.535 80.2832 208.398 79.4915 208.398 78.6315V70.1869H211.33V78.6315C211.33 79.1527 211.398 79.6219 211.535 80.0389C211.672 80.4559 211.871 80.811 212.131 81.1042C212.392 81.3974 212.711 81.6255 213.089 81.7884C213.467 81.9448 213.897 82.023 214.379 82.023ZM228.697 72.4838V76.1294H233.427V78.348H228.697V82.0718H234.776V84.3687H225.745V70.1869H234.776V72.4838H228.697ZM247.258 72.904C247.167 73.0539 247.073 73.1647 246.975 73.2363C246.884 73.3015 246.763 73.3341 246.613 73.3341C246.47 73.3341 246.314 73.2852 246.144 73.1875C245.981 73.0832 245.789 72.9725 245.567 72.8552C245.346 72.7379 245.092 72.6304 244.805 72.5326C244.518 72.4284 244.183 72.3763 243.798 72.3763C243.121 72.3763 242.613 72.5294 242.274 72.8356C241.935 73.1353 241.765 73.5296 241.765 74.0182C241.765 74.331 241.857 74.5916 242.039 74.8001C242.228 75.0021 242.472 75.1781 242.772 75.3279C243.078 75.4778 243.424 75.6114 243.808 75.7287C244.193 75.8459 244.587 75.9763 244.991 76.1196C245.395 76.2564 245.789 76.4193 246.173 76.6083C246.558 76.7972 246.9 77.0351 247.2 77.3218C247.506 77.6085 247.75 77.9603 247.933 78.3773C248.122 78.7878 248.216 79.2896 248.216 79.8825C248.216 80.5276 248.102 81.1335 247.874 81.7004C247.653 82.2608 247.33 82.7527 246.906 83.1763C246.483 83.5933 245.958 83.9223 245.333 84.1634C244.714 84.4045 244.01 84.525 243.222 84.525C242.772 84.525 242.323 84.4794 241.873 84.3882C241.43 84.297 241 84.1699 240.583 84.007C240.172 83.8441 239.785 83.6487 239.42 83.4206C239.055 83.1925 238.736 82.9384 238.462 82.6582L239.322 81.2704C239.394 81.1661 239.488 81.0814 239.605 81.0163C239.723 80.9446 239.847 80.9087 239.977 80.9087C240.153 80.9087 240.339 80.9739 240.534 81.1042C240.729 81.2345 240.954 81.3779 241.208 81.5343C241.462 81.6906 241.756 81.834 242.088 81.9643C242.427 82.0946 242.831 82.1598 243.3 82.1598C243.984 82.1598 244.512 82.0034 244.883 81.6906C245.261 81.3779 245.45 80.912 245.45 80.293C245.45 79.9346 245.356 79.6447 245.167 79.4231C244.984 79.2016 244.743 79.0159 244.443 78.866C244.144 78.7162 243.802 78.5891 243.417 78.4849C243.033 78.3741 242.639 78.2535 242.235 78.1232C241.831 77.9929 241.436 77.8365 241.052 77.6541C240.668 77.4716 240.325 77.2306 240.026 76.9308C239.726 76.6311 239.482 76.2597 239.293 75.8166C239.11 75.3735 239.019 74.823 239.019 74.1649C239.019 73.6371 239.123 73.1256 239.332 72.6304C239.54 72.1352 239.847 71.6953 240.251 71.3109C240.655 70.9265 241.15 70.617 241.736 70.3824C242.329 70.1478 243.007 70.0306 243.769 70.0306C244.623 70.0306 245.411 70.1641 246.134 70.4313C246.864 70.6919 247.48 71.0568 247.982 71.5259L247.258 72.904ZM262.987 72.5522H258.842V84.3687H255.901V72.5522H251.757V70.1869H262.987V72.5522ZM270.304 84.3687H267.352V70.1869H270.304V84.3687ZM289.579 77.2729C289.579 78.3089 289.403 79.27 289.052 80.1562C288.706 81.0423 288.214 81.8079 287.576 82.453C286.944 83.0981 286.181 83.6063 285.289 83.9777C284.396 84.3426 283.406 84.525 282.317 84.525C281.229 84.525 280.239 84.3426 279.346 83.9777C278.454 83.6063 277.688 83.0981 277.049 82.453C276.411 81.8079 275.916 81.0423 275.564 80.1562C275.218 79.27 275.046 78.3089 275.046 77.2729C275.046 76.2369 275.218 75.2791 275.564 74.3994C275.916 73.5133 276.411 72.7477 277.049 72.1026C277.688 71.4575 278.454 70.9525 279.346 70.5877C280.239 70.2163 281.229 70.0306 282.317 70.0306C283.406 70.0306 284.396 70.2163 285.289 70.5877C286.181 70.9525 286.944 71.4608 287.576 72.1124C288.214 72.7574 288.706 73.523 289.052 74.4092C289.403 75.2888 289.579 76.2434 289.579 77.2729ZM286.579 77.2729C286.579 76.5301 286.481 75.8655 286.286 75.2791C286.09 74.6861 285.807 74.1844 285.435 73.7739C285.07 73.3569 284.624 73.0409 284.096 72.8258C283.575 72.6043 282.982 72.4935 282.317 72.4935C281.653 72.4935 281.057 72.6043 280.529 72.8258C280.001 73.0409 279.551 73.3569 279.18 73.7739C278.815 74.1844 278.535 74.6861 278.339 75.2791C278.144 75.8655 278.046 76.5301 278.046 77.2729C278.046 78.0222 278.144 78.6934 278.339 79.2863C278.535 79.8727 278.815 80.3712 279.18 80.7817C279.551 81.1922 280.001 81.5082 280.529 81.7297C281.057 81.9448 281.653 82.0523 282.317 82.0523C282.982 82.0523 283.575 81.9448 284.096 81.7297C284.624 81.5082 285.07 81.1922 285.435 80.7817C285.807 80.3712 286.09 79.8727 286.286 79.2863C286.481 78.6934 286.579 78.0222 286.579 77.2729ZM306.476 70.1869V84.3687H304.961C304.733 84.3687 304.541 84.3328 304.384 84.2611C304.228 84.183 304.075 84.0526 303.925 83.8702L296.858 74.8783C296.878 75.1064 296.891 75.3312 296.898 75.5527C296.911 75.7743 296.917 75.9795 296.917 76.1685V84.3687H294.327V70.1869H295.871C295.995 70.1869 296.099 70.1934 296.184 70.2065C296.275 70.213 296.357 70.2358 296.428 70.2749C296.5 70.3075 296.568 70.3531 296.634 70.4117C296.699 70.4704 296.77 70.5486 296.849 70.6463L303.964 79.6772C303.938 79.4296 303.918 79.1918 303.905 78.9638C303.892 78.7292 303.886 78.5077 303.886 78.2991V70.1869H306.476Z" fill="#D1D1D1"/>
<path d="M302.739 178.396V201.201M291.336 189.799H314.141H291.336Z" stroke="#BB86FC" stroke-width="3.25792" stroke-linecap="round" stroke-linejoin="round"/>
<path d="M346.068 182.169V198.509H344.962C344.787 198.509 344.639 198.479 344.518 198.418C344.403 198.357 344.289 198.254 344.175 198.11L334.723 185.795C334.738 185.985 334.749 186.171 334.757 186.354C334.764 186.536 334.768 186.707 334.768 186.867V198.509H332.83V182.169H333.97C334.069 182.169 334.152 182.176 334.221 182.192C334.289 182.199 334.35 182.218 334.403 182.249C334.457 182.271 334.51 182.309 334.563 182.363C334.616 182.408 334.673 182.469 334.734 182.545L344.187 194.849C344.172 194.651 344.156 194.461 344.141 194.279C344.134 194.088 344.13 193.91 344.13 193.743V182.169H346.068ZM356.897 191.473C356.897 191.002 356.829 190.573 356.692 190.185C356.563 189.79 356.369 189.451 356.11 189.17C355.859 188.881 355.552 188.661 355.187 188.509C354.822 188.349 354.407 188.269 353.944 188.269C352.971 188.269 352.199 188.554 351.629 189.124C351.066 189.687 350.717 190.47 350.58 191.473H356.897ZM358.539 196.89C358.288 197.194 357.988 197.46 357.638 197.688C357.289 197.908 356.912 198.091 356.509 198.235C356.114 198.38 355.704 198.486 355.278 198.555C354.852 198.631 354.43 198.669 354.012 198.669C353.214 198.669 352.477 198.536 351.8 198.269C351.131 197.996 350.55 197.6 350.055 197.084C349.569 196.559 349.189 195.913 348.915 195.145C348.641 194.377 348.505 193.496 348.505 192.5C348.505 191.694 348.626 190.941 348.87 190.242C349.12 189.543 349.478 188.938 349.941 188.429C350.405 187.912 350.971 187.509 351.64 187.22C352.309 186.924 353.062 186.776 353.898 186.776C354.59 186.776 355.228 186.893 355.814 187.129C356.407 187.357 356.916 187.692 357.342 188.132C357.775 188.566 358.113 189.105 358.357 189.752C358.6 190.39 358.721 191.12 358.721 191.941C358.721 192.26 358.687 192.473 358.619 192.579C358.55 192.686 358.421 192.739 358.231 192.739H350.512C350.534 193.469 350.633 194.104 350.808 194.643C350.99 195.183 351.241 195.635 351.561 196C351.88 196.358 352.26 196.627 352.701 196.81C353.142 196.985 353.636 197.072 354.183 197.072C354.693 197.072 355.13 197.015 355.495 196.901C355.867 196.779 356.186 196.65 356.452 196.513C356.718 196.377 356.939 196.251 357.114 196.137C357.296 196.016 357.452 195.955 357.581 195.955C357.748 195.955 357.878 196.019 357.969 196.149L358.539 196.89ZM376.788 186.958L373.048 198.509H371.441C371.243 198.509 371.106 198.38 371.03 198.121L368.476 190.288C368.415 190.113 368.366 189.938 368.328 189.763C368.29 189.581 368.252 189.402 368.214 189.227C368.176 189.402 368.138 189.581 368.1 189.763C368.062 189.938 368.012 190.117 367.951 190.299L365.352 198.121C365.283 198.38 365.131 198.509 364.895 198.509H363.367L359.627 186.958H361.224C361.383 186.958 361.516 187 361.623 187.083C361.737 187.167 361.813 187.266 361.851 187.38L364.063 194.814C364.192 195.362 364.295 195.879 364.371 196.365C364.439 196.114 364.508 195.86 364.576 195.601C364.652 195.343 364.732 195.08 364.816 194.814L367.256 187.334C367.294 187.22 367.358 187.125 367.45 187.049C367.548 186.973 367.666 186.935 367.803 186.935H368.693C368.845 186.935 368.97 186.973 369.069 187.049C369.168 187.125 369.236 187.22 369.274 187.334L371.657 194.814C371.741 195.08 371.817 195.343 371.885 195.601C371.954 195.86 372.018 196.114 372.079 196.365C372.117 196.114 372.163 195.863 372.216 195.613C372.277 195.354 372.341 195.088 372.41 194.814L374.668 187.38C374.706 187.258 374.778 187.159 374.884 187.083C374.991 187 375.116 186.958 375.261 186.958H376.788ZM388.946 190.641C389.577 190.641 390.131 190.557 390.61 190.39C391.097 190.223 391.504 189.991 391.83 189.695C392.165 189.391 392.416 189.029 392.583 188.611C392.75 188.193 392.834 187.733 392.834 187.232C392.834 186.19 392.511 185.377 391.865 184.791C391.226 184.206 390.253 183.913 388.946 183.913H386.323V190.641H388.946ZM388.946 182.169C389.979 182.169 390.876 182.29 391.637 182.534C392.404 182.769 393.039 183.108 393.541 183.549C394.043 183.989 394.415 184.522 394.658 185.145C394.909 185.768 395.035 186.464 395.035 187.232C395.035 187.992 394.902 188.687 394.636 189.318C394.369 189.949 393.978 190.493 393.461 190.949C392.952 191.405 392.317 191.762 391.557 192.021C390.804 192.272 389.934 192.397 388.946 192.397H386.323V198.509H384.122V182.169H388.946ZM401.363 186.776C402.207 186.776 402.967 186.916 403.644 187.197C404.32 187.479 404.898 187.878 405.377 188.395C405.856 188.912 406.221 189.539 406.472 190.276C406.73 191.006 406.859 191.823 406.859 192.728C406.859 193.64 406.73 194.461 406.472 195.191C406.221 195.92 405.856 196.544 405.377 197.061C404.898 197.578 404.32 197.977 403.644 198.258C402.967 198.532 402.207 198.669 401.363 198.669C400.512 198.669 399.744 198.532 399.06 198.258C398.383 197.977 397.806 197.578 397.327 197.061C396.848 196.544 396.479 195.92 396.221 195.191C395.97 194.461 395.844 193.64 395.844 192.728C395.844 191.823 395.97 191.006 396.221 190.276C396.479 189.539 396.848 188.912 397.327 188.395C397.806 187.878 398.383 187.479 399.06 187.197C399.744 186.916 400.512 186.776 401.363 186.776ZM401.363 197.084C402.504 197.084 403.355 196.703 403.917 195.943C404.48 195.176 404.761 194.107 404.761 192.739C404.761 191.363 404.48 190.291 403.917 189.524C403.355 188.756 402.504 188.372 401.363 188.372C400.785 188.372 400.28 188.471 399.847 188.668C399.421 188.866 399.064 189.151 398.775 189.524C398.494 189.896 398.281 190.356 398.136 190.903C397.999 191.443 397.931 192.055 397.931 192.739C397.931 194.107 398.212 195.176 398.775 195.943C399.345 196.703 400.208 197.084 401.363 197.084ZM411.287 181.713V198.509H409.258V181.713H411.287ZM416.433 181.713V198.509H414.403V181.713H416.433Z" fill="#BB86FC"/>
<rect x="30.3155" y="158.441" width="640.995" height="62.7149" rx="6.92308" stroke="#BB86FC" stroke-width="2.44344"/>
</g>
<defs>
<clipPath id="clip0_1334_46871">
<rect width="700.453" height="325.792" fill="white" transform="translate(0 0.839233)"/>
</clipPath>
</defs>
</svg>
