<svg width="331" height="326" viewBox="0 0 331 326" fill="none" xmlns="http://www.w3.org/2000/svg">
<g clip-path="url(#clip0_1334_46869)">
<path d="M16.2896 2.62203H313.775C321.422 2.62203 327.621 8.82116 327.621 16.4682V309.681C327.621 317.328 321.422 323.527 313.775 323.527H16.2896C8.64256 323.527 2.44344 317.328 2.44344 309.681V16.4682C2.44344 8.82115 8.64257 2.62203 16.2896 2.62203Z" fill="#323233" stroke="#292929" stroke-width="4.88688"/>
<path d="M31.3605 55.9675C31.3605 56.7168 31.4582 57.3879 31.6537 57.9809C31.8492 58.5673 32.1293 59.0658 32.4942 59.4763C32.8656 59.8868 33.3152 60.2028 33.843 60.4243C34.3708 60.6393 34.967 60.7469 35.6316 60.7469C36.2962 60.7469 36.8892 60.6393 37.4104 60.4243C37.9382 60.2028 38.3845 59.8868 38.7494 59.4763C39.1208 59.0658 39.4043 58.5673 39.5997 57.9809C39.7952 57.3879 39.893 56.7168 39.893 55.9675C39.893 55.2247 39.7952 54.5601 39.5997 53.9736C39.4043 53.3807 39.1208 52.879 38.7494 52.4685C38.3845 52.0515 37.9382 51.7354 37.4104 51.5204C36.8892 51.2989 36.2962 51.1881 35.6316 51.1881C34.967 51.1881 34.3708 51.2989 33.843 51.5204C33.3152 51.7354 32.8656 52.0515 32.4942 52.4685C32.1293 52.879 31.8492 53.3807 31.6537 53.9736C31.4582 54.5601 31.3605 55.2247 31.3605 55.9675ZM43.6559 65.7803H41.2417C40.8899 65.7803 40.5739 65.7347 40.2937 65.6435C40.02 65.5523 39.7659 65.3829 39.5313 65.1353L37.6059 62.9948C36.9739 63.1447 36.3158 63.2196 35.6316 63.2196C34.5435 63.2196 33.5531 63.0372 32.6604 62.6723C31.7677 62.3009 31.0021 61.7926 30.3635 61.1476C29.725 60.5025 29.2298 59.7369 28.8779 58.8507C28.5326 57.9646 28.3599 57.0035 28.3599 55.9675C28.3599 54.9315 28.5326 53.9736 28.8779 53.094C29.2298 52.2078 29.725 51.4422 30.3635 50.7972C31.0021 50.1521 31.7677 49.6471 32.6604 49.2822C33.5531 48.9108 34.5435 48.7251 35.6316 48.7251C36.7197 48.7251 37.7102 48.9108 38.6028 49.2822C39.4955 49.6471 40.2578 50.1554 40.8899 50.8069C41.5284 51.452 42.0204 52.2176 42.3657 53.1038C42.7176 53.9834 42.8935 54.938 42.8935 55.9675C42.8935 56.593 42.8283 57.1925 42.698 57.7659C42.5742 58.3327 42.3918 58.867 42.1507 59.3688C41.9096 59.864 41.6131 60.3233 41.2613 60.7469C40.9094 61.1704 40.512 61.5418 40.0689 61.8611L43.6559 65.7803ZM53.4561 60.7175C53.9318 60.7175 54.3586 60.6393 54.7365 60.483C55.1144 60.3201 55.4337 60.092 55.6943 59.7988C55.955 59.5056 56.1537 59.1505 56.2905 58.7335C56.4274 58.3164 56.4958 57.8473 56.4958 57.326V48.8815H59.4279V57.326C59.4279 58.1861 59.2878 58.9778 59.0076 59.7011C58.734 60.4178 58.3398 61.0368 57.825 61.5581C57.3103 62.0793 56.6847 62.4866 55.9484 62.7798C55.2122 63.073 54.3814 63.2196 53.4561 63.2196C52.5309 63.2196 51.6969 63.073 50.9541 62.7798C50.2178 62.4866 49.5922 62.0793 49.0775 61.5581C48.5627 61.0368 48.1653 60.4178 47.8851 59.7011C47.6114 58.9778 47.4746 58.1861 47.4746 57.326V48.8815H50.4067V57.326C50.4067 57.8473 50.4751 58.3164 50.612 58.7335C50.7488 59.1505 50.9475 59.5056 51.2082 59.7988C51.4688 60.092 51.7881 60.3201 52.166 60.483C52.5439 60.6393 52.974 60.7175 53.4561 60.7175ZM67.7737 51.1783V54.824H72.5042V57.0426H67.7737V60.7664H73.853V63.0632H64.822V48.8815H73.853V51.1783H67.7737ZM86.3351 51.5986C86.2439 51.7485 86.1494 51.8592 86.0517 51.9309C85.9604 51.9961 85.8399 52.0287 85.69 52.0287C85.5467 52.0287 85.3903 51.9798 85.2209 51.8821C85.058 51.7778 84.8658 51.667 84.6442 51.5497C84.4227 51.4325 84.1686 51.325 83.8819 51.2272C83.5952 51.123 83.2596 51.0708 82.8752 51.0708C82.1975 51.0708 81.6893 51.224 81.3505 51.5302C81.0117 51.8299 80.8422 52.2241 80.8422 52.7128C80.8422 53.0256 80.9335 53.2862 81.1159 53.4947C81.3049 53.6967 81.5492 53.8726 81.8489 54.0225C82.1552 54.1724 82.5005 54.3059 82.885 54.4232C83.2694 54.5405 83.6636 54.6708 84.0676 54.8142C84.4716 54.951 84.8658 55.1139 85.2502 55.3029C85.6346 55.4918 85.9767 55.7297 86.2765 56.0164C86.5827 56.3031 86.827 56.6549 87.0095 57.0719C87.1984 57.4824 87.2929 57.9841 87.2929 58.5771C87.2929 59.2221 87.1789 59.8281 86.9508 60.395C86.7293 60.9554 86.4068 61.4473 85.9832 61.8708C85.5597 62.2878 85.0352 62.6169 84.4097 62.858C83.7907 63.0991 83.087 63.2196 82.2985 63.2196C81.8489 63.2196 81.3994 63.174 80.9498 63.0828C80.5067 62.9916 80.0766 62.8645 79.6596 62.7016C79.2491 62.5387 78.8614 62.3432 78.4965 62.1152C78.1317 61.8871 77.8124 61.633 77.5387 61.3528L78.3988 59.965C78.4705 59.8607 78.565 59.776 78.6822 59.7108C78.7995 59.6392 78.9233 59.6033 79.0537 59.6033C79.2296 59.6033 79.4153 59.6685 79.6108 59.7988C79.8062 59.9291 80.031 60.0725 80.2851 60.2288C80.5393 60.3852 80.8325 60.5286 81.1648 60.6589C81.5036 60.7892 81.9076 60.8544 82.3767 60.8544C83.0609 60.8544 83.5887 60.698 83.9601 60.3852C84.338 60.0725 84.527 59.6066 84.527 58.9876C84.527 58.6292 84.4325 58.3392 84.2435 58.1177C84.0611 57.8962 83.82 57.7105 83.5203 57.5606C83.2205 57.4107 82.8784 57.2837 82.494 57.1794C82.1096 57.0687 81.7154 56.9481 81.3114 56.8178C80.9074 56.6875 80.5132 56.5311 80.1288 56.3487C79.7443 56.1662 79.4022 55.9251 79.1025 55.6254C78.8028 55.3257 78.5584 54.9543 78.3695 54.5112C78.187 54.0681 78.0958 53.5175 78.0958 52.8594C78.0958 52.3316 78.2001 51.8202 78.4086 51.325C78.6171 50.8297 78.9233 50.3899 79.3273 50.0055C79.7313 49.6211 80.2265 49.3116 80.8129 49.077C81.4059 48.8424 82.0835 48.7251 82.8459 48.7251C83.6994 48.7251 84.4879 48.8587 85.2111 49.1259C85.9409 49.3865 86.5566 49.7514 87.0584 50.2205L86.3351 51.5986ZM102.063 51.2468H97.9192V63.0632H94.9773V51.2468H90.8333V48.8815H102.063V51.2468ZM109.381 63.0632H106.429V48.8815H109.381V63.0632ZM128.656 55.9675C128.656 57.0035 128.48 57.9646 128.128 58.8507C127.783 59.7369 127.291 60.5025 126.652 61.1476C126.02 61.7926 125.258 62.3009 124.365 62.6723C123.473 63.0372 122.482 63.2196 121.394 63.2196C120.306 63.2196 119.316 63.0372 118.423 62.6723C117.53 62.3009 116.765 61.7926 116.126 61.1476C115.488 60.5025 114.992 59.7369 114.641 58.8507C114.295 57.9646 114.123 57.0035 114.123 55.9675C114.123 54.9315 114.295 53.9736 114.641 53.094C114.992 52.2078 115.488 51.4422 116.126 50.7972C116.765 50.1521 117.53 49.6471 118.423 49.2822C119.316 48.9108 120.306 48.7251 121.394 48.7251C122.482 48.7251 123.473 48.9108 124.365 49.2822C125.258 49.6471 126.02 50.1554 126.652 50.8069C127.291 51.452 127.783 52.2176 128.128 53.1038C128.48 53.9834 128.656 54.938 128.656 55.9675ZM125.656 55.9675C125.656 55.2247 125.558 54.5601 125.362 53.9736C125.167 53.3807 124.883 52.879 124.512 52.4685C124.147 52.0515 123.701 51.7354 123.173 51.5204C122.652 51.2989 122.059 51.1881 121.394 51.1881C120.73 51.1881 120.133 51.2989 119.606 51.5204C119.078 51.7354 118.628 52.0515 118.257 52.4685C117.892 52.879 117.612 53.3807 117.416 53.9736C117.221 54.5601 117.123 55.2247 117.123 55.9675C117.123 56.7168 117.221 57.3879 117.416 57.9809C117.612 58.5673 117.892 59.0658 118.257 59.4763C118.628 59.8868 119.078 60.2028 119.606 60.4243C120.133 60.6393 120.73 60.7469 121.394 60.7469C122.059 60.7469 122.652 60.6393 123.173 60.4243C123.701 60.2028 124.147 59.8868 124.512 59.4763C124.883 59.0658 125.167 58.5673 125.362 57.9809C125.558 57.3879 125.656 56.7168 125.656 55.9675ZM145.553 48.8815V63.0632H144.038C143.81 63.0632 143.617 63.0274 143.461 62.9557C143.305 62.8775 143.151 62.7472 143.002 62.5648L135.935 53.5729C135.955 53.801 135.968 54.0258 135.974 54.2473C135.987 54.4688 135.994 54.6741 135.994 54.8631V63.0632H133.404V48.8815H134.948C135.072 48.8815 135.176 48.888 135.261 48.9011C135.352 48.9076 135.433 48.9304 135.505 48.9695C135.577 49.0021 135.645 49.0477 135.71 49.1063C135.776 49.165 135.847 49.2431 135.925 49.3409L143.041 58.3718C143.015 58.1242 142.995 57.8864 142.982 57.6583C142.969 57.4238 142.963 57.2022 142.963 56.9937V48.8815H145.553ZM158.811 51.5986C158.72 51.7485 158.625 51.8592 158.528 51.9309C158.436 51.9961 158.316 52.0287 158.166 52.0287C158.023 52.0287 157.866 51.9798 157.697 51.8821C157.534 51.7778 157.342 51.667 157.12 51.5497C156.899 51.4325 156.645 51.325 156.358 51.2272C156.071 51.123 155.736 51.0708 155.351 51.0708C154.674 51.0708 154.165 51.224 153.826 51.5302C153.488 51.8299 153.318 52.2241 153.318 52.7128C153.318 53.0256 153.409 53.2862 153.592 53.4947C153.781 53.6967 154.025 53.8726 154.325 54.0225C154.631 54.1724 154.976 54.3059 155.361 54.4232C155.745 54.5405 156.14 54.6708 156.544 54.8142C156.948 54.951 157.342 55.1139 157.726 55.3029C158.111 55.4918 158.453 55.7297 158.752 56.0164C159.059 56.3031 159.303 56.6549 159.485 57.0719C159.674 57.4824 159.769 57.9841 159.769 58.5771C159.769 59.2221 159.655 59.8281 159.427 60.395C159.205 60.9554 158.883 61.4473 158.459 61.8708C158.036 62.2878 157.511 62.6169 156.886 62.858C156.267 63.0991 155.563 63.2196 154.775 63.2196C154.325 63.2196 153.875 63.174 153.426 63.0828C152.983 62.9916 152.553 62.8645 152.136 62.7016C151.725 62.5387 151.337 62.3432 150.973 62.1152C150.608 61.8871 150.288 61.633 150.015 61.3528L150.875 59.965C150.946 59.8607 151.041 59.776 151.158 59.7108C151.275 59.6392 151.399 59.6033 151.53 59.6033C151.706 59.6033 151.891 59.6685 152.087 59.7988C152.282 59.9291 152.507 60.0725 152.761 60.2288C153.015 60.3852 153.308 60.5286 153.641 60.6589C153.98 60.7892 154.384 60.8544 154.853 60.8544C155.537 60.8544 156.065 60.698 156.436 60.3852C156.814 60.0725 157.003 59.6066 157.003 58.9876C157.003 58.6292 156.908 58.3392 156.719 58.1177C156.537 57.8962 156.296 57.7105 155.996 57.5606C155.696 57.4107 155.354 57.2837 154.97 57.1794C154.586 57.0687 154.191 56.9481 153.787 56.8178C153.383 56.6875 152.989 56.5311 152.605 56.3487C152.22 56.1662 151.878 55.9251 151.578 55.6254C151.279 55.3257 151.034 54.9543 150.845 54.5112C150.663 54.0681 150.572 53.5175 150.572 52.8594C150.572 52.3316 150.676 51.8202 150.885 51.325C151.093 50.8297 151.399 50.3899 151.803 50.0055C152.207 49.6211 152.702 49.3116 153.289 49.077C153.882 48.8424 154.559 48.7251 155.322 48.7251C156.175 48.7251 156.964 48.8587 157.687 49.1259C158.417 49.3865 159.033 49.7514 159.534 50.2205L158.811 51.5986ZM178.565 57.6779L177.031 53.3383C176.94 53.1103 176.842 52.8431 176.738 52.5369C176.64 52.2307 176.545 51.8983 176.454 51.54C176.363 51.9049 176.265 52.2437 176.161 52.5564C176.063 52.8627 175.969 53.1298 175.877 53.3579L174.353 57.6779H178.565ZM183.491 63.0632H181.214C180.96 63.0632 180.751 63.0046 180.588 62.8873C180.432 62.7635 180.315 62.6071 180.237 62.4182L179.279 59.7108H173.63L172.672 62.4182C172.607 62.5811 172.492 62.7309 172.33 62.8678C172.167 62.9981 171.961 63.0632 171.714 63.0632H169.417L174.959 48.8815H177.959L183.491 63.0632ZM195.092 51.5986C195.001 51.7485 194.907 51.8592 194.809 51.9309C194.718 51.9961 194.597 52.0287 194.447 52.0287C194.304 52.0287 194.148 51.9798 193.978 51.8821C193.815 51.7778 193.623 51.667 193.401 51.5497C193.18 51.4325 192.926 51.325 192.639 51.2272C192.352 51.123 192.017 51.0708 191.632 51.0708C190.955 51.0708 190.447 51.224 190.108 51.5302C189.769 51.8299 189.599 52.2241 189.599 52.7128C189.599 53.0256 189.691 53.2862 189.873 53.4947C190.062 53.6967 190.306 53.8726 190.606 54.0225C190.912 54.1724 191.258 54.3059 191.642 54.4232C192.027 54.5405 192.421 54.6708 192.825 54.8142C193.229 54.951 193.623 55.1139 194.007 55.3029C194.392 55.4918 194.734 55.7297 195.034 56.0164C195.34 56.3031 195.584 56.6549 195.767 57.0719C195.956 57.4824 196.05 57.9841 196.05 58.5771C196.05 59.2221 195.936 59.8281 195.708 60.395C195.487 60.9554 195.164 61.4473 194.74 61.8708C194.317 62.2878 193.792 62.6169 193.167 62.858C192.548 63.0991 191.844 63.2196 191.056 63.2196C190.606 63.2196 190.157 63.174 189.707 63.0828C189.264 62.9916 188.834 62.8645 188.417 62.7016C188.006 62.5387 187.619 62.3432 187.254 62.1152C186.889 61.8871 186.57 61.633 186.296 61.3528L187.156 59.965C187.228 59.8607 187.322 59.776 187.439 59.7108C187.557 59.6392 187.681 59.6033 187.811 59.6033C187.987 59.6033 188.172 59.6685 188.368 59.7988C188.563 59.9291 188.788 60.0725 189.042 60.2288C189.296 60.3852 189.59 60.5286 189.922 60.6589C190.261 60.7892 190.665 60.8544 191.134 60.8544C191.818 60.8544 192.346 60.698 192.717 60.3852C193.095 60.0725 193.284 59.6066 193.284 58.9876C193.284 58.6292 193.19 58.3392 193.001 58.1177C192.818 57.8962 192.577 57.7105 192.277 57.5606C191.978 57.4107 191.636 57.2837 191.251 57.1794C190.867 57.0687 190.473 56.9481 190.069 56.8178C189.665 56.6875 189.27 56.5311 188.886 56.3487C188.502 56.1662 188.159 55.9251 187.86 55.6254C187.56 55.3257 187.316 54.9543 187.127 54.5112C186.944 54.0681 186.853 53.5175 186.853 52.8594C186.853 52.3316 186.957 51.8202 187.166 51.325C187.374 50.8297 187.681 50.3899 188.085 50.0055C188.489 49.6211 188.984 49.3116 189.57 49.077C190.163 48.8424 190.841 48.7251 191.603 48.7251C192.457 48.7251 193.245 48.8587 193.968 49.1259C194.698 49.3865 195.314 49.7514 195.816 50.2205L195.092 51.5986ZM203.715 54.736H204.292C204.774 54.736 205.122 54.5861 205.337 54.2864L208.924 49.4875C209.094 49.2594 209.28 49.1031 209.482 49.0183C209.684 48.9271 209.931 48.8815 210.224 48.8815H212.766L208.25 54.6969C207.957 55.0748 207.654 55.3452 207.341 55.5081C207.569 55.5993 207.774 55.7199 207.957 55.8697C208.139 56.0131 208.315 56.2053 208.485 56.4464L213.117 63.0632H210.508C210.338 63.0632 210.192 63.0502 210.068 63.0241C209.951 62.9981 209.846 62.9622 209.755 62.9166C209.664 62.871 209.586 62.8156 209.521 62.7505C209.455 62.6788 209.394 62.5974 209.335 62.5061L205.689 57.4042C205.566 57.2283 205.419 57.1045 205.249 57.0328C205.08 56.9546 204.842 56.9155 204.536 56.9155H203.715V63.0632H200.783V48.8815H203.715V54.736ZM219.933 51.1783V54.824H224.663V57.0426H219.933V60.7664H226.012V63.0632H216.981V48.8815H226.012V51.1783H219.933ZM243.527 55.9675C243.527 57.0035 243.351 57.9581 243 58.8312C242.654 59.6978 242.162 60.4439 241.524 61.0694C240.892 61.6949 240.129 62.1836 239.237 62.5354C238.344 62.8873 237.354 63.0632 236.265 63.0632H230.812V48.8815H236.265C237.354 48.8815 238.344 49.0574 239.237 49.4093C240.129 49.7611 240.892 50.2531 241.524 50.8851C242.162 51.5107 242.654 52.2567 243 53.1233C243.351 53.9899 243.527 54.938 243.527 55.9675ZM240.517 55.9675C240.517 55.2247 240.419 54.5568 240.224 53.9639C240.028 53.3709 239.748 52.8692 239.383 52.4587C239.018 52.0482 238.572 51.7322 238.044 51.5107C237.523 51.2891 236.93 51.1783 236.265 51.1783H233.763V60.7664H236.265C236.93 60.7664 237.523 60.6589 238.044 60.4439C238.572 60.2223 239.018 59.9063 239.383 59.4958C239.748 59.0788 240.028 58.5738 240.224 57.9809C240.419 57.3879 240.517 56.7168 240.517 55.9675Z" fill="#BB86FC"/>
<path d="M282.857 51.8573L287.148 56.1482L279.588 63.708H275.297V59.417L282.857 51.8573ZM292.916 48.9427L290.062 46.0888C289.968 45.9939 289.856 45.9186 289.733 45.8673C289.61 45.8159 289.477 45.7894 289.344 45.7894C289.21 45.7894 289.078 45.8159 288.954 45.8673C288.831 45.9186 288.719 45.9939 288.625 46.0888L285.711 49.0034L290.001 53.2943L292.916 50.3797C293.011 50.2856 293.086 50.1737 293.138 50.0504C293.189 49.9271 293.215 49.7948 293.215 49.6612C293.215 49.5276 293.189 49.3953 293.138 49.272C293.086 49.1487 293.011 49.0367 292.916 48.9427V48.9427Z" fill="#D1D1D1" stroke="#D1D1D1" stroke-width="1.01202" stroke-linecap="round" stroke-linejoin="round"/>
<path d="M52.1331 116.649C52.1331 119.348 49.9452 121.536 47.2463 121.536C44.5473 121.536 42.3594 119.348 42.3594 116.649C42.3594 113.95 44.5473 111.762 47.2463 111.762C49.9452 111.762 52.1331 113.95 52.1331 116.649Z" fill="#D1D1D1"/>
<path d="M89.6769 116.985C89.6769 117.988 89.8138 118.889 90.0874 119.687C90.3611 120.478 90.7488 121.151 91.2505 121.706C91.7598 122.253 92.3718 122.675 93.0863 122.971C93.8009 123.26 94.5953 123.405 95.4695 123.405C96.3513 123.405 97.1495 123.26 97.8641 122.971C98.5787 122.675 99.1868 122.253 99.6885 121.706C100.19 121.151 100.578 120.478 100.852 119.687C101.125 118.889 101.262 117.988 101.262 116.985C101.262 115.981 101.125 115.081 100.852 114.282C100.578 113.484 100.19 112.811 99.6885 112.264C99.1868 111.709 98.5787 111.283 97.8641 110.987C97.1495 110.691 96.3513 110.542 95.4695 110.542C94.5953 110.542 93.8009 110.691 93.0863 110.987C92.3718 111.283 91.7598 111.709 91.2505 112.264C90.7488 112.811 90.3611 113.484 90.0874 114.282C89.8138 115.081 89.6769 115.981 89.6769 116.985ZM104.284 128.524H102.459C102.186 128.524 101.942 128.486 101.73 128.41C101.517 128.334 101.323 128.201 101.148 128.011L98.286 124.887C97.4194 125.176 96.4806 125.32 95.4695 125.32C94.2684 125.32 93.1738 125.119 92.1855 124.716C91.1973 124.305 90.3497 123.731 89.6427 122.994C88.9358 122.257 88.3884 121.379 88.0007 120.36C87.613 119.334 87.4192 118.209 87.4192 116.985C87.4192 115.761 87.613 114.64 88.0007 113.621C88.3884 112.595 88.9358 111.713 89.6427 110.976C90.3497 110.231 91.1973 109.653 92.1855 109.242C93.1738 108.832 94.2684 108.627 95.4695 108.627C96.6706 108.627 97.7653 108.832 98.7535 109.242C99.7493 109.653 100.601 110.231 101.308 110.976C102.015 111.713 102.562 112.595 102.95 113.621C103.337 114.64 103.531 115.761 103.531 116.985C103.531 117.753 103.451 118.482 103.292 119.174C103.14 119.866 102.915 120.512 102.619 121.113C102.323 121.706 101.961 122.245 101.536 122.732C101.11 123.218 100.631 123.64 100.099 123.997L104.284 128.524ZM115.282 113.598V125.149H114.073C113.784 125.149 113.602 125.009 113.526 124.727L113.366 123.484C112.864 124.039 112.302 124.488 111.679 124.83C111.055 125.164 110.341 125.332 109.535 125.332C108.904 125.332 108.345 125.229 107.859 125.024C107.38 124.811 106.977 124.514 106.65 124.134C106.323 123.754 106.076 123.294 105.909 122.755C105.749 122.215 105.669 121.618 105.669 120.964V113.598H107.699V120.964C107.699 121.839 107.897 122.515 108.292 122.994C108.695 123.473 109.307 123.712 110.128 123.712C110.728 123.712 111.287 123.572 111.804 123.291C112.329 123.002 112.811 122.606 113.252 122.105V113.598H115.282ZM125.987 118.114C125.987 117.642 125.918 117.213 125.782 116.825C125.652 116.43 125.458 116.092 125.2 115.81C124.949 115.521 124.641 115.301 124.276 115.149C123.911 114.989 123.497 114.91 123.033 114.91C122.06 114.91 121.289 115.195 120.719 115.765C120.156 116.327 119.806 117.11 119.67 118.114H125.987ZM127.629 123.53C127.378 123.834 127.078 124.1 126.728 124.328C126.378 124.549 126.002 124.731 125.599 124.876C125.204 125.02 124.793 125.126 124.368 125.195C123.942 125.271 123.52 125.309 123.102 125.309C122.304 125.309 121.566 125.176 120.89 124.91C120.221 124.636 119.639 124.241 119.145 123.724C118.659 123.199 118.279 122.553 118.005 121.785C117.731 121.018 117.594 120.136 117.594 119.14C117.594 118.334 117.716 117.582 117.959 116.882C118.21 116.183 118.567 115.578 119.031 115.069C119.495 114.552 120.061 114.149 120.73 113.86C121.399 113.564 122.152 113.416 122.988 113.416C123.68 113.416 124.318 113.534 124.904 113.769C125.496 113.997 126.006 114.332 126.431 114.773C126.865 115.206 127.203 115.746 127.446 116.392C127.69 117.03 127.811 117.76 127.811 118.581C127.811 118.9 127.777 119.113 127.709 119.22C127.64 119.326 127.511 119.379 127.321 119.379H119.601C119.624 120.109 119.723 120.744 119.898 121.284C120.08 121.823 120.331 122.276 120.65 122.641C120.97 122.998 121.35 123.268 121.791 123.45C122.231 123.625 122.726 123.712 123.273 123.712C123.782 123.712 124.219 123.655 124.584 123.541C124.957 123.42 125.276 123.291 125.542 123.154C125.808 123.017 126.029 122.891 126.203 122.777C126.386 122.656 126.542 122.595 126.671 122.595C126.838 122.595 126.967 122.66 127.059 122.789L127.629 123.53ZM136.788 115.502C136.696 115.67 136.556 115.753 136.366 115.753C136.252 115.753 136.122 115.712 135.978 115.628C135.834 115.544 135.655 115.453 135.442 115.354C135.237 115.248 134.99 115.153 134.701 115.069C134.412 114.978 134.07 114.932 133.675 114.932C133.333 114.932 133.025 114.978 132.751 115.069C132.477 115.153 132.242 115.271 132.044 115.423C131.854 115.575 131.706 115.753 131.599 115.959C131.5 116.156 131.451 116.373 131.451 116.609C131.451 116.905 131.535 117.152 131.702 117.35C131.877 117.547 132.105 117.718 132.386 117.863C132.667 118.007 132.987 118.137 133.344 118.251C133.701 118.357 134.066 118.475 134.439 118.604C134.819 118.726 135.187 118.862 135.545 119.015C135.902 119.167 136.221 119.357 136.502 119.585C136.784 119.813 137.008 120.094 137.175 120.428C137.35 120.755 137.438 121.151 137.438 121.614C137.438 122.146 137.342 122.641 137.152 123.097C136.962 123.545 136.681 123.937 136.309 124.271C135.936 124.598 135.48 124.857 134.94 125.047C134.401 125.237 133.777 125.332 133.07 125.332C132.264 125.332 131.535 125.202 130.881 124.944C130.227 124.678 129.672 124.34 129.216 123.929L129.695 123.154C129.756 123.055 129.828 122.979 129.912 122.926C129.995 122.872 130.102 122.846 130.231 122.846C130.368 122.846 130.512 122.899 130.664 123.005C130.816 123.112 130.999 123.23 131.212 123.359C131.432 123.488 131.698 123.606 132.01 123.712C132.321 123.819 132.709 123.872 133.173 123.872C133.568 123.872 133.914 123.823 134.211 123.724C134.507 123.617 134.754 123.477 134.952 123.302C135.149 123.127 135.294 122.926 135.385 122.698C135.484 122.47 135.533 122.226 135.533 121.968C135.533 121.649 135.446 121.386 135.271 121.181C135.104 120.968 134.879 120.79 134.598 120.645C134.317 120.493 133.994 120.364 133.629 120.257C133.272 120.143 132.903 120.026 132.523 119.904C132.15 119.782 131.782 119.645 131.417 119.493C131.06 119.334 130.74 119.136 130.459 118.9C130.178 118.665 129.95 118.376 129.775 118.034C129.608 117.684 129.524 117.262 129.524 116.768C129.524 116.327 129.615 115.905 129.798 115.502C129.98 115.092 130.246 114.735 130.596 114.431C130.946 114.119 131.375 113.872 131.884 113.689C132.394 113.507 132.975 113.416 133.629 113.416C134.389 113.416 135.07 113.537 135.67 113.781C136.278 114.016 136.803 114.343 137.244 114.761L136.788 115.502ZM150.4 125.149H148.37V115.297H142.418V122.23C142.418 122.717 142.536 123.078 142.772 123.313C143.007 123.549 143.311 123.667 143.684 123.667C143.897 123.667 144.079 123.64 144.231 123.587C144.391 123.526 144.528 123.462 144.642 123.393C144.756 123.325 144.851 123.264 144.927 123.211C145.01 123.15 145.083 123.119 145.144 123.119C145.25 123.119 145.345 123.184 145.429 123.313L146.022 124.283C145.672 124.609 145.25 124.868 144.756 125.058C144.262 125.24 143.752 125.332 143.228 125.332C142.316 125.332 141.612 125.077 141.118 124.568C140.632 124.058 140.389 123.325 140.389 122.367V115.297H138.997C138.876 115.297 138.773 115.263 138.69 115.195C138.606 115.119 138.564 115.005 138.564 114.853V114.043L140.457 113.792L140.925 110.234C140.947 110.12 140.997 110.029 141.073 109.961C141.156 109.885 141.263 109.847 141.392 109.847H142.418V113.826H150.4V125.149ZM150.902 109.892C150.902 110.09 150.86 110.276 150.776 110.451C150.7 110.618 150.594 110.767 150.457 110.896C150.328 111.025 150.176 111.128 150.001 111.204C149.826 111.28 149.64 111.318 149.442 111.318C149.245 111.318 149.058 111.28 148.884 111.204C148.716 111.128 148.568 111.025 148.439 110.896C148.31 110.767 148.207 110.618 148.131 110.451C148.055 110.276 148.017 110.09 148.017 109.892C148.017 109.695 148.055 109.508 148.131 109.334C148.207 109.151 148.31 108.995 148.439 108.866C148.568 108.729 148.716 108.623 148.884 108.547C149.058 108.471 149.245 108.433 149.442 108.433C149.64 108.433 149.826 108.471 150.001 108.547C150.176 108.623 150.328 108.729 150.457 108.866C150.594 108.995 150.7 109.151 150.776 109.334C150.86 109.508 150.902 109.695 150.902 109.892ZM158.359 113.416C159.203 113.416 159.963 113.556 160.64 113.838C161.316 114.119 161.894 114.518 162.373 115.035C162.852 115.552 163.217 116.179 163.468 116.916C163.726 117.646 163.855 118.463 163.855 119.368C163.855 120.28 163.726 121.101 163.468 121.831C163.217 122.561 162.852 123.184 162.373 123.701C161.894 124.218 161.316 124.617 160.64 124.898C159.963 125.172 159.203 125.309 158.359 125.309C157.508 125.309 156.74 125.172 156.056 124.898C155.379 124.617 154.802 124.218 154.323 123.701C153.844 123.184 153.475 122.561 153.217 121.831C152.966 121.101 152.84 120.28 152.84 119.368C152.84 118.463 152.966 117.646 153.217 116.916C153.475 116.179 153.844 115.552 154.323 115.035C154.802 114.518 155.379 114.119 156.056 113.838C156.74 113.556 157.508 113.416 158.359 113.416ZM158.359 123.724C159.499 123.724 160.351 123.344 160.913 122.584C161.476 121.816 161.757 120.748 161.757 119.379C161.757 118.003 161.476 116.932 160.913 116.164C160.351 115.396 159.499 115.012 158.359 115.012C157.781 115.012 157.276 115.111 156.843 115.309C156.417 115.506 156.06 115.791 155.771 116.164C155.49 116.536 155.277 116.996 155.132 117.544C154.995 118.083 154.927 118.695 154.927 119.379C154.927 120.748 155.208 121.816 155.771 122.584C156.341 123.344 157.204 123.724 158.359 123.724ZM168.101 115.274C168.352 114.993 168.618 114.738 168.899 114.51C169.18 114.282 169.477 114.089 169.789 113.929C170.108 113.762 170.442 113.636 170.792 113.553C171.149 113.461 171.533 113.416 171.944 113.416C172.575 113.416 173.13 113.522 173.608 113.735C174.095 113.94 174.498 114.237 174.817 114.624C175.144 115.005 175.391 115.464 175.558 116.004C175.726 116.544 175.809 117.141 175.809 117.794V125.149H173.768V117.794C173.768 116.92 173.567 116.244 173.164 115.765C172.768 115.278 172.164 115.035 171.351 115.035C170.75 115.035 170.188 115.179 169.663 115.468C169.146 115.757 168.667 116.149 168.226 116.643V125.149H166.185V113.598H167.405C167.694 113.598 167.873 113.739 167.941 114.02L168.101 115.274ZM185.385 115.502C185.294 115.67 185.153 115.753 184.963 115.753C184.849 115.753 184.72 115.712 184.576 115.628C184.431 115.544 184.253 115.453 184.04 115.354C183.834 115.248 183.587 115.153 183.299 115.069C183.01 114.978 182.668 114.932 182.272 114.932C181.93 114.932 181.622 114.978 181.349 115.069C181.075 115.153 180.839 115.271 180.642 115.423C180.452 115.575 180.303 115.753 180.197 115.959C180.098 116.156 180.049 116.373 180.049 116.609C180.049 116.905 180.132 117.152 180.3 117.35C180.474 117.547 180.703 117.718 180.984 117.863C181.265 118.007 181.584 118.137 181.942 118.251C182.299 118.357 182.664 118.475 183.036 118.604C183.416 118.726 183.785 118.862 184.142 119.015C184.5 119.167 184.819 119.357 185.1 119.585C185.381 119.813 185.606 120.094 185.773 120.428C185.948 120.755 186.035 121.151 186.035 121.614C186.035 122.146 185.94 122.641 185.75 123.097C185.56 123.545 185.279 123.937 184.906 124.271C184.534 124.598 184.078 124.857 183.538 125.047C182.998 125.237 182.375 125.332 181.668 125.332C180.862 125.332 180.132 125.202 179.479 124.944C178.825 124.678 178.27 124.34 177.814 123.929L178.293 123.154C178.354 123.055 178.426 122.979 178.509 122.926C178.593 122.872 178.699 122.846 178.829 122.846C178.966 122.846 179.11 122.899 179.262 123.005C179.414 123.112 179.596 123.23 179.809 123.359C180.03 123.488 180.296 123.606 180.608 123.712C180.919 123.819 181.307 123.872 181.771 123.872C182.166 123.872 182.512 123.823 182.808 123.724C183.105 123.617 183.352 123.477 183.549 123.302C183.747 123.127 183.892 122.926 183.983 122.698C184.082 122.47 184.131 122.226 184.131 121.968C184.131 121.649 184.044 121.386 183.869 121.181C183.701 120.968 183.477 120.79 183.196 120.645C182.915 120.493 182.592 120.364 182.227 120.257C181.869 120.143 181.501 120.026 181.121 119.904C180.748 119.782 180.379 119.645 180.015 119.493C179.657 119.334 179.338 119.136 179.057 118.9C178.775 118.665 178.547 118.376 178.373 118.034C178.205 117.684 178.122 117.262 178.122 116.768C178.122 116.327 178.213 115.905 178.395 115.502C178.578 115.092 178.844 114.735 179.194 114.431C179.543 114.119 179.973 113.872 180.482 113.689C180.991 113.507 181.573 113.416 182.227 113.416C182.987 113.416 183.667 113.537 184.268 113.781C184.876 114.016 185.4 114.343 185.841 114.761L185.385 115.502Z" fill="#D1D1D1"/>
<path d="M86.3359 133.149H241.087" stroke="#D1D1D1" stroke-width="3.25792" stroke-linecap="round"/>
<path d="M52.1331 163.889C52.1331 166.588 49.9452 168.776 47.2463 168.776C44.5473 168.776 42.3594 166.588 42.3594 163.889C42.3594 161.19 44.5473 159.002 47.2463 159.002C49.9452 159.002 52.1331 161.19 52.1331 163.889Z" fill="#D1D1D1"/>
<path d="M89.6769 164.225C89.6769 165.228 89.8138 166.129 90.0874 166.927C90.3611 167.718 90.7488 168.39 91.2505 168.945C91.7598 169.493 92.3718 169.915 93.0863 170.211C93.8009 170.5 94.5953 170.644 95.4695 170.644C96.3513 170.644 97.1495 170.5 97.8641 170.211C98.5787 169.915 99.1868 169.493 99.6885 168.945C100.19 168.39 100.578 167.718 100.852 166.927C101.125 166.129 101.262 165.228 101.262 164.225C101.262 163.221 101.125 162.32 100.852 161.522C100.578 160.724 100.19 160.051 99.6885 159.504C99.1868 158.949 98.5787 158.523 97.8641 158.227C97.1495 157.93 96.3513 157.782 95.4695 157.782C94.5953 157.782 93.8009 157.93 93.0863 158.227C92.3718 158.523 91.7598 158.949 91.2505 159.504C90.7488 160.051 90.3611 160.724 90.0874 161.522C89.8138 162.32 89.6769 163.221 89.6769 164.225ZM104.284 175.764H102.459C102.186 175.764 101.942 175.726 101.73 175.65C101.517 175.574 101.323 175.441 101.148 175.251L98.286 172.127C97.4194 172.416 96.4806 172.56 95.4695 172.56C94.2684 172.56 93.1738 172.359 92.1855 171.956C91.1973 171.545 90.3497 170.971 89.6427 170.234C88.9358 169.497 88.3884 168.619 88.0007 167.6C87.613 166.574 87.4192 165.449 87.4192 164.225C87.4192 163.001 87.613 161.88 88.0007 160.861C88.3884 159.835 88.9358 158.953 89.6427 158.215C90.3497 157.47 91.1973 156.893 92.1855 156.482C93.1738 156.072 94.2684 155.867 95.4695 155.867C96.6706 155.867 97.7653 156.072 98.7535 156.482C99.7493 156.893 100.601 157.47 101.308 158.215C102.015 158.953 102.562 159.835 102.95 160.861C103.337 161.88 103.531 163.001 103.531 164.225C103.531 164.992 103.451 165.722 103.292 166.414C103.14 167.106 102.915 167.752 102.619 168.352C102.323 168.945 101.961 169.485 101.536 169.972C101.11 170.458 100.631 170.88 100.099 171.237L104.284 175.764ZM115.282 160.838V172.389H114.073C113.784 172.389 113.602 172.248 113.526 171.967L113.366 170.724C112.864 171.279 112.302 171.728 111.679 172.07C111.055 172.404 110.341 172.571 109.535 172.571C108.904 172.571 108.345 172.469 107.859 172.264C107.38 172.051 106.977 171.754 106.65 171.374C106.323 170.994 106.076 170.534 105.909 169.994C105.749 169.455 105.669 168.858 105.669 168.204V160.838H107.699V168.204C107.699 169.078 107.897 169.755 108.292 170.234C108.695 170.713 109.307 170.952 110.128 170.952C110.728 170.952 111.287 170.812 111.804 170.53C112.329 170.242 112.811 169.846 113.252 169.345V160.838H115.282ZM125.987 165.354C125.987 164.882 125.918 164.453 125.782 164.065C125.652 163.67 125.458 163.331 125.2 163.05C124.949 162.761 124.641 162.541 124.276 162.389C123.911 162.229 123.497 162.149 123.033 162.149C122.06 162.149 121.289 162.434 120.719 163.005C120.156 163.567 119.806 164.35 119.67 165.354H125.987ZM127.629 170.77C127.378 171.074 127.078 171.34 126.728 171.568C126.378 171.788 126.002 171.971 125.599 172.115C125.204 172.26 124.793 172.366 124.368 172.435C123.942 172.511 123.52 172.549 123.102 172.549C122.304 172.549 121.566 172.416 120.89 172.15C120.221 171.876 119.639 171.481 119.145 170.964C118.659 170.439 118.279 169.793 118.005 169.025C117.731 168.257 117.594 167.376 117.594 166.38C117.594 165.574 117.716 164.821 117.959 164.122C118.21 163.423 118.567 162.818 119.031 162.309C119.495 161.792 120.061 161.389 120.73 161.1C121.399 160.804 122.152 160.656 122.988 160.656C123.68 160.656 124.318 160.773 124.904 161.009C125.496 161.237 126.006 161.572 126.431 162.013C126.865 162.446 127.203 162.986 127.446 163.632C127.69 164.27 127.811 165 127.811 165.821C127.811 166.14 127.777 166.353 127.709 166.46C127.64 166.566 127.511 166.619 127.321 166.619H119.601C119.624 167.349 119.723 167.984 119.898 168.524C120.08 169.063 120.331 169.516 120.65 169.88C120.97 170.238 121.35 170.508 121.791 170.69C122.231 170.865 122.726 170.952 123.273 170.952C123.782 170.952 124.219 170.895 124.584 170.781C124.957 170.66 125.276 170.53 125.542 170.394C125.808 170.257 126.029 170.131 126.203 170.017C126.386 169.896 126.542 169.835 126.671 169.835C126.838 169.835 126.967 169.899 127.059 170.029L127.629 170.77ZM136.788 162.742C136.696 162.91 136.556 162.993 136.366 162.993C136.252 162.993 136.122 162.951 135.978 162.868C135.834 162.784 135.655 162.693 135.442 162.594C135.237 162.488 134.99 162.393 134.701 162.309C134.412 162.218 134.07 162.172 133.675 162.172C133.333 162.172 133.025 162.218 132.751 162.309C132.477 162.393 132.242 162.51 132.044 162.663C131.854 162.815 131.706 162.993 131.599 163.198C131.5 163.396 131.451 163.613 131.451 163.848C131.451 164.145 131.535 164.392 131.702 164.59C131.877 164.787 132.105 164.958 132.386 165.103C132.667 165.247 132.987 165.376 133.344 165.49C133.701 165.597 134.066 165.715 134.439 165.844C134.819 165.966 135.187 166.102 135.545 166.254C135.902 166.406 136.221 166.596 136.502 166.825C136.784 167.053 137.008 167.334 137.175 167.668C137.35 167.995 137.438 168.39 137.438 168.854C137.438 169.386 137.342 169.88 137.152 170.337C136.962 170.785 136.681 171.177 136.309 171.511C135.936 171.838 135.48 172.096 134.94 172.286C134.401 172.476 133.777 172.571 133.07 172.571C132.264 172.571 131.535 172.442 130.881 172.184C130.227 171.918 129.672 171.579 129.216 171.169L129.695 170.394C129.756 170.295 129.828 170.219 129.912 170.166C129.995 170.112 130.102 170.086 130.231 170.086C130.368 170.086 130.512 170.139 130.664 170.245C130.816 170.352 130.999 170.47 131.212 170.599C131.432 170.728 131.698 170.846 132.01 170.952C132.321 171.059 132.709 171.112 133.173 171.112C133.568 171.112 133.914 171.063 134.211 170.964C134.507 170.857 134.754 170.717 134.952 170.542C135.149 170.367 135.294 170.166 135.385 169.937C135.484 169.709 135.533 169.466 135.533 169.208C135.533 168.888 135.446 168.626 135.271 168.421C135.104 168.208 134.879 168.029 134.598 167.885C134.317 167.733 133.994 167.604 133.629 167.497C133.272 167.383 132.903 167.265 132.523 167.144C132.15 167.022 131.782 166.885 131.417 166.733C131.06 166.574 130.74 166.376 130.459 166.14C130.178 165.905 129.95 165.616 129.775 165.274C129.608 164.924 129.524 164.502 129.524 164.008C129.524 163.567 129.615 163.145 129.798 162.742C129.98 162.332 130.246 161.975 130.596 161.67C130.946 161.359 131.375 161.112 131.884 160.929C132.394 160.747 132.975 160.656 133.629 160.656C134.389 160.656 135.07 160.777 135.67 161.021C136.278 161.256 136.803 161.583 137.244 162.001L136.788 162.742ZM150.4 172.389H148.37V162.537H142.418V169.47C142.418 169.956 142.536 170.318 142.772 170.553C143.007 170.789 143.311 170.907 143.684 170.907C143.897 170.907 144.079 170.88 144.231 170.827C144.391 170.766 144.528 170.701 144.642 170.633C144.756 170.565 144.851 170.504 144.927 170.451C145.01 170.39 145.083 170.359 145.144 170.359C145.25 170.359 145.345 170.424 145.429 170.553L146.022 171.522C145.672 171.849 145.25 172.108 144.756 172.298C144.262 172.48 143.752 172.571 143.228 172.571C142.316 172.571 141.612 172.317 141.118 171.807C140.632 171.298 140.389 170.565 140.389 169.607V162.537H138.997C138.876 162.537 138.773 162.503 138.69 162.434C138.606 162.358 138.564 162.244 138.564 162.092V161.283L140.457 161.032L140.925 157.474C140.947 157.36 140.997 157.269 141.073 157.201C141.156 157.125 141.263 157.087 141.392 157.087H142.418V161.066H150.4V172.389ZM150.902 157.132C150.902 157.33 150.86 157.516 150.776 157.691C150.7 157.858 150.594 158.006 150.457 158.136C150.328 158.265 150.176 158.367 150.001 158.444C149.826 158.52 149.64 158.558 149.442 158.558C149.245 158.558 149.058 158.52 148.884 158.444C148.716 158.367 148.568 158.265 148.439 158.136C148.31 158.006 148.207 157.858 148.131 157.691C148.055 157.516 148.017 157.33 148.017 157.132C148.017 156.935 148.055 156.748 148.131 156.573C148.207 156.391 148.31 156.235 148.439 156.106C148.568 155.969 148.716 155.863 148.884 155.787C149.058 155.711 149.245 155.673 149.442 155.673C149.64 155.673 149.826 155.711 150.001 155.787C150.176 155.863 150.328 155.969 150.457 156.106C150.594 156.235 150.7 156.391 150.776 156.573C150.86 156.748 150.902 156.935 150.902 157.132ZM158.359 160.656C159.203 160.656 159.963 160.796 160.64 161.078C161.316 161.359 161.894 161.758 162.373 162.275C162.852 162.792 163.217 163.419 163.468 164.156C163.726 164.886 163.855 165.703 163.855 166.608C163.855 167.52 163.726 168.341 163.468 169.071C163.217 169.801 162.852 170.424 162.373 170.941C161.894 171.458 161.316 171.857 160.64 172.138C159.963 172.412 159.203 172.549 158.359 172.549C157.508 172.549 156.74 172.412 156.056 172.138C155.379 171.857 154.802 171.458 154.323 170.941C153.844 170.424 153.475 169.801 153.217 169.071C152.966 168.341 152.84 167.52 152.84 166.608C152.84 165.703 152.966 164.886 153.217 164.156C153.475 163.419 153.844 162.792 154.323 162.275C154.802 161.758 155.379 161.359 156.056 161.078C156.74 160.796 157.508 160.656 158.359 160.656ZM158.359 170.964C159.499 170.964 160.351 170.584 160.913 169.823C161.476 169.056 161.757 167.988 161.757 166.619C161.757 165.243 161.476 164.171 160.913 163.404C160.351 162.636 159.499 162.252 158.359 162.252C157.781 162.252 157.276 162.351 156.843 162.548C156.417 162.746 156.06 163.031 155.771 163.404C155.49 163.776 155.277 164.236 155.132 164.783C154.995 165.323 154.927 165.935 154.927 166.619C154.927 167.988 155.208 169.056 155.771 169.823C156.341 170.584 157.204 170.964 158.359 170.964ZM168.101 162.514C168.352 162.233 168.618 161.978 168.899 161.75C169.18 161.522 169.477 161.328 169.789 161.169C170.108 161.002 170.442 160.876 170.792 160.792C171.149 160.701 171.533 160.656 171.944 160.656C172.575 160.656 173.13 160.762 173.608 160.975C174.095 161.18 174.498 161.477 174.817 161.864C175.144 162.244 175.391 162.704 175.558 163.244C175.726 163.784 175.809 164.381 175.809 165.034V172.389H173.768V165.034C173.768 164.16 173.567 163.484 173.164 163.005C172.768 162.518 172.164 162.275 171.351 162.275C170.75 162.275 170.188 162.419 169.663 162.708C169.146 162.997 168.667 163.388 168.226 163.883V172.389H166.185V160.838H167.405C167.694 160.838 167.873 160.979 167.941 161.26L168.101 162.514ZM185.385 162.742C185.294 162.91 185.153 162.993 184.963 162.993C184.849 162.993 184.72 162.951 184.576 162.868C184.431 162.784 184.253 162.693 184.04 162.594C183.834 162.488 183.587 162.393 183.299 162.309C183.01 162.218 182.668 162.172 182.272 162.172C181.93 162.172 181.622 162.218 181.349 162.309C181.075 162.393 180.839 162.51 180.642 162.663C180.452 162.815 180.303 162.993 180.197 163.198C180.098 163.396 180.049 163.613 180.049 163.848C180.049 164.145 180.132 164.392 180.3 164.59C180.474 164.787 180.703 164.958 180.984 165.103C181.265 165.247 181.584 165.376 181.942 165.49C182.299 165.597 182.664 165.715 183.036 165.844C183.416 165.966 183.785 166.102 184.142 166.254C184.5 166.406 184.819 166.596 185.1 166.825C185.381 167.053 185.606 167.334 185.773 167.668C185.948 167.995 186.035 168.39 186.035 168.854C186.035 169.386 185.94 169.88 185.75 170.337C185.56 170.785 185.279 171.177 184.906 171.511C184.534 171.838 184.078 172.096 183.538 172.286C182.998 172.476 182.375 172.571 181.668 172.571C180.862 172.571 180.132 172.442 179.479 172.184C178.825 171.918 178.27 171.579 177.814 171.169L178.293 170.394C178.354 170.295 178.426 170.219 178.509 170.166C178.593 170.112 178.699 170.086 178.829 170.086C178.966 170.086 179.11 170.139 179.262 170.245C179.414 170.352 179.596 170.47 179.809 170.599C180.03 170.728 180.296 170.846 180.608 170.952C180.919 171.059 181.307 171.112 181.771 171.112C182.166 171.112 182.512 171.063 182.808 170.964C183.105 170.857 183.352 170.717 183.549 170.542C183.747 170.367 183.892 170.166 183.983 169.937C184.082 169.709 184.131 169.466 184.131 169.208C184.131 168.888 184.044 168.626 183.869 168.421C183.701 168.208 183.477 168.029 183.196 167.885C182.915 167.733 182.592 167.604 182.227 167.497C181.869 167.383 181.501 167.265 181.121 167.144C180.748 167.022 180.379 166.885 180.015 166.733C179.657 166.574 179.338 166.376 179.057 166.14C178.775 165.905 178.547 165.616 178.373 165.274C178.205 164.924 178.122 164.502 178.122 164.008C178.122 163.567 178.213 163.145 178.395 162.742C178.578 162.332 178.844 161.975 179.194 161.67C179.543 161.359 179.973 161.112 180.482 160.929C180.991 160.747 181.573 160.656 182.227 160.656C182.987 160.656 183.667 160.777 184.268 161.021C184.876 161.256 185.4 161.583 185.841 162.001L185.385 162.742Z" fill="#D1D1D1"/>
<path d="M86.3359 180.389H241.087" stroke="#D1D1D1" stroke-width="3.25792" stroke-linecap="round"/>
<path d="M52.1331 211.129C52.1331 213.828 49.9452 216.016 47.2463 216.016C44.5473 216.016 42.3594 213.828 42.3594 211.129C42.3594 208.43 44.5473 206.242 47.2463 206.242C49.9452 206.242 52.1331 208.43 52.1331 211.129Z" fill="#D1D1D1"/>
<path d="M89.6769 211.464C89.6769 212.468 89.8138 213.369 90.0874 214.167C90.3611 214.957 90.7488 215.63 91.2505 216.185C91.7598 216.732 92.3718 217.154 93.0863 217.451C93.8009 217.74 94.5953 217.884 95.4695 217.884C96.3513 217.884 97.1495 217.74 97.8641 217.451C98.5787 217.154 99.1868 216.732 99.6885 216.185C100.19 215.63 100.578 214.957 100.852 214.167C101.125 213.369 101.262 212.468 101.262 211.464C101.262 210.461 101.125 209.56 100.852 208.762C100.578 207.964 100.19 207.291 99.6885 206.744C99.1868 206.189 98.5787 205.763 97.8641 205.467C97.1495 205.17 96.3513 205.022 95.4695 205.022C94.5953 205.022 93.8009 205.17 93.0863 205.467C92.3718 205.763 91.7598 206.189 91.2505 206.744C90.7488 207.291 90.3611 207.964 90.0874 208.762C89.8138 209.56 89.6769 210.461 89.6769 211.464ZM104.284 223.004H102.459C102.186 223.004 101.942 222.966 101.73 222.89C101.517 222.814 101.323 222.681 101.148 222.491L98.286 219.367C97.4194 219.655 96.4806 219.8 95.4695 219.8C94.2684 219.8 93.1738 219.598 92.1855 219.195C91.1973 218.785 90.3497 218.211 89.6427 217.474C88.9358 216.736 88.3884 215.858 88.0007 214.84C87.613 213.813 87.4192 212.688 87.4192 211.464C87.4192 210.241 87.613 209.119 88.0007 208.101C88.3884 207.074 88.9358 206.193 89.6427 205.455C90.3497 204.71 91.1973 204.132 92.1855 203.722C93.1738 203.311 94.2684 203.106 95.4695 203.106C96.6706 203.106 97.7653 203.311 98.7535 203.722C99.7493 204.132 100.601 204.71 101.308 205.455C102.015 206.193 102.562 207.074 102.95 208.101C103.337 209.119 103.531 210.241 103.531 211.464C103.531 212.232 103.451 212.962 103.292 213.654C103.14 214.346 102.915 214.992 102.619 215.592C102.323 216.185 101.961 216.725 101.536 217.211C101.11 217.698 100.631 218.12 100.099 218.477L104.284 223.004ZM115.282 208.078V219.629H114.073C113.784 219.629 113.602 219.488 113.526 219.207L113.366 217.964C112.864 218.519 112.302 218.967 111.679 219.31C111.055 219.644 110.341 219.811 109.535 219.811C108.904 219.811 108.345 219.709 107.859 219.503C107.38 219.291 106.977 218.994 106.65 218.614C106.323 218.234 106.076 217.774 105.909 217.234C105.749 216.694 105.669 216.098 105.669 215.444V208.078H107.699V215.444C107.699 216.318 107.897 216.995 108.292 217.474C108.695 217.953 109.307 218.192 110.128 218.192C110.728 218.192 111.287 218.051 111.804 217.77C112.329 217.481 112.811 217.086 113.252 216.584V208.078H115.282ZM125.987 212.593C125.987 212.122 125.918 211.692 125.782 211.305C125.652 210.91 125.458 210.571 125.2 210.29C124.949 210.001 124.641 209.781 124.276 209.629C123.911 209.469 123.497 209.389 123.033 209.389C122.06 209.389 121.289 209.674 120.719 210.244C120.156 210.807 119.806 211.59 119.67 212.593H125.987ZM127.629 218.01C127.378 218.314 127.078 218.58 126.728 218.808C126.378 219.028 126.002 219.211 125.599 219.355C125.204 219.5 124.793 219.606 124.368 219.674C123.942 219.75 123.52 219.788 123.102 219.788C122.304 219.788 121.566 219.655 120.89 219.389C120.221 219.116 119.639 218.72 119.145 218.203C118.659 217.679 118.279 217.033 118.005 216.265C117.731 215.497 117.594 214.615 117.594 213.62C117.594 212.814 117.716 212.061 117.959 211.362C118.21 210.662 118.567 210.058 119.031 209.549C119.495 209.032 120.061 208.629 120.73 208.34C121.399 208.044 122.152 207.895 122.988 207.895C123.68 207.895 124.318 208.013 124.904 208.249C125.496 208.477 126.006 208.811 126.431 209.252C126.865 209.686 127.203 210.225 127.446 210.871C127.69 211.51 127.811 212.24 127.811 213.061C127.811 213.38 127.777 213.593 127.709 213.699C127.64 213.806 127.511 213.859 127.321 213.859H119.601C119.624 214.589 119.723 215.224 119.898 215.763C120.08 216.303 120.331 216.755 120.65 217.12C120.97 217.477 121.35 217.747 121.791 217.93C122.231 218.105 122.726 218.192 123.273 218.192C123.782 218.192 124.219 218.135 124.584 218.021C124.957 217.899 125.276 217.77 125.542 217.633C125.808 217.496 126.029 217.371 126.203 217.257C126.386 217.135 126.542 217.075 126.671 217.075C126.838 217.075 126.967 217.139 127.059 217.268L127.629 218.01ZM136.788 209.982C136.696 210.149 136.556 210.233 136.366 210.233C136.252 210.233 136.122 210.191 135.978 210.108C135.834 210.024 135.655 209.933 135.442 209.834C135.237 209.727 134.99 209.632 134.701 209.549C134.412 209.458 134.07 209.412 133.675 209.412C133.333 209.412 133.025 209.458 132.751 209.549C132.477 209.632 132.242 209.75 132.044 209.902C131.854 210.054 131.706 210.233 131.599 210.438C131.5 210.636 131.451 210.852 131.451 211.088C131.451 211.385 131.535 211.632 131.702 211.829C131.877 212.027 132.105 212.198 132.386 212.342C132.667 212.487 132.987 212.616 133.344 212.73C133.701 212.837 134.066 212.954 134.439 213.084C134.819 213.205 135.187 213.342 135.545 213.494C135.902 213.646 136.221 213.836 136.502 214.064C136.784 214.292 137.008 214.574 137.175 214.908C137.35 215.235 137.438 215.63 137.438 216.094C137.438 216.626 137.342 217.12 137.152 217.576C136.962 218.025 136.681 218.416 136.309 218.751C135.936 219.078 135.48 219.336 134.94 219.526C134.401 219.716 133.777 219.811 133.07 219.811C132.264 219.811 131.535 219.682 130.881 219.424C130.227 219.157 129.672 218.819 129.216 218.409L129.695 217.633C129.756 217.534 129.828 217.458 129.912 217.405C129.995 217.352 130.102 217.325 130.231 217.325C130.368 217.325 130.512 217.379 130.664 217.485C130.816 217.591 130.999 217.709 131.212 217.839C131.432 217.968 131.698 218.086 132.01 218.192C132.321 218.298 132.709 218.352 133.173 218.352C133.568 218.352 133.914 218.302 134.211 218.203C134.507 218.097 134.754 217.956 134.952 217.782C135.149 217.607 135.294 217.405 135.385 217.177C135.484 216.949 135.533 216.706 135.533 216.447C135.533 216.128 135.446 215.866 135.271 215.661C135.104 215.448 134.879 215.269 134.598 215.125C134.317 214.973 133.994 214.843 133.629 214.737C133.272 214.623 132.903 214.505 132.523 214.384C132.15 214.262 131.782 214.125 131.417 213.973C131.06 213.813 130.74 213.616 130.459 213.38C130.178 213.144 129.95 212.856 129.775 212.513C129.608 212.164 129.524 211.742 129.524 211.248C129.524 210.807 129.615 210.385 129.798 209.982C129.98 209.572 130.246 209.214 130.596 208.91C130.946 208.599 131.375 208.351 131.884 208.169C132.394 207.987 132.975 207.895 133.629 207.895C134.389 207.895 135.07 208.017 135.67 208.26C136.278 208.496 136.803 208.823 137.244 209.241L136.788 209.982ZM150.4 219.629H148.37V209.777H142.418V216.71C142.418 217.196 142.536 217.557 142.772 217.793C143.007 218.029 143.311 218.146 143.684 218.146C143.897 218.146 144.079 218.12 144.231 218.067C144.391 218.006 144.528 217.941 144.642 217.873C144.756 217.804 144.851 217.744 144.927 217.69C145.01 217.63 145.083 217.599 145.144 217.599C145.25 217.599 145.345 217.664 145.429 217.793L146.022 218.762C145.672 219.089 145.25 219.348 144.756 219.538C144.262 219.72 143.752 219.811 143.228 219.811C142.316 219.811 141.612 219.557 141.118 219.047C140.632 218.538 140.389 217.804 140.389 216.847V209.777H138.997C138.876 209.777 138.773 209.743 138.69 209.674C138.606 209.598 138.564 209.484 138.564 209.332V208.523L140.457 208.272L140.925 204.714C140.947 204.6 140.997 204.509 141.073 204.44C141.156 204.364 141.263 204.326 141.392 204.326H142.418V208.306H150.4V219.629ZM150.902 204.372C150.902 204.57 150.86 204.756 150.776 204.931C150.7 205.098 150.594 205.246 150.457 205.375C150.328 205.505 150.176 205.607 150.001 205.683C149.826 205.759 149.64 205.797 149.442 205.797C149.245 205.797 149.058 205.759 148.884 205.683C148.716 205.607 148.568 205.505 148.439 205.375C148.31 205.246 148.207 205.098 148.131 204.931C148.055 204.756 148.017 204.57 148.017 204.372C148.017 204.174 148.055 203.988 148.131 203.813C148.207 203.631 148.31 203.475 148.439 203.346C148.568 203.209 148.716 203.102 148.884 203.026C149.058 202.95 149.245 202.912 149.442 202.912C149.64 202.912 149.826 202.95 150.001 203.026C150.176 203.102 150.328 203.209 150.457 203.346C150.594 203.475 150.7 203.631 150.776 203.813C150.86 203.988 150.902 204.174 150.902 204.372ZM158.359 207.895C159.203 207.895 159.963 208.036 160.64 208.317C161.316 208.599 161.894 208.998 162.373 209.515C162.852 210.031 163.217 210.659 163.468 211.396C163.726 212.126 163.855 212.943 163.855 213.848C163.855 214.76 163.726 215.581 163.468 216.311C163.217 217.04 162.852 217.664 162.373 218.181C161.894 218.698 161.316 219.097 160.64 219.378C159.963 219.652 159.203 219.788 158.359 219.788C157.508 219.788 156.74 219.652 156.056 219.378C155.379 219.097 154.802 218.698 154.323 218.181C153.844 217.664 153.475 217.04 153.217 216.311C152.966 215.581 152.84 214.76 152.84 213.848C152.84 212.943 152.966 212.126 153.217 211.396C153.475 210.659 153.844 210.031 154.323 209.515C154.802 208.998 155.379 208.599 156.056 208.317C156.74 208.036 157.508 207.895 158.359 207.895ZM158.359 218.203C159.499 218.203 160.351 217.823 160.913 217.063C161.476 216.295 161.757 215.227 161.757 213.859C161.757 212.483 161.476 211.411 160.913 210.643C160.351 209.876 159.499 209.492 158.359 209.492C157.781 209.492 157.276 209.591 156.843 209.788C156.417 209.986 156.06 210.271 155.771 210.643C155.49 211.016 155.277 211.476 155.132 212.023C154.995 212.563 154.927 213.175 154.927 213.859C154.927 215.227 155.208 216.295 155.771 217.063C156.341 217.823 157.204 218.203 158.359 218.203ZM168.101 209.754C168.352 209.473 168.618 209.218 168.899 208.99C169.18 208.762 169.477 208.568 169.789 208.409C170.108 208.241 170.442 208.116 170.792 208.032C171.149 207.941 171.533 207.895 171.944 207.895C172.575 207.895 173.13 208.002 173.608 208.215C174.095 208.42 174.498 208.716 174.817 209.104C175.144 209.484 175.391 209.944 175.558 210.484C175.726 211.024 175.809 211.62 175.809 212.274V219.629H173.768V212.274C173.768 211.4 173.567 210.723 173.164 210.244C172.768 209.758 172.164 209.515 171.351 209.515C170.75 209.515 170.188 209.659 169.663 209.948C169.146 210.237 168.667 210.628 168.226 211.122V219.629H166.185V208.078H167.405C167.694 208.078 167.873 208.218 167.941 208.5L168.101 209.754ZM185.385 209.982C185.294 210.149 185.153 210.233 184.963 210.233C184.849 210.233 184.72 210.191 184.576 210.108C184.431 210.024 184.253 209.933 184.04 209.834C183.834 209.727 183.587 209.632 183.299 209.549C183.01 209.458 182.668 209.412 182.272 209.412C181.93 209.412 181.622 209.458 181.349 209.549C181.075 209.632 180.839 209.75 180.642 209.902C180.452 210.054 180.303 210.233 180.197 210.438C180.098 210.636 180.049 210.852 180.049 211.088C180.049 211.385 180.132 211.632 180.3 211.829C180.474 212.027 180.703 212.198 180.984 212.342C181.265 212.487 181.584 212.616 181.942 212.73C182.299 212.837 182.664 212.954 183.036 213.084C183.416 213.205 183.785 213.342 184.142 213.494C184.5 213.646 184.819 213.836 185.1 214.064C185.381 214.292 185.606 214.574 185.773 214.908C185.948 215.235 186.035 215.63 186.035 216.094C186.035 216.626 185.94 217.12 185.75 217.576C185.56 218.025 185.279 218.416 184.906 218.751C184.534 219.078 184.078 219.336 183.538 219.526C182.998 219.716 182.375 219.811 181.668 219.811C180.862 219.811 180.132 219.682 179.479 219.424C178.825 219.157 178.27 218.819 177.814 218.409L178.293 217.633C178.354 217.534 178.426 217.458 178.509 217.405C178.593 217.352 178.699 217.325 178.829 217.325C178.966 217.325 179.11 217.379 179.262 217.485C179.414 217.591 179.596 217.709 179.809 217.839C180.03 217.968 180.296 218.086 180.608 218.192C180.919 218.298 181.307 218.352 181.771 218.352C182.166 218.352 182.512 218.302 182.808 218.203C183.105 218.097 183.352 217.956 183.549 217.782C183.747 217.607 183.892 217.405 183.983 217.177C184.082 216.949 184.131 216.706 184.131 216.447C184.131 216.128 184.044 215.866 183.869 215.661C183.701 215.448 183.477 215.269 183.196 215.125C182.915 214.973 182.592 214.843 182.227 214.737C181.869 214.623 181.501 214.505 181.121 214.384C180.748 214.262 180.379 214.125 180.015 213.973C179.657 213.813 179.338 213.616 179.057 213.38C178.775 213.144 178.547 212.856 178.373 212.513C178.205 212.164 178.122 211.742 178.122 211.248C178.122 210.807 178.213 210.385 178.395 209.982C178.578 209.572 178.844 209.214 179.194 208.91C179.543 208.599 179.973 208.351 180.482 208.169C180.991 207.987 181.573 207.895 182.227 207.895C182.987 207.895 183.667 208.017 184.268 208.26C184.876 208.496 185.4 208.823 185.841 209.241L185.385 209.982Z" fill="#D1D1D1"/>
<path d="M86.3359 227.629H241.087" stroke="#D1D1D1" stroke-width="3.25792" stroke-linecap="round"/>
<path d="M52.1331 258.369C52.1331 261.068 49.9452 263.256 47.2463 263.256C44.5473 263.256 42.3594 261.068 42.3594 258.369C42.3594 255.67 44.5473 253.482 47.2463 253.482C49.9452 253.482 52.1331 255.67 52.1331 258.369Z" fill="#D1D1D1"/>
<path d="M89.6769 258.704C89.6769 259.708 89.8138 260.609 90.0874 261.407C90.3611 262.197 90.7488 262.87 91.2505 263.425C91.7598 263.972 92.3718 264.394 93.0863 264.691C93.8009 264.98 94.5953 265.124 95.4695 265.124C96.3513 265.124 97.1495 264.98 97.8641 264.691C98.5787 264.394 99.1868 263.972 99.6885 263.425C100.19 262.87 100.578 262.197 100.852 261.407C101.125 260.609 101.262 259.708 101.262 258.704C101.262 257.701 101.125 256.8 100.852 256.002C100.578 255.204 100.19 254.531 99.6885 253.984C99.1868 253.429 98.5787 253.003 97.8641 252.706C97.1495 252.41 96.3513 252.262 95.4695 252.262C94.5953 252.262 93.8009 252.41 93.0863 252.706C92.3718 253.003 91.7598 253.429 91.2505 253.984C90.7488 254.531 90.3611 255.204 90.0874 256.002C89.8138 256.8 89.6769 257.701 89.6769 258.704ZM104.284 270.244H102.459C102.186 270.244 101.942 270.206 101.73 270.13C101.517 270.054 101.323 269.921 101.148 269.731L98.286 266.606C97.4194 266.895 96.4806 267.04 95.4695 267.04C94.2684 267.04 93.1738 266.838 92.1855 266.435C91.1973 266.025 90.3497 265.451 89.6427 264.714C88.9358 263.976 88.3884 263.098 88.0007 262.08C87.613 261.053 87.4192 259.928 87.4192 258.704C87.4192 257.48 87.613 256.359 88.0007 255.341C88.3884 254.314 88.9358 253.432 89.6427 252.695C90.3497 251.95 91.1973 251.372 92.1855 250.962C93.1738 250.551 94.2684 250.346 95.4695 250.346C96.6706 250.346 97.7653 250.551 98.7535 250.962C99.7493 251.372 100.601 251.95 101.308 252.695C102.015 253.432 102.562 254.314 102.95 255.341C103.337 256.359 103.531 257.48 103.531 258.704C103.531 259.472 103.451 260.202 103.292 260.894C103.14 261.585 102.915 262.232 102.619 262.832C102.323 263.425 101.961 263.965 101.536 264.451C101.11 264.938 100.631 265.36 100.099 265.717L104.284 270.244ZM115.282 255.318V266.869H114.073C113.784 266.869 113.602 266.728 113.526 266.447L113.366 265.204C112.864 265.759 112.302 266.207 111.679 266.549C111.055 266.884 110.341 267.051 109.535 267.051C108.904 267.051 108.345 266.948 107.859 266.743C107.38 266.53 106.977 266.234 106.65 265.854C106.323 265.474 106.076 265.014 105.909 264.474C105.749 263.934 105.669 263.338 105.669 262.684V255.318H107.699V262.684C107.699 263.558 107.897 264.235 108.292 264.714C108.695 265.192 109.307 265.432 110.128 265.432C110.728 265.432 111.287 265.291 111.804 265.01C112.329 264.721 112.811 264.326 113.252 263.824V255.318H115.282ZM125.987 259.833C125.987 259.362 125.918 258.932 125.782 258.545C125.652 258.149 125.458 257.811 125.2 257.53C124.949 257.241 124.641 257.021 124.276 256.868C123.911 256.709 123.497 256.629 123.033 256.629C122.06 256.629 121.289 256.914 120.719 257.484C120.156 258.047 119.806 258.83 119.67 259.833H125.987ZM127.629 265.249C127.378 265.554 127.078 265.82 126.728 266.048C126.378 266.268 126.002 266.451 125.599 266.595C125.204 266.739 124.793 266.846 124.368 266.914C123.942 266.99 123.52 267.028 123.102 267.028C122.304 267.028 121.566 266.895 120.89 266.629C120.221 266.356 119.639 265.96 119.145 265.443C118.659 264.919 118.279 264.273 118.005 263.505C117.731 262.737 117.594 261.855 117.594 260.859C117.594 260.054 117.716 259.301 117.959 258.602C118.21 257.902 118.567 257.298 119.031 256.789C119.495 256.272 120.061 255.869 120.73 255.58C121.399 255.283 122.152 255.135 122.988 255.135C123.68 255.135 124.318 255.253 124.904 255.489C125.496 255.717 126.006 256.051 126.431 256.492C126.865 256.925 127.203 257.465 127.446 258.111C127.69 258.75 127.811 259.48 127.811 260.301C127.811 260.62 127.777 260.833 127.709 260.939C127.64 261.046 127.511 261.099 127.321 261.099H119.601C119.624 261.829 119.723 262.463 119.898 263.003C120.08 263.543 120.331 263.995 120.65 264.36C120.97 264.717 121.35 264.987 121.791 265.17C122.231 265.344 122.726 265.432 123.273 265.432C123.782 265.432 124.219 265.375 124.584 265.261C124.957 265.139 125.276 265.01 125.542 264.873C125.808 264.736 126.029 264.611 126.203 264.497C126.386 264.375 126.542 264.314 126.671 264.314C126.838 264.314 126.967 264.379 127.059 264.508L127.629 265.249ZM136.788 257.222C136.696 257.389 136.556 257.473 136.366 257.473C136.252 257.473 136.122 257.431 135.978 257.347C135.834 257.264 135.655 257.173 135.442 257.074C135.237 256.967 134.99 256.872 134.701 256.789C134.412 256.697 134.07 256.652 133.675 256.652C133.333 256.652 133.025 256.697 132.751 256.789C132.477 256.872 132.242 256.99 132.044 257.142C131.854 257.294 131.706 257.473 131.599 257.678C131.5 257.876 131.451 258.092 131.451 258.328C131.451 258.624 131.535 258.872 131.702 259.069C131.877 259.267 132.105 259.438 132.386 259.582C132.667 259.727 132.987 259.856 133.344 259.97C133.701 260.076 134.066 260.194 134.439 260.323C134.819 260.445 135.187 260.582 135.545 260.734C135.902 260.886 136.221 261.076 136.502 261.304C136.784 261.532 137.008 261.813 137.175 262.148C137.35 262.475 137.438 262.87 137.438 263.334C137.438 263.866 137.342 264.36 137.152 264.816C136.962 265.265 136.681 265.656 136.309 265.991C135.936 266.318 135.48 266.576 134.94 266.766C134.401 266.956 133.777 267.051 133.07 267.051C132.264 267.051 131.535 266.922 130.881 266.663C130.227 266.397 129.672 266.059 129.216 265.649L129.695 264.873C129.756 264.774 129.828 264.698 129.912 264.645C129.995 264.592 130.102 264.565 130.231 264.565C130.368 264.565 130.512 264.619 130.664 264.725C130.816 264.831 130.999 264.949 131.212 265.078C131.432 265.208 131.698 265.325 132.01 265.432C132.321 265.538 132.709 265.592 133.173 265.592C133.568 265.592 133.914 265.542 134.211 265.443C134.507 265.337 134.754 265.196 134.952 265.021C135.149 264.847 135.294 264.645 135.385 264.417C135.484 264.189 135.533 263.946 135.533 263.687C135.533 263.368 135.446 263.106 135.271 262.901C135.104 262.688 134.879 262.509 134.598 262.365C134.317 262.213 133.994 262.083 133.629 261.977C133.272 261.863 132.903 261.745 132.523 261.623C132.15 261.502 131.782 261.365 131.417 261.213C131.06 261.053 130.74 260.856 130.459 260.62C130.178 260.384 129.95 260.095 129.775 259.753C129.608 259.404 129.524 258.982 129.524 258.488C129.524 258.047 129.615 257.625 129.798 257.222C129.98 256.811 130.246 256.454 130.596 256.15C130.946 255.838 131.375 255.591 131.884 255.409C132.394 255.226 132.975 255.135 133.629 255.135C134.389 255.135 135.07 255.257 135.67 255.5C136.278 255.736 136.803 256.063 137.244 256.481L136.788 257.222ZM150.4 266.869H148.37V257.017H142.418V263.95C142.418 264.436 142.536 264.797 142.772 265.033C143.007 265.268 143.311 265.386 143.684 265.386C143.897 265.386 144.079 265.36 144.231 265.306C144.391 265.246 144.528 265.181 144.642 265.113C144.756 265.044 144.851 264.983 144.927 264.93C145.01 264.869 145.083 264.839 145.144 264.839C145.25 264.839 145.345 264.904 145.429 265.033L146.022 266.002C145.672 266.329 145.25 266.587 144.756 266.777C144.262 266.96 143.752 267.051 143.228 267.051C142.316 267.051 141.612 266.796 141.118 266.287C140.632 265.778 140.389 265.044 140.389 264.086V257.017H138.997C138.876 257.017 138.773 256.982 138.69 256.914C138.606 256.838 138.564 256.724 138.564 256.572V255.762L140.457 255.512L140.925 251.954C140.947 251.84 140.997 251.749 141.073 251.68C141.156 251.604 141.263 251.566 141.392 251.566H142.418V255.546H150.4V266.869ZM150.902 251.612C150.902 251.809 150.86 251.996 150.776 252.171C150.7 252.338 150.594 252.486 150.457 252.615C150.328 252.744 150.176 252.847 150.001 252.923C149.826 252.999 149.64 253.037 149.442 253.037C149.245 253.037 149.058 252.999 148.884 252.923C148.716 252.847 148.568 252.744 148.439 252.615C148.31 252.486 148.207 252.338 148.131 252.171C148.055 251.996 148.017 251.809 148.017 251.612C148.017 251.414 148.055 251.228 148.131 251.053C148.207 250.871 148.31 250.715 148.439 250.586C148.568 250.449 148.716 250.342 148.884 250.266C149.058 250.19 149.245 250.152 149.442 250.152C149.64 250.152 149.826 250.19 150.001 250.266C150.176 250.342 150.328 250.449 150.457 250.586C150.594 250.715 150.7 250.871 150.776 251.053C150.86 251.228 150.902 251.414 150.902 251.612ZM158.359 255.135C159.203 255.135 159.963 255.276 160.64 255.557C161.316 255.838 161.894 256.238 162.373 256.754C162.852 257.271 163.217 257.899 163.468 258.636C163.726 259.366 163.855 260.183 163.855 261.087C163.855 262 163.726 262.821 163.468 263.55C163.217 264.28 162.852 264.904 162.373 265.421C161.894 265.937 161.316 266.337 160.64 266.618C159.963 266.891 159.203 267.028 158.359 267.028C157.508 267.028 156.74 266.891 156.056 266.618C155.379 266.337 154.802 265.937 154.323 265.421C153.844 264.904 153.475 264.28 153.217 263.55C152.966 262.821 152.84 262 152.84 261.087C152.84 260.183 152.966 259.366 153.217 258.636C153.475 257.899 153.844 257.271 154.323 256.754C154.802 256.238 155.379 255.838 156.056 255.557C156.74 255.276 157.508 255.135 158.359 255.135ZM158.359 265.443C159.499 265.443 160.351 265.063 160.913 264.303C161.476 263.535 161.757 262.467 161.757 261.099C161.757 259.723 161.476 258.651 160.913 257.883C160.351 257.116 159.499 256.732 158.359 256.732C157.781 256.732 157.276 256.83 156.843 257.028C156.417 257.226 156.06 257.511 155.771 257.883C155.49 258.256 155.277 258.716 155.132 259.263C154.995 259.803 154.927 260.415 154.927 261.099C154.927 262.467 155.208 263.535 155.771 264.303C156.341 265.063 157.204 265.443 158.359 265.443ZM168.101 256.994C168.352 256.713 168.618 256.458 168.899 256.23C169.18 256.002 169.477 255.808 169.789 255.648C170.108 255.481 170.442 255.356 170.792 255.272C171.149 255.181 171.533 255.135 171.944 255.135C172.575 255.135 173.13 255.242 173.608 255.455C174.095 255.66 174.498 255.956 174.817 256.344C175.144 256.724 175.391 257.184 175.558 257.724C175.726 258.263 175.809 258.86 175.809 259.514V266.869H173.768V259.514C173.768 258.64 173.567 257.963 173.164 257.484C172.768 256.998 172.164 256.754 171.351 256.754C170.75 256.754 170.188 256.899 169.663 257.188C169.146 257.477 168.667 257.868 168.226 258.362V266.869H166.185V255.318H167.405C167.694 255.318 167.873 255.458 167.941 255.74L168.101 256.994ZM185.385 257.222C185.294 257.389 185.153 257.473 184.963 257.473C184.849 257.473 184.72 257.431 184.576 257.347C184.431 257.264 184.253 257.173 184.04 257.074C183.834 256.967 183.587 256.872 183.299 256.789C183.01 256.697 182.668 256.652 182.272 256.652C181.93 256.652 181.622 256.697 181.349 256.789C181.075 256.872 180.839 256.99 180.642 257.142C180.452 257.294 180.303 257.473 180.197 257.678C180.098 257.876 180.049 258.092 180.049 258.328C180.049 258.624 180.132 258.872 180.3 259.069C180.474 259.267 180.703 259.438 180.984 259.582C181.265 259.727 181.584 259.856 181.942 259.97C182.299 260.076 182.664 260.194 183.036 260.323C183.416 260.445 183.785 260.582 184.142 260.734C184.5 260.886 184.819 261.076 185.1 261.304C185.381 261.532 185.606 261.813 185.773 262.148C185.948 262.475 186.035 262.87 186.035 263.334C186.035 263.866 185.94 264.36 185.75 264.816C185.56 265.265 185.279 265.656 184.906 265.991C184.534 266.318 184.078 266.576 183.538 266.766C182.998 266.956 182.375 267.051 181.668 267.051C180.862 267.051 180.132 266.922 179.479 266.663C178.825 266.397 178.27 266.059 177.814 265.649L178.293 264.873C178.354 264.774 178.426 264.698 178.509 264.645C178.593 264.592 178.699 264.565 178.829 264.565C178.966 264.565 179.11 264.619 179.262 264.725C179.414 264.831 179.596 264.949 179.809 265.078C180.03 265.208 180.296 265.325 180.608 265.432C180.919 265.538 181.307 265.592 181.771 265.592C182.166 265.592 182.512 265.542 182.808 265.443C183.105 265.337 183.352 265.196 183.549 265.021C183.747 264.847 183.892 264.645 183.983 264.417C184.082 264.189 184.131 263.946 184.131 263.687C184.131 263.368 184.044 263.106 183.869 262.901C183.701 262.688 183.477 262.509 183.196 262.365C182.915 262.213 182.592 262.083 182.227 261.977C181.869 261.863 181.501 261.745 181.121 261.623C180.748 261.502 180.379 261.365 180.015 261.213C179.657 261.053 179.338 260.856 179.057 260.62C178.775 260.384 178.547 260.095 178.373 259.753C178.205 259.404 178.122 258.982 178.122 258.488C178.122 258.047 178.213 257.625 178.395 257.222C178.578 256.811 178.844 256.454 179.194 256.15C179.543 255.838 179.973 255.591 180.482 255.409C180.991 255.226 181.573 255.135 182.227 255.135C182.987 255.135 183.667 255.257 184.268 255.5C184.876 255.736 185.4 256.063 185.841 256.481L185.385 257.222Z" fill="#D1D1D1"/>
<path d="M86.3359 274.869H241.087" stroke="#D1D1D1" stroke-width="3.25792" stroke-linecap="round"/>
</g>
<defs>
<clipPath id="clip0_1334_46869">
<rect width="330.679" height="325.792" fill="white" transform="translate(0 0.178589)"/>
</clipPath>
</defs>
</svg>
