<svg width="326" height="327" viewBox="0 0 326 327" fill="none" xmlns="http://www.w3.org/2000/svg">
<rect x="2.44344" y="3.30074" width="320.905" height="320.905" rx="13.8462" fill="#323233"/>
<path d="M38.2926 60.1689L36.7581 55.8293C36.6669 55.6013 36.5692 55.3341 36.4649 55.0279C36.3672 54.7216 36.2727 54.3893 36.1815 54.0309C36.0903 54.3958 35.9925 54.7347 35.8883 55.0474C35.7905 55.3537 35.6961 55.6208 35.6048 55.8489L34.0801 60.1689H38.2926ZM43.2186 65.5542H40.9413C40.6872 65.5542 40.4787 65.4956 40.3158 65.3783C40.1594 65.2545 40.0421 65.0981 39.9639 64.9091L39.0061 62.2018H33.3569L32.399 64.9091C32.3339 65.072 32.2199 65.2219 32.057 65.3587C31.8941 65.489 31.6888 65.5542 31.4412 65.5542H29.1444L34.6861 51.3725H37.6866L43.2186 65.5542ZM55.7816 53.7377H51.6376V65.5542H48.6957V53.7377H44.5516V51.3725H55.7816V53.7377ZM70.1852 53.7377H66.0411V65.5542H63.0992V53.7377H58.9552V51.3725H70.1852V53.7377ZM77.5028 53.6693V57.3149H82.2333V59.5336H77.5028V63.2574H83.5821V65.5542H74.5511V51.3725H83.5821V53.6693H77.5028ZM100.531 51.3725V65.5542H99.0158C98.7878 65.5542 98.5956 65.5184 98.4392 65.4467C98.2828 65.3685 98.1297 65.2382 97.9798 65.0557L90.9134 56.0639C90.933 56.2919 90.946 56.5167 90.9525 56.7383C90.9655 56.9598 90.972 57.1651 90.972 57.354V65.5542H88.382V51.3725H89.9263C90.0501 51.3725 90.1543 51.379 90.239 51.392C90.3302 51.3985 90.4117 51.4213 90.4834 51.4604C90.555 51.493 90.6234 51.5386 90.6886 51.5973C90.7538 51.6559 90.8254 51.7341 90.9036 51.8318L98.0189 60.8628C97.9929 60.6152 97.9733 60.3774 97.9603 60.1493C97.9472 59.9147 97.9407 59.6932 97.9407 59.4847V51.3725H100.531ZM118.823 58.4585C118.823 59.4945 118.647 60.449 118.295 61.3222C117.95 62.1888 117.458 62.9348 116.819 63.5604C116.187 64.1859 115.425 64.6746 114.532 65.0264C113.639 65.3783 112.649 65.5542 111.561 65.5542H106.107V51.3725H111.561C112.649 51.3725 113.639 51.5484 114.532 51.9003C115.425 52.2521 116.187 52.7441 116.819 53.3761C117.458 54.0016 117.95 54.7477 118.295 55.6143C118.647 56.4809 118.823 57.4289 118.823 58.4585ZM115.812 58.4585C115.812 57.7156 115.715 57.0478 115.519 56.4548C115.324 55.8619 115.044 55.3602 114.679 54.9497C114.314 54.5392 113.867 54.2232 113.34 54.0016C112.818 53.7801 112.225 53.6693 111.561 53.6693H109.059V63.2574H111.561C112.225 63.2574 112.818 63.1499 113.34 62.9348C113.867 62.7133 114.314 62.3973 114.679 61.9868C115.044 61.5698 115.324 61.0648 115.519 60.4718C115.715 59.8789 115.812 59.2078 115.812 58.4585ZM130.613 60.1689L129.078 55.8293C128.987 55.6013 128.889 55.3341 128.785 55.0279C128.687 54.7216 128.593 54.3893 128.501 54.0309C128.41 54.3958 128.313 54.7347 128.208 55.0474C128.111 55.3537 128.016 55.6208 127.925 55.8489L126.4 60.1689H130.613ZM135.539 65.5542H133.261C133.007 65.5542 132.799 65.4956 132.636 65.3783C132.479 65.2545 132.362 65.0981 132.284 64.9091L131.326 62.2018H125.677L124.719 64.9091C124.654 65.072 124.54 65.2219 124.377 65.3587C124.214 65.489 124.009 65.5542 123.761 65.5542H121.464L127.006 51.3725H130.007L135.539 65.5542ZM151.606 51.3725V65.5542H150.091C149.863 65.5542 149.671 65.5184 149.515 65.4467C149.358 65.3685 149.205 65.2382 149.055 65.0557L141.989 56.0639C142.008 56.2919 142.021 56.5167 142.028 56.7383C142.041 56.9598 142.048 57.1651 142.048 57.354V65.5542H139.458V51.3725H141.002C141.126 51.3725 141.23 51.379 141.315 51.392C141.406 51.3985 141.487 51.4213 141.559 51.4604C141.631 51.493 141.699 51.5386 141.764 51.5973C141.829 51.6559 141.901 51.7341 141.979 51.8318L149.094 60.8628C149.068 60.6152 149.049 60.3774 149.036 60.1493C149.023 59.9147 149.016 59.6932 149.016 59.4847V51.3725H151.606ZM166.839 62.065C167.002 62.065 167.139 62.1236 167.25 62.2409L168.413 63.4822C167.839 64.2119 167.126 64.7658 166.272 65.1437C165.425 65.5216 164.415 65.7106 163.242 65.7106C162.18 65.7106 161.226 65.5314 160.379 65.173C159.532 64.8081 158.812 64.3032 158.219 63.6581C157.626 63.013 157.17 62.2474 156.85 61.3613C156.531 60.4751 156.371 59.5075 156.371 58.4585C156.371 57.7547 156.446 57.0869 156.596 56.4548C156.753 55.8163 156.977 55.2299 157.271 54.6956C157.564 54.1613 157.916 53.6791 158.326 53.249C158.743 52.819 159.212 52.4541 159.734 52.1544C160.255 51.8481 160.822 51.6168 161.434 51.4604C162.053 51.2975 162.711 51.2161 163.409 51.2161C163.93 51.2161 164.422 51.2617 164.884 51.3529C165.353 51.4442 165.79 51.5712 166.194 51.7341C166.598 51.897 166.969 52.0957 167.308 52.3303C167.654 52.5584 167.963 52.8092 168.237 53.0829L167.25 54.4317C167.191 54.5164 167.116 54.5913 167.025 54.6565C166.934 54.7216 166.81 54.7542 166.653 54.7542C166.497 54.7542 166.337 54.6988 166.174 54.588C166.018 54.4773 165.823 54.3535 165.588 54.2166C165.36 54.0798 165.07 53.956 164.718 53.8452C164.373 53.7345 163.933 53.6791 163.399 53.6791C162.806 53.6791 162.262 53.7866 161.767 54.0016C161.271 54.2166 160.845 54.5294 160.486 54.9399C160.134 55.3439 159.861 55.8423 159.665 56.4353C159.47 57.0282 159.372 57.7026 159.372 58.4585C159.372 59.2208 159.476 59.9017 159.685 60.5012C159.9 61.0941 160.19 61.5958 160.555 62.0063C160.926 62.4168 161.356 62.7296 161.845 62.9446C162.34 63.1531 162.868 63.2574 163.428 63.2574C163.76 63.2574 164.06 63.2411 164.327 63.2085C164.601 63.1759 164.852 63.1205 165.08 63.0423C165.314 62.9642 165.533 62.8632 165.735 62.7394C165.943 62.6156 166.152 62.4592 166.36 62.2702C166.432 62.2116 166.507 62.1627 166.585 62.1236C166.663 62.0845 166.748 62.065 166.839 62.065ZM175.626 53.6693V57.3149H180.356V59.5336H175.626V63.2574H181.705V65.5542H172.674V51.3725H181.705V53.6693H175.626Z" fill="#BB86FC"/>
<path d="M53.7571 119.633H76.5625V96.0134H53.7571V119.633Z" stroke="#D9D9D9" stroke-opacity="0.5" stroke-width="3.25792" stroke-linecap="round" stroke-linejoin="round"/>
<path d="M115.198 100.39V116.731H113.259V104.724C113.259 104.564 113.263 104.393 113.27 104.21C113.286 104.028 113.301 103.842 113.316 103.652L107.706 113.869C107.531 114.211 107.265 114.382 106.908 114.382H106.588C106.231 114.382 105.965 114.211 105.79 113.869L100.066 103.606C100.112 104.009 100.135 104.381 100.135 104.724V116.731H98.1961V100.39H99.8267C100.024 100.39 100.176 100.41 100.283 100.448C100.389 100.486 100.492 100.592 100.591 100.767L106.235 110.824C106.326 111.006 106.414 111.196 106.497 111.394C106.588 111.592 106.672 111.793 106.748 111.998C106.824 111.793 106.904 111.592 106.988 111.394C107.071 111.189 107.162 110.995 107.261 110.813L112.803 100.767C112.894 100.592 112.993 100.486 113.099 100.448C113.213 100.41 113.369 100.39 113.567 100.39H115.198ZM126.027 109.695C126.027 109.224 125.959 108.794 125.822 108.407C125.693 108.011 125.499 107.673 125.24 107.392C124.99 107.103 124.682 106.882 124.317 106.73C123.952 106.571 123.538 106.491 123.074 106.491C122.101 106.491 121.329 106.776 120.759 107.346C120.197 107.909 119.847 108.692 119.71 109.695H126.027ZM127.669 115.111C127.418 115.415 127.118 115.682 126.768 115.91C126.419 116.13 126.042 116.312 125.639 116.457C125.244 116.601 124.834 116.708 124.408 116.776C123.982 116.852 123.56 116.89 123.142 116.89C122.344 116.89 121.607 116.757 120.93 116.491C120.261 116.217 119.68 115.822 119.186 115.305C118.699 114.781 118.319 114.135 118.045 113.367C117.772 112.599 117.635 111.717 117.635 110.721C117.635 109.916 117.756 109.163 118 108.464C118.251 107.764 118.608 107.16 119.072 106.651C119.535 106.134 120.102 105.731 120.771 105.442C121.439 105.145 122.192 104.997 123.028 104.997C123.72 104.997 124.359 105.115 124.944 105.351C125.537 105.579 126.046 105.913 126.472 106.354C126.905 106.787 127.243 107.327 127.487 107.973C127.73 108.612 127.852 109.342 127.852 110.163C127.852 110.482 127.817 110.695 127.749 110.801C127.681 110.908 127.551 110.961 127.361 110.961H119.642C119.664 111.691 119.763 112.325 119.938 112.865C120.121 113.405 120.371 113.857 120.691 114.222C121.01 114.579 121.39 114.849 121.831 115.032C122.272 115.206 122.766 115.294 123.313 115.294C123.823 115.294 124.26 115.237 124.625 115.123C124.997 115.001 125.316 114.872 125.582 114.735C125.849 114.598 126.069 114.473 126.244 114.359C126.426 114.237 126.582 114.176 126.711 114.176C126.879 114.176 127.008 114.241 127.099 114.37L127.669 115.111ZM130.1 116.731V105.18H131.32C131.609 105.18 131.788 105.32 131.856 105.602L132.005 106.787C132.43 106.263 132.909 105.833 133.441 105.499C133.973 105.164 134.589 104.997 135.289 104.997C136.064 104.997 136.691 105.214 137.17 105.647C137.657 106.08 138.006 106.666 138.219 107.403C138.386 106.985 138.599 106.624 138.858 106.32C139.124 106.016 139.42 105.765 139.747 105.567C140.074 105.37 140.42 105.225 140.785 105.134C141.157 105.043 141.533 104.997 141.914 104.997C142.522 104.997 143.061 105.096 143.533 105.294C144.012 105.484 144.415 105.765 144.741 106.137C145.076 106.51 145.331 106.97 145.505 107.517C145.68 108.057 145.768 108.676 145.768 109.376V116.731H143.727V109.376C143.727 108.471 143.529 107.787 143.134 107.323C142.738 106.852 142.168 106.616 141.423 106.616C141.089 106.616 140.769 106.677 140.465 106.799C140.169 106.913 139.907 107.084 139.679 107.312C139.451 107.54 139.268 107.829 139.131 108.179C139.002 108.521 138.937 108.92 138.937 109.376V116.731H136.896V109.376C136.896 108.448 136.71 107.757 136.338 107.301C135.965 106.844 135.422 106.616 134.707 106.616C134.205 106.616 133.742 106.753 133.316 107.027C132.89 107.293 132.499 107.658 132.141 108.122V116.731H130.1ZM150.649 113.948C151.022 114.45 151.428 114.804 151.869 115.009C152.318 115.214 152.808 115.317 153.34 115.317C154.427 115.317 155.26 114.933 155.837 114.165C156.415 113.397 156.704 112.253 156.704 110.733C156.704 109.319 156.446 108.281 155.929 107.62C155.419 106.951 154.69 106.616 153.739 106.616C153.078 106.616 152.5 106.768 152.006 107.072C151.52 107.377 151.067 107.806 150.649 108.361V113.948ZM150.649 106.844C151.136 106.282 151.683 105.833 152.291 105.499C152.907 105.164 153.614 104.997 154.412 104.997C155.089 104.997 155.697 105.126 156.237 105.385C156.784 105.643 157.248 106.02 157.628 106.514C158.008 107 158.297 107.593 158.494 108.293C158.7 108.992 158.802 109.779 158.802 110.653C158.802 111.588 158.688 112.439 158.46 113.207C158.232 113.975 157.901 114.632 157.468 115.18C157.042 115.72 156.522 116.141 155.906 116.446C155.29 116.742 154.598 116.89 153.831 116.89C153.07 116.89 152.428 116.75 151.904 116.468C151.387 116.179 150.934 115.773 150.547 115.248L150.444 116.297C150.383 116.586 150.208 116.731 149.919 116.731H148.608V99.9344H150.649V106.844ZM168.856 109.695C168.856 109.224 168.788 108.794 168.651 108.407C168.522 108.011 168.328 107.673 168.069 107.392C167.818 107.103 167.511 106.882 167.146 106.73C166.781 106.571 166.366 106.491 165.903 106.491C164.93 106.491 164.158 106.776 163.588 107.346C163.025 107.909 162.676 108.692 162.539 109.695H168.856ZM170.498 115.111C170.247 115.415 169.947 115.682 169.597 115.91C169.248 116.13 168.871 116.312 168.468 116.457C168.073 116.601 167.663 116.708 167.237 116.776C166.811 116.852 166.389 116.89 165.971 116.89C165.173 116.89 164.436 116.757 163.759 116.491C163.09 116.217 162.509 115.822 162.014 115.305C161.528 114.781 161.148 114.135 160.874 113.367C160.601 112.599 160.464 111.717 160.464 110.721C160.464 109.916 160.585 109.163 160.829 108.464C161.079 107.764 161.437 107.16 161.9 106.651C162.364 106.134 162.93 105.731 163.599 105.442C164.268 105.145 165.021 104.997 165.857 104.997C166.549 104.997 167.187 105.115 167.773 105.351C168.366 105.579 168.875 105.913 169.301 106.354C169.734 106.787 170.072 107.327 170.316 107.973C170.559 108.612 170.681 109.342 170.681 110.163C170.681 110.482 170.646 110.695 170.578 110.801C170.509 110.908 170.38 110.961 170.19 110.961H162.471C162.493 111.691 162.592 112.325 162.767 112.865C162.949 113.405 163.2 113.857 163.52 114.222C163.839 114.579 164.219 114.849 164.66 115.032C165.101 115.206 165.595 115.294 166.142 115.294C166.652 115.294 167.089 115.237 167.454 115.123C167.826 115.001 168.145 114.872 168.411 114.735C168.677 114.598 168.898 114.473 169.073 114.359C169.255 114.237 169.411 114.176 169.54 114.176C169.707 114.176 169.837 114.241 169.928 114.37L170.498 115.111ZM174.856 107.494C175.221 106.704 175.67 106.088 176.202 105.647C176.734 105.199 177.384 104.974 178.152 104.974C178.395 104.974 178.627 105.001 178.847 105.054C179.075 105.107 179.277 105.191 179.452 105.305L179.303 106.822C179.258 107.012 179.144 107.107 178.961 107.107C178.855 107.107 178.699 107.084 178.494 107.038C178.289 106.993 178.057 106.97 177.798 106.97C177.433 106.97 177.106 107.023 176.818 107.13C176.536 107.236 176.282 107.396 176.054 107.608C175.833 107.814 175.632 108.072 175.449 108.384C175.274 108.688 175.115 109.038 174.97 109.433V116.731H172.929V105.18H174.092C174.313 105.18 174.465 105.221 174.548 105.305C174.632 105.389 174.689 105.533 174.719 105.738L174.856 107.494ZM196.093 115.18V116.731H187.336V115.18H190.836V104.039C190.836 103.705 190.848 103.367 190.87 103.025L187.963 105.522C187.864 105.605 187.765 105.659 187.666 105.681C187.567 105.697 187.476 105.697 187.393 105.681C187.309 105.666 187.229 105.636 187.153 105.59C187.085 105.545 187.031 105.495 186.993 105.442L186.355 104.564L191.224 100.356H192.877V115.18H196.093Z" fill="#D9D9D9" fill-opacity="0.5"/>
<path d="M96.1094 124.731H276.924" stroke="#D9D9D9" stroke-opacity="0.5" stroke-width="3.25792" stroke-linecap="round"/>
<path d="M53.7571 190.099H76.5625V166.479H53.7571V190.099Z" stroke="#D9D9D9" stroke-opacity="0.5" stroke-width="3.25792" stroke-linecap="round" stroke-linejoin="round"/>
<path d="M115.198 170.857V187.197H113.259V175.19C113.259 175.03 113.263 174.859 113.27 174.676C113.286 174.494 113.301 174.308 113.316 174.118L107.706 184.335C107.531 184.677 107.265 184.848 106.908 184.848H106.588C106.231 184.848 105.965 184.677 105.79 184.335L100.066 174.072C100.112 174.475 100.135 174.848 100.135 175.19V187.197H98.1961V170.857H99.8267C100.024 170.857 100.176 170.876 100.283 170.914C100.389 170.952 100.492 171.058 100.591 171.233L106.235 181.29C106.326 181.472 106.414 181.663 106.497 181.86C106.588 182.058 106.672 182.259 106.748 182.465C106.824 182.259 106.904 182.058 106.988 181.86C107.071 181.655 107.162 181.461 107.261 181.279L112.803 171.233C112.894 171.058 112.993 170.952 113.099 170.914C113.213 170.876 113.369 170.857 113.567 170.857H115.198ZM126.027 180.161C126.027 179.69 125.959 179.26 125.822 178.873C125.693 178.477 125.499 178.139 125.24 177.858C124.99 177.569 124.682 177.349 124.317 177.196C123.952 177.037 123.538 176.957 123.074 176.957C122.101 176.957 121.329 177.242 120.759 177.812C120.197 178.375 119.847 179.158 119.71 180.161H126.027ZM127.669 185.577C127.418 185.882 127.118 186.148 126.768 186.376C126.419 186.596 126.042 186.779 125.639 186.923C125.244 187.067 124.834 187.174 124.408 187.242C123.982 187.318 123.56 187.356 123.142 187.356C122.344 187.356 121.607 187.223 120.93 186.957C120.261 186.684 119.68 186.288 119.186 185.771C118.699 185.247 118.319 184.601 118.045 183.833C117.772 183.065 117.635 182.183 117.635 181.187C117.635 180.382 117.756 179.629 118 178.93C118.251 178.23 118.608 177.626 119.072 177.117C119.535 176.6 120.102 176.197 120.771 175.908C121.439 175.611 122.192 175.463 123.028 175.463C123.72 175.463 124.359 175.581 124.944 175.817C125.537 176.045 126.046 176.379 126.472 176.82C126.905 177.253 127.243 177.793 127.487 178.439C127.73 179.078 127.852 179.808 127.852 180.629C127.852 180.948 127.817 181.161 127.749 181.267C127.681 181.374 127.551 181.427 127.361 181.427H119.642C119.664 182.157 119.763 182.791 119.938 183.331C120.121 183.871 120.371 184.323 120.691 184.688C121.01 185.045 121.39 185.315 121.831 185.498C122.272 185.672 122.766 185.76 123.313 185.76C123.823 185.76 124.26 185.703 124.625 185.589C124.997 185.467 125.316 185.338 125.582 185.201C125.849 185.064 126.069 184.939 126.244 184.825C126.426 184.703 126.582 184.642 126.711 184.642C126.879 184.642 127.008 184.707 127.099 184.836L127.669 185.577ZM130.1 187.197V175.646H131.32C131.609 175.646 131.788 175.786 131.856 176.068L132.005 177.253C132.43 176.729 132.909 176.299 133.441 175.965C133.973 175.631 134.589 175.463 135.289 175.463C136.064 175.463 136.691 175.68 137.17 176.113C137.657 176.547 138.006 177.132 138.219 177.869C138.386 177.451 138.599 177.09 138.858 176.786C139.124 176.482 139.42 176.231 139.747 176.033C140.074 175.836 140.42 175.691 140.785 175.6C141.157 175.509 141.533 175.463 141.914 175.463C142.522 175.463 143.061 175.562 143.533 175.76C144.012 175.95 144.415 176.231 144.741 176.604C145.076 176.976 145.331 177.436 145.505 177.983C145.68 178.523 145.768 179.143 145.768 179.842V187.197H143.727V179.842C143.727 178.937 143.529 178.253 143.134 177.789C142.738 177.318 142.168 177.082 141.423 177.082C141.089 177.082 140.769 177.143 140.465 177.265C140.169 177.379 139.907 177.55 139.679 177.778C139.451 178.006 139.268 178.295 139.131 178.645C139.002 178.987 138.937 179.386 138.937 179.842V187.197H136.896V179.842C136.896 178.914 136.71 178.223 136.338 177.767C135.965 177.311 135.422 177.082 134.707 177.082C134.205 177.082 133.742 177.219 133.316 177.493C132.89 177.759 132.499 178.124 132.141 178.588V187.197H130.1ZM150.649 184.414C151.022 184.916 151.428 185.27 151.869 185.475C152.318 185.68 152.808 185.783 153.34 185.783C154.427 185.783 155.26 185.399 155.837 184.631C156.415 183.863 156.704 182.719 156.704 181.199C156.704 179.785 156.446 178.747 155.929 178.086C155.419 177.417 154.69 177.082 153.739 177.082C153.078 177.082 152.5 177.234 152.006 177.539C151.52 177.843 151.067 178.272 150.649 178.827V184.414ZM150.649 177.311C151.136 176.748 151.683 176.299 152.291 175.965C152.907 175.631 153.614 175.463 154.412 175.463C155.089 175.463 155.697 175.592 156.237 175.851C156.784 176.109 157.248 176.486 157.628 176.98C158.008 177.466 158.297 178.059 158.494 178.759C158.7 179.458 158.802 180.245 158.802 181.119C158.802 182.054 158.688 182.905 158.46 183.673C158.232 184.441 157.901 185.099 157.468 185.646C157.042 186.186 156.522 186.608 155.906 186.912C155.29 187.208 154.598 187.356 153.831 187.356C153.07 187.356 152.428 187.216 151.904 186.934C151.387 186.646 150.934 186.239 150.547 185.714L150.444 186.763C150.383 187.052 150.208 187.197 149.919 187.197H148.608V170.4H150.649V177.311ZM168.856 180.161C168.856 179.69 168.788 179.26 168.651 178.873C168.522 178.477 168.328 178.139 168.069 177.858C167.818 177.569 167.511 177.349 167.146 177.196C166.781 177.037 166.366 176.957 165.903 176.957C164.93 176.957 164.158 177.242 163.588 177.812C163.025 178.375 162.676 179.158 162.539 180.161H168.856ZM170.498 185.577C170.247 185.882 169.947 186.148 169.597 186.376C169.248 186.596 168.871 186.779 168.468 186.923C168.073 187.067 167.663 187.174 167.237 187.242C166.811 187.318 166.389 187.356 165.971 187.356C165.173 187.356 164.436 187.223 163.759 186.957C163.09 186.684 162.509 186.288 162.014 185.771C161.528 185.247 161.148 184.601 160.874 183.833C160.601 183.065 160.464 182.183 160.464 181.187C160.464 180.382 160.585 179.629 160.829 178.93C161.079 178.23 161.437 177.626 161.9 177.117C162.364 176.6 162.93 176.197 163.599 175.908C164.268 175.611 165.021 175.463 165.857 175.463C166.549 175.463 167.187 175.581 167.773 175.817C168.366 176.045 168.875 176.379 169.301 176.82C169.734 177.253 170.072 177.793 170.316 178.439C170.559 179.078 170.681 179.808 170.681 180.629C170.681 180.948 170.646 181.161 170.578 181.267C170.509 181.374 170.38 181.427 170.19 181.427H162.471C162.493 182.157 162.592 182.791 162.767 183.331C162.949 183.871 163.2 184.323 163.52 184.688C163.839 185.045 164.219 185.315 164.66 185.498C165.101 185.672 165.595 185.76 166.142 185.76C166.652 185.76 167.089 185.703 167.454 185.589C167.826 185.467 168.145 185.338 168.411 185.201C168.677 185.064 168.898 184.939 169.073 184.825C169.255 184.703 169.411 184.642 169.54 184.642C169.707 184.642 169.837 184.707 169.928 184.836L170.498 185.577ZM174.856 177.96C175.221 177.17 175.67 176.554 176.202 176.113C176.734 175.665 177.384 175.44 178.152 175.44C178.395 175.44 178.627 175.467 178.847 175.52C179.075 175.573 179.277 175.657 179.452 175.771L179.303 177.288C179.258 177.478 179.144 177.573 178.961 177.573C178.855 177.573 178.699 177.55 178.494 177.504C178.289 177.459 178.057 177.436 177.798 177.436C177.433 177.436 177.106 177.489 176.818 177.596C176.536 177.702 176.282 177.862 176.054 178.074C175.833 178.28 175.632 178.538 175.449 178.85C175.274 179.154 175.115 179.504 174.97 179.899V187.197H172.929V175.646H174.092C174.313 175.646 174.465 175.688 174.548 175.771C174.632 175.855 174.689 175.999 174.719 176.204L174.856 177.96ZM195.739 185.27C195.96 185.27 196.135 185.334 196.264 185.463C196.393 185.593 196.458 185.76 196.458 185.965V187.197H185.557V186.501C185.557 186.357 185.587 186.208 185.648 186.056C185.709 185.904 185.804 185.764 185.933 185.634L191.167 180.378C191.6 179.937 191.995 179.515 192.353 179.112C192.71 178.702 193.014 178.291 193.265 177.881C193.516 177.47 193.71 177.056 193.847 176.638C193.983 176.212 194.052 175.76 194.052 175.281C194.052 174.802 193.976 174.384 193.824 174.027C193.672 173.662 193.463 173.361 193.197 173.126C192.938 172.89 192.63 172.715 192.273 172.601C191.916 172.48 191.532 172.419 191.121 172.419C190.703 172.419 190.319 172.48 189.97 172.601C189.62 172.723 189.308 172.894 189.035 173.114C188.768 173.327 188.544 173.582 188.362 173.878C188.179 174.175 188.05 174.502 187.974 174.859C187.883 175.125 187.757 175.304 187.598 175.395C187.446 175.478 187.229 175.501 186.948 175.463L185.887 175.281C185.994 174.536 186.199 173.878 186.503 173.308C186.815 172.73 187.203 172.248 187.666 171.86C188.138 171.472 188.673 171.18 189.274 170.982C189.875 170.777 190.525 170.674 191.224 170.674C191.916 170.674 192.562 170.777 193.162 170.982C193.763 171.187 194.284 171.488 194.725 171.883C195.165 172.271 195.511 172.746 195.762 173.308C196.013 173.871 196.138 174.509 196.138 175.224C196.138 175.832 196.047 176.398 195.865 176.923C195.682 177.44 195.435 177.934 195.124 178.405C194.812 178.876 194.451 179.336 194.04 179.785C193.637 180.233 193.208 180.686 192.752 181.142L188.442 185.543C188.746 185.46 189.054 185.395 189.365 185.349C189.677 185.296 189.977 185.27 190.266 185.27H195.739Z" fill="#D9D9D9" fill-opacity="0.5"/>
<path d="M96.1094 195.197H276.924" stroke="#D9D9D9" stroke-opacity="0.5" stroke-width="3.25792" stroke-linecap="round"/>
<path d="M90.5668 237.76V260.565M79.1641 249.163H101.969H79.1641Z" stroke="#BB86FC" stroke-width="3.25792" stroke-linecap="round" stroke-linejoin="round"/>
<path d="M132.28 251.596L129.714 244.949C129.638 244.751 129.558 244.523 129.475 244.265C129.391 243.998 129.311 243.717 129.235 243.421C129.076 244.036 128.912 244.55 128.745 244.96L126.179 251.596H132.28ZM136.886 257.663H135.176C134.978 257.663 134.819 257.613 134.697 257.514C134.576 257.416 134.484 257.29 134.423 257.138L132.896 253.193H125.564L124.036 257.138C123.99 257.275 123.903 257.397 123.773 257.503C123.644 257.61 123.484 257.663 123.294 257.663H121.584L128.118 241.323H130.353L136.886 257.663ZM145.594 248.86C145.214 248.351 144.803 247.997 144.362 247.799C143.921 247.594 143.427 247.491 142.88 247.491C141.808 247.491 140.983 247.875 140.405 248.643C139.828 249.411 139.539 250.506 139.539 251.927C139.539 252.68 139.603 253.326 139.733 253.866C139.862 254.398 140.052 254.839 140.303 255.188C140.554 255.53 140.862 255.781 141.226 255.941C141.591 256.101 142.006 256.18 142.469 256.18C143.138 256.18 143.72 256.028 144.214 255.724C144.716 255.42 145.176 254.991 145.594 254.436V248.86ZM147.623 240.867V257.663H146.415C146.126 257.663 145.943 257.522 145.867 257.241L145.685 255.838C145.191 256.431 144.628 256.91 143.997 257.275C143.366 257.64 142.637 257.822 141.808 257.822C141.147 257.822 140.546 257.697 140.006 257.446C139.467 257.188 139.007 256.811 138.627 256.317C138.246 255.823 137.954 255.207 137.749 254.47C137.543 253.733 137.441 252.885 137.441 251.927C137.441 251.076 137.555 250.285 137.783 249.555C138.011 248.818 138.338 248.179 138.763 247.64C139.189 247.1 139.71 246.678 140.326 246.374C140.949 246.062 141.648 245.907 142.424 245.907C143.131 245.907 143.735 246.028 144.237 246.271C144.746 246.507 145.198 246.838 145.594 247.263V240.867H147.623ZM158.111 248.86C157.73 248.351 157.32 247.997 156.879 247.799C156.438 247.594 155.944 247.491 155.397 247.491C154.325 247.491 153.5 247.875 152.922 248.643C152.345 249.411 152.056 250.506 152.056 251.927C152.056 252.68 152.12 253.326 152.25 253.866C152.379 254.398 152.569 254.839 152.82 255.188C153.071 255.53 153.378 255.781 153.743 255.941C154.108 256.101 154.522 256.18 154.986 256.18C155.655 256.18 156.237 256.028 156.731 255.724C157.233 255.42 157.692 254.991 158.111 254.436V248.86ZM160.14 240.867V257.663H158.932C158.643 257.663 158.46 257.522 158.384 257.241L158.202 255.838C157.708 256.431 157.145 256.91 156.514 257.275C155.883 257.64 155.153 257.822 154.325 257.822C153.663 257.822 153.063 257.697 152.523 257.446C151.983 257.188 151.524 256.811 151.143 256.317C150.763 255.823 150.471 255.207 150.265 254.47C150.06 253.733 149.958 252.885 149.958 251.927C149.958 251.076 150.072 250.285 150.3 249.555C150.528 248.818 150.855 248.179 151.28 247.64C151.706 247.1 152.227 246.678 152.842 246.374C153.466 246.062 154.165 245.907 154.941 245.907C155.648 245.907 156.252 246.028 156.754 246.271C157.263 246.507 157.715 246.838 158.111 247.263V240.867H160.14ZM186.173 241.323V257.663H184.234V245.656C184.234 245.496 184.238 245.325 184.246 245.143C184.261 244.96 184.276 244.774 184.291 244.584L178.681 254.801C178.506 255.143 178.24 255.314 177.883 255.314H177.564C177.206 255.314 176.94 255.143 176.765 254.801L171.041 244.538C171.087 244.941 171.11 245.314 171.11 245.656V257.663H169.171V241.323H170.802C170.999 241.323 171.151 241.342 171.258 241.38C171.364 241.418 171.467 241.524 171.566 241.699L177.21 251.756C177.301 251.939 177.389 252.129 177.472 252.326C177.564 252.524 177.647 252.725 177.723 252.931C177.799 252.725 177.879 252.524 177.963 252.326C178.046 252.121 178.138 251.927 178.236 251.745L183.778 241.699C183.869 241.524 183.968 241.418 184.075 241.38C184.189 241.342 184.344 241.323 184.542 241.323H186.173ZM197.002 250.627C197.002 250.156 196.934 249.726 196.797 249.339C196.668 248.943 196.474 248.605 196.215 248.324C195.965 248.035 195.657 247.815 195.292 247.663C194.927 247.503 194.513 247.423 194.049 247.423C193.076 247.423 192.304 247.708 191.734 248.278C191.172 248.841 190.822 249.624 190.685 250.627H197.002ZM198.644 256.044C198.393 256.348 198.093 256.614 197.743 256.842C197.394 257.062 197.017 257.245 196.615 257.389C196.219 257.533 195.809 257.64 195.383 257.708C194.957 257.784 194.535 257.822 194.117 257.822C193.319 257.822 192.582 257.689 191.905 257.423C191.236 257.15 190.655 256.754 190.161 256.237C189.674 255.713 189.294 255.067 189.02 254.299C188.747 253.531 188.61 252.649 188.61 251.653C188.61 250.848 188.732 250.095 188.975 249.396C189.226 248.696 189.583 248.092 190.047 247.583C190.51 247.066 191.077 246.663 191.746 246.374C192.415 246.078 193.167 245.929 194.003 245.929C194.695 245.929 195.334 246.047 195.919 246.283C196.512 246.511 197.021 246.845 197.447 247.286C197.88 247.72 198.219 248.259 198.462 248.905C198.705 249.544 198.827 250.274 198.827 251.095C198.827 251.414 198.793 251.627 198.724 251.733C198.656 251.84 198.526 251.893 198.336 251.893H190.617C190.64 252.623 190.738 253.257 190.913 253.797C191.096 254.337 191.347 254.789 191.666 255.154C191.985 255.511 192.365 255.781 192.806 255.964C193.247 256.139 193.741 256.226 194.288 256.226C194.798 256.226 195.235 256.169 195.6 256.055C195.972 255.933 196.292 255.804 196.558 255.667C196.824 255.53 197.044 255.405 197.219 255.291C197.401 255.169 197.557 255.109 197.686 255.109C197.854 255.109 197.983 255.173 198.074 255.302L198.644 256.044ZM201.075 257.663V246.112H202.296C202.584 246.112 202.763 246.252 202.831 246.534L202.98 247.72C203.405 247.195 203.884 246.766 204.416 246.431C204.949 246.097 205.564 245.929 206.264 245.929C207.039 245.929 207.666 246.146 208.145 246.579C208.632 247.013 208.981 247.598 209.194 248.335C209.361 247.917 209.574 247.556 209.833 247.252C210.099 246.948 210.395 246.697 210.722 246.499C211.049 246.302 211.395 246.157 211.76 246.066C212.132 245.975 212.509 245.929 212.889 245.929C213.497 245.929 214.037 246.028 214.508 246.226C214.987 246.416 215.39 246.697 215.717 247.07C216.051 247.442 216.306 247.902 216.481 248.449C216.655 248.989 216.743 249.609 216.743 250.308V257.663H214.702V250.308C214.702 249.403 214.504 248.719 214.109 248.255C213.713 247.784 213.143 247.549 212.398 247.549C212.064 247.549 211.745 247.609 211.441 247.731C211.144 247.845 210.882 248.016 210.654 248.244C210.426 248.472 210.243 248.761 210.106 249.111C209.977 249.453 209.913 249.852 209.913 250.308V257.663H207.871V250.308C207.871 249.381 207.685 248.689 207.313 248.233C206.94 247.777 206.397 247.549 205.682 247.549C205.18 247.549 204.717 247.685 204.291 247.959C203.865 248.225 203.474 248.59 203.117 249.054V257.663H201.075ZM221.624 254.88C221.997 255.382 222.404 255.736 222.844 255.941C223.293 256.146 223.783 256.249 224.315 256.249C225.402 256.249 226.235 255.865 226.813 255.097C227.39 254.329 227.679 253.185 227.679 251.665C227.679 250.251 227.421 249.213 226.904 248.552C226.394 247.883 225.665 247.549 224.714 247.549C224.053 247.549 223.475 247.701 222.981 248.005C222.495 248.309 222.042 248.738 221.624 249.293V254.88ZM221.624 247.777C222.111 247.214 222.658 246.766 223.266 246.431C223.882 246.097 224.589 245.929 225.387 245.929C226.064 245.929 226.672 246.059 227.212 246.317C227.759 246.575 228.223 246.952 228.603 247.446C228.983 247.932 229.272 248.525 229.469 249.225C229.675 249.924 229.777 250.711 229.777 251.585C229.777 252.52 229.663 253.371 229.435 254.139C229.207 254.907 228.876 255.565 228.443 256.112C228.017 256.652 227.497 257.074 226.881 257.378C226.265 257.674 225.573 257.822 224.806 257.822C224.046 257.822 223.403 257.682 222.879 257.4C222.362 257.112 221.909 256.705 221.522 256.18L221.419 257.229C221.358 257.518 221.183 257.663 220.895 257.663H219.583V240.867H221.624V247.777ZM239.831 250.627C239.831 250.156 239.763 249.726 239.626 249.339C239.497 248.943 239.303 248.605 239.044 248.324C238.794 248.035 238.486 247.815 238.121 247.663C237.756 247.503 237.342 247.423 236.878 247.423C235.905 247.423 235.133 247.708 234.563 248.278C234.001 248.841 233.651 249.624 233.514 250.627H239.831ZM241.473 256.044C241.222 256.348 240.922 256.614 240.572 256.842C240.223 257.062 239.846 257.245 239.443 257.389C239.048 257.533 238.638 257.64 238.212 257.708C237.786 257.784 237.364 257.822 236.946 257.822C236.148 257.822 235.411 257.689 234.734 257.423C234.065 257.15 233.484 256.754 232.99 256.237C232.503 255.713 232.123 255.067 231.849 254.299C231.576 253.531 231.439 252.649 231.439 251.653C231.439 250.848 231.56 250.095 231.804 249.396C232.055 248.696 232.412 248.092 232.876 247.583C233.339 247.066 233.906 246.663 234.575 246.374C235.243 246.078 235.996 245.929 236.832 245.929C237.524 245.929 238.163 246.047 238.748 246.283C239.341 246.511 239.85 246.845 240.276 247.286C240.709 247.72 241.047 248.259 241.291 248.905C241.534 249.544 241.656 250.274 241.656 251.095C241.656 251.414 241.621 251.627 241.553 251.733C241.485 251.84 241.355 251.893 241.165 251.893H233.446C233.468 252.623 233.567 253.257 233.742 253.797C233.925 254.337 234.175 254.789 234.495 255.154C234.814 255.511 235.194 255.781 235.635 255.964C236.076 256.139 236.57 256.226 237.117 256.226C237.627 256.226 238.064 256.169 238.429 256.055C238.801 255.933 239.12 255.804 239.386 255.667C239.653 255.53 239.873 255.405 240.048 255.291C240.23 255.169 240.386 255.109 240.515 255.109C240.683 255.109 240.812 255.173 240.903 255.302L241.473 256.044ZM245.831 248.427C246.196 247.636 246.645 247.02 247.177 246.579C247.709 246.131 248.359 245.907 249.127 245.907C249.37 245.907 249.602 245.933 249.822 245.986C250.05 246.04 250.252 246.123 250.427 246.237L250.278 247.754C250.233 247.944 250.119 248.039 249.936 248.039C249.83 248.039 249.674 248.016 249.469 247.97C249.264 247.925 249.032 247.902 248.773 247.902C248.408 247.902 248.082 247.955 247.793 248.062C247.511 248.168 247.257 248.328 247.029 248.541C246.808 248.746 246.607 249.004 246.424 249.316C246.25 249.62 246.09 249.97 245.945 250.365V257.663H243.904V246.112H245.067C245.288 246.112 245.44 246.154 245.524 246.237C245.607 246.321 245.664 246.465 245.695 246.671L245.831 248.427Z" fill="#BB86FC"/>
<rect x="30.542" y="217.595" width="264.706" height="63.1357" rx="6.92308" stroke="#BB86FC" stroke-width="2.44344"/>
<rect x="2.44344" y="3.30074" width="320.905" height="320.905" rx="13.8462" stroke="#292929" stroke-width="4.88688"/>
</svg>
